/* XPM */
static char *cheese[] = {
/* width height num_colors chars_per_pixel */
"32 32 4 1",
/* colors */
". c None",
"# c #FFD700",
"@ c #FFA500",
"+ c #FFFF00",
/* pixels */
"................................",
"................................",
"................................",
"........@@@@@@@@@@@@............",
"......@@############@@..........",
"....@@####++++++######@@........",
"...@####+++++++++++####@........",
"..@####+++####++++#####@........",
"..@###+++####++++####+#@........",
".@###+++###++++####+##@.........",
".@##+++###++++####++##@.........",
".@##+++##++++###++####@.........",
".@##+++##+++##++####@...........",
".@##+++##++###+####@............",
".@###++##++++####+@.............",
"..@###+++#+++####@..............",
"..@####+++++####@...............",
"...@#####++####@................",
"....@@########@.................",
".....@@@@@@@@@@.................",
"................................",
"................................",
"................................",
"................................",
"................................",
"................................",
"................................",
"................................",
"................................",
"................................",
"................................",
"................................"
};
