/* XPM */
static char *cheese[] = {
/* width height num_colors chars_per_pixel */
"64 64 5 1",
/* colors */
". c None",
"# c #FFD700",
"@ c #FFA500",
"+ c #FFFF00",
"o c #FF8C00",
/* pixels */
"................................................................",
"................................................................",
"................................................................",
"................................................................",
"................................................................",
"....................@@@@@@@@@@@@@@@@@@@@........................",
"..................@@########################@@..................",
".................@####++++++++++++++++++######@.................",
"...............@@####++++++++++++++++++++######@@...............",
"..............@#####+++++++++++++++++++++#######@...............",
".............@#####++++++++#####++++++++########@...............",
"............@#####++++++++######++++++++########@...............",
"...........@#####++++++++######+++++++#########@................",
"...........@####++++++++######+++++++#########@.................",
"..........@####++++++++#####++++++++#########@..................",
"..........@####++++++++####++++++++#########@...................",
".........@####++++++++####++++++++#########@....................",
".........@###++++++++####++++++++########@......................",
".........@###++++++++###++++++++########@.......................",
".........@###++++++++##++++++++########@........................",
"........@###++++++++###++++++++#######@.........................",
"........@###++++++++##++++++++#######@..........................",
"........@###++++++++#++++++++#######@...........................",
"........@###++++++++#++++++++######@............................",
"........@###+++++++++++++++########@............................",
"........@####++++++++++++++#######@.............................",
".........@####++++++++++++########@.............................",
".........@#####+++++++++++#######@..............................",
"..........@######+++++++++######@...............................",
"..........@########++++++#######@...............................",
"...........@##########++########@...............................",
"............@###################@...............................",
".............@@###############@@................................",
"...............@@@@@@@@@@@@@@@@.................................",
"................................................................",
"................................................................",
"................................................................",
"................................................................",
"................................................................",
"................................................................",
"................................................................",
"................................................................",
"................................................................",
"................................................................",
"................................................................",
"................................................................",
"................................................................",
"................................................................",
"................................................................",
"................................................................",
"................................................................",
"................................................................",
"................................................................",
"................................................................",
"................................................................",
"................................................................",
"................................................................",
"................................................................",
"................................................................",
"................................................................",
"................................................................",
"................................................................",
"................................................................",
"................................................................"
};
