/* XPM */
static char *exit[] = {
/* width height num_colors chars_per_pixel */
"32 32 5 1",
/* colors */
". c None",
"# c #C0C0C0",
"@ c #808080",
"+ c #404040",
"* c #000000",
/* pixels */
"................................",
"................................",
"................................",
"........@@@@@@@@@@@@............",
"......@@############@@..........",
"....@@################@@........",
"...@####################@.......",
"..@####@@@@@@@@@@@@@@####@......",
"..@###@++++++++++++++@###@......",
".@###@++************++@###@.....",
".@##@++**++++++++++**++@##@.....",
".@##@+**+@@@@@@@@@@+**+@##@.....",
".@##@+*+@@########@@+*+@##@.....",
".@##@+*+@##......##@+*+@##@.....",
".@###@*+@##......##@+*@###@.....",
"..@###@+@##......##@+@###@......",
"..@####@@@##....##@@@####@......",
"...@#####@##....##@#####@.......",
"....@@###@##....##@###@@........",
".....@@@@@@#....#@@@@@@.........",
"............@##@................",
"............@##@................",
"............@##@................",
"............@##@................",
"............@##@................",
"............@##@................",
"............@##@................",
"............@##@................",
"............@##@................",
"............@##@................",
"............@@@@................",
"................................"
};
