/* XPM */
static char *floor[] = {
/* width height num_colors chars_per_pixel */
"64 64 2 1",
/* colors */
". c #E8E4DC",
"# c #F5F1E8",
/* pixels */
"################################################################",
"#..............................................................#",
"#..............................................................#",
"#..............................................................#",
"#..............................................................#",
"#..............................................................#",
"#..............................................................#",
"#..............................................................#",
"#..............................................................#",
"#..............................................................#",
"#..............................................................#",
"#..............................................................#",
"#..............................................................#",
"#..............................................................#",
"#..............................................................#",
"#..............................................................#",
"################################################################",
"#..............................................................#",
"#..............................................................#",
"#..............................................................#",
"#..............................................................#",
"#..............................................................#",
"#..............................................................#",
"#..............................................................#",
"#..............................................................#",
"#..............................................................#",
"#..............................................................#",
"#..............................................................#",
"#..............................................................#",
"#..............................................................#",
"#..............................................................#",
"#..............................................................#",
"################################################################",
"#..............................................................#",
"#..............................................................#",
"#..............................................................#",
"#..............................................................#",
"#..............................................................#",
"#..............................................................#",
"#..............................................................#",
"#..............................................................#",
"#..............................................................#",
"#..............................................................#",
"#..............................................................#",
"#..............................................................#",
"#..............................................................#",
"#..............................................................#",
"#..............................................................#",
"################################################################",
"#..............................................................#",
"#..............................................................#",
"#..............................................................#",
"#..............................................................#",
"#..............................................................#",
"#..............................................................#",
"#..............................................................#",
"#..............................................................#",
"#..............................................................#",
"#..............................................................#",
"#..............................................................#",
"#..............................................................#",
"#..............................................................#",
"#..............................................................#",
"#..............................................................#",
"################################################################"
};
