/* XPM */
static char *wall[] = {
/* width height num_colors chars_per_pixel */
"64 64 3 1",
/* colors */
". c #2C1B18",
"# c #3D2A24",
"@ c #4A342C",
/* pixels */
"################################################################",
"#@@@@@@@@@@@@@@@@@@@@@@@@@@@@@@@@@@@@@@@@@@@@@@@@@@@@@@@@@@@@@@#",
"#@............................................................@#",
"#@............................................................@#",
"#@............................................................@#",
"#@............................................................@#",
"#@............................................................@#",
"#@............................................................@#",
"#@............................................................@#",
"#@............................................................@#",
"#@............................................................@#",
"#@............................................................@#",
"#@............................................................@#",
"#@............................................................@#",
"#@............................................................@#",
"#@............................................................@#",
"################################################################",
"#@@@@@@@@@@@@@@@@@@@@@@@@@@@@@@@@@@@@@@@@@@@@@@@@@@@@@@@@@@@@@@#",
"#@............................................................@#",
"#@............................................................@#",
"#@............................................................@#",
"#@............................................................@#",
"#@............................................................@#",
"#@............................................................@#",
"#@............................................................@#",
"#@............................................................@#",
"#@............................................................@#",
"#@............................................................@#",
"#@............................................................@#",
"#@............................................................@#",
"#@............................................................@#",
"#@............................................................@#",
"################################################################",
"#@@@@@@@@@@@@@@@@@@@@@@@@@@@@@@@@@@@@@@@@@@@@@@@@@@@@@@@@@@@@@@#",
"#@............................................................@#",
"#@............................................................@#",
"#@............................................................@#",
"#@............................................................@#",
"#@............................................................@#",
"#@............................................................@#",
"#@............................................................@#",
"#@............................................................@#",
"#@............................................................@#",
"#@............................................................@#",
"#@............................................................@#",
"#@............................................................@#",
"#@............................................................@#",
"#@............................................................@#",
"################################################################",
"#@@@@@@@@@@@@@@@@@@@@@@@@@@@@@@@@@@@@@@@@@@@@@@@@@@@@@@@@@@@@@@#",
"#@............................................................@#",
"#@............................................................@#",
"#@............................................................@#",
"#@............................................................@#",
"#@............................................................@#",
"#@............................................................@#",
"#@............................................................@#",
"#@............................................................@#",
"#@............................................................@#",
"#@............................................................@#",
"#@............................................................@#",
"#@............................................................@#",
"#@............................................................@#",
"#@............................................................@#",
"################################################################"
};
