/* XPM */
static char *blue_cheese[] = {
/* columns rows colors chars-per-pixel */
"32 32 207 2 ",
"   c #57493C",
".  c #5C4F4C",
"X  c #595851",
"o  c #545B47",
"O  c #56614E",
"+  c #4F645E",
"@  c #5F6850",
"#  c #5A675A",
"$  c #6E6B4B",
"%  c #686A57",
"&  c #7D7B5F",
"*  c #78654A",
"=  c #456B60",
"-  c #526B63",
";  c #5A6A60",
":  c #5B736C",
">  c #5B7C77",
",  c #716D67",
"<  c #7C6F64",
"1  c #637266",
"2  c #6A7462",
"3  c #7B7E66",
"4  c #737D68",
"5  c #657870",
"6  c #8F7559",
"7  c #907B5F",
"8  c #817D63",
"9  c #897968",
"0  c #8A7963",
"q  c #847A71",
"w  c #8A7D72",
"e  c #7B806D",
"r  c #6C8070",
"t  c #64817D",
"y  c #7A8A76",
"u  c #87886E",
"i  c #81846E",
"p  c #968061",
"a  c #978967",
"s  c #9A856C",
"d  c #95856C",
"f  c #898974",
"g  c #8C807B",
"h  c #878876",
"j  c #9C8B72",
"k  c #958A79",
"l  c #8C9278",
"z  c #969276",
"x  c #989379",
"c  c #A18B6D",
"v  c #AB8F6E",
"b  c #A6906F",
"n  c #AF986F",
"m  c #A09677",
"M  c #A49979",
"N  c #AC9F7D",
"B  c #A69578",
"V  c #B09F7F",
"C  c #B09D77",
"Z  c #ABA27B",
"A  c #B7A074",
"S  c #BCA373",
"D  c #BBA07D",
"F  c #BBAB7D",
"G  c #C6AA7E",
"H  c #748E80",
"J  c #789790",
"K  c #7C9888",
"L  c #918983",
"P  c #9A8E82",
"I  c #879580",
"U  c #889280",
"Y  c #8E9F8E",
"T  c #999581",
"R  c #9D9C81",
"E  c #9C938F",
"W  c #9D9790",
"Q  c #A49482",
"!  c #A99C86",
"~  c #A49B8B",
"^  c #A79C87",
"/  c #B79B82",
"(  c #A29C94",
")  c #9AA591",
"_  c #9CAD9C",
"`  c #A3A184",
"'  c #ABA28A",
"]  c #B4A485",
"[  c #BCA581",
"{  c #B9A985",
"}  c #B4AC8A",
"|  c #BDAB8C",
" . c #B6A785",
".. c #BFB18A",
"X. c #A1A791",
"o. c #A7A09A",
"O. c #A8AE94",
"+. c #B3A693",
"@. c #BCB594",
"#. c #B3B091",
"$. c #B5B0A7",
"%. c #B7B1AC",
"&. c #BEBAB8",
"*. c #C1AC85",
"=. c #C8AF86",
"-. c #C3AE8B",
";. c #C4A781",
":. c #CEB585",
">. c #C3B18B",
",. c #CDB38B",
"<. c #CEB98D",
"1. c #D5BA8D",
"2. c #DABB89",
"3. c #C1AB93",
"4. c #C6B493",
"5. c #CDB692",
"6. c #CCBB93",
"7. c #C4B79A",
"8. c #CFBE9E",
"9. c #C6B995",
"0. c #D4B791",
"q. c #D3BC92",
"w. c #D9BB91",
"e. c #D4BE99",
"r. c #DCBA98",
"t. c #C3BBA4",
"y. c #C9BEAE",
"u. c #C0BDB5",
"i. c #BDC1A8",
"p. c #DAC18D",
"a. c #D4C096",
"s. c #DDC394",
"d. c #DECA9A",
"f. c #D9C09A",
"g. c #D7D39E",
"h. c #E1C394",
"j. c #E0C798",
"k. c #E3CB9D",
"l. c #E8CC9B",
"z. c #E5D09F",
"x. c #C1C6AA",
"c. c #CFC0AE",
"v. c #CDCCAC",
"b. c #CCCBA3",
"n. c #D7CCA7",
"m. c #DAC5A8",
"M. c #DBD2AE",
"N. c #CECEB1",
"B. c #D5CBB3",
"V. c #C9D0B8",
"C. c #DCD4B1",
"Z. c #DEDABA",
"A. c #DAD4B8",
"S. c #E4CBA0",
"D. c #EAD4A4",
"F. c #E9D6AC",
"G. c #EADCA9",
"H. c #E7D3A5",
"J. c #F0D9AE",
"K. c #E2CDB0",
"L. c #E2D3B1",
"P. c #EDDFB7",
"I. c #E2D3B9",
"U. c #E3DBBB",
"Y. c #E9DDBD",
"T. c #E2DAB6",
"R. c #F1DEB4",
"E. c #E8E0B0",
"W. c #E5E1BE",
"Q. c #ECE3BB",
"!. c #F5E3BA",
"~. c #FAEBBE",
"^. c #F2E5B8",
"/. c #C9C6C5",
"(. c #CFCCCA",
"). c #C6C5C3",
"_. c #D2CFCE",
"`. c #DCDEC4",
"'. c #D6D1C9",
"]. c #DDDCDB",
"[. c #D9D6D4",
"{. c #E3DDD4",
"}. c #E0DFDE",
"|. c #EBE3C2",
" X c #EBE6C9",
".X c #EBEBCC",
"XX c #EAE6C2",
"oX c #F4E5C2",
"OX c #FAE5C1",
"+X c #F6ECC7",
"@X c #FAEBC4",
"#X c #F3E5CA",
"$X c #F5ECCC",
"%X c #FAECCB",
"&X c #FDF2CC",
"*X c #FDF6CA",
"=X c #E4E1DD",
"-X c #E9E6DF",
";X c #F2E9D2",
":X c #E3E3E3",
">X c #ECECED",
",X c #F4EFE9",
"<X c #F1F0EE",
"1X c #F8F5EE",
"2X c #EFEFF0",
"3X c #F7F7F8",
"4X c #FF00FF",
/* pixels */
"4X4X4X4X4X4X4X4X4X4X4X4X4X4X4X4X4X4X4X4X4X4X4X4X4X4X4X4X4X4X4X4X",
"4X4X4X4X4X4X4X4X4X4X4X4X4X4X4X4X4X4X4X4X4X4X4X4X4X4X4X4X4X4X4X4X",
"4X4X4X4X4X4X4X4X4X4X4X4X4X4X4X4X4X4X4X4X4X4X4X4X4X4X4X4X4X4X4X4X",
"4X4X4X4X4X4X4X4X4X4X4X4X4X4X4X4X4X4X4X4X4X4X4X4X4X4X4X4X4X4X4X4X",
"4X4X4X4X4X4X4X4X4X4X4X4X:X, W L /.4X4X4X4X4X4X4X4X4X4X4X4X4X4X4X",
"4X4X4X4X4X4X4X4X4X4X:X_.y.@.#X#XZ.<X4X4X4X4X4X4X4X4X4X4X4X4X4X4X",
"4X4X4X4X4X4X4X4X4Xo.^ I.%X&XQ.C.Y.k }.4X4X4X4X4X4X4X4X4X4X4X4X4X",
"4X4X4X4X4X4X4X).u.;X&X|.|.Y.#.3 i.t.q 4X4X4X4X4X4X4X4X4X4X4X4X4X",
"4X4X4X4X4X4X4X{.M.*Xv.h `.$X|.N.Z.&X^ >X4X4X4X4X4X4X4X4X4X4X4X4X",
"4X4X4X4X4X4X1X!.&XW.I J _ W.@X~.@X~.Y.E 4X4X4X4X4X4X4X4X4X4X4X4X",
"4X4X4X4X4X].I.^.@X#XO.y y A.!.F.%X$X%Xc./.4X4X4X4X4X4X4X4X4X4X4X",
"4X4X4X4X4Xk G d.~.@XXXO.v.%X!.@XV.) x. Xw (.4X4X4X4X4X4X4X4X4X4X",
"4X4X4X4X4Xj <.N Z E.~.&X$XT.~.XXK > r  X7.$.4X4X4X4X4X4X4X4X4X4X",
"4X4X4X4X>X3.5.% o -.D.@XZ.` Q.Q.y = Y  X&X' 2X4X4X4X4X4X4X4X4X4X",
"4X4X4X4Xo.B K.T 8 0.2.H.Q.|.oXoXX.4 t.%X+XC.( 4X4X4X4X4X4X4X4X4X",
"4X4X4X4X-X-.D 5.<.1.*.N 6.J.OXoX$X.X$X@XP.L.B.(.4X4X4X4X4X4X4X4X",
"4X4X4X4X1X=.A <.<.e.8 2 M :.D.@X@Xb.@.@XQ.M.Y.'.4X4X4X4X4X4X4X4X",
"4X4X4X>X] 2.9.e @ } ^ O z 1.1.k.R.g.n.$Xx.) `.Y.^ 4X4X4X4X4X4X4X",
"4X4X4X]. .e.f : : 4 9.M | q.*.a F k.!.@Xv.l ) .X! (.4X4X4X4X4X4X",
"4X4X4X( / 4.# t > X ] a.5.w.C $ n 2.h.F.*XY.Z.&XL.w 4X4X4X4X4X4X",
"4X4X4X,X<.q.l : - # +.& d 1.:...q.4.| 6.G.~.@XR.@X9.[.4X4X4X4X4X",
"4X4X4X{.;.h.6.3 u ..6.m s 1.<.w.{ 2 1 e  .d.J.!.^.&XQ ].4X4X4X4X",
"4X4X4X<X9 V 0.e.f.1.:.q.-.f h 8.x ; t - i e.q.k.G.@Xm.=X4X4X4X4X",
"4X4X4X4X&.q Q 6 D G 2.s.Z 1 + R 6.l + 5 T m.V B q.l.OX4X4X4X4X4X",
"4X4X4X4X4X4X4X&.P ! j v -.} R | p.6.z ` 6.a.8 % >.2.5.,X4X4X4X4X",
"4X4X4X4X4X4X4X4X4X4X/.g +.B s / *.1.s.j.S S >.{ <.w.[ =X4X4X4X4X",
"4X4X4X4X4X4X4X4X4X4X4X4X4X:X].%.g * p b [ q.s.2.s.S.7 (.4X4X4X4X",
"4X4X4X4X4X4X4X4X4X4X4X4X4X4X4X4X4X[._.g < 0 d c c 7   :X4X4X4X4X",
"4X4X4X4X4X4X4X4X4X4X4X4X4X4X4X4X4X4X4X4X3X:X_.L . . (.4X4X4X4X4X",
"4X4X4X4X4X4X4X4X4X4X4X4X4X4X4X4X4X4X4X4X4X4X4X4X4X4X4X4X4X4X4X4X",
"4X4X4X4X4X4X4X4X4X4X4X4X4X4X4X4X4X4X4X4X4X4X4X4X4X4X4X4X4X4X4X4X",
"4X4X4X4X4X4X4X4X4X4X4X4X4X4X4X4X4X4X4X4X4X4X4X4X4X4X4X4X4X4X4X4X"
};
