/* XPM */
static char *brie[] = {
/* columns rows colors chars-per-pixel */
"32 32 155 2 ",
"   c #79623F",
".  c #7E7166",
"X  c #7E736B",
"o  c #906E3F",
"O  c #95794E",
"+  c #806852",
"@  c #816C5C",
"#  c #8B7255",
"$  c #8C745A",
"%  c #937A57",
"&  c #A07D48",
"*  c #85776B",
"=  c #86786B",
"-  c #887A6F",
";  c #907963",
":  c #967E69",
">  c #817871",
",  c #8A7C73",
"<  c #9F8048",
"1  c #A38452",
"2  c #B99654",
"3  c #BE9C54",
"4  c #988063",
"5  c #8A827D",
"6  c #93867D",
"7  c #A68B66",
"8  c #AE926B",
"9  c #B49565",
"0  c #A8967A",
"q  c #C69C5C",
"w  c #DDB557",
"e  c #D9B15A",
"r  c #E2B65A",
"t  c #E2BA5D",
"y  c #E9BE5D",
"u  c #C6A163",
"i  c #CAA463",
"p  c #CCA862",
"a  c #CDAB6F",
"s  c #D2AF64",
"d  c #D9AF62",
"f  c #D7B266",
"g  c #D8B66A",
"h  c #DCB96B",
"j  c #C2A97F",
"k  c #C2A473",
"l  c #DAB876",
"z  c #D0B37B",
"x  c #E4BD64",
"c  c #E9BF63",
"v  c #E2BD6A",
"b  c #DFC17D",
"n  c #E7C066",
"m  c #E6C26B",
"M  c #E9C56E",
"N  c #EDC96E",
"B  c #F2CC6F",
"V  c #E6C572",
"C  c #E9C671",
"Z  c #E7C872",
"A  c #EAC974",
"S  c #E8C67C",
"D  c #EBCC7B",
"F  c #F1CC72",
"G  c #F5D179",
"H  c #978D86",
"J  c #9C8F8A",
"K  c #9C8D83",
"L  c #9C928D",
"P  c #9C9590",
"I  c #A1978E",
"U  c #A5988E",
"Y  c #A29C98",
"T  c #A99E98",
"R  c #B2A28F",
"E  c #ABA093",
"W  c #ACA49D",
"Q  c #B3A89F",
"!  c #AAA4A0",
"~  c #B7AFA5",
"^  c #B3ADAB",
"/  c #BDB2A6",
"(  c #B7B1A9",
")  c #BBB3AE",
"_  c #B7B1B0",
"`  c #C9B595",
"'  c #C4B9AD",
"]  c #C2BAB3",
"[  c #CABFB9",
"{  c #DDC38B",
"}  c #EDCD81",
"|  c #E3C78C",
" . c #EDD081",
".. c #EFD088",
"X. c #E3CA93",
"o. c #EDD59F",
"O. c #C7C3BF",
"+. c #DBCAB5",
"@. c #D1C9BB",
"#. c #DACEBF",
"$. c #EBD5A9",
"%. c #E5D5B5",
"&. c #ECDDB7",
"*. c #E4D9B8",
"=. c #E9DABB",
"-. c #F1E3B8",
";. c #C6C2C3",
":. c #CAC6C6",
">. c #CCCACB",
",. c #D1CECC",
"<. c #D4D1CF",
"1. c #D5D2D1",
"2. c #DCDBDA",
"3. c #E9DEC5",
"4. c #E3DCCD",
"5. c #E9DFCD",
"6. c #E8DED1",
"7. c #E8E0CE",
"8. c #F1E6C9",
"9. c #ECE5D3",
"0. c #EFE8D6",
"q. c #EDE7DA",
"w. c #EFE8D9",
"e. c #F0E6D7",
"r. c #F0E8D5",
"t. c #F0E7D9",
"y. c #F2EBDB",
"u. c #F8F0DF",
"i. c #E4E3E4",
"p. c #EAE6E3",
"a. c #E9E8E7",
"s. c #EFEEEE",
"d. c #EBEBEC",
"f. c #F0EFEE",
"g. c #F5F0E2",
"h. c #F8F0E0",
"j. c #F8F2E2",
"k. c #FDF6E4",
"l. c #FAF6EF",
"z. c #FCF6E8",
"x. c #EEEEF0",
"c. c #F5F4F5",
"v. c #FBFBFB",
"b. c #FCFBF8",
"n. c #FCFCFB",
"m. c #FCFCFC",
"M. c #FDFCFC",
"N. c #FDFDFD",
"B. c #FDFDFC",
"V. c #FEFDFD",
"C. c #FEFEFD",
"Z. c #FEFEFE",
"A. c #FF00FF",
"S. c #FFFEFE",
"D. c #FFFFFF",
/* pixels */
"A.A.A.A.A.A.A.A.A.A.A.A.A.A.A.A.A.A.A.A.A.A.A.A.A.A.A.A.A.A.A.A.",
"A.A.A.A.A.A.A.A.A.A.A.A.A.A.A.A.A.A.A.A.A.A.A.A.A.A.A.A.A.A.A.A.",
"A.A.A.A.A.A.A.A.A.A.A.A.A.A.A.A.A.A.A.A.A.A.A.A.A.A.A.A.A.A.A.A.",
"A.A.A.A.A.A.A.A.A.A.A.A.A.A.A.A.A.A.A.A.A.A.A.A.A.A.A.A.A.A.A.A.",
"A.A.A.A.A.A.A.A.A.A.A.2.1.! T ) 2.A.A.A.A.A.A.A.A.A.A.A.A.A.A.A.",
"A.A.A.A.A.A.A.A.A.A.2.X W @.4.y.' 5 s.A.A.A.A.A.A.A.A.A.A.A.A.A.",
"A.A.A.A.A.A.A.A.A.A.q.y.k.y.0.0.k., 2.A.A.A.A.A.A.A.A.A.A.A.A.A.",
"A.A.A.A.A.a.Y p.l.0.r.r.0.0.0.0.y.4.> s.A.A.A.A.A.A.A.A.A.A.A.A.",
"A.A.A.A.A.P E y.0.0.0.0.0.0.0.0.0.h./ 2.A.A.A.A.A.A.A.A.A.A.A.A.",
"A.A.A.A.p.[ l.r.y.y.0.0.0.0.0.0.0.0.y.L c.A.A.A.A.A.A.A.A.A.A.A.",
"A.A.A.A.W +.0.y.0.0.7.4.0.0.0.0.0.0.y./ P s.A.A.A.A.A.A.A.A.A.A.",
"A.A.A.A.R p l =.0.0.0.0.0.0.0.0.0.0.0.y.6 i.A.A.A.A.A.A.A.A.A.A.",
"A.A.A.A.` d r e X.3.0.0.0.0.0.0.0.0.0.0.0.Q :.A.A.A.A.A.A.A.A.A.",
"A.A.A.H 9 m x m w g -.0.q.0.0.0.0.0.0.0.k.' W A.A.A.A.A.A.A.A.A.",
"A.A.A.. u x m A A m v o.8.q.q.6.5.0.0.0.0.e.H A.A.A.A.A.A.A.A.A.",
"A.A.A.= u x m A A A A m v { *.0.0.0.0.0.0.0.6.^ c.A.A.A.A.A.A.A.",
"A.A.A.* u c m m C C A A m x f { 3.y.0.5.0.0.h.I i.A.A.A.A.A.A.A.",
"A.A.A.* u x m C A m x m A A A m g $.r.y.0.0.0.6.O.A.A.A.A.A.A.A.",
"A.A.A.- u x n m A A v m A A A A m x S =.y.w.0.u.~ ,.A.A.A.A.A.A.",
"A.A.A.* p r x m C A A A C A m x C A n v | =.q.g.#.L A.A.A.A.A.A.",
"A.A.A.6 k m y t n C A C C A } V V A A A x v { %.k.] <.A.A.A.A.A.",
"A.A.A.c.U 7 p x n n m m C A A  .A Z V A A A m h | =.( A.A.A.A.A.",
"A.A.A.A.A.1.6 : 9 l m F A m V V A A A A A A } A t S 0 ,.A.A.A.A.",
"A.A.A.A.A.A.A.x.^ , ; 8 a V G F C C C A m C A A A A O <.A.A.A.A.",
"A.A.A.A.A.A.A.A.A.c.x.^ J $ < 3 A N F m m x m m A ..  1.A.A.A.A.",
"A.A.A.A.A.A.A.A.A.A.A.A.A.s._ K 4 j 2 C F N A m m } % 1.A.A.A.A.",
"A.A.A.A.A.A.A.A.A.A.A.A.A.A.A.A.s.>., + 8 z s A B F & <.A.A.A.A.",
"A.A.A.A.A.A.A.A.A.A.A.A.A.A.A.A.A.A.A.2.i.^ @ # 1 q o ,.A.A.A.A.",
"A.A.A.A.A.A.A.A.A.A.A.A.A.A.A.A.A.A.A.A.A.A.A.>.;.X L A.A.A.A.A.",
"A.A.A.A.A.A.A.A.A.A.A.A.A.A.A.A.A.A.A.A.A.A.A.A.A.A.A.A.A.A.A.A.",
"A.A.A.A.A.A.A.A.A.A.A.A.A.A.A.A.A.A.A.A.A.A.A.A.A.A.A.A.A.A.A.A.",
"A.A.A.A.A.A.A.A.A.A.A.A.A.A.A.A.A.A.A.A.A.A.A.A.A.A.A.A.A.A.A.A."
};
