/* XPM */
static char *cheddar[] = {
/* columns rows colors chars-per-pixel */
"32 32 203 2 ",
"   c #6F3617",
".  c #6F461A",
"X  c #71542A",
"o  c #7C623E",
"O  c #6A564A",
"+  c #695550",
"@  c #796D59",
"#  c #903D12",
"$  c #983A08",
"%  c #9A461B",
"&  c #B3420C",
"*  c #A94814",
"=  c #BA5618",
"-  c #8E6316",
";  c #9E691D",
":  c #A66717",
">  c #A1721F",
",  c #B97314",
"<  c #874926",
"1  c #A45A23",
"2  c #8E712F",
"3  c #84673A",
"4  c #906C30",
"5  c #96743E",
"6  c #A87924",
"7  c #B4772A",
"8  c #A37C3B",
"9  c #AD673A",
"0  c #C75C0C",
"q  c #C55311",
"w  c #DB5F11",
"e  c #D6570D",
"r  c #CD6107",
"t  c #DA680E",
"y  c #D9700A",
"u  c #CA6219",
"i  c #DE6413",
"p  c #DA6A12",
"a  c #DA6517",
"s  c #CA7D13",
"d  c #DA7213",
"f  c #DF7B13",
"g  c #D6751D",
"h  c #E06511",
"j  c #E27611",
"k  c #E27B16",
"l  c #E5741B",
"z  c #E57C1C",
"x  c #E97D1C",
"c  c #C95E24",
"v  c #CE6823",
"b  c #DB6720",
"n  c #CC7221",
"m  c #DC7D22",
"M  c #C77B3F",
"N  c #E67524",
"B  c #805A41",
"V  c #80684C",
"C  c #90634A",
"Z  c #9C7745",
"A  c #8C7B5D",
"S  c #9B7B59",
"D  c #B07042",
"F  c #B37A57",
"G  c #816E68",
"H  c #89786A",
"J  c #947D64",
"K  c #B5841A",
"L  c #AA822A",
"P  c #B98525",
"I  c #B78A37",
"U  c #B28B36",
"Y  c #E18515",
"T  c #E48B15",
"R  c #E5841C",
"E  c #E98D1D",
"W  c #E98618",
"Q  c #F08E19",
"!  c #ED9518",
"~  c #E9971A",
"^  c #F29A1B",
"/  c #F19916",
"(  c #F5A11D",
")  c #F5A91B",
"_  c #FAAA1B",
"`  c #F6B91D",
"'  c #FDBB1B",
"]  c #FAB31A",
"[  c #DA8222",
"{  c #CD972C",
"}  c #D79B2C",
"|  c #C09B3D",
" . c #D79F35",
".. c #E68222",
"X. c #E48A23",
"o. c #EB8A24",
"O. c #E78525",
"+. c #E49224",
"@. c #ED9423",
"#. c #EB9929",
"$. c #F69C2A",
"%. c #F79728",
"&. c #DBA52C",
"*. c #C9A33B",
"=. c #D1A535",
"-. c #D6A93E",
";. c #DEB332",
":. c #E4AA2A",
">. c #EAAA28",
",. c #F5A52E",
"<. c #FEBB25",
"1. c #FCBD2B",
"2. c #F7B427",
"3. c #F7A432",
"4. c #FAA335",
"5. c #FEAC36",
"6. c #FDAC3B",
"7. c #F8AA35",
"8. c #FFB83E",
"9. c #FFC11C",
"0. c #FAC222",
"q. c #FFC826",
"w. c #FCC52C",
"e. c #FFD22C",
"r. c #FFCF3B",
"t. c #FEC535",
"y. c #FFD332",
"u. c #A68241",
"i. c #AC884A",
"p. c #B79549",
"a. c #A88B56",
"s. c #AD935E",
"d. c #BE9D52",
"f. c #B5965A",
"g. c #B49751",
"h. c #B3855C",
"j. c #9A8768",
"k. c #988A79",
"l. c #A28A62",
"z. c #A98569",
"x. c #AB916B",
"c. c #B39960",
"v. c #B89569",
"b. c #A68D7A",
"n. c #B58A6A",
"m. c #B9A467",
"M. c #BCA473",
"N. c #C49C43",
"B. c #C49D50",
"V. c #C5A244",
"C. c #C7A95A",
"Z. c #FDB240",
"A. c #CBAC67",
"S. c #D2B068",
"D. c #CEB57E",
"F. c #D1B272",
"G. c #F3C646",
"H. c #9A8B80",
"J. c #9B9189",
"K. c #A6988D",
"L. c #AF9F93",
"P. c #B19A87",
"I. c #B9A887",
"U. c #B8A99A",
"Y. c #B3ACA2",
"T. c #B8AEA4",
"R. c #B7B0A4",
"E. c #B9B5B1",
"W. c #CCB887",
"Q. c #D5BA81",
"!. c #C4AA9B",
"~. c #CBBB9B",
"^. c #C6B296",
"/. c #C2B9AC",
"(. c #C9B8A7",
"). c #C3BDB8",
"_. c #C5BDB5",
"`. c #CEC09E",
"'. c #D9C69E",
"]. c #D5C4A8",
"[. c #DBD0AE",
"{. c #C5C1BF",
"}. c #C9C0B1",
"|. c #D0CAB9",
" X c #C8C6C4",
".X c #CECBC8",
"XX c #CECCC6",
"oX c #DAD5C9",
"OX c #DBDADB",
"+X c #D7D5D4",
"@X c #E0D9CC",
"#X c #E2E1DF",
"$X c #EBE5D8",
"%X c #F7EED3",
"&X c #DEDFE3",
"*X c #E2E3E4",
"=X c #ECEDEE",
"-X c #EEE9E2",
";X c #EEEEF0",
":X c #F0EFF0",
">X c #F3F4F4",
",X c #FF00FF",
"<X c #F4F6F9",
/* pixels */
",X,X,X,X,X,X,X,X,X,X,X,X,X,X,X,X,X,X,X,X,X,X,X,X,X,X,X,X,X,X,X,X",
",X,X,X,X,X,X,X,X,X,X,X,X,X,X,X,X,X,X,X,X,X,X,X,X,X,X,X,X,X,X,X,X",
",X,X,X,X,X,X,X,X,X,X,X<XU.B /.,X,X,X,X,X,X,X,X,X,X,X,X,X,X,X,X,X",
",X,X,X,X,X,X,X,X,X,X,Xb.* c   .X,X,X,X,X,X,X,X,X,X,X,X,X,X,X,X,X",
",X,X,X,X,X,X,X,X,X,X,Xz.v a # ).,X,X,X,X,X,X,X,X,X,X,X,X,X,X,X,X",
",X,X,X,X,X,X,X,X,X,X,Xz.n N * !.,X,X,X,X,X,X,X,X,X,X,X,X,X,X,X,X",
",X,X,X,X,X,X,X,X,X,X,Xn.0 b & % F h.v.c.I.,X,X,X,X,X,X,X,X,X,X,X",
",X,X,X,X,X,X,X,X,X,X=X< u N q * < . Z I *.m.oX,X,X,X,X,X,X,X,X,X",
",X,X,X,X,X,X,X,X,X+XJ.S D M 9 C j.H O k.[.L C.`.,X,X,X,X,X,X,X,X",
",X,X,X,X,X,X,X>XE.K.U./.].^.U.L.k.k.H G ,XU.I A.,X,X,X,X,X,X,X,X",
",X,X,X,X,X,X,X X+ !.}.oX$X}.R.U.P.b.S 3 *X,Xf.S.,X,X,X,X,X,X,X,X",
",X,X,X,X,X,X,X.XZ B.m.^.(.~.I.a.8 L { > U.,Xf.A.,X,X,X,X,X,X,X,X",
",X,X,X,X,X,X,X XP 1.;.*.*.=.&.&.>.^ / s j.,Xi.C.,X,X,X,X,X,X,X,X",
",X,X,X,X,X,X,X{.- 2.q.y.e.q.1.2._ ( ^ s x.,Xg.d.,X,X,X,X,X,X,X,X",
",X,X,X,X,X,X,X=X3 :.' w.t.7.o.W f k z W u.<XF.'.,X,X,X,X,X,X,X,X",
",X,X,X,X,X,X,X,Xl.:.9.t.+.z l k z i e d : OXD.$X,X,X,X,X,X,X,X,X",
",X,X,X,X,X,X,X,Xl.:.<.+.m X.#.5.E j w w 1 &Xs.].,X,X,X,X,X,X,X,X",
",X,X,X,X,X,X,X,XA { ^ g O.Z.4.Y +.$.x w % &Xa.L :X,X,X,X,X,X,X,X",
",X,X,X,X,X,X,X,X{.7 W p 6.~ E 6.$.+.4.i $ H.-Xd.g.>X,X,X,X,X,X,X",
",X,X,X,X,X,X,X,XXX> X.p 4.6.4.E Y ,.+.a = z.,X%X=.I.,X,X,X,X,X,X",
",X,X,X,X,X,X,X,X#Xu.[ p x o.X.,.5.@.y w u n.,XoXN.a.,X,X,X,X,X,X",
",X,X,X,X,X,X,X,X,Xl.g l N o.6.,.Y Y %.h 0 v.,X|.V.c.,X,X,X,X,X,X",
",X,X,X,X,X,X,X,X,Xj.+.l N 4.8.#.,.4...r j 7 *X~.U j.,X,X,X,X,X,X",
",X,X,X,X,X,X,X,X,XA } ( f k X.4.o.j t d Q : OXW.4 ,X,X,X,X,X,X,X",
",X,X,X,X,X,X,X,X,X_.P <.2.#.Y W W W Q ^ ! : *XQ.i.,X,X,X,X,X,X,X",
",X,X,X,X,X,X,X,X,XOXL ' q.r.w.<.] _ ( ! Y , K.D.=.W.,X,X,X,X,X,X",
",X,X,X,X,X,X,X,X,X+X6 ' q.w.w.` ] _ / ! W , J @Xp.-.M.,X,X,X,X,X",
",X,X,X,X,X,X,X,X,XOX8 2.q.w.1.` ] ) / ~ +.; k.,XoX2 { x.,X,X,X,X",
",X,X,X,X,X,X,X,X,X,Xj.I G.r.t.w.1.7. .I X @ ,Xl.I N.K 3 ,X,X,X,X",
",X,X,X,X,X,X,X,X,X,X).O S p.| | I u.V H.E.>X,X(.8 5 o #X,X,X,X,X",
",X,X,X,X,X,X,X,X,X,X,X,X XY.R.T.Y.Y.=X,X,X,X,X,X>X>X,X,X,X,X,X,X",
",X,X,X,X,X,X,X,X,X,X,X,X,X,X,X,X,X,X,X,X,X,X,X,X,X,X,X,X,X,X,X,X"
};
