/* XPM */
static char *gouda[] = {
/* columns rows colors chars-per-pixel */
"32 28 162 2 ",
"   c #76170F",
".  c #75190B",
"X  c #7A2318",
"o  c #74251D",
"O  c #744138",
"+  c #7D443C",
"@  c #8B1B0B",
"#  c #861A0C",
"$  c #921A09",
"%  c #9B1C09",
"&  c #8B1E11",
"*  c #8D2009",
"=  c #952C0C",
"-  c #842013",
";  c #8E2013",
":  c #812A1A",
">  c #972F1D",
",  c #8B3511",
"<  c #A4210D",
"1  c #AE260E",
"2  c #B0270F",
"3  c #B9320B",
"4  c #A32311",
"5  c #AD2615",
"6  c #AE2A15",
"7  c #AF2718",
"8  c #A62A19",
"9  c #AD2A19",
"0  c #B22714",
"q  c #B32B16",
"w  c #BA2F11",
"e  c #B42D1C",
"r  c #BA2C1A",
"t  c #B2271C",
"y  c #A83E1B",
"u  c #BC3317",
"i  c #BC321D",
"p  c #8C372B",
"a  c #9D3C2C",
"s  c #C33017",
"d  c #C53817",
"f  c #C5371C",
"g  c #C63D18",
"h  c #CD391D",
"j  c #904F1B",
"k  c #BD4016",
"l  c #84403A",
"z  c #90493F",
"x  c #83503E",
"c  c #CF4A1C",
"v  c #C34A1D",
"b  c #DC431F",
"n  c #CD4922",
"m  c #C05223",
"M  c #CB5326",
"N  c #D05124",
"B  c #D6522F",
"V  c #D85A2B",
"C  c #D55F36",
"Z  c #DC5D31",
"A  c #E14B22",
"S  c #E55728",
"D  c #CE6A2A",
"F  c #D96232",
"G  c #D67239",
"H  c #DD773D",
"J  c #DA7134",
"K  c #844B44",
"L  c #825149",
"P  c #8B554C",
"I  c #845C56",
"U  c #9F7B4C",
"Y  c #9D6158",
"T  c #A17C4D",
"R  c #8E7D6C",
"E  c #9C7874",
"W  c #A47D6E",
"Q  c #AD7970",
"!  c #A47A74",
"~  c #B99458",
"^  c #BF9C5D",
"/  c #978060",
"(  c #968275",
")  c #B59466",
"_  c #A28D71",
"`  c #A1817E",
"'  c #A8867C",
"]  c #A79071",
"[  c #BEA06D",
"{  c #E8954F",
"}  c #E4994E",
"|  c #E08F51",
" . c #EA9252",
".. c #E78848",
"X. c #ECA657",
"o. c #EDA75B",
"O. c #CEA967",
"+. c #D2AD6B",
"@. c #D9B464",
"#. c #C1AA7F",
"$. c #CFB173",
"%. c #F4A361",
"&. c #F4AB62",
"*. c #F4B660",
"=. c #FABD6B",
"-. c #E2BC74",
";. c #EABC75",
":. c #FFBC72",
">. c #EBC16E",
",. c #F7CD6F",
"<. c #FBC16C",
"1. c #ECC876",
"2. c #F7C270",
"3. c #FCC673",
"4. c #F7CF77",
"5. c #F9CF75",
"6. c #FFC679",
"7. c #F7CF79",
"8. c #F9CF7B",
"9. c #F6D276",
"0. c #F9D376",
"q. c #F6D279",
"w. c #FBD27A",
"e. c #FCD97D",
"r. c #A68A81",
"t. c #B28982",
"y. c #AF9F89",
"u. c #A39589",
"i. c #B1908D",
"p. c #AD9692",
"a. c #BC9E97",
"s. c #B89E9B",
"d. c #B5A281",
"f. c #BDA3A0",
"g. c #BEAFA3",
"h. c #BBACAB",
"j. c #C2ADA8",
"k. c #C5B6B5",
"l. c #F7CD84",
"z. c #FBD781",
"x. c #FEDC84",
"c. c #FFDC92",
"v. c #CCC1AF",
"b. c #D3C3BF",
"n. c #CDC3C2",
"m. c #D0CAC4",
"M. c #D4CDCC",
"N. c #D2C4C4",
"B. c #D6D0C7",
"V. c #D6D0C9",
"C. c #DBD7D7",
"Z. c #DFDAD7",
"A. c #DFDDDD",
"S. c #E1DEDD",
"D. c #E6E3E2",
"F. c #EBEAE9",
"G. c #F2EFF0",
"H. c #F9F7F7",
"J. c #FF00FF",
"K. c #FDFDFD",
"L. c #FFFFFE",
"P. c #F3F3F4",
/* pixels */
"J.J.J.J.J.J.J.J.J.J.J.J.J.J.J.J.J.J.J.J.J.J.J.J.J.J.J.J.J.J.J.J.",
"J.J.J.J.J.J.J.J.J.J.J.J.J.J.J.J.J.J.J.J.J.J.J.J.J.J.J.J.J.J.J.J.",
"J.J.J.J.J.J.J.J.J.J.J.J.J.J.J.J.J.J.J.J.J.J.J.J.J.J.J.J.J.J.J.J.",
"J.J.J.J.J.J.J.J.J.J.J.J.J.Z.j.M.J.J.J.J.J.J.J.J.J.J.J.J.J.J.J.J.",
"J.J.J.J.J.J.J.J.J.J.D.! z a $ p b.J.J.J.J.J.J.J.J.J.J.J.J.J.J.J.",
"J.J.J.J.J.J.J.J.k.Q > q h g M m , ' H.J.J.J.J.J.J.J.J.J.J.J.J.J.",
"J.J.J.J.J.J.J.a.@ s b V G } *.<.:.j ( J.J.J.J.J.J.J.J.J.J.J.J.J.",
"J.J.J.J.J.J.s.= A Z ..=.5.w.0.9.w.w.T D.J.J.J.J.J.J.J.J.J.J.J.J.",
"J.J.J.J.J.S.o B S %.w.,.5.4.q.q.q.w.l.] J.J.J.J.J.J.J.J.J.J.J.J.",
"J.J.J.J.J.f.& u c o.0.5.w.q.w.w.w.7.e.O.g.J.J.J.J.J.J.J.J.J.J.J.",
"J.J.J.J.A.l 9 1 3 X.0.9.w.q.w.w.w.w.,.w.) S.J.J.J.J.J.J.J.J.J.J.",
"J.J.J.J.h.  e 5 w  .5.w.0.w.q.9.w.w.0.w.@.v.J.J.J.J.J.J.J.J.J.J.",
"J.J.J.J.f.; e 5 q N &.w.9.w.q.9.0.w.w.9.9.) F.J.J.J.J.J.J.J.J.J.",
"J.J.J.J.L 4 6 6 5 u H w.9.w.8.w.w.w.w.w.z.>./ J.J.J.J.J.J.J.J.J.",
"J.J.J.J.P < q 6 6 6 k { w.w.4.q.w.9.9.w.q.e.O.R J.J.J.J.J.J.J.J.",
"J.J.J.J.P 4 6 6 q 7 q v &.w.9.9.w.w.w.w.w.7.x.U C.J.J.J.J.J.J.J.",
"J.J.J.J.K 5 q 6 5 t 7 u F 6.w.q.q.q.w.w.q.q.z.-.y.J.J.J.J.J.J.J.",
"J.J.J.J.` @ u 0 6 6 q 5 f G 2.w.q.w.w.w.w.q.q.w.^ m.J.J.J.J.J.J.",
"J.J.J.J.G.O @ r q 6 6 6 2 3 D 3.w.w.q.w.w.q.q.w.w.#.J.J.J.J.J.J.",
"J.J.J.J.J.F.I & % < e e 9 0 g J 3.0.q.w.q.w.w.q.w.-.u.J.J.J.J.J.",
"J.J.J.J.J.J.J.N.E Y # 8 e e r g  .w.4.q.q.w.w.q.w.c._ P.J.J.J.J.",
"J.J.J.J.J.J.J.J.J.J.p.+ : * < u n %.w.q.q.9.w.x.8.+.R J.J.J.J.J.",
"J.J.J.J.J.J.J.J.J.J.J.J.n.p.t.. 4 F :.w.e.e.1.$.d.B.P.J.J.J.J.J.",
"J.J.J.J.J.J.J.J.J.J.J.J.J.J.J.h.i.X y | ;.~ _ V.J.J.J.J.J.J.J.J.",
"J.J.J.J.J.J.J.J.J.J.J.J.J.J.J.J.J.M.r.x W m.J.J.J.J.J.J.J.J.J.J.",
"J.J.J.J.J.J.J.J.J.J.J.J.J.J.J.J.J.J.J.J.J.J.J.J.J.J.J.J.J.J.J.J.",
"J.J.J.J.J.J.J.J.J.J.J.J.J.J.J.J.J.J.J.J.J.J.J.J.J.J.J.J.J.J.J.J.",
"J.J.J.J.J.J.J.J.J.J.J.J.J.J.J.J.J.J.J.J.J.J.J.J.J.J.J.J.J.J.J.J."
};
