/* XPM */
static char *parmesan[] = {
/* columns rows colors chars-per-pixel */
"32 32 158 2 ",
"   c #654F2C",
".  c #6F522A",
"X  c #7C6335",
"o  c #7B6954",
"O  c #8B5B27",
"+  c #8F6220",
"@  c #91632F",
"#  c #936225",
"$  c #846339",
"%  c #956F3B",
"&  c #9E6E39",
"*  c #977137",
"=  c #A07129",
"-  c #A37430",
";  c #A87232",
":  c #AF7A32",
">  c #956F47",
",  c #927044",
"<  c #927556",
"1  c #A17D43",
"2  c #907967",
"3  c #AC803A",
"4  c #BA8234",
"5  c #C28432",
"6  c #CD933C",
"7  c #DB9A33",
"8  c #D79B3A",
"9  c #DB9D3A",
"0  c #D59339",
"q  c #E39B35",
"w  c #E29E3C",
"e  c #DCA137",
"r  c #D6A13C",
"t  c #DEA43D",
"y  c #DFA83F",
"u  c #E0A237",
"i  c #E1A53E",
"p  c #E0A83F",
"a  c #9E8349",
"s  c #AA894E",
"d  c #B78740",
"f  c #A78858",
"g  c #AD9359",
"h  c #BF9352",
"j  c #93816D",
"k  c #AC946E",
"l  c #B29567",
"z  c #A3907F",
"x  c #AE997C",
"c  c #BDA46D",
"v  c #BCA077",
"b  c #CA8F41",
"n  c #C58E43",
"m  c #C99744",
"M  c #CF9E47",
"N  c #D39842",
"B  c #DDA441",
"V  c #DEA843",
"C  c #DAA44B",
"Z  c #DFB04C",
"A  c #D3A452",
"S  c #D2A85A",
"D  c #DAB156",
"F  c #E1A641",
"G  c #E3A944",
"H  c #E3AC4A",
"J  c #E9AD4A",
"K  c #EAA843",
"L  c #E6B34C",
"P  c #E7AF52",
"I  c #EEAF5A",
"U  c #E4B654",
"Y  c #E8B652",
"T  c #EDBF5B",
"R  c #F1B858",
"E  c #D0A768",
"W  c #D2AB66",
"Q  c #DABA66",
"!  c #D3B275",
"~  c #DEB774",
"^  c #DBBC73",
"/  c #EFBC62",
"(  c #ECC15D",
")  c #F0C25D",
"_  c #DEC06F",
"`  c #DDC27E",
"'  c #EEC363",
"]  c #E9C569",
"[  c #F3C565",
"{  c #F8C365",
"}  c #F0C867",
"|  c #F8CC67",
" . c #F3CD6D",
".. c #FBCF6D",
"X. c #F1C46A",
"o. c #F3D06F",
"O. c #FAD16E",
"+. c #EECA70",
"@. c #F4CF73",
"#. c #F5D173",
"$. c #FAD372",
"%. c #FED975",
"&. c #F5D37B",
"*. c #FBD67A",
"=. c #FBD97C",
"-. c #AF9A83",
";. c #AA9F90",
":. c #BDAE87",
">. c #B0A78F",
",. c #BCAC97",
"<. c #BEB19A",
"1. c #BBAEA1",
"2. c #BFB7AB",
"3. c #BEB9B3",
"4. c #C6AD87",
"5. c #C9AC80",
"6. c #D7BE81",
"7. c #D5BE8C",
"8. c #C0B193",
"9. c #C1B8AF",
"0. c #C3BAB2",
"q. c #DFC581",
"w. c #FAD480",
"e. c #FCD881",
"r. c #C7C0B7",
"t. c #C7C1BA",
"y. c #C9C3BD",
"u. c #CDC2B4",
"i. c #D7CDBB",
"p. c #DFD4BF",
"a. c #EBD6A3",
"s. c #EBDFBE",
"d. c #C7C1C0",
"f. c #CAC7C2",
"g. c #CDC9C5",
"h. c #D4CEC9",
"j. c #D4CEC1",
"k. c #D6D3CF",
"l. c #DAD5CB",
"z. c #D6D4D1",
"x. c #DDDBD9",
"c. c #E8E4DC",
"v. c #E4E2E1",
"b. c #EDEDEE",
"n. c #F4F2EE",
"m. c #F2F2F4",
"M. c #F6F7F9",
"N. c #FCFCFB",
"B. c #FDFCFB",
"V. c #FDFDFC",
"C. c #FDFDFC",
"Z. c #FEFDFD",
"A. c #FEFEFD",
"S. c #FEFEFE",
"D. c #FF00FF",
"F. c #FFFFFE",
"G. c #FCFEFF",
"H. c #FFFFFF",
/* pixels */
"D.D.D.D.D.D.D.D.D.D.D.D.D.D.D.D.D.D.D.D.D.D.D.D.D.D.D.D.D.D.D.D.",
"D.D.D.D.D.D.D.D.D.D.D.D.D.D.D.D.D.D.D.D.D.D.D.D.D.D.D.D.D.D.D.D.",
"D.D.D.D.D.D.D.D.D.D.D.D.D.D.D.D.D.D.D.D.D.D.D.D.D.D.D.D.D.D.D.D.",
"D.D.D.D.D.D.D.D.D.D.D.D.D.D.D.D.D.D.D.D.D.D.D.D.D.D.D.D.D.D.D.D.",
"D.D.D.D.D.D.D.D.D.D.D.D.D.D.D.D.D.D.D.D.D.D.D.D.D.D.D.D.D.D.D.D.",
"D.D.D.D.D.D.D.D.D.D.D.D.D.D.D.D.D.D.D.D.D.D.D.D.D.D.D.D.D.D.D.D.",
"D.D.D.D.D.D.D.D.D.D.D.m.1.x x r.D.D.D.D.D.D.D.D.D.D.D.D.D.D.D.D.",
"D.D.D.D.D.D.D.D.D.k.<.l h M D a h.D.D.D.D.D.D.D.D.D.D.D.D.D.D.D.",
"D.D.D.D.D.D.D.g.  s S / [ ) } +.7.D.D.D.D.D.D.D.D.D.D.D.D.D.D.D.",
"D.D.D.D.D.D.2.v A ' [ T T } | #.+.:.D.D.D.D.D.D.D.D.D.D.D.D.D.D.",
"D.D.D.D.D.n.! ] X.' [ | | #.#.#.*.^ j.D.D.D.D.D.D.D.D.D.D.D.D.D.",
"D.D.D.D.m.k U | $.| ' | #.@.@.#.@.e.g y.D.D.D.D.D.D.D.D.D.D.D.D.",
"D.D.D.D.v.! 7 H } $.| #.#.@.@.#.#.#.w.X 3.D.D.D.D.D.D.D.D.D.D.D.",
"D.D.D.D.z 5 q 7 r ( $.#.#.#.@.@.#.| *.Q >.D.D.D.D.D.D.D.D.D.D.D.",
"D.D.D.v.k 9 q 9 9 t T %.#.#.| | #.#.@.=.` l.D.D.D.D.D.D.D.D.D.D.",
"D.D.D.y.+ 9 7 i i F t Y O.#.#.#.#.#.#.#.o.c M.D.D.D.D.D.D.D.D.D.",
"D.D.D.y.; w 9 i i i i t H O.#.#.#.#.#.@.%.] i.D.D.D.D.D.D.D.D.D.",
"D.D.D.2 4 7 w F e t i F t B T $.#.#.| | #.&.q.c.D.D.D.D.D.D.D.D.",
"D.D.D.< 6 7 9 i t t t F F t r Z $.#.| #.#.@.&.c z.D.D.D.D.D.D.D.",
"D.D.m.> 0 7 i F t t t F i t B B L | #.#.@.#.#.&.<.v.D.D.D.D.D.D.",
"D.D.0.# 9 7 t i F F t F i F F F t V ' =.#.o.@.*.^ ;.x.D.D.D.D.D.",
"D.D.9.: q 7 e u i G i i i F i i i t B U %.#.#.#.=.6.z.D.D.D.D.D.",
"D.D.y.- K w i t F F i t i i B F F F F t U ( O.#.#.#.s.D.D.D.D.D.",
"D.D.D.,.O n t J B F B t i t B F F 9 i i B r L O.#.#._ p.D.D.D.D.",
"D.D.D.D.d.u.f = C 8 G i t i F B F t i i F F t B [ $.*.a.D.D.D.D.",
"D.D.D.D.D.D.b.j . ! h A P J F i F F y t F G G F B ( ..s g.D.D.D.",
"D.D.D.D.D.D.D.D.v.D.h.,.% d C F i G i t i t t F G L R & f.D.D.D.",
"D.D.D.D.D.D.D.D.D.D.D.D.3.o ,.g E N B H J K i t p J I @ f.D.D.D.",
"D.D.D.D.D.D.D.D.D.D.D.D.D.D.m.M.3.-.4.1 3 m C G t F b < z.D.D.D.",
"D.D.D.D.D.D.D.D.D.D.D.D.D.D.D.D.D.D.D.g.y.j $ * W ~ , v.D.D.D.D.",
"D.D.D.D.D.D.D.D.D.D.D.D.D.D.D.D.D.D.D.D.D.D.b.x.D.D.D.D.D.D.D.D.",
"D.D.D.D.D.D.D.D.D.D.D.D.D.D.D.D.D.D.D.D.D.D.D.D.D.D.D.D.D.D.D.D."
};
