/* XPM */
static char *ozzy_walking2_left[] = {
/* columns rows colors chars-per-pixel */
"80 50 157 2 ",
"   c gray1",
".  c #070708",
"X  c #0B0C0B",
"o  c #0F100D",
"O  c #10100F",
"+  c gray8",
"@  c #171816",
"#  c #181916",
"$  c #181718",
"%  c #1B1B1B",
"&  c #1F201F",
"*  c #212415",
"=  c #20211F",
"-  c #2F3416",
";  c #1E1E20",
":  c #232323",
">  c #272824",
",  c #282927",
"<  c #282728",
"1  c #2C2C2B",
"2  c #302F2F",
"3  c #2F302E",
"4  c #323526",
"5  c #343823",
"6  c #30312E",
"7  c #2F3030",
"8  c #323332",
"9  c #393A36",
"0  c #3C3C3B",
"q  c #3F403D",
"w  c #404527",
"e  c #43433E",
"r  c #454543",
"t  c #4A4A46",
"y  c #4D4D4B",
"u  c #4F504F",
"i  c #52524D",
"p  c #535453",
"a  c #585753",
"s  c #575852",
"d  c #5A5A55",
"f  c #5C5C5B",
"g  c #605F5A",
"h  c #656757",
"j  c #62635C",
"k  c #67685F",
"l  c #646463",
"z  c #676862",
"x  c #6B6C65",
"c  c #6C6C6B",
"v  c #726C65",
"b  c #6F706C",
"n  c #73736C",
"m  c gray45",
"M  c #777874",
"N  c #7A7B73",
"B  c #777878",
"V  c #7C7D7B",
"C  c #A77C79",
"Z  c #8C9848",
"A  c #83837B",
"S  c #89887E",
"D  c #A7AB7A",
"F  c #848483",
"G  c #8A8A83",
"H  c #8D8D8D",
"J  c #93938C",
"K  c #98988D",
"L  c #939392",
"P  c #979896",
"I  c #9C9C94",
"U  c #9A9B9A",
"Y  c #A88280",
"T  c #A09E93",
"R  c #A4A196",
"E  c #A5A39A",
"W  c #ABA99E",
"Q  c #A2A2A1",
"!  c #ACABA4",
"~  c gray67",
"^  c #B3B1A6",
"/  c #B4B4AB",
"(  c #BAB6AB",
")  c #BDBAAE",
"_  c gray70",
"`  c #B8B7B7",
"'  c #BDBCB3",
"]  c #BCBCBB",
"[  c #DBA7A4",
"{  c #C2BEB2",
"}  c #BEC0BE",
"|  c #C4C1B5",
" . c #C6C7BD",
".. c #C2C2BC",
"X. c #C9C6B9",
"o. c #CCCABE",
"O. c #D0CDBF",
"+. c #C6C6C4",
"@. c gray77",
"#. c #CACBC5",
"$. c gray81",
"%. c #CBCBCB",
"&. c #D2CEC1",
"*. c #D3CFC2",
"=. c #D0CEC1",
"-. c #D5D3C6",
";. c #D8D4C5",
":. c #D7D5C8",
">. c #D5D4CB",
",. c #DADACC",
"<. c #D9D8CC",
"1. c #D1D1D0",
"2. c gray83",
"3. c gray83",
"4. c #DBDBD3",
"5. c gray85",
"6. c #DADADA",
"7. c #DCDCDB",
"8. c #E3C7C1",
"9. c #DFE0D4",
"0. c #E4E3D7",
"q. c #E4E3D6",
"w. c #E4E4DA",
"e. c #EDE3D8",
"r. c #E7E8DC",
"t. c #E8E9DE",
"y. c gray89",
"u. c gray90",
"i. c gray90",
"p. c #E8E7E7",
"a. c #EEEFE3",
"s. c #ECEDE1",
"d. c #EBEBEA",
"f. c #EFF0EF",
"g. c #F2F2E5",
"h. c #F6F6E9",
"j. c #FAFAED",
"k. c #F1F1F1",
"l. c #F3F3F3",
"z. c #F6F6F6",
"x. c gray97",
"c. c gray96",
"v. c #FFFFF4",
"b. c #F9F9F9",
"n. c gray98",
"m. c #FBFBFB",
"M. c #FBFBFA",
"N. c gray99",
"B. c #FDFDFD",
"V. c #FDFEFE",
"C. c magenta",
"Z. c #FFFEFE",
"A. c #FEFFFE",
"S. c #FFFFFE",
"D. c #FFFEFF",
"F. c white",
"G. c #FEFEFE",
/* pixels */
"C.C.C.C.C.C.C.C.C.C.C.C.C.C.C.C.C.C.C.C.C.C.C.C.C.C.C.C.C.C.C.C.C.C.C.C.C.C.C.C.C.C.C.C.C.C.C.C.C.C.C.C.C.C.C.C.C.C.C.C.C.C.C.C.C.C.C.C.C.C.C.C.C.C.C.C.C.C.C.C.",
"C.C.C.C.C.C.C.C.%.5.C.C.C.C.C.C.C.C.C.C.C.C.C.C.C.C.C.C.C.C.C.C.C.C.C.C.C.C.C.C.C.C.C.C.C.C.C.C.C.C.C.C.C.C.C.C.C.C.C.C.C.C.C.C.C.C.C.C.C.C.C.C.C.C.C.C.C.C.C.C.",
"C.C.C.C.C.C.C.C.c 8 i.5.c m U C.C.C.C.C.C.C.C.C.C.C.C.C.C.C.C.C.C.C.C.C.C.C.C.C.C.C.C.C.C.C.C.C.C.C.C.C.C.C.C.C.C.C.C.C.C.C.C.C.C.C.C.C.C.C.C.C.C.C.C.C.C.C.C.C.",
"C.C.C.C.C.C.C.C.F   y m + % : ~ C.C.C.C.C.C.C.C.C.C.C.C.C.C.C.C.C.C.C.C.C.C.C.C.C.C.C.C.C.C.C.C.C.C.C.C.C.C.C.C.C.C.C.C.C.C.C.C.C.C.C.C.C.C.C.C.C.C.C.C.C.C.C.C.",
"C.C.C.C.C.C.C.C.V X + + p p : 1 C.C.C.C.C.C.C.C.C.C.C.C.C.C.C.C.C.C.C.C.C.C.C.C.C.C.C.C.C.C.C.C.C.C.C.C.C.C.C.C.C.C.C.C.C.C.C.C.C.C.C.C.C.C.C.C.C.C.C.C.C.C.C.C.",
"C.C.C.C.C.C.C.C.F   % % 9 p 9 9 C.C.C.C.C.C.C.C.C.C.C.C.C.C.C.C.C.C.C.C.C.C.C.C.C.C.C.C.C.C.C.C.C.C.C.C.C.C.C.C.C.C.C.C.C.C.C.C.C.C.C.C.C.C.C.C.C.C.C.C.C.C.C.C.",
"C.C.C.C.C.C.C.x.l X % % 9 f r 8 2.2.2.C.C.C.C.C.C.C.C.C.C.C.C.C.C.C.C.C.C.C.C.C.C.C.C.C.C.C.C.C.C.C.C.C.C.C.C.C.C.C.C.C.C.C.C.C.C.C.C.C.C.C.C.C.C.C.C.C.C.C.C.C.",
"C.C.C.C.C.C.C.f + : % 8 y p p : + X % 2.i.C.C.C.C.C.C.C.C.C.C.C.C.C.C.C.C.C.C.C.C.C.C.C.C.C.C.C.C.C.C.C.C.C.C.C.C.C.C.C.C.C.C.C.C.C.C.C.C.C.C.C.C.C.C.C.C.C.C.C.",
"C.C.C.C.C.x.f % p e % 1 9 y t : % & : % % %.C.C.C.C.C.C.C.C.C.C.C.C.C.C.C.C.C.C.C.C.C.C.C.C.C.C.C.C.C.C.C.C.C.C.C.C.C.C.C.C.C.C.C.C.C.C.C.C.C.C.C.C.C.C.C.C.C.C.",
"C.C.C.C.C.f % i y % : % % : 8 : % + : : % % 5.C.C.C.C.C.C.C.C.C.C.C.C.C.C.C.C.C.C.C.C.C.C.C.C.C.C.C.C.C.C.C.C.C.C.C.C.C.C.C.C.C.C.C.C.C.C.C.C.C.C.C.C.C.C.C.C.C.",
"C.C.C.C.M ' j 8 1 : : : : : : : : : : : : + 2.C.C.C.C.C.C.C.C.C.C.C.C.C.C.C.C.C.C.C.C.C.C.C.C.C.C.C.C.C.C.C.C.C.C.C.C.C.C.C.C.C.C.C.C.C.C.C.C.C.C.C.C.C.C.C.C.C.",
"C.C.C.C.c ..f   % : : : : : : : : : : : : % 1 5.C.C.C.C.C.C.C.C.C.C.C.C.C.C.C.C.C.C.C.C.C.C.C.C.C.C.C.C.C.C.C.C.C.C.C.C.C.C.C.C.C.C.C.C.C.C.C.C.C.C.C.C.C.C.C.C.",
"C.C.C.C.n ..s   w * % : : : : : : : + % : : + 9 1 _ C.C.C.C.C.C.C.C.C.C.C.C.C.C.C.C.C.C.C.C.C.C.C.C.C.C.C.C.C.C.C.C.C.C.C.C.C.C.C.C.C.C.C.C.C.C.C.C.C.C.C.C.C.C.",
"C.C.C.C.n ' D - Z 5 ; : 1 1 1 1 : : % + % : :   F x.C.C.C.C.C.C.C.C.C.C.C.C.C.C.C.C.C.C.C.C.C.C.C.C.C.C.C.C.C.C.C.C.C.C.C.C.C.C.C.C.C.C.C.C.C.C.C.C.C.C.C.C.C.C.",
"C.C.C.G / a.h $ 4 = : < 1 8 8 1 : + % + % : : $ r 9 ] C.C.C.C.C.C.C.C.V f f f f f f f f l p L C.C.C.C.C.C.C.C.C.C.C.C.C.C.C.C.C.C.C.C.C.C.C.C.C.C.C.C.C.C.C.C.C.",
"C.C.A Y [ e.c 9 9 8 9 r 9 : : : : % + + % : : : %   f U H L L L L L H : + + + + + + + + +   f C.C.C.C.C.C.C.C.C.C.C.C.C.C.C.C.C.C.C.C.C.C.C.C.C.C.C.C.C.C.C.C.C.",
"C.C.j C 8.0.t.g 1 9 1 8 8 = : % + % % + % : : : : : + X X X X X X X + 1 8 8 8 8 8 8 8 8 1 : 8 p r m C.C.C.C.C.C.C.C.C.C.C.C.C.C.C.C.C.C.C.C.C.C.C.C.C.C.C.C.C.C.",
"C.C.@.v | <.<.I 9 8 9 : % % : : % + % % : : : 1 : : : : : 1 8 8 8 8 8 8 1 : : : : 1 1 8 1 : % + X % l l l x.C.C.C.C.C.C.C.C.C.C.C.C.C.C.C.C.C.C.C.C.C.C.C.C.C.C.",
"C.C.C.} N R =.=.( r + 1 : % % % % % % : : : : : 1 1 1 1 : : 8 1 8 8 8 : : : : : : : : , 8 8 1 : : % X X X c x.C.C.C.C.C.C.C.C.C.C.C.C.C.C.C.C.L F G C.C.C.C.C.C.",
"C.C.C.C.] G N N A A x n d   X X   X : : : : : < 1 8 8 8 1 1 : : : : : : : : : : : : % : : 1 : : : : : : :   m H i.C.C.C.C.C.C.C.C.C.C.C.C.x.L : + X c d.C.C.C.C.",
"C.C.C.C.C.%.K U P L ^ ;.R d j j l d + : : : 1 8 1 : : 1 8 1 : : : : : : : : : : : : : : : : : : : : : : : : +   f d.C.C.C.C.C.C.C.C.C.C.C.d.+ 9 p r % m U i.C.C.",
"C.C.C.C.C.C.C.C.C.U x O.' o.| o.a.9.n : : 8 8 8 : % % : 1 : : : : : : : : : : : : : : : : : : : 1 1 : : % % : ,   f 5.C.C.C.C.C.C.C.C.C.C.d.1 9 f f f 1   @.C.C.",
"C.C.C.C.C.C.C.C.C.%.G E { ( o.+.0.a.g.1 % 6 8 1 : : : : : : : : : : : : : : : : : : : : : : : : 8 1 1 : + + % : :   H C.C.C.C.C.C.C.C.C.C.d.: 9 d f f y % 2.C.C.",
"C.C.C.C.C.C.C.C.C.d.I S X.<.a.t.r.4.G < : 8 8 : : : : : : : : : : : : : : : : : : : : : : : : : 1 : 1 : % + % : 1 % f i.C.C.C.C.C.C.C.C.C.d.: 9 f f f r % U x.C.",
"C.C.C.C.C.C.C.C.C.U N +.o.a.0.0.a.<.$ : 1 8 8 : : : : : : : : : : : 8 8 8 8 : : : : : : : : : : : 1 : : : + + 1 8 8 X p d.C.C.C.C.C.C.C.C.d.: 1 y i y r 8   ] C.",
"C.C.C.C.C.C.C.C.C.Q j ^ o.t.0.a.0.K 9 6 1 8 6 : : : : : : : : : : : 1 1 1 1 : : : : : : : : : 1 : : 3 : : + + , 8 8 8 X f f.C.C.C.C.C.C.C.x.: % 1 9 9 9 1   ] C.",
"C.C.C.C.C.C.C.C.C.@.d n -.a.0.0.' X , 6 6 1 : : : : : : : : : : : 8 1 : = : : : : : : : : : : 1 1 8 1 : : % X % 1 3 8 3   c 5.5.C.C.C.C.@._ : : : 8 9 1 1   ] C.",
"C.C.C.C.C.C.C.C.C.C.~ n 4.0.<.{ E $ : 8 : : : : : : % % : : : : : 2 2 8 1 : : : : : : : : : : : : 1 1 : : + 9 % % : 1 8 1 % X r @._ ] Q + X : : : < : 1 1   ] C.",
"C.C.C.C.C.C.C.C.C.C.! x / ^ ( | E @ : 1 : : : : : : % % : : : : 8 8 8 1 : : : : : : : : : : : : : : 1 : : + 5.V + % 1 1 1 1 : % X X X X : : : : 1 8 1 1 + : %.C.",
"C.C.C.C.C.C.C.C.C.C.] z j n | { E + % : 1 : : : : : % % : : : 1 1 1 1 : : : % % : : : : : : : : : : : 1 : + $.C.V + % : 1 1 : : 1 : : : : : 1 : 1 1 1 % 1 2.C.C.",
"C.C.C.C.C.C.C.C.C.C.C.C...n { | E % % : : 1 : : : : : % % : : : : : : : : : + % : : : : : : : : : : : : : + ] C.C.V + % : : : 1 1 1 : : : 1 8 1 : : % : 2.C.C.C.",
"C.C.C.C.C.C.C.C.C.C.C.C.C.} k ( ( ^ ! % % : : : : : : : % % 1 : & % % : : : < : 1 1 : : : : : : : : : : % % + @.C.C.V X % : : : : : 1 1 1 1 8 : : % % @.C.C.C.C.",
"C.C.C.C.C.C.C.C.C.C.C.C.C.] O d ' | / : + : : : : : : : + t | G + % % % + G { e ; 1 : : : : : : : : : : + % X ] C.C.C.F + & + % : : : : : : : : % % %.C.C.C.C.C.",
"C.C.C.C.C.C.C.C.C.C.C.C.C.] X = i ( ( E E 8 % : : : : : + i o.( W W ! ! ! ( o.t % 8 1 : : : : : : : : % % % % % ] C.C.x.x.U X % % : : : : : + + + @.C.C.C.C.C.C.",
"C.C.C.C.C.C.C.C.C.C.C.C.] : % + % r i ( X.8 % 1 : : : : % 6 j N X.| { { ' ( X.t + 8 8 1 : : : : : : % + % + + + : ` C.C.C.x.i.U   + + + X % @.5.2.C.C.C.C.C.C.C.",
"C.C.C.C.C.C.C.C.C.C.C.C.~   : % % + % 9 3 + % 8 < : : : O l } y j x ( { 0.F j i , % 1 8 1 : : : : : % % % % + % + : ~ C.C.C.C.x.@.%.%.%.%.%.C.C.C.C.C.C.C.C.C.C.",
"C.C.C.C.C.C.C.C.C.C.C._ 1 : : + % % $ X ~ +.9 : 8 1 : : X m C.2.5.%.x j d.i.2.d.i X 1 1 8 1 : : : % % % % % % + %   H C.C.C.C.C.C.C.C.C.C.C.C.C.C.C.C.C.C.C.C.C.",
"C.C.C.C.C.C.C.C.C.C.C.Q   1 : % % $ + ~ C.C.y % 8 8 1 : X c C.C.C.C.5.2.x.C.C.C.5.y X 1 1 : : : : + X % % % % + % X L C.C.C.C.C.C.C.C.C.C.C.C.C.C.C.C.C.C.C.C.C.",
"C.C.C.C.C.C.C.C.C.C.] r % % : % + % ! C.C.C.9 X 1 8 1 : + c C.C.C.C.C.C.C.C.C.C.C.5.f @ : : : : % 1 Q +   X + % %   H C.C.C.C.C.C.C.C.C.C.C.C.C.C.C.C.C.C.C.C.C.",
"C.C.C.C.C.C.C.C.C.C.H   y M X + % _ C.C.C.C.@.9 % 8 1 1 X l C.C.C.C.C.C.C.C.C.C.C.C.L   : : : : % 9 C._ Q ~ 8 + : X K C.C.C.C.C.C.C.C.C.C.C.C.C.C.C.C.C.C.C.C.C.",
"C.C.C.C.C.C.C.C.C.C.Q y | -.i 1 ~ C.C.C.C.C.C.f % 9 1 % r @.C.C.C.C.C.C.C.C.C.C.x.C.L X : : : 1 + : C.C.C.C.y X +   H C.C.C.C.C.C.C.C.C.C.C.C.C.C.C.C.C.C.C.C.C.",
"C.C.C.C.C.C.C.C.C.C.~ K j.0.I f C.C.C.C.C.C.C.f + 8 1 X V C.C.C.C.C.C.C.C.C.C.C.C.@.r % : : : + % Q C.C.C./ 8   a r U C.C.C.C.C.C.C.C.C.C.C.C.C.C.C.C.C.C.C.C.C.",
"C.C.C.C.C.C.C.C.C.C.Q A j.<.K N C.C.C.C.C.C.+.y + X : O m C.C.C.C.C.C.C.C.C.@.! Q q + 1 : : + % U C.C.C.] A n d ^ A ! C.C.C.C.C.C.C.C.C.C.C.C.C.C.C.C.C.C.C.C.C.",
"C.C.C.C.C.C.C.C.C.C.2.K ' h.! c C.C.C.C.C.@.N G V N r   m C.C.C.C.C.C.C.C.@.A A n 8 $ : 1 + % Q C.C.C.C.l ^ <.=.-.v Q C.C.C.C.C.C.C.C.C.C.C.C.C.C.C.C.C.C.C.C.C.",
"C.C.C.C.C.C.C.C.C.C.C.2.G / E E C.C.C.C.C.c E j.g.h.E : V C.C.C.C.C.C.C.C.c E h.v.I d r . % U C.C.C.C.C.x A K G K G +.C.C.C.C.C.C.C.C.C.C.C.C.C.C.C.C.C.C.C.C.C.",
"C.C.C.C.C.C.C.C.C.C.C.C.5.n E C.C.C.C.C.C.n N / I G T G _ C.C.C.C.C.C.C.C.n N ! I K W A r L C.C.C.C.C.C.L V A F N 2.C.C.C.C.C.C.C.C.C.C.C.C.C.C.C.C.C.C.C.C.C.C.",
"C.C.C.C.C.C.C.C.C.C.C.C.C.C.C.C.C.C.C.C.C.I N V V V b ] C.C.C.C.C.C.C.C.C.U N V V V b ' C.C.C.C.C.C.C.C.C.C.C.C.C.C.C.C.C.C.C.C.C.C.C.C.C.C.C.C.C.C.C.C.C.C.C.C.",
"C.C.C.C.C.C.C.C.C.C.C.C.C.C.C.C.C.C.C.C.C.C.C.C.C.C.C.C.C.C.C.C.C.C.C.C.C.C.C.C.C.C.C.C.C.C.C.C.C.C.C.C.C.C.C.C.C.C.C.C.C.C.C.C.C.C.C.C.C.C.C.C.C.C.C.C.C.C.C.C.",
"C.C.C.C.C.C.C.C.C.C.C.C.C.C.C.C.C.C.C.C.C.C.C.C.C.C.C.C.C.C.C.C.C.C.C.C.C.C.C.C.C.C.C.C.C.C.C.C.C.C.C.C.C.C.C.C.C.C.C.C.C.C.C.C.C.C.C.C.C.C.C.C.C.C.C.C.C.C.C.C.",
"C.C.C.C.C.C.C.C.C.C.C.C.C.C.C.C.C.C.C.C.C.C.C.C.C.C.C.C.C.C.C.C.C.C.C.C.C.C.C.C.C.C.C.C.C.C.C.C.C.C.C.C.C.C.C.C.C.C.C.C.C.C.C.C.C.C.C.C.C.C.C.C.C.C.C.C.C.C.C.C."
};
