/* XPM */
static char *ozzy_walking2[] = {
/* columns rows colors chars-per-pixel */
"80 50 157 2 ",
"   c #030303",
".  c #070708",
"X  c #0B0C0B",
"o  c #0F100D",
"O  c #10100F",
"+  c #141414",
"@  c #171816",
"#  c #181916",
"$  c #181718",
"%  c #1B1B1B",
"&  c #1F201F",
"*  c #212415",
"=  c #20211F",
"-  c #2F3416",
";  c #1E1E20",
":  c #232323",
">  c #272824",
",  c #282927",
"<  c #282728",
"1  c #2C2C2B",
"2  c #302F2F",
"3  c #2F302E",
"4  c #323526",
"5  c #343823",
"6  c #30312E",
"7  c #2F3030",
"8  c #323332",
"9  c #393A36",
"0  c #3C3C3B",
"q  c #3F403D",
"w  c #404527",
"e  c #43433E",
"r  c #454543",
"t  c #4A4A46",
"y  c #4D4D4B",
"u  c #4F504F",
"i  c #52524D",
"p  c #535453",
"a  c #585753",
"s  c #575852",
"d  c #5A5A55",
"f  c #5C5C5B",
"g  c #605F5A",
"h  c #656757",
"j  c #62635C",
"k  c #67685F",
"l  c #646463",
"z  c #676862",
"x  c #6B6C65",
"c  c #6C6C6B",
"v  c #726C65",
"b  c #6F706C",
"n  c #73736C",
"m  c #737373",
"M  c #777874",
"N  c #7A7B73",
"B  c #777878",
"V  c #7C7D7B",
"C  c #A77C79",
"Z  c #8C9848",
"A  c #83837B",
"S  c #89887E",
"D  c #A7AB7A",
"F  c #848483",
"G  c #8A8A83",
"H  c #8D8D8D",
"J  c #93938C",
"K  c #98988D",
"L  c #939392",
"P  c #979896",
"I  c #9C9C94",
"U  c #9A9B9A",
"Y  c #A88280",
"T  c #A09E93",
"R  c #A4A196",
"E  c #A5A39A",
"W  c #ABA99E",
"Q  c #A2A2A1",
"!  c #ACABA4",
"~  c #ABABAB",
"^  c #B3B1A6",
"/  c #B4B4AB",
"(  c #BAB6AB",
")  c #BDBAAE",
"_  c #B3B3B3",
"`  c #B8B7B7",
"'  c #BDBCB3",
"]  c #BCBCBB",
"[  c #DBA7A4",
"{  c #C2BEB2",
"}  c #BEC0BE",
"|  c #C4C1B5",
" . c #C6C7BD",
".. c #C2C2BC",
"X. c #C9C6B9",
"o. c #CCCABE",
"O. c #D0CDBF",
"+. c #C6C6C4",
"@. c #C4C4C4",
"#. c #CACBC5",
"$. c #CFCFCF",
"%. c #CBCBCB",
"&. c #D2CEC1",
"*. c #D3CFC2",
"=. c #D0CEC1",
"-. c #D5D3C6",
";. c #D8D4C5",
":. c #D7D5C8",
">. c #D5D4CB",
",. c #DADACC",
"<. c #D9D8CC",
"1. c #D1D1D0",
"2. c #D4D4D4",
"3. c #D4D4D4",
"4. c #DBDBD3",
"5. c #D9D9D9",
"6. c #DADADA",
"7. c #DCDCDB",
"8. c #E3C7C1",
"9. c #DFE0D4",
"0. c #E4E3D7",
"q. c #E4E3D6",
"w. c #E4E4DA",
"e. c #EDE3D8",
"r. c #E7E8DC",
"t. c #E8E9DE",
"y. c #E3E3E3",
"u. c #E5E5E5",
"i. c #E5E5E5",
"p. c #E8E7E7",
"a. c #EEEFE3",
"s. c #ECEDE1",
"d. c #EBEBEA",
"f. c #EFF0EF",
"g. c #F2F2E5",
"h. c #F6F6E9",
"j. c #FAFAED",
"k. c #F1F1F1",
"l. c #F3F3F3",
"z. c #F6F6F6",
"x. c #F7F7F7",
"c. c #F5F5F5",
"v. c #FFFFF4",
"b. c #F9F9F9",
"n. c #FAFAFA",
"m. c #FBFBFB",
"M. c #FBFBFA",
"N. c #FCFCFC",
"B. c #FDFDFD",
"V. c #FDFEFE",
"C. c #FF00FF",
"Z. c #FFFEFE",
"A. c #FEFFFE",
"S. c #FFFFFE",
"D. c #FFFEFF",
"F. c #FFFFFF",
"G. c #FEFEFE",
/* pixels */
"C.C.C.C.C.C.C.C.C.C.C.C.C.C.C.C.C.C.C.C.C.C.C.C.C.C.C.C.C.C.C.C.C.C.C.C.C.C.C.C.C.C.C.C.C.C.C.C.C.C.C.C.C.C.C.C.C.C.C.C.C.C.C.C.C.C.C.C.C.C.C.C.C.C.C.C.C.C.C.C.",
"C.C.C.C.C.C.C.C.C.C.C.C.C.C.C.C.C.C.C.C.C.C.C.C.C.C.C.C.C.C.C.C.C.C.C.C.C.C.C.C.C.C.C.C.C.C.C.C.C.C.C.C.C.C.C.C.C.C.C.C.C.C.C.C.C.C.C.C.C.C.5.%.C.C.C.C.C.C.C.C.",
"C.C.C.C.C.C.C.C.C.C.C.C.C.C.C.C.C.C.C.C.C.C.C.C.C.C.C.C.C.C.C.C.C.C.C.C.C.C.C.C.C.C.C.C.C.C.C.C.C.C.C.C.C.C.C.C.C.C.C.C.C.C.C.C.C.U m c 5.i.8 c C.C.C.C.C.C.C.C.",
"C.C.C.C.C.C.C.C.C.C.C.C.C.C.C.C.C.C.C.C.C.C.C.C.C.C.C.C.C.C.C.C.C.C.C.C.C.C.C.C.C.C.C.C.C.C.C.C.C.C.C.C.C.C.C.C.C.C.C.C.C.C.C.C.~ : % + m y   F C.C.C.C.C.C.C.C.",
"C.C.C.C.C.C.C.C.C.C.C.C.C.C.C.C.C.C.C.C.C.C.C.C.C.C.C.C.C.C.C.C.C.C.C.C.C.C.C.C.C.C.C.C.C.C.C.C.C.C.C.C.C.C.C.C.C.C.C.C.C.C.C.C.1 : p p + + X V C.C.C.C.C.C.C.C.",
"C.C.C.C.C.C.C.C.C.C.C.C.C.C.C.C.C.C.C.C.C.C.C.C.C.C.C.C.C.C.C.C.C.C.C.C.C.C.C.C.C.C.C.C.C.C.C.C.C.C.C.C.C.C.C.C.C.C.C.C.C.C.C.C.9 9 p 9 % %   F C.C.C.C.C.C.C.C.",
"C.C.C.C.C.C.C.C.C.C.C.C.C.C.C.C.C.C.C.C.C.C.C.C.C.C.C.C.C.C.C.C.C.C.C.C.C.C.C.C.C.C.C.C.C.C.C.C.C.C.C.C.C.C.C.C.C.C.C.C.C.2.2.2.8 r f 9 % % X l x.C.C.C.C.C.C.C.",
"C.C.C.C.C.C.C.C.C.C.C.C.C.C.C.C.C.C.C.C.C.C.C.C.C.C.C.C.C.C.C.C.C.C.C.C.C.C.C.C.C.C.C.C.C.C.C.C.C.C.C.C.C.C.C.C.C.C.C.i.2.% X + : p p y 8 % : + f C.C.C.C.C.C.C.",
"C.C.C.C.C.C.C.C.C.C.C.C.C.C.C.C.C.C.C.C.C.C.C.C.C.C.C.C.C.C.C.C.C.C.C.C.C.C.C.C.C.C.C.C.C.C.C.C.C.C.C.C.C.C.C.C.C.C.%.% % : & % : t y 9 1 % e p % f x.C.C.C.C.C.",
"C.C.C.C.C.C.C.C.C.C.C.C.C.C.C.C.C.C.C.C.C.C.C.C.C.C.C.C.C.C.C.C.C.C.C.C.C.C.C.C.C.C.C.C.C.C.C.C.C.C.C.C.C.C.C.C.C.5.% % : : + % : 8 : % % : % y i % f C.C.C.C.C.",
"C.C.C.C.C.C.C.C.C.C.C.C.C.C.C.C.C.C.C.C.C.C.C.C.C.C.C.C.C.C.C.C.C.C.C.C.C.C.C.C.C.C.C.C.C.C.C.C.C.C.C.C.C.C.C.C.C.2.+ : : : : : : : : : : : : 1 8 j ' M C.C.C.C.",
"C.C.C.C.C.C.C.C.C.C.C.C.C.C.C.C.C.C.C.C.C.C.C.C.C.C.C.C.C.C.C.C.C.C.C.C.C.C.C.C.C.C.C.C.C.C.C.C.C.C.C.C.C.C.C.C.5.1 % : : : : : : : : : : : : %   f ..c C.C.C.C.",
"C.C.C.C.C.C.C.C.C.C.C.C.C.C.C.C.C.C.C.C.C.C.C.C.C.C.C.C.C.C.C.C.C.C.C.C.C.C.C.C.C.C.C.C.C.C.C.C.C.C.C.C.C.C._ 1 9 + : : % + : : : : : : : % * w   s ..n C.C.C.C.",
"C.C.C.C.C.C.C.C.C.C.C.C.C.C.C.C.C.C.C.C.C.C.C.C.C.C.C.C.C.C.C.C.C.C.C.C.C.C.C.C.C.C.C.C.C.C.C.C.C.C.C.C.C.C.x.F   : : % + % : : 1 1 1 1 : ; 5 Z - D ' n C.C.C.C.",
"C.C.C.C.C.C.C.C.C.C.C.C.C.C.C.C.C.C.C.C.C.C.C.C.C.C.C.C.C.C.C.C.C.L p l f f f f f f f f V C.C.C.C.C.C.C.C.] 9 r $ : : % + % + : 1 8 8 1 < : = 4 $ h a./ G C.C.C.",
"C.C.C.C.C.C.C.C.C.C.C.C.C.C.C.C.C.C.C.C.C.C.C.C.C.C.C.C.C.C.C.C.C.f   + + + + + + + + + : H L L L L L H U f   % : : : % + + % : : : : 9 r 9 8 9 9 c e.[ Y A C.C.",
"C.C.C.C.C.C.C.C.C.C.C.C.C.C.C.C.C.C.C.C.C.C.C.C.C.C.C.C.C.C.m r p 8 : 1 8 8 8 8 8 8 8 8 1 + X X X X X X X + : : : : : % + % % + % : = 8 8 1 9 1 g t.0.8.C j C.C.",
"C.C.C.C.C.C.C.C.C.C.C.C.C.C.C.C.C.C.C.C.C.C.C.C.C.C.x.l l l % X + % : 1 8 1 1 : : : : 1 8 8 8 8 8 8 1 : : : : : 1 : : : % % + % : : % % : 9 8 9 I <.<.| v @.C.C.",
"C.C.C.C.C.C.G F L C.C.C.C.C.C.C.C.C.C.C.C.C.C.C.C.x.c X X X % : : 1 8 8 , : : : : : : : : 8 8 8 1 8 : : 1 1 1 1 : : : : : % % % % % % : 1 + r ( =.=.R N } C.C.C.",
"C.C.C.C.d.c X + : L x.C.C.C.C.C.C.C.C.C.C.C.C.i.H m   : : : : : : : 1 : : % : : : : : : : : : : : : 1 1 8 8 8 1 < : : : : : X   X X   d n x A A N N G ] C.C.C.C.",
"C.C.i.U m % r p 9 + d.C.C.C.C.C.C.C.C.C.C.C.d.f   + : : : : : : : : : : : : : : : : : : : : : : : : 1 8 1 : : 1 8 1 : : : + d l j j d R ;.^ L P U K %.C.C.C.C.C.",
"C.C.@.  1 f f f 9 1 d.C.C.C.C.C.C.C.C.C.C.5.f   , : % % : : 1 1 : : : : : : : : : : : : : : : : : : : 1 : % % : 8 8 8 : : n 9.a.o.| o.' O.x U C.C.C.C.C.C.C.C.C.",
"C.C.2.% y f f d 9 : d.C.C.C.C.C.C.C.C.C.C.H   : : % + + : 1 1 8 : : : : : : : : : : : : : : : : : : : : : : : : 1 8 6 % 1 g.a.0.+.o.( { E G %.C.C.C.C.C.C.C.C.C.",
"C.x.U % r f f f 9 : d.C.C.C.C.C.C.C.C.C.i.f % 1 : % + % : 1 : 1 : : : : : : : : : : : : : : : : : : : : : : : : : 8 8 : < G 4.r.t.a.<.X.S I d.C.C.C.C.C.C.C.C.C.",
"C.]   8 r y i y 1 : d.C.C.C.C.C.C.C.C.d.p X 8 8 1 + + : : : 1 : : : : : : : : : : : 8 8 8 8 : : : : : : : : : : : 8 8 1 : $ <.a.0.0.a.o.+.N U C.C.C.C.C.C.C.C.C.",
"C.]   1 9 9 9 1 % : x.C.C.C.C.C.C.C.f.f X 8 8 8 , + + : : 3 : : 1 : : : : : : : : : 1 1 1 1 : : : : : : : : : : : 6 8 1 6 9 K 0.a.0.t.o.^ j Q C.C.C.C.C.C.C.C.C.",
"C.]   1 1 9 8 : : : _ @.C.C.C.C.5.5.c   3 8 3 1 % X % : : 1 8 1 1 : : : : : : : : : : = : 1 8 : : : : : : : : : : : 1 6 6 , X ' 0.0.a.-.n d @.C.C.C.C.C.C.C.C.C.",
"C.]   1 1 : < : : : X + Q ] _ @.r X % 1 8 1 : % % 9 + : : 1 1 : : : : : : : : : : : : 1 8 2 2 : : : : : % % : : : : : : 8 : $ E { <.0.4.n ~ C.C.C.C.C.C.C.C.C.C.",
"C.%.: + 1 1 8 1 : : : : X X X X % : 1 1 1 1 % + V 5.+ : : 1 : : : : : : : : : : : : : : 1 8 8 8 : : : : % % : : : : : : 1 : @ E | ( ^ / x ! C.C.C.C.C.C.C.C.C.C.",
"C.C.2.1 % 1 1 1 : 1 : : : : : 1 : : 1 1 : % + V C.$.+ : 1 : : : : : : : : : : : % % : : : 1 1 1 1 : : : % % : : : : : 1 : % + E { | n j z ] C.C.C.C.C.C.C.C.C.C.",
"C.C.C.2.: % : : 1 8 1 : : : 1 1 1 : : : % + V C.C.] + : : : : : : : : : : : : : % + : : : : : : : : : % % : : : : : 1 : : % % E | { n ..C.C.C.C.C.C.C.C.C.C.C.C.",
"C.C.C.C.@.% % : : 8 1 1 1 1 : : : : : % X V C.C.@.+ % % : : : : : : : : : : 1 1 : < : : : % % & : 1 % % : : : : : : : % % ! ^ ( ( k } C.C.C.C.C.C.C.C.C.C.C.C.C.",
"C.C.C.C.C.%.% % : : : : : : : : % + & + F C.C.C.] X % + : : : : : : : : : : 1 ; e { G + % % % + G | t + : : : : : : : + : / | ' d O ] C.C.C.C.C.C.C.C.C.C.C.C.C.",
"C.C.C.C.C.C.@.+ + + : : : : : % % X U x.x.C.C.] % % % % % : : : : : : : : 1 8 % t o.( ! ! ! W W ( o.i + : : : : : % 8 E E ( ( i = X ] C.C.C.C.C.C.C.C.C.C.C.C.C.",
"C.C.C.C.C.C.C.2.5.@.% X + + +   U i.x.C.C.C.` : + + + % + % : : : : : : 1 8 8 + t X.( ' { { | X.N j 6 % : : : : 1 % 8 X.( i r % + % : ] C.C.C.C.C.C.C.C.C.C.C.C.",
"C.C.C.C.C.C.C.C.C.C.%.%.%.%.%.@.x.C.C.C.C.~ : + % + % % % % : : : : : 1 8 1 % , i j F 0.{ ( x j y } l O : : : < 8 % + 3 9 % + % % :   ~ C.C.C.C.C.C.C.C.C.C.C.C.",
"C.C.C.C.C.C.C.C.C.C.C.C.C.C.C.C.C.C.C.C.C.H   % + % % % % % % : : : 1 8 1 1 X i d.2.i.d.j x %.5.2.C.m X : : 1 8 : 9 +.~ X $ % % + : : 1 _ C.C.C.C.C.C.C.C.C.C.C.",
"C.C.C.C.C.C.C.C.C.C.C.C.C.C.C.C.C.C.C.C.C.L X % + % % % % X + : : : : 1 1 X y 5.C.C.C.x.2.5.C.C.C.C.c X : 1 8 8 % y C.C.~ + $ % % : 1   Q C.C.C.C.C.C.C.C.C.C.C.",
"C.C.C.C.C.C.C.C.C.C.C.C.C.C.C.C.C.C.C.C.C.H   % % + X   + Q 1 % : : : : @ f 5.C.C.C.C.C.C.C.C.C.C.C.c + : 1 8 1 X 9 C.C.C.! % + % : % % r ] C.C.C.C.C.C.C.C.C.C.",
"C.C.C.C.C.C.C.C.C.C.C.C.C.C.C.C.C.C.C.C.C.K X : + 8 ~ Q _ C.9 % : : : :   L C.C.C.C.C.C.C.C.C.C.C.C.l X 1 1 8 % 9 @.C.C.C.C._ % + X M y   H C.C.C.C.C.C.C.C.C.C.",
"C.C.C.C.C.C.C.C.C.C.C.C.C.C.C.C.C.C.C.C.C.H   + X y C.C.C.C.: + 1 : : : X L C.x.C.C.C.C.C.C.C.C.C.C.@.r % 1 9 % f C.C.C.C.C.C.~ 1 i -.| y Q C.C.C.C.C.C.C.C.C.C.",
"C.C.C.C.C.C.C.C.C.C.C.C.C.C.C.C.C.C.C.C.C.U r a   8 / C.C.C.Q % + : : : % r @.C.C.C.C.C.C.C.C.C.C.C.C.V X 1 8 + f C.C.C.C.C.C.C.f I 0.j.K ~ C.C.C.C.C.C.C.C.C.C.",
"C.C.C.C.C.C.C.C.C.C.C.C.C.C.C.C.C.C.C.C.C.! A ^ d n A ] C.C.C.U % + : : 1 + q Q ! @.C.C.C.C.C.C.C.C.C.m O : X + y +.C.C.C.C.C.C.N K <.j.A Q C.C.C.C.C.C.C.C.C.C.",
"C.C.C.C.C.C.C.C.C.C.C.C.C.C.C.C.C.C.C.C.C.Q v -.=.<.^ l C.C.C.C.Q % + 1 : $ 8 n A A @.C.C.C.C.C.C.C.C.m   r N V G N @.C.C.C.C.C.c ! h.' K 2.C.C.C.C.C.C.C.C.C.C.",
"C.C.C.C.C.C.C.C.C.C.C.C.C.C.C.C.C.C.C.C.C.+.G K G K A x C.C.C.C.C.U % . r d I v.h.E c C.C.C.C.C.C.C.C.V : E h.g.j.E c C.C.C.C.C.E E / G 2.C.C.C.C.C.C.C.C.C.C.C.",
"C.C.C.C.C.C.C.C.C.C.C.C.C.C.C.C.C.C.C.C.C.C.2.N F A V L C.C.C.C.C.C.L r A W K I ! N n C.C.C.C.C.C.C.C._ G T G I / N n C.C.C.C.C.C.E n 5.C.C.C.C.C.C.C.C.C.C.C.C.",
"C.C.C.C.C.C.C.C.C.C.C.C.C.C.C.C.C.C.C.C.C.C.C.C.C.C.C.C.C.C.C.C.C.C.C.C.' b V V V N U C.C.C.C.C.C.C.C.C.] b V V V N I C.C.C.C.C.C.C.C.C.C.C.C.C.C.C.C.C.C.C.C.C.",
"C.C.C.C.C.C.C.C.C.C.C.C.C.C.C.C.C.C.C.C.C.C.C.C.C.C.C.C.C.C.C.C.C.C.C.C.C.C.C.C.C.C.C.C.C.C.C.C.C.C.C.C.C.C.C.C.C.C.C.C.C.C.C.C.C.C.C.C.C.C.C.C.C.C.C.C.C.C.C.C.",
"C.C.C.C.C.C.C.C.C.C.C.C.C.C.C.C.C.C.C.C.C.C.C.C.C.C.C.C.C.C.C.C.C.C.C.C.C.C.C.C.C.C.C.C.C.C.C.C.C.C.C.C.C.C.C.C.C.C.C.C.C.C.C.C.C.C.C.C.C.C.C.C.C.C.C.C.C.C.C.C.",
"C.C.C.C.C.C.C.C.C.C.C.C.C.C.C.C.C.C.C.C.C.C.C.C.C.C.C.C.C.C.C.C.C.C.C.C.C.C.C.C.C.C.C.C.C.C.C.C.C.C.C.C.C.C.C.C.C.C.C.C.C.C.C.C.C.C.C.C.C.C.C.C.C.C.C.C.C.C.C.C."
};
