/* XPM */
static char *ozzy_back[] = {
/* columns rows colors chars-per-pixel */
"48 80 129 2 ",
"   c #030303",
".  c #0C0C0C",
"X  c #151515",
"o  c #1C1C1C",
"O  c #21211F",
"+  c #1F2020",
"@  c #222222",
"#  c #282728",
"$  c #2C2C2C",
"%  c #323232",
"&  c #3B3B3B",
"*  c #434343",
"=  c #4B4B4B",
"-  c #545454",
";  c #5D5D5D",
":  c #646464",
">  c #6C6C6C",
",  c #70706F",
"<  c #737373",
"1  c #7A7A7A",
"2  c #848484",
"3  c #8C8C8C",
"4  c #939393",
"5  c #9D9D9D",
"6  c #A4A4A4",
"7  c #ADADAD",
"8  c #B1B1B1",
"9  c #B2B2B2",
"0  c #B3B3B3",
"q  c #B5B5B5",
"w  c #B5B5B5",
"e  c #B8B8B8",
"r  c #BBBBBC",
"t  c #BCBCBC",
"y  c #BEBEBE",
"u  c #BFBFBF",
"i  c #C1C1C1",
"p  c #C2C2C2",
"a  c #C3C3C3",
"s  c #C5C5C3",
"d  c #C4C4C4",
"f  c #C5C5C5",
"g  c #C7C7C7",
"h  c #C8C8C6",
"j  c #C8C8C8",
"k  c #C9C9C9",
"l  c #CACACA",
"z  c #CBCBCB",
"x  c #CCCCCC",
"c  c #CECECE",
"v  c #CFCFCF",
"b  c #D0D0D0",
"n  c #D1D1D1",
"m  c #D2D2D2",
"M  c #D3D3D3",
"N  c #D4D4D4",
"B  c #D5D5D5",
"V  c #D7D7D7",
"C  c #D9D9D8",
"Z  c #D9D9D9",
"A  c #DADADA",
"S  c #DCDCDC",
"D  c #DEDEDC",
"F  c #DEDEDE",
"G  c #DFDFDF",
"H  c #E1E1DF",
"J  c #E0E0E0",
"K  c #E1E1E1",
"L  c #E2E2E2",
"P  c #E3E3E3",
"I  c #E3E4E4",
"U  c #E4E4E4",
"Y  c #E5E5E5",
"T  c #E6E6E6",
"R  c #E7E7E7",
"E  c #E3E3E3",
"W  c #E8E8E8",
"Q  c #E9E9E9",
"!  c #EAEAEA",
"~  c #EBEBEB",
"^  c #ECECEC",
"/  c #ECEDED",
"(  c #EDEDED",
")  c #EEEEEE",
"_  c #EFEFEF",
"`  c #EFEFEF",
"'  c #F0F0F0",
"]  c #F1F1F0",
"[  c #F1F1F1",
"{  c #F2F2F2",
"}  c #F2F2F3",
"|  c #F3F3F3",
" . c #F4F4F4",
".. c #F5F5F4",
"X. c #F5F5F5",
"o. c #F6F6F4",
"O. c #F6F6F5",
"+. c #F6F6F6",
"@. c #F7F7F7",
"#. c #F3F3F3",
"$. c #F8F8F7",
"%. c #F8F8F8",
"&. c #F9F9F9",
"*. c #FBFBF8",
"=. c #FAFAF9",
"-. c #FAFAFA",
";. c #FBFBFA",
":. c #FBFBFB",
">. c #FCFCF9",
",. c #FCFCFA",
"<. c #FCFCFB",
"1. c #FDFDFB",
"2. c #FEFEFB",
"3. c #FCFCFC",
"4. c #FDFDFC",
"5. c #FDFDFD",
"6. c #FDFEFD",
"7. c #FEFEFC",
"8. c #FEFEFD",
"9. c #FFFFFD",
"0. c #FDFDFE",
"q. c #FEFDFE",
"w. c #FDFEFE",
"e. c #FF00FF",
"r. c #FEFEFE",
"t. c #FEFFFE",
"y. c #FFFFFE",
"u. c #FFFFFF",
"i. c #FEFEFE",
/* pixels */
"e.e.e.e.e.e.e.e.e.e.e.e.e.e.e.e.e.e.e.e.e.e.e.e.e.e.e.e.e.e.e.e.e.e.e.e.e.e.e.e.e.e.e.e.e.e.e.e.",
"e.e.e.e.e.e.e.e.e.e.e.e.e.e.e.e.e.e.e.e.e.e.e.e.e.e.e.e.e.e.e.e.e.e.e.e.e.e.e.e.e.e.e.e.e.e.e.e.",
"e.e.e.e.e.e.e.e.e.e.e.e.e.e.e.e.e.e.e.e.e.e.e.e.e.e.e.e.e.e.e.e.e.e.e.e.e.e.e.e.e.e.e.e.e.e.e.e.",
"e.e.e.e.e.e.e.e.e.e.+.i u e F e.e.e.e.e.e.e.e.e.e.e.e.M t i t ' e.e.e.e.e.e.e.e.e.e.e.e.e.e.e.e.",
"e.e.e.e.e.e.e.e.e.e.L X .   2 e.e.e.e.e.e.e.e.e.e.e.e.=   X . z e.e.e.e.e.e.e.e.e.e.e.e.e.e.e.e.",
"e.e.e.e.e.e.e.e.e.e.L @ + @ # * ( e.e.e.e.e.e.e.e.( * @ @ @ X M e.e.e.e.e.e.e.e.e.e.e.e.e.e.e.e.",
"e.e.e.e.e.e.e.e.e.e.L + @ @ o o L e.@.e.e.e.e.e.e.( @ o @ @ X M e.e.e.e.e.e.e.e.e.e.e.e.e.e.e.e.",
"e.e.e.e.e.e.e.e.e.e.L o + # @ # % - e.e.e.e.e.( & % # @ @ @ X M e.e.e.e.e.e.e.e.e.e.e.e.e.e.e.e.",
"e.e.e.e.e.e.e.e.e.e.L o + # # @ X @ : > > > > - X X @ # # @ X z e.e.e.e.e.e.e.e.e.e.e.e.e.e.e.e.",
"e.e.e.e.e.e.e.e.e.e.L o @ @ # @ @ @ X X X X X X @ @ @ # # @ X z e.e.e.e.e.e.e.e.e.e.e.e.e.e.e.e.",
"e.e.e.e.e.e.e.e.e.e.L @ @ @ @ @ @ @ % % % % & % @ @ @ @ @ @ X z e.e.e.e.e.e.e.e.e.e.e.e.e.e.e.e.",
"e.e.e.e.e.e.e.e.e.e.F . @ @ @ # # # # % @ # % # # @ @ @ @ @   z e.e.e.e.e.e.e.e.e.e.e.e.e.e.e.e.",
"e.e.e.e.e.e.e.e.e.e.+.5 @ @ @ # % % % @ @ @ # # # # @ @ o @ 5 ( e.e.e.e.e.e.e.e.e.e.e.e.e.e.e.e.",
"e.e.e.e.e.e.e.e.e.e.e.i @ o # # % % % @ o o @ # # # # @ o @ i +.e.e.e.e.e.e.e.e.e.e.e.e.e.e.e.e.",
"e.e.e.e.e.e.e.e.e.e.z . + @ # # % % # @ o o @ @ # # # @ @ @   8 e.e.e.e.e.e.e.e.e.e.e.e.e.e.e.e.",
"e.e.e.e.e.e.e.e.e.e.z X @ @ o # % % % @ o o @ @ # # % @ @ @ X 5 ( +.e.e.e.e.e.e.e.e.e.e.e.e.e.e.",
"e.e.e.e.e.e.e.e.e.e.M o @ @ @ # % # # @ o o @ @ # # # @ @ @ @ X o H e.e.e.e.e.e.e.e.e.e.e.e.e.e.",
"e.e.e.e.e.e.e.e.( - * @ @ @ @ # % # # @ o o @ @ # # @ @ @ @ @ X o F e.e.e.e.e.e.e.e.e.e.e.e.e.e.",
"e.e.e.e.e.e.e.e.e.X . @ @ @ @ # # # % @ o o @ @ # @ @ @ @ @ @ o o +.e.e.e.e.e.e.e.e.e.e.e.e.e.e.",
"e.e.e.e.e.e.e.8 < @ o @ o @ @ @ @ @ @ @ o o @ @ @ @ @ @ @ @ o o o - t e.e.e.e.e.e.e.e.e.e.e.e.e.",
"e.e.e.e.e.e.e., . @ o @ o @ @ @ @ @ @ @ o o @ @ @ @ @ @ @ o o o @ . 4 e.e.e.e.e.e.e.e.e.e.e.e.e.",
"e.e.e.e.e.e.e.e.F @ o @ @ @ @ @ @ @ @ @ o o @ @ @ @ @ @ @ @ @ o o J e.e.e.e.e.e.e.e.e.e.e.e.e.e.",
"e.e.e.e.e.e.e.e.( @ o @ + @ # # @ @ @ @ @ o @ @ @ @ # @ o o @ o @ z +.e.e.e.e.e.e.e.e.e.e.e.e.e.",
"e.e.e.e.e.e.e.e.L . X o @ @ @ @ @ @ o o o o @ @ @ @ @ @ o @ o X o   3 e.e.e.e.e.e.e.e.e.e.e.e.e.",
"e.e.e.e.e.e.e.e.+.M & . o o o o o o X X X o o o o o X X X o o X o 7 L e.e.e.e.e.e.e.e.e.e.e.e.e.",
"e.e.e.e.e.e.e.e.L 2 # X @ o @ @ @ o o o o o o o o o @ o o o o X o L e.e.e.e.e.e.e.e.e.e.e.e.e.e.",
"e.e.e.e.e.e.e.e.M   X @ @ # # # @ @ @ @ @ @ @ @ @ @ # # @ @ + X X L e.e.e.e.e.e.e.e.e.e.e.e.e.e.",
"e.e.e.e.e.e.e.( t o + @ @ % # @ @ @ o o o @ o o o @ o # # @ @ o X 5 L e.e.e.e.e.e.e.e.e.e.e.e.e.",
"e.e.e.e.e.e.e.= . @ @ @ # # @ @ @ o o o @ @ @ o o @ @ # % # @ + @   < e.e.e.e.e.e.e.e.e.e.e.e.e.",
"e.e.e.e.e.e.e.L 1 X @ @ # # # # @ o o @ @ @ @ o o @ @ @ # # @ @ X 7 +.e.e.e.e.e.e.e.e.e.e.e.e.e.",
"e.e.e.e.e.e.e.e.5 . @ @ # # % & @ o o @ @ @ @ o + @ @ @ @ @ @ @ . z e.e.e.e.e.e.e.e.e.e.e.e.e.e.",
"e.e.e.e.e.e.e.e.3   @ @ @ @ # # @ @ @ @ @ @ @ @ @ @ @ @ @ @ @ o X h e.e.e.e.e.e.e.e.e.e.e.e.e.e.",
"e.e.e.e.e.e.e.e.8 @ X o @ @ @ o o @ @ @ @ @ @ @ @ @ @ @ @ o o X   i e.e.e.e.e.e.e.e.e.e.e.e.e.e.",
"e.e.e.e.e.e.e.@.e.>   o + @ @ @ @ @ @ @ @ @ @ @ @ @ @ @ @ o X X * C e.e.e.e.e.e.e.e.e.e.e.e.e.e.",
"e.e.e.e.e.e.e.e.e.:   @ @ @ @ @ O @ @ @ @ O @ @ @ @ @ @ @ @ o X M e.e.e.e.e.e.e.e.e.e.e.e.e.e.e.",
"e.e.e.e.e.e.e.e.e.: . @ @ @ @ @ @ O @ @ O O O @ @ @ o o @ @ o X i e.e.e.e.e.e.e.e.e.e.e.e.e.e.e.",
"e.e.e.e.e.e.e.e.- o o @ @ @ # @ o @ @ O @ @ @ @ @ @ # @ o @ @ @ # b e.e.e.e.e.e.e.e.e.e.e.e.e.e.",
"e.e.e.e.e.e.e.e.& . @ @ @ @ % # @ o @ @ @ @ @ @ @ @ # @ @ @ @ @ . M e.e.e.e.e.e.e.e.e.e.e.e.e.e.",
"e.e.e.e.e.e.e.e.* X @ @ @ @ @ # # @ @ @ @ @ @ @ @ @ # @ @ @ @ @ X 2 L e.e.e.e.e.e.e.e.e.e.e.e.e.",
"e.e.e.e.e.e.e.t % o @ @ @ @ o @ # # @ @ @ @ @ @ @ % # @ @ @ @ @ @   4 e.e.e.e.e.e.e.e.e.e.e.e.e.",
"e.e.e.e.e.e.+.+ X @ @ @ @ @ o @ # # @ @ @ + @ # @ # @ @ @ @ @ @ @ . 5 e.e.e.e.e.e.e.e.e.e.e.e.e.",
"e.e.e.e.e.e._ # X @ @ @ @ @ o # # o @ @ @ o # # @ # @ @ @ @ @ @ @ . 5 e.e.e.e.e.e.e.e.e.e.e.e.e.",
"e.e.e.e.e.e.e.# X @ # # @ @ @ @ @ o # @ @ o @ # @ @ @ @ @ @ @ @ @ . 6 e.e.e.e.e.e.e.e.e.e.e.e.e.",
"e.e.e.e.e.8 - # o @ # # @ @ @ @ o @ # @ @ o @ # @ @ @ @ @ @ @ # @ @ & > +.e.e.e.e.e.e.e.e.e.e.e.",
"e.e.e.e.e.2   @ o @ % # o @ @ @ @ @ % @ @ @ # # @ @ @ @ @ @ @ # @ # . @ +.e.e.e.e.e.e.e.e.e.e.e.",
"e.e.e.e.e.4 . @ o @ % # o @ @ @ O @ % @ @ @ # # @ @ @ @ @ @ @ @ % @ X % +.e.e.e.e.e.e.e.e.e.e.e.",
"e.e.e.e.e.3   @ o @ % # o @ @ O O @ @ @ @ @ @ @ @ @ @ @ @ @ @ @ % @ X % +.e.e.e.e.e.e.e.e.e.e.e.",
"e.e.e.e.e.4   @ o @ # @ @ @ O O O @ @ @ @ @ @ @ @ @ @ @ @ @ @ @ % @ X # +.e.e.e.e.e.e.e.e.e.e.e.",
"e.e.e.e.e.4 . @ @ # @ @ @ @ O O O @ @ @ @ @ @ @ @ @ @ @ @ @ @ @ % @ X # +.e.e.e.e.e.e.e.e.e.e.e.",
"e.e.e.e.e.4   @ # # @ @ @ @ O O @ @ @ @ @ @ @ @ @ @ @ @ @ @ @ # % @ X % +.e.e.e.e.e.e.e.e.e.e.e.",
"e.e.e.e.e.4   @ # % # @ O O O O O @ @ @ @ @ @ @ @ @ @ @ @ @ @ % # @ X % +.e.e.e.e.e.e.e.e.e.e.e.",
"e.e.e.e.e.4   @ # # @ @ O O O O O O @ @ @ @ @ @ @ @ @ @ @ @ @ # @ @ X % +.e.e.e.e.e.e.e.e.e.e.e.",
"e.e.e.e.e.3   @ @ # # @ @ @ @ @ @ @ @ @ @ @ @ @ @ @ @ @ o @ % # @ @ X # +.e.e.e.e.e.e.e.e.e.e.e.",
"e.e.e.e.e.( i # o @ @ # @ @ @ @ @ @ O O @ @ @ @ @ @ @ @ @ # # @ @ X 3 L e.e.e.e.e.e.e.e.e.e.e.e.",
"e.e.e.e.e.e.e.@ X @ @ # o @ @ @ @ O O O O @ @ @ @ @ @ @ # % # @ @   6 e.e.e.e.e.e.e.e.e.e.e.e.e.",
"e.e.e.e.e.e.+.1 # o @ @ @ @ @ @ @ O O O O @ @ @ @ @ @ @ @ # # @ o : z e.e.e.e.e.e.e.e.e.e.e.e.e.",
"e.e.e.e.e.e.e.e.- . o + @ @ @ @ @ @ @ @ @ @ @ @ @ @ @ @ @ @ @ o o F e.e.e.e.e.e.e.e.e.e.e.e.e.e.",
"e.e.e.e.e.e._ # o X X o @ + o @ @ @ @ @ @ @ @ @ @ @ @ @ @ o o o @ X 7 e.e.e.e.e.e.e.e.e.e.e.e.e.",
"e.e.e.e.e.e.+.# o @ o X X X o @ @ @ @ @ @ + @ @ @ @ @ o o o o + @ . 7 e.e.e.e.e.e.e.e.e.e.e.e.e.",
"e.e.e.e.e.e.( X o # o X X X X o o o @ @ @ o @ o o o o o X X o @ #   6 e.e.e.e.e.e.e.e.e.e.e.e.e.",
"e.e.e.e.e.e.+.2 # . o o X X X X X X @ @ @ + @ o X X X X X o o X X : M e.e.e.e.e.e.e.e.e.e.e.e.e.",
"e.e.e.e.e.e.e.e.1 % # X . . . . X o @ @ @ o @ o X . . . . X o = = +.e.e.e.e.e.e.e.e.e.e.e.e.e.e.",
"e.e.e.e.e.e.e.e.e.e.4 @ % % % % # X o @ @ @ @ o o % & & & % - e.e.e.e.e.e.e.e.e.e.e.e.e.e.e.e.e.",
"e.e.e.e.e.e.e.e.e.e.e.e.e.e.+.e.5 . @ @ # % # X # e.e.e.e.e.e.e.e.e.e.e.e.e.e.e.e.e.e.e.e.e.e.e.",
"e.e.e.e.e.e.e.e.e.e.e.e.e.e.e.e.4   o @ # # @ o @ > e.e.e.e.e.e.e.e.e.e.e.J 2 3 3 2 +.e.e.e.e.e.",
"e.e.e.e.e.e.e.e.e.e.e.e.e.e.e.e.b > X @ @ @ @ @ @ X > +.e.+.e.e.e.e.e.e.e.M . X X . - +.e.e.e.e.",
"e.e.e.e.e.e.e.e.e.e.e.e.e.e.e.e.e.L X @ @ # # @ @ @   < ( e.e.e.e.e.8 , 2 > % = = = # < L e.e.e.",
"e.e.e.e.e.e.e.e.e.e.e.e.e.e.e.e.e.M X o @ # % % @ @ o   3 z i i t z -   . X % = - - > o < ( e.e.",
"e.e.e.e.e.e.e.e.e.e.e.e.e.e.e.e.e.M @ o @ # % % @ @ @ # X . . . . . o # @ % % # - : - * . 1 e.e.",
"e.e.e.e.e.e.e.e.e.e.e.e.e.e.e.e.e.e.L # o # % % % % % @ @ @ @ @ @ @ @ @ @ # % % - : - * X 2 e.e.",
"e.e.e.e.e.e.e.e.e.e.e.e.e.e.e.e.e.e.+.o X @ @ # % % % # @ @ @ @ @ % # @ @ % % % - > : =   < e.e.",
"e.e.e.e.e.e.e.e.e.e.e.e.e.e.e.e.e.e.+.t % X @ @ # # # @ # % # % % % # @ @ % % % & * * @ < F e.e.",
"e.e.e.e.e.e.e.e.e.e.e.e.e.e.e.e.e.e.e.e.M * . # @ @ @ @ @ % % % % % # @ @ # % & % % #   6 e.e.e.",
"e.e.e.e.e.e.e.e.e.e.e.e.e.e.e.e.e.e.e.e.e.i -   X @ @ @ @ # # # # # @ @ @ @ # % # . @ 5 F e.e.e.",
"e.e.e.e.e.e.e.e.e.e.e.e.e.e.e.e.e.e.e.e.+.e.t * - o o o o @ @ @ @ @ @ @ @ @ + o @ * : e.e.e.e.e.",
"e.e.e.e.e.e.e.e.e.e.e.e.e.e.e.e.e.e.e.e.e.e.e.e.+.% # # # @ @ @ @ @ @ @ @ @ # @ - e.e.e.e.e.e.e.",
"e.e.e.e.e.e.e.e.e.e.e.e.e.e.e.e.e.e.e.e.e.e.e.e.e.+.+.+.L o   . . . . . .   6 e.( e.e.e.e.e.e.e.",
"e.e.e.e.e.e.e.e.e.e.e.e.e.e.e.e.e.e.e.e.e.e.e.e.e.e.e.e.e.8 7 8 7 7 7 7 7 6 L e.e.e.e.e.e.e.e.e.",
"e.e.e.e.e.e.e.e.e.e.e.e.e.e.e.e.e.e.e.e.e.e.e.e.e.e.e.e.e.e.e.e.e.e.e.e.e.e.e.e.e.e.e.e.e.e.e.e.",
"e.e.e.e.e.e.e.e.e.e.e.e.e.e.e.e.e.e.e.e.e.e.e.e.e.e.e.e.e.e.e.e.e.e.e.e.e.e.e.e.e.e.e.e.e.e.e.e."
};
