/* XPM */
static char *ozzy_walking_left[] = {
/* columns rows colors chars-per-pixel */
"80 50 142 2 ",
"   c #040404",
".  c #0C0C0C",
"X  c gray8",
"o  c #191917",
"O  c gray11",
"+  c #22231D",
"@  c #31341D",
"#  c #1E1E21",
"$  c #222222",
"%  c #282827",
"&  c gray17",
"*  c #373C22",
"=  c #30302E",
"-  c #363828",
";  c #2F2F30",
":  c #323232",
">  c #3B3C37",
",  c gray23",
"<  c #403F3E",
"1  c #434A2B",
"2  c #41403E",
"3  c #434343",
"4  c #464847",
"5  c #4C4C4B",
"6  c gray33",
"7  c #595956",
"8  c #5C5B5B",
"9  c #62625E",
"0  c #636463",
"q  c #6B6B66",
"w  c #6C6C6B",
"e  c #706F6B",
"r  c #71716E",
"t  c #7C716F",
"y  c #737372",
"u  c #787772",
"i  c #7B7A76",
"p  c #757879",
"a  c #7C7C7B",
"s  c #807E7B",
"d  c #AA7E7F",
"f  c #8E9A53",
"g  c #85837E",
"h  c #838383",
"j  c #888785",
"k  c #8B8A85",
"l  c #8D8D8C",
"z  c #908F8B",
"x  c #92928E",
"c  c #959493",
"v  c #979894",
"b  c #999995",
"n  c #9C9C9B",
"m  c #AC8482",
"M  c #A19F9A",
"N  c #AEB28B",
"B  c #A3A29D",
"V  c #A09FA0",
"C  c #A5A5A4",
"Z  c #A8A7A3",
"A  c #ABAAA4",
"S  c #ACACAA",
"D  c #B1AEA7",
"F  c #B0AFAB",
"G  c #B4B2AC",
"H  c #B4B4B3",
"J  c #B9B7B1",
"K  c #BBBAB4",
"L  c #BCBCBB",
"P  c #C0BEB7",
"I  c #C0BFBA",
"U  c #E3B1B1",
"Y  c #C4C2BC",
"T  c #C9C6BD",
"R  c #C4C4C3",
"E  c #C9C7C1",
"W  c #C8C9C7",
"Q  c #CFCEC6",
"!  c #CBC9C2",
"~  c #C8C7C9",
"^  c #CDCDCE",
"/  c #CECECE",
"(  c #CDCDCD",
")  c #D2CEC6",
"_  c #D1CEC6",
"`  c #D0CFC8",
"'  c #D3D3CB",
"]  c #D5D2CB",
"[  c #D6D3CB",
"{  c #D4D4CD",
"}  c #D9D6CE",
"|  c #D2D2D2",
" . c #D5D5D5",
".. c #D7D7D7",
"X. c gray83",
"o. c #D7D8D6",
"O. c #DDD9D3",
"+. c #DBDAD3",
"@. c #DADADA",
"#. c #DDDDDE",
"$. c #DADADA",
"%. c #EFD0CB",
"&. c #E0DFD9",
"*. c #DFE0D6",
"=. c #E1E2DC",
"-. c #E4E3DC",
";. c #E9E6DE",
":. c #E1E1E1",
">. c #E6E6E6",
",. c #E4E4E4",
"<. c #E4E4E3",
"1. c #EAE8E0",
"2. c #EBEBE4",
"3. c #EFEFE9",
"4. c gray93",
"5. c #EEEEEE",
"6. c #EDEDEC",
"7. c #F3E8E6",
"8. c #F0EFEA",
"9. c #F2F1EB",
"0. c #FAF7ED",
"q. c #F1F1F1",
"w. c gray95",
"e. c #F4F5F2",
"r. c gray97",
"t. c #F4F4F4",
"y. c #F8F7F1",
"u. c #FAF7F2",
"i. c #FAFAF5",
"p. c #F8F8F8",
"a. c #F9F9F9",
"s. c #FAFAF9",
"d. c gray98",
"f. c #FBFBFB",
"g. c gray99",
"h. c magenta",
"j. c #FDFEFD",
"k. c #FEFEFE",
"l. c #FFFFFE",
"z. c #FEFEFF",
"x. c white",
"c. c #FEFEFE",
/* pixels */
"h.h.h.h.h.h.h.h.h.h.h.h.h.h.h.h.h.h.h.h.h.h.h.h.h.h.h.h.h.h.h.h.h.h.h.h.h.h.h.h.h.h.h.h.h.h.h.h.h.h.h.h.h.h.h.h.h.h.h.h.h.h.h.h.h.h.h.h.h.h.h.h.h.h.h.h.h.h.h.h.",
"h.h.h.h.h.h.h.h.R | h.h.h.h.h.h.h.h.h.h.h.h.h.h.h.h.h.h.h.h.h.h.h.h.h.h.h.h.h.h.h.h.h.h.h.h.h.h.h.h.h.h.h.h.h.h.h.h.h.h.h.h.h.h.h.h.h.h.h.h.h.h.h.h.h.h.h.h.h.h.",
"h.h.h.h.h.h.h.h.w & | #.y y c h.h.h.h.h.h.h.h.h.h.h.h.h.h.h.h.h.h.h.h.h.h.h.h.h.h.h.h.h.h.h.h.h.h.h.h.h.h.h.h.h.h.h.h.h.h.h.h.h.h.h.h.h.h.h.h.h.h.h.h.h.h.h.h.h.",
"h.h.h.h.h.h.h.h.h   5 w X o o n h.h.h.h.h.h.h.h.h.h.h.h.h.h.h.h.h.h.h.h.h.h.h.h.h.h.h.h.h.h.h.h.h.h.h.h.h.h.h.h.h.h.h.h.h.h.h.h.h.h.h.h.h.h.h.h.h.h.h.h.h.h.h.h.",
"h.h.h.h.h.h.h.h.p   . o 5 5 % o q.h.h.h.h.h.h.h.h.h.h.h.h.h.h.h.h.h.h.h.h.h.h.h.h.h.h.h.h.h.h.h.h.h.h.h.h.h.h.h.h.h.h.h.h.h.h.h.h.h.h.h.h.h.h.h.h.h.h.h.h.h.h.h.",
"h.h.h.h.h.h.h.h.a   o # 4 7 4 : h.h.h.h.h.h.h.h.h.h.h.h.h.h.h.h.h.h.h.h.h.h.h.h.h.h.h.h.h.h.h.h.h.h.h.h.h.h.h.h.h.h.h.h.h.h.h.h.h.h.h.h.h.h.h.h.h.h.h.h.h.h.h.h.",
"h.h.h.h.h.h.h.q.9   o % 4 8 5 & R | | h.h.h.h.h.h.h.h.h.h.h.h.h.h.h.h.h.h.h.h.h.h.h.h.h.h.h.h.h.h.h.h.h.h.h.h.h.h.h.h.h.h.h.h.h.h.h.h.h.h.h.h.h.h.h.h.h.h.h.h.h.",
"h.h.h.h.h.h.h.7 . % o > 7 7 7 % . . X R :.h.h.h.h.h.h.h.h.h.h.h.h.h.h.h.h.h.h.h.h.h.h.h.h.h.h.h.h.h.h.h.h.h.h.h.h.h.h.h.h.h.h.h.h.h.h.h.h.h.h.h.h.h.h.h.h.h.h.h.",
"h.h.h.h.h.5.8 % 7 > o & > 5 5 % X o % o o R h.h.h.h.h.h.h.h.h.h.h.h.h.h.h.h.h.h.h.h.h.h.h.h.h.h.h.h.h.h.h.h.h.h.h.h.h.h.h.h.h.h.h.h.h.h.h.h.h.h.h.h.h.h.h.h.h.h.",
"h.h.h.h.h.0 o 7 7 o % o o % : % o X % % X X | h.h.h.h.h.h.h.h.h.h.h.h.h.h.h.h.h.h.h.h.h.h.h.h.h.h.h.h.h.h.h.h.h.h.h.h.h.h.h.h.h.h.h.h.h.h.h.h.h.h.h.h.h.h.h.h.h.",
"h.h.h.h.a R 0 : : % % % % % % % % o o % % . R h.h.h.h.h.h.h.h.h.h.h.h.h.h.h.h.h.h.h.h.h.h.h.h.h.h.h.h.h.h.h.h.h.h.h.h.h.h.h.h.h.h.h.h.h.h.h.h.h.h.h.h.h.h.h.h.h.",
"h.h.h.h.w E 0   o % % % % % % % o o % o % o % | h.h.h.h.h.h.h.h.h.h.h.h.h.h.h.h.h.h.h.h.h.h.h.h.h.h.h.h.h.h.h.h.h.h.h.h.h.h.h.h.h.h.h.h.h.h.h.h.h.h.h.h.h.h.h.h.",
"h.h.h.h.y ~ 9   1 + o % % % % o % # X o o o X : % H h.h.h.h.h.h.h.h.h.h.h.h.h.h.h.h.h.h.h.h.h.h.h.h.h.h.h.h.h.h.h.h.h.h.h.h.h.h.h.h.h.h.h.h.h.h.h.h.h.h.h.h.h.h.",
"h.h.h.h.y R N @ f * # & & & & & % % o X o % %   a 5.h.r.h.h.h.h.h.h.h.h.h.h.h.h.h.h.h.h.h.h.h.h.h.h.h.h.h.h.h.h.h.h.h.h.h.h.h.h.h.h.h.h.h.h.h.h.h.h.h.h.h.h.h.h.",
"h.h.h.l H q.q o - + # % & : ; & # X o X o % % X > : S h.h.h.h.h.h.h.h.w 5 7 7 7 7 7 8 8 8 5 l h.h.h.h.h.h.h.h.h.h.h.h.h.h.h.h.h.h.h.h.h.h.h.h.h.h.h.h.h.h.h.h.h.",
"h.h.a m U 7.p > 4 > 4 5 > % % % % o X o o o % # o   7 c l l l l l l l % X X X X X X X X X   8 h.h.h.h.h.h.h.h.h.h.h.h.h.h.h.h.h.h.h.h.h.h.h.h.h.h.h.h.h.h.h.h.h.",
"h.h.0 d %.2.q.w & > : > : % % o X o o X o o % % % % X . . . . . . X X & : : : : : : ; & & % & 5 > y h.h.h.h.h.h.h.h.h.h.h.h.h.h.h.h.h.h.h.h.h.h.h.h.h.h.h.h.h.h.",
"h.h.E t T =.$.B > : 4 % o % % % o X o o o o % & % % % % % & : : : : : : & % % % % & & & & % o X . o 0 8 0 q.h.q.h.h.h.h.h.h.h.h.h.h.h.h.h.h.h.h.h.h.h.h.h.h.h.h.",
"h.h.h.R i Z { _ J 5 o ; & o o o o o o % o o % % & & & & % % : & & & & % % % # % o % % % & & % % % o . . . w q.h.h.h.h.h.h.h.h.h.h.h.h.h.h.h.h.c a h h.h.h.h.h.h.",
"h.h.h.h.H j i u g j u i 8   . . . . % % o o % & & : ; & & & % % % % % % % % % % % # o % % % % % % % % % % . w h :.h.r.h.h.h.h.h.h.h.h.h.h.q.l & o . 0 :.h.h.h.h.",
"h.h.h.h.h./ l c c c G } B 8 0 q w 8 X o % % & : & % % & ; & % % # o o o % % % % % % % % % % % % o o o % % % X   8 #.h.h.h.h.h.h.h.h.h.h.h.:.X > 7 5 o w n :.h.h.",
"h.h.h.h.h.h.h.h.h.n w { Y E E { 5.=.y % o = : : % o o % & % % % % % % % % % % % % % % % % % % % & & % % o o % &   5 / h.h.h.h.h.h.h.h.h.h.:.% > 8 0 0 :   L h.h.",
"h.h.h.h.h.h.h.h.h./ l B Y Y E { :.9.r.& o & : & % % % # o # % % % % # # o o o o # # % % % % # % ; & % # X X o % %   a h.q.h.h.h.h.h.h.h.h.:.% : 8 9 0 5 o / h.h.",
"h.h.h.h.h.h.h.h.h.5.c k _ $.2.2.2.=.x % o & & % o % % # % % % % % % % % % % % o o # % % % + % % & % % % o X o % & o 7 :.h.h.h.h.h.h.h.h.h.:.o : 8 0 0 4 o n h.h.",
"h.h.h.h.h.h.h.h.h.n a { { 8.2.=.9.$.o % o % & % # % % % o o o # % % & & & ; % # % % % % % # % % % & % % o X X & & & . 5 :.h.h.h.h.h.h.h.h.:.o % 7 7 5 4 &   I h.",
"h.h.h.h.h.h.h.h.h.C q G { 2.2.2.1.v > : o X % % # % % % # # o # % % & % % & % % % % % % % % % % % & & % o X X % & % & X 7 5.h.h.h.h.h.h.h.q.o # & > > : & . R h.",
"h.h.h.h.h.h.h.h.h.R 8 i $.2.2.2.R . & : o o o # # % % % % # % o % & & % % o # % # % o o % o % & & & & o # X . o % % & ; . 0 / | h.h.h.h.R S % % % > > & % X R h.",
"h.h.h.h.h.h.h.h.h.h.H a =.=.{ E S o o : o o o o o % % % % o % # % & : 2 > o % % o o o o # # # o % & & o % X > % X % % & % o   4 L H H C X X % % % & & & &   R h.",
"h.h.h.h.h.h.h.h.h.h.Z w K G P E S o + & % o o # o % X o % % % % & : : : & o o % % % # o # # % % o % & % % . / h . o % % % & & % . .   . % % % % : : & & X & | h.",
"h.h.h.h.h.h.h.h.h.h.L w 0 r E T Z X o % & % o % o % o o % % % & & & & % % % X o % % o o o % % % # o % % % . R h.a o o % % & % & & & % % % % & % & : & o : | h.h.",
"h.h.h.h.h.h.h.h.h.h.h.h.R y I E Z + % % % % % % % # % o o % o o # % % % % o X o % % % % # % # # % % % % # . S h.h.h . X % % % & & & % % % : : : % % o % R h.h.h.",
"h.h.h.h.h.h.h.h.h.h.h.h.h.H 8 L L H H % o # % % % # % % o o & % o o o o # % & % o & & % % % # # % % % % o X . L h.h.a . o % % % % % & & & ; : % % o X L h.h.h.h.",
"h.h.h.h.h.h.h.h.h.h.h.h.C o X 7 R E K % X # % % % % % % X 5 E x o o o o o b K b > o : & % % % # % % # # o X   H h.h.h.l X % X o % % % % % % % % o X L h.h.h.h.h.",
"h.h.h.h.h.h.h.h.h.h.h.S X X X o 7 K L F S > o % % % % % . 7 { Y G G S F Z Y T Y K 7 o : & % % % % % % % o o o o H h.h.q.5.n . X o % % % % % o o o H h.h.h.h.h.h.",
"h.h.h.h.h.h.h.h.h.n : : o o X X o 2 5 K R & X & % % % % X : 0 s E Y Y T &.E Y Y Y R 9 X : & & & % % % o o o # X o S h.h.h.q.:.n   X X X . o / :.#.h.h.h.h.h.h.h.",
"h.h.h.h.h.h.h.v 7 : X % % # o o X X X : & X o & % o % % . 0 R 5 0 w K P q.a 7 0 < : % X o % % & & % % o o o % %   c h.h.h.h.h.q./ / / / / / h.h.h.h.h.h.h.h.h.h.",
"h.h.h.h.h.h.C x D K a o % % o o X X X X S | > % & & % % . y h.{ $./ w 9 :.5.4 X X . X X X o % % & : & % % % % % o % n h.h.h.h.h.h.h.h.h.h.h.h.h.h.h.h.h.h.h.h.h.",
"h.h.h.h.h.S n ;.0.;.i o o           X L h.h.5 X & & % % . w h.h.h.h.#.$.q.h.4   X o X X X X o X . % & % % % % % %   a h.h.h.h.h.h.h.h.h.h.h.h.h.h.h.h.h.h.h.h.h.",
"h.h.h.h.h.h G r.{ _ e   8 L H H H H L h.h.h.>   % & % % . y h.r.h.h.h.h.h.h.R Y 5   o X X X . 4 n   . . .   X # %   h h.h.h.h.h.h.h.h.h.h.h.h.h.h.h.h.h.h.h.h.h.",
"h.h.h.h.h.c G r.$.M l C | h.h.h.h.h.h.h.h.h.L : o & % &   0 h.h.h.h.h.h.h.h.h.h./ 7 . o X o . 8 h.C S S C S : X %   h h.h.h.h.h.h.h.h.h.h.h.h.h.h.h.h.h.h.h.h.h.",
"h.h.h.h.h.h C =.=.g l h.h.h.h.h.h.h.h.h.h.h.h.7 X : & X 4 R h.h.h.h.h.h.h.h.h.q.h.l   o X o . 7 h.h.h.h.h.h.5 X & . h h.h.h.h.h.h.h.h.h.h.h.h.h.h.h.h.h.h.h.h.h.",
"h.h.h.h.h.| l q w c #.h.h.h.h.h.h.h.h.h.h.h.h.5 X : & . h h.h.h.h.h.h.h.h.h.h.h.L : X % o o   4 h.h.h.h.q.h.4 X o   h h.h.h.h.h.h.h.h.h.h.h.h.h.h.h.h.h.h.h.h.h.",
"h.h.h.h.h.h./ S C | h.h.h.h.h.h.h.h.h.h.h.h.R 4 X X % . a h.h.h.h.h.h.h.h.h.H n > . % % % . & H h.h.h.h.h.H : o w 4 l h.h.h.h.h.h.h.h.h.h.h.h.h.h.h.h.h.h.h.h.h.",
"h.h.h.h.h.h.h.h.h.h.h.h.h.h.h.h.h.h.h.h.h.I h z h h 5   h h.h.h.h.h.h.h.h.R i 0 : X o % . & H h.h.h.h.h.L x x h :.c n h.h.h.h.h.h.h.h.h.h.h.h.h.h.h.h.h.h.h.h.h.",
"h.h.h.h.h.h.h.h.h.h.h.h.h.h.h.h.h.h.h.h.h.q G r.9.r.F % a h.h.h.h.h.h.h.h.7 S 2.x 9 2   & H h.p.h.h.h.q.0 :.h.h.h.h c h.h.h.h.h.h.h.h.h.h.h.h.h.h.h.h.h.h.h.h.h.",
"h.h.h.h.h.h.h.h.h.h.h.h.h.h.h.h.h.h.h.h.h.w a F M z M k H h.h.h.h.h.h.h.h.h y c c C 7 % S h.r.h.h.h.h.q.0 b H S H c R h.h.h.h.h.h.h.h.h.h.h.h.h.h.h.h.h.h.h.h.h.",
"h.h.h.h.h.h.h.h.h.h.h.h.h.h.h.h.h.h.h.h.h.c a a h h y R h.h.h.h.h.h.h.h.h.#.y a a a y L h.h.h.h.h.h.h.h.c a h h y / h.h.h.h.h.h.h.h.h.h.h.h.h.h.h.h.h.h.h.h.h.h.",
"h.h.h.h.h.h.h.h.h.h.h.h.h.h.h.h.h.h.h.h.h.h.h.h.h.h.h.h.h.h.h.h.h.h.h.h.h.h.h.h.h.h.h.h.h.h.h.h.h.h.h.h.h.h.h.h.h.h.h.h.h.h.h.h.h.h.h.h.h.h.h.h.h.h.h.h.h.h.h.h.",
"h.h.h.h.h.h.h.h.h.h.h.h.h.h.h.h.h.h.h.h.h.h.h.h.h.h.h.h.h.h.h.h.h.h.h.h.h.h.h.h.h.h.h.h.h.h.h.h.h.h.h.h.h.h.h.h.h.h.h.h.h.h.h.h.h.h.h.h.h.h.h.h.h.h.h.h.h.h.h.h.",
"h.h.h.h.h.h.h.h.h.h.h.h.h.h.h.h.h.h.h.h.h.h.h.h.h.h.h.h.h.h.h.h.h.h.h.h.h.h.h.h.h.h.h.h.h.h.h.h.h.h.h.h.h.h.h.h.h.h.h.h.h.h.h.h.h.h.h.h.h.h.h.h.h.h.h.h.h.h.h.h."
};
