/* XPM */
static char *ozzy_walking[] = {
/* columns rows colors chars-per-pixel */
"80 50 142 2 ",
"   c #040404",
".  c #0C0C0C",
"X  c #141414",
"o  c #191917",
"O  c #1C1C1C",
"+  c #22231D",
"@  c #31341D",
"#  c #1E1E21",
"$  c #222222",
"%  c #282827",
"&  c #2B2B2B",
"*  c #373C22",
"=  c #30302E",
"-  c #363828",
";  c #2F2F30",
":  c #323232",
">  c #3B3C37",
",  c #3B3B3B",
"<  c #403F3E",
"1  c #434A2B",
"2  c #41403E",
"3  c #434343",
"4  c #464847",
"5  c #4C4C4B",
"6  c #545454",
"7  c #595956",
"8  c #5C5B5B",
"9  c #62625E",
"0  c #636463",
"q  c #6B6B66",
"w  c #6C6C6B",
"e  c #706F6B",
"r  c #71716E",
"t  c #7C716F",
"y  c #737372",
"u  c #787772",
"i  c #7B7A76",
"p  c #757879",
"a  c #7C7C7B",
"s  c #807E7B",
"d  c #AA7E7F",
"f  c #8E9A53",
"g  c #85837E",
"h  c #838383",
"j  c #888785",
"k  c #8B8A85",
"l  c #8D8D8C",
"z  c #908F8B",
"x  c #92928E",
"c  c #959493",
"v  c #979894",
"b  c #999995",
"n  c #9C9C9B",
"m  c #AC8482",
"M  c #A19F9A",
"N  c #AEB28B",
"B  c #A3A29D",
"V  c #A09FA0",
"C  c #A5A5A4",
"Z  c #A8A7A3",
"A  c #ABAAA4",
"S  c #ACACAA",
"D  c #B1AEA7",
"F  c #B0AFAB",
"G  c #B4B2AC",
"H  c #B4B4B3",
"J  c #B9B7B1",
"K  c #BBBAB4",
"L  c #BCBCBB",
"P  c #C0BEB7",
"I  c #C0BFBA",
"U  c #E3B1B1",
"Y  c #C4C2BC",
"T  c #C9C6BD",
"R  c #C4C4C3",
"E  c #C9C7C1",
"W  c #C8C9C7",
"Q  c #CFCEC6",
"!  c #CBC9C2",
"~  c #C8C7C9",
"^  c #CDCDCE",
"/  c #CECECE",
"(  c #CDCDCD",
")  c #D2CEC6",
"_  c #D1CEC6",
"`  c #D0CFC8",
"'  c #D3D3CB",
"]  c #D5D2CB",
"[  c #D6D3CB",
"{  c #D4D4CD",
"}  c #D9D6CE",
"|  c #D2D2D2",
" . c #D5D5D5",
".. c #D7D7D7",
"X. c #D4D4D4",
"o. c #D7D8D6",
"O. c #DDD9D3",
"+. c #DBDAD3",
"@. c #DADADA",
"#. c #DDDDDE",
"$. c #DADADA",
"%. c #EFD0CB",
"&. c #E0DFD9",
"*. c #DFE0D6",
"=. c #E1E2DC",
"-. c #E4E3DC",
";. c #E9E6DE",
":. c #E1E1E1",
">. c #E6E6E6",
",. c #E4E4E4",
"<. c #E4E4E3",
"1. c #EAE8E0",
"2. c #EBEBE4",
"3. c #EFEFE9",
"4. c #EDEDED",
"5. c #EEEEEE",
"6. c #EDEDEC",
"7. c #F3E8E6",
"8. c #F0EFEA",
"9. c #F2F1EB",
"0. c #FAF7ED",
"q. c #F1F1F1",
"w. c #F2F2F2",
"e. c #F4F5F2",
"r. c #F7F7F7",
"t. c #F4F4F4",
"y. c #F8F7F1",
"u. c #FAF7F2",
"i. c #FAFAF5",
"p. c #F8F8F8",
"a. c #F9F9F9",
"s. c #FAFAF9",
"d. c #FAFAFA",
"f. c #FBFBFB",
"g. c #FCFCFC",
"h. c #FF00FF",
"j. c #FDFEFD",
"k. c #FEFEFE",
"l. c #FFFFFE",
"z. c #FEFEFF",
"x. c #FFFFFF",
"c. c #FEFEFE",
/* pixels */
"h.h.h.h.h.h.h.h.h.h.h.h.h.h.h.h.h.h.h.h.h.h.h.h.h.h.h.h.h.h.h.h.h.h.h.h.h.h.h.h.h.h.h.h.h.h.h.h.h.h.h.h.h.h.h.h.h.h.h.h.h.h.h.h.h.h.h.h.h.h.h.h.h.h.h.h.h.h.h.h.",
"h.h.h.h.h.h.h.h.h.h.h.h.h.h.h.h.h.h.h.h.h.h.h.h.h.h.h.h.h.h.h.h.h.h.h.h.h.h.h.h.h.h.h.h.h.h.h.h.h.h.h.h.h.h.h.h.h.h.h.h.h.h.h.h.h.h.h.h.h.h.| R h.h.h.h.h.h.h.h.",
"h.h.h.h.h.h.h.h.h.h.h.h.h.h.h.h.h.h.h.h.h.h.h.h.h.h.h.h.h.h.h.h.h.h.h.h.h.h.h.h.h.h.h.h.h.h.h.h.h.h.h.h.h.h.h.h.h.h.h.h.h.h.h.h.h.c y y #.| & w h.h.h.h.h.h.h.h.",
"h.h.h.h.h.h.h.h.h.h.h.h.h.h.h.h.h.h.h.h.h.h.h.h.h.h.h.h.h.h.h.h.h.h.h.h.h.h.h.h.h.h.h.h.h.h.h.h.h.h.h.h.h.h.h.h.h.h.h.h.h.h.h.h.n o o X w 5   h h.h.h.h.h.h.h.h.",
"h.h.h.h.h.h.h.h.h.h.h.h.h.h.h.h.h.h.h.h.h.h.h.h.h.h.h.h.h.h.h.h.h.h.h.h.h.h.h.h.h.h.h.h.h.h.h.h.h.h.h.h.h.h.h.h.h.h.h.h.h.h.h.q.o % 5 5 o .   p h.h.h.h.h.h.h.h.",
"h.h.h.h.h.h.h.h.h.h.h.h.h.h.h.h.h.h.h.h.h.h.h.h.h.h.h.h.h.h.h.h.h.h.h.h.h.h.h.h.h.h.h.h.h.h.h.h.h.h.h.h.h.h.h.h.h.h.h.h.h.h.h.h.: 4 7 4 # o   a h.h.h.h.h.h.h.h.",
"h.h.h.h.h.h.h.h.h.h.h.h.h.h.h.h.h.h.h.h.h.h.h.h.h.h.h.h.h.h.h.h.h.h.h.h.h.h.h.h.h.h.h.h.h.h.h.h.h.h.h.h.h.h.h.h.h.h.h.h.h.| | R & 5 8 4 % o   9 q.h.h.h.h.h.h.h.",
"h.h.h.h.h.h.h.h.h.h.h.h.h.h.h.h.h.h.h.h.h.h.h.h.h.h.h.h.h.h.h.h.h.h.h.h.h.h.h.h.h.h.h.h.h.h.h.h.h.h.h.h.h.h.h.h.h.h.h.:.R X . . % 7 7 7 > o % . 7 h.h.h.h.h.h.h.",
"h.h.h.h.h.h.h.h.h.h.h.h.h.h.h.h.h.h.h.h.h.h.h.h.h.h.h.h.h.h.h.h.h.h.h.h.h.h.h.h.h.h.h.h.h.h.h.h.h.h.h.h.h.h.h.h.h.h.R o o % o X % 5 5 > & o > 7 % 8 5.h.h.h.h.h.",
"h.h.h.h.h.h.h.h.h.h.h.h.h.h.h.h.h.h.h.h.h.h.h.h.h.h.h.h.h.h.h.h.h.h.h.h.h.h.h.h.h.h.h.h.h.h.h.h.h.h.h.h.h.h.h.h.h.| X X % % X o % : % o o % o 7 7 o 0 h.h.h.h.h.",
"h.h.h.h.h.h.h.h.h.h.h.h.h.h.h.h.h.h.h.h.h.h.h.h.h.h.h.h.h.h.h.h.h.h.h.h.h.h.h.h.h.h.h.h.h.h.h.h.h.h.h.h.h.h.h.h.h.R . % % o o % % % % % % % % : : 0 R a h.h.h.h.",
"h.h.h.h.h.h.h.h.h.h.h.h.h.h.h.h.h.h.h.h.h.h.h.h.h.h.h.h.h.h.h.h.h.h.h.h.h.h.h.h.h.h.h.h.h.h.h.h.h.h.h.h.h.h.h.h.| % o % o % o o % % % % % % % o   0 E w h.h.h.h.",
"h.h.h.h.h.h.h.h.h.h.h.h.h.h.h.h.h.h.h.h.h.h.h.h.h.h.h.h.h.h.h.h.h.h.h.h.h.h.h.h.h.h.h.h.h.h.h.h.h.h.h.h.h.h.H % : X o o o X # % o % % % % o + 1   9 ~ y h.h.h.h.",
"h.h.h.h.h.h.h.h.h.h.h.h.h.h.h.h.h.h.h.h.h.h.h.h.h.h.h.h.h.h.h.h.h.h.h.h.h.h.h.h.h.h.h.h.h.h.h.h.h.h.h.h.r.h.5.a   % % o X o % % & & & & & # * f @ N R y h.h.h.h.",
"h.h.h.h.h.h.h.h.h.h.h.h.h.h.h.h.h.h.h.h.h.h.h.h.h.h.h.h.h.h.h.h.h.l 5 8 8 8 7 7 7 7 7 5 w h.h.h.h.h.h.h.h.S : > X % % o X o X # & ; : & % # + - o q q.H l h.h.h.",
"h.h.h.h.h.h.h.h.h.h.h.h.h.h.h.h.h.h.h.h.h.h.h.h.h.h.h.h.h.h.h.h.h.8   X X X X X X X X X % l l l l l l l c 7   o # % o o o X o % % % % > 5 4 > 4 > p 7.U m a h.h.",
"h.h.h.h.h.h.h.h.h.h.h.h.h.h.h.h.h.h.h.h.h.h.h.h.h.h.h.h.h.h.y > 5 & % & & ; : : : : : : & X X . . . . . . X % % % % o o X o o X o % % : > : > & w q.2.%.d 0 h.h.",
"h.h.h.h.h.h.h.h.h.h.h.h.h.h.h.h.h.h.h.h.h.h.h.h.q.h.q.0 8 0 o . X o % & & & & % % % % & : : : : : : & % % % % % & % o o o o X o % % % o % 4 : > B $.=.T t E h.h.",
"h.h.h.h.h.h.h a c h.h.h.h.h.h.h.h.h.h.h.h.h.h.h.h.q.w . . . o % % % & & % % % o % # % % % & & & & : % % & & & & % % o o % o o o o o o & ; o 5 J _ { Z i R h.h.h.",
"h.h.h.h.:.0 . o & l q.h.h.h.h.h.h.h.h.h.h.r.h.:.h w . % % % % % % % % % % o # % % % % % % % % % % % & & & ; : & & % o o % % . . . .   8 i u j g u i j H h.h.h.h.",
"h.h.:.n w o 5 7 > X :.h.h.h.h.h.h.h.h.h.h.h.#.8   X % % % o o o % % % % % % % % % % % % o o o # % % & ; & % % & : & % % o X 8 w q 0 8 B } G c c c l / h.h.h.h.h.",
"h.h.L   : 0 0 8 > % :.h.h.h.h.h.h.h.h.h.h./ 5   & % o o % % & & % % % % % % % % % % % % % % % % % % % & % o o % : : = o % y =.5.{ E E Y { w n h.h.h.h.h.h.h.h.h.",
"h.h./ o 5 0 9 8 : % :.h.h.h.h.h.h.h.h.q.h.a   % % o X X # % & ; % # % % % % # # o o o o # # % % % % # o # % % % & : & o & r.9.:.{ E Y Y B l / h.h.h.h.h.h.h.h.h.",
"h.h.n o 4 0 0 8 : o :.h.h.h.h.h.h.h.h.h.:.7 o & % o X o % % % & % % + % % % # o o % % % % % % % % % % % # % % o % & & o % x =.2.2.2.$._ k c 5.h.h.h.h.h.h.h.h.h.",
"h.I   & 4 5 7 7 % o :.h.h.h.h.h.h.h.h.:.5 . & & & X X o % % & % % % # % % % % % # % ; & & & % % # o o o % % % # % & % o % o $.9.=.2.8.{ { a n h.h.h.h.h.h.h.h.h.",
"h.R . & : > > & # o q.h.h.h.h.h.h.h.5.7 X & % & % X X o % & & % % % % % % % % % % % & % % & % % # o # # % % % # % % X o : > v 1.2.2.2.{ G q C h.h.h.h.h.h.h.h.h.",
"h.R X % & > > % % % S R h.h.h.h.| / 0 . ; & % % o . X # o & & & & % o % o o % # % # o % % & & % o % # % % % % # # o o o : & . R 2.2.2.$.i 8 R h.h.h.h.h.h.h.h.h.",
"h.R   & & & & % % % X X C H H L 4   o % & % % X % > X % o & & % o # # # o o o o % % o > 2 : & % # % o % % % % o o o o o : o o S E { =.=.a H h.h.h.h.h.h.h.h.h.h.",
"h.| & X & & : : % % % % .   . . % & & % % % o . h / . % % & % o % % # # o # % % % o o & : : : & % % % % o X % o # o o % & + o S E P G K w Z h.h.h.h.h.h.h.h.h.h.",
"h.h.| : o & : & % & % % % % & & & % & % % o o a h.R . % % % o # % % % o o o % % o X % % % & & & & % % % o o % o % o % & % o X Z T E r 0 w L h.h.h.h.h.h.h.h.h.h.",
"h.h.h.R % o % % : : : % % % & & & % % % X . h h.h.S . # % % % % # # % # % % % % o X o % % % % # o o % o o % # % % % % % % % + Z E I y R h.h.h.h.h.h.h.h.h.h.h.h.",
"h.h.h.h.L X o % % : ; & & & % % % % % o . a h.h.L . X o % % % % # # % % % & & o % & % # o o o o % & o o % % # % % % # o % H H L L 8 H h.h.h.h.h.h.h.h.h.h.h.h.h.",
"h.h.h.h.h.L X o % % % % % % % % o X % X l h.h.h.H   X o # # % % # % % % & : o > b K b o o o o o x E 5 X % % % % % % # X % K E R 7 X o C h.h.h.h.h.h.h.h.h.h.h.h.",
"h.h.h.h.h.h.H o o o % % % % % o X . n 5.q.h.h.H o o o o % % % % % % % & : o 7 K Y T Y Z F S G G Y { 7 . % % % % % o > S F L K 7 o X X X S h.h.h.h.h.h.h.h.h.h.h.",
"h.h.h.h.h.h.h.#.:./ o . X X X   n :.q.h.h.h.S o X # o o o % % % & & & : X 9 R Y Y Y E &.T Y Y E s 0 : X % % % % & X & R K 5 2 o X X o o : : n h.h.h.h.h.h.h.h.h.",
"h.h.h.h.h.h.h.h.h.h./ / / / / / q.h.h.h.h.h.c   % % o o o % % & & % % o X % : < 0 7 a q.P K w 0 5 R 0 . % % o % & o X & : X X X o o # % % X : 7 v h.h.h.h.h.h.h.",
"h.h.h.h.h.h.h.h.h.h.h.h.h.h.h.h.h.h.h.h.h.n % o % % % % % & : & % % o X X X . X X 4 5.:.9 w / $.{ h.y . % % & & % > | S X X X X o o % % o a K D x C h.h.h.h.h.h.",
"h.h.h.h.h.h.h.h.h.h.h.h.h.h.h.h.h.h.h.h.h.a   % % % % % % & % . X o X X X X o X   4 h.q.$.#.h.h.h.h.w . % % & & X 5 h.h.L X           o o i ;.0.;.n S h.h.h.h.h.",
"h.h.h.h.h.h.h.h.h.h.h.h.h.h.h.h.h.h.h.h.h.h   % # X   . . .   n 4 . X X X o   5 Y R h.h.h.h.h.h.r.h.y . % % & %   > h.h.h.L H H H H L 8   e _ { r.G h h.h.h.h.h.",
"h.h.h.h.h.h.h.h.h.h.h.h.h.h.h.h.h.h.h.h.h.h   % X : S C S S C h.8 . o X o . 7 / h.h.h.h.h.h.h.h.h.h.0   & % & o : L h.h.h.h.h.h.h.h.h.| C l M $.r.G c h.h.h.h.h.",
"h.h.h.h.h.h.h.h.h.h.h.h.h.h.h.h.h.h.h.h.h.h . & X 5 h.h.h.h.h.h.7 . o X o   l h.q.h.h.h.h.h.h.h.h.h.R 4 X & : X 7 h.h.h.h.h.h.h.h.h.h.h.h.l g =.=.C h h.h.h.h.h.",
"h.h.h.h.h.h.h.h.h.h.h.h.h.h.h.h.h.h.h.h.h.h   o X 4 h.q.h.h.h.h.4   o o % X : L h.h.h.h.h.h.h.h.h.h.h.h . & : X 5 h.h.h.h.h.h.h.h.h.h.h.h.#.c w q l | h.h.h.h.h.",
"h.h.h.h.h.h.h.h.h.h.h.h.h.h.h.h.h.h.h.h.h.l 4 w o : H h.h.h.h.h.H & . % % % . > n H h.h.h.h.h.h.h.h.h.a . % X X 4 R h.h.h.h.h.h.h.h.h.h.h.h.| C S / h.h.h.h.h.h.",
"h.h.h.h.h.h.h.h.h.h.h.h.h.h.h.h.h.h.h.h.h.n c :.h x x L h.h.h.h.h.H & . % o X : 0 i R h.h.h.h.h.h.h.h.h   5 h h z h I h.h.h.h.h.h.h.h.h.h.h.h.h.h.h.h.h.h.h.h.h.",
"h.h.h.h.h.h.h.h.h.h.h.h.h.h.h.h.h.h.h.h.h.c h h.h.h.:.0 q.h.h.h.p.h.H &   2 9 x 2.S 7 h.h.h.h.h.h.h.h.a % F r.9.r.G q h.h.h.h.h.h.h.h.h.h.h.h.h.h.h.h.h.h.h.h.h.",
"h.h.h.h.h.h.h.h.h.h.h.h.h.h.h.h.h.h.h.h.h.R c H S H b 0 q.h.h.h.h.r.h.S % 7 C c c y h h.h.h.h.h.h.h.h.H k M z M F a w h.h.h.h.h.h.h.h.h.h.h.h.h.h.h.h.h.h.h.h.h.",
"h.h.h.h.h.h.h.h.h.h.h.h.h.h.h.h.h.h.h.h.h.h./ y h h a c h.h.h.h.h.h.h.h.L y a a a y #.h.h.h.h.h.h.h.h.h.R y h h a a c h.h.h.h.h.h.h.h.h.h.h.h.h.h.h.h.h.h.h.h.h.",
"h.h.h.h.h.h.h.h.h.h.h.h.h.h.h.h.h.h.h.h.h.h.h.h.h.h.h.h.h.h.h.h.h.h.h.h.h.h.h.h.h.h.h.h.h.h.h.h.h.h.h.h.h.h.h.h.h.h.h.h.h.h.h.h.h.h.h.h.h.h.h.h.h.h.h.h.h.h.h.h.",
"h.h.h.h.h.h.h.h.h.h.h.h.h.h.h.h.h.h.h.h.h.h.h.h.h.h.h.h.h.h.h.h.h.h.h.h.h.h.h.h.h.h.h.h.h.h.h.h.h.h.h.h.h.h.h.h.h.h.h.h.h.h.h.h.h.h.h.h.h.h.h.h.h.h.h.h.h.h.h.h.",
"h.h.h.h.h.h.h.h.h.h.h.h.h.h.h.h.h.h.h.h.h.h.h.h.h.h.h.h.h.h.h.h.h.h.h.h.h.h.h.h.h.h.h.h.h.h.h.h.h.h.h.h.h.h.h.h.h.h.h.h.h.h.h.h.h.h.h.h.h.h.h.h.h.h.h.h.h.h.h.h."
};
