/* XPM */
static char *ozzy_walking3[] = {
/* columns rows colors chars-per-pixel */
"80 50 168 2 ",
"   c #030303",
".  c #070807",
"X  c #0C0C0C",
"o  c #10100F",
"O  c #0F0F10",
"+  c #141514",
"@  c #181717",
"#  c #171816",
"$  c #181817",
"%  c #171719",
"&  c #1D1D1D",
"*  c #201F1C",
"=  c #1E2212",
"-  c #1F201E",
";  c #21211F",
":  c #2E3215",
">  c #31351F",
",  c #1F1F20",
"<  c #1F2020",
"1  c #222222",
"2  c #272826",
"3  c #282926",
"4  c #2C2C2B",
"5  c #302F2F",
"6  c #2F3127",
"7  c #2F302F",
"8  c #313323",
"9  c #30312F",
"0  c #2F3130",
"q  c #333332",
"w  c #373834",
"e  c #393A36",
"r  c #383739",
"t  c #3C3C3B",
"y  c #3F4326",
"u  c #41413C",
"i  c #434442",
"p  c #474842",
"a  c #484944",
"s  c #4C4D4A",
"d  c #4F504A",
"f  c #52524D",
"g  c #56584E",
"h  c #555554",
"j  c #585750",
"k  c #575855",
"l  c #5A5B55",
"z  c #585758",
"x  c #5C5D5B",
"c  c #5E605B",
"v  c #616352",
"b  c #62635B",
"n  c #6F625C",
"m  c #67685E",
"M  c #696B5E",
"N  c #646463",
"B  c #666863",
"V  c #6B6C65",
"C  c #6C6D6B",
"Z  c #6F716B",
"A  c #73736B",
"S  c #76786E",
"D  c #79796E",
"F  c #747472",
"G  c #777876",
"H  c #7A7B74",
"J  c #7C7C7B",
"K  c #A77C78",
"L  c #7F8075",
"P  c #8B9746",
"I  c #828277",
"U  c #83837A",
"Y  c #8C8B7E",
"T  c #A8817D",
"R  c #A4A976",
"E  c #848482",
"W  c #898980",
"Q  c #8C8C8B",
"!  c #8F908E",
"~  c #91928D",
"^  c #9B9A8F",
"/  c #949593",
"(  c #979893",
")  c #9B9B93",
"_  c #9C9C9B",
"`  c #A4A396",
"'  c #A3A39D",
"]  c #ACAA9E",
"[  c #A4A4A2",
"{  c #A7A8A5",
"}  c #ADADA1",
"|  c #ADADAC",
" . c #AFB0A4",
".. c #AFB0AB",
"X. c #B3B2A5",
"o. c #B3B3AD",
"O. c #B9B7A9",
"+. c #B7B8A9",
"@. c #BCBAAC",
"#. c #B4B4B2",
"$. c #B7B8B4",
"%. c #BBBBB5",
"&. c #BCBCBB",
"*. c #DBA6A4",
"=. c #C0BDAE",
"-. c #C2BEB1",
";. c #C4C2B4",
":. c #C2C3BC",
">. c #CAC6B9",
",. c #CCCBBD",
"<. c #D0CEBE",
"1. c #E2C7BF",
"2. c #C4C4C2",
"3. c #C7C8C5",
"4. c #CACAC7",
"5. c #CBCCCA",
"6. c #D2CFC2",
"7. c #CFD0CE",
"8. c #D4D3C5",
"9. c #D8D5C4",
"0. c #D0D0CF",
"q. c #D7D7CA",
"w. c #DBDBCC",
"e. c #D3D3D3",
"r. c #D1D1D0",
"t. c #D5D5D4",
"y. c #D9DAD4",
"u. c #D7D8D8",
"i. c #DADBDA",
"p. c #DFE0D3",
"a. c #E3E3D7",
"s. c #E2E3D6",
"d. c #E5E5DA",
"f. c #EDE3D8",
"g. c #E7EADC",
"h. c #E7E8DC",
"j. c #EAEBDE",
"k. c #E5E5E5",
"l. c #E4E4E4",
"z. c #ECEDE2",
"x. c #EBEBEA",
"c. c #EEF0E3",
"v. c #F3F3E5",
"b. c #F3F3EC",
"n. c #F7F7F7",
"m. c #F6F6F5",
"M. c #F6F6F5",
"N. c #FAFAF6",
"B. c #F9F9F9",
"V. c #FAFAF9",
"C. c #FAFAF9",
"Z. c #FBFBFB",
"A. c #FBFBFA",
"S. c #FDFDFB",
"D. c #FCFCFC",
"F. c #FDFDFC",
"G. c #FDFDFD",
"H. c #FEFEFC",
"J. c #FF00FF",
"K. c #FEFFFD",
"L. c #FEFEFE",
"P. c #FFFEFE",
"I. c #FEFFFE",
"U. c #FFFFFE",
"Y. c #FFFFFF",
"T. c #FFFEFF",
"R. c #FDFEFE",
"E. c #FEFEFE",
/* pixels */
"J.J.J.J.J.J.J.J.J.J.J.J.J.J.J.J.J.J.J.J.J.J.J.J.J.J.J.J.J.J.J.J.J.J.J.J.J.J.J.J.J.J.J.J.J.J.J.J.J.J.J.J.J.J.J.J.J.J.J.J.J.J.J.J.J.J.J.J.J.J.J.J.J.J.J.J.J.J.J.J.",
"J.J.J.J.J.J.J.J.J.J.J.J.J.J.J.J.J.J.J.J.J.J.J.J.J.J.J.J.J.J.J.J.J.J.J.J.J.J.J.J.J.J.J.J.J.J.J.J.J.J.J.J.J.J.J.J.J.J.J.J.J.J.J.J.J.J.J.J.J.J.u.5.J.J.J.J.J.J.J.J.",
"J.J.J.J.J.J.J.J.J.J.J.J.J.J.J.J.J.J.J.J.J.J.J.J.J.J.J.J.J.J.J.J.J.J.J.J.J.J.J.J.J.J.J.J.J.J.J.J.J.J.J.J.J.J.J.J.J.J.J.J.J.J.J.J.J._ Z C u.k.5 C J.J.J.J.J.J.J.J.",
"J.J.J.J.J.J.J.J.J.J.J.J.J.J.J.J.J.J.J.J.J.J.J.J.J.J.J.J.J.J.J.J.J.J.J.J.J.J.J.J.J.J.J.J.J.J.J.J.J.J.J.J.J.J.J.J.J.J.J.J.J.J.J.J.| 2 $ + C s   E J.J.J.J.J.J.J.J.",
"J.J.J.J.J.J.J.J.J.J.J.J.J.J.J.J.J.J.J.J.J.J.J.J.J.J.J.J.J.J.J.J.J.J.J.J.J.J.J.J.J.J.J.J.J.J.J.J.J.J.J.J.J.J.J.J.J.J.J.J.J.J.J.J.3 2 k s + X X G J.J.J.J.J.J.J.J.",
"J.J.J.J.J.J.J.J.J.J.J.J.J.J.J.J.J.J.J.J.J.J.J.J.J.J.J.J.J.J.J.J.J.J.J.J.J.J.J.J.J.J.J.J.J.J.J.J.J.J.J.J.J.J.J.J.J.J.J.J.J.J.J.J.e e k e $ $   E J.J.J.J.J.J.J.J.",
"J.J.J.J.J.J.J.J.J.J.J.J.J.J.J.J.J.J.J.J.J.J.J.J.J.J.J.J.J.J.J.J.J.J.J.J.J.J.J.J.J.J.J.J.J.J.J.J.J.J.J.J.J.J.J.J.J.J.J.J.J.e.e.e.q i x e $ +   N n.J.J.J.J.J.J.J.",
"J.J.J.J.J.J.J.J.J.J.J.J.J.J.J.J.J.J.J.J.J.J.J.J.J.J.J.J.J.J.J.J.J.J.J.J.J.J.J.J.J.J.J.J.J.J.J.J.J.J.J.J.J.J.J.J.J.J.J.k.e.$ X + $ f f s q + 2 X k J.J.J.J.J.J.J.",
"J.J.J.J.J.J.J.J.J.J.J.J.J.J.J.J.J.J.J.J.J.J.J.J.J.J.J.J.J.J.J.J.J.J.J.J.J.J.J.J.J.J.J.J.J.J.J.J.J.J.J.J.J.J.J.J.J.J.5.$ $ $ $ + 2 p a e 3 $ e d $ k b.J.J.J.J.J.",
"J.J.J.J.J.J.J.J.J.J.J.J.J.J.J.J.J.J.J.J.J.J.J.J.J.J.J.J.J.J.J.J.J.J.J.J.J.J.J.J.J.J.J.J.J.J.J.J.J.J.J.J.J.J.J.J.J.u.$ + , 2 + $ $ 7 2 $ $ 2 $ s d $ l J.J.J.J.J.",
"J.J.J.J.J.J.J.J.J.J.J.J.J.J.J.J.J.J.J.J.J.J.J.J.J.J.J.J.J.J.J.J.J.J.J.J.J.J.J.J.J.J.J.J.J.J.J.J.J.J.J.J.J.J.J.J.J.e.+ 2 2 $ $ , 2 2 2 2 2 , $ 4 q x %.A J.J.J.J.",
"J.J.J.J.J.J.J.J.J.J.J.J.J.J.J.J.J.J.J.J.J.J.J.J.J.J.J.J.J.J.J.J.J.J.J.J.J.J.J.J.J.J.J.J.J.J.J.J.J.J.J.J.J.J.J.J.u.4 + , $ , 2 , $ $ $ , 2 2 , %   l :.V J.J.J.J.",
"J.J.J.J.J.J.J.J.J.J.J.J.J.J.J.J.J.J.J.J.J.J.J.J.J.J.J.J.J.J.J.J.J.J.J.J.J.J.J.J.J.J.J.J.J.J.J.J.J.J.J.J.J.J.#.4 q + $ $ + + $ 2 $ , , 2 2 $ = y   g :.C J.J.J.J.",
"J.J.J.J.J.J.J.J.J.J.J.J.J.J.J.J.J.J.J.J.J.J.J.J.J.J.J.J.J.J.J.J.J.J.J.J.J.J.J.J.J.J.J.J.J.J.J.J.J.J.J.J.J.J.n.E   $ 2 $ + $ , 2 4 4 4 4 2 $ > P : R %.C J.J.J.J.",
"J.J.J.J.J.J.J.J.J.J.J.J.J.J.J.J.J.J.J.J.J.J.J.J.J.J.J.J.J.J.J.J.J.( k N x x x x x x x k F J.J.J.J.J.J.J.J.&.e e + 2 2 $ + % + $ 4 4 4 4 2 $ $ 8 # v c.o.E J.J.J.",
"J.J.J.J.J.J.J.J.J.J.J.J.J.J.J.J.J.J.J.J.J.J.J.J.J.J.J.J.J.J.J.J.J.x   O + + + + + + + X $ Q ( ! ( ( ( Q ( k   % $ 2 2 $ + + $ 2 2 2 2 e i e 9 r q B f.*.T G J.J.",
"J.J.J.J.J.J.J.J.J.J.J.J.J.J.J.J.J.J.J.J.J.J.J.J.J.J.J.J.J.J.F i k q $ 4 q q q q q q q q 4 O X X X X .     X 2 2 $ 2 2 $ + $ $ + $ 2 $ 9 q 4 e 3 l j.s.1.K c J.J.",
"J.J.J.J.J.J.J.J.J.J.J.J.J.J.J.J.J.J.J.J.J.J.J.J.J.J.n.N x N $ X + $ 2 4 4 5 4 2 2 2 2 2 q q q q 5 q 2 2 2 2 $ 2 4 2 2 $ $ + + $ 2 $ $ $ $ e 4 e ( 8.w.;.n 2.J.J.",
"J.J.J.J.J.J.E E ( J.J.J.J.J.J.J.J.J.J.J.J.J.J.J.J.n.C   X X $ 2 2 2 4 7 3 2 , $ 2 2 , $ 2 5 5 4 4 4 2 2 2 2 2 2 2 $ , $ 2 $ $ $ $ $ $ 2 3 O u X.8.<.` S &.J.J.J.",
"J.J.J.J.x.C X + 2 Q n.J.J.J.J.J.J.J.J.J.J.J.J.k.Q F   $ 2 2 2 2 $ 2 2 2 2 $ $ $ 2 2 , , 2 2 2 2 2 2 2 4 4 4 4 4 2 2 $ $ 2 2 X         l A V I I H H W $.J.J.J.J.",
"J.J.k._ F $ i f e + k.J.J.J.J.J.J.J.J.J.J.J.x.x   X 2 2 $ 2 2 , $ $ $ $ , , 2 $ 2 2 $ $ $ $ $ $ $ $ 4 q 4 2 2 2 4 4 2 2 $ + l N b b l ` 8.X.~ ( ( ~ 5.J.J.J.J.J.",
"J.J.2.  4 l x l e 2 x.J.J.J.J.J.J.J.J.J.J.u.x   2 2 $ $ 2 2 2 4 2 $ , 2 , , $ , 2 2 $ $ $ 2 , $ $ $ 2 4 2 2 $ 2 q 9 4 - 2 A p.z.,.;.,.@.,.M ( J.J.J.J.J.J.J.J.J.",
"J.J.e.+ s l k k e 2 x.J.J.J.J.J.J.J.J.n.J.Q   2 , $ + + 2 2 2 5 2 $ , $ 2 2 2 , $ $ $ $ $ $ , , $ $ $ $ 2 2 2 2 4 q 4 $ 4 v.z.s.,.,.@.@.` W 5.J.J.J.J.J.J.J.J.J.",
"J.n.( $ i x l l q 2 x.J.J.J.J.J.J.J.J.J.k.x + 4 2 $ + $ 2 2 2 2 2 , $ $ 2 2 2 , $ $ 2 2 2 2 2 2 $ , $ $ 2 2 2 $ 2 q 4 2 2 W w.d.j.j.8.;.I ( x.J.J.J.J.J.J.J.J.J.",
"J.&.  4 i s d s 2 2 k.J.J.J.J.J.J.J.J.x.k X 4 q 4 + + 2 $ 2 4 $ 2 2 $ $ 2 2 , 2 $ 2 q q q 5 2 2 2 2 $ , $ , $ $ 2 q 4 2 ; + q.z.s.d.z.:.,.A ( J.J.J.J.J.J.J.J.J.",
"J.&.  4 q e e 4 $ - n.J.J.J.J.J.J.J.x.k X q q q 2 + + $ $ 4 2 2 4 2 , 2 $ $ $ 2 $ 2 4 4 4 4 2 $ $ 2 $ 2 2 , 2 $ 2 4 4 3 6 q ( s.j.d.j.,.} b ] J.J.J.J.J.J.J.J.J.",
"J.&.  4 4 q q 2 $ 2 | 2.J.J.J.J.u.u.B   4 0 4 4 + . + 2 $ 4 4 4 4 2 2 2 2 2 $ , , $ $ $ $ 4 4 2 2 , 2 2 , $ $ 2 2 ; 4 4 9 2 X %.s.s.j.8.A k 2.J.J.J.J.J.J.J.J.J.",
"J.&.  4 2 2 2 2 2 2 X X _ &.#.&.i   $ 4 7 2 2 + $ e + 2 $ 4 4 2 , 2 2 2 2 2 2 2 2 2 $ 4 q 4 4 2 , $ 2 2 $ $ 2 2 2 2 2 2 4 * $ ` =.8.d.w.A | J.J.J.J.J.J.J.J.J.J.",
"J.5.< + 2 2 4 4 $ 2 2 2 X X .   $ 2 3 4 2 2 $ X G k.X 2 2 4 2 2 2 2 2 2 2 2 2 , 2 2 2 2 4 4 4 q 2 2 2 2 + + 2 , 2 2 2 2 4 2 + ` ;.@.X.o.m { J.J.J.J.J.J.J.J.J.J.",
"J.J.e.4 $ 2 4 4 2 4 2 $ 2 2 2 2 2 2 4 2 $ $ o G J.| + 2 4 2 2 2 2 2 2 2 2 2 2 2 $ + 2 2 2 4 4 4 4 2 2 2 % $ 2 $ 2 2 2 4 2 $ + ` -.;.A c b &.J.J.J.J.J.J.J.J.J.J.",
"J.J.J.e.2 + 2 2 4 q 4 $ 2 $ 4 4 4 2 2 2 $ X F J.#.X $ 2 ; 2 2 2 2 2 2 2 $ 2 2 2 $ + 2 2 2 2 $ , , , 2 + % 2 , $ , 2 4 $ $ $ + ` -.@.l &.J.J.J.J.J.J.J.J.J.J.J.J.",
"J.J.J.J.2.$ $ 2 2 4 4 4 4 4 2 2 2 2 2 $ X G J.| + $ + + 2 2 2 2 2 2 $ $ , , 2 2 2 2 2 $ $ $ $ $ 2 2 $ $ 2 $ , $ 2 2 2 $ $  .} O.@.A $ [ J.J.J.J.J.J.J.J.J.J.J.J.",
"J.J.J.J.J.5.@ $ 2 2 , , 2 2 , 2 $ + $ X G J.#.+ @ $ + + ; 2 2 2 2 , $ ; 2 , 4 $ u -.W + $ $ $ + W -.p + 2 2 2 2 2 2 $ + ; X.;.%.b 2 $ $ [ J.J.J.J.J.J.J.J.J.J.J.",
"J.J.J.J.J.J.2.+ + + $ 2 2 2 2 $ +   _ x.J.[ $ $ $ + + + $ 2 2 2 2 , 2 2 2 2 q $ a >.O.} ] ] ] ] O.,.f + 2 2 2 2 2 $ 9 ` ` @.O.f 2 $ $ $ $ [ J.J.J.J.J.J.J.J.J.J.",
"J.J.J.J.J.J.J.e.u.2.+ X X X +   _ k.n.J.J.Q   $ $ $ + + + + 2 2 2 2 2 , 2 q 4 + i >.@.@.-.-.-.>.D l 4 $ 2 2 2 2 4 + 9 ;.@.f a ; % $ $ 2 2 $ ] J.J.J.J.J.J.J.J.J.",
"J.J.J.J.J.J.J.J.J.J.5.5.5.5.5.3.n.J.J.J.J.( X $ $ $ % $ $ $ 2 2 2 2 , 2 4 4 $ 2 f b I d.@.@.V b a &.N X 2 2 $ 2 4 % $ V B + $ $ $ $ 2 2 4 2 2 ( J.J.J.J.J.J.J.J.",
"J.J.J.J.J.J.J.J.J.J.J.J.J.J.J.J.J.J.J.J.J.~ X $ $ $ $ X X X % 2 2 2 4 q 4 4 X f x.7.k.x.b V 5.u.e.J.F X 2 2 4 5 2 e 5.e.u.:.$ X $ $ $ $ 2 4 $ 2 ( J.J.J.J.J.J.J.",
"J.J.J.J.J.J.J.J.J.J.J.J.J.J.J.J.J.J.J.J.J.(   2 $ + 2 #.#.#.4 $ 2 2 2 2 2 X s u.J.J.J.n.e.u.J.J.J.J.C X 2 4 q q + s J.J.J.J.&.#.2   $ 2 $ 2 4 $ - ( J.J.J.J.J.J.",
"J.J.J.J.J.J.J.J.J.J.J.J.J.J.J.J.J.J.J.J.3.W j X $ q &.J.J.J.q $ 2 2 2 2 + z u.J.J.J.J.J.J.J.J.J.J.J.C + 2 2 q 4   e J.J.J.J.J.J.%.| e   + 2 X f V x J.J.J.J.J.J.",
"J.J.J.J.J.J.J.J.J.J.J.J.J.J.J.J.J.J.J.J.( D @.f   s J.J.J.n.q $ 2 2 2 2   ( J.n.J.J.J.J.J.J.J.J.J.J.x   4 2 q $ e :.J.J.J.J.J.J.J.J.&.[ i   u o.w.( o.J.J.J.J.J.",
"J.J.J.J.J.J.J.J.J.J.J.J.J.J.J.J.J.J.J.J.[ S ,.] f N J.J.J.J.2 + 2 2 2 2   ( J.n.J.J.J.J.J.J.J.J.J.J.:.i + 4 r + x J.J.J.J.J.J.J.J.J.J.J.5.k H w.v.@.V J.J.J.J.J.",
"J.J.J.J.J.J.J.J.J.J.J.J.J.J.J.J.J.J.J.J.[ H @.;.] C J.J.J.J.[ $ + 2 2 2 $ i 2.J.J.J.J.J.J.J.J.J.J.J.J.G   4 q + x J.J.J.J.J.J.J.J.J.J.n.J.( H ,.q.X.H J.J.J.J.J.",
"J.J.J.J.J.J.J.J.J.J.J.J.J.J.J.J.J.J.J.J.( A 6.] I o.J.J.J.J.J.( + + 2 2 4 + e _ [ 2.J.J.J.J.J.J.J.J.J.F X 2 X X s 3.J.J.J.J.J.J.J.J.J.J.J.2.W ` j.+.C J.J.J.J.J.",
"J.J.J.J.J.J.J.J.J.J.J.J.J.J.J.J.J.J.J.J.4.E Y W o.J.J.J.J.J.J.J.[ $ + 4 2 + q A L I 2.J.J.J.J.J.J.J.J.G   i G H W H 2.J.J.J.J.J.J.J.J.J.J.J.5.~ ] ( ..J.J.J.J.J.",
"J.J.J.J.J.J.J.J.J.J.J.J.J.J.J.J.J.J.J.J.J.q.H %.J.J.J.J.J.J.J.J.J.( $   u k ^ N.v.` V J.J.J.J.J.J.J.J.G ; ( v.v.b.` V J.J.J.J.J.J.J.J.J.J.J.J.u.H #.J.J.J.J.J.J.",
"J.J.J.J.J.J.J.J.J.J.J.J.J.J.J.J.J.J.J.J.J.J.J.J.J.J.J.J.J.J.J.J.n.J.( i I ] ~ ( } D Z J.J.J.J.J.J.J.J.#.I ^ Y ( X.D Z J.J.J.J.J.J.J.J.J.J.J.J.J.J.J.J.J.J.J.J.J.",
"J.J.J.J.J.J.J.J.J.J.J.J.J.J.J.J.J.J.J.J.J.J.J.J.J.J.J.J.J.J.J.J.J.J.J.J.$.C H H H F ( J.J.J.J.J.J.J.J.J.%.V G G H F ( J.J.J.J.J.J.J.J.J.J.J.J.J.J.J.J.J.J.J.J.J.",
"J.J.J.J.J.J.J.J.J.J.J.J.J.J.J.J.J.J.J.J.J.J.J.J.J.J.J.J.J.J.J.J.J.J.J.J.J.J.J.J.J.J.J.J.J.J.J.J.J.J.J.J.J.J.J.J.J.J.J.J.J.J.J.J.J.J.J.J.J.J.J.J.J.J.J.J.J.J.J.J.",
"J.J.J.J.J.J.J.J.J.J.J.J.J.J.J.J.J.J.J.J.J.J.J.J.J.J.J.J.J.J.J.J.J.J.J.J.J.J.J.J.J.J.J.J.J.J.J.J.J.J.J.J.J.J.J.J.J.J.J.J.J.J.J.J.J.J.J.J.J.J.J.J.J.J.J.J.J.J.J.J.",
"J.J.J.J.J.J.J.J.J.J.J.J.J.J.J.J.J.J.J.J.J.J.J.J.J.J.J.J.J.J.J.J.J.J.J.J.J.J.J.J.J.J.J.J.J.J.J.J.J.J.J.J.J.J.J.J.J.J.J.J.J.J.J.J.J.J.J.J.J.J.J.J.J.J.J.J.J.J.J.J."
};
