/* XPM */
static char *ozzy_still[] = {
/* columns rows colors chars-per-pixel */
"80 69 157 2 ",
"   c #030302",
".  c #0C0C0C",
"X  c #100F0F",
"o  c #10110A",
"O  c #151515",
"+  c #181717",
"@  c #181816",
"#  c #171718",
"$  c #181619",
"%  c #1C1C1C",
"&  c #201F1F",
"*  c #21211F",
"=  c #1F1F20",
"-  c #201F20",
";  c #222222",
":  c #282926",
">  c #2C2C2C",
",  c #30302F",
"<  c #2F2F31",
"1  c #2F3030",
"2  c #333332",
"3  c #393637",
"4  c #383738",
"5  c #3B3B3B",
"6  c #403F3E",
"7  c #494F24",
"8  c #42413E",
"9  c #505732",
"0  c #515831",
"q  c #686E37",
"w  c #63703B",
"e  c #444443",
"r  c #484744",
"t  c #494846",
"y  c #4C4C4A",
"u  c #504F4C",
"i  c #4F504F",
"p  c #51504D",
"a  c #58504D",
"s  c #4F5050",
"d  c #545453",
"f  c #585755",
"g  c #595957",
"h  c #5C5C5B",
"j  c #765D5F",
"k  c #717D40",
"l  c #61615E",
"z  c #636362",
"x  c #696764",
"c  c #676863",
"v  c #6A6966",
"b  c #6C6B6A",
"n  c #716E6A",
"m  c #71716E",
"M  c #737373",
"N  c #797472",
"B  c #7A7976",
"V  c #7B7B7A",
"C  c #807F7D",
"Z  c #B17D81",
"A  c #858483",
"S  c #888682",
"D  c #878885",
"F  c #8C8A86",
"G  c #888788",
"H  c #8D8D8B",
"J  c #92928E",
"K  c #949493",
"L  c #989794",
"P  c #979892",
"I  c #9B9A95",
"U  c #98979B",
"Y  c #9C9B9A",
"T  c #B89291",
"R  c #A2A29D",
"E  c #A4A4A3",
"W  c #AAA9A5",
"Q  c #ABABAB",
"!  c #B4B2AD",
"~  c #B8B6AD",
"^  c #B4B4B4",
"/  c #BCBBB6",
"(  c #BEBEBE",
")  c #BCBCBC",
"_  c #BCBCBC",
"`  c #D8A6A5",
"'  c #C0BEB9",
"]  c #E3B9B8",
"[  c #C2C4B2",
"{  c #C5C3BC",
"}  c #CDC2BF",
"|  c #D1D4B6",
" . c #C0BFC0",
".. c #C1C1C1",
"X. c #C2C2C2",
"o. c #C3C3C2",
"O. c #C8C7C3",
"+. c #CBCAC4",
"@. c #CFCFCF",
"#. c #CCCCCC",
"$. c #CDCDCB",
"%. c #D1CEC7",
"&. c #D3CFCA",
"*. c #D3D2CC",
"=. c #D8D5CC",
"-. c #DDD9CD",
";. c #D0D0D0",
":. c #D6D6D6",
">. c #D5D5D3",
",. c #D8D7D2",
"<. c #DDDBD3",
"1. c #D9D9D9",
"2. c #DADADA",
"3. c #DBDBDB",
"4. c #DCDCD9",
"5. c #DDDDDD",
"6. c #DDDDDB",
"7. c #E1DFD8",
"8. c #E0E1D7",
"9. c #E3E3DD",
"0. c #E8E7DF",
"q. c #E1E1E1",
"w. c #E3E3E3",
"e. c #E2E2E2",
"r. c #E5E5E5",
"t. c #E7E7E7",
"y. c #E5E5E3",
"u. c #E8E7E2",
"i. c #EBE9E4",
"p. c #E9E9E9",
"a. c #ECECEC",
"s. c #EBEBEB",
"d. c #F6E6E1",
"f. c #F6ECE7",
"g. c #EEF0EF",
"h. c #EFF0EF",
"j. c #F3F2EC",
"k. c #F0F0F0",
"l. c #F3F3F3",
"z. c #F4F4F4",
"x. c #F7F7F7",
"c. c #F5F5F4",
"v. c #F9F9F6",
"b. c #F7F8F8",
"n. c #F8F8F8",
"m. c #F9F9F9",
"M. c #FAFAFA",
"N. c #FBFBFB",
"B. c #FCFCFC",
"V. c #FDFDFD",
"C. c #FEFEFD",
"Z. c #FDFEFE",
"A. c #FDFFFE",
"S. c #FF00FF",
"D. c #FFFFFF",
"F. c #FEFDFC",
"G. c #FEFEFE",
/* pixels */
"S.S.S.S.S.S.S.S.S.S.S.S.S.S.S.S.S.S.S.S.S.S.S.S.S.S.S.S.S.S.S.S.S.S.S.S.S.S.S.S.S.S.S.S.S.S.S.S.S.S.S.S.S.S.S.S.S.S.S.S.S.S.S.S.S.S.S.S.S.S.S.S.S.S.S.S.S.S.S.S.",
"S.S.S.S.S.S.S.S.S.S.S.S.S.S.S.S.S.S.S.S.S.S.S.S.S.S.S.S.S.S.S.S.S.S.S.S.S.S.S.S.S.S.S.S.S.S.S.S.S.S.S.S.S.S.S.S.S.S.S.S.S.S.S.S.S.S.S.S.S.S.S.S.S.S.S.S.S.S.S.S.",
"S.S.S.S.S.S.S.S.S.S.S.S.S.S.S.S.S.S.S.S.S.S.S.S.S.S.S.S.S.S.S.S.S.S.S.S.S.S.S.S.S.S.S.S.S.S.S.S.S.S.S.S.S.S.S.S.S.S.S.S.S.S.S.S.S.S.S.S.S.S.S.S.S.S.S.S.S.S.S.S.",
"S.S.S.S.S.S.S.S.S.S.S.S.S.S.S.S.S.S.S.S.S.S.S.S.S.S.S.S.S.S.S.S.S.S.S.S.S.S.S.S.S.S.S.S.S.S.S.S.S.S.S.S.S.S.S.S.S.S.S.S.S.S.S.S.S.S.S.S.S.S.S.S.S.S.S.S.S.S.S.S.",
"S.S.S.S.S.S.S.S.S.S.2.2.2.:.q.S.S.S.S.S.S.S.S.S.S.S.S.S.S.S.S.S.S.S.S.S.S.S.S.S.S.S.S.S.S.S.S.S.S.S.S.S.S.S.S.S.S.S.S.S.S.S.S.S.S.S.S.S.S.S.S.S.S.S.S.S.S.S.S.S.",
"S.S.S.S.S.S.S.S.S.q.; % ; . y S.S.S.S.S.S.S.S.S.S.S.S.S.S.S.S.S.S.S.S.S.S.S.S.S.S.S.S.S.S.S.S.S.S.S.S.S.S.S.S.S.S.S.S.S.S.S.S.S.S.S.S.S.S.S.S.S.S.S.S.S.S.S.S.S.",
"S.S.S.S.S.S.S.Q > 4 2 y d 2 ; y p.S.S.S.S.S.S.S.S.S.S.S.S.S.S.S.S.S.S.S.S.S.S.S.S.S.S.S.S.S.S.S.S.S.S.S.S.S.S.S.S.S.S.S.S.S.S.S.S.S.S.S.S.S.S.S.S.S.S.S.S.S.S.S.",
"S.S.S.S.S.S.S.K   > h z z y > ; p.S.S.S.S.S.S.S.S.S.S.S.S.S.S.S.S.S.S.S.S.S.S.S.S.S.S.S.S.S.S.S.S.S.S.S.S.S.S.S.S.S.S.S.S.S.S.S.S.S.S.S.S.S.S.S.S.S.S.S.S.S.S.S.",
"S.S.S.S.S.S.G ; = 4 y h h h d 2 e 2.S.S.S.S.S.S.S.S.S.S.S.S.S.S.S.S.S.S.S.S.S.S.S.S.S.S.S.S.S.S.S.S.S.S.S.S.S.S.S.S.S.S.S.S.S.S.S.S.S.S.S.S.S.S.S.S.S.S.S.S.S.S.",
"S.S.S.S.S.S.h   > 2 2 h h z h 2 . @.S.S.S.S.S.S.S.S.S.S.S.S.S.S.S.S.S.S.S.S.S.S.S.S.S.S.S.S.S.S.S.S.S.S.S.S.S.S.S.S.S.S.S.S.S.x.X.X.q.S.q.) S.S.S.S.S.S.S.S.S.S.",
"S.S.S.S.S.S.z O > 4 4 y h z g 2 O @.S.S.S.S.S.S.S.S.S.S.S.S.S.S.S.S.S.S.S.S.S.S.S.S.S.S.S.S.S.S.S.S.S.S.S.S.S.S.S.S.S.S.S.S.x.Q .   ) p.d ; S.S.S.S.S.S.S.S.S.S.",
"S.S.S.S.x.p.h O 1 4 3 2 h v h 2 O @.S.S.S.S.S.S.S.S.S.S.S.S.S.S.S.S.S.S.S.S.S.S.S.S.S.S.S.S.S.S.S.S.S.S.S.S.S.S.S.S.S.S.S.S.D . > O Q v   4 S.S.S.S.S.S.S.S.S.S.",
"S.S.S.S.q.; ; ; ; > 2 4 e y y ; O :.S.S.S.S.S.S.S.S.S.S.S.S.S.S.S.S.S.S.S.S.S.S.S.S.S.S.S.S.S.S.S.S.S.S.S.S.S.S.S.S.S.S.S.x.M % e > % % . 4 S.S.S.S.S.S.S.S.S.S.",
"S.S.S.S.q.% % ; ; ; ; 1 e e > .   @.S.S.S.S.S.S.S.S.S.S.S.S.S.S.S.S.S.S.S.S.S.S.S.S.S.S.S.S.S.S.S.S.S.S.S.S.S.S.S.S.S.x.S.h O e d 2 % O . 4 S.S.S.S.S.S.S.S.S.S.",
"S.S.S.S.q.; ; > ; ; ; 2 2 ; e ^ E p.S.S.S.S.S.S.S.S.S.S.S.S.S.S.S.S.S.S.S.S.S.S.S.S.S.S.S.S.S.S.S.S.S.S.S.S.S.S.S.S.S.S.S.z O d v 4 % O . 4 S.S.S.S.S.S.S.S.S.S.",
"S.S.S.S.x.; ; > ; ; ; > ;   e S.S.S.S.S.S.S.S.S.S.S.S.S.S.S.S.S.S.S.S.S.S.S.S.S.S.S.S.S.S.S.S.S.S.S.S.S.S.S.S.x.S.2.z M M 2 > h d y > O . % V S.S.S.S.S.S.S.S.S.",
"S.S.q.E Y ; ; > ; ; ; ; O ; V S.S.S.S.S.S.S.S.S.S.S.S.S.S.S.S.S.S.S.S.S.S.S.S.S.S.S.S.S.S.S.S.S.S.S.S.S.S.S.S.S.q.M   . . O 2 h y d 2 % ; > O Q x.S.S.S.S.S.S.S.",
"S.S.)   O ; > > > ; ; ; . V S.S.S.S.S.S.S.S.S.S.S.S.S.S.S.S.S.S.S.S.S.S.S.S.S.S.S.S.S.S.S.S.S.S.S.S.S.S.S.S.S.2.l   > > % ; 2 d u 4 > ; t v ,   G x.S.S.S.S.S.S.",
"S.S.X.O ; ; > > > ; ; >   v S.S.S.S.S.S.S.S.S.S.S.S.S.S.S.S.S.S.S.S.S.S.S.S.S.S.S.S.S.S.S.S.S.S.S.S.S.S.S.S.S.4 . ; > % O % 2 4 - ; ; ; % e y : # K S.S.S.S.S.S.",
"S.S.X.. ; ; ; > > % ; O M :.S.S.S.S.S.S.S.S.S.S.S.S.S.S.S.S.S.S.S.S.S.S.S.S.S.S.S.S.S.S.S.S.S.S.S.S.S.S.S.x.d % ; > > % % ; ; > ; ; ; ; ; > 4 # Y K G S.S.S.S.S.",
"S.S.) . ; ; ; ; ; % ; . X.S.S.S.S.S.S.S.S.S.S.S.S.S.S.S.S.S.S.S.S.S.S.S.S.S.S.S.S.S.S.S.S.S.S.S.S.S.S.S.S.S.> O ; ; ; % ; ; ; ; ; ; ; ; ; ; ; . ^ L V S.S.S.S.S.",
"S.S.) . ; ; ; ; ; ; % . ^ S.S.S.S.S.S.S.S.S.S.S.S.S.S.S.S.S.S.S.S.S.S.S.S.S.S.S.S.S.S.S.S.S.S.S.S.S.S.X.v v ; ; ; % # % ; ; ; ; ; ; ; ; ; ; * o Q K V S.S.S.S.S.",
"S.S.)   ; ; > 2 > % % . ^ S.S.S.S.S.S.S.S.S.S.S.S.S.S.S.S.S.S.S.S.S.S.S.S.S.S.S.S.S.S.S.S.S.S.S.S.x.S.K   . % % % % % ; ; ; ; ; ; ; ; % O w 9 7 [ G V S.S.S.S.S.",
"S.S.X.% ; ; > 2 > % ; . ^ S.S.S.S.S.S.S.S.S.S.S.S.S.S.S.S.S.S.S.S.S.S.S.S.S.S.S.S.S.S.S.S.S.S.S.S.S.S.G . % % % O O ; ; ; ; 2 > , 2 : ; % k 0 q | U D b.S.S.S.S.",
"S.S.S.2.; % > 2 > % ; . ) S.S.S.S.S.S.S.S.S.S.S.S.S.S.S.S.S.S.S.S.S.S.S.S.S.S.S.S.S.S.S.S.S.S.S.S.S.M . O % % % % O # O % ; > > > > ; % % * : : W S./ B S.S.S.S.",
"S.S.S.x.: % > 2 > % ; O 4 E S.S.S.S.S.S.S.S.S.S.S.S.S.S.S.S.S.S.S.S.S.S.S.S.S.S.S.S.S.S.S.S.S.p.h y ; O % % % % % O O % % % ; ; ; e y y y y d $ E d.` T N x.S.S.",
"S.S.S.p.O % > ; ; ; % ;   V S.x.S.S.S.S.S.S.S.X.v V V V M M M M M M M M M V S.S.S.S.S.S.S.S.S.p.O   O % ; ; ; % % O % % % % ; ; ; 2 4 4 2 2 , K 2.f.] Z a p.S.S.",
"S.S.S.x.M ; ; ; ; ; ; > O d @.S.S.S.S.S.S.S.S.K   . . . . . . . . . . . . O E ^ ^ ^ ^ ^ ^ ^ ^ E % % ; ; ; ; ; % % % % O O % ; % % # O 4 e 2 p 0.j.j.{ j Y x.S.S.",
"S.S.S.S.S.> O ; ; ; > > ; . 2 :.@.x.S.S.S.X.:.V O ; ; ; 2 2 2 2 2 2 2 2 2 ; O . . . . . . . . . % ; ; ; ; ; ; % ; % O O O % % O % ; e 4 4 v %.=.-.{ U G S.S.S.S.",
"S.S.S.S.p.> O % ; ; ; ; ; ; O . . X.S.x.:.O . O % ; ; : > > > > > > > > > 2 2 2 2 2 > > ; ; ; ; ; ; > > ; ; ; ; * ; ; O O O O O ; e > * h =.~ ~ { V C S.S.S.S.S.",
"S.S.S.S.p.%   % ; ; ; ; > > % O O > > > > O % ; > > > > > ; ; ; ; ; ; ; ; ; > 2 2 > > > ; > 2 > > > > > > % ; ; ; ; % . . . . . O E / { U d g d r W S.S.S.S.S.S.",
"S.S.S.S.S.X.@.V O ; ; ; > > > % ; % % O . % ; > 2 > ; ; ; ; ; ; ; ; ; ; ; % % > 2 > ; ; > > 2 > > 2 > 2 > > ; ; ; ; 8 E K J K K K ' %.F G :.@.@.@.p.S.S.S.S.S.S.",
"S.S.S.S.S.S.S.Y   O ; ; ; ; ; * ; ; % % % ; ; > > ; ; ; ; ; ; ; ; ; ; ; ; ; % ; ; ; ; ; > 2 > > > ; ; > 2 > > ; % y ) j.0.=.%.%.=.{ +.v G S.S.S.S.S.S.S.S.S.S.S.",
"S.S.S.S.S.S.S.) z z O . % ; ; ; ; ; % O ; ; ; ; ; ; ; ; ; ; ; ; ; ; ; ; ; ; ; ; % ; ; ; > > > > ; % % ; 2 > 2 : O z S.0.i.<.=.=.{ { @.M G S.S.S.S.S.S.S.S.S.S.S.",
"S.S.S.S.S.S.S.S.S.b.e 2 ; % ; ; ; ; % % ; % ; ; ; ; ; ; ; ; ; ; ; ; ; ; ; ; ; ; ; ; ; ; ; * ; ; ; ; * ; > > 2 ; O d +.8.i.i.j.0.+.{ +.C G x.S.S.S.S.S.S.S.S.S.S.",
"S.S.S.S.S.S.S.S.S.S.S.S.h . % % % O % ; ; ; ; ; ; ; ; ; ; ; ; ; ; ; ; ; ; ; ; ; ; ; ; ; ; ; ; ; ; ; ; ; ; > > ; ; % > ! 0.i.i.i.0.O.{ +.G M S.S.S.S.S.S.S.S.S.S.",
"S.S.S.S.S.S.S.S.S.S.S.S.x.D   . O % ; ; > > ; ; ; ; ; ; ; ; ; ; ; ; ; ; ; % ; ; ; ; ; ; ; ; ; ; ; ; ; ; ; 2 2 ; : > > > { j.q.i.q.+.+.,.K M S.S.S.S.S.S.S.S.S.S.",
"S.S.S.S.S.S.S.S.S.S.S.S.S.2.^ ^ % % ; ; 2 > ; ; ; ; ; ; ; ; ; ; ; ; > > > ; ; ; ; ; ; ; ; ; ; ; ; ; ; ; ; ; ; ; > 2 > % =.v.q.i.0.=.G v d M S.S.S.S.S.S.S.S.S.S.",
"S.S.S.S.S.S.S.S.S.S.S.S.S.S.x.K % % ; > > ; > > ; ; ; ; ; ; ; ; ; ; > > > > ; ; ; ; ; ; ; ; ; ; ; ; ; ; ; ; ; ; > 2 > ; V X.0.i.i.=.v V Q ) S.S.S.S.S.S.S.S.S.S.",
"S.S.S.S.S.S.S.S.S.S.S.S.S.S.^   % % ; > > ; 2 2 > ; ; ; ; ; ; * ; ; ; ; > > > ; ; ; ; ; ; ; ; ; ; ; ; ; ; ; ; ; > 2 > ; . D 2.i.0.:.c ^ S.S.S.S.S.S.S.S.S.S.S.S.",
"S.S.S.S.S.S.S.S.S.S.S.S.S.S.X.O ; ; ; > > > > ; % ; ; ; ; ; * * * ; ; % ; > > 2 > ; ; ; ; ; ; ; ; ; ; ; ; ; ; ; > 2 > ; % J 0.7.{ X.m ^ S.S.S.S.S.S.S.S.S.S.S.S.",
"S.S.S.S.S.S.S.S.S.S.S.S.S.S.@.. ; ; % ; > > ; ; ; ; ; ; ; ; * * ; ; ; ; ; ; > 2 > ; ; ; ; ; ; ; ; ; ; ; ; ; ; ; > > ; ; % G +.{ / h X.S.S.S.S.S.S.S.S.S.S.S.S.S.",
"S.S.S.S.S.S.S.S.S.S.S.S.S.E % % % ; ; > > > ; ; ; ; ; ; ; * * * ; ; ; ; ; > > 2 > > > > > ; ; ; % % ; ; ; ; ; ; ; ; ; ; . D +.{ { h @.S.S.S.S.S.S.S.S.S.S.S.S.S.",
"S.S.S.S.S.S.S.S.S.S.S.S.S.:.z O ; ; ; > > ; ; ; ; ; ; ; * * ; ; ; ; ; ; ; ; ; > 2 > ; ; > ; ; ; O % ; ; ; ; ; ; ; ; ; . x ! =.! v e @.S.S.S.S.S.S.S.S.S.S.S.S.S.",
"S.S.S.S.S.S.S.S.S.S.S.S.S.S.@.  ; ; ; > > ; ; ; ; ; ; ; ; ; ; ; ; % % ; ; % % ; > ; ; ; ; ; % % % % ; ; ; ; ; ; ; % % d / W F F G G 2.S.S.S.S.S.S.S.S.S.S.S.S.S.",
"S.S.S.S.S.S.S.S.S.S.S.S.S.S.@.4 ; % ; ; > ; ; ; ; ; ; ; ; ; ; ; % O % ; ; ; ; ; ; ; ; % * ; % O ; ; ; ; ; ; ; ; & ; y @.&.n y G S.S.S.S.S.S.S.S.S.S.S.S.S.S.S.S.",
"S.S.S.S.S.S.S.S.S.S.S.S.S.S.S.q.; % ; ; ; ; ; ; ; ; ; ; % ; 2 > % % ; ; ; ; ; ; ; ; ; > ; ; % O ; ; ; ; ; ; ; ; X t +.! { m W S.x.S.S.S.S.S.S.S.S.S.S.S.S.S.S.S.",
"S.S.S.S.S.S.S.S.S.S.S.S.S.S.X.O % % = ; ; ; ; ; ; ; ; ; ; ; > > . O % % % ; ; ; % O ; Q 4 O % O ; ; ; ; ; ; > % . u / y 8 ) S.S.S.S.S.S.S.S.S.S.S.S.S.S.S.S.S.S.",
"S.S.S.S.S.S.S.S.S.S.S.S.S.S.p.Q ; O O % ; ; ; ; ; ; ; % ; > ; > G J J L B O # . d Y U { R y O O ; ; ; ; ; > 2 % O 2 e @ E S.S.S.S.S.S.S.S.S.S.S.S.S.S.S.S.S.S.S.",
"S.S.S.S.S.S.S.S.S.S.S.S.S.S.S.x.; . O % ; ; ; ; ; ; ; > > > % ; @.=.+.+./ V B v R <.=.{ 0.v . % ; ; ; ; ; 2 2 % O % O O 2.S.S.S.S.S.S.S.S.S.S.S.S.S.S.S.S.S.S.S.",
"S.S.S.S.S.S.S.S.S.S.S.S.S.S.S.h.; O % ; ; ; ; ; ; ; ; 2 2 ; % 8 U U / ~ J R +.<.! F U } ! d O % ; ; ; ; ; > > % O O O . =.S.S.S.S.S.S.S.S.S.S.S.S.S.S.S.S.S.S.S.",
"S.S.S.S.S.S.S.S.S.S.S.S.S.S.x.) ; % ; ; ; ; ; ; ; ; 2 > ; O > z 4 4 D V 2 l R ! S h z W h h d O ; ; % ; ; > % O O O % e 2.S.S.S.S.S.S.S.S.S.S.S.S.S.S.S.S.S.S.S.",
"S.S.S.S.S.S.S.S.S.S.S.S.S.S.^   O % % ; ; ; ; % > 2 > % % % O O @ 8 , % p x.v r ! S.:.y e ) X.. ; ; % ; > > % O % . 4 S.S.S.S.S.S.S.S.S.S.S.S.S.S.S.S.S.S.S.S.S.",
"S.S.S.S.S.S.S.S.S.S.S.S.S.S.^ . O % ; ; ; ; % > 2 > % O O O O O % . K p.q.S.i.q.x.S.x.q.0.S.) . ; ; ; > > % O O % O 4 S.S.S.S.S.S.S.S.S.S.S.S.S.S.S.S.S.S.S.S.S.",
"S.S.S.S.S.S.S.S.S.S.S.S.S.S.^ . % % ; ; ; ; ; % % % % O O O O O .   R S.S.S.S.S.S.S.S.S.S.S.) . ; ; > > ; O O O % . , S.S.S.S.S.S.S.S.S.S.S.S.S.S.S.S.S.S.S.S.S.",
"S.S.S.S.S.S.S.S.S.S.S.S.S.S.^ . ; % ; % % . . O O O O O O % . % D B @.S.S.S.S.S.S.S.S.S.v.S.) . ; ; > > ; O O % O 2 Y S.S.S.S.S.S.S.S.S.S.S.S.S.S.S.S.S.S.S.S.S.",
"S.S.S.S.S.S.S.S.S.S.S.S.S.S.^ . ; ; ; % % e y 2 O O O O O O ; v S.S.S.S.S.S.S.S.S.S.S.S.S.S.^ . ; ; > > ; O O %   z S.S.S.S.S.S.S.S.S.S.S.S.S.S.S.S.S.S.S.S.S.S.",
"S.S.S.S.S.S.S.S.S.S.S.S.S.S.^ . ; ; ; . 4 S.S.K   % O O % . z S.x.S.S.S.S.S.S.S.S.S.S.S.S.S.^ . ; ; > > ; O O % . h S.S.S.S.S.S.S.S.S.S.S.S.S.S.S.S.S.S.S.S.S.S.",
"S.S.S.S.S.S.S.S.S.S.S.S.S.S.^ . ; ; ; O > x.S.G   % O O ; . l S.x.S.S.S.S.S.S.S.S.S.S.S.S.S.) O % ; > > ; O O % . h S.S.S.S.S.S.S.S.S.S.S.S.S.S.S.S.S.S.S.S.S.S.",
"S.S.S.S.S.S.S.S.S.S.S.S.S.S.^   % O   e 2.S.S.p.D . % % ; % ; V S.S.S.S.S.S.S.S.S.S.S.S.S.S.S.@.% % > < ; O O ; . z S.S.S.S.S.S.S.S.S.S.S.S.S.S.S.S.S.S.S.S.S.S.",
"S.S.S.S.S.S.S.S.S.S.S.S.S.S.X.2 M D D G E Y p.S.Q   % ; ; ; O : K G 2.S.S.S.S.S.S.S.S.S.S.S.S.p.% % ; = % O ; % O 4 U K x.S.S.S.S.S.S.S.S.S.S.S.S.S.S.S.S.S.S.S.",
"S.S.S.S.S.S.S.S.S.S.S.S.S.S.@.l +.j.S.@.z z ^ x.X.4 O % % % > d y e Y p.S.S.S.S.S.S.S.S.S.S.S.q.% O e z h h h 2 4 y e y ^ x.S.S.S.S.S.S.S.S.S.S.S.S.S.S.S.S.S.S.",
"S.S.S.S.S.S.S.S.S.S.S.S.S.S.X.d ) 0.0.q.i.=.g E S.p.4 % > : z =.+.=.v D S.S.S.S.S.S.S.S.S.S.S.q.% % Q S.x.x.=.v G :.+.=.d X.S.S.S.S.S.S.S.S.S.S.S.S.S.S.S.S.S.S.",
"S.S.S.S.S.S.S.S.S.S.S.S.S.S.X.d ' +.{ ) ) +.h Q S.S.p.; D +.' { ' +.M G S.S.S.S.S.S.S.S.S.S.S.p.e W =.+.2.p.p.m D +.' X.h X.S.S.S.S.S.S.S.S.S.S.S.S.S.S.S.S.S.S.",
"S.S.S.S.S.S.S.S.S.S.S.S.S.S.x.:.v h l h d d X.x.S.S.S.2.V g l d d p ^ x.S.S.S.S.S.S.S.S.S.S.S.S.q.V g g g h h t y y y d @.S.S.S.S.S.S.S.S.S.S.S.S.S.S.S.S.S.S.S.",
"S.S.S.S.S.S.S.S.S.S.S.S.S.S.S.S.X.)  .) ) ) x.S.S.S.S.S.@.) X.) ) ) p.S.S.S.S.S.S.S.S.S.S.S.S.S.S.@.) ) ) X.) X.) ) ) ) x.S.S.S.S.S.S.S.S.S.S.S.S.S.S.S.S.S.S.S.",
"S.S.S.S.S.S.S.S.S.S.S.S.S.S.S.S.S.S.S.S.S.S.S.S.S.S.S.S.S.S.S.S.S.S.S.S.S.S.S.S.S.S.S.S.S.S.S.S.S.S.S.S.S.S.S.S.S.S.S.S.S.S.S.S.S.S.S.S.S.S.S.S.S.S.S.S.S.S.S.S.",
"S.S.S.S.S.S.S.S.S.S.S.S.S.S.S.S.S.S.S.S.S.S.S.S.S.S.S.S.S.S.S.S.S.S.S.S.S.S.S.S.S.S.S.S.S.S.S.S.S.S.S.S.S.S.S.S.S.S.S.S.S.S.S.S.S.S.S.S.S.S.S.S.S.S.S.S.S.S.S.S.",
"S.S.S.S.S.S.S.S.S.S.S.S.S.S.S.S.S.S.S.S.S.S.S.S.S.S.S.S.S.S.S.S.S.S.S.S.S.S.S.S.S.S.S.S.S.S.S.S.S.S.S.S.S.S.S.S.S.S.S.S.S.S.S.S.S.S.S.S.S.S.S.S.S.S.S.S.S.S.S.S."
};
