/* XPM */
static char *ozzy_still_left[] = {
/* columns rows colors chars-per-pixel */
"80 69 157 2 ",
"   c #030302",
".  c #0C0C0C",
"X  c #100F0F",
"o  c #10110A",
"O  c #151515",
"+  c #181717",
"@  c #181816",
"#  c #171718",
"$  c #181619",
"%  c gray11",
"&  c #201F1F",
"*  c #21211F",
"=  c #1F1F20",
"-  c #201F20",
";  c #222222",
":  c #282926",
">  c #2C2C2C",
",  c #30302F",
"<  c #2F2F31",
"1  c #2F3030",
"2  c #333332",
"3  c #393637",
"4  c #383738",
"5  c gray23",
"6  c #403F3E",
"7  c #494F24",
"8  c #42413E",
"9  c #505732",
"0  c #515831",
"q  c #686E37",
"w  c #63703B",
"e  c #444443",
"r  c #484744",
"t  c #494846",
"y  c #4C4C4A",
"u  c #504F4C",
"i  c #4F504F",
"p  c #51504D",
"a  c #58504D",
"s  c #4F5050",
"d  c #545453",
"f  c #585755",
"g  c #595957",
"h  c #5C5C5B",
"j  c #765D5F",
"k  c #717D40",
"l  c #61615E",
"z  c #636362",
"x  c #696764",
"c  c #676863",
"v  c #6A6966",
"b  c #6C6B6A",
"n  c #716E6A",
"m  c #71716E",
"M  c gray45",
"N  c #797472",
"B  c #7A7976",
"V  c #7B7B7A",
"C  c #807F7D",
"Z  c #B17D81",
"A  c #858483",
"S  c #888682",
"D  c #878885",
"F  c #8C8A86",
"G  c #888788",
"H  c #8D8D8B",
"J  c #92928E",
"K  c #949493",
"L  c #989794",
"P  c #979892",
"I  c #9B9A95",
"U  c #98979B",
"Y  c #9C9B9A",
"T  c #B89291",
"R  c #A2A29D",
"E  c #A4A4A3",
"W  c #AAA9A5",
"Q  c gray67",
"!  c #B4B2AD",
"~  c #B8B6AD",
"^  c #B4B4B4",
"/  c #BCBBB6",
"(  c gray",
")  c #BCBCBC",
"_  c #BCBCBC",
"`  c #D8A6A5",
"'  c #C0BEB9",
"]  c #E3B9B8",
"[  c #C2C4B2",
"{  c #C5C3BC",
"}  c #CDC2BF",
"|  c #D1D4B6",
" . c #C0BFC0",
".. c #C1C1C1",
"X. c gray76",
"o. c #C3C3C2",
"O. c #C8C7C3",
"+. c #CBCAC4",
"@. c gray81",
"#. c gray80",
"$. c #CDCDCB",
"%. c #D1CEC7",
"&. c #D3CFCA",
"*. c #D3D2CC",
"=. c #D8D5CC",
"-. c #DDD9CD",
";. c #D0D0D0",
":. c gray84",
">. c #D5D5D3",
",. c #D8D7D2",
"<. c #DDDBD3",
"1. c gray85",
"2. c #DADADA",
"3. c gray86",
"4. c #DCDCD9",
"5. c #DDDDDD",
"6. c #DDDDDB",
"7. c #E1DFD8",
"8. c #E0E1D7",
"9. c #E3E3DD",
"0. c #E8E7DF",
"q. c #E1E1E1",
"w. c gray89",
"e. c #E2E2E2",
"r. c gray90",
"t. c #E7E7E7",
"y. c #E5E5E3",
"u. c #E8E7E2",
"i. c #EBE9E4",
"p. c #E9E9E9",
"a. c #ECECEC",
"s. c gray92",
"d. c #F6E6E1",
"f. c #F6ECE7",
"g. c #EEF0EF",
"h. c #EFF0EF",
"j. c #F3F2EC",
"k. c gray94",
"l. c #F3F3F3",
"z. c #F4F4F4",
"x. c gray97",
"c. c #F5F5F4",
"v. c #F9F9F6",
"b. c #F7F8F8",
"n. c #F8F8F8",
"m. c #F9F9F9",
"M. c gray98",
"N. c #FBFBFB",
"B. c gray99",
"V. c #FDFDFD",
"C. c #FEFEFD",
"Z. c #FDFEFE",
"A. c #FDFFFE",
"S. c magenta",
"D. c white",
"F. c #FEFDFC",
"G. c #FEFEFE",
/* pixels */
"S.S.S.S.S.S.S.S.S.S.S.S.S.S.S.S.S.S.S.S.S.S.S.S.S.S.S.S.S.S.S.S.S.S.S.S.S.S.S.S.S.S.S.S.S.S.S.S.S.S.S.S.S.S.S.S.S.S.S.S.S.S.S.S.S.S.S.S.S.S.S.S.S.S.S.S.S.S.S.S.",
"S.S.S.S.S.S.S.S.S.S.S.S.S.S.S.S.S.S.S.S.S.S.S.S.S.S.S.S.S.S.S.S.S.S.S.S.S.S.S.S.S.S.S.S.S.S.S.S.S.S.S.S.S.S.S.S.S.S.S.S.S.S.S.S.S.S.S.S.S.S.S.S.S.S.S.S.S.S.S.S.",
"S.S.S.S.S.S.S.S.S.S.S.S.S.S.S.S.S.S.S.S.S.S.S.S.S.S.S.S.S.S.S.S.S.S.S.S.S.S.S.S.S.S.S.S.S.S.S.S.S.S.S.S.S.S.S.S.S.S.S.S.S.S.S.S.S.S.S.S.S.S.S.S.S.S.S.S.S.S.S.S.",
"S.S.S.S.S.S.S.S.S.S.S.S.S.S.S.S.S.S.S.S.S.S.S.S.S.S.S.S.S.S.S.S.S.S.S.S.S.S.S.S.S.S.S.S.S.S.S.S.S.S.S.S.S.S.S.S.S.S.S.S.S.S.S.S.S.S.S.S.S.S.S.S.S.S.S.S.S.S.S.S.",
"S.S.S.S.S.S.S.S.S.S.S.S.S.S.S.S.S.S.S.S.S.S.S.S.S.S.S.S.S.S.S.S.S.S.S.S.S.S.S.S.S.S.S.S.S.S.S.S.S.S.S.S.S.S.S.S.S.S.S.S.S.S.S.S.S.q.:.2.2.2.S.S.S.S.S.S.S.S.S.S.",
"S.S.S.S.S.S.S.S.S.S.S.S.S.S.S.S.S.S.S.S.S.S.S.S.S.S.S.S.S.S.S.S.S.S.S.S.S.S.S.S.S.S.S.S.S.S.S.S.S.S.S.S.S.S.S.S.S.S.S.S.S.S.S.S.S.y . ; % ; q.S.S.S.S.S.S.S.S.S.",
"S.S.S.S.S.S.S.S.S.S.S.S.S.S.S.S.S.S.S.S.S.S.S.S.S.S.S.S.S.S.S.S.S.S.S.S.S.S.S.S.S.S.S.S.S.S.S.S.S.S.S.S.S.S.S.S.S.S.S.S.S.S.S.p.y ; 2 d y 2 4 > Q S.S.S.S.S.S.S.",
"S.S.S.S.S.S.S.S.S.S.S.S.S.S.S.S.S.S.S.S.S.S.S.S.S.S.S.S.S.S.S.S.S.S.S.S.S.S.S.S.S.S.S.S.S.S.S.S.S.S.S.S.S.S.S.S.S.S.S.S.S.S.S.p.; > y z z h >   K S.S.S.S.S.S.S.",
"S.S.S.S.S.S.S.S.S.S.S.S.S.S.S.S.S.S.S.S.S.S.S.S.S.S.S.S.S.S.S.S.S.S.S.S.S.S.S.S.S.S.S.S.S.S.S.S.S.S.S.S.S.S.S.S.S.S.S.S.S.S.2.e 2 d h h h y 4 = ; G S.S.S.S.S.S.",
"S.S.S.S.S.S.S.S.S.S.) q.S.q.X.X.x.S.S.S.S.S.S.S.S.S.S.S.S.S.S.S.S.S.S.S.S.S.S.S.S.S.S.S.S.S.S.S.S.S.S.S.S.S.S.S.S.S.S.S.S.S.@.. 2 h z h h 2 2 >   h S.S.S.S.S.S.",
"S.S.S.S.S.S.S.S.S.S.; d p.)   . Q x.S.S.S.S.S.S.S.S.S.S.S.S.S.S.S.S.S.S.S.S.S.S.S.S.S.S.S.S.S.S.S.S.S.S.S.S.S.S.S.S.S.S.S.S.@.O 2 g z h y 4 4 > O z S.S.S.S.S.S.",
"S.S.S.S.S.S.S.S.S.S.4   v Q O > . D S.S.S.S.S.S.S.S.S.S.S.S.S.S.S.S.S.S.S.S.S.S.S.S.S.S.S.S.S.S.S.S.S.S.S.S.S.S.S.S.S.S.S.S.@.O 2 h v h 2 3 4 1 O h p.x.S.S.S.S.",
"S.S.S.S.S.S.S.S.S.S.4 . % % > e % M x.S.S.S.S.S.S.S.S.S.S.S.S.S.S.S.S.S.S.S.S.S.S.S.S.S.S.S.S.S.S.S.S.S.S.S.S.S.S.S.S.S.S.S.:.O ; y y e 4 2 > ; ; ; ; q.S.S.S.S.",
"S.S.S.S.S.S.S.S.S.S.4 . O % 2 d e O h S.x.S.S.S.S.S.S.S.S.S.S.S.S.S.S.S.S.S.S.S.S.S.S.S.S.S.S.S.S.S.S.S.S.S.S.S.S.S.S.S.S.S.@.  . > e e 1 ; ; ; ; % % q.S.S.S.S.",
"S.S.S.S.S.S.S.S.S.S.4 . O % 4 v d O z S.S.S.S.S.S.S.S.S.S.S.S.S.S.S.S.S.S.S.S.S.S.S.S.S.S.S.S.S.S.S.S.S.S.S.S.S.S.S.S.S.S.S.p.E ^ e ; 2 2 ; ; ; > ; ; q.S.S.S.S.",
"S.S.S.S.S.S.S.S.S.V % . O > y d h > 2 M M z 2.S.x.S.S.S.S.S.S.S.S.S.S.S.S.S.S.S.S.S.S.S.S.S.S.S.S.S.S.S.S.S.S.S.S.S.S.S.S.S.S.S.S.e   ; > ; ; ; > ; ; x.S.S.S.S.",
"S.S.S.S.S.S.S.x.Q O > ; % 2 d y h 2 O . .   M q.S.S.S.S.S.S.S.S.S.S.S.S.S.S.S.S.S.S.S.S.S.S.S.S.S.S.S.S.S.S.S.S.S.S.S.S.S.S.S.S.S.V ; O ; ; ; ; > ; ; Y E q.S.S.",
"S.S.S.S.S.S.x.G   , v t ; > 4 u d 2 ; % > >   l 2.S.S.S.S.S.S.S.S.S.S.S.S.S.S.S.S.S.S.S.S.S.S.S.S.S.S.S.S.S.S.S.S.S.S.S.S.S.S.S.S.S.V . ; ; ; > > > ; O   ) S.S.",
"S.S.S.S.S.S.K # : y e % ; ; ; - 4 2 % O % > ; . 4 S.S.S.S.S.S.S.S.S.S.S.S.S.S.S.S.S.S.S.S.S.S.S.S.S.S.S.S.S.S.S.S.S.S.S.S.S.S.S.S.S.v   > ; ; > > > ; ; O X.S.S.",
"S.S.S.S.S.G K Y # 4 > ; ; ; ; ; > ; ; % % > > ; % d x.S.S.S.S.S.S.S.S.S.S.S.S.S.S.S.S.S.S.S.S.S.S.S.S.S.S.S.S.S.S.S.S.S.S.S.S.S.S.S.:.M O ; % > > ; ; ; . X.S.S.",
"S.S.S.S.S.V L ^ . ; ; ; ; ; ; ; ; ; ; ; % ; ; ; O > S.S.S.S.S.S.S.S.S.S.S.S.S.S.S.S.S.S.S.S.S.S.S.S.S.S.S.S.S.S.S.S.S.S.S.S.S.S.S.S.S.X.. ; % ; ; ; ; ; . ) S.S.",
"S.S.S.S.S.V K Q o * ; ; ; ; ; ; ; ; ; ; % # % ; ; ; v v X.S.S.S.S.S.S.S.S.S.S.S.S.S.S.S.S.S.S.S.S.S.S.S.S.S.S.S.S.S.S.S.S.S.S.S.S.S.S.^ . % ; ; ; ; ; ; . ) S.S.",
"S.S.S.S.S.V G [ 7 9 w O % ; ; ; ; ; ; ; ; % % % % % .   K S.x.S.S.S.S.S.S.S.S.S.S.S.S.S.S.S.S.S.S.S.S.S.S.S.S.S.S.S.S.S.S.S.S.S.S.S.S.^ . % % > 2 > ; ;   ) S.S.",
"S.S.S.S.b.D U | q 0 k % ; : 2 , > 2 ; ; ; ; O O % % % . G S.S.S.S.S.S.S.S.S.S.S.S.S.S.S.S.S.S.S.S.S.S.S.S.S.S.S.S.S.S.S.S.S.S.S.S.S.S.^ . ; % > 2 > ; ; % X.S.S.",
"S.S.S.S.B / S.W : : * % % ; > > > > ; % O # O % % % % O . M S.S.S.S.S.S.S.S.S.S.S.S.S.S.S.S.S.S.S.S.S.S.S.S.S.S.S.S.S.S.S.S.S.S.S.S.S.) . ; % > 2 > % ; 2.S.S.S.",
"S.S.x.N T ` d.E $ d y y y y e ; ; ; % % % O O % % % % % O ; y h p.S.S.S.S.S.S.S.S.S.S.S.S.S.S.S.S.S.S.S.S.S.S.S.S.S.S.S.S.S.S.S.S.S.E 4 O ; % > 2 > % : x.S.S.S.",
"S.S.p.a Z ] f.2.K , 2 2 4 4 2 ; ; ; % % % % O % % ; ; ; % O   O p.S.S.S.S.S.S.S.S.S.V M M M M M M M M M V V V v X.S.S.S.S.S.S.S.x.S.V   ; % ; ; ; > % O p.S.S.S.",
"S.S.x.Y j { j.j.0.p 2 e 4 O # % % ; % O O % % % % ; ; ; ; ; % % E ^ ^ ^ ^ ^ ^ ^ ^ E O . . . . . . . . . . . .   K S.S.S.S.S.S.S.S.@.d O > ; ; ; ; ; ; M x.S.S.S.",
"S.S.S.S.G U { -.=.%.v 4 4 e ; % O % % O O O % ; % ; ; ; ; ; ; % . . . . . . . . . O ; 2 2 2 2 2 2 2 2 2 ; ; ; O V :.X.S.S.S.x.@.:.2 . ; > > ; ; ; O > S.S.S.S.S.",
"S.S.S.S.S.C V { ~ ~ =.h * > e ; O O O O O ; ; * ; ; ; ; > > ; ; ; ; ; ; > > 2 2 2 2 2 > > > > > > > > > : ; ; % O . O :.x.S.X.. . O ; ; ; ; ; ; % O > p.S.S.S.S.",
"S.S.S.S.S.S.W r d g d U { / E O . . . . . % ; ; ; ; % > > > > > > 2 > ; > > > 2 2 > ; ; ; ; ; ; ; ; ; > > > > > ; % O > > > > O O % > > ; ; ; ; %   % p.S.S.S.S.",
"S.S.S.S.S.S.p.@.@.@.:.G F %.' K K K J K E 8 ; ; ; ; > > 2 > 2 > > 2 > > ; ; > 2 > % % ; ; ; ; ; ; ; ; ; ; ; > 2 > ; % . O % % ; % > > > ; ; ; O V @.X.S.S.S.S.S.",
"S.S.S.S.S.S.S.S.S.S.S.G v +.{ =.%.%.=.0.j.) y % ; > > 2 > ; ; > > > 2 > ; ; ; ; ; % ; ; ; ; ; ; ; ; ; ; ; ; ; > > ; ; % % % ; ; * ; ; ; ; ; O   Y S.S.S.S.S.S.S.",
"S.S.S.S.S.S.S.S.S.S.S.G M @.{ { =.=.<.i.0.S.z O : 2 > 2 ; % % ; > > > > ; ; ; % ; ; ; ; ; ; ; ; ; ; ; ; ; ; ; ; ; ; ; ; O % ; ; ; ; ; % . O z z ) S.S.S.S.S.S.S.",
"S.S.S.S.S.S.S.S.S.S.x.G C +.{ +.0.j.i.i.8.+.d O ; 2 > > ; * ; ; ; ; * ; ; ; ; ; ; ; ; ; ; ; ; ; ; ; ; ; ; ; ; ; ; ; % ; % % ; ; ; ; % ; 2 e b.S.S.S.S.S.S.S.S.S.",
"S.S.S.S.S.S.S.S.S.S.M G +.{ O.0.i.i.i.0.! > % ; ; > > ; ; ; ; ; ; ; ; ; ; ; ; ; ; ; ; ; ; ; ; ; ; ; ; ; ; ; ; ; ; ; ; ; ; % O % % % . h S.S.S.S.S.S.S.S.S.S.S.S.",
"S.S.S.S.S.S.S.S.S.S.M K ,.+.+.q.i.q.j.{ > > > : ; 2 2 ; ; ; ; ; ; ; ; ; ; ; ; ; ; ; % ; ; ; ; ; ; ; ; ; ; ; ; ; ; ; > > ; ; % O .   D x.S.S.S.S.S.S.S.S.S.S.S.S.",
"S.S.S.S.S.S.S.S.S.S.M d v G =.0.i.q.v.=.% > 2 > ; ; ; ; ; ; ; ; ; ; ; ; ; ; ; ; ; ; ; > > > ; ; ; ; ; ; ; ; ; ; ; ; > 2 ; ; % % ^ ^ 2.S.S.S.S.S.S.S.S.S.S.S.S.S.",
"S.S.S.S.S.S.S.S.S.S.) Q V v =.i.i.0.X.V ; > 2 > ; ; ; ; ; ; ; ; ; ; ; ; ; ; ; ; ; ; > > > > ; ; ; ; ; ; ; ; ; ; > > ; > > ; % % K x.S.S.S.S.S.S.S.S.S.S.S.S.S.S.",
"S.S.S.S.S.S.S.S.S.S.S.S.^ c :.0.i.2.D . ; > 2 > ; ; ; ; ; ; ; ; ; ; ; ; ; ; ; ; ; > > > ; ; ; ; * ; ; ; ; ; ; > 2 2 ; > > ; % %   ^ S.S.S.S.S.S.S.S.S.S.S.S.S.S.",
"S.S.S.S.S.S.S.S.S.S.S.S.^ m X.{ 7.0.J % ; > 2 > ; ; ; ; ; ; ; ; ; ; ; ; ; ; ; > 2 > > ; % ; ; * * * ; ; ; ; ; % ; > > > > ; ; ; O X.S.S.S.S.S.S.S.S.S.S.S.S.S.S.",
"S.S.S.S.S.S.S.S.S.S.S.S.S.X.h / { +.G % ; ; > > ; ; ; ; ; ; ; ; ; ; ; ; ; ; ; > 2 > ; ; ; ; ; ; * * ; ; ; ; ; ; ; ; > > ; % ; ; . @.S.S.S.S.S.S.S.S.S.S.S.S.S.S.",
"S.S.S.S.S.S.S.S.S.S.S.S.S.@.h { { +.D . ; ; ; ; ; ; ; ; ; ; % % ; ; ; > > > > > 2 > > ; ; ; ; ; * * * ; ; ; ; ; ; ; > > > ; ; % % % E S.S.S.S.S.S.S.S.S.S.S.S.S.",
"S.S.S.S.S.S.S.S.S.S.S.S.S.@.e v ! =.! x . ; ; ; ; ; ; ; ; ; % O ; ; ; > ; ; > 2 > ; ; ; ; ; ; ; ; ; * * ; ; ; ; ; ; ; > > ; ; ; O z :.S.S.S.S.S.S.S.S.S.S.S.S.S.",
"S.S.S.S.S.S.S.S.S.S.S.S.S.2.G G F F W / d % % ; ; ; ; ; ; ; % % % % ; ; ; ; ; > ; % % ; ; % % ; ; ; ; ; ; ; ; ; ; ; ; > > ; ; ;   @.S.S.S.S.S.S.S.S.S.S.S.S.S.S.",
"S.S.S.S.S.S.S.S.S.S.S.S.S.S.S.S.G y n &.@.y ; & ; ; ; ; ; ; ; ; O % ; * % ; ; ; ; ; ; ; ; % O % ; ; ; ; ; ; ; ; ; ; ; > ; ; % ; 4 @.S.S.S.S.S.S.S.S.S.S.S.S.S.S.",
"S.S.S.S.S.S.S.S.S.S.S.S.S.S.S.x.S.W m { ! +.t X ; ; ; ; ; ; ; ; O % ; ; > ; ; ; ; ; ; ; ; ; % % > 2 ; % ; ; ; ; ; ; ; ; ; ; % ; q.S.S.S.S.S.S.S.S.S.S.S.S.S.S.S.",
"S.S.S.S.S.S.S.S.S.S.S.S.S.S.S.S.S.S.) 8 y / u . % > ; ; ; ; ; ; O % O 4 Q ; O % ; ; ; % % % O . > > ; ; ; ; ; ; ; ; ; ; ; = % % O X.S.S.S.S.S.S.S.S.S.S.S.S.S.S.",
"S.S.S.S.S.S.S.S.S.S.S.S.S.S.S.S.S.S.S.E @ e 2 O % 2 > ; ; ; ; ; O O y R { U Y d . # O B L J J G > ; > ; % ; ; ; ; ; ; ; % O O ; Q p.S.S.S.S.S.S.S.S.S.S.S.S.S.S.",
"S.S.S.S.S.S.S.S.S.S.S.S.S.S.S.S.S.S.S.2.O O % O % 2 2 ; ; ; ; ; % . v 0.{ =.<.R v B V / +.+.=.@.; % > > > ; ; ; ; ; ; ; % O . ; x.S.S.S.S.S.S.S.S.S.S.S.S.S.S.S.",
"S.S.S.S.S.S.S.S.S.S.S.S.S.S.S.S.S.S.S.=.. O O O % > > ; ; ; ; ; % O d ! } U F ! <.+.R J ~ / U U 8 % ; 2 2 ; ; ; ; ; ; ; ; % O ; h.S.S.S.S.S.S.S.S.S.S.S.S.S.S.S.",
"S.S.S.S.S.S.S.S.S.S.S.S.S.S.S.S.S.S.S.2.e % O O O % > ; ; % ; ; O d h h W z h S ! R l 2 V D 4 4 z > O ; > 2 ; ; ; ; ; ; ; ; % ; ) x.S.S.S.S.S.S.S.S.S.S.S.S.S.S.",
"S.S.S.S.S.S.S.S.S.S.S.S.S.S.S.S.S.S.S.S.S.4 . % O % > > ; % ; ; . X.) e y :.S.! r v x.p % , 8 @ O O % % % > 2 > % ; ; ; ; % % O   ^ S.S.S.S.S.S.S.S.S.S.S.S.S.S.",
"S.S.S.S.S.S.S.S.S.S.S.S.S.S.S.S.S.S.S.S.S.4 O % O O % > > ; ; ; . ) S.0.q.x.S.x.q.i.S.q.p.K . % O O O O O % > 2 > % ; ; ; ; % O . ^ S.S.S.S.S.S.S.S.S.S.S.S.S.S.",
"S.S.S.S.S.S.S.S.S.S.S.S.S.S.S.S.S.S.S.S.S., . % O O O ; > > ; ; . ) S.S.S.S.S.S.S.S.S.S.S.R   . O O O O O % % % % ; ; ; ; ; % % . ^ S.S.S.S.S.S.S.S.S.S.S.S.S.S.",
"S.S.S.S.S.S.S.S.S.S.S.S.S.S.S.S.S.S.S.S.S.Y 2 O % O O ; > > ; ; . ) S.v.S.S.S.S.S.S.S.S.S.@.B D % . % O O O O O O . . % % ; % ; . ^ S.S.S.S.S.S.S.S.S.S.S.S.S.S.",
"S.S.S.S.S.S.S.S.S.S.S.S.S.S.S.S.S.S.S.S.S.S.z   % O O ; > > ; ; . ^ S.S.S.S.S.S.S.S.S.S.S.S.S.S.v ; O O O O O O 2 y e % % ; ; ; . ^ S.S.S.S.S.S.S.S.S.S.S.S.S.S.",
"S.S.S.S.S.S.S.S.S.S.S.S.S.S.S.S.S.S.S.S.S.S.h . % O O ; > > ; ; . ^ S.S.S.S.S.S.S.S.S.S.S.S.S.x.S.z . % O O %   K S.S.4 . ; ; ; . ^ S.S.S.S.S.S.S.S.S.S.S.S.S.S.",
"S.S.S.S.S.S.S.S.S.S.S.S.S.S.S.S.S.S.S.S.S.S.h . % O O ; > > ; % O ) S.S.S.S.S.S.S.S.S.S.S.S.S.x.S.l . ; O O %   G S.x.> O ; ; ; . ^ S.S.S.S.S.S.S.S.S.S.S.S.S.S.",
"S.S.S.S.S.S.S.S.S.S.S.S.S.S.S.S.S.S.S.S.S.S.z . ; O O ; < > % % @.S.S.S.S.S.S.S.S.S.S.S.S.S.S.S.V ; % ; % % . D p.S.S.2.e   O %   ^ S.S.S.S.S.S.S.S.S.S.S.S.S.S.",
"S.S.S.S.S.S.S.S.S.S.S.S.S.S.S.S.S.S.S.x.K U 4 O % ; O % = ; % % p.S.S.S.S.S.S.S.S.S.S.S.S.2.G K : O ; ; ; %   Q S.p.Y E G D D M 2 X.S.S.S.S.S.S.S.S.S.S.S.S.S.S.",
"S.S.S.S.S.S.S.S.S.S.S.S.S.S.S.S.S.S.x.^ y e y 4 2 h h h z e O % q.S.S.S.S.S.S.S.S.S.S.S.p.Y e y d > % % % O 4 X.x.^ z z @.S.j.+.l @.S.S.S.S.S.S.S.S.S.S.S.S.S.S.",
"S.S.S.S.S.S.S.S.S.S.S.S.S.S.S.S.S.S.X.d =.+.:.G v =.x.x.S.Q % % q.S.S.S.S.S.S.S.S.S.S.S.D v =.+.=.z : > % 4 p.S.E g =.i.q.0.0.) d X.S.S.S.S.S.S.S.S.S.S.S.S.S.S.",
"S.S.S.S.S.S.S.S.S.S.S.S.S.S.S.S.S.S.X.h X.' +.D m p.p.2.+.=.W e p.S.S.S.S.S.S.S.S.S.S.S.G M +.' { ' +.D ; p.S.S.Q h +.) ) { +.' d X.S.S.S.S.S.S.S.S.S.S.S.S.S.S.",
"S.S.S.S.S.S.S.S.S.S.S.S.S.S.S.S.S.S.S.@.d y y y t h h g g g V q.S.S.S.S.S.S.S.S.S.S.S.S.x.^ p d d l g V 2.S.S.S.x.X.d d h l h v :.x.S.S.S.S.S.S.S.S.S.S.S.S.S.S.",
"S.S.S.S.S.S.S.S.S.S.S.S.S.S.S.S.S.S.S.x.) ) ) ) X.) X.) ) ) @.S.S.S.S.S.S.S.S.S.S.S.S.S.S.p.) ) ) X.) @.S.S.S.S.S.x.) ) )  .) X.S.S.S.S.S.S.S.S.S.S.S.S.S.S.S.S.",
"S.S.S.S.S.S.S.S.S.S.S.S.S.S.S.S.S.S.S.S.S.S.S.S.S.S.S.S.S.S.S.S.S.S.S.S.S.S.S.S.S.S.S.S.S.S.S.S.S.S.S.S.S.S.S.S.S.S.S.S.S.S.S.S.S.S.S.S.S.S.S.S.S.S.S.S.S.S.S.S.",
"S.S.S.S.S.S.S.S.S.S.S.S.S.S.S.S.S.S.S.S.S.S.S.S.S.S.S.S.S.S.S.S.S.S.S.S.S.S.S.S.S.S.S.S.S.S.S.S.S.S.S.S.S.S.S.S.S.S.S.S.S.S.S.S.S.S.S.S.S.S.S.S.S.S.S.S.S.S.S.S.",
"S.S.S.S.S.S.S.S.S.S.S.S.S.S.S.S.S.S.S.S.S.S.S.S.S.S.S.S.S.S.S.S.S.S.S.S.S.S.S.S.S.S.S.S.S.S.S.S.S.S.S.S.S.S.S.S.S.S.S.S.S.S.S.S.S.S.S.S.S.S.S.S.S.S.S.S.S.S.S.S."
};
