/* XPM */
static char *ozzy_frente[] = {
/* columns rows colors chars-per-pixel */
"50 80 163 2 ",
"   c #030303",
".  c #070807",
"X  c #080807",
"o  c #070708",
"O  c #070808",
"+  c #0B0B0B",
"@  c #10110F",
"#  c #0F0F11",
"$  c #0F1010",
"%  c #141414",
"&  c #181717",
"*  c #181816",
"=  c #171718",
"-  c #181718",
";  c #1C1C1C",
":  c #1F201F",
">  c #20201F",
",  c #1F1F21",
"<  c #1F2020",
"1  c #232323",
"2  c #282727",
"3  c #282826",
"4  c #2B2B2B",
"5  c #302F2F",
"6  c #31312F",
"7  c #3D3F2B",
"8  c #302F30",
"9  c #333333",
"0  c #383736",
"q  c #393937",
"w  c #3C3B3B",
"e  c #474731",
"r  c #41413E",
"t  c #4F5234",
"y  c #5A5A38",
"u  c #61623C",
"i  c #6B713E",
"p  c #444443",
"a  c #484845",
"s  c #4C4C4B",
"d  c #51514E",
"f  c #535353",
"g  c #595956",
"h  c #5C5C5B",
"j  c #605E5A",
"k  c #737545",
"l  c #7B7B45",
"z  c #62615E",
"x  c #656564",
"c  c #6A6A66",
"v  c #6D6D6C",
"b  c #706F6F",
"n  c #72716E",
"m  c #737372",
"M  c #787674",
"N  c #777877",
"B  c #797974",
"V  c #7C7B7A",
"C  c #807F7C",
"Z  c #B67F79",
"A  c #7B8046",
"S  c #82817E",
"D  c #848483",
"F  c #8A8A85",
"G  c #8B8B8A",
"H  c #908E89",
"J  c #93928E",
"K  c #949493",
"L  c #989790",
"P  c #9C9A94",
"I  c #9E9D9B",
"U  c #B68181",
"Y  c #BC918F",
"T  c #A09F9D",
"R  c #A4A39D",
"E  c #A9A89F",
"W  c #A3A3A3",
"Q  c #A8A7A4",
"!  c #ACABA4",
"~  c #ACACAB",
"^  c #B0AEA5",
"/  c #B0AEA8",
"(  c #B4B3AC",
")  c #B8B6AE",
"_  c #B5B5B5",
"`  c #B9B7B0",
"'  c #BDBCB5",
"]  c #BEBEBE",
"[  c #DB9A9D",
"{  c #C6B5AD",
"}  c #C0BEB7",
"|  c #C5C4BC",
" . c #C8C6BE",
".. c #C3C3C2",
"X. c #C9C7C0",
"o. c #CBCAC2",
"O. c #CCCCCB",
"+. c #D0CEC6",
"@. c #D4D2CB",
"#. c #D8D6CE",
"$. c #D6D6D5",
"%. c #D8D6D0",
"&. c #DCDBD4",
"*. c #DADADA",
"=. c #E5D2D1",
"-. c #EED7D7",
";. c #E0DED6",
":. c #E0DFD9",
">. c #E1E0D7",
",. c #E4E3DD",
"<. c #E8E7DF",
"1. c #F1E0DE",
"2. c #E1E1E1",
"3. c #E5E5E4",
"4. c #E6E6E5",
"5. c #E4E4E1",
"6. c #EFE5E0",
"7. c #E9E7E3",
"8. c #E7E8E2",
"9. c #E9EAE4",
"0. c #EBECE6",
"q. c #EBEAE5",
"w. c #E9E9E9",
"e. c #EFEFE8",
"r. c #ECECEB",
"t. c #ECECEA",
"y. c #F1EEE6",
"u. c #F0EFE9",
"i. c #F0F2EA",
"p. c #F5F3ED",
"a. c #F2F1EB",
"s. c #F8F6EE",
"d. c #F7F8EF",
"f. c #F2F2F1",
"g. c #F6F6F5",
"h. c #F7F7F5",
"j. c #F7F7F6",
"k. c #F6F6F6",
"l. c #F5F5F4",
"z. c #F3F3F3",
"x. c #F8F7F1",
"c. c #F8F8F6",
"v. c #FDFBF4",
"b. c #FBFAF4",
"n. c #F9F9F8",
"m. c #FAFAF9",
"M. c #FBFBFA",
"N. c #FAFAFA",
"B. c #FCFBFB",
"V. c #FCFCFB",
"C. c #FCFCFC",
"Z. c #FDFDFC",
"A. c #FDFDFD",
"S. c #FEFEFD",
"D. c #FFFFFD",
"F. c #FDFDFE",
"G. c #FEFEFE",
"H. c #FEFFFE",
"J. c #FFFFFE",
"K. c #FEFFFF",
"L. c #FF00FF",
"P. c #FEFEFF",
"I. c #FEFEFE",
/* pixels */
"9.L.L.L.L.L.L.L.L.L.L.L.L.L.L.L.L.L.L.L.L.L.L.L.L.L.L.L.L.L.L.L.L.L.L.L.L.L.L.L.L.L.L.L.L.L.L.L.L.L.",
"L.L.L.L.L.L.L.L.L.L.L.L.L.L.L.L.L.L.L.L.L.L.L.L.L.L.L.L.L.L.L.L.L.L.L.L.L.L.L.L.L.L.L.L.L.L.L.L.L.L.",
"L.L.L.L.L.L.L.L.L.L.L.L.L.L.L.L.L.L.L.L.L.L.L.L.L.L.L.L.L.L.L.L.L.L.L.L.L.L.L.L.L.L.L.L.L.L.L.L.L.L.",
"L.L.L.L.L.L.L.L.L.L.L.L.L.L.L.L.L.L.L.L.L.L.L.L.L.L.L.L.L.L.L.L.L.L.L.L.L.L.L.L.L.L.L.L.L.L.L.L.L.L.",
"L.L.L.L.L.L.L.L.L.L.L.L.L.L.L.L.L.L.L.L.L.L.L.L.L.L.L.L.L.L.L.L.L.L.L.L.L.L.L.L.L.L.L.L.L.L.L.L.L.L.",
"L.L.L.L.L.L.L.L.L.L.L.L.L.L.L.L.L.L.L.L.L.L.L.L.L.L.L.L.L.L.L.L.L.L.L.L.L.L.L.L.L.L.L.L.L.L.L.L.L.L.",
"L.L.L.L.L.L.L.L.L.L.L.L.L.L.L.L.L.L.L.L.L.L.L.L.L.L.L.L.L.L.L.L.L.L.L.L.L.L.L.L.L.L.L.L.L.L.L.L.L.L.",
"L.L.L.L.L.L.L.L.L.L.L.L.L.L.L.L.L.L.L.L.L.L.L.L.L.L.L.L.L.L.L.L.L.L.L.L.L.L.L.L.L.L.L.L.L.L.L.L.L.L.",
"L.L.L.L.L.L.L.L.L.L.L.L.L.L.x 0 0 D L.L.L.L.L.L.L.L.L.L.L.L.L.I 2 w f l.L.L.L.L.L.L.L.L.L.L.L.L.L.L.",
"L.L.L.L.L.L.L.L.L.L.L.L.L.L.w .   f *.w.L.L.L.L.L.L.L.L.L.w.2.v   + 1 l.L.L.L.L.L.L.L.L.L.L.L.L.L.L.",
"L.L.L.L.L.L.L.L.L.L.L.L.L.L.a 1 2 ;   ~ L.L.L.L.L.L.L.L.L.O.  ; 2 2 0 l.L.L.L.L.L.L.L.L.L.L.L.L.L.L.",
"L.L.L.L.L.L.L.L.L.L.L.L.L.L.a 1 f w @ v W w.L.L.L.L.L.l.~ m & 0 f 2 2 l.L.L.L.L.L.L.L.L.L.L.L.L.L.L.",
"L.L.L.L.L.L.L.L.L.L.L.L.L.L.a 2 D h ; +   2.L.L.L.L.L.L.; + ; f G w 2 v.L.L.L.L.L.L.L.L.L.L.L.L.L.L.",
"L.L.L.L.L.L.L.L.L.L.L.L.L.L.a 1 h h h 0 ; f h h h h h f 1 0 h h z 0 2 v.L.L.L.L.L.L.L.L.L.L.L.L.L.L.",
"L.L.L.L.L.L.L.L.L.L.L.L.L.L.a 1 x x v w ; & + & & & + + ; 0 m v v 0 0 v.L.L.L.L.L.L.L.L.L.L.L.L.L.L.",
"L.L.L.L.L.L.L.L.L.L.L.L.L.L.w + f a < 1 1 f 1 1 1 1 1 f 2 w ; w h ; 1 l.L.L.L.L.L.L.L.L.L.L.L.L.L.L.",
"L.L.L.L.L.L.L.L.L.L.L.L.L.L.m ; w 0 1 1 1 f 1 1 1 ; ; f s 0 ; 0 a 1 x v.L.L.L.L.L.L.L.L.L.L.L.L.L.L.",
"L.L.L.L.L.L.L.L.L.L.L.L.L.L.L.a & 1 0 1 1 f ; 1 ; ; ; h s 3 2 1 & 0 L.L.L.L.L.L.L.L.L.L.L.L.L.L.L.L.",
"L.L.L.L.L.L.L.L.L.L.L.L.L.L.G 1 2 2 1 1 1 0 ; 1 2 1 ; w 2 1 1 2 2 1 N v.L.L.L.L.L.L.L.L.L.L.L.L.L.L.",
"L.L.L.L.L.L.L.L.L.L.L.L.L.L.0 + 0 2 ; ; ; - - w o.a ; ; ; ; ; 2 0 & ; l.L.L.L.L.L.L.L.L.L.L.L.L.L.L.",
"L.L.L.L.L.L.L.L.L.L.L.L.K 2 0 2 1 1 # u 6 y * D L.G & y 7 i & 1 1 1 a L.L.L.L.L.L.L.L.L.L.L.L.L.L.L.",
"L.L.L.L.L.L.L.L.L.L.L.L.N   6 0 1 1 ; k e l 2 T v.! > k t A , 1 1 2 a O.2.L.L.L.L.L.L.L.L.L.L.L.L.L.",
"L.L.L.L.L.L.L.L.L.L.L.L.J & 0 0 ; 1 0 0 0 @ q 9.9.i.s + 0 0 0 2 ; 1 1 + x L.L.L.L.L.L.L.L.L.L.L.L.L.",
"L.L.L.L.L.L.L.L.L.L.2.W f + 2 1 ; 1 2 2 2 x G -.=.1.I v 0 1 1 ; ; 1 1 & a W $.L.L.L.L.L.L.L.L.L.L.L.",
"L.L.L.L.L.L.L.L.L.L._   1 f a a w 2 1 1 & &.6.U [ Y p.w.2 ; 1 w w 1 ; 1 &   K L.L.L.L.L.L.L.L.L.L.L.",
"L.L.L.L.L.L.L.L.L.L.w.] N 0 w w a 0 0 1 G ,.8.{ Z { 9.9.Q 2 2 0 0 2 2 & s ] *.L.L.L.L.L.L.L.L.L.L.L.",
"L.L.L.L.L.L.L.L.L.L.L.L.G + 2 2 & 1 1 ; ' p.9.&.) &.9.p. .; ; & & 2 0 & v L.L.L.L.L.L.L.L.L.L.L.L.L.",
"L.L.L.L.L.L.L.L.L.L...& ; & 1 2 a w a w 6 Q ' ) ' ^  .( a 0 0 s 0 ; 1 + x L.L.L.L.L.L.L.L.L.L.L.L.L.",
"L.L.L.L.L.L.L.L.L.L.O.w 2 2 s s 2 a a ; 1 r v ,.,.,.N a 2 a 2 1 s w 1 + f $.9.L.L.L.L.L.L.L.L.L.L.L.",
"L.L.L.L.L.L.L.L.L.L.L.L.I 2 1 ; w 2 & + X ! o. . .o.o.' & O 0 2 ; 2 a 1 ;   I L.L.L.L.L.L.L.L.L.L.L.",
"L.L.L.L.L.L.L.L.L.L.L.L.D   1 2 0 q m m N ' o. . . .o. .S m n v 0 ; 1 2 1   R L.L.L.L.L.L.L.L.L.L.L.",
"L.L.L.L.L.L.L.L.L.L.L.L.D + 1 1 + h ;.9.v.+. . . .X. . .x.9.&.n 2 ; ; 0 0 + I L.L.L.L.L.L.L.L.L.L.L.",
"L.L.L.L.L.L.L.L.L.L.O.s w ; 1 w J ( ,.,.9.o.o.,.#. .&.,.9.,.,.` L R H 2 1 X W L.L.L.L.L.L.L.L.L.L.L.",
"L.L.L.L.L.L.L.L.L.L...+ 1 1 1 a o.&.9.9.9.o.+.p.;. .,.w.9.9.w.&.o.+.( 1 ;   K L.l.L.L.L.L.L.L.L.L.L.",
"L.L.L.L.L.L.L.L.L.L.l.L.D & 1 0 o.&.p.@.o.<.9.9.9.9.9.9.o.@.u.&.@.s ; 1 ; ; 1 1 $.L.L.L.L.L.L.L.L.L.",
"L.L.L.L.L.L.L.L.L.L.L.L.G & 1 2 J ( ,.@.@.,.,.9.9.9.,.:.@.@.,.) J q * 1 1 ; ; & @.L.L.L.L.L.L.L.L.L.",
"L.L.L.L.L.L.L.L.L.L.L.L.N   ; 1 + h &.,.p.o.o.w.9.9.@. .9.,.;.n + 1 1 0 2 1 1 ; 2.L.L.L.L.L.L.L.L.L.",
"L.L.L.L.L.L.L.L.L.L.L.L...K 0 & 2 a x ~ &.&.&.@.:.w.@. .&.' c a ; 2 2 2 1 ; 1 2 x G L.L.L.L.L.L.L.L.",
"L.L.L.L.L.L.L.L.L.L.L.L.L.L.a + 0 2 . G @.2.6. .@.p.@. .@.L + ; 1 2 0 1 ; & 2 w   1 L.L.L.L.L.L.L.L.",
"L.L.L.L.L.L.L.L.L.L.L.L.L.L.a & 1 1 1 0 a  .&.o.o.+.@. .s 0 1 2 0 2 1 1 ; & ; 1 & q L.L.L.L.L.L.L.L.",
"L.L.L.L.L.L.L.L.L.L.L.L.w.&.w & 1 > 1 ; ; L ( o.o.o.( R 1 ; 1 2 0 1 1 1 ; & ; 1 & 0 $.w.L.L.L.L.L.L.",
"L.L.L.L.L.L.L.L.L.L.L.L.D   ; & > 1 0 2 1 ; r o. .@.d & 1 1 0 0 0 1 ; 1 ; ; 1 1 0 0   x L.L.L.L.L.L.",
"L.L.L.L.L.L.L.L.L.L.L.L.D + ; & ; 1 2 2 2 ; a o. .@.f & 2 2 0 2 2 1 ; ; ; ; ; 1 1 0 x W L.L.L.L.L.L.",
"L.L.L.L.L.L.L.L.L.L.L.L.D & ; & ; ; ; 2 w & 0 o. .@.d ; 0 0 0 2 ; 1 , - & & ; 1 & a L.L.L.L.L.L.L.L.",
"L.L.L.L.L.L.L.L.L.L.L.L.G + 1 & ; ; ; ; 1 C R o. .@.d & 0 2 ; ; , ; ; * & ; ; ; ; 2 f I L.L.L.L.L.L.",
"L.L.L.L.L.L.L.L.L.L.l.L.D & 1 & ; ; ; & ; ( +. . .@.f ; 0 2 & ; 1 ; & ; & ; 1 ; 1 1   x L.L.L.L.L.L.",
"L.L.L.L.L.L.L.L.L.L...1 0 0 1 & ; ; 1 ; ; ; a @.o.o.' / 1 ; 1 ; ; ; 1 6 1 - 2 0 1 1 + n L.L.L.L.L.L.",
"L.L.L.L.L.L.L.L.L.L.]   1 0 1 & 1 1 1 ; ; + 2 L ( o.o.' 1 & 1 ; ; 1 1 0 2 - 2 2 2 1   v L.L.L.L.L.L.",
"L.L.L.L.L.L.L.L.L.L.] + ; ; ; ; 0 2 ; 1 1 ; ;   z @. .` 1 & 1 1 ; 2 0 0 2 & 1 1 0 0   v L.L.L.L.L.L.",
"L.L.L.L.L.L.L.L.L.L.] + 1 2 1 ; 1 1 2 1 1 ; ; + z @.N g 1 ; 1 1 2 0 0 1 , ; 1 1 2 0   v L.L.L.L.L.L.",
"L.L.L.L.L.L.L.L.L.L.]   2 0 1 > & ; w 1 ; 1 1 + z &.w   1 1 ; 2 0 0 2 & & 1 1 1 6 0   v L.L.L.L.L.L.",
"L.L.L.L.L.L.L.L.L.L.] + 1 0 1 ; & ; 1 2 2 1 1 ; > R g + 1 1 2 2 0 2 1 & ; ; 1 1 6 0   v L.L.L.L.L.L.",
"L.L.L.L.L.L.L.L.L.L...+ 2 0 1 ; & ; ; 2 0 1 1 1 + B s + 1 1 0 0 0 1 ; & ; ; 1 1 0 0   v L.L.L.L.L.L.",
"L.L.L.L.L.L.L.L.L.L.]   < w 1 ; & ; 1 2 0 1 1 1 ; & & & ; 1 0 0 0 1 ; & ; ; 1 1 0 0   v L.L.L.L.L.L.",
"L.L.L.L.L.L.L.L.L.L.*.N f 1 2 1 ; ; ; 2 0 1 ; 1 ; & & & ; 1 0 0 0 , ; & ; ; 1 2 2 2   m L.L.L.L.L.L.",
"L.L.L.L.L.L.L.L.L.L.L.L.G + 0 0 1 ; & 1 0 1 ; 1 ; & & & ; 1 0 6 0 ; & & ; > 2 0 1 1   x L.L.L.L.L.L.",
"L.L.L.L.L.L.L.L.L.L.L.L.D   0 0 1 ; & 1 0 1 ; 1 ; & & & ; 1 0 6 0 ; & ; ; ; 1 1 & 2 _ $.L.L.L.L.L.L.",
"L.L.L.L.L.L.L.L.L.w.9.L.N   2 2 1 ; & 1 0 1 1 1 ; & & & ; 1 0 6 5 ; & ; 1 1 1 1 & 0 L.L.L.L.L.L.L.L.",
"L.L.L.L.L.L.L.L.L.0 ; 1 ; & ; 1 0 1 & ; 1 2 2 1 ; & & & ; 1 0 2 1 & & ; 1 0 1 1 + 0 L.L.L.L.L.L.L.L.",
"L.L.L.L.L.2._ ] _ 1 & & & & ; ; 2 1 ; ; ; 0 2 1 ; & & & ; 1 0 1 ; ; ; 1 1 2 1 ; & 0 _ $.L.L.L.L.L.L.",
"L.L.L.L.L.W   + + 0 0 1 ; & & & 1 ; & & & 2 2 1 ; & & & ; 1 0 1 & + & & - 1 ; & ; 1   v L.L.L.L.L.L.",
"L.L.L.w.D f & 1 2 2 1 ; & ; ; ; & w G w + 1 1 ; ; & & & ; 1 2 ; & z S S h & ; ; ; 1 + m L.L.L.L.L.L.",
"L.L.L.l.O.N . 2 0 1 ; & & ; 1 1 . x d.g   > ; ; ; & & & ; > > ; + E &.v.! + 1 1 1 1   n L.L.L.L.L.L.",
"L.L.L.2.s 0 ; 2 0 2 2 ; ; & * + w  .&.f D &.O.*.N   ; I @.o.o.@.a L &.s.K   & @ + 2 $.8.L.L.L.L.L.L.",
"L.L.L.*.+ & 1 2 2 2 2 1 ; ; ; & ; c ' a G %... .n + * I 9.9.y.v.d N ' o.G q w w 0 h L.L.L.L.L.L.L.L.",
"L.L.L.*.& ; 1 ; ; 1 1 0 0 0 0 0 ; & & & & & & + & & & ; } ;.v.p.d   +   f L.L.L.L.L.L.L.L.L.L.L.L.L.",
"L.L.L.*.& ; ; ; ; 1 1 2 2 2 0 0 2 1 ; ; ; ; 1 1 1 1 ; ; B G K D ; g A v W L.L.L.L.L.L.L.L.L.L.L.L.L.",
"L.L.L.*.  + & ; ; ; ; 1 1 , 0 0 0 2 1 1 1 0 0 0 0 0 1 ; & &   a D w.L.L.L.L.L.L.L.L.L.L.L.L.L.L.L.L.",
"L.L.L.l. .n   ; ; ; 1 1 1 2 1 2 0 0 2 2 2 1 2 2 1 1 2 2 6 2 ; s v &.L.L.L.L.L.L.L.L.L.L.L.L.L.L.L.L.",
"L.L.L.L.L.~ & ; ; 1 1 1 2 0 1 1 0 0 0 0 0 1 1 1 1 1 2 0 0 6 1 ;   o.L.L.L.L.L.L.L.L.L.L.L.L.L.L.L.L.",
"L.L.L.L.L.l.l.f   + + + & 1 ; ; 1 1 > 1 : ; ; > > 1 ; & + +   D L.l.L.L.L.L.L.L.L.L.L.L.L.L.L.L.L.L.",
"L.L.L.L.L.L.L.D a f s f 0 ; 1 1 1 , 1 1 : ; , > > 1 ; 1 s f a ~ L.L.L.L.L.L.L.L.L.L.L.L.L.L.L.L.L.L.",
"L.L.L.L.L.L.L.L.L.L.L.L.N   +                         & l.L.L.L.L.L.L.L.L.L.L.L.L.L.L.L.L.L.L.L.L.L.",
"L.L.L.L.L.L.L.L.L.L.L.L.] D G G G G G G G G G G G G G K l.L.L.L.L.L.L.L.L.L.L.L.L.L.L.L.L.L.L.L.L.L.",
"L.L.L.L.L.L.L.L.L.L.L.L.L.L.L.L.L.L.L.L.L.L.L.L.L.L.L.L.L.L.L.L.L.L.L.L.L.L.L.L.L.L.L.L.L.L.L.L.L.L.",
"L.L.L.L.L.L.L.L.L.L.L.L.L.L.L.L.L.L.L.L.L.L.L.L.L.L.L.L.L.L.L.L.L.L.L.L.L.L.L.L.L.L.L.L.L.L.L.L.L.L.",
"L.L.L.L.L.L.L.L.L.L.L.L.L.L.L.L.L.L.L.L.L.L.L.L.L.L.L.L.L.L.L.L.L.L.L.L.L.L.L.L.L.L.L.L.L.L.L.L.L.L.",
"L.L.L.L.L.L.L.L.L.L.L.L.L.L.L.L.L.L.L.L.L.L.L.L.L.L.L.L.L.L.L.L.L.L.L.L.L.L.L.L.L.L.L.L.L.L.L.L.L.L.",
"L.L.L.L.L.L.L.L.L.L.L.L.L.L.L.L.L.L.L.L.L.L.L.L.L.L.L.L.L.L.L.L.L.L.L.L.L.L.L.L.L.L.L.L.L.L.L.L.L.L.",
"L.L.L.L.L.L.L.L.L.L.L.L.L.L.L.L.L.L.L.L.L.L.L.L.L.L.L.L.L.L.L.L.L.L.L.L.L.L.L.L.L.L.L.L.L.L.L.L.L.L."
};
