/* XPM */
static char *ozzy_walking3_left[] = {
/* columns rows colors chars-per-pixel */
"80 50 168 2 ",
"   c gray1",
".  c #070807",
"X  c #0C0C0C",
"o  c #10100F",
"O  c #0F0F10",
"+  c #141514",
"@  c #181717",
"#  c #171816",
"$  c #181817",
"%  c #171719",
"&  c #1D1D1D",
"*  c #201F1C",
"=  c #1E2212",
"-  c #1F201E",
";  c #21211F",
":  c #2E3215",
">  c #31351F",
",  c #1F1F20",
"<  c #1F2020",
"1  c #222222",
"2  c #272826",
"3  c #282926",
"4  c #2C2C2B",
"5  c #302F2F",
"6  c #2F3127",
"7  c #2F302F",
"8  c #313323",
"9  c #30312F",
"0  c #2F3130",
"q  c #333332",
"w  c #373834",
"e  c #393A36",
"r  c #383739",
"t  c #3C3C3B",
"y  c #3F4326",
"u  c #41413C",
"i  c #434442",
"p  c #474842",
"a  c #484944",
"s  c #4C4D4A",
"d  c #4F504A",
"f  c #52524D",
"g  c #56584E",
"h  c #555554",
"j  c #585750",
"k  c #575855",
"l  c #5A5B55",
"z  c #585758",
"x  c #5C5D5B",
"c  c #5E605B",
"v  c #616352",
"b  c #62635B",
"n  c #6F625C",
"m  c #67685E",
"M  c #696B5E",
"N  c #646463",
"B  c #666863",
"V  c #6B6C65",
"C  c #6C6D6B",
"Z  c #6F716B",
"A  c #73736B",
"S  c #76786E",
"D  c #79796E",
"F  c #747472",
"G  c #777876",
"H  c #7A7B74",
"J  c #7C7C7B",
"K  c #A77C78",
"L  c #7F8075",
"P  c #8B9746",
"I  c #828277",
"U  c #83837A",
"Y  c #8C8B7E",
"T  c #A8817D",
"R  c #A4A976",
"E  c #848482",
"W  c #898980",
"Q  c #8C8C8B",
"!  c #8F908E",
"~  c #91928D",
"^  c #9B9A8F",
"/  c #949593",
"(  c #979893",
")  c #9B9B93",
"_  c #9C9C9B",
"`  c #A4A396",
"'  c #A3A39D",
"]  c #ACAA9E",
"[  c #A4A4A2",
"{  c #A7A8A5",
"}  c #ADADA1",
"|  c #ADADAC",
" . c #AFB0A4",
".. c #AFB0AB",
"X. c #B3B2A5",
"o. c #B3B3AD",
"O. c #B9B7A9",
"+. c #B7B8A9",
"@. c #BCBAAC",
"#. c #B4B4B2",
"$. c #B7B8B4",
"%. c #BBBBB5",
"&. c #BCBCBB",
"*. c #DBA6A4",
"=. c #C0BDAE",
"-. c #C2BEB1",
";. c #C4C2B4",
":. c #C2C3BC",
">. c #CAC6B9",
",. c #CCCBBD",
"<. c #D0CEBE",
"1. c #E2C7BF",
"2. c #C4C4C2",
"3. c #C7C8C5",
"4. c #CACAC7",
"5. c #CBCCCA",
"6. c #D2CFC2",
"7. c #CFD0CE",
"8. c #D4D3C5",
"9. c #D8D5C4",
"0. c #D0D0CF",
"q. c #D7D7CA",
"w. c #DBDBCC",
"e. c LightGray",
"r. c #D1D1D0",
"t. c #D5D5D4",
"y. c #D9DAD4",
"u. c #D7D8D8",
"i. c #DADBDA",
"p. c #DFE0D3",
"a. c #E3E3D7",
"s. c #E2E3D6",
"d. c #E5E5DA",
"f. c #EDE3D8",
"g. c #E7EADC",
"h. c #E7E8DC",
"j. c #EAEBDE",
"k. c gray90",
"l. c #E4E4E4",
"z. c #ECEDE2",
"x. c #EBEBEA",
"c. c #EEF0E3",
"v. c #F3F3E5",
"b. c #F3F3EC",
"n. c gray97",
"m. c #F6F6F5",
"M. c #F6F6F5",
"N. c #FAFAF6",
"B. c #F9F9F9",
"V. c #FAFAF9",
"C. c #FAFAF9",
"Z. c #FBFBFB",
"A. c #FBFBFA",
"S. c #FDFDFB",
"D. c gray99",
"F. c #FDFDFC",
"G. c #FDFDFD",
"H. c #FEFEFC",
"J. c #FF00FF",
"K. c #FEFFFD",
"L. c #FEFEFE",
"P. c #FFFEFE",
"I. c #FEFFFE",
"U. c #FFFFFE",
"Y. c white",
"T. c #FFFEFF",
"R. c #FDFEFE",
"E. c #FEFEFE",
/* pixels */
"J.J.J.J.J.J.J.J.J.J.J.J.J.J.J.J.J.J.J.J.J.J.J.J.J.J.J.J.J.J.J.J.J.J.J.J.J.J.J.J.J.J.J.J.J.J.J.J.J.J.J.J.J.J.J.J.J.J.J.J.J.J.J.J.J.J.J.J.J.J.J.J.J.J.J.J.J.J.J.J.",
"J.J.J.J.J.J.J.J.5.u.J.J.J.J.J.J.J.J.J.J.J.J.J.J.J.J.J.J.J.J.J.J.J.J.J.J.J.J.J.J.J.J.J.J.J.J.J.J.J.J.J.J.J.J.J.J.J.J.J.J.J.J.J.J.J.J.J.J.J.J.J.J.J.J.J.J.J.J.J.J.",
"J.J.J.J.J.J.J.J.C 5 k.u.C Z _ J.J.J.J.J.J.J.J.J.J.J.J.J.J.J.J.J.J.J.J.J.J.J.J.J.J.J.J.J.J.J.J.J.J.J.J.J.J.J.J.J.J.J.J.J.J.J.J.J.J.J.J.J.J.J.J.J.J.J.J.J.J.J.J.J.",
"J.J.J.J.J.J.J.J.E   s C + $ 2 | J.J.J.J.J.J.J.J.J.J.J.J.J.J.J.J.J.J.J.J.J.J.J.J.J.J.J.J.J.J.J.J.J.J.J.J.J.J.J.J.J.J.J.J.J.J.J.J.J.J.J.J.J.J.J.J.J.J.J.J.J.J.J.J.",
"J.J.J.J.J.J.J.J.G X X + s k 2 3 J.J.J.J.J.J.J.J.J.J.J.J.J.J.J.J.J.J.J.J.J.J.J.J.J.J.J.J.J.J.J.J.J.J.J.J.J.J.J.J.J.J.J.J.J.J.J.J.J.J.J.J.J.J.J.J.J.J.J.J.J.J.J.J.",
"J.J.J.J.J.J.J.J.E   $ $ e k e e J.J.J.J.J.J.J.J.J.J.J.J.J.J.J.J.J.J.J.J.J.J.J.J.J.J.J.J.J.J.J.J.J.J.J.J.J.J.J.J.J.J.J.J.J.J.J.J.J.J.J.J.J.J.J.J.J.J.J.J.J.J.J.J.",
"J.J.J.J.J.J.J.n.N   + $ e x i q e.e.e.J.J.J.J.J.J.J.J.J.J.J.J.J.J.J.J.J.J.J.J.J.J.J.J.J.J.J.J.J.J.J.J.J.J.J.J.J.J.J.J.J.J.J.J.J.J.J.J.J.J.J.J.J.J.J.J.J.J.J.J.J.",
"J.J.J.J.J.J.J.k X 2 + q s f f $ + X $ e.k.J.J.J.J.J.J.J.J.J.J.J.J.J.J.J.J.J.J.J.J.J.J.J.J.J.J.J.J.J.J.J.J.J.J.J.J.J.J.J.J.J.J.J.J.J.J.J.J.J.J.J.J.J.J.J.J.J.J.J.",
"J.J.J.J.J.b.k $ d e $ 3 e a p 2 + $ $ $ $ 5.J.J.J.J.J.J.J.J.J.J.J.J.J.J.J.J.J.J.J.J.J.J.J.J.J.J.J.J.J.J.J.J.J.J.J.J.J.J.J.J.J.J.J.J.J.J.J.J.J.J.J.J.J.J.J.J.J.J.",
"J.J.J.J.J.l $ d s $ 2 $ $ 2 7 $ $ + 2 , + $ u.J.J.J.J.J.J.J.J.J.J.J.J.J.J.J.J.J.J.J.J.J.J.J.J.J.J.J.J.J.J.J.J.J.J.J.J.J.J.J.J.J.J.J.J.J.J.J.J.J.J.J.J.J.J.J.J.J.",
"J.J.J.J.A %.x q 4 $ , 2 2 2 2 2 , $ $ 2 2 + e.J.J.J.J.J.J.J.J.J.J.J.J.J.J.J.J.J.J.J.J.J.J.J.J.J.J.J.J.J.J.J.J.J.J.J.J.J.J.J.J.J.J.J.J.J.J.J.J.J.J.J.J.J.J.J.J.J.",
"J.J.J.J.V :.l   % , 2 2 , $ $ $ , 2 , $ , + 4 u.J.J.J.J.J.J.J.J.J.J.J.J.J.J.J.J.J.J.J.J.J.J.J.J.J.J.J.J.J.J.J.J.J.J.J.J.J.J.J.J.J.J.J.J.J.J.J.J.J.J.J.J.J.J.J.J.",
"J.J.J.J.C :.g   y = $ 2 2 , , $ 2 $ + + $ $ + q 4 #.J.J.J.J.J.J.J.J.J.J.J.J.J.J.J.J.J.J.J.J.J.J.J.J.J.J.J.J.J.J.J.J.J.J.J.J.J.J.J.J.J.J.J.J.J.J.J.J.J.J.J.J.J.J.",
"J.J.J.J.C %.R : P > $ 2 4 4 4 4 2 , $ + $ 2 $   E n.J.J.J.J.J.J.J.J.J.J.J.J.J.J.J.J.J.J.J.J.J.J.J.J.J.J.J.J.J.J.J.J.J.J.J.J.J.J.J.J.J.J.J.J.J.J.J.J.J.J.J.J.J.J.",
"J.J.J.E o.c.v # 8 $ $ 2 4 4 4 4 $ + % + $ 2 2 + e e &.J.J.J.J.J.J.J.J.F k x x x x x x x N k ( J.J.J.J.J.J.J.J.J.J.J.J.J.J.J.J.J.J.J.J.J.J.J.J.J.J.J.J.J.J.J.J.J.",
"J.J.G T *.f.B q r 9 e i e 2 2 2 2 $ + + $ 2 2 $ %   k ( Q ( ( ( ! ( Q $ X + + + + + + + O   x J.J.J.J.J.J.J.J.J.J.J.J.J.J.J.J.J.J.J.J.J.J.J.J.J.J.J.J.J.J.J.J.J.",
"J.J.c K 1.s.j.l 3 e 4 q 9 $ 2 $ + $ $ + $ 2 2 $ 2 2 X     . X X X X O 4 q q q q q q q q 4 $ q k i F J.J.J.J.J.J.J.J.J.J.J.J.J.J.J.J.J.J.J.J.J.J.J.J.J.J.J.J.J.J.",
"J.J.2.n ;.w.8.( e 4 e $ $ $ $ 2 $ + + $ $ 2 2 4 2 $ 2 2 2 2 q 5 q q q q 2 2 2 2 2 4 5 4 4 2 $ + X $ N x N n.J.J.J.J.J.J.J.J.J.J.J.J.J.J.J.J.J.J.J.J.J.J.J.J.J.J.",
"J.J.J.&.S ` <.8.X.u O 3 2 $ $ $ $ $ $ 2 $ , $ 2 2 2 2 2 2 2 4 4 4 5 5 2 $ , 2 2 $ , 2 3 7 4 2 2 2 $ X X   C n.J.J.J.J.J.J.J.J.J.J.J.J.J.J.J.J.( E E J.J.J.J.J.J.",
"J.J.J.J.$.W H H I I V A l         X 2 2 $ $ 2 2 4 4 4 4 4 2 2 2 2 2 2 2 , , 2 2 $ $ $ 2 2 2 2 $ 2 2 2 2 $   F Q k.J.J.J.J.J.J.J.J.J.J.J.J.n.Q 2 + X C x.J.J.J.J.",
"J.J.J.J.J.5.~ ( ( ~ X.8.` l b b N l + $ 2 2 4 4 2 2 2 4 q 4 $ $ $ $ $ $ $ $ 2 2 $ 2 , , $ $ $ $ , 2 2 $ 2 2 X   x x.J.J.J.J.J.J.J.J.J.J.J.k.+ e f i $ F _ k.J.J.",
"J.J.J.J.J.J.J.J.J.( M ,.@.,.;.,.z.p.A 2 - 4 9 q 2 $ 2 2 4 2 $ $ $ , 2 $ $ $ 2 2 , $ , , 2 , $ 2 4 2 2 2 $ $ 2 2   x u.J.J.J.J.J.J.J.J.J.J.x.2 e l x l 4   2.J.J.",
"J.J.J.J.J.J.J.J.J.5.W ` @.@.,.,.s.z.v.4 $ 4 q 4 2 2 2 2 $ $ $ $ , , $ $ $ $ $ $ , 2 2 2 $ , $ 2 5 2 2 2 + + $ , 2   Q J.n.J.J.J.J.J.J.J.J.x.2 e k k l s + e.J.J.",
"J.J.J.J.J.J.J.J.J.x.( I ;.8.j.j.d.w.W 2 2 4 q 2 $ 2 2 2 $ $ , $ 2 2 2 2 2 2 $ $ , 2 2 2 $ $ , 2 2 2 2 2 $ + $ 2 4 + x k.J.J.J.J.J.J.J.J.J.x.2 q l l x i $ ( n.J.",
"J.J.J.J.J.J.J.J.J.( A ,.:.z.d.s.z.q.+ ; 2 4 q 2 $ $ , $ , $ 2 2 2 2 5 q q q 2 $ 2 , 2 2 $ $ 2 2 $ 4 2 $ 2 + + 4 q 4 X k x.J.J.J.J.J.J.J.J.k.2 2 s d s i 4   &.J.",
"J.J.J.J.J.J.J.J.J.] b } ,.j.d.j.s.( q 6 3 4 4 2 $ 2 , 2 2 $ 2 $ $ 2 4 4 4 4 2 $ 2 $ $ $ 2 , 2 4 2 2 4 $ $ + + 2 q q q X k x.J.J.J.J.J.J.J.n.- $ 4 e e q 4   &.J.",
"J.J.J.J.J.J.J.J.J.2.k A 8.j.s.s.%.X 2 9 4 4 ; 2 2 $ $ , 2 2 , 2 2 4 4 $ $ $ $ , , $ 2 2 2 2 2 4 4 4 4 $ 2 + . + 4 4 0 4   B u.u.J.J.J.J.2.| 2 $ 2 q q 4 4   &.J.",
"J.J.J.J.J.J.J.J.J.J.| A w.d.8.=.` $ * 4 2 2 2 2 2 2 $ $ 2 2 $ , 2 4 4 q 4 $ 2 2 2 2 2 2 2 2 2 , 2 4 4 $ 2 + e $ + 2 2 7 4 $   i &.#.&._ X X 2 2 2 2 2 2 4   &.J.",
"J.J.J.J.J.J.J.J.J.J.{ m o.X.@.;.` + 2 4 2 2 2 2 , 2 + + 2 2 2 2 q 4 4 4 2 2 2 2 , 2 2 2 2 2 2 2 2 2 4 2 2 X k.G X $ 2 2 4 3 2 $   . X X 2 2 2 $ 4 4 2 2 + < 5.J.",
"J.J.J.J.J.J.J.J.J.J.&.b c A ;.-.` + $ 2 4 2 2 2 $ 2 $ % 2 2 2 4 4 4 4 2 2 2 + $ 2 2 2 2 2 2 2 2 2 2 2 4 2 + | J.G o $ $ 2 4 2 2 2 2 2 2 $ 2 4 2 4 4 2 $ 4 e.J.J.",
"J.J.J.J.J.J.J.J.J.J.J.J.&.l @.-.` + $ $ $ 4 2 , $ , 2 % + 2 , , , $ 2 2 2 2 + $ 2 2 2 $ 2 2 2 2 2 2 2 ; 2 $ X #.J.F X $ 2 2 2 4 4 4 $ 2 $ 4 q 4 2 2 + 2 e.J.J.J.",
"J.J.J.J.J.J.J.J.J.J.J.J.[ $ A @.O.}  .$ $ 2 2 2 $ , $ 2 $ $ 2 2 $ $ $ $ $ 2 2 2 2 2 , , $ $ 2 2 2 2 2 2 + + $ + | J.G X $ 2 2 2 2 2 4 4 4 4 4 2 2 $ $ 2.J.J.J.J.",
"J.J.J.J.J.J.J.J.J.J.J.[ $ $ 2 b %.;.X.; + $ 2 2 2 2 2 2 + p -.W + $ $ $ + W -.u $ 4 , 2 ; $ , 2 2 2 2 ; + + $ @ + #.J.G X $ + $ 2 , 2 2 , , 2 2 $ @ 5.J.J.J.J.J.",
"J.J.J.J.J.J.J.J.J.J.[ $ $ $ $ 2 f O.@.` ` 9 $ 2 2 2 2 2 + f ,.O.] ] ] ] } O.>.a $ q 2 2 2 2 , 2 2 2 2 $ + + + $ $ $ [ J.x._   + $ 2 2 2 2 $ + + + 2.J.J.J.J.J.J.",
"J.J.J.J.J.J.J.J.J.] $ 2 2 $ $ % ; a f @.;.9 + 4 2 2 2 2 $ 4 l D >.-.-.-.@.@.>.i + 4 q 2 , 2 2 2 2 2 + + + + $ $ $   Q J.J.n.k._   + X X X + 2.u.e.J.J.J.J.J.J.J.",
"J.J.J.J.J.J.J.J.( 2 2 4 2 2 $ $ $ $ + B V $ % 4 2 $ 2 2 X N &.a b V @.@.d.I b f 2 $ 4 4 2 , 2 2 2 2 $ $ $ % $ $ $ X ( J.J.J.J.n.3.5.5.5.5.5.J.J.J.J.J.J.J.J.J.J.",
"J.J.J.J.J.J.J.( 2 $ 4 2 $ $ $ $ X $ :.u.e.5.e 2 5 4 2 2 X F J.e.u.5.V b x.k.7.x.f X 4 4 q 4 2 2 2 % X X X $ $ $ $ X ~ J.J.J.J.J.J.J.J.J.J.J.J.J.J.J.J.J.J.J.J.J.",
"J.J.J.J.J.J.( - $ 4 2 $ 2 $   2 #.&.J.J.J.J.s + q q 4 2 X C J.J.J.J.u.e.n.J.J.J.u.s X 2 2 2 2 2 $ 4 #.#.#.2 + $ 2   ( J.J.J.J.J.J.J.J.J.J.J.J.J.J.J.J.J.J.J.J.J.",
"J.J.J.J.J.J.x V f X 2 +   e | %.J.J.J.J.J.J.e   4 q 2 2 + C J.J.J.J.J.J.J.J.J.J.J.u.z + 2 2 2 2 $ q J.J.J.&.q $ X j W 3.J.J.J.J.J.J.J.J.J.J.J.J.J.J.J.J.J.J.J.J.",
"J.J.J.J.J.o.( w.o.u   i [ &.J.J.J.J.J.J.J.J.:.e $ q 2 4   x J.J.J.J.J.J.J.J.J.J.n.J.(   2 2 2 2 $ q n.J.J.J.s   f @.D ( J.J.J.J.J.J.J.J.J.J.J.J.J.J.J.J.J.J.J.J.",
"J.J.J.J.J.V @.v.w.H k 5.J.J.J.J.J.J.J.J.J.J.J.x + r 4 + i :.J.J.J.J.J.J.J.J.J.J.n.J.(   2 2 2 2 + 2 J.J.J.J.N f ] ,.S [ J.J.J.J.J.J.J.J.J.J.J.J.J.J.J.J.J.J.J.J.",
"J.J.J.J.J.H X.q.,.H ( J.n.J.J.J.J.J.J.J.J.J.J.x + q 4   G J.J.J.J.J.J.J.J.J.J.J.J.2.i $ 2 2 2 + $ [ J.J.J.J.C ] ;.@.H [ J.J.J.J.J.J.J.J.J.J.J.J.J.J.J.J.J.J.J.J.",
"J.J.J.J.J.C +.j.` W 2.J.J.J.J.J.J.J.J.J.J.J.3.s X X 2 X F J.J.J.J.J.J.J.J.J.2.[ _ e + 4 2 2 + + ( J.J.J.J.J.o.I ] 6.A ( J.J.J.J.J.J.J.J.J.J.J.J.J.J.J.J.J.J.J.J.",
"J.J.J.J.J...( ] ~ 5.J.J.J.J.J.J.J.J.J.J.J.2.H W H G i   G J.J.J.J.J.J.J.J.2.I L A q + 2 4 + $ [ J.J.J.J.J.J.J.o.W Y E 4.J.J.J.J.J.J.J.J.J.J.J.J.J.J.J.J.J.J.J.J.",
"J.J.J.J.J.J.#.H u.J.J.J.J.J.J.J.J.J.J.J.J.V ` b.v.v.( ; G J.J.J.J.J.J.J.J.V ` v.N.^ k u   $ ( J.J.J.J.J.J.J.J.J.%.H q.J.J.J.J.J.J.J.J.J.J.J.J.J.J.J.J.J.J.J.J.J.",
"J.J.J.J.J.J.J.J.J.J.J.J.J.J.J.J.J.J.J.J.J.Z D X.( Y ^ I #.J.J.J.J.J.J.J.J.Z D } ( ~ ] I i ( J.n.J.J.J.J.J.J.J.J.J.J.J.J.J.J.J.J.J.J.J.J.J.J.J.J.J.J.J.J.J.J.J.J.",
"J.J.J.J.J.J.J.J.J.J.J.J.J.J.J.J.J.J.J.J.J.( F H G G V %.J.J.J.J.J.J.J.J.J.( F H H H C $.J.J.J.J.J.J.J.J.J.J.J.J.J.J.J.J.J.J.J.J.J.J.J.J.J.J.J.J.J.J.J.J.J.J.J.J.",
"J.J.J.J.J.J.J.J.J.J.J.J.J.J.J.J.J.J.J.J.J.J.J.J.J.J.J.J.J.J.J.J.J.J.J.J.J.J.J.J.J.J.J.J.J.J.J.J.J.J.J.J.J.J.J.J.J.J.J.J.J.J.J.J.J.J.J.J.J.J.J.J.J.J.J.J.J.J.J.J.",
"J.J.J.J.J.J.J.J.J.J.J.J.J.J.J.J.J.J.J.J.J.J.J.J.J.J.J.J.J.J.J.J.J.J.J.J.J.J.J.J.J.J.J.J.J.J.J.J.J.J.J.J.J.J.J.J.J.J.J.J.J.J.J.J.J.J.J.J.J.J.J.J.J.J.J.J.J.J.J.J.",
"J.J.J.J.J.J.J.J.J.J.J.J.J.J.J.J.J.J.J.J.J.J.J.J.J.J.J.J.J.J.J.J.J.J.J.J.J.J.J.J.J.J.J.J.J.J.J.J.J.J.J.J.J.J.J.J.J.J.J.J.J.J.J.J.J.J.J.J.J.J.J.J.J.J.J.J.J.J.J.J."
};
