/* XPM */
static char *platform[] = {
/* columns rows colors chars-per-pixel */
"64 64 143 2 ",
"   c #41444D",
".  c #47494F",
"X  c #484A4F",
"o  c #4B4D52",
"O  c #4E5355",
"+  c #4D5855",
"@  c #525257",
"#  c #505957",
"$  c #515358",
"%  c #5A5759",
"&  c #545D5A",
"*  c #5E5B5D",
"=  c #64575D",
"-  c #605E5F",
";  c #57605D",
":  c #59625F",
">  c #77615E",
",  c #7E4E63",
"<  c #625F62",
"1  c #5B6461",
"2  c #5F6965",
"3  c #656365",
"4  c #606967",
"5  c #696669",
"6  c #636C6A",
"7  c #6C6A6C",
"8  c #736763",
"9  c #736A62",
"0  c #706069",
"q  c #7D7165",
"w  c #CA3F7C",
"e  c #8E4D4B",
"r  c #904E4C",
"t  c #91504C",
"y  c #974952",
"u  c #9E6E4A",
"i  c #9F704B",
"p  c #A0714B",
"a  c #AF655E",
"s  c #B97E5A",
"d  c #825167",
"f  c #86556A",
"g  c #88566C",
"h  c #8A596E",
"j  c #91536F",
"k  c #8D5B71",
"l  c #905C74",
"z  c #B05D61",
"x  c #B34477",
"c  c #B04979",
"v  c #BF6368",
"b  c #C5427B",
"n  c #CF4D7D",
"m  c #C75575",
"M  c #C3626D",
"N  c #C07667",
"B  c #CE7674",
"V  c #BC845C",
"C  c #BF8B5F",
"Z  c #B2957C",
"A  c #C4885F",
"S  c #C4905F",
"D  c #C88763",
"F  c #C48F67",
"G  c #CD8C64",
"H  c #C58B6B",
"J  c #CE8F68",
"K  c #D08D66",
"L  c #CD9269",
"P  c #C89A6E",
"I  c #D29064",
"U  c #D2966B",
"Y  c #D8976A",
"T  c #D4996E",
"R  c #D89B6E",
"E  c #C78371",
"W  c #D8857D",
"Q  c #CF9C70",
"!  c #C19C7E",
"~  c #D59D72",
"^  c #D99D71",
"/  c #D19C7D",
"(  c #DBA274",
")  c #DDA678",
"_  c #DEAB7D",
"`  c #E0A375",
"'  c #E2AD7D",
"]  c #E8AE7D",
"[  c #D73786",
"{  c #D93787",
"}  c #FF00FF",
"|  c #D93E86",
" . c #CD4182",
".. c #D34180",
"X. c #D15280",
"o. c #B69C85",
"O. c #B79E88",
"+. c #B89F89",
"@. c #B7A28D",
"#. c #BAA28C",
"$. c #BCA691",
"%. c #BDA894",
"&. c #C9AC91",
"*. c #E3AF80",
"=. c #E8AE80",
"-. c #E4B284",
";. c #E9B180",
":. c #EAB383",
">. c #EBB586",
",. c #EDB787",
"<. c #E6BE87",
"1. c #E6B688",
"2. c #ECB788",
"3. c #E8B789",
"4. c #EEB98A",
"5. c #EFBB8C",
"6. c #EFBC8D",
"7. c #EFBD8F",
"8. c #E8B98B",
"9. c #F1BD8E",
"0. c #F1BE8F",
"q. c #EDBE91",
"w. c #F1BF90",
"e. c #F2C091",
"r. c #F3C191",
"t. c #F2C192",
"y. c #F3C192",
"u. c #F3C193",
"i. c #F3C293",
"p. c #F4C393",
"a. c #F3C394",
"s. c #F4C394",
"d. c #F4C395",
"f. c #F4C495",
"g. c #F5C495",
"h. c #F5C597",
"j. c #F5C597",
"k. c #F6C596",
"l. c #F7C799",
"z. c #F7CA9D",
"x. c #F6C99D",
"c. c #F7CBA1",
"v. c #F7D6A5",
/* pixels */
"} } |  .j h h k k l l k k k h h k k k k k k k k k k k k k k k k h h f h h k f f h h g f g g f d d , , , , , , , , , , , b | } } ",
"} [ c 0 2 6 6 4 6 6 6 6 6 6 6 6 2 6 4 6 6 6 4 6 6 6 6 6 6 6 6 6 4 2 : 1 : & : 2 2 1 : 1 1 ; : : & O O O O O # O O O O + = x { } ",
"X.W 8 1 3 3 7 7 7 5 5 5 5 5 7 7 3 5 7 7 7 5 7 7 7 5 3 5 5 7 5 3 3 3 3 * - * * - * * * < * * * * * % % @ % * % % % * % % O > B n ",
"/ v.9   O o $ @ @ O O o o O $ @ @ O o o O O @ O O o o O O O o . o o o o o X X X X o o o o o X X o o X X . X X o o o o o   q <.H ",
"Q c.&.@.$.$.#.#.#.#.$.$.#.#.#.#.%.$.#.#.#.$.#.#.#.#.$.#.#.#.#.#.#.+.#.#.#.o.o.O.#.#.#.#.#.#.O.o.O.#.#.#.o.Z Z o.O.O.o.o.o.! ' F ",
"L q.k.x.x.l.k.k.k.k.k.k.k.k.k.k.k.k.k.k.k.k.k.k.k.k.k.k.k.k.k.k.k.k.k.k.k.k.k.w.0.0.0.8.0.8.8.8.:.:.3.:.:.:.] ] ' ' =.-.` Y I V ",
"L 8.1.1.-.-.-.-.-.-.-.-.-.-.-.' ' -.-.-.*.*.-.-.-.-.*.-.-.1.1.1.-.1.1.-.-.-.-.-.-.-.' _ ' _ _ _ ) ( ^ T ~ ~ T T U U U T G G G s ",
"P 1.-.*.' -.-.-.-.' *.-.-.-.-.-.1.1.1.3.8.8.8.-.-.8.-.-.-.1.-.-.-.-.-.' ' ' *.-.' ' ' ' ' ' ) ) ( ^ ( ( ( ( ^ ^ ^ R R U L G G V ",
"E _ *.*.*.-.-.-.-.-.-.-.-.-.-.-.*.' ' -.8.8.-.-.-.-.-.1.8.1.-.-.-.' ' *.-.-.' ' ' ' ) ( ( ^ ( ( ( ( ( ^ ^ ^ ^ ^ T T U G G G G N ",
"m S R U ~ ~ T T T T ~ ~ ~ ~ ~ ~ ^ ^ ( ( ( ( ( ( ^ R ^ ^ ( ^ ^ ~ T T T U U U U U U U U U G G U L L L L G G G G G J G G G G G C m ",
"..v A G G G G G G G G G G G G G G G G G G G G G G G G G G G G G G G G K G G G G G G D G G G G G G G G G G G G G G G G G G V M } ",
"} } a i u u u u u u i i i i i i p i i i i i i i i p p p p p p p p p p p p p p i i i i p i i u u u u i u u u u u u u u u i z | } ",
"} } b r e e e e e e e e e e e e e r r t r e r r r r t t r r r r r r r r r r r e e e e e e e r e e e r r r e e e e e e e y w } } ",
"} } | | | | | | | | | | | | | | | | | | | | | | | | | } } | } } | | } } | | | | | | | | | | | | | | | | | | | | | | | | | } } } ",
"} } } } } } } } } } } } } } } } } } } } } } } } } } } } } } } } } } } } } } } } } } } } } } } } } } } } } } } } } } } } } } } } ",
"} } } } } } } } } } } } } } } } } } } } } } } } } } } } } } } } } } } } } } } } } } } } } } } } } } } } } } } } } } } } } } } } ",
"} } } } } } } } } } } } } } } } } } } } } } } } } } } } } } } } } } } } } } } } } } } } } } } } } } } } } } } } } } } } } } } } ",
"} } } } } } } } } } } } } } } } } } } } } } } } } } } } } } } } } } } } } } } } } } } } } } } } } } } } } } } } } } } } } } } } ",
"} } } } } } } } } } } } } } } } } } } } } } } } } } } } } } } } } } } } } } } } } } } } } } } } } } } } } } } } } } } } } } } } ",
"} } } } } } } } } } } } } } } } } } } } } } } } } } } } } } } } } } } } } } } } } } } } } } } } } } } } } } } } } } } } } } } } ",
"} } } } } } } } } } } } } } } } } } } } } } } } } } } } } } } } } } } } } } } } } } } } } } } } } } } } } } } } } } } } } } } } ",
"} } } } } } } } } } } } } } } } } } } } } } } } } } } } } } } } } } } } } } } } } } } } } } } } } } } } } } } } } } } } } } } } ",
"} } } } } } } } } } } } } } } } } } } } } } } } } } } } } } } } } } } } } } } } } } } } } } } } } } } } } } } } } } } } } } } } ",
"} } } } } } } } } } } } } } } } } } } } } } } } } } } } } } } } } } } } } } } } } } } } } } } } } } } } } } } } } } } } } } } } ",
"} } } } } } } } } } } } } } } } } } } } } } } } } } } } } } } } } } } } } } } } } } } } } } } } } } } } } } } } } } } } } } } } ",
"} } } } } } } } } } } } } } } } } } } } } } } } } } } } } } } } } } } } } } } } } } } } } } } } } } } } } } } } } } } } } } } } ",
"} } } } } } } } } } } } } } } } } } } } } } } } } } } } } } } } } } } } } } } } } } } } } } } } } } } } } } } } } } } } } } } } ",
"} } } } } } } } } } } } } } } } } } } } } } } } } } } } } } } } } } } } } } } } } } } } } } } } } } } } } } } } } } } } } } } } ",
"} } } } } } } } } } } } } } } } } } } } } } } } } } } } } } } } } } } } } } } } } } } } } } } } } } } } } } } } } } } } } } } } ",
"} } } } } } } } } } } } } } } } } } } } } } } } } } } } } } } } } } } } } } } } } } } } } } } } } } } } } } } } } } } } } } } } ",
"} } } } } } } } } } } } } } } } } } } } } } } } } } } } } } } } } } } } } } } } } } } } } } } } } } } } } } } } } } } } } } } } ",
"} } } } } } } } } } } } } } } } } } } } } } } } } } } } } } } } } } } } } } } } } } } } } } } } } } } } } } } } } } } } } } } } ",
"} } } } } } } } } } } } } } } } } } } } } } } } } } } } } } } } } } } } } } } } } } } } } } } } } } } } } } } } } } } } } } } } ",
"} } } } } } } } } } } } } } } } } } } } } } } } } } } } } } } } } } } } } } } } } } } } } } } } } } } } } } } } } } } } } } } } ",
"} } } } } } } } } } } } } } } } } } } } } } } } } } } } } } } } } } } } } } } } } } } } } } } } } } } } } } } } } } } } } } } } ",
"} } } } } } } } } } } } } } } } } } } } } } } } } } } } } } } } } } } } } } } } } } } } } } } } } } } } } } } } } } } } } } } } ",
"} } } } } } } } } } } } } } } } } } } } } } } } } } } } } } } } } } } } } } } } } } } } } } } } } } } } } } } } } } } } } } } } ",
"} } } } } } } } } } } } } } } } } } } } } } } } } } } } } } } } } } } } } } } } } } } } } } } } } } } } } } } } } } } } } } } } ",
"} } } } } } } } } } } } } } } } } } } } } } } } } } } } } } } } } } } } } } } } } } } } } } } } } } } } } } } } } } } } } } } } ",
"} } } } } } } } } } } } } } } } } } } } } } } } } } } } } } } } } } } } } } } } } } } } } } } } } } } } } } } } } } } } } } } } ",
"} } } } } } } } } } } } } } } } } } } } } } } } } } } } } } } } } } } } } } } } } } } } } } } } } } } } } } } } } } } } } } } } ",
"} } } } } } } } } } } } } } } } } } } } } } } } } } } } } } } } } } } } } } } } } } } } } } } } } } } } } } } } } } } } } } } } ",
"} } } } } } } } } } } } } } } } } } } } } } } } } } } } } } } } } } } } } } } } } } } } } } } } } } } } } } } } } } } } } } } } ",
"} } } } } } } } } } } } } } } } } } } } } } } } } } } } } } } } } } } } } } } } } } } } } } } } } } } } } } } } } } } } } } } } ",
"} } } } } } } } } } } } } } } } } } } } } } } } } } } } } } } } } } } } } } } } } } } } } } } } } } } } } } } } } } } } } } } } ",
"} } } } } } } } } } } } } } } } } } } } } } } } } } } } } } } } } } } } } } } } } } } } } } } } } } } } } } } } } } } } } } } } ",
"} } } } } } } } } } } } } } } } } } } } } } } } } } } } } } } } } } } } } } } } } } } } } } } } } } } } } } } } } } } } } } } } ",
"} } } } } } } } } } } } } } } } } } } } } } } } } } } } } } } } } } } } } } } } } } } } } } } } } } } } } } } } } } } } } } } } ",
"} } } } } } } } } } } } } } } } } } } } } } } } } } } } } } } } } } } } } } } } } } } } } } } } } } } } } } } } } } } } } } } } ",
"} } } } } } } } } } } } } } } } } } } } } } } } } } } } } } } } } } } } } } } } } } } } } } } } } } } } } } } } } } } } } } } } ",
"} } } } } } } } } } } } } } } } } } } } } } } } } } } } } } } } } } } } } } } } } } } } } } } } } } } } } } } } } } } } } } } } ",
"} } } } } } } } } } } } } } } } } } } } } } } } } } } } } } } } } } } } } } } } } } } } } } } } } } } } } } } } } } } } } } } } ",
"} } } } } } } } } } } } } } } } } } } } } } } } } } } } } } } } } } } } } } } } } } } } } } } } } } } } } } } } } } } } } } } } ",
"} } } } } } } } } } } } } } } } } } } } } } } } } } } } } } } } } } } } } } } } } } } } } } } } } } } } } } } } } } } } } } } } ",
"} } } } } } } } } } } } } } } } } } } } } } } } } } } } } } } } } } } } } } } } } } } } } } } } } } } } } } } } } } } } } } } } ",
"} } } } } } } } } } } } } } } } } } } } } } } } } } } } } } } } } } } } } } } } } } } } } } } } } } } } } } } } } } } } } } } } ",
"} } } } } } } } } } } } } } } } } } } } } } } } } } } } } } } } } } } } } } } } } } } } } } } } } } } } } } } } } } } } } } } } ",
"} } } } } } } } } } } } } } } } } } } } } } } } } } } } } } } } } } } } } } } } } } } } } } } } } } } } } } } } } } } } } } } } ",
"} } } } } } } } } } } } } } } } } } } } } } } } } } } } } } } } } } } } } } } } } } } } } } } } } } } } } } } } } } } } } } } } ",
"} } } } } } } } } } } } } } } } } } } } } } } } } } } } } } } } } } } } } } } } } } } } } } } } } } } } } } } } } } } } } } } } ",
"} } } } } } } } } } } } } } } } } } } } } } } } } } } } } } } } } } } } } } } } } } } } } } } } } } } } } } } } } } } } } } } } ",
"} } } } } } } } } } } } } } } } } } } } } } } } } } } } } } } } } } } } } } } } } } } } } } } } } } } } } } } } } } } } } } } } ",
"} } } } } } } } } } } } } } } } } } } } } } } } } } } } } } } } } } } } } } } } } } } } } } } } } } } } } } } } } } } } } } } } ",
"} } } } } } } } } } } } } } } } } } } } } } } } } } } } } } } } } } } } } } } } } } } } } } } } } } } } } } } } } } } } } } } } "
};
