/* XPM */
static char *tile_floor[] = {
/* columns rows colors chars-per-pixel */
"64 18 155 2 ",
"   c #4E2D16",
".  c #4E2C18",
"X  c #502F14",
"o  c #532E19",
"O  c #582F1A",
"+  c #533115",
"@  c #583417",
"#  c #56311B",
"$  c #5C331C",
"%  c #61361E",
"&  c #63391F",
"*  c #663B21",
"=  c #693D22",
"-  c #6E2E31",
";  c #6F3032",
":  c #774325",
">  c #7B4525",
",  c #7A4625",
"<  c #784526",
"1  c #794526",
"2  c #7A4526",
"3  c #7B4526",
"4  c #794626",
"5  c #794627",
"6  c #7A4626",
"7  c #7B4626",
"8  c #7B4726",
"9  c #7A4627",
"0  c #7B4627",
"q  c #7B4727",
"w  c #794425",
"e  c #7C4526",
"r  c #7C4626",
"t  c #7D4626",
"y  c #7C4726",
"u  c #7D4726",
"i  c #7C4627",
"p  c #7D4627",
"a  c #7C4727",
"s  c #7D4727",
"d  c #7E4726",
"f  c #7E4727",
"g  c #7F4727",
"h  c #784325",
"j  c #7B4827",
"k  c #7D4827",
"l  c #7D4927",
"z  c #7E4827",
"x  c #7F4827",
"c  c #7E4927",
"v  c #7F4927",
"b  c #7B4728",
"n  c #7A4629",
"m  c #7C4728",
"M  c #7D4728",
"N  c #7E4728",
"B  c #7C4828",
"V  c #7D4828",
"C  c #7E4828",
"Z  c #7F4828",
"A  c #7E4928",
"S  c #7F4928",
"D  c #7E4929",
"F  c #7F4929",
"G  c #7F4A28",
"H  c #7E4A29",
"J  c #7F4A29",
"K  c #7F4B29",
"L  c #7E492A",
"P  c #7F4A2B",
"I  c #804927",
"U  c #804828",
"Y  c #804928",
"T  c #814928",
"R  c #804929",
"E  c #814929",
"W  c #824929",
"Q  c #804A28",
"!  c #814A28",
"~  c #814B28",
"^  c #804A29",
"/  c #814A29",
"(  c #804B29",
")  c #814B29",
"_  c #824A28",
"`  c #824A29",
"'  c #824B29",
"]  c #834B29",
"[  c #814B2A",
"{  c #804B2B",
"}  c #824A2A",
"|  c #824B2A",
" . c #834B2A",
".. c #844B2A",
"X. c #824C29",
"o. c #834C29",
"O. c #814C2A",
"+. c #804C2B",
"@. c #814C2B",
"#. c #824C2A",
"$. c #834C2A",
"%. c #824C2B",
"&. c #844C29",
"*. c #844C2A",
"=. c #854C2A",
"-. c #844D2A",
";. c #854D2A",
":. c #844C2B",
">. c #854C2B",
",. c #844D2B",
"<. c #854D2B",
"1. c #864D2B",
"2. c #844E2A",
"3. c #844E2B",
"4. c #854E2B",
"5. c #864E2B",
"6. c #874E2B",
"7. c #864F2B",
"8. c #874F2B",
"9. c #834F2E",
"0. c #844F2D",
"q. c #854F2D",
"w. c #874E2C",
"e. c #864F2C",
"r. c #874F2C",
"t. c #874F2D",
"y. c #854F2E",
"u. c #884F2B",
"i. c #884E2C",
"p. c #884F2C",
"a. c #894F2C",
"s. c #87502C",
"d. c #85502F",
"f. c #86502E",
"g. c #86502F",
"h. c #87502F",
"j. c #86512F",
"k. c #87512F",
"l. c #88502C",
"z. c #89502C",
"x. c #89502D",
"c. c #89512D",
"v. c #8A502C",
"b. c #88512F",
"n. c #88522F",
"m. c #875230",
"M. c #885230",
"N. c #895331",
"B. c #8A5230",
"V. c #8A5330",
"C. c #8A5331",
"Z. c #8B5431",
"A. c #8D5532",
"S. c #8E5532",
"D. c #8D5632",
/* pixels */
"$ $ $ $ $ $ % & % % % & & & % % & & $ % * * * = = = * * * * & $ % % $ & * * * * = = = = * * * & % % % % $ $ $ $ $ $ $ $ $ $ $ $ ",
"S Q S S k S Q k Q Q Q Q Q p.b.b.b.b.Q Q S a Q k a Q Q Q k a S Q Q Q Q p.b.b.j.Q Q Q S k a S Q Q Q Q b.Q Q Q S Q Q Q I I I I Q Q ",
"Q S a a a a a : a a a S Q Q S S Q Q Q Q Q Q Q Q Q Q Q Q Q Q p.Q Q Q Q k a a a a S S Q Q Q Q Q Q S a a S Q k a a a a a a a a a a ",
"S k a a a a m S Q Q S k k a a Q k a Q S a a a a a k S S S S a a a a a S Q Q Q S S Q a a a k k a Q Q Q a a Q Q Q Q Q Q Q Q k a a ",
"a : a a a a a a a S a k S Q Q k a a a a Q Q Q Q Q S S S S S Q Q Q Q S a a a a S S Q Q Q p.b.Q Q Q Q Q k k Q Q Q Q Q Q Q S Q Q a ",
"S a a a a a a S S k Q Q a a S Q b.Q Q Q Q Q a a a a a a a a a k S a a Q Q Q Q p.p.Q Q Q Q Q k a k S I Q Q Q Q Q Q Q S Q a a Q p.",
"m a Q Q Q Q Q a S a S S a Q Q a Q Q b.p.p.p.p.p.Q Q Q Q Q S S Q Q Q p.p.p.p.p.Q Q Q S m m S m m Q Q Q Q p.Q Q a k S S S S Q Q Q ",
"= = = = = = = = = = * & * * = & $ & & * = = = = = = = = = = = = = = = = * & & & & & * * * * * = = = = = = = * & * = = = = = = = ",
"Q Q Q Q Q S m m Q Q Q Q Q Q Q Q Q S a a a a m m a a a m m a a a m a a a k a a S Q Q Q Q Q Q Q Q Q Q Q Q Q Q S a : a a Q S k S Q ",
"m S S k k a m a k k a a a a k Q a a Q I Q Q Q Q Q Q S a a Q Q Q Q Q Q Q Q p.Q Q Q Q Q Q Q Q Q Q Q Q Q a a k a Q p.Q Q I a a a S ",
"a a S S S S S Q Q Q Q Q Q b.p.Q Q k a a a k Q S Q Q S k k k k k S S k Q a Q Q S Q k k S k S k k k S a Q Q Q Q a a a a Q Q Q Q Q ",
"Q Q Q Q Q Q Q Q Q Q Q S a k Q Q Q Q p.Q S S a a a a Q Q Q Q Q Q Q Q Q Q Q Q Q Q S S a a a a S k m S m Q Q S a a a Q Q Q Q Q Q Q ",
"a a a S Q Q Q S a Q Q Q Q Q Q k a a I S m Q I a k a k a a Q Q Q Q Q k Q Q k Q Q Q p.p.p.Q Q S S S m Q Q a a a Q Q m m a a a a a ",
"j.j.j.j.b.Q Q M.Q a S Q Q m.j.M.M.M.M.j.Q Q Q j.b.j.b.M.j.a m Q Q Q Q Q Q Q S Q S : : m a a m a S j.M.M.M.M.j.Q Q S S S S S S S ",
"$ $ $ $ $ $ $ # o . o $ $ $ $ $ $ $ $ $ # # # # # # $ $ $ $ $ # # o o o o o . . . o o o # # # # $ $ $ $ $ $ $ $ # $ # # # o # # ",
"% $ $ $ $ $ $ $ $ $ $ $ $ O $ $ $ % % $ $ $ $ $ O O O $ $ % % $ $ $ $ $ $ $ $ $ % % % % % % % % % $ $ $ $ $ $ $ $ $ $ $ $ $ $ O ",
"X + X + + X + + X + + + + + + + +   X X + + + + + + + + + + X + + + + @ @ @ @ + X + + + + + + X + + + + + + + + + + + + + + + + ",
"- - - - - - - - - - - - - - - - - - - - - - - - - ; - - - - - - - - - - - - - - - - - - - - - - - - - - - - - - - - - - - - - - "
};
