/* XPM */
static char *tile_roof[] = {
/* columns rows colors chars-per-pixel */
"64 64 61 1 ",
"  c #040001",
". c #080003",
"X c #0D0C0C",
"o c #131313",
"O c #292828",
"+ c #3A3C3B",
"@ c #454545",
"# c #484747",
"$ c #484847",
"% c #484748",
"& c #4C4B4B",
"* c #504F4F",
"= c #50504F",
"- c #545454",
"; c #585757",
": c #585758",
"> c #5B5B5B",
", c #605F5F",
"< c #60605F",
"1 c #686667",
"2 c #656866",
"3 c #676969",
"4 c #6C6C6C",
"5 c #706F6F",
"6 c #70706F",
"7 c #706F70",
"8 c #737272",
"9 c #7C7C7C",
"0 c #FF00FF",
"q c #FF00FF",
"w c #FF00FF",
"e c #807F7F",
"r c #80807F",
"t c #FF00FF",
"y c #FF00FF",
"u c #838383",
"i c #888787",
"p c #878887",
"a c #888887",
"s c #878788",
"d c #888788",
"f c #898989",
"g c #908F90",
"h c #989797",
"j c #989897",
"k c #989798",
"l c #9D9D9D",
"z c #A09FA0",
"x c #A3A3A3",
"c c #A8A7A7",
"v c #AFAEAF",
"b c #B0AFAF",
"n c #AFB0AF",
"m c #AFB0B0",
"M c gray69",
"N c #B1B0B0",
"B c #B6B4B5",
"V c #B8B7B7",
"C c #B8B7B8",
"Z c #B7B8B8",
"A c #B8B9B8",
/* pixels */
"                                                                ",
"2222222222222222222222222222222222222222222222222222232232222223",
"BBBBBBBBBBBBBBBBBBBBBBBBBBBBBBBBBBBBBBBBBBBBBBBBBBBBBvBBBBBBBBBB",
"uuuuuuuruuuuuuuuurrruuuuuuuuuuuuuuuruuurruuuuuuuuuuu94uuuuuuuuuu",
"uuufuuuu89suuuuuuuuuu6uuuuuuuuuuui94uuu4uuuuuuf88fuuuuu4uuuuiuuu",
"uuu8uuuu9upuuuuuuuuuu9uu8ruuu99uuau9uuu9uuuuuui99uuuuuu88uuu8euu",
"uuu8uuuufuruuuuuuuuu9fau89aua99uuuufuuupu9uuupufduuuuuuu8uuu8uuu",
"uuuuuuuuuu48uuuuuuu92uuuuuuuuuuuuuuuuuuuu29uuuuuuuuuuuuuuuuuuuuu",
"1222222222>>222222>>>22222222222<22222222>22222222222222<2222<22",
"O@@@#&@@@@@@@@@@&@@@@@@@@@@@@@@@$@@@@@@@@@@@@@&@@@@@@@@@@@@@@@@O",
" &--&+&-**---&-%@-----------*--@@----------*--@@----------+&--& ",
"X9ff9@9fiuuuuuf2-fpiupuufffduuf2-fuuauuufauiuf-2gdffffddfu@9ffrX",
"XlBvx>cbvvvvvvBu4BvvvvvvvvvvvxBu4BvvvvvvvvvvvA89Bvvvvvvvvv2lvvxo",
"XxBBv29vBBBBBBx49ABBBBBBBBBBBBl29ZBBBBBBBBBBhu4fABBBBBBBBu2xBBvo",
"XxBBv22fvBBBBc9-9ZBBBmBBBBBBBc9-9BvBBBvvvvBl82>fBnBBBbBmh2>xBBvo",
"XxBBv2u>xBBBAu489ABBBBBBBBBmA9888BvBnmvvvvB48h4uAmBBBBBv2u2xBBvo",
"XxBBx>>lBmBBvBu=9BvBBBBBBmBBvv9-9Bvbvvvvvvvv4>-uBvBBbbbBx>>xBBxo",
"XxAAv>fBABVBBAv49ABBBBBBBBBBBAv49ABBBBBBBBBAlk4uABBBBBBBCh,cAAvo",
"Xfllh<hlllllljx94ljllllllllllhz94lhjhhhhhllklx68lkllllllll>fllhX",
"X->->>----->--->>-------------->;----------:-->>------>:-->>;;-o",
"xvvvvvvvvvvvvvvvvvvvvvvvvvvvvvvvvvvvvvvvvvvvvvvvvvvvvvvvvvvvvvvx",
"llllllllllllllhfllllllllllljllllllllllllllljjlllllllllllllllllll",
"9u9uuu9uuuuuuu88uuuuu9uuuuuuuuuuuuuuuuuuu9uuuuuuuu99uuuu9ue9uuuu",
"ur8uuu4uuuuuuuppuuuuu4uuuuuuuuuuuuuuuuuuu49uuuuuup88uuuu4uu49uuu",
"uuuffsuufffffaaif94fuuufpuf89ff98fufu4dfuuuuf89fuuuuuusuuuuuuudi",
"8475778557757755742588755782488418784188888584485578887785685478",
"++++++++++++++++++++++++++++++++++++++++++++++++++++++++++++++++",
"                .    .        . .. .    ..          .           ",
"0000000000000000000000000000000000000000000000000000000000000000",
"yyyyyyyyyyyyyyyyyyyyyyyyyyyyyyyyyyyyyyyyyyyyyyyyyyyyyyyyyyyyyyyy",
"qqqqqqqqqqqqqqqqqqqqqqqqqqqqqqqqqqqqqqqqqqqqqqqqqqqqqqqqqqqqqqqq",
"qqqqwtyyttttttytttttttttqqqtttyytyqqttyyytttyyttttyyttyyytyyttww",
"qqqqttttttttttttttytttyttqttyyyyttqqyyyyttyyyyyyyyyyyttyyytttyww",
"qqqqtttttyyttttttyytttttyqqqyyyytqqqyyyytttyyyyyyyyyytttyyttqqww",
"qqqqqttttttqtttqqtyttqqqyqqqqqyyqqqqwwyyqqqtytttyyyyyttqqqqqqqwt",
"qqqqqtttttttttqqqtqttqqqtqqqqqtqqqqwqqqqqqqqqttttttttqtqqqqqqqqq",
"qqqqqqqqtttttqqqqttqqqqwqqqqqtqqqqqwqqqqqqqqqqtqqqttyytqqqqqqyyy",
"qwqqqqqqqqqtttqqqtttqqqqqqqqqyqqqqqqqqqqqqqqqqqqwqqtyyqyqqqqwtyy",
"wwqqqtqqqqqqtqqqqtqtttqqqqttyywwqqyyyqqqqqqqqqqqwqqqwqqqqqqqwqww",
"wwqqqttqqttqqqqqqtqqttqqqqtyyyywqwwyyywwwqwwwwqqqqqqwwqwqqqwwqww",
"qwqqqqqqqttqqqqqqtqqttqqqqtyyyyywwwwyyywwqqywwqqqqqqwwtqqqqwwwwq",
"qqqqqqqqqqqqqqqqtqqqttqqttqwyyywwqqqqwyywqyyyqqqqqqqwqqqqqqwwwww",
"qqqqqqqttqqqqqqtttqtttqqqtqwywwwwqqqqqqqqqwyyqqqqqqqqqqqqqywwqwy",
"qqqqqqqttqqqqqqtttttqqqqtyqqywwqqqqqqqqqqqqqtqqqqqqqqqqqqqwwwqyy",
"qqqqqqttttqqqqqqttqqqqqyyyqqwwqqqqqqqqqqqqqqqqqwqqqqqqqqqtyyqqyy",
"qqqqqqqtttttqqqqqqtqqtwwywwwwwwwqqqqyyytqqqqyywwqqwytqqtqtyyywww",
"qqtttqqqqtttqqqqqtttqyywwwwwwwwwqqqtyyqqqqqwywwwqwyyqqqytqtyywww",
"qytttqqyqttqqqwyyttttyyqqqwwwwwwqwytyqqqqqqqyywwqqqtqqqqqqqwywww",
"wytqqqyyqttqqqytwytytwyqqyywwwwqqqyyqqqqqqqqyywqqqqqqqqqqqqqywwq",
"qyqqqqwwyqqqqqtqqttyqqwwyyywwwyyqqwwqqqqqqqwyytqqqqqqqqwwqqqwwwy",
"qqqqqqqqqqqqqqqqqtttqqwwywwwwwywqqqqqqqqqqqqywwqqqwwqqqqqqwwqqyy",
"wqqqqqqqqqqqqqqqwwyywwwwyqwwyywwqqqqqqqqqqqqqwyyqqqqqqqqqqywqqww",
"wwyyqqqqqqqqtyqqqwwwwwwqqqwwyywwwqqqqqqqqqqqqwyqqwwqqqqqqwwwwwyy",
"wyyyqqwwqqqqqwwqqwwwwwwqqqqywywqwqqqqqqqqqqqqwyqqwwqqqqqqwwwwyyt",
"wyyyqqwqqqqqqqwqqwwwwwwqqqqwwyyywqqqqqqqqqqqqwwqqqwwqqqwqqqwwywt",
"qwwwwqqqwqqqqqqqqqwwqwqqqqwwwytwwwwqqwwwqqqqqqqqqwwwqqqwqqqwwwqw",
"qqwwqqqqwqqqqqqqqqqwqqqqqqwqqqqqqqwqqwwwqqqqqqqqqqwqqqqqqqqwqqqw",
"qqqqqqqqqqqqqqqqqqqqqqqqqqqqwwqqwqqqqqqqqwqqqqqqqqqqqqqqqqqqqqqq",
"qqqqqqqqtqqqqqqqqqqqqqqqqwwqwwqqwqqqqqwqqqqqwwqqqqqqqqqqqqqqqqqq",
"qqqqqqqqqqwwqqqqqqwqqwywwwwyywqqwqqqqqwwqqqqwwqqqqqqqqtqwqqqwqtq",
"qqqqqqqqqyywqqqqqqtqqwqqqqyyywqqqqqqqqqqqqqqqqqqqqqqqqttwwwwwqtt",
"qqqqqqwwqwywqwwwyytqwqqqqqyyyyqqwwqqqqqqqqqqqqqqqqqqqqtqqqwwqqqq",
"qqqqqqqqqqqqqqwwwwqqqqqqqqwwqqwqwqqqqqqqqqqqqqqqqqqqqwqqqqqqqqqw",
"wqqqqqqqqqqqqwwwqwwqqqqqqqqqqqqqqqqqqqqqqqqqqwqqqqqqqwwqwqqqqqqw"
};
