/* XPM */
static char *tile_wall_square[] = {
/* columns rows colors chars-per-pixel */
"64 64 200 2 ",
"   c #6E3426",
".  c #713A2E",
"X  c #70362B",
"o  c #743E32",
"O  c #764235",
"+  c #764439",
"@  c #7A463A",
"#  c #7C4A3E",
"$  c #7F4E44",
"%  c #7D7977",
"&  c #8D4635",
"*  c #8F4C3B",
"=  c #8C4937",
"-  c #9A4B36",
";  c #924E3D",
":  c #9C4E3B",
">  c #9D513D",
",  c #95513F",
"<  c #A0543F",
"1  c #955241",
"2  c #9F5744",
"3  c #9F5846",
"4  c #9D5C4A",
"5  c #975949",
"6  c #9D5F50",
"7  c #A15643",
"8  c #A05946",
"9  c #A15B4A",
"0  c #AC5C44",
"q  c #9C604F",
"w  c #9D6253",
"e  c #94695D",
"r  c #95675A",
"t  c #A1604F",
"y  c #AE634B",
"u  c #AF6047",
"i  c #B0664E",
"p  c #B06047",
"a  c #A66857",
"s  c #A46B5B",
"d  c #A66959",
"f  c #B26952",
"g  c #BF7259",
"h  c #8D6E66",
"j  c #8E6F68",
"k  c #936C62",
"l  c #996F63",
"z  c #8C726B",
"x  c #967066",
"c  c #92736B",
"v  c #9D7468",
"b  c #8C7975",
"n  c #837D7B",
"m  c #897571",
"M  c #937C76",
"N  c #9C7D75",
"B  c #937670",
"V  c #A47366",
"C  c #A57669",
"Z  c #A6786B",
"A  c #AA7A6D",
"S  c #AA7569",
"D  c #AB7E72",
"F  c #B87661",
"G  c #C1745C",
"H  c #D27B5D",
"J  c #D1775A",
"K  c #C27860",
"L  c #D27E62",
"P  c #81807F",
"I  c #988077",
"U  c #9A8279",
"Y  c #978077",
"T  c #B8826F",
"R  c #A3857B",
"E  c #AD8378",
"W  c #B08376",
"Q  c #BA8470",
"!  c #B2857A",
"~  c #B4897D",
"^  c #CA866E",
"/  c #CB826A",
"(  c #D28266",
")  c #D88467",
"_  c #D28368",
"`  c #D88568",
"'  c #DB896D",
"]  c #D6886D",
"[  c #CD8971",
"{  c #C68B78",
"}  c #D18D75",
"|  c #CD917D",
" . c #D1927B",
".. c #838483",
"X. c #8A8584",
"o. c #858788",
"O. c #86898A",
"+. c #898C8D",
"@. c #938E8D",
"#. c #938784",
"$. c #95908F",
"%. c #99908F",
"&. c #8A8E90",
"*. c #8D9293",
"=. c #939596",
"-. c #969B9E",
";. c #9B9C9C",
":. c #989695",
">. c #A68F88",
",. c #A78D85",
"<. c #B38C82",
"1. c #AC948D",
"2. c #B4958C",
"3. c #B8968D",
"4. c #BA998F",
"5. c #B79287",
"6. c #A19F9E",
"7. c #AE9A95",
"8. c #BB9C93",
"9. c #BB9F98",
"0. c #BDA29B",
"q. c #B2A19D",
"w. c #979EA0",
"e. c #999EA1",
"r. c #9DA3A5",
"t. c #9FA6A8",
"y. c #A1A6A7",
"u. c #A0A6A9",
"i. c #A4AAAB",
"p. c #AAACAD",
"a. c #ADA5A3",
"s. c #BDA7A1",
"d. c #BDA9A4",
"f. c #B6A8A6",
"g. c #B7B0AE",
"h. c #A7AEB0",
"j. c #A8AEB0",
"k. c #ADB2B4",
"l. c #AEB5B8",
"z. c #B3B4B5",
"x. c #BDB4B2",
"c. c #B5B7B8",
"v. c #B6BBBD",
"b. c #BDBDBD",
"n. c #CC9784",
"m. c #D29682",
"M. c #D19985",
"N. c #D29E8C",
"B. c #D2A08F",
"V. c #CCA89C",
"C. c #D1A191",
"Z. c #D0A89A",
"A. c #C1AAA3",
"S. c #C8AFA7",
"D. c #D2AFA3",
"F. c #CCB0A7",
"G. c #C3B1AC",
"H. c #CEB5AC",
"J. c #D2B6AC",
"K. c #D4B8AE",
"L. c #D1B2A7",
"P. c #C3B5B2",
"I. c #C4B9B6",
"U. c #CDB9B2",
"Y. c #C4BCBA",
"T. c #C8BDBA",
"R. c #D5BBB2",
"E. c #D4BEB6",
"W. c #C6C1BF",
"Q. c #C9C1BE",
"!. c #D2C2BD",
"~. c #B7BDC0",
"^. c #B9BEC1",
"/. c #BDC3C4",
"(. c #BFC5C8",
"). c #C3C4C4",
"_. c #CBC5C3",
"`. c #CDC8C7",
"'. c #C1C6C8",
"]. c #C4C9CB",
"[. c #CECECE",
"{. c #CDCCCC",
"}. c #D0C7C4",
"|. c #D1C8C6",
" X c #D1CDCD",
".X c #D1D0CF",
"XX c #CDCFD0",
"oX c #C7CFD2",
"OX c #D2CFD0",
"+X c #CED2D3",
"@X c #CED5D8",
"#X c #D1D1D1",
"$X c #D2D3D4",
"%X c #D2D7D8",
"&X c #D3D8DA",
"*X c #D5DBDC",
"=X c #D4DADC",
"-X c #D8DCDD",
";X c #D8D7D6",
":X c #D7DFE1",
/* pixels */
"2 2 > 2 2 2 2 2 3 : D $X[.[.[.).....................................P ..% z.$X[.[.[.[.$X[.[.[.[.[..X$X$X$X$X$X$X[.[.b...b.$X[..X",
"I.I.I.I.I.I.I.I.T.I._.&X*X*X*X+X(.(.).).].-.=.b.b.b.b.b.(.).).).).(.(.(.(.+X*X*X*X*X].t.+X*X*X*X*X^.;.;.;.v.$X[.&X*X+X(.+X*X&X*X",
"9.0.0.0.0.0.0.0.0.0.8.8.8.8.8.8.8.8.8.8.8.N >.-X$X$X*X$X0.8.8.8.8.8.8.8.8.8.8.8.8.8.2.c 2.8.8.8.8.R M p...p.$X+X0.8.8.8.8.4.4.4.",
": : : : : : : : : : : : : : > > : : : : : : V T.[.[.[.T.2 - : : : : : : : : : : : : > 8 : : : : : : d ).=.z.[.I.8 : > : : : : : ",
"8 8 8 8 8 8 8 8 8 8 8 8 8 8 8 8 8 8 8 8 3 8 * O _.p.M 8 8 8 8 8 8 8 8 8 8 8 8 8 8 8 8 8 8 8 8 8 3 8 1 o z.*XG.2 3 8 8 8 8 8 3 8 ",
"8 8 3 8 8 8 8 8 8 8 8 8 8 8 8 8 8 8 8 8 2 8 ; @ [.i.z 8 3 8 8 3 3 3 8 8 8 8 8 8 2 2 8 8 8 8 2 2 2 8 , o I.*XG.> 2 2 8 2 2 2 2 2 ",
"8 8 8 8 8 8 8 8 8 8 8 8 8 8 8 8 8 8 8 8 2 8 ; @ |.i.z 8 3 8 8 8 3 3 3 3 2 8 2 3 2 3 8 8 8 8 2 2 2 8 , o I.*XG.2 8 8 2 2 2 2 3 3 ",
"8 8 8 8 8 8 8 8 8 3 3 3 8 8 8 8 3 8 8 8 3 8 ; + _.p.b 8 8 8 8 8 8 3 3 3 3 3 3 8 3 3 8 8 8 8 8 8 2 8 , . P.*XG.2 8 8 2 8 2 2 3 3 ",
"3 8 8 8 3 8 8 3 3 3 3 3 3 3 3 3 3 8 8 8 3 8 ; @ ).&Xs.2 8 8 8 8 8 3 3 3 3 3 3 8 8 3 8 8 3 8 8 3 3 8 1 o z.*XG.2 8 8 8 8 8 8 8 8 ",
"8 8 8 8 8 8 8 8 8 8 8 8 8 8 8 8 8 8 8 8 8 8 & . W.*XA.- 8 8 8 8 8 8 8 8 8 8 8 8 8 8 8 8 8 8 8 8 8 8 ;   z.*XG.- 8 8 < : > > > > ",
"r e e e e e e e e e e e e e e e e e e e e e k N _.$XI.W l e e e e e e e e r e e e e e r e e e e e e v N ).&XT.E k e v <.~ W W W ",
"*.*.*.*.*.*.*.*.*.*.*.*.*.*.*.*.*.*.*.*.*.+.y.-X$X.X$X+X=.*.*.*.*.*.&.o.+.*.*.*.*.*.&.&.*.*.*.*.*.&.t.-X$X[.$X$Xe.=.y.+X+X$X$X$X",
"XX[.XX[.XX+X+X+X[.[.[.[.[.[.[.[.[.[.[.[.[.[.[.+X$X$X+XXX[.[.XXXXXXXXc...).[.[.[.[.[.[.[.XXXXXX[.[.[.XX+X+X+X+X+X+X$X).&.(.$X+X+X",
"m.m.m.m.M.M.M.m.M. .D.*X$X$X+X[.M.m.m.m.M.M.m.m.m.m.m.m.m.m.m.m.m. .{ Q  .E.*X[.[.+X}.m.m.m.m.m.m.m.m.m.m.m.m.m.M.m.| Q | m.m.m.",
"L L L L L ( L L L L { 0.z.[.|.Z.( L L L L ( ( ( ( ( L L L L L L L L ( _ L { d.[.XXT.C.L L L L L L L L L L L L L L L L ( L L L L ",
"_ _ _ _ _ _ _ _ _ _ g 3 $.(.J.H _ _ _ _ _ _ _ _ _ _ _ _ _ _ _ _ _ _ _ ^ ] 0 s $X$XN.H _ _ _ _ _ _ _ _ _ _ _ _ _ _ _ _ ( _ _ _ _ ",
"( _ _ _ _ _ _ _ ( _ g w [.$XF.L _ _ _ _ ( ( _ _ _ _ _ _ _ _ _ _ _ _ _ _ _ i Z $X$XC.L _ ( ( ( ( ( ( ( ( ( ( ( ( ( ( ( ( ( ( ( ( ",
"_ _ _ _ _ _ _ _ _ _ g q |.&XD.L _ _ _ _ ( ( _ _ _ _ _ _ _ _ _ _ _ _ _ _ _ i Z $X+XB.L _ ( ( ( ( ( ( ( ( ( ( ( ( ( ( ( ( ( ( ( ( ",
"_ _ _ _ _ _ _ _ ( _ G 3 p.].L.L _ _ _ _ ( ( _ _ _ _ _ _ _ _ _ _ _ _ ( ( _ i V $X+XN.L _ ( ( ( ( ( ( ( ( ( ( ( ( ( ( ( ( ( ( ( ( ",
"_ _ _ _ _ _ _ _ _ ] K w @.(.J.( _ _ _ _ _ _ _ _ _ _ _ _ _ _ _ _ _ _ _ ( _ i V $X+XC.L _ _ _ _ _ _ _ _ _ _ _ _ ( _ _ _ _ _ _ _ _ ",
"( ( ( ( ( ( ( ( ( ' G t [.&XJ.H ( ( ` ` ` ` _ ` ( ( ( ` ( ( ` ( ` ( ` _ ' p s $X$XB.H ( L L L L L L L L ( ( ( L L L L L L L L L ",
"Y U U U U U U U U M >.P.$X$X|.F.U Y U U U U U U U U U U U U U I I U U U U 1.P.[.$X}.0.U F.R.R.U.R.R.T.T.,.U 1.R.T.T.T.U.T.R.R.T.",
"t.t.t.t.t.t.u.u.u.t.l.*Xb.[.$XXXt.t.u.u.u.u.t.t.t.t.t.t.t.u.t.t.t.t.t.t.t.(.*X+X+X&X].h.+X(.^.*X^.].&X+Xp.y.k.$X$X&X@X+X@X@X@X+X",
"}.}.|.|.}.}.}.|.|.|._.T.X.g._.Q.|.|.|.|.}._.`.$X$X$X$X$X_.}.|.|.|._._._._._._._._.Q._._._.:.@.`.@.a._.[.$X$X$X[._.Q._._._.Q.Q.Q.",
"8 8 8 8 8 8 8 8 8 8 8 8 3 3 8 8 8 8 8 8 3 2 D *X[.[.$X[.t 2 8 8 8 8 8 8 8 8 8 8 8 8 8 8 3 3 3 8 8 2 S *X$X[.+X$Xs 2 8 8 8 8 8 8 ",
"8 8 8 8 8 8 2 8 8 8 8 8 2 2 2 8 8 8 8 2 2 2 5 k _.*XT.S 3 2 2 2 2 2 2 2 2 2 2 2 2 2 2 2 2 2 2 2 2 2 3 x $.b.}.A 3 2 2 2 2 2 2 2 ",
"8 8 8 8 8 8 8 8 8 8 8 8 8 8 8 8 8 8 8 2 2 8 ; o _.].1.: 3 2 2 3 3 3 3 3 2 2 3 3 2 2 3 3 3 2 2 3 2 8 ,   % t.q.: 2 2 2 3 3 3 3 3 ",
"8 8 8 8 8 8 8 8 8 8 3 3 2 2 2 8 8 8 2 2 2 8 ; @ `.i.z 8 3 2 2 2 2 2 2 2 2 2 3 3 2 2 2 2 2 2 2 2 2 8 1 O #.*.b 2 3 2 3 3 2 2 3 2 ",
"8 8 8 8 8 8 8 2 2 3 3 3 3 3 2 2 2 2 2 2 2 8 ; @ `.i.z 8 3 3 3 2 2 2 2 3 3 3 3 3 2 3 2 2 3 3 3 3 2 8 1 o I.h.m 2 3 3 3 3 2 2 2 2 ",
"8 8 8 8 2 3 3 3 3 3 3 3 3 3 3 3 2 3 2 3 2 8 ; + _.].7.2 3 3 3 3 3 3 3 3 3 3 3 3 3 3 3 3 3 3 3 3 3 8 1 o P.].7.2 3 3 3 3 3 3 8 3 ",
"8 8 8 8 8 8 2 8 8 8 8 8 8 2 8 8 8 8 8 8 2 8 * o _.-XA.> 3 2 8 8 8 2 2 3 3 3 3 3 3 2 2 3 3 3 3 3 2 8 1 . z.*XP.> 2 2 2 2 2 2 2 2 ",
"3 3 8 8 8 3 3 3 8 8 3 3 3 3 3 8 8 8 8 3 3 8 1 $ _.*Xd.3 3 3 8 8 8 3 3 3 3 3 3 3 3 3 3 3 3 3 3 3 3 8 3 @ T.*XP.3 8 t 8 8 8 8 t 8 ",
"n n n n n n n n n n n n n n n n n n n n n % :.[.[.$X$XW.X.n n n n n n n n n n n n n n n n n n n n n @.[.[.[.[._.`.[.`._._._._._.",
"v.~.~.~.~.~.~.~.~.~.v.z.c.c.v.v.~.~.~.v.v.v.(.&X&Xk.k.*X(.^.~.v.v.v.v.v.v.c.z.z.z.v.v.v.v.v.v.v.v.v.(.&X+X+X+X+Xj.t.j.&X@X@X+X+X",
"R.R.R.R.R.R.R.R.R.K.!.&X$X$X$X$XR.R.R.R.R.R.R.F.K.1.1.R.R.R.R.R.R.R.R.R.J.|.*X$X$X!.R.R.R.R.R.R.R.R.K.F.F.F.F.F.,.U ,.J.J.F.F.F.",
"L L L L L L L L L H | [.[.[.[.Q.L H L L L L L L H L ( L L L L L L L L L J V.[.[.XXM.H L L L L L L L L L L L L L ( ( ( L L L L L ",
"_ _ _ _ _ _ _ _ _ _ K s |.&XF.( _ _ _ _ _ _ _ _ _ _ _ _ _ _ _ _ _ _ _ _ _ f D $X ._ _ _ _ _ _ _ _ _ _ _ _ _ _ _ ( ( _ _ _ _ _ _ ",
"( ( ( ( ( ( ( _ _ _ G q 6.'.J.H _ ( ( ( ( ( ( ( ( ( ( ( ( ( ( ( ( ( ( ( _ y V +X_ ( _ ( ( ( ( ( ( ( ( ( ( ( ( ( ( ( ( ( ( ( ( ( ",
"_ ( ( ( ( ( ( _ ( _ G 3 ..v.J.H _ ( ( ( ( ( ( ( ( ( ( ( ( ( ( ( ( ( ( ( _ y A $X_ ( _ ( ( ( ( ( ( ( ( ( ( ( ( ( ( ( ( ( ( ( ( ( ",
"( ( ( ( ( ( ( ( _ _ G 3 X.^.J.L _ _ ( ( ( ( ( ( ( ( ( ( ( ( ( ( ( ( ( ( _ y Z [.} ( _ ( ( ( ( ( ( ( ( ( ( ( ( ( ( ( ( ( ( ( ( ( ",
"_ ( ( ( ( ( _ ( _ _ G 5 ..(.E.L _ _ _ ( _ _ _ _ _ _ ( ( ( ( ( _ _ _ ( ( _ i r =.^ ( _ ( _ _ _ _ _ _ _ _ _ _ _ _ _ _ _ _ _ _ _ _ ",
"_ _ _ _ _ _ _ _ _ ' G 3 z.j.2.H ( ( ( ( ( ( ( ( ( ( ( ( ( ( ( ( ( ( ( ( ` 0 r b.^ L L ( L L L L L L L L L L L L L L L L L ( ( ( ",
"G g G G G G G G g G F <.$Xj.7.M.T T T Q Q Q Q Q Q Q Q Q Q Q Q T T T Q Q Q A <.$XN.N.M.Q n.M.M.M.M.M.M.M.M.M.M.M.M.M.M.N.N.n.Q Q ",
"3 3 3 3 3 3 3 3 3 1 E *X[.$X$X].o.o.o.+.o.o.o.o.o.o.o.o.o.o.o.o.o.o.o.o...z.$X[.[.+X(.*.[.$X+X+X+X+X+X+X+X+X+X+X+X+XXX[.&Xz.+.&.",
"[.[.[.[.[.[.[.[.[.[.+X&X*X*X&X$X+X+X$X+X*.z.+X).[.[._._.XX+X+X+X+XXX[.XXXX+X&X+X;.*.u.$X$X$X$X$X$X$X$X[.[.[.|.|.$X*X].=.].&X+X+X",
"E W W W W W W W W W W W W W W W W W W W e V 8.*X$X$X$X$X<.W W W W W W W W W W W v e l W W W W W W D 2.*X$X[.$X$X2.W E e D W W ~ ",
": : : : : : : : : : : : : : : : : : : : > - w f.[.$X`.A.2 : : : : : : : : : : > 8 8 2 : : : : : > - 6 f.[.$X_.s.8 : > 8 : : : : ",
"8 8 8 8 8 8 8 8 8 8 8 8 8 8 8 8 8 8 3 8 3 8 * . W.&Xs.: 8 8 3 3 3 3 8 8 8 8 8 8 3 3 3 8 3 3 3 3 3 8 1 X z.*XG.: 8 8 8 3 3 8 8 3 ",
"8 8 8 8 8 8 8 8 8 8 8 8 8 8 2 2 2 2 2 2 2 8 ; @ _.k.M 8 8 8 3 3 3 2 2 2 2 2 2 3 3 3 8 3 3 3 2 2 2 8 1 o #.-.#.8 2 2 2 3 3 2 2 2 ",
"8 8 8 8 8 8 8 8 8 8 8 8 8 2 2 2 2 3 2 2 2 8 ; @ |.i.z 8 3 8 3 3 3 3 3 3 3 3 3 3 3 3 3 3 3 3 3 2 2 8 1 O n u.q.2 8 3 2 3 3 2 2 2 ",
"8 8 8 8 8 8 8 3 8 8 8 8 8 3 2 2 2 3 3 3 2 8 ; @ `.v.U > 8 8 8 3 3 3 3 3 3 3 3 3 3 3 3 3 3 3 3 3 2 8 1 O %.'.T.> 8 3 3 2 2 2 2 2 ",
"8 3 3 8 8 3 3 3 3 3 3 3 3 3 3 3 3 3 3 3 3 8 ; @ _.*XA.2 8 8 8 8 8 3 3 3 3 3 3 3 8 8 8 3 3 3 8 8 3 8 1 O T.*XG.2 3 8 8 3 8 8 8 8 ",
"8 8 8 8 8 8 8 8 8 8 8 8 8 8 8 8 8 8 8 8 8 8 & . _.*XA.- > : : : : < 8 8 8 8 8 8 > : > 8 8 > > > : : & X I.*XG.- 8 > : : : : : : ",
"z z z h h h h h h h j h h c c j h j j h z h B 7.[.$XT.3.8.8.8.8.8.R h j h h h c 2.8.,.h h R 8.8.8.8.2.>._.$X_.3.c R 8.8.8.8.3.4.",
"e.e.w.w.-.-.w.e.e.w.-.-.e.*.*.t.e.e.e.e.e.-.i.XX$XXX+X&X&X&X*X&X*Xk.-.e.-.-.-.t.+X*X(.e.-.^.*X&X*X*X*X*X$X[.).*Xi.^.&X'.].[.*X*X",
"$X$X$X$X.X|.|.|.|.|.|.|.;X;.;.$X$X$X$X$X.X$Xb.=.[.[.[.[.[.[.[.[.[.[.$X$X$X$X$X$X[.[.|.$X|.[.[.[.[.[.[.[.$Xp.6.$X|.$XT.@.+.p..X[.",
"d d a a t t t t s t 5.:X[.).].[.} } } } } } [ ^ } } } } } } } } } } } } } R.*X[.@XZ.}  .} } } } } } } } } ^ [  .} } } ^ ^ [ } } ",
"8 2 2 2 2 2 2 2 2 > w U _.&X!.M.L ( ( ( ( ( ( ( ( ( ( ( ( ( ( ( L L L L L { d.+XV.} L ( ( ( ( ( ( ( ( ( ( ( ( ( ( ( ( ( ( ( ( ( ",
"8 8 8 8 8 8 8 8 8 8 = o _.oXV.H ( ( ( ( _ _ _ ( _ _ _ ( ( _ _ _ _ _ ( ( _ u V $X_ L _ _ _ _ _ _ _ _ _ _ _ _ _ _ _ _ _ _ ( ( _ _ ",
"8 8 8 8 8 8 8 8 8 8 ; $ |.u.R ` ( ( ( ( ( ( ( ( ( ( ( ( ( ( ( ( ( ( ( ( _ y Z $X} ( _ ( _ _ _ _ _ ( _ _ _ _ _ _ ( ( ( _ _ _ _ ( ",
"8 8 8 8 8 8 8 3 2 8 * @ [.t.R ` _ ( ( ( ( ( _ _ _ ( ( ( ( ( ( ( ( ( ( ( _ y V $X} ( _ ( ( ( _ _ _ _ _ _ _ _ _ _ ( ( _ _ _ _ _ ( ",
"8 8 8 8 8 8 8 8 2 8 ; @ [.t.R ` _ ( ( ( ( _ _ _ _ ( ( ( ( ( ( ( ( ( ( ( _ y V $X} ( ( _ _ ( _ _ _ _ _ _ _ _ _ _ _ _ _ _ _ _ _ _ ",
"8 8 8 8 8 8 8 8 8 8 * @ [.t.R ` _ ( ( ( ( ( _ _ _ ( ( ( ( ( ( ( ( ( ( ( _ y Z $X} ( ( ( ( _ _ _ _ ( ( _ _ _ _ _ _ _ _ _ _ _ _ _ ",
"8 8 8 8 8 8 8 8 8 8 * + [.u.R ` _ ( ( _ _ _ _ _ _ ( _ _ _ _ _ _ _ ( ( ( _ i A $X} L ( ( ( _ _ _ _ _ _ _ _ _ _ _ _ _ _ _ _ _ _ _ "
};
