/* XPM */
static char *tile_floor[] = {
/* columns rows colors chars-per-pixel */
"64 64 183 2 ",
"   c #472816",
".  c #4B2A17",
"X  c #4E2C19",
"o  c #502C17",
"O  c #532E19",
"+  c #582F19",
"@  c #56311A",
"#  c #5B331C",
"$  c #61361D",
"%  c #63391F",
"&  c #673B21",
"*  c #6A3D22",
"=  c #713F22",
"-  c #744325",
";  c #754325",
":  c #754224",
">  c #764224",
",  c #774224",
"<  c #764324",
"1  c #774324",
"2  c #764225",
"3  c #774225",
"4  c #764325",
"5  c #774325",
"6  c #744326",
"7  c #754124",
"8  c #744425",
"9  c #754425",
"0  c #774424",
"q  c #764425",
"w  c #774425",
"e  c #744426",
"r  c #754426",
"t  c #764426",
"y  c #774426",
"u  c #764526",
"i  c #774526",
"p  c #774527",
"a  c #754123",
"s  c #784323",
"d  c #784324",
"f  c #794324",
"g  c #784325",
"h  c #784424",
"j  c #794424",
"k  c #784425",
"l  c #794425",
"z  c #794525",
"x  c #7A4425",
"c  c #7A4525",
"v  c #7B4525",
"b  c #794625",
"n  c #7A4625",
"m  c #7B4625",
"M  c #7A4426",
"N  c #7B4426",
"B  c #7A4526",
"V  c #7B4526",
"C  c #784627",
"Z  c #7A4626",
"A  c #7B4626",
"S  c #7B4726",
"D  c #7A4627",
"F  c #7B4627",
"G  c #7C4625",
"H  c #7C4626",
"J  c #7C4726",
"K  c #7D4726",
"L  c #7C4727",
"P  c #7D4727",
"I  c #7E4727",
"U  c #7A4525",
"Y  c #7C4827",
"T  c #7D4827",
"R  c #7E4827",
"E  c #7E4827",
"W  c #7D4728",
"Q  c #7D4828",
"!  c #7E4828",
"~  c #7E4928",
"^  c #7F4928",
"/  c #7E4929",
"(  c #7F4929",
")  c #7F4A29",
"_  c #7F4928",
"`  c #804828",
"'  c #804928",
"]  c #814928",
"[  c #804929",
"{  c #804A28",
"}  c #814A28",
"|  c #804A29",
" . c #814A29",
".. c #814B29",
"X. c #824B28",
"o. c #834B28",
"O. c #824B29",
"+. c #834B29",
"@. c #80492A",
"#. c #804A2A",
"$. c #814B2A",
"%. c #824B2A",
"&. c #834B2A",
"*. c #844B29",
"=. c #824C29",
"-. c #834C29",
";. c #814C2A",
":. c #824C2A",
">. c #834C2A",
",. c #834D2A",
"<. c #824C2B",
"1. c #834C2B",
"2. c #824D2B",
"3. c #834D2B",
"4. c #844C2A",
"5. c #844D2A",
"6. c #854D2A",
"7. c #844C2B",
"8. c #854C2B",
"9. c #844D2B",
"0. c #854D2B",
"q. c #864D2A",
"w. c #864D2B",
"e. c #874D2B",
"r. c #844E2B",
"t. c #854E2B",
"y. c #854F2B",
"u. c #864E2A",
"i. c #874E2A",
"p. c #864E2B",
"a. c #874E2B",
"s. c #864F2B",
"d. c #874F2B",
"f. c #844D2C",
"g. c #854D2C",
"h. c #864D2C",
"j. c #844E2C",
"k. c #854E2C",
"l. c #854F2C",
"z. c #854E2D",
"x. c #864E2C",
"c. c #874E2C",
"v. c #864F2C",
"b. c #874F2C",
"n. c #864E2D",
"m. c #864F2D",
"M. c #874F2D",
"N. c #854D2B",
"B. c #894F2A",
"V. c #884E2B",
"C. c #884F2B",
"Z. c #894F2B",
"A. c #884E2C",
"S. c #884F2C",
"D. c #894F2C",
"F. c #884F2D",
"G. c #884F2C",
"H. c #87502C",
"J. c #87502D",
"K. c #87502C",
"L. c #8A502B",
"P. c #88502C",
"I. c #89502C",
"U. c #88502D",
"Y. c #89502D",
"T. c #89512D",
"R. c #8A502C",
"E. c #8A512C",
"W. c #8A512D",
"Q. c #8B512D",
"!. c #89512E",
"~. c #8B522E",
"^. c #8E532F",
"/. c #89502D",
"(. c #865231",
"). c #8B5432",
"_. c #905734",
"`. c #945B36",
"'. c #955E3A",
"]. c #9C623B",
"[. c #A0663F",
"{. c #A16740",
"}. c #A36941",
/* pixels */
"@ @ @ @ @ @ @ O O O O @ @ @ @ O O @ @ @ @ O O @ O O O O @ @ @ @ O O O O O O O O O O O O O @ O O O O O O O O O O @ @ @ @ @ O O O ",
"O O O O O O X X X X X X O O X X O O O O O O O O X X X X O O X X X X X X X O O O X X X X O O O O O X X X O X X X O O O O O X X X ",
"i i i i i i i i i i i i i i i i i i i i i i i i i i i i i i i i i i i i i * & & * * * * * * * * * * * * * * * i i i i D D i i i ",
"o.o.o.o.o.o.I.Z.o.o.o.o.o.o.o.o.o.H.I.I.Z.Z.Z.Z.o.o.o.Z.Z.Z.Z.Z.Z.o.o.o.~ i i = i i i L Y L L L i i L L L o.o.o.o.o.I.I.I.I.I.I.",
"i i i i i L o.o.o.o.o.o.o.o.o.o.o.o.o.o.o.o.o.o.o.o.o.o.o.o.o.o.o.i i i i i i i i i i ~ o.o.o.~ = i L L Y o.o.o.o.o.o.H.o.o.o.o.",
"i i i i i i i i i i i i i i i i i i ~ I.o.o.H.H.o.o.Z.o.i i i i i i i i i i o.o.o.o.o.o.o.o.o.o.o.o.Z.o.o.o.o.o.o.o.o.I.o.o.o.o.",
"o.o.o.o.o.o.~ i i i i i i i i i i i i L L L L L L L L L i i i i i o.o.o.o.o.o.o.o.o.o.o.I.o.o.o.Z.Z.o.o.o.o.o.o.o.o.o.o.o.o.H.H.",
"H.H.H.o.o.I.o.L L L L L L L L L L L L L L L L L L L L L L L L L L o.o.o.I.I.o.o.o.o.o.o.Z.Z.Z.o.o.o.o.o.o.o.o.o.o.I.H.o.o.o.~ ~ ",
"o.o.o.o.o.o.o.Z.Z.o.o.o.o.o.o.Z.I.I.I.I.I.I.o.Z.I.I.I.I.Z.Z.Z.Z.Z.o.o.o.o.o.o.o.o.o.o.o.o.o.o.o.o.o.o.o.o.o.o.o.o.o.o.o.o.o.i i ",
"o.o.o.o.o.o.o.o.o.o.o.o.o.o.o.o.o.o.o.o.o.o.o.o.o.o.o.o.Z.o.o.o.o.o.o.o.o.o.o.o.o.o.Z.Z.o.o.o.Z.Z.Z.o.o.Z.o.i i i i i i i i i i ",
"I.I.o.o.Z.Z.Z.o.Z.I.I.I.o.o.o.o.I.o.o.o.o.o.o.o.o.o.o.o.o.o.o.o.o.o.o.o.I.I.I.o.L L L L L L L L L L L L L L i i i i i i i i i o.",
"o.~ ~ ~ o.~ ~ ~ o.o.o.o.~ ~ ~ ~ ~ o.I.I.I.I.o.o.Z.Z.Z.Z.Z.Z.Z.o.o.o.o.o.o.o.o.L = = i i i i i i i i i i i i i L Y L L L L Y Y o.",
"i i i i i i i i i i i i i i i i i o.o.o.o.o.o.o.o.o.o.o.o.o.o.o.o.o.o.L i i L i i L L L i i i i i i L L L L i o.Z.o.Z.Z.Z.Z.Z.o.",
"i i i i i i i i i i i i i i i i i i i i i i i i i i i i i i i i i i i i i i i i L o.Z.Y i i i i i i o.o.o.o.o.o.o.o.o.o.o.o.o.I.",
"o.o.o.o.o.o.o.o.o.o.o.o.o.L i i i i i i i i i i i i i i i i i i i i i i i i o.o.o.o.o.o.o.o.o.o.o.o.o.o.o.Z.Z.o.Z.Z.Z.Z.Z.I.I.L ",
"o.o.o.o.H.o.o.o.o.o.o.o.I.o.~ ~ ~ ~ ~ ~ Y Y Y Y Y Y ~ Y ~ ~ ~ ~ L L L Y ~ ~ o.Z.o.o.o.o.o.o.o.o.Z.o.o.o.o.Y Y Y L L Y Y Y ~ ~ i ",
"o.o.o.o.o.o.o.o.o.o.o.o.o.o.Z.Z.o.o.o.o.o.o.o.o.o.o.H.H.H.o.o.o.o.o.o.o.o.o.Z.Z.Z.Z.I.o.o.o.o.o.o.o.o.o.L i i i i i i i i i i i ",
"o.o.o.o.o.o.o.o.o.o.o.o.o.o.o.o.o.o.o.o.o.o.o.o.o.o.o.o.o.o.o.o.o.o.o.o.o.o.o.Z.o.I.Z.I.I.I.I.I.o.= i i i i i i i i i i i L L i ",
"i i i i L L L L L L L L L L L L L L L L L L L L L L L L L L L L i i o.Z.o.I.I.I.I.I.I.o.i L L L i i i i i i i i i L o.o.o.o.o.o.",
"o.~ o.o.i i i i i i i i i i i i i i i i i i i i i i i i i i i i i i L L L L Y ~ L L D i i i i i i i = ~ o.o.o.o.o.o.o.o.o.o.I.Z.",
"I.I.I.I.~ L L L L L L L L L L i i i i i i i i i i i i i i i i i i i i = i i i i i L L L L L L L L L L o.).I.I.I.Z.o.o.o.o.o.o.o.",
"o.o.o.o.I.I.Z.Z.o.Z.Z.I.I.I.o.i i i i i L i i i i i i i L L i i i i i i i i i L L I.Z.Z.Z.o.o.o.o.o.Z.Z.Z.I.Z.Z.o.o.o.o.o.o.Z.Z.",
"o.o.Z.Z.Z.Z.o.o.o.o.o.o.o.o.o.o.o.o.o.o.o.o.o.o.o.o.o.o.o.i i i i = o.~ = i o.o.o.Z.o.o.Z.o.o.o.o.o.o.o.Z.I.Z.Z.o.Z.o.o.o.o.o.o.",
"o.o.o.o.Z.o.o.o.o.o.o.o.H.o.H.H.o.o.o.o.o.o.o.o.o.Z.o.Z.Z.o.o.o.~ ~ o.o.o.o.o.o.o.o.o.o.Z.o.o.o.o.o.o.o.o.Z.Z.Z.o.o.o.o.o.o.o.o.",
"I.I.I.I.I.I.I.I.I.I.I.I.I.I.I.I.I.I.o.Z.o.Z.Z.Z.Z.Z.Z.I.Z.I.H.o.o.I.Z.I.Z.I.o.o.o.o.Z.Z.Z.Z.Z.Z.Z.Z.I.I.I.I.I.Z.Z.Z.Z.Z.Z.Z.Z.Z.",
"o.o.o.o.o.o.o.o.o.o.o.o.o.o.o.o.o.o.o.o.o.o.o.o.o.o.o.o.o.o.o.o.o.o.o.o.o.o.o.o.o.o.o.o.o.o.o.o.o.o.o.o.o.o.o.o.o.o.o.o.o.o.o.o.",
"# # # # # # # # # # # # # # # # # # # # # # # # # # # # # # # # # # # # # # # # # # # # # # # # # # # # # # # # # # # # # # # # ",
"@ @ @ @ @ @ @ @ @ @ @ @ @ @ @ @ @ @ @ @ @ @ @ @ @ @ @ @ @ @ @ @ @ @ @ @ @ @ @ @ @ @ @ @ @ @ @ @ @ @ @ @ @ @ @ @ @ @ @ @ @ @ @ # ",
"* * * * * * * * * * * * * * * * * * * * * * * * * * * * * * * * * * * * * * * * * * * * * * * * * * * * * * * * * * % % % % % % ",
"o.o.o.o.o.o.I.I.o.o.H.Z.I.I.I.I.I.I.I.I.I.I.I.I.I.I.I.I.I.I.I.I.I.I.I.H.H.I.I.I.I.I.I.I.Z.Z.o.o.o.o.o.o.o.o.o.o.o.o.i i i i i i ",
"i i i i = D I.o.o.o.o.o.o.o.o.o.o.o.o.o.o.o.o.o.o.o.o.o.o.o.o.o.o.o.o.o.o.o.o.o.o.o.o.o.o.o.i i i i i i i i i i i i i i i i i i ",
"i i i = = i L L L L L L L L L L L L L L L L L L L L L L L L L L L L L L L L L L L L L L L L i i = i i i i i L L ~ o.o.o.o.o.o.o.",
"L L D L L L L L i i i i i i i i i i i i i i i i i i i i i i i i i i i i i i i i i i i i i i D ~ ~ ~ ~ ~ ~ ~ o.o.o.I.I.I.I.Z.Z.Z.",
"o.o.Z.Z.Z.Z.Z.Z.L L L L L L L L L L L L L L i i i i i i i i i L L i i i i i L L L L L L L L o.I.Z.Z.Z.I.Z.Z.o.o.o.o.o.o.o.o.o.o.",
"o.o.o.o.o.o.o.o.Z.o.o.o.o.o.o.o.o.o.o.o.o.L i i i i i i i i o.o.o.o.o.o.o.o.o.o.o.o.o.o.o.o.o.o.o.o.o.o.o.o.o.o.o.o.o.o.o.o.o.o.",
"Z.Z.Z.I.o.o.o.o.o.o.o.o.o.o.o.o.o.o.o.o.o.o.o.o.o.o.o.o.o.o.o.o.o.o.o.o.o.o.o.o.o.o.o.o.o.o.o.o.o.o.o.o.o.o.o.o.I.I.I.I.I.I.I.I.",
"~ ~ ~ ~ o.I.Z.I.o.o.Z.o.o.Z.Z.I.Z.Z.Z.o.I.I.Z.I.o.o.Z.Z.o.Z.o.H.o.o.I.Z.Z.Z.o.o.o.o.Z.Z.Z.I.I.I.Z.Z.o.o.Z.Z.Z.o.~ ~ ~ ~ Y Y Y Y ",
"i i L i o.o.o.o.o.o.o.o.o.o.o.o.o.o.o.o.o.o.o.o.o.o.o.o.o.o.o.o.o.o.o.o.o.o.o.o.o.o.o.o.o.o.o.o.o.o.o.o.o.o.o.L i i i i i i i L ",
"L L L i i i i i i i i i i i i i i i i i i i i i i i i i i i i i i i i i i i i i i i i i i i i i i i i i i i i i i L i i i L o.o.",
"o.o.o.o.o.o.~ = i i i i i i i i i i i i i i i i i i i i i i i i i i i i i i i i i i i i i i i i i i i ~ o.o.o.o.o.o.o.o.o.o.o.o.",
"o.o.o.o.o.o.o.~ Y ~ Y o.o.o.o.o.o.~ ~ ~ ~ ~ ~ ~ ~ ~ ~ ~ ~ ~ ~ ~ ~ ~ ~ ~ ~ ~ ~ ~ ~ ~ ~ ~ ~ ~ ~ o.o.o.~ o.I.Z.Z.Z.I.I.I.I.o.o.o.o.",
"o.o.o.o.~ ~ o.o.o.o.o.o.o.o.o.o.o.o.Z.Z.Z.Z.Z.Z.I.I.I.I.I.I.I.I.I.I.I.I.I.I.I.I.I.I.Z.Z.I.I.I.I.Z.Z.Z.Z.Z.Z.o.o.o.Z.I.I.o.o.o.Z.",
"i i i i i i i i i i i i i i i i i o.Z.o.o.o.o.o.o.o.Z.o.o.Z.o.Z.I.I.Z.Z.o.o.o.o.Z.Z.o.o.o.o.o.o.o.o.Z.o.Z.Z.o.o.o.o.Z.I.o.o.Z.o.",
"i i i i i i i L L L L L i i i i i i L L L L o.I.Z.I.I.Z.I.I.I.I.I.I.I.Z.Z.Z.o.Z.Z.o.Z.Z.Z.Z.Z.I.Z.I.I.I.I.I.I.Z.o.o.I.L L L L L ",
"~ ~ o.o.~ o.o.i L L i i D ~ L = i i i i L i L L L L L L L D I.I.I.I.I.I.I.I.I.I.I.I.I.I.I.Z.~ ~ Y Y Y Y Y ~ Y L L L L i i i i i ",
"o.Z.o.I.I.I.Z.L L L L L o.o.o.L L L L L D L L L L i i i i = o.o.o.o.o.o.o.o.o.o.o.o.o.o.o.o.i i i i i L L L L L L L L L L L L L ",
"o.o.o.o.o.o.Z.o.o.o.o.o.o.o.o.o.o.Z.Z.I.Z.o.o.o.o.L i i L L i i i i i i i i i i i L L L L L L L L L L L L L L o.I.I.I.I.H.Z.Z.Z.",
"i i i L L o.I.o.o.o.o.o.o.o.o.o.Z.Z.I.I.I.Z.o.o.o.o.o.o.o.I.L i i i i i i i o.o.o.o.o.o.o.Z.o.o.o.o.o.o.o.o.o.Z.Z.Z.Z.Z.o.o.o.o.",
"i i i i i i i i i i i i i i i i L i i i i i L o.o.o.o.o.o.I.o.~ o.~ ~ o.o.o.o.o.o.o.o.H.I.I.H.H.H.H.o.o.o.o.o.o.Z.o.o.o.o.o.H.I.",
"_.).).o.o.H.(.(.H.).).).).).).).).).).).).).`.].].].].].`.o.o.I.I.I.I.I.I.I.I.I.I.Z.I.I.I.I.I.I.I.I.I.I.I.I.Z.Z.I.I.I.I.I.I.I.o.",
"[.[.'.).).'.{.{.].[.{.{.{.{.{.{.{.[.].[.[.[.{.{.{.{.{.{.].~ ~ ~ ~ ~ ~ ~ ~ ~ ~ ~ ~ ~ o.~ ~ o.o.o.o.o.o.o.o.o.~ o.o.o.o.o.o.o.o.i ",
". . . . . . . X X X X X . . . . . . . . . . . . . . . . . X X X X . . . X X . X . . . . X X X X X X X X X X X X . . . . X X X X ",
". . . . . . . X . . . . . .       . . . . . . .     .   . . . . . . . . . . . . . . . . . . . . . . . . . . . . . . . . . . . . ",
". o O O O O O O O o . . . . o o o O O O O O O O O O O O O O O O O O O O O O O O O O O O O O O O O O O O O O O O O O . . . X X X ",
"@ + O + O O O O O O O O O O # # # # # # # # $ $ $ $ $ $ $ $ $ $ $ $ $ $ $ $ $ $ $ $ $ $ $ $ $ $ $ $ $ $ $ $ $ $ $ $ O @ @ O O O ",
"O O O O O O O O O O o O O O O O o O O # @ @ # # # $ $ $ $ $ $ $ $ $ $ $ $ $ $ # O O O O O O O O O O O O O O O O o O O O O O O O ",
"# # # # # # # # # # # O O O O O O O O O O O O + # # # # $ $ $ $ $ $ $ $ # # # # O O O O O O O O O O O O O O # # # # # # # # # # ",
"$ $ $ $ $ $ $ $ $ $ $ # # # # # # # @ O O O O # # # # # # # # # # # # # O # + O O O O O O O O O O O # # # # $ $ $ $ $ $ $ $ $ $ ",
"# $ $ $ $ $ $ $ $ $ $ $ $ $ $ $ $ $ # @ # # # # # # # O O @ @ O O O O O O O # # # # # # @ # @ @ # # $ $ $ $ $ $ $ $ $ $ $ $ $ $ ",
"# $ $ $ $ $ $ $ $ $ $ $ $ $ $ $ $ $ $ $ $ $ $ $ $ $ # O @ O @ @ @ @ O O O O # $ $ $ $ $ $ $ $ $ $ $ $ $ $ $ $ $ $ $ $ $ $ $ $ $ ",
"@ # # # # # # # # # # # # @ # # # $ $ $ % $ $ $ $ $ $ $ $ $ $ $ $ $ $ $ $ # $ $ $ $ $ $ $ $ $ $ $ $ $ $ $ $ $ $ $ $ $ $ $ $ $ $ ",
"X X O O O O o O O O X . X X . . O @ @ # # @ @ @ @ O @ @ O @ O O O O O O O @ O O O @ @ @ @ @ @ @ O @ O O O O @ O O O O @ @ O @ @ ",
". . . . . . . . . . . . . . . . . . . . . . . . . . . . . . . . . . . . . . . . . . . . . . . . . . .           . .             ",
". . . . . . . . . . . . . . . . . . . . . . . . . . . . . . . . . . . . . . . . . . . . . . . . . . . . . . . . . . . . . . . . "
};
