/* XPM */
static char *tile_floor_32[] = {
/* columns rows colors chars-per-pixel */
"32 32 138 2 ",
"   c #462614",
".  c #492714",
"X  c #4A2916",
"o  c #532E1A",
"O  c #56301A",
"+  c #5B331B",
"@  c #62361D",
"#  c #653B20",
"$  c #6C3D21",
"%  c #723F22",
"&  c #6C4126",
"*  c #754224",
"=  c #7B4626",
"-  c #794526",
";  c #7C4625",
":  c #7C4526",
">  c #7C4626",
",  c #7D4626",
"<  c #7C4726",
"1  c #7D4726",
"2  c #7C4627",
"3  c #7C4727",
"4  c #7D4727",
"5  c #784324",
"6  c #7D4826",
"7  c #7C4827",
"8  c #7D4827",
"9  c #7E4827",
"0  c #7F4827",
"q  c #7E4927",
"w  c #7F4927",
"e  c #74472B",
"r  c #76472B",
"t  c #7B4728",
"y  c #7C4728",
"u  c #74482B",
"i  c #75482B",
"p  c #76482B",
"a  c #76492C",
"s  c #77492C",
"d  c #774B2D",
"f  c #7B4828",
"g  c #7C4828",
"h  c #7D4828",
"j  c #7C4928",
"k  c #7C4829",
"l  c #7C4929",
"z  c #7D4929",
"x  c #7E4828",
"c  c #7F4828",
"v  c #7E4928",
"b  c #7F4928",
"n  c #7F4A29",
"m  c #784A2C",
"M  c #794A2D",
"N  c #804928",
"B  c #814928",
"V  c #804929",
"C  c #804A28",
"Z  c #814A28",
"A  c #814B28",
"S  c #804A29",
"D  c #814A29",
"F  c #804B29",
"G  c #814B29",
"H  c #824A29",
"J  c #824B29",
"K  c #834B29",
"L  c #814A2A",
"P  c #824B2A",
"I  c #834B2A",
"U  c #844B2A",
"Y  c #824C29",
"T  c #834C29",
"R  c #824C2A",
"E  c #834C2A",
"W  c #834D2A",
"Q  c #834C2B",
"!  c #834D2B",
"~  c #844C29",
"^  c #844C2A",
"/  c #844D2A",
"(  c #854D2A",
")  c #844C2B",
"_  c #854C2B",
"`  c #844D2B",
"'  c #854D2B",
"]  c #864D2B",
"[  c #854E2A",
"{  c #844E2B",
"}  c #854E2B",
"|  c #864E2B",
" . c #874E2B",
".. c #864F2B",
"X. c #874F2B",
"o. c #824D2C",
"O. c #834D2C",
"+. c #844D2C",
"@. c #864D2C",
"#. c #864E2C",
"$. c #874E2C",
"%. c #864F2C",
"&. c #874F2C",
"*. c #884E2B",
"=. c #884F2B",
"-. c #884E2C",
";. c #884F2C",
":. c #894F2C",
">. c #884F2D",
",. c #8A4F2C",
"<. c #86502E",
"1. c #88502C",
"2. c #89502C",
"3. c #88502D",
"4. c #89502D",
"5. c #89512D",
"6. c #8A512C",
"7. c #8A502D",
"8. c #8A512D",
"9. c #8B512D",
"0. c #88502E",
"q. c #8B512E",
"w. c #8A522F",
"e. c #8A532F",
"r. c #8C522D",
"t. c #8C522E",
"y. c #8D522E",
"u. c #8C532E",
"i. c #8D532E",
"p. c #8E532E",
"a. c #8E542E",
"s. c #875130",
"d. c #8B5230",
"f. c #8B5330",
"g. c #915631",
"h. c #935934",
"j. c #985D36",
"k. c #9A5E37",
/* pixels */
"O O o o o o o o o o o o o o o o O O o o o o o o o o o o o o o o ",
"- - - h h h h h h h h h - 0 h h - - * # # # * * # % * - - h h h ",
"* * - C 0 0 h h h C 3.C 3.C 0 h - - * t h C 3.C 0 C C 3.>.3.3.3.",
"C C C - * * * * * - - - - - * * h C C C C >.C C >.C C C >.3.C C ",
"3.3.3.3.>.>.3.3.>.C C C C C C C C C 3.C C C C C C C C 0 0 0 - * ",
"C C C C C C C C C 3.3.3.3.3.3.>.3.C C C - - - - - - * * - - - h ",
"* * * * * * * * - h - - - - - - - - * * - - * * * h C C 3.>.3.3.",
"C C C C C C C - - - - - - - - - - - - C >.>.C C C C C C C C C h ",
"C C C C C C C C C C C <.<.C C >.C 3.3.3.3.3.C 3.C - * * * * * * ",
"- 0 - * * * * - - - - - - - - - - C C C C h * - * * 0 - 0 C C C ",
">.>.C C C C C - * * * * * * * * * * * * - C C C N C 3.3.>.>.C C ",
">.>.3.3.3.3.3.>.C C C C C >.C 0 h C - C >.>.>.>.>.>.3.>.>.>.>.>.",
"C C C C C C C C C C C C C C C C C C C C C C C C C C C C C C C C ",
"+ + + + + + + + + + + + + + + + + + + + + + + + + + + + + + + + ",
"* * * t r r t t t t t t t t t t t t t t - - - * * * * * * # # # ",
"- * - C C C C C C C C C C C C C C C C C C C C - * - - - 0 0 - - ",
"C C C C - * * * * * * * * * % * * * * * * * - C C C C C C C >.>.",
"3.3.3.3.>.C >.C >.>.C h h h 0 C >.C C C >.3.3.3.3.3.3.>.>.>.>.>.",
"- - C C C C C C C C C C C C C C C C C C C C C C C C C C - - - 0 ",
"0 0 0 * * * * * * * * * * * * * * * * * * * * * * - 0 0 0 0 0 C ",
"C C C C h C C C C C C C C C C C C C C C C C C C C C 3.3.3.3.3.3.",
"* * * * - - - - - C C C 3.3.3.3.3.3.3.3.3.3.3.3.3.3.3.>.C C 0 C ",
"C C C C - - C - - - - - - - - C 3.C C C C C C - - - - - 0 - - - ",
"- t C C h h C C C C C C h - - * * * * - h C C h 0 0 0 C >.C C C ",
"3.C C d.<.3.d.d.3.d.d.h.j.j.g.C >.3.3.3.3.3.3.3.3.3.3.3.3.3.3.3.",
"i & & i i h i i i r i i h i & # # # # # # # # # # # # # # # # # ",
". . . . . . . . . . . . . . . . . . . . . . . . . . . . . . . . ",
"+ + + + o o o + + + + + @ @ @ @ @ @ @ @ + + + + + + + + + O O o ",
"@ + + + + + + + O o o o + + + + + + + + o o o o o + + + + + + + ",
"@ @ @ @ @ @ @ @ @ + @ @ + + O + + + O + + + + + + @ @ @ @ @ @ @ ",
"o o o o o o o o + + + + + + + + + + + + + + + + + + + + + + + + ",
". . . . . . . . . . . . . . . . . . . . . . . . . . . . . . . . "
};
