/* XPM */
static char *exit_spaceship_80[] = {
/* columns rows colors chars-per-pixel */
"80 63 205 2 ",
"   c #3A1D14",
".  c #3E2319",
"X  c #3D241C",
"o  c #3E2720",
"O  c #42241A",
"+  c #47281D",
"@  c #522B19",
"#  c #5A311E",
"$  c #422A21",
"%  c #4B2D23",
"&  c #4A3127",
"*  c #4D322A",
"=  c #543426",
"-  c #5B3524",
";  c #52352C",
":  c #59382B",
">  c #5E3B2B",
",  c #4B3D39",
"<  c #573C33",
"1  c #643925",
"2  c #683B25",
"3  c #633D2C",
"4  c #6B3F29",
"5  c #574139",
"6  c #65402E",
"7  c #6B412C",
"8  c #72442C",
"9  c #7A482E",
"0  c #6D4531",
"q  c #684738",
"w  c #724631",
"e  c #754A33",
"r  c #7D4F38",
"t  c #7E5037",
"y  c #7E513A",
"u  c #2A4B58",
"i  c #2E515F",
"p  c #32525E",
"a  c #295467",
"s  c #325462",
"d  c #355B6C",
"f  c #3A5B68",
"g  c #3B6272",
"h  c #545250",
"j  c #634F49",
"k  c #69534B",
"l  c #775748",
"z  c #6B5953",
"x  c #7A5E52",
"c  c #6F615C",
"v  c #7D6559",
"b  c #4D5F63",
"n  c #4A6B75",
"m  c #6A7271",
"M  c #824F35",
"N  c #845136",
"B  c #88573D",
"V  c #85583D",
"C  c #8B593E",
"Z  c #915B3E",
"A  c #88643D",
"S  c #845C44",
"D  c #915E42",
"F  c #8C6245",
"G  c #8C6349",
"H  c #946145",
"J  c #9A6546",
"K  c #926449",
"L  c #9B6748",
"P  c #936B48",
"I  c #9C754B",
"U  c #846759",
"Y  c #976E55",
"T  c #9E7154",
"R  c #907058",
"E  c #A26D4D",
"W  c #A7724F",
"Q  c #A26F50",
"!  c #A37354",
"~  c #A77655",
"^  c #AC7855",
"/  c #AC7B5A",
"(  c #B27A56",
")  c #B87C56",
"_  c #B27D5A",
"`  c #8E796E",
"'  c #997A67",
"]  c #8B7A73",
"[  c #A98656",
"{  c #B4815D",
"}  c #BB815B",
"|  c #B0945C",
" . c #8C807B",
".. c #95827A",
"X. c #AE8161",
"o. c #B48563",
"O. c #B58867",
"+. c #BC8D6A",
"@. c #BD936C",
"#. c #A58876",
"$. c #B2957D",
"%. c #B8A172",
"&. c #C88E66",
"*. c #C4936E",
"=. c #C59571",
"-. c #C79975",
";. c #CD9E79",
":. c #D09F79",
">. c #C1AA70",
",. c #CDA07C",
"<. c #D9A67D",
"1. c #CBB374",
"2. c #4E7A87",
"3. c #537C87",
"4. c #59828D",
"5. c #5B8692",
"6. c #63848D",
"7. c #678C97",
"8. c #738D95",
"9. c #6B949C",
"0. c #78929A",
"q. c #6B9CA7",
"w. c #749DA6",
"e. c #76A3AD",
"r. c #7DABB5",
"t. c #7EAEB9",
"y. c #7DB1BC",
"u. c #978C88",
"i. c #9D928E",
"p. c #A5938B",
"a. c #A7938A",
"s. c #B59B82",
"d. c #A59995",
"f. c #A99C97",
"g. c #ADA19B",
"h. c #B5A49C",
"j. c #879FA4",
"k. c #8CA9B0",
"l. c #84B3BC",
"z. c #B4A9A4",
"x. c #BCB1AD",
"c. c #BEB7B5",
"v. c #CFA480",
"b. c #D4A681",
"n. c #D5A882",
"m. c #DBAD85",
"M. c #DBAF88",
"N. c #DDB087",
"B. c #DEB18A",
"V. c #E1B48C",
"C. c #E9B88E",
"Z. c #E6BA92",
"A. c #E9BC92",
"S. c #C3B4AE",
"D. c #C4BCB9",
"F. c #D5C886",
"G. c #F0E49E",
"H. c #CAC2BE",
"J. c #FCF3A8",
"K. c #FFFEBB",
"L. c #86B8C1",
"P. c #8ABBC4",
"I. c #90BDC7",
"U. c #8EC1CB",
"Y. c #93C4CC",
"T. c #99C7CE",
"R. c #96C9D3",
"E. c #9DCDD4",
"W. c #9DD0D7",
"Q. c #A2D4DB",
"!. c #A4D5DC",
"~. c #AAD8DE",
"^. c #B8D2D7",
"/. c #98DAE2",
"(. c #A5DBE2",
"). c #AADCE3",
"_. c #A9DFE8",
"`. c #B4DDE3",
"'. c #AAE0E7",
"]. c #A5E3EC",
"[. c #AAE1EA",
"{. c #B4E4EA",
"}. c #B0ECF5",
"|. c #C9C7C7",
" X c #D2CFCF",
".X c #DBD7D6",
"XX c #E1DEDE",
"oX c #E3E0DF",
"OX c #C9E6EA",
"+X c #D9E8EB",
"@X c #C7EDF2",
"#X c #DAEEF1",
"$X c #E7E7E8",
"%X c #FF00FF",
"&X c #F0EFEF",
"*X c #E3EFF2",
"=X c #FF00FF",
"-X c #FF00FF",
";X c #E8F2F4",
":X c #FF00FF",
">X c #FF00FF",
",X c #FF00FF",
"<X c #FF00FF",
"1X c #FF00FF",
"2X c #FF00FF",
/* pixels */
":X:X:X:X:X:X:X:X:X:X:X:X:X:X:X:X:X:X:X:X:X:X:X:X:X:X:X:X:X:X:X:X:X:X:X:X:X:X:X:X2X2X:X:X:X:X:X:X:X:X:X:X:X:X:X:X:X:X:X:X:X:X:X:X:X:X:X:X:X:X:X:X:X:X:X:X:X:X:X:X",
"2X2X%X2X2X%X2X2X%X2X2X%X2X2X%X2X,X%X2X:X%X2X:X%X2X:X%X2X:X%X2X:X%X2X:X%X2X:X%X2X2X2X%X2X2X%X2X2X%X2X2X%X2X:X%X2X,X%X2X:X%X2X:X%X2X:X%X2X:X%X2X:X%X2X:X%X2X%X:X2X",
":X%X2X:X%X2X-X%X2X%X:X2X%X:X2X%X:X2X%X:X2X%X:X2X2X2X2X%X:X2X%X:X2X%X2X2X%X2X2X%X%X:X2X%X-X2X%X:X2X%X:X2X:X2X2X%X:X2X%X:X2X%X:X2X%X:X2X%X<X2X%X2X2X%X2X2X$X2X2X%X",
":X:X:X:X:X:X:X:X:X:X:X:X:X:X:X:X:X:X<X:X:X:X2XD.u.z.2X,X:X:X2X:X:X:X:X:X:X:X:X2X2X:X:X:X:X:X:X:X:X:X:X2Xc.i.z.2X:X:X2X:X:X:X:X:X,X:X:X:X:X:X<X:X:X1X:X:X:X:X:X:X",
"2X2X%X2X2X%X2X2X%X2X2X%X2X2X%X2X2X%X2X2X%X2XD.*   * ] %X2X%X2X:X%X2X:X:X2X:X:X2X2X2X%X2X2X%X2X2X%X2X2Xd.< . O d.2X%X2X:X%X2X:X%X2X:X%X2X:X%X2X:X%X2X:X%X2X:X:X2X",
":X%X2X:X%X2X:X%X2X%X:X2X%X:X2X%X:X2X%X:X2X2X .. < ; . z %X2X$X:X2X%X2X2X%X2X2X2X%X%X2X:X%X2X:X%X2X%Xc $ ; < % j 1X2X%X:X2X%X:X2X%X:X2X%X,X2X%X2X2X%X2X2X%X2X2X%X",
"<X2X%X:X2X:X2X2X%X2X:X%X2X:X:X2X,X%X2X:X%X2Xp.O ; ; ; * * i.2X:X:X2X:X%X2X:X:X%X:X2X:X2X1X%X:X2X$Xz $ ; : ; % z 2X:X2X:X=X2X:X:X2X:X:X2X:X:X2X:X:X2X:X:X2X:X:X2X",
":X2X%X:X2X:X2X2X:X2X<X=X2X2X%X2X,X:X2X:X%X2Xi.O ; $ ; ; % . f.2X:X2X:X:X2X>X:X:X2X2X:X2X2X&X2XXXj $ < : * * % z 2X:X2X:X:X2X:X:X2X:X:X2X:X:X2X:X:X2X:X:X2X:X:X2X",
":X%X2X:X%X2X=X%X2X%X=X2X%X:X2X%X:X2X%X:X2X2Xu.O * . * ; ; * . d.1X$Xj.6.6.6.6.6.6.7.6.0.$X2X|.5 % : ; ; $ * % j 2X2X%X:X2X%X:X2X%X:X2X%X2X2X%X2X2X%X2X2X%X2X2X%X",
"2X2X%X2X2X%X2X2X%X2X2X%X2X2X%X2X2X%X2X:X%X2Xp.O ; o $ * ; ; + , 4.3.y.W.T.Y.Y.R.R.Y.L.t.4.7.b O ; ; ; $ o * % z 2X%X2X:X%X2X:X%X2X:X%X2X:X=X2X:X%X2X:X:X2X:X:X2X",
":X:X:X:X:X:X:X:X:X:X:X:X:X:X:X:X:X:X:X:X-X2Xi.O ; o o $ % ; 5 m _.!.[.{.`.`.`.{.{.(.l.P.Y.R.0., j & $ o o * % k ,X:X:X:X:X<X:X:X:X:X:X:X:X:X<X:X:X:X:X:X:X:X:X:X",
"%X%X2X:X%X2X-X=X2X%X:X2X%X-X2X%X:X2X%X:X2X2Xu.O * o $   5 j.(.(.].!.~.~.).).).~.~.!.Y.l.l.l.l.P.Y.m o . o * % j <X2X%X:X2X%X:X2X%X:X2X%X:X2X%X2X2X%X2X2X%X2X2X%X",
"2X2X%X2X2X%X2X2X%X2X2X%X2X2X%X2X2X%X2X,X$X2Xi.. < % . b E.@XOX@X@XOX`.~.).[.).~.~.).[.(.P.l.l.l.l.U.0.& $ < % z 2X%X2X:X%X2X:X%X2X:X%X2X:X%X2X:X%X2X:X%X2X%X:X2X",
":X:X:X:X:X:X:X:X:X:X:X:X:X:X:X:X:X:X:X:X:X2Xu.. ; * 0.]./.#X2X2X2X2X@X!.).).).).~.).).).!.R.E.T.U.l.L.e.< = % j ,X:X:X:X:X:X:X:X:X:X:X:X:X:X:X:X:X:X:X:X:X:X:X:X",
"-X:X2X:X%X2X:X:X2X:X:X2X-X:X2X%X:X2X%X:X2X2Xu.. * j.}.OX#X,X2X1X*X*X{.(.~.~.~.[.[.).~.~.).(.!.E.E.E.P.P.w., % j :X2X%X:X2X%X:X2X%X:X2X%X<X2X%X2X2X%X2X2X%X2X2X%X",
":X%X2X:X:X%X2X2X%X2X2X$X2X2X%X2X2X%X2X2X$X2Xp.  k.}._.*X2X2X2X2X`.(.[.'.~.~.~.'.[.).~.~.).).!.E.E.E.W.P.L.w.$ k 2X%X2X:X%X2X:X%X2X:X%X2X:X%X2X:X%X2X:X%X2X%X=X2X",
"2X2X:X:X2X2X:X:X2X:X:X2X:X:X2X:X:X2X:X:X:X2Xi.6.}.(.(.*X2X,X2X#X).).).).).).).).).).).).).).!.E.E.E.E.E.l.L.8.c 2X2X:X:X2X:X:X2X:X:X2X:X:X2X:X:X2X-X:X2X:X2X:X:X",
"2X2X%X:X2X2X:X%X2X%X%X2X:X:X2X:X:X2X:X:X2X X9.[.(.~.{.#X2X2X2X{.].).~.~.).[.).~.~.).[.'.~.~.!.!.!.E.E.E.U.r.P.q.k.2X%X:X2X&X:X2X%X:X2X%X:X2X%X:X2X%X2X2X%X2X2X%X",
":X%X2X:X%X2X:X%X2X:X:X2X2X2X%X2X2X%X2X:X:X^.q.}.(.`.2X{.#X;X#X).[.).~.~.).).).~.~.).).).~.~.!.!.!.E.E.E.R.t.l.r.8.&X2X:X%X2X:X%X2X:X%X2X:X%X2X:X%X2X:X%X2X%X=X2X",
"2X2X%X2X2X%X2X2X%X2X2X%X2X2X2X=X:X2X%X2X$X7.E.).(.{.2X`.(.'.).~.~.).).).~.~.~.).).).~.~.).).).W.E.E.W.W.Y.r.l.Y.w.k.>X:X2X%X:X2X%X:X2X%X:X2X%X,X2X%X2X2X%X2X2X%X",
":X2X:X:X2X:X:X:X:X:X:X:X:X2X2X:X:X2X:X2X+X4.).).#X;XOX~.).[.).~.~.).[.).~.~.~.[.[.~.~.~.)._.).E.T.E.!.W.T.l.r.Y.q.0.2X:X2X:X:X,X:X:X2X:X:X,X:X:X<X:X:X,X:X:X:X:X",
":X%X2X:X%X2X%X=X2X%X:X2X-X%X%X2X2X%X2X2X X7.).(.:X2X(.(.).).).).).).).).).).).).).).).).).).).!.E.E.E.E.E.Y.r.L.e.0.2X:X%X2X:X%X2X:X%X2X:X%X2X:X%X2X:X%X2X%X=X2X",
"2X2X%X2X2X%X2X2X%X2X2X%X2X2X2X%X:X2X:X$X7.E.[.!.OX#X[._.~.~.~.[.[.).~.~.).[.).~.~.).[.).~.~.).(.!.E.T.T.!.Y.r.r.P.e.0.2X2X%X:X2X%X:X2X%X:X2X%X2X2X%X2X2X%X2X2X%X",
":X:X:X:X:X:X:X:X:X:X:X:X:X2X2X:X%X:X2X$X3.!.[.!.!.(.[.).~.~.~._._.).~.~.)._.).~.~.).).).~.~.).(.!.E.T.Y.!.Y.r.r.I.e.8.2X:X:X:X:X:X:X:X:X:X:X:X:X:X:X:X:X:X:X:X:X",
":X%X2X:X%X2X-X-X2X:X:X2X%X:X2X:X=X%X2X%X3.!.!.OX:X#X).).).).).~.~.).).).~.~.~.).).).~.~.).).).!.E.E.E.E.E.Y.l.r.Y.q.0.2X%X2X:X%X2X:X%X2X:X%X2X:X%X2X:X%X2X%X:X2X",
"2X2X%X2X2X%X2X2X%X2X2X%X2X2X%X2X2X%X2X%X3.!.!.OX2X;X!.!.(._.).!.~.).[.[.~.~.).[.[.).~.~.[.[.[.!.E.E.W.W.Y.Y.L.l.Y.q.8.2X2X%X:X2X%X:X2X%X2X2X%X2X2X%X2X2X%X2X2X%X",
":X:X2X:X:X2X:X:X2X:X:X2X:X:X:X:X:X,X:X$X4.!.(.@X2X*X'.'.{.{.{.{.!.E.!.W.E.E.E.W.W.E.E.E.W.W.W.T.P.Y.!.!.W.E.P.r.U.q.8.2X=X<X:X:X:X:X:X2X:X:X2X:X:X:X:X:X2X:X:X<X",
":X=X2X:X-X2X:X:X2X:X:X2X:X:X2X:X:X2X:X;X5.!.y.^.2X+Xr.y.r.r.r.l.5.d g g g g g g g g g g g g d d s n e.e.e.e.l.L.Y.q.w.2X%X2X:X%X2X:X%X2X:X%X2X:X%X2X:X:X2X:X:X2X",
"2X2X%X2X2X%X2X2X%X2X2X$X2X2X:X2X=X$X<Xf.2.Y.u j.2X|.a s a a a a s d d d d d d d d d d d d d s p p p u u u u n 3.q.y.h S.2X%X:X2X:X<X2X$X2X2X%X2X2X%X2X2X%X2X2X%X",
":X:X2X:X:X2X:X:X2X-X%X2X2X.X.Xh.R R R L ] n a d n n d d d d d d d d d d d d d d d d d d d d s s s s s s s s p u d 3.5 6 v l v  XXX&X2X2X:X%X2X:X:X2X:X:X2X:X:X2X",
":X:X2X:X:X2X:X:X2X2X2X.Xz.Y G o.B.m.<.K ) #.m n a a d d d d d d d d d d d d d d d d d d d d s s s s p p s a a b h y e 7 r N M 0 3 ..S. X2X1X2X:X:X2X:X:X2X:X:X2X",
"2X2X%X2X2X%X2X2X%Xh.#.' o.V.V.V.B.B.V.! r ( &.X.v ' m a d d d d d d d d d d d d d d d d d s i s s s i i f z j l Z r : V D C C B C r 2 q ..D.:X2X2X$X2X2X%X2X2X%X",
":X%X2X:X:X2X.Xp.' +.+.<.Z.m.M.m.=./ / :.X.r r C W ( @.s.s.$.$.s.s.s.s.s.$.s.s.$.$.$.$.$.$.$.$.' R R U U S N M 7 7 3 e V V S S C B C D V 9 w f..X%X2X:X&X2X=X:X2X",
":X:X:X:X:Xh.S =.<.B.V.m.m.V.,./ / m.b.m.B.O.P e y r J ) ( ( &.C.V.C.&.) } } } } } ( W W W E E J N N M r M w : : e V H H D V V C D S B C D C r 7 ..x.:X<X:X:X:X:X",
"2X2X%X:X#.^ m.B.m.m.m.B.;.{ +.=.=.<.V.M.N.V.A.,.-.o.w 7 r Q Q W / ^ L E E E E E E D H S D N r V 7 8 7 3 3 0 y S L J H H J C C D S V D C C C S D r 1 ' :X%X2X2X%X",
"&X%X2X$.{ V.m.m.m.m.V.;.Q *.;.{ >.I =.B.B.<.o.b.A.V.X.C K K G S F F G V S G G G F G y y G S S S l S e V H H J Z S H J H r P P S S r r C C C C C S D 8 U :X:X%X2X",
":X2Xp.{ V.m.m.m.m.N.:./ <.V.L 1.K.F.T V.m./ | @.=.A.+.@.A.B.B.B.B.B.Z./ +.b.,.,.,.b.T ;.Z.B.B.B.B.A.O.B E H I [ V S J V P G.G.A r D V e C C C C C C D 8 U :X:X:X",
"2X XT V.m.m.m.m.m.m.W =.V.m.P 1.K.1.X.A.o.F K.M.T A./ +.V.m.M.M.B.B.o.L ! ! ! ! ! ! Y T n.m.m.m.m.V.X.e ! N %.K.! 8 L V [ J.J.I w D S V r S C C C C C D 8 p.2X%X",
"2XH./ V.m.m.m.m.V.+.+.B.m.N.,.! [ { m.-.@.O.[ @.n.;.^ m.M.M.m.B.B.^ _ b.m.m.m.m.m.m.m./ L B.M.m.m.B.,.S E E [ >.P V H L S | [ e V C C S t V C C C C C S V v :X2X",
"2X XN <.m.N.m.m.<.o.m.m.m.m.V.n.-.V.<.^ V.M.O.<.Z.;.o.V.m.M.B.B.o.+.m.<./ V S S V o.m.<.^ / B.M.m.m.V.! E } W C Q E V L L B V H S C C C C e B C C C C D N U 2X:X",
"2X$Xl D o.;.m.V.o.=.V.m.m.m.m.N.V.B./ +.B.B.V.N.B./ o.V.m.m.B.o.+.B.<.L : . . o . : / <.b.! o.V.M.m.V.! J _ ( _ ( ^ H H L L L L H B C C C V r C C C S V 4 z.2X%X",
"%X:X$Xl 9 L +.V.o.=.V.m.m.m.m.m.m.B./ m.B.M.m.B.;.H b.B.M.B.b./ <.:.L % o $ $ $ $ o % Y b.*.L v.B.M.B.;.H W ( ^ ^ _ H D L J J J L D B B C B w S S C r : d.2X2X%X",
"2X2X:X.XU 2 S S C ;.V.M.B.B.m.m.B.+.o.M.m.M.m.V.*.L B.B.m.V./ =.<.E % $ $ $ $ $ $ $ $ = =.m.! G V.M.m.V.L W ( ( ( ( E H L L J J J L C B C B w r y w 3 x.2X%X:X2X",
":X:X:X2X:X` 7 H C y V ! b.<.m.V.Z.{ ;.B.m.m.m.V.+.L m.M.M.V.! =.<.F . $ $ $ $ $ $ $ $ & +.<.! S V.M.M.m.H E _ ( ( ^ _ H C L J L L E H V r e r V e 0 H.2X:X:X:X:X",
":X%X2X&X:X2X..w H C C r e r H @.@.! ;.Z.V.V.B.B.! =.N.m.m.V.! *.o.3 $ $ $ $ $ $ $ $ $ o 0 *.! S B.M.m.B.{ H _ ^ _ ( { H S L J V V B r 8 r V H M l |.2X2X%X2X2X%X",
"2X2X%X2X2X%X2Xz.- V J D S S V r r e K T T T -.m.Q b.V.N.m.Z./ *.{ : $ $ $ $ $ $ $ $ $ $ : <.! S A.m.V.Z.;.S } _ E L Q C r y t V V V e V S D 8 v .X2X%X%X2X%X:X2X",
":X:X2X:X:X>X:X2Xz.: V H D C H D H S V V V B V y e S F S S Y S =._ : $ $ $ $ $ $ $ $ $ $ 3 ;.^ y ! L ! ! F e C V e e w e C C C J H t V D S 7 ` :X2X&X:X>X:X,X:X:X",
":X:X2X:X:X2X:X&X2Xx.= 3 C C V D D D H H H H S C t D C C C C r -._ - $ $ $ $ $ $ $ $ $ + : ;._ w V V V V V e y V D D D D H H H C r V S N 2 ..:X2X2X%X>X2X%X2X2X%X",
"2X2X%X2X2X%X2X2X%X2X.Xp.3 8 e C D D D D D D H H C S H H H H r =.{ : $ $ $ $ $ $ $ $ $ $ : ;._ e H H H J S V H H D D D D D H C r V S 8 l h.:X2X-X%X2X:X%X2X%X:X2X",
"2X2X%X2X2X%X%X:X2X-X2X2XD.k 3 8 C S H H H D D H S V H H H H e =.{ : $ $ $ $ $ $ $ $ $ $ 3 ;./ w H H H H V B D D D D D H D C r 4 1 3 f.%X2X2X%X<X2X%X2X2X%X2X2X%X",
":X:X:X:X2X:X:X:X2X:X:X2X:X,XD.< 3 w V V C H H H S r S H H H e *._ - $ $ $ $ $ $ o o $ . 3 <./ w H H D H y C H D D H S B C e # x x.c.2X:X:X<X-X:X2X:X:X2X:X:X:X:X",
":X%X2X:X%X2X2X2X%X2X2X$X2X2X=X$Xf.= 7 r 7 e y r V V V J D H r +._ 3 = = = ; = = = = = = 6 ;./ e H H H V r D D S r r w 8 1 = p.%X2X2X%X2X:X%X2X:X%X2X:X%X2X%X%X2X",
"2X2X%X2X2X%X%X:X2X:X:X2X%X:X2X:X:X.X3 w C V 7 3 : 7 w e r H e o./ 3 4 7 4 4 7 4 7 7 7 7 7 =./ e S V N w 3 7 0 w r r r 3 x z.,X2X%X:X2X%X2X2X%X2X2X%X2X2X%X2X2X%X",
":X:X:X:X:X:X:X:X<X:X:X:X:X:X:X:X2XXX: 3 7 V L K e r r 3 - 7 3 { _ 7 D H D D D D D S D D 0 +.{ 3 3 : 3 e e 6 V K C V 6 @ ..2X&X:X:X:X:X:X:X:X:X:X:X:X:X:X:X:X:X:X",
":X%X2X:X%X2X2X2X%X2X2X%X2X2X%X2X%Xl B E r 3 1 4 V J J C V C 3 y S 7 r e e e e r e e e e 3 K S 0 V y y D D y e 1 1 3 e V 3 f.2X%X2X:X%X2X:X%X2X:X%X2X:X%X2X%X:X2X",
"2X2X%X2X2X%X%X:X2X%X%X2X%X=X2X:X$Xq D _ C 3 ..] 3 7 4 r H H S r y r V V V V V V V V V V w y y S H H V w 7 = ; p.k 4 L ! 1 ] 2X2X%X:X2X%X:X2X%X2X2X%X2X2X%X2X2X%X",
":X:X:X:X:X,X:X:X:X:X:X:X:X:X:X2X:Xq J W r = $X2X XU q q 4 4 N C C y H E E E E E E E Q S y H Z r 7 8 6 6 l |. X2X] : S E 8 p.2X%X:X:X:X:X:X:X:X:X:X:X:X:X:X:X:X:X",
":X%X2X:X:X2X2X2X%X2X2X%X2X2X%X:Xx.r J V : d.,X2X:X:X2X XU v U ` v # 1 8 7 8 7 7 7 8 8 : # - U U v l p.:X$X2X2X%X$Xk 4 E C U oX:X2X:X%X2X:X%X2X:X%X2X:X:X2X:X:X2X",
"2X2X%X2X2X%X%X:X2X-X:X2X%X:X2XXX6 D S : ..2X:X%X2X:X%X2X2X:X2X2X$Xz.f.f.z.f.d.z.f.d.f.z.g.g.2X2X%X2X2X%X2X:X%X2X2X|.: N L @ d.2X%X:X2X%X2X2X%X2X2X%X2X2X%X2X2X%X",
":X:X2X:X:X2X:X%X:X2X<X%X2X:X:X$X6 8 # ] 2X:X:X2X;X:X2X%X:X2X%X:X2X2X2X2X2X2X2X2X2X2X2X2X2X2X:X:X2X:X:X2X:X:X2X:X:X2XH.3 2 @ p.2X%X:X2X2X:X:X2X:X:X2X:X:X2X:X:X2X",
":X:X2X:X:X2X:X:X:X2X2X=X2X:X:X%Xu... .%X2X-X:X2X:X:X2X;X:X2X%X:X2X%X:X:X%X:X>X%X:X:X:X&X&X<X:X:X2X:X:X2X:X:X2X-X:X2X2Xx.] ] H.2X-X:X:X2X:X:X2X:X-X2X:X:X2X:X:X2X",
"2X2X%X2X2X%X2X2X2X%X:X2X%X:X2X%X2X2X1X:X2X2X:X%X2X:X%X2X:X%X2X:X%X2X:X%X2X:X%X2X:X%X%X2X2X%X2X2X%X2X2X%X2X:X%X2X:X%X2X2X2X2X2X%X2X:X%X%X<X2X%X2X2X%X2X2X%X2X2X%X",
":X:X2X:X:X2X:X:X:X2X2X%X2X:X%X2X:X%X:X:X-X%X:X2X-X:X2X:X:X2X%X:X2X-X2X2X%X2X2X=X:X2X2X:X:X2X:X:X2X:X:X2X:X:X2X:X:X2X-X:X>X%X:X2X=X:X2X2X:X:X2X:X:X2X:X:X2X:X:X2X"
};
