/* XPM */
static char *exit_spaceship[] = {
/* columns rows colors chars-per-pixel */
"64 50 221 2 ",
"   c #3B1C12",
".  c #3D261E",
"X  c #3E241B",
"o  c #3F2922",
"O  c #421F15",
"+  c #42261C",
"@  c #45291F",
"#  c #47241A",
"$  c #512B18",
"%  c #62351F",
"&  c #432B22",
"*  c #4A2E24",
"=  c #4D322A",
"-  c #4E3127",
";  c #53362D",
":  c #5B3827",
">  c #543C34",
",  c #553A31",
"<  c #643924",
"1  c #633D2B",
"2  c #693D27",
"3  c #56433C",
"4  c #65402D",
"5  c #6C422C",
"6  c #75452D",
"7  c #78482E",
"8  c #6C4532",
"9  c #684637",
"0  c #764A34",
"q  c #7B4D35",
"w  c #7B4F39",
"e  c #744A34",
"r  c #7D513A",
"t  c #7C5138",
"y  c #284B5A",
"u  c #2E505D",
"i  c #34525D",
"p  c #2C5364",
"a  c #2A556A",
"s  c #2B5568",
"d  c #395F6E",
"f  c #375967",
"g  c #39606F",
"h  c #3B6171",
"j  c #4C4947",
"k  c #5E5D59",
"l  c #5F4D47",
"z  c #785747",
"x  c #6A5C53",
"c  c #5E605F",
"v  c #7D6257",
"b  c #6B675E",
"n  c #465B62",
"m  c #446A77",
"M  c #536971",
"N  c #7B6B67",
"B  c #7E7E77",
"V  c #6D6D68",
"C  c #814E34",
"Z  c #845136",
"A  c #83543B",
"S  c #89563B",
"D  c #8B593E",
"F  c #86583C",
"G  c #925C3D",
"H  c #865A40",
"J  c #8D5C41",
"K  c #915E42",
"L  c #8D6446",
"P  c #946144",
"I  c #996547",
"U  c #946448",
"Y  c #9B6749",
"T  c #9C6A4B",
"R  c #94694C",
"E  c #9B714E",
"W  c #876858",
"Q  c #9C7053",
"!  c #9F6F51",
"~  c #A36C4B",
"^  c #A47354",
"/  c #AB7C5B",
"(  c #A87858",
")  c #B47D59",
"_  c #B47B56",
"`  c #82716C",
"'  c #8C756B",
"]  c #8E7A71",
"[  c #A47C61",
"{  c #7F817A",
"}  c #AC885E",
"|  c #B6825D",
" . c #B5955D",
".. c #888175",
"X. c #9B877C",
"o. c #AC8364",
"O. c #AC8766",
"+. c #B28564",
"@. c #B58965",
"#. c #BB8966",
"$. c #B48969",
"%. c #BC8D6B",
"&. c #BB8562",
"*. c #BB936B",
"=. c #B38F76",
"-. c #BAA268",
";. c #C1845D",
":. c #C68D65",
">. c #C3926D",
",. c #C9946E",
"<. c #C49672",
"1. c #CB9B75",
"2. c #CC9D79",
"3. c #C79772",
"4. c #D49E76",
"5. c #CBA37A",
"6. c #D3A37C",
"7. c #D3A077",
"8. c #C4AD71",
"9. c #517681",
"0. c #6A7D80",
"q. c #5B828D",
"w. c #5B8592",
"e. c #638D99",
"r. c #638A94",
"t. c #64909C",
"y. c #758F96",
"u. c #6C9BA6",
"i. c #7396A0",
"p. c #77A2AB",
"a. c #7EACB6",
"s. c #78AAB5",
"d. c #7FB4BF",
"f. c #9C8B84",
"g. c #A3928B",
"h. c #A79A94",
"j. c #B0988B",
"k. c #B5A29A",
"l. c #8BA7AD",
"z. c #85ACB5",
"x. c #95AAB1",
"c. c #85B3BC",
"v. c #93A8AE",
"b. c #B5AAA5",
"n. c #BBB1AD",
"m. c #B6B5B5",
"M. c #D4A681",
"N. c #DBAD85",
"B. c #DBAF88",
"V. c #D7AA83",
"C. c #DEB18A",
"Z. c #E2B48C",
"A. c #E6B88F",
"S. c #ECBA8E",
"D. c #E8BB92",
"F. c #F0BB8F",
"G. c #C2BAB8",
"H. c #C2B2A8",
"J. c #D8C786",
"K. c #EBCE96",
"L. c #C9C1BF",
"P. c #FFFFB7",
"I. c #E8E296",
"U. c #85B6C0",
"Y. c #86BAC4",
"T. c #8ABAC3",
"R. c #8BBDC7",
"E. c #AEBDC2",
"W. c #8EC1CA",
"Q. c #92C2CB",
"!. c #99C7CD",
"~. c #9CCCD3",
"^. c #95CBD3",
"/. c #9ED1D8",
"(. c #A2D4DB",
"). c #AAD6DC",
"_. c #ABD8DE",
"`. c #A5D8DF",
"'. c #B5C6CA",
"]. c #A6DBE3",
"[. c #AADDE4",
"{. c #A9DFE8",
"}. c #B2DDE3",
"|. c #ABE0E7",
" X c #ABE2EA",
".X c #A5E0E7",
"XX c #B2E5EC",
"oX c #B9E1E5",
"OX c #B1EAF1",
"+X c #B0EDF6",
"@X c #98DDE6",
"#X c #CBC5C3",
"$X c #D1CCCA",
"%X c #DAD7D7",
"&X c #CFD2D3",
"*X c #E1DFDF",
"=X c #FFFFC4",
"-X c #DBDDE0",
";X c #E1DFE0",
":X c #CAEAEE",
">X c #D6E9EC",
",X c #DBEEF1",
"<X c #D2EFF2",
"1X c #E4E3E3",
"2X c #FF00FF",
"3X c #E6E8E9",
"4X c #F0EFEF",
"5X c #EFEFF0",
"6X c #FF00FF",
"7X c #E9F1F3",
"8X c #FF00FF",
"9X c #F8F7F7",
"0X c #F7F7F8",
"qX c #FF00FF",
"wX c #FAFAFB",
"eX c #FF00FF",
"rX c #FFFFFF",
"tX c #FEFEFE",
"yX c #FCFCFD",
"uX c #FBFBFB",
"iX c #F8F8F9",
/* pixels */
"0X8X8XeX8XeX8X8X8X8XeX8XeX8X8X8X8XeX8X8X8X8XqX8XeX8X0X8X8XeX8X0XeX8X8XeX8XeX8X8X8X8X8X6XeX8X8X8X8XeX8XqX8X8X8X8XeX8X8X8X8X0X8XeX",
"8X8X8X8X8X8X8X8X8X8X8X8X8X8X8X8X8X8X8XeXeX8X8X8X8X8X8X8X8X8X8X8X8X8X8X8X8X8X8X8X8X8XeXeX8X8X8X8X8X8X8X8X8X8X8X8X8X8X8X8X8X8X8X8X",
"8X8X8X8XeX8XeX8X8X8X8XeX8X8X8X8X8X8X8X#X*XeX2XeX8XqX8X8XeX6XeX8X8X8X8X8XeX8XeX8XeXeX#X%XqX8X8X8XeX8XeX8X8X8X8XeX8XeX8X8X8X8XeX8X",
"eX8X8XeX2XeX8X8X8X8XeX2XeX8X8XeX8XeXN X 3 n.eX8XeX5X8X8X8XeX2XeXeX8X8XeX2XeX2XeX8X] & * n.qX8X0X8XeX2XeX8X8XqX2XeX2XeX8X8XeX2XeX",
"5X8XeX2XeX2XeX8X8XeX2XeX8XeX8X8XeX%X= ; = + h.8X8XeX8X8X8X2XeX8X2X8X8X5XeX2XeX%Xl & , + N eX8X8XeX2XeX2X0X8X8XeX2XeX8X8XeX8XeX2X",
"eX8X8XeX2XeX8X0X8X8XeX2XeX8X8X8X8X6X> * = ; + l 2XeXqXeXeXeXeXeXeXeXeXeX2XeX$X3 * > ; + ] eX8X8X2XeX2XeX8X8XeX2XeX2XeX8X8XeX2XeX",
"8X8XeX6XeX2XeX8X8XeX2XeX2XeX8X2XeX1X> * & ; ; + l 1XeX'.l.x.v.v.x.x.x.1XeXG.> * > ; = & ` eX8X8XeX2XeX8XeX8X8XeX2XeX8X8XeX8XeX2X",
"eX8X8XeX8XeX8X8X8X8XeX8XeX8X8X8X8X2X> * o & ; ; O M i.p.R.c.c.Y.Y.d.s.i.p.j O ; ; & & + ] eX8X9X8XeX2XeX8X8XeX8XeX8XeX8X8XeX8XeX",
"8X8X8X8XqX8X8X8X8X8X8X8X8X8X8X8XeX1X> * o & + 3 b z.].[.XXXXXXXXXX~.c.T.R.0.b 3 X o & @ ` eX8X8X0X8X8X8X8X8X8X8X8X8X8X8X8X8X8X8X",
"8X8X8X8X8X8X8X8X8X8X8X8X8X8X8X8XeX1X> = &   k ~.OXXX|.).).|.{.).).].~.c.a.Y.W.a.j   = + ` eX8X8X8X8X8X8X8X8X8X8X8X8X8X8X8X8X8X8X",
"eX8X8XeX8XeX8X8X8X8XeX8XeX8X8X8X8X2X> * = y.@X:X8X8XeX>X`.[.[._.).[.|./.Q.Q.T.Y.c.c * & ` eX8X8X8XeX8XqX8X8X8X8XeX8X8X8X8XqX8XeX",
"2XeXeX2XeX8XeX8X8XeX6XeX8XeX8X8XeX1X; * z.+X>X6XeX8X7X:X].).).[.|._.).[.[.`.~.^.R.U.c # N eX8X8XeX5XeX8X8X8X8XeX2XeX8X8X8X8XeX2X",
"8X8XeX8X2XeX8XeX8X8XeX2XeX8X8XeX8X8X> l.+XXXeXeXeX>X`.|.[.).).[.[._.).[.[.~.~.~./.T.Y.j ` eX8X8X5XeX2XeX8X8XeX2XeX2XeX8X8XeX2XeX",
"eX8X8XeXeX2XeX8X8XeX2XeX5XeX8X6XeX'.p.OX`.oXeXeX0XXX[._._.[.[._.).[.[.[.).`.`.~.~.Q.c.a.y.6X8X8XeX2XeX2X0X8X8XeX2XeX6X8XeX2XeX2X",
"2X8XeX6XeX2XeX8X8XeXeX2XeX8X8X8X9Xl.^..XoX,X:XqX,X].[.)._.|.|.).).[.|._.).`.`./.~.~.U.T.u.m.eX8X8XeX2XeX8X8XeX2XeX2XeX8X8XeX2XeX",
"eX8X8XeX6XeX8X8X8X8XeXeX8XeX8XeX&Xp.[.[.:X7X`.|.[.).[.[.[._._.[.[._.).[.[.`.~.~././.c.z.Q.i.%XeX8X8XeX5X8X8X8XeX6XeX8X8X8X8XeX8X",
"8X8X8X8XeX8X0X8X8X8X8X8X0X8X8XeX'.p.XX,X6X_.[.|.[.).).|.[.).).[.[.).).[.|.].!.~.`.~.W.a.W.w.%XeX8XeX8X8X8X8X8X8XqX8X8X8X8X8X8X8X",
"8X8X8X8X8X8X8X8X8X8X8X8X8X8X8X8Xx.Q.].,X7X].[.).[.[.[.)._.[.[._._.[.[.[.).[.`.~.~.~.~.a.c.s.x.8X8X8X8X8X8X8X8X8X8X8X8X8X8X8X8X8X",
"8X8X8XqX8XeX8X8X8X8XeXeX2X8XeX>Xe.|.].).[.|.[.).[.|.[.).).{.{.).).[.|._.).[.`.~.!.~.~.a.a.R.q.2XeX8XeX8X8X8X8XeX8XeX8X8X8X8XeX8X",
"8X8XeX8XeX6XeX8X8XeX2XeX8X2XeX2Xe.].}.6X>X`.[.[.[.).`.].].).`.[.[.).).[.[.`.~.~.~.~.~.U.z.T.e.2X8XeX6XeX8X8XeX8XeX8XeX8X8XeX8XeX",
"eX8X8XeX2XeX8XeX8X8XeX2XeX8XeX3Xe.].}.eX,X`.[.|.|.).oXOX|.}.}.OXOX}.}.XXOX|.(.`.`./.~.T.z.T.q.2XeX2XeX2XeX8X8XeX2XeX8X8X8X2XeX2X",
"2X8XeX2XeX2XeX8X8XeX2XeX2XeXeX3Xu.`._.eX>X^.~.~.~.Q.t.t.t.e.e.t.t.e.e.t.e.e.q.t.Q.W.W.T.Y.Y.e.8X8XeX2X9X8X8XeX2XeX2XeX8X8XeX2XeX",
"eX8X8XeX2XeX8X8X8X2XeXeXeX1X8XG.t.u.M eXE.s h d g d s s s s s s s s s s s u y u f f f 9.e.d.M n.eX2XeXeXeX8X6XeX2XeX8X8X0X2XeX2X",
"8X8XqX8XeX8X8X0XeXeX&XG.j.[ [ T ..m s m d f d f f f d d d d d d d d d d d f f f i i i u y m k 1 v z h.#X1XeXeX8XeX2XeX8X8XeX6XeX",
"8X8X8X8X8XeXeX3X%Xj.O.( 1.A.A.^ ~ =...n n f a a a a a a a a a a a a a a s u s s u s f i k z 0 0 Z Z q 2 W X.#X8XeX8X8X8X8X8XeX8X",
"8X8X8XqXeX1Xk.=./ <.C.D.A.3.%.>.U G ~ ^ &.X.{ { B B B { { { ..{ { ..{ B ] B b b k k z r q 6 1 A H H H H Z 6 8 W $X8XeX8X8X8X8X8X",
"8X8X8X8Xk./ >.N.A.A.A.7.| %.2.N.V.Q r A A _ :.;.4.F.F.4.:.:.:.:.:.| ) ) _ _ K G S C q 1 1 0 D P K A S H H H K Z r W n.2XeX8X8XqX",
"8X8X8X=.| N.A.N.B.M.| >.%.@.M.C.B.A.N.5.+.5 5 K I T T P P P P P H A A A 6 8 5 1 1 5 8 A K Y I I K C D H A K D H D A 2 W 1XeXqX8X",
"8X0Xj.:.A.N.N.N.N.| 3.%.8.J.( V.A.+.@.A.A.( +.$.+.O.O.$.R [ O.O.O./ R $.O.O.O.O.L K T I S D I D L 8.! A A q S D D H P C z 1XqXeX",
"eXH.| A.N.N.N.N.) 1.D.! J.P.} B.+.-.I./ C.( C.A.A.A.D.7.^ +.@.+.$.( ^ A.A.A.A.K./ D K O.I.r K A  .=X8.6 P A q D D D D K q W 8X8X",
"eXj.7.A.N.N.C.>.%.C.N.2.} *.1.7.@.@.*.5.<.@.C.N.N.A.%.( 5.7.4.7.2.7.+.T N.B.N.C.%.H ~ } 8.D H I T -.L w H H A A D D D D P 6 G.eX",
"eXg.~ N.N.N.7.@.N.N.N.A.7.M.7.( A.5.<.D.%.<.A.N.C.1.@.N.1.H e w e %.N.+.( C.B.N.N.T ) ( P ( H I Y S K K S D D q A D D H K 5 $XeX",
"8X%Xz D %.A.1.%.A.N.N.N.N.A.%.>.C.C.A.7.^ M.C.C.M.( N.<.5 X X X X : / N.( %.Z.N.B.^ ~ ) ) ) ~ H T T T I D D D A q H H D < X.eX2X",
"8XeX%Xz 6 ^ ! >.A.C.C.C.N.V.+.M.C.N.C.<.^ A.B.C.+.1.,.8 X & & & & o * %.7.T 2.C.A.<.T ) ( ) ^ P Y I I Y P D D S 0 A A < g.eX8X0X",
"8X8XeX2X' 6 H H L $.2.7.D.7.@.Z.B.N.C.%.^ C.N.C.( 7.( & & & & & & & X ^ 7.H %.A.A.%.P ) ( ( ) P H T I I T D q 0 A Z 2 b.eX8X8X8X",
"8X8X8XeX8XX.q H D q q F ( Q ( V.M.V.A.| 7.A.A.A.( ,.A & & & & & & & o 4 ,.H <.D.C.N.T _ ) _ | T D P A A A 0 q D S e G.eX8X8XeX8X",
"eX8X8XqX8XeXg.< P U K D A q A H H P ( P +.%.@.<.^ ,.r & & & & & & & X : 1.H +.3.3.3.H T T A F A r r D K r A P C z $XeX8X8XeX8XeX",
"6X8XeX2XeX6XeXh.: q D H P P P K P H r q A A A A H 1.r & & & & & & & . : 1.U q A A A 0 q A A A D P P P A A D 6 v *XeX2X8XeX8XeX2X",
"eX8X8XeX2XeX8XeX$X' 2 6 H P K P K K P D K I I P H 1.w & & & & & & & . : 1.U A Y P P A K P P P P K P r q C r f.1XeX2XeX8X8XeX2XeX",
"eX8X8XeX2X2XeX8XeXeXh.v < A H P P K P H A P P K A 1.r + & & & & & & X : 2.P A P P H A K K P K P P r < 9 W %XeXeX2XeX8X8X0X6XeX2X",
"8X8XqX8XeXeX8X8X8X2XeX2Xg.9 < q q D H D A K P K A >.r * * * * * * * & 1 2.P A I P A S P K D A q 5 : f.2X2XeX9X6XeX2XeX8X8XeX2XeX",
"8X8X8XqX8X8XqX8X8X8X6XeXeX*XW 2 A 0 5 1 6 q r H A >.r 1 4 1 1 1 1 4 1 8 <.U A H A 8 8 0 q q q 2 z n.eX8X8X8X8XeX8X0X8X8X8X8X8X8X",
"8X8X8X8X8X8X8X8X8X8X8X8X8XeX' < 0 S K w A q 1 5 8 :.A A H H H H H H H 0 @.U 1 1 4 q 8 r H A 0 $ g.eX8X8X8X8X8X8X8X8X8X8X8X8X8X8X",
"8X8X8X8XeXeX8X8X8X8X8X6XeXb.6 ( r 1 8 2 D H H P 0 r 0 0 0 0 0 0 0 0 q 5 A e A H A K 6 < 8 1 q K 1 L.eX8X8X8X8X8XeX8X8X8X8X8X8XeX",
"eX8X8XeX8X8XeX8X8XeX8X8XeXn.6 ) 6 v 1Xg.9 : 0 C D S A H Y Y Y T Y T P r H D Z Z 5 : v f.&X9 A ^ 2 L.eX2X0X8X8XeX8XeX8X8X8X8XeX8X",
"2X8XeX5XeXeX8XeX8X2XeX2XqXg.S P : n.eXeX%X&X] z W W 8 < q 7 q 7 q q 5 : 8 W z z f.$X2XeXeXh.: T A b.8XeX8X8XeX2XeX2XeX8X8XeX2XeX",
"eX8X8XeX2X2XeX8X8XeX2XeX#X5 K < k.eX2X8XeXeXeX2XeX8XL.b.b.n.b.n.b.b.n.b.G.eX2X8XeXeXeX2XeXeX] 6 D 4 8X8X8X8X8XeX2XeX8X8XeX5XeX2X",
"5X8XeX2XeX8X2XeX8X2XeX0X$X4 : h.eX2XeX6X8X8X2XeX2XeXeXeXeXeXeXeXeXeXeXeXeX2XeX8X8X8X2XeX2XeXeX' : 9 8X8X8XeXeX2XeX2XeX8X8XeX2XeX",
"eX8X8XeX8XeXeX8X8XeX5XeX2X*X%X8XeXeX5XeX8X8XeX8XeX6X8X8X2X8X2XqX6X2X8X8X2XeX8X8X8X8XeX2XeX8XeX8X&X1X2XeX8X2X8XeX6XeX8X8X0X8XeX6X",
"8X8X8X8X8X8X8X8X8X8X8X8XeXeXeX8X8X8X8X8X8X8X8X8X8X8X8X8X8X8X8X8X8X8X8X8X8X8X8X8X8X8X8X8X8X8X8X8XeXeX8X8X8XeX8X8X8X8X8X8X8X8X8X8X"
};
