/* XPM */
static char *louis_front_paw[] = {
/* columns rows colors chars-per-pixel */
"80 80 204 2 ",
"   c #020201",
".  c #090906",
"X  c #0C0C0A",
"o  c #060906",
"O  c #12120E",
"+  c #1F1909",
"@  c #151413",
"#  c #171816",
"$  c #1A1916",
"%  c #161718",
"&  c #1D1C1A",
"*  c #191614",
"=  c #120D08",
"-  c #211F1A",
";  c #24221D",
":  c #2A2417",
">  c #252522",
",  c #292722",
"<  c #2C2A25",
"1  c #2C2C2C",
"2  c #302E27",
"3  c #302E2A",
"4  c #34332D",
"5  c #39362F",
"6  c #333433",
"7  c #3C3A35",
"8  c #3C3C3A",
"9  c #413E36",
"0  c #413F39",
"q  c #4A3D33",
"w  c #45433C",
"e  c #49453C",
"r  c #454037",
"t  c #66463D",
"y  c #675C3E",
"u  c #7C6722",
"i  c #6F633F",
"p  c #454543",
"a  c #4A4740",
"s  c #4C4943",
"d  c #4B4A4A",
"f  c #524E45",
"g  c #5E4940",
"h  c #545146",
"j  c #55534A",
"k  c #5A564C",
"l  c #5D584E",
"z  c #595046",
"x  c #4E4F50",
"c  c #535454",
"v  c #5D5A51",
"b  c #5C5D5D",
"n  c #565758",
"m  c #61594D",
"M  c #625D53",
"N  c #605750",
"B  c #7E574D",
"V  c #6E6243",
"C  c #656155",
"Z  c #6A6357",
"A  c #666359",
"S  c #6B665A",
"D  c #6E695D",
"F  c #716A5E",
"G  c #786B58",
"H  c #7F7256",
"J  c #5F5F61",
"K  c #626363",
"L  c #6D6A62",
"P  c #6B6B6B",
"I  c #676768",
"U  c #736E62",
"Y  c #7A6E64",
"T  c #767165",
"R  c #797366",
"E  c #7B7669",
"W  c #7E796C",
"Q  c #737474",
"!  c #7C7A74",
"~  c #7C7C7C",
"^  c #787778",
"/  c #90721B",
"(  c #967B29",
")  c #937C38",
"_  c #886E26",
"`  c #8A7D59",
"'  c #83766D",
"]  c #827C6E",
"[  c #8A7670",
"{  c #847E71",
"}  c #8B7C73",
"|  c #917F79",
" . c #9E822C",
".. c #B0902E",
"X. c #BF9F3A",
"o. c #AE8B29",
"O. c #D6AF30",
"+. c #D6AE2E",
"@. c #E2BC31",
"#. c #8F825F",
"$. c #928255",
"%. c #868175",
"&. c #8A8376",
"*. c #878379",
"=. c #8C8679",
"-. c #8E897B",
";. c #92847B",
":. c #928B7D",
">. c #948173",
",. c #B4A375",
"<. c #7F7F80",
"1. c #848384",
"2. c #8E8C82",
"3. c #8A8B8A",
"4. c #948E81",
"5. c #959183",
"6. c #999385",
"7. c #9B968A",
"8. c #9E998B",
"9. c #969188",
"0. c #929292",
"q. c #9C9C9C",
"w. c #9F9C92",
"e. c #A19B8D",
"r. c #A29689",
"t. c #A39E92",
"y. c #A79F96",
"u. c #A7A08F",
"i. c #A6A193",
"p. c #ABA495",
"a. c #A6A498",
"s. c #ACA599",
"d. c #AEA99B",
"f. c #B3A59A",
"g. c #B2AC9D",
"h. c #B9AB9D",
"j. c #BAB199",
"k. c #A5A5A4",
"l. c #ABABAB",
"z. c #AEABA1",
"x. c #B3AEA2",
"c. c #BAAFA2",
"v. c #B6B1A4",
"b. c #B8B3A5",
"n. c #B3B2AB",
"m. c #BAB5AA",
"M. c #BDB9AC",
"N. c #B3B3B3",
"B. c #BBBBBC",
"V. c #BAB9B5",
"C. c #C1BCAE",
"Z. c #C1BDB1",
"A. c #C5C1B5",
"S. c #C9C5B7",
"D. c #C7C3B9",
"F. c #CAC6BA",
"G. c #CDC9BB",
"H. c #D0CBBE",
"J. c #BFC0C0",
"K. c #C3C3C3",
"L. c #CECBC1",
"P. c #CFCFCF",
"I. c #D2CFC3",
"U. c #D5D2C4",
"Y. c #DAD5C6",
"T. c #D4D3C9",
"R. c #D9D6C9",
"E. c #DDD9CC",
"W. c #DCD8C6",
"Q. c #D6D6D6",
"!. c #D5D5D5",
"~. c #DEDCD2",
"^. c #D7D8D8",
"/. c #D8D9D9",
"(. c #DDDDDD",
"). c #E1DDCC",
"_. c #E1DDD1",
"`. c #E4E0CE",
"'. c #E5E2D5",
"]. c #E8E4D4",
"[. c #E7E4D8",
"{. c #E9E6D9",
"}. c #ECE9DC",
"|. c #EDE9D7",
" X c #E1E1E2",
".X c #EDEBE0",
"XX c #EEEEEE",
"oX c #EBEBEB",
"OX c #F1EFE3",
"+X c #F2F0E6",
"@X c #F8F6EC",
"#X c #F4F4F4",
"$X c #FAFAFA",
"%X c #FCFCFC",
"&X c #FDFDFD",
"*X c #FCFDFD",
"=X c #FF00FF",
"-X c #FEFFFE",
";X c #FEFFFF",
":X c #FFFFFF",
">X c #FFFEFE",
",X c #FDFEFD",
"<X c #FEFEFE",
"1X c #F7F8F7",
/* pixels */
"=X=X=X=X=X=X=X=X=X=X=X=X=X=X=X=X=X=X=X=X=X=X=X=X=X=X=X=X=X=X=X=X=X=X=X=X=X=X=X=X=X=X=X=X=X=X=X=X=X=X=X=X=X=X=X=X=X=X=X=X=X=X=X=X=X=X=X=X=X=X=X=X=X=X=X=X=X=X=X=X",
"=X=X=X=X=X=X=X=X=X=X=X=X=X=X=X=X=X=X=X=X=X=X=X=X=X=X=X=X=X=X=X=X=X=X=X=X=X=X=X=X=X=X=X=X=X=X=X=X=X=X=X=X=X=X=X=X=X=X=X=X=X=X=X=X=X=X=X=X=X=X=X=X=X=X=X=X=X=X=X=X",
"=X=X=X=X=X=X=X=X=X=X=X=X=X=X=X=X=X=X=X=X=X=X=X=X=X=X=X=X=X=X=X=X=X=X=X=X=X=X=X=X=X=X=X=X=X=X=X=X=X=X=X=X=X=X=X=X=X=X=X=X=X=X=X=X=X=X=X=X=X=X=X=X=X=X=X=X=X=X=X=X",
"=X=X=X=X=X=X=X=X=X=X=X=X=X=X=X=X=X=X=X=X=X=X=X=X=X=X=X=X/./.Q.=X=X=X=X=X=X=X=X=X=X=X=X=X=X=X=X=X=XoXQ.Q./.=X=X=X=X=X=X=X=X=X=X=X=X=X=X=X=X=X=X=X=X=X=X=X=X=X=X=X",
"=X=X=X=X=X=X=X=X=X=X=X=X=X=X=X=X=X=X=X=X=X=X=X=X=X=X=XK.- * X k.=X=X=X=X=X=X=X=X=X=X=X=X=X=X=X=X=XQ X * < ^.=X=X=X=X=X=X=X=X=X=X=X=X=X=X=X=X=X=X=X=X=X=X=X=X=X=X",
"=X=X=X=X=X=X=X=X=X=X=X=X=X=X=X=X=X=X=X=X=X=X=X=X=X=X/.> ' ' } ; q.=X=X=X=X=X=X=X=X=X=X=X=X=X=X=X~ 9 =.{ Y 1 oX=X=X=X=X=X=X=X=X=X=X=X=X=X=X=X=X=X=X=X=X=X=X=X=X=X",
"=X=X=X=X=X=X=X=X=X=X=X=X=X=X=X=X=X=X=X=X=X=X=X=X=X=XQ.- ;.r.r.:., N.=X=X=X=X=X=X=X=X=X=X=X=X=X1.7 :.:.7.} < oX=X=X=X=X=X=X=X=X=X=X=X=X=X=X=X=X=X=X=X=X=X=X=X=X=X",
"=X=X=X=X=X=X=X=X=X=X=X=X=X=X=X=X=X=X=X=X=X=X=X=X=X=X^.; :.c.h.p.{ , B.=X#X=X=X=X=X=X=X=X#X=X~ 5 r.c.x.s.} 1 oX=X=X=X=X=X=X=X=X=X=X=X=X=X=X=X=X=X=X=X=X=X=X=X=X=X",
"=X=X=X=X=X=X=X=X=X=X=X=X=X=X=X=X=X=X=X=X=X=X=X=X=X=X/.; ;.g.f.p.p.E < l.=X=X=X=X=X=X=X=X=X~ 4 E c.x.b.s.[ 1 oX=X=X=X=X=X=X=X=X=X=X=X=X=X=X=X=X=X=X=X=X=X=X=X=X=X",
"=X=X=X=X=X=X=X=X=X=X=X=X=X=X=X=X=X=X=X=X=X=X=X=X=X=X^.; ;.f.f.p.p.4.l L Q P P P P I P P P v S 4.g.g.x.s.[ 1 oX=X=X=X=X=X=X=X=X=X=X=X=X=X=X=X=X=X=X=X=X=X=X=X=X=X",
"=X=X=X=X=X=X=X=X=X=X=X=X=X=X=X=X=X=X=X=X=X=X=X=X=X=X/.; | f.r.r.p.r.=.C 4 ; & * @ @ @ & < D { 7.u.r.s.s.[ < oX=X=X=X=X=X=X=X=X=X=X=X=X=X=X=X=X=X=X=X=X=X=X=X=X=X",
"=X=X=X=X=X=X=X=X=X=X=X=X=X=X=X=X=X=X=X=X=X=X=X=X=X=XQ.& | p.;.] r.r.] =.=.f T M e M l j 5.-.E :.:.-.t.y.} < oX=X=X=X=X=X=X=X=X=X=X=X=X=X=X=X=X=X=X=X=X=X=X=X=X=X",
"=X=X=X=X=X=X=X=X=X=X=X=X=X=X=X=X=X=X=X=X=X=X=X=X=X=XQ.O F ] E { :.7.{ %.{ j =.v 9 L E e *.-.] %.] { =.} F > oX=X=X=X=X=X=X=X=X=X=X=X=X=X=X=X=X=X=X=X=X=X=X=X=X=X",
"=X=X=X=X=X=X=X=X=X=X=X=X=X=X=X=X=X=X=X=X=X=X=X=X=X=X/.@ l Y ] g.g.r.=.-.{ j =.l 9 U { e =.4.:.r.p.p.=.' N > oX=X=X=X=X=X=X=X=X=X=X=X=X=X=X=X=X=X=X=X=X=X=X=X=X=X",
"=X=X=X=X=X=X=X=X=X=X=X=X=X=X=X=X=X=X=X=X=X=X=X=X=X=X=XQ.4 l ;.4.=.=.=.4.W f T l e A A l %.4.=.=.{ =.:.M d  X=X=X=X=X=X=X=X=X=X=X=X=X=X=X=X=X=X=X=X=X=X=X=X=X=X=X",
"=X=X=X=X=X=X=X=X=X=X=X=X=X=X=X=X=X=X=X=X=X=X=X=X=X=X=X=X@ 4 =.] { %.=.%.l E l U e M l %.C 4.=.] W W =., c =X=X=X=X=X=X=X=X=X=X=X=X=X=X=X=X=X=X=X=X=X=X=X=X=X=X=X",
"=X=X=X=X=X=X=X=X=X=X=X=X=X=X=X=X=X=X=X=X=X=X=X=X=X=X=XQ.& h =.%.:.7.8.%.9 =.E l f h E ] a 7.7.8.:.=.] 3 x =X=X=X=X=X=X=X=X=X=X=X=X=X=X=X=X=X=X=X=X=X=X=X=X=X=X=X",
"=X=X=X=X=X=X=X=X=X=X=X=X=X=X=X=X=X=X=X=X=X=X=X=X=X=X=Xc ; %.{ =.r.s.Z.A.7.:.=.{ %.W { 5.t.C.Z.m.5.-.=.S X q.=X=X=X=X=X=X=X=X=X=X=X=X=X=X=X=X=X=X=X=X=X=X=X=X=X=X",
"=X=X=X=X=X=X=X=X=X=X=X=X=X=X=X=X=X=X=X=X=X=X=X=X=X=X=Xc 4 =.E E ] V G j i.m.%.7.7.=.t.H.*.4 y y ] { %.T X q.=X=X=X=X=X=X=X=X=X=X=X=X=X=X=X=X=X=X=X=X=X=X=X=X=X=X",
"=X=X=X=X=X=X=X=X=X=X=X=X=X=X=X=X=X=X=X=X=X=X=X=X=X=XI 3 M f M L V @.u = / j.i.=.5.E m.,./ + ( O.G E l f f > 0.=X=X=X=X=X=X=X=X=X=X=X=X=X=X=X=X=X=X=X=X=X=X=X=X=X",
"=X=X=X=X=X=X=X=X=X=X=X=X=X=X=X=X=X=X=X=X=X=X=X=X=X=Xd , C Z r.F.#.@.u * o.H 5.=.7.=.7.i +.:  .O.:.L.W f l   P =X=X=X=X=X=X=X=X=X=X=X=X=X=X=X=X=X=X=X=X=X=X=X=X=X",
"=X=X=X=X=X=X=X=X=X=X=X=X=X=X=X=X=X=X=X=X=X=X=X=X=X=Xc ; T :.] %.] )  ._ ( X l 7.4.7.l   .. .X.) U T =.=.S . Q =X=X=X=X=X=X=X=X=X=X=X=X=X=X=X=X=X=X=X=X=X=X=X=X=X",
"=X=X=X=X=X=X=X=X=X=X=X=X=X=X=X=X=X=X=X=X=X=X=X=X=X=Xc * E -.E E :.l V $.H M F 7.7.:.m U H ` ` ] =.U =.-.S . Q =X=X=X=X=X=X=X=X=X=X=X=X=X=X=X=X=X=X=X=X=X=X=X=X=X",
"=X=X=X=X=X=X=X=X=X=X=X=X=X=X=X=X=X=X=X=X=X=X=X=X=X=Xd O f ] 7.:.E E E U T ] Z :.i.] m =.U U T E { 4.7.S j   P =X=X=X=X=X=X=X=X=X=X=X=X=X=X=X=X=X=X=X=X=X=X=X=X=X",
"=X=X=X=X=X=X=X=X=X=X=X=X=X=X=X=X=X=X=X=X=X=X=X=X=X=XQ.b < D E =.] { ] =.:.7.q G >.G z s.8.:.-.=.] D E M ; ~ /.=X=X=X=X=X=X=X=X=X=X=X=X=X=X=X=X=X=X=X=X=X=X=X=X=X",
"=X=X=X=X=X=X=X=X=X=X=X=X=X=X=X=X=X=X=X=X=X=X=X=X=X=X=X~ * S S T 8.8.r.:.E Y.:.t B t t.G.E g.d.s.g.] f v   N.=X=X=X=X=X=X=X=X=X=X=X=X=X=X=X=X=X=X=X=X=X=X=X=X=X=X",
"=X=X=X=X=X=X=X=X=X=X=X=X=X=X=X=X=X=X=X=X=X=X=X=X=X=X=X#Xq.9 =.:.8.m.Y.Z.b.).OX;.g =.+XR.g.G.).F.h.u.] 3 k.#X=X=X=X=X=X=X=X=X=X=X=X=X=X=X=X=X=X=X=X=X=X=X=X=X=X=X",
"=X=X=X=X=X=X=X=X=X=X=X=X=X=X=X=X=X=X=X=X=X=X=X=X=X=X=X=XN.* ] r.m.G.E.S.C.R.+X{.M }.OX^.A.F.U.G.g.7.] O /.=X=X=X=X=X=X=X=X=X=X=X=X=X=X=X=X=X=X=X=X=X=X=X=X=X=X=X",
"=X=X=X=X=X=X=X=X=X=X=X=X=X=X=X=X=X=X=X=X=X=X=X=X=X=X=X=XV.  -.Y.G.b.b.b.Z.m.7.=.e =.8.r.x.x.p.g.G.G.S X Q.=X=X=X=X=X=X=X=X=X=X=X=X=X=X=X=X=X=X=X=X=X=X=X=X=X=X=X",
"=X=X=X=X=X=X=X=X=X=X=X=X=X=X=X=X=X=X=X=X=X=X=X=X=X=X=X=XoX3.l 7.i.b.C.A.F.i.M { 8.v E 5.d.m.m.i.8.=.S k.#X=X=X=X=X=X=X=X=X=X=X=X=X=X=X=X=X=X=X=X=X=X=X=X=X=X=X=X",
"=X=X=X=X=X=X=X=X=X=X=X=X=X=X=X=X=X=X=X=X=X=X=X=X=X=X=X=XB.@ h r.g.-.p.U.[.}.}.}.].|.|.OX_.S.r.:.g.=.e ; /.=X=X=X=X=X=X=X=X=X=X=X=X=X=X=X=X=X=X=X=X=X=X=X=X=X=X=X",
"=X=X=X=X=X=X=X=X=X=X=X=X=X=X=X=X=X=X=X=X=X=X=X=X=X=X=X=XN.; F ] =.-.i.b.F.).`.].].].`.W.H.s.4.:.-.T l * Q.=X=X=X=X=X=X=X=X=X=X=X=X=X=X=X=X=X=X=X=X=X=X=X=X=X=X=X",
"=X=X=X=X=X=X=X=X=X=X=X=X=X=X=X=X=X=X=X=X=X=X=X=X=X=X=X=XB.; 7.4.=.7.x.b.b.b.U.E.E.E.U.g.d.d.p.-.=.7.{ *  X=X=X=X=X=X=X=X=X=X=X=X=X=X=X=X=X=X=X=X=X=X=X=X=X=X=X=X",
"=X=X=X=X=X=X=X=X=X=X=X=X=X=X=X=X=X=X=X=X=X=X=X=X=X=X=X0.a C 7.s.s.p.I.C.d.p.p.p.d.d.p.s.d.b.A.b.r.g.4.e 8 K.=X=X=X=X=X=X=X=X=X=X=X=X=X=X=X=X=X=X=X=X=X=X=X=X=X=X",
"=X=X=X=X=X=X=X=X=X=X=X=X=X=X=X=X=X=X=X=X=X=X=X=X=X=X=XI O 4.4.s.G.R.U.m.C.W.m.m.m.m.m.G.S.b.F.'.m.8.=.W   l.=X=X=X=X=X=X=X=X=X=X=X=X=X=X=X=X=X=X=X=X=X=X=X=X=X=X",
"=X=X=X=X=X=X=X=X=X=X=X=X=X=X=X=X=X=X=X=X=X=X=X=X=X=X Xb 3 4.7.x.F.R.U.Y.).].'.'.'.'.E.`.).U._.U.C.r.%.%.< 0.#X=X=X=X=X=X=X=X=X=X=X=X=X=X=X=X=X=X=X=X=X=X=X=X=X=X",
"=X=X=X=X=X=X=X=X=X=X=X=X=X=X=X=X=X=X=X=X=X=X=X=X=X=X& ; M =.4.m.E.'.}.].].].}.}.}.{.{.].].]..X'.U.a.-.%.U < I =X=X=X=X=X=X=X=X=X=X=X=X=X=X=X=X=X=X=X=X=X=X=X=X=X",
"=X=X=X=X=X=X=X=X=X=X=X=X=X=X=X=X=X=X=X=X=X=X=X=X=X#X@ < Z { 4.m.+X}.].].].].{.{.{.{.{.].].].]..X[.a.:.E W < b =X=X=X=X=X=X=X=X=X=X=X=X=X=X=X=X=X=X=X=X=X=X=X=X=X",
"=X=X=X=X=X=X=X=X=X=X=X=X=X=X=X=X=X=X=X=X=X=X=X=X=XoX@ M =.=.8.M.OX'.'.'.].].{.{.{.{.{.{.{.].'.{.[.a.4.=.-.3 b =X=X=X=X=X=X=X=X=X=X=X=X=X=X=X=X=X=X=X=X=X=X=X=X=X",
"=X=X=X=X=X=X=X=X=X=X=X=X=X=X=X=X=X=X=X=X=X=X=X=X=XoX@ U F T 4.m.I.'.'.'.].].{.{.{.{.{.{.{.'.'.E.A.t.-.U W < b =X=X=X=X=X=X=X=X=X=X=X=X=X=X=X=X=X=X=X=X=X=X=X=X=X",
"=X=X=X=X=X=X=X=X=X=X=X=X=X=X=X=X=X=X=X=X=X=X=X=X=XoX@ e S D E t.A.'.].{.{.{.{.{.[.{.{.{.{.{.].E.s.7.W C E < J =X=X=X=X=X=X=X=X=X=X=X=X=X=X=X=X=X=X=X=X=X=X=X=X=X",
"=X=X=X=X=X=X=X=X=X=X=X=X=X=X=X=X=X=X=X=X=X=X=X=X=XoX@ a %.{ U E d.E.'.{.{.{.{.[.[.[.{.{.{.{.].U.{ S T ] E , I =X=X=X=X=X=X=X=X=X=X=X=X=X=X=X=X=X=X=X=X=X=X=X=X=X",
"=X=X=X=X=X=X=X=X=X=X=X=X=X=X=X=X=X=X=X=X=X=X=X=X=XoX@ j :.7.7.=.F i.[.{.{.{.{.[.[.[.{.{.{.{..Xt.S ] =.7.W > I =X=X=X=X=X=X=X=X=X=X=X=X=X=X=X=X=X=X=X=X=X=X=X=X=X",
"=X=X=X=X=X=X=X=X=X=X=X=X=X=X=X=X=X=X=X=X=X=X=X=X=XoX@ l E 8.d.r.:.7.m.'.{.{.[.[.[.[.{.{.{.'.F.8.:.r.r.7.E < I =X=X=X=X=X=X=X=X=X=X=X=X=X=X=X=X=X=X=X=X=X=X=X=X=X",
"=X=X=X=X=X=X=X=X=X=X=X=X=X=X=X=X=X=X=X=X=X=X=X=X=XoX* l E -.r.r.i.p.b.'.{.[.[.[.{.[.[.{.{.'.m.d.t.r.t.{ U < I =X=X=X=X=X=X=X=X=X=X=X=X=X=X=X=X=X=X=X=X=X=X=X=X=X",
"=X=X=X=X=X=X=X=X=X=X=X=X=X=X=X=X=X=X=X=X=X=X=X=X=XoX& M =.] :.u.i.b.A.'.].'.[.[.{.[.[.[.{.'.F.Z.i.7.4.{ U , I =X=X=X=X=X=X=X=X=X=X=X=X=X=X=X=X=X=X=X=X=X=X=X=X=X",
"=X=X=X=X=X=X=X=X=X=X=X=X=X=X=X=X=X=X=X=X=X=X=X=X=XoX& M =.] { :.r.x.F.'.'.'.'.[.{.[.'.'.[.}.R.F.i.4.E E U ; b =X=X=X=X=X=X=X=X=X=X=X=X=X=X=X=X=X=X=X=X=X=X=X=X=X",
"=X=X=X=X=X=X=X=X=X=X=X=X=X=X=X=X=X=X=X=X=X=X=X=X=XoX> l T =.=.{ 7.m.b.A.'.'.[.{.[.[.'.'.{._.m.m.7.{ T M A > I =X=X=X=X=X=X=X=X=X=X=X=X=X=X=X=X=X=X=X=X=X=X=X=X=X",
"=X=X=X=X=X=X=X=X=X=X=X=X=X=X=X=X=X=X=X=X=X=X=X=X=X=XQ.< l S S T 7.i.g.x.S.'.^.[.{.[.'.[.U.Z.b.x.7.7.E M - P =X=X=X=X=X=X=X=X=X=X=X=X=X=X=X=X=X=X=X=X=X=X=X=X=X=X",
"=X=X=X=X=X=X=X=X=X=X=X=X=X=X=X=X=X=X=X=X=X=X=X=X=X=X#X& f F M m F U 7.s.x.Z.U.{.{.{.E.C.b.x.m.d.t.7.D S @ Q =X=X=X=X=X=X=X=X=X=X=X=X=X=X=X=X=X=X=X=X=X=X=X=X=X=X",
"=X=X=X=X=X=X=X=X=X=X=X=X=X=X=X=X=X=X=X=X=X=X=X=X=X=XoX* l 4.=.E l M E 4.r.x.F.E._.U.G.m.s.b.x.7.{ Q l M * Q =X=X=X=X=X=X=X=X=X=X=X=X=X=X=X=X=X=X=X=X=X=X=X=X=X=X",
"=X=X=X=X=X=X=X=X=X=X=X=X=X=X=X=X=X=X=X=X=X=X=X=X=X=XoX@ D 7.7.7.E ] E U :.b.m.m.m.m.b.b.s.7.{ E S l v D * Q =X=X=X=X=X=X=X=X=X=X=X=X=X=X=X=X=X=X=X=X=X=X=X=X=X=X",
"=X=X=X=X=X=X=X=X=X=X=X=X=X=X=X=X=X=X=X=X=X=X=X=X=X=XoX@ l =.7.i.s.p.r.S F 7.b.g.d.g.x.x.7.E l S F U %.=.* Q =X=X=X=X=X=X=X=X=X=X=X=X=X=X=X=X=X=X=X=X=X=X=X=X=X=X",
"=X=X=X=X=X=X=X=X=X=X=X=X=X=X=X=X=X=X=X=X=X=X=X=X=X=XoXX e l :.d.p.t.r.7.l S g.m.b.x.b.t.D W S W 4.i.i.D   3.=X=X=X=X=X=X=X=X=X=X=X=X=X=X=X=X=X=X=X=X=X=X=X=X=X=X",
"=X=X=X=X=X=X=X=X=X=X=X=X=X=X=X=X=X=X=X=X=X=X=X=X=X=X=XK.6 e E =.%.7.t.r.{ C l C A ^ r.=.Z =.7.7.8.i.t.e d =X=X=X=X=X=X=X=X=X=X=X=X=X=X=X=X=X=X=X=X=X=X=X=X=X=X=X",
"=X=X=X=X=X=X=X=X=X=X=X=X=X=X=X=X=X=X=X=X=X=X=X=X=X=X=X=X1 a E C l Z 7.r.=.e   1 X - ] l W r.r.t.i.7.%., p =X=X=X=X=X=X=X=X=X=X=X=X=X=X=X=X=X=X=X=X=X=X=X=X=X=X=X",
"=X=X=X=X=X=X=X=X=X=X=X=X=X=X=X=X=X=X=X=X=X=X=X=X=X=X=X=X& C ] T =.] U :.-.; > =X X^ 5 C r.t.i.r.=.-.M > J.=X=X=X=X=X=X=X=X=X=X=X=X=X=X=X=X=X=X=X=X=X=X=X=X=X=X=X",
"=X=X=X=X=X=X=X=X=X=X=X=X=X=X=X=X=X=X=X=X=X=X=X=X=X=X=X=XQ v =.7.i.i.W -.U @ 6 #X=XV.X { t.t.{ E S E f 8 =X=X=X=X=X=X=X=X=X=X=X=X=X=X=X=X=X=X=X=X=X=X=X=X=X=X=X=X",
"=X=X=X=X=X=X=X=X=X=X=X=X=X=X=X=X=X=X=X=X=X=X=X=X=X=X=X=X=X1 L 7.W =.s.i.C O p #X=Xl.; p.t.r.C l l D a 6 =X=X=X=X=X=X=X=X=X=X=X=X=X=X=X=X=X=X=X=X=X=X=X=X=X=X=X=X",
"=X=X=X=X=X=X=X=X=X=X=X=X=X=X=X=X=X=X=X=X=X=X=X=X=X=X=X=X=X6 9 l h A 8.g.{   Q =X=XN.< r.=.E S C T ] h 6 =X=X=X=X=X=X=X=X=X=X=X=X=X=X=X=X=X=X=X=X=X=X=X=X=X=X=X=X",
"=X=X=X=X=X=X=X=X=X=X=X=X=X=X=X=X=X=X=X=X=X=X=X=X=X=X=X=X=X1 < v %.s.t.p.{   3.=X=XN.; T l C { =.p.A * 6 =X=X=X=X=X=X=X=X=X=X=X=X=X=X=X=X=X=X=X=X=X=X=X=X=X=X=X=X",
"=X=X=X=X=X=X=X=X=X=X=X=X=X=X=X=X=X=X=X=X=X=X=X=X=X=X=X=X=X1 7 4.8.i.i.p.E   3.=X=Xl., r.=.4.8.5.:.v   6 =X=X=X=X=X=X=X=X=X=X=X=X=X=X=X=X=X=X=X=X=X=X=X=X=X=X=X=X",
"=X=X=X=X=X=X=X=X=X=X=X=X=X=X=X=X=X=X=X=X=X=X=X=X=X=X=X=X=X6 . A r.W W 7.:.< b =X=Xl.< g.i.t.t.7.%.j X 1 =X=X=X=X=X=X=X=X=X=X=X=X=X=X=X=X=X=X=X=X=X=X=X=X=X=X=X=X",
"=X=X=X=X=X=X=X=X=X=X=X=X=X=X=X=X=X=X=X=X=X=X=X=X=X=X=X=X=X6 o a E W 5.8.g.2.& #X=Xl.< p.r.t.%.U W j   1 =X=X=X=X=X=X=X=X=X=X=X=X=X=X=X=X=X=X=X=X=X=X=X=X=X=X=X=X",
"=X=X=X=X=X=X=X=X=X=X=X=X=X=X=X=X=X=X=X=X=X=X=X=X=X=X=X=X=X6 * a T i.5.5.x.4.> #X=Xl.> p.r.i.] M U j & 1 =X=X=X=X=X=X=X=X=X=X=X=X=X=X=X=X=X=X=X=X=X=X=X=X=X=X=X=X",
"=X=X=X=X=X=X=X=X=X=X=X=X=X=X=X=X=X=X=X=X=X=X=X=X=X=X=X=X=X1 a l 7 t.E W s.2.> =X=Xl.; s.4.4.7.8.e 0 { 1 =X=X=X=X=X=X=X=X=X=X=X=X=X=X=X=X=X=X=X=X=X=X=X=X=X=X=X=X",
"=X=X=X=X=X=X=X=X=X=X=X=X=X=X=X=X=X=X=X=X=X=X=X=X=X=X=X=X1.d E a 6 i.7.i.d.2.> oX=Xl.; i.E T { -.4 7 { & =X=X=X=X=X=X=X=X=X=X=X=X=X=X=X=X=X=X=X=X=X=X=X=X=X=X=X=X",
"=X=X=X=X=X=X=X=X=X=X=X=X=X=X=X=X=X=X=X=X=X=X=X=X=X=X=X#XX U 8.0 > :.8.w.x.L.2.6 =Xl.; p.5.7.U T 7 X 4 <.=X=X=X=X=X=X=X=X=X=X=X=X=X=X=X=X=X=X=X=X=X=X=X=X=X=X=X=X",
"=X=X=X=X=X=X=X=X=X=X=X=X=X=X=X=X=X=X=X=X=X=X=X=X=X=X=X#X> l :.8 & s.m.m.F.@Xm.& =Xl.> p.7.t.-.%.7 % 3.=X=X=X=X=X=X=X=X=X=X=X=X=X=X=X=X=X=X=X=X=X=X=X=X=X=X=X=X=X",
"=X=X=X=X=X=X=X=X=X=X=X=X=X=X=X=X=X=X=X=X=X=X=X=X=X=X=X#X# 0 { v 7 =.[..X[.OXm.> =XN.4 t.S U E %.< n =X1X=X=X=X=X=X=X=X=X=X=X=X=X=X=X=X=X=X=X=X=X=X=X=X=X=X=X=X=X",
"=X=X=X=X=X=X=X=X=X=X=X=X=X=X=X=X=X=X=X=X=X=X=X=X=X=X=X=XN.& O ; @ @ R.}.^.'.x.> =Xm.4 p.{ W 5.s.0 d =X=X=X=X=X=X=X=X=X=X=X=X=X=X=X=X=X=X=X=X=X=X=X=X=X=X=X=X=X=X",
"=X=X=X=X=X=X=X=X=X=X=X=X=X=X=X=X=X=X=X=X=X=X=X=X=X=X=X=X=XB.N.B.3.  y.[.D.d.z.@ =XN.4 s.8.8.7.s.0 d =X=X=X=X=X=X=X=X=X=X=X=X=X=X=X=X=X=X=X=X=X=X=X=X=X=X=X=X=X=X",
"=X=X=X=X=X=X=X=X=X=X=X=X=X=X=X=X=X=X=X=X=X=X=X=X=X=X=X=X=X=X=X=X=XK.p s._.w.a K.=X0.< m.L.G.D.R.L p #X=X=X=X=X=X=X=X=X=X=X=X=X=X=X=X=X=X=X=X=X=X=X=X=X=X=X=X=X=X",
"=X=X=X=X=X=X=X=X=X=X=X=X=X=X=X=X=X=X=X=X=X=X=X=X=X=X=X=X=X=X=X=X=X=XK.j > p B.=X/.O 7.'.+X.X{.}.+Xe ^ =X=X=X=X=X=X=X=X=X=X=X=X=X=X=X=X=X=X=X=X=X=X=X=X=X=X=X=X=X",
"=X=X=X=X=X=X=X=X=X=X=X=X=X=X=X=X=X=X=X=X=X=X=X=X=X=X=X=X=X=X=X=X=X=X=XK.q.B.=X=X/.& ^..XR.[.'.R.@Xd ~ =X=X=X=X=X=X=X=X=X=X=X=X=X=X=X=X=X=X=X=X=X=X=X=X=X=X=X=X=X",
"=X=X=X=X=X=X=X=X=X=X=X=X=X=X=X=X=X=X=X=X=X=X=X=X=X=X=X=X=X=X=X=X=X=X=X=X=X=X=X=X/.# U.^.w..X^.2.+Xd Q =X=X=X=X=X=X=X=X=X=X=X=X=X=X=X=X=X=X=X=X=X=X=X=X=X=X=X=X=X",
"=X=X=X=X=X=X=X=X=X=X=X=X=X=X=X=X=X=X=X=X=X=X=X=X=X=X=X=X=X=X=X=X=X=X=X=X=X=X=X=X X& b.G.t.^.L.=.Z.7 ~ =X=X=X=X=X=X=X=X=X=X=X=X=X=X=X=X=X=X=X=X=X=X=X=X=X=X=X=X=X",
"=X=X=X=X=X=X=X=X=X=X=X=X=X=X=X=X=X=X=X=X=X=X=X=X=X=X=X=X=X=X=X=X=X=X=X=X=X=X=X=X=XoXa   @ & & @   1.=X=X=X=X=X=X=X=X=X=X=X=X=X=X=X=X=X=X=X=X=X=X=X=X=X=X=X=X=X=X",
"=X=X=X=X=X=X=X=X=X=X=X=X=X=X=X=X=X=X=X=X=X=X=X=X=X=X=X=X=X=X=X=X=X=X=X=X=X=X=X=X=X=XP.B.B.B.B.K.B.oX=X=X=X=X=X=X=X=X=X=X=X=X=X=X=X=X=X=X=X=X=X=X=X=X=X=X=X=X=X=X",
"=X=X=X=X=X=X=X=X=X=X=X=X=X=X=X=X=X=X=X=X=X=X=X=X=X=X=X=X=X=X=X=X=X=X=X=X=X=X=X=X=X=X=X=X=X=X=X=X=X=X=X=X=X=X=X=X=X=X=X=X=X=X=X=X=X=X=X=X=X=X=X=X=X=X=X=X=X=X=X=X"
};
