/* XPM */
static char *louis_back4[] = {
/* columns rows colors chars-per-pixel */
"38 80 169 2 ",
"   c #1F1F1D",
".  c #2A2925",
"X  c #302F2E",
"o  c #31312E",
"O  c #2F2F31",
"+  c #343433",
"@  c #373833",
"#  c #3B3A36",
"$  c #3C3C3A",
"%  c #413E3A",
"&  c #44413D",
"*  c #48443F",
"=  c #454443",
"-  c #494642",
";  c #4D4A45",
":  c #4C4B49",
">  c #534E46",
",  c #534E4A",
"<  c #565047",
"1  c #585147",
"2  c #55514B",
"3  c #5A544C",
"4  c #5C584E",
"5  c #565451",
"6  c #5A5651",
"7  c #5D5A54",
"8  c #5E5C5A",
"9  c #615C56",
"0  c #635E59",
"q  c #65615D",
"w  c #6A645D",
"e  c #6F685F",
"r  c #70675E",
"t  c #71695E",
"y  c #666461",
"u  c #6B6561",
"i  c #6E6964",
"p  c #6D6C6B",
"a  c #706762",
"s  c #736C64",
"d  c #786F65",
"f  c #746E69",
"g  c #786F68",
"h  c #777066",
"j  c #7A7167",
"k  c #76716B",
"l  c #7C746B",
"z  c #7F786E",
"x  c #757572",
"c  c #7D7771",
"v  c #7E7972",
"b  c #7F7F7C",
"n  c #81776D",
"m  c #83796E",
"M  c #887B6F",
"N  c #807770",
"B  c #847C73",
"V  c #897E73",
"C  c #827F7A",
"Z  c #868073",
"A  c #8B8176",
"S  c #83817C",
"D  c #8C847A",
"F  c #8E897F",
"G  c #908477",
"H  c #91867B",
"J  c #94897D",
"K  c #988D7F",
"L  c #838383",
"P  c #8A8986",
"I  c #858588",
"U  c #8C8B8B",
"Y  c #958B81",
"T  c #988E83",
"R  c #908F8C",
"E  c #979087",
"W  c #9C9286",
"Q  c #93928E",
"!  c #9D948A",
"~  c #9F9889",
"^  c #959593",
"/  c #989997",
"(  c #9E9E9C",
")  c #A19586",
"_  c #A09987",
"`  c #A0968B",
"'  c #A2998C",
"]  c #A89C8D",
"[  c #A69D91",
"{  c #A79E92",
"}  c #A19F9A",
"|  c #A3A29F",
" . c #A4A09C",
".. c #A6A5A5",
"X. c #A9A8A5",
"o. c #ADABA8",
"O. c #ABABAA",
"+. c #B1AFAF",
"@. c #B2B1AE",
"#. c #B4B5B4",
"$. c #B9B4B0",
"%. c #BAB7B3",
"&. c #B9B8B6",
"*. c #BEBDB9",
"=. c #BDBCBB",
"-. c #C0BFBD",
";. c #C4C3C0",
":. c #C7C6C2",
">. c #C6C5C4",
",. c #C7C7C4",
"<. c #C5C4C3",
"1. c #C9C7C4",
"2. c #C8C7C6",
"3. c #C7C8C5",
"4. c #CBC9C5",
"5. c #CFCAC7",
"6. c #C9C8C6",
"7. c #CDCBC8",
"8. c #CECDCB",
"9. c #CDCCCA",
"0. c #CDCCCB",
"q. c #D0CECD",
"w. c #D3D1CF",
"e. c #D0D0CF",
"r. c #D3D2D0",
"t. c #D4D4D1",
"y. c #D7D7D5",
"u. c #D6D7D6",
"i. c #D5D5D4",
"p. c #D8D8D5",
"a. c #DAD8D5",
"s. c #DEDDDA",
"d. c #DDDEDC",
"f. c #DCDCDC",
"g. c #DFDFE0",
"h. c #E4E3E0",
"j. c #E4E4E5",
"k. c #E8E8E6",
"l. c #E7E7E8",
"z. c #EFEFED",
"x. c #ECECEC",
"c. c #F3F3F3",
"v. c #F0F0F1",
"b. c #F4F5F3",
"n. c #F5F5F5",
"m. c #F6F5F4",
"M. c #F4F4F4",
"N. c #F9F8F7",
"B. c #FBF9F9",
"V. c #FAFAFB",
"C. c #FBFBFB",
"Z. c #F9F8F8",
"A. c #FCFBFB",
"S. c #FBFCFB",
"D. c #FCFCFB",
"F. c #FCFCFA",
"G. c #FDFBFC",
"H. c #FCFCFC",
"J. c #FDFCFC",
"K. c #FCFDFC",
"L. c #FDFDFC",
"P. c #FDFCFD",
"I. c #FCFDFD",
"U. c #FDFDFD",
"Y. c #FEFDFD",
"T. c #FEFEFD",
"R. c #FF00FF",
"E. c #FFFFFF",
"W. c #FEFEFE",
/* pixels */
"R.R.R.R.R.R.R.R.R.R.R.R.R.R.R.R.R.R.R.R.R.R.R.R.R.R.R.R.R.R.R.R.R.R.R.R.R.R.",
"R.R.R.R.R.R.R.R.R.R.R.R.R.R.R.R.R.R.R.R.R.R.R.R.R.R.R.R.R.R.R.R.R.R.R.R.R.R.",
"R.R.R.R.R.R.R.R.R.R.R.R.R.R.R.R.R.R.R.R.R.R.R.R.R.R.R.R.R.R.R.R.R.R.R.R.R.R.",
"R.R.R.R.R.R.R.R.R.R.R.R.R.R.R.R.R.R.R.R.R.R.R.R.R.R.R.R.R.R.R.R.R.R.R.R.R.R.",
"R.R.R.R.R.R.R.R.R.R.R.R.R.R.R.R.R.R.R.R.R.R.R.R.R.R.R.R.R.R.R.R.R.R.R.R.R.R.",
"R.R.R.R.R.c.d.h.R.R.R.R.R.R.R.R.R.R.R.R.R.l.u.p.R.R.R.R.R.R.R.R.R.R.R.R.R.R.",
"R.R.R.R.R.7.7 u o.R.R.R.R.R.R.R.R.R.R.R.R.Q 3 q :.R.R.R.R.R.R.R.R.R.R.R.R.R.",
"R.R.R.R.R.7.i ! u *.R.R.R.R.R.R.R.R.R.R. .q Y D k R.R.R.R.R.R.R.R.R.R.R.R.R.",
"R.R.R.R.R.7.i ' ! k 4.R.R.R.R.R.R.R.c.2.q W W B v R.R.R.R.R.R.R.R.R.R.R.R.R.",
"R.R.R.R.R.q.i ` ! ! k :.d.u.u.u.u.d.x 6 F ! ' Y B R.R.R.R.R.R.R.R.R.R.R.R.R.",
"R.R.R.R.R.w.a ' W ' ' 7 & & = & = - 7 B H W _ Y S R.R.R.R.R.R.R.R.R.R.R.R.R.",
"R.R.R.R.R.u.a { ` ' Y a 0 u q 7 q i i B H W ' Y k R.R.R.R.R.R.R.R.R.R.R.R.R.",
"R.R.R.R.R.p.k B W { B a q a i 0 a u q a D ! B D 7.R.R.R.R.R.R.R.R.R.R.R.R.R.",
"R.R.R.R.R.R.%.7 Y ' z k u u i u u q u a a V q S R.R.R.R.R.R.R.R.R.R.R.R.R.R.",
"R.R.R.R.R.R.4.9 B A k k u q k q a f q f B m e C R.R.R.R.R.R.R.R.R.R.R.R.R.R.",
"R.R.R.R.R.u.i h D Y k a q q B 0 a k u a B Y D 9 :.R.R.R.R.R.R.R.R.R.R.R.R.R.",
"R.R.R.R.R.w.q H W W k a k q k u i i i B k Y T v u c.R.R.R.R.R.R.R.R.R.R.R.R.",
"R.R.R.R.R.p.k W W Y k a B q a f f i i v k Y J A f c.R.R.R.R.R.R.R.R.R.R.R.R.",
"R.R.R.R.R.4.D ) ' J B h B q f f f B a v a Y J B f N.R.R.R.R.R.R.R.R.R.R.R.R.",
"R.R.R.R.R.$.V ' ) K W a A m B k a D q B k J T m i c.R.R.R.R.R.R.R.R.R.R.R.R.",
"R.R.R.R.R. .a W J H T V D z A a j B q B A J A a p c.R.R.R.R.R.R.R.R.R.R.R.R.",
"R.R.R.R.R.u.7 k k A T W A h D a k a a A H G m 9 4.R.R.R.R.R.R.R.R.R.R.R.R.R.",
"R.R.R.R.R.R.&.2 q k J A A a D a q m a A j A 9 @.R.R.R.R.R.R.R.R.R.R.R.R.R.R.",
"R.R.R.R.R.R.d.7 6 B T V H q B k q z q a a m 9 w.R.R.R.R.R.R.R.R.R.R.R.R.R.R.",
"R.R.R.R.R.R.R.*.3 D D m D a k v i q i i i q - u.R.R.R.R.R.R.R.R.R.R.R.R.R.R.",
"R.R.R.R.R.R.R.o.k ' k a a a k q q q q q q a , L R.R.R.R.R.R.R.R.R.R.R.R.R.R.",
"R.R.R.R.R.R.7.9 ! A a u u i u q q 7 < < 3 9 7 @ #.R.R.R.R.R.R.R.R.R.R.R.R.R.",
"R.R.R.R.R.l.Q B T B i q i a i q q 9 4 q q 7 > - # o.R.R.R.R.R.R.R.R.R.R.R.R.",
"R.R.R.R.R.:.3 ! J J f q k i q 9 q q 9 9 q q 0 2 # , R.R.R.R.R.R.R.R.R.R.R.R.",
"R.R.R.R.R.4.9 T H B u q u u u 0 7 7 3 3 3 0 q q & q R.R.R.R.R.R.R.R.R.R.R.R.",
"R.R.R.R.R.2.9 Y B i 0 B D a i i q 9 4 3 3 , > > > & ( R.R.R.R.R.R.R.R.R.R.R.",
"R.R.R.R.R.4.0 V a k k B q q k m u u q 3 9 9 9 0 0 - q c.R.R.R.R.R.R.R.R.R.R.",
"R.R.R.R.R.4.q B q J V q k D k q u q 7 3 9 q q q u a 3 x c.R.R.R.R.R.R.R.R.R.",
"R.R.R.R.R.7.7 q e H k B D a q u u 0 3 3 3 q q q i k e - S R.R.R.R.R.R.R.R.R.",
"R.R.R.R.R.4.- a A V A B i q a B u q q 6 3 q u q a V t 2 L R.R.R.R.R.R.R.R.R.",
"R.R.R.R.R.:., B A k B a q q m k q q q 0 3 q u u k M j q 0 :.R.R.R.R.R.R.R.R.",
"R.R.R.R.R.2., m m B f k B B k q q u q 0 3 q u m m V A B > S R.R.R.R.R.R.R.R.",
"R.R.R.R.R.7.- k A k m D J m u y u y q 6 3 u u f a a a a 3 R R.R.R.R.R.R.R.R.",
"R.R.R.R.R.2.2 x k B H J A q q u q y u q 3 0 u u u u u k q 8 *.R.R.R.R.R.R.R.",
"R.R.R.R.R.2.2 f a D H A a u k B i q q 0 3 9 q u i u a B f = U R.R.R.R.R.R.R.",
"R.R.R.R.R.:.- q k J A a k B A m k u q 9 3 q q u u f g B D , ^ R.R.R.R.R.R.R.",
"R.R.R.R.R.d.y 2 k Y k a V J V m a q u q 3 q u u f B k d B - U R.R.R.R.R.R.R.",
"R.R.R.R.R.R.:.# i g q k m m m V a i i q 3 q u u x q r m t & U R.R.R.R.R.R.R.",
"R.R.R.R.R.R.*.# q k D B k m V m a a q q 9 7 q u q u B H V 2 x c.R.R.R.R.R.R.",
"R.R.R.R.R.R.%.% 0 q B V m m V m q u 7 3 3 9 0 q q a V A A a - } R.R.R.R.R.R.",
"R.R.R.R.R.R.*.& B m V H H B m k u u q 9 7 q q q q u B V G m a 6 #.R.R.R.R.R.",
"R.R.R.R.R.h.i q J H m V k j a a u q u u 0 q q q u k k k J A B & Q R.R.R.R.R.",
"R.R.R.R.R.*.& D D m j D V B B i q q 0 u 7 7 q q u D A A A A A 3 P R.R.R.R.R.",
"R.R.R.R.d.= u B k a m D H A v i q y q y 7 q y q u B B k k D k q # ..R.R.R.R.",
"R.R.R.R.d.$ i x i i k B B k u y y y y q 3 q y y y u u a H k q q & o.R.R.R.R.",
"R.R.R.R.d.$ q B v u u i i i y y y y y q 3 0 y y y y i D D m a a - o.R.R.R.R.",
"R.R.R.R.d.$ 0 f D k i u a S k q y y q q 2 0 q 0 i q k D j a 0 i - o.R.R.R.R.",
"R.R.R.R.d.= y f a f v k k k z a u 7 7 7 7 q 3 9 a k B k q i q i & o.R.R.R.R.",
"R.R.R.R.d.$ q u y u v B u a B a q 9 9 6 7 7 > q q k D q k v 0 q $ ..R.R.R.R.",
"R.R.R.R.l.x 2 y q u u x v f i q q 9 3 3 6 0 3 q q a k q a k q 6 $ o.R.R.R.R.",
"R.R.R.R.R.7.# 7 8 i i a k k a u q 9 1 > 6 0 9 q u a 9 g B q q # b R.R.R.R.R.",
"R.R.R.R.R.7.& - 7 u k m B A z q q 7 > 3 6 6 6 q q q i B k q q = ^ R.R.R.R.R.",
"R.R.R.R.R.R.@.o 7 k m B A B i q 0 7 6 6 3 3 9 6 q q i k 0 q & U R.R.R.R.R.R.",
"R.R.R.R.R.R.#.. - a a q a q q q 7 q q 9 2 4 q 7 9 q q 9 0 7 2 #.R.R.R.R.R.R.",
"R.R.R.R.R.R.o.  $ q q 9 k 0 8 q 0 9 2 3 2 3 3 < 2 9 q 7 7 & L R.R.R.R.R.R.R.",
"R.R.R.R.R.R.o.= : 2 7 4 9 9 7 6 2 > > > > 2 < < 9 0 7 2 2 O I R.R.R.R.R.R.R.",
"R.R.R.R.R.R.c.R.( # 7 3 , - - 2 3 < 3 7 2 - 2 > 2 6 , - = p h.R.R.R.R.R.R.R.",
"R.R.R.R.R.R.R.R.7.= % 2 3 % % 3 3 2 7 i q - > - - 2 > 7 o U R.R.R.R.R.R.R.R.",
"R.R.R.R.R.R.R.R.R.u.5 - 7 : $ , - 7 a z a 9 = = : 2 6 & p l.R.R.R.R.R.R.R.R.",
"R.R.R.R.R.R.R.R.R.R.h.5 o $ + + $ q m B Z k = = $ $ o u c.R.R.R.R.R.R.R.R.R.",
"R.R.R.R.R.R.R.R.R.R.R.d.u.u.u.h.S 2 D B j a 5 d.h.g.d.l.R.R.R.R.R.R.R.R.R.R.",
"R.R.R.R.R.R.R.R.R.R.R.R.R.R.R.R.U & z Y W B 5 c.R.R.R.R.R.R.R.R.R.R.R.R.R.R.",
"R.R.R.R.R.R.R.R.R.R.R.R.R.R.R.R.k.k k V j 9 : c.R.R.R.R.R.R.R.R.R.R.R.R.R.R.",
"R.R.R.R.R.R.R.R.R.R.R.R.R.R.R.R.R.v 3 t q q - ..R.R.R.R.R.R.R.R.R.R.R.R.R.R.",
"R.R.R.R.R.R.R.R.R.R.R.R.R.R.R.R.R.^ > t Y k 0 2 l.R.R.R.R.R.R.R.R.R.R.R.R.R.",
"R.R.R.R.R.R.R.R.R.R.R.R.R.R.R.R.R.R.} a B k a 0 y c.R.R.R.R.R.R.R.R.R.R.R.R.",
"R.R.R.R.R.R.R.R.R.R.R.R.R.R.R.R.R.R.c.6 7 j D k , v u.d.R.R.R.R.R.R.R.R.R.R.",
"R.R.R.R.R.R.R.R.R.R.R.R.R.R.R.R.R.R.R.*.2 B ! d q 0 - 0 X.^ ^ / U u.R.R.R.R.",
"R.R.R.R.R.R.R.R.R.R.R.R.R.R.R.R.R.R.R.R.+., k B a D k , - % X + + 8 u.R.R.R.",
"R.R.R.R.R.R.R.R.R.R.R.R.R.R.R.R.R.R.R.R.R.*.7 q k D t u f 6 - = : + ..R.R.R.",
"R.R.R.R.R.R.R.R.R.R.R.R.R.R.R.R.R.R.R.R.R.R.u.q 8 7 6 q 0 - - $ : = *.R.R.R.",
"R.R.R.R.R.R.R.R.R.R.R.R.R.R.R.R.R.R.R.R.R.R.R.c.c.7.= = = : : $ ^ R.c.R.R.R.",
"R.R.R.R.R.R.R.R.R.R.R.R.R.R.R.R.R.R.R.R.R.R.R.R.R.R.l.l.l.l.v.l.c.R.R.R.R.R.",
"R.R.R.R.R.R.R.R.R.R.R.R.R.R.R.R.R.R.R.R.R.R.R.R.R.R.R.R.R.R.R.R.R.R.R.R.R.R.",
"R.R.R.R.R.R.R.R.R.R.R.R.R.R.R.R.R.R.R.R.R.R.R.R.R.R.R.R.R.R.R.R.R.R.R.R.R.R."
};
