/* XPM */
static char *louis_walk_right2[] = {
/* columns rows colors chars-per-pixel */
"80 80 194 2 ",
"   c #39372F",
".  c #363532",
"X  c #383734",
"o  c #3B3935",
"O  c #3D3D3B",
"+  c #413E38",
"@  c #44423D",
"#  c #49453E",
"$  c #6D613B",
"%  c #454441",
"&  c #4A4741",
"*  c #4C4A45",
"=  c #4E4D4A",
"-  c #524E45",
";  c #534E49",
":  c #4F504D",
">  c #55524C",
",  c #5A554D",
"<  c #5C594E",
"1  c #565145",
"2  c #5B5751",
"3  c #5D5A53",
"4  c #5C5C59",
"5  c #555653",
"6  c #635D55",
"7  c #625E59",
"8  c #666156",
"9  c #6B6256",
"0  c #65625B",
"q  c #6B655C",
"w  c #6E695E",
"e  c #726A5E",
"r  c #726758",
"t  c #7C715B",
"y  c #656461",
"u  c #6B6661",
"i  c #6E6961",
"p  c #6C6C6A",
"a  c #746D63",
"s  c #7A6F62",
"d  c #716E6A",
"f  c #767065",
"g  c #7B7365",
"h  c #7F7867",
"j  c #75726A",
"k  c #7C756A",
"l  c #7E786C",
"z  c #747472",
"x  c #7A7773",
"c  c #7E7B73",
"v  c #7B7B7B",
"b  c #81776A",
"n  c #837B6D",
"m  c #897E6F",
"M  c #847D71",
"N  c #897E71",
"B  c #817F7B",
"V  c #B29F45",
"C  c #A59453",
"Z  c #B8A85E",
"A  c #8A806F",
"S  c #868073",
"D  c #8B8274",
"F  c #85837C",
"G  c #8D8579",
"H  c #8E897C",
"J  c #908576",
"K  c #918779",
"L  c #948A7C",
"P  c #988E7F",
"I  c #97907F",
"U  c #7F8281",
"Y  c #858583",
"T  c #8D8A83",
"R  c #8B8B89",
"E  c #8A8780",
"W  c #958E82",
"Q  c #998E81",
"!  c #918F8B",
"~  c #8F9087",
"^  c #8F908D",
"/  c #969184",
"(  c #9B9284",
")  c #94928C",
"_  c #9D9589",
"`  c #9E988C",
"'  c #959594",
"]  c #989794",
"[  c #9C9A94",
"{  c #9D9C9B",
"}  c #A09586",
"|  c #A19689",
" . c #A39B8D",
".. c #A99D8E",
"X. c #A49D91",
"o. c #A99E92",
"O. c #A09D9B",
"+. c #9EA09D",
"@. c #A6A195",
"#. c #ABA394",
"$. c #A5A299",
"%. c #ACA59A",
"&. c #AEA99C",
"*. c #B2A496",
"=. c #B1A699",
"-. c #B2AA9D",
";. c #BAAE9F",
":. c #A5A5A4",
">. c #ABA9A2",
",. c #ABACAA",
"<. c #A6A8A8",
"1. c #B4ADA2",
"2. c #B1AFA9",
"3. c #B8AEA2",
"4. c #AEB0AC",
"5. c #B6B1A4",
"6. c #BAB3A5",
"7. c #B5B2AA",
"8. c #BBB5AA",
"9. c #BEB9AB",
"0. c #AEAFB0",
"q. c #AFB2B2",
"w. c #B5B5B2",
"e. c #BBBAB3",
"r. c #BABCBB",
"t. c #B8B8B4",
"y. c #C3BBAD",
"u. c #C3BEB2",
"i. c #BFC0BE",
"p. c #C5C0B4",
"a. c #CAC4B6",
"s. c #C2C1BD",
"d. c #CAC6BB",
"f. c #CECABE",
"g. c #D1CBBE",
"h. c #BFC0C0",
"j. c #C4C5C3",
"k. c #CDCBC3",
"l. c #CDCDCB",
"z. c #D2CEC5",
"x. c #D0CFCB",
"c. c #CFD1CE",
"v. c #D6D1C5",
"b. c #D9D3C5",
"n. c #D2D1CC",
"m. c #DAD6CA",
"M. c #DDD9CC",
"N. c #D4D4D2",
"B. c #DBD9D5",
"V. c #D6D9DA",
"C. c #DCDDDB",
"Z. c #D8D7D4",
"A. c #E1DACF",
"S. c #E1DDD4",
"D. c #E3DFD9",
"F. c #DFE0DE",
"G. c #E5E0D4",
"H. c #E8E1D7",
"J. c #E3E1DC",
"K. c #E9E4DC",
"L. c #DEE1E1",
"P. c #E3E4E2",
"I. c #E7E8E7",
"U. c #EDEAE5",
"Y. c #E7E7E8",
"T. c #E7E9E9",
"R. c #EBECEB",
"E. c #F0ECE4",
"W. c #F1F0EF",
"Q. c #EEF0F0",
"!. c #F6F6F6",
"~. c #F3F4F4",
"^. c #F7F7F8",
"/. c gray98",
"(. c #FCFBFB",
"). c #FBFCFB",
"_. c #FCFCFB",
"`. c gray99",
"'. c #FCFDFC",
"]. c #FDFDFD",
"[. c #FEFFFD",
"{. c #FEFDFE",
"}. c #FDFEFE",
"|. c #FDFFFE",
" X c #FEFEFE",
".X c #FFFEFE",
"XX c #FEFFFE",
"oX c #FFFFFE",
"OX c #FEFEFF",
"+X c magenta",
"@X c white",
"#X c #FFFEFF",
"$X c #FEFFFE",
"%X c #F8F8F7",
/* pixels */
"+X+X+X+X+X+X+X+X+X+X+X+X+X+X+X+X+X+X+X+X+X+X+X+X+X+X+X+X+X+X+X+X+X+X+X+X+X+X+X+X+X+X+X+X+X+X+X+X+X+X+X+X+X+X+X+X+X+X+X+X+X+X+X+X+X+X+X+X+X+X+X+X+X+X+X+X+X+X+X+X",
"+X+X+X+X+X+X+X+X+X+X+X+X+X+X+X+X+X+X+X+X+X+X+X+X+X+X+X+X+X+X+X+X+X+X+X+X+X+X+X+X+X+X+X+X+X+X+X+X+X+X+X+X+X+X+X+X+X+X+X+X+X+X+X+X+X+X+X+X+X+X+X+X+X+X+X+X+X+X+X+X",
"+X+X+X+X+X+X+X+X+X+X+X+X+X+X+X+X+X+X+X+X+X+X+X+X+X+X+X+X+X+X+X+X+X+X+X+X+X+X+X+X+X+X+X+X+X+X+X+X+X+X+X+X+X+X+X+X+X+X+X+X+X+X+X+X+X+X+X+X+X+X+X+X+X+X+X+X+X+X+X+X",
"+X+X+X+X+X+X+X+X+X+X+X+X+X+X+X+X+X+X+X+X+X+X+X+X+X+X+X+X+X+X+X+X+X+X+X+X+X+X+X+X+X+X+X+X+X+X+X+X+X+X+X+X+X+X+X+X+X+X+X+X+X+X+X+X+X+X+X+X+X+X+X+X+X+X+X+X+X+X+X+X",
"+X+X+X+X+X+X+X+X+X+X+X+X+X+X+X+X+X+X+X+X+X+X+X+X+X+X+X+X+X+X+X+X+X+X+X+X+X+X+X+X+X+X+X+X+X+X+X+X+X+X+X+X+X+X+X+X+X+X+X+X+X+X+X+X+X+X+X+X+X+X+X+X+X+X+X+X+X+X+X+X",
"+X+X+X+X+X+X+X+X+X+X+X+X+X+X+X+X+X+X+X+X+X+X+X+X+X+X+X+X+X+X+X+X+X+X+X+X+X+X+X+X+X+X+X+X+X+X+X+X+X+X+X+X+X+X+X+X+X+X+X+X+X+X+X+X+X+X+X+X+X+X+X+X+X+X+X+X+X+X+X+X",
"+X+X+X+X+X+X+X+X+X+X+X+X+X+X+X+X+X+X+X+X+X+X+X+X+X+X+X+X+X+X+X+X+X+X+X+X+X+X+X+X+X+X+X+X+X+X+X+X+X+X+X+X+X+X+X+X+X+X+X+X+X+X+X+X+X+X+X+X+X+X+X+X+X+X+X+X+X+X+X+X",
"+X+X+X+X+X+X+X+X+X+X+X+X+X+X+X+X+X+X+X+X+X+X+X+X+X+X+X+X+X+X+X+X+X+X+X+X+X+X+X+X+X+X+X+X+X+X+X+X+X+X+X+X+X+X+X+X+X+X+X+X+X+X+X+X+X+X+X+X+X+X+X+X+X+X+X+X+X+X+X+X",
"+X+X+X+X+X+X+X+X+X+X+X+X+X+X+X+X+X+X+X+X+X+X+X+X+X+X+X+X+X+X+X+X+X+X+X+X+X+X+X+X+X+X+X+X+X+X+X+X+X+X+X+X+X+X+X+X+X+X+X+X+X+X+X+X+X+X+X+X+X+X+X+X+X+X+X+X+X+X+X+X",
"+X+X+X+X+X+X+X+X+X+X+X+X+X+X+X+X+X+X+X+X+X+X+X+X+X+X+X+X+X+X+X+X+X+X+X+X+X+X+X+X+X+X+X+X+X+X+X+X+X+X+X+X+X+X+X+X+X+X+X+X+X+X+X+X+X+X+X+X+X+X+X+X+X+X+X+X+X+X+X+X",
"+X+X+X+X+X+X+X+X+X+X+X+X+X+X+X+X+X+X+X+X+X+X+X+X+X+X+X+X+X+X+X+X+X+X+X+X+X+X+X+X+X+X+X+X+X+X+X+X+X+X+X+X+X+X+X+X+X+X+X+X+X+X+X+X+X+X+X+X+X+X+X+X+X+X+X+X+X+X+X+X",
"+X+X+X+X+X+X+X+X+X+X+X+X+X+X+X+X+X+X+X+X+X+X+X+X+X+X+X+X+X+X+X+X+X+X+X+X+X+X+X+X+X+X+X+X+X+X+X+X+X+X+X+X+X+X+X+X+X+X+X+X+X+X+X+X+X+XC.l.R.+XC.C.+X+X+X+X+X+X+X+X",
"+X+X+X+X+X+X+X+X+X+X+X+X+X+X+X+X+X+X+X+X+X+X+X+X+X+X+X+X+X+X+X+X+X+X+X+X+X+X+X+X+X+X+X+X+X+X+X+X+X+X+X+X+X+X+X+X+X+X+X+X+X+X+X+X+XC.x 6 l.~.4 ' +X+X+X+X+X+X+X+X",
"+X+X+X+X+X+X+X+X+X+X+X+X+X+X+X+X+X+X+X+X+X+X+X+X+X+X+X+X+X+X+X+X+X+X+X+X+X+X+X+X+X+X+X+X+X+X+X+X+X+X+X+X+X+X+X+X+X+X+X+X+X+X+X+XT.G Q Q n.] o :.+X+X+X+X+X+X+X+X",
"+X+X+X+X+X+X+X+X+X+X+X+X+X+X+X+X+X+X+X+X+X+X+X+X+X+X+X+X+X+X+X+X+X+X+X+X+X+X+X+X+X+X+X+X+X+X+X+X+X+X+X+X+X+X+X+X+X+X+X+X+X+X+XQ.T D =.1.a u , :.+X+X+X+X+X+X+X+X",
"+X+X+X+X+X+X+X+X+X+X+X+X+X+X+X+X+X+X+X+X+X+X+X+X+X+X+X+X+X+X+X+X+X+X+X+X+X+X+X+X+X+X+X+X+X+X+X+X+X+X+X+X+X+X+X+X+X+X+X+X+X+XR.F n ( -.3.i a 2 :.+X+X+X+X+X+X+X+X",
"+X+X+X+X+X+X+X+X+X+X+X+X+X+X+X+X+X+X+X+X+X+X+X+X+X+X+X+X+X+X+X+X+X+X+X+X+X+X+X+X+X+X+X+X+X+X+X+X+X+X+X+X+X+X+X+X+X+X+X+X+XQ.z a | *.*.#.i , % ' +X+X+X+X+X+X+X+X",
"+X+X+X+X+X+X+X+X+X+X+X+X+X+X+X+X+X+X+X+X+X+X+X+X+X+X+X+X+X+X+X+X+X+X+X+X+X+X+X+X+X+X+X+X+X+X+X+X+X+X+X+X+X+X+X+X+X+X+X+X~.z ; K %.=...o.n a 0 2 z P.+X+X+X+X+X+X",
"+X+X+X+X+X+X+X+X+X+X+X+X+X+X+X+X+X+X+X+X+X+X+X+X+X+X+X+X+X+X+X+X+X+X+X+X+X+X+X+X+X+X+X+X+X+X+X+X+X+X+X+X+X+X+X+X+X+X+X+XB 2 l G #.} *.;. .Q l j 2 d P.+X+X+X+X+X",
"+X+X+X+X+X+X+X+X+X+X+X+X+X+X+X+X+X+X+X+X+X+X+X+X+X+X+X+X+X+X+X+X+X+X+X+X+X+X+X+X+X+X+X+X+X+X+X+X+X+X+X+X+X+X+X+X+X+XP.v 6 G l L o.| *...( Q M D M 2 u Z.+X+X+X+X",
"+X+X+X+X+X+X+X+X+X+X+X+X+X+X+X+X+X+X+X+X+X+X+X+X+X+X+X+X+X+X+X+X+X+X+X+X+X+X+X+X+X+X+X+X+X+X+X+X+X+X+X+X+X+X+X+X+X+Xr.+ M N a G o.D L Q L L L D g a f 4 ~.+X+X+X",
"+X+X+X+X+X+X+X+X+X+X+X+X+X+X+X+X+X+X+X+X+X+X+X+X+X+X+X+X+X+X+X+X+X+X+X+X+X+X+X+X+X+X+X+X+X+X+X+X+X+X+X+X+X+X+X+X+Xh.* w G G l g D K L L L L #...#.M G y W.+X+X+X",
"+X+X+X+X+X+X+X+X+X+X+X+X+X+X+X+X+X+X+X+X+X+X+X+X+X+X+X+X+X+X+X+X+X+X+X+X+X+X+X+X+X+X+X+X+X+X+X+X+X+X+X+X+X+X+X+X+Xq.X q a G G D D Q P Q Q Q n r 8 5.8.y R.+X+X+X",
"+X+X+X+X+X+X+X+X+X+X+X+X+X+X+X+X+X+X+X+X+X+X+X+X+X+X+X+X+X+X+X+X+X+X+X+X+X+X+X+X+X+X+X+X+X+X+X+X+X+X+X+X+X+X+X+X+Xh.O q M D D G L L L K n g t V $ _ 6.d +X+X+X+X",
"+X+X+X+X+X+X+X+X+X+X+X+X+X+X+X+X+X+X+X+X+X+X+X+X+X+X+X+X+X+X+X+X+X+X+X+X+X+X+X+X+X+X+X+X+X+X+X+X+X+X+X+X+X+X+X+XV.R * w l G G D G H l a D ( ( Z C 1 Q D %.~.+X+X",
"+X+X+X+X+X+X+X+X+X+X+X+X+X+X+X+X+X+X+X+X+X+X+X+X+X+X+X+X+X+X+X+X+X+X+X+X+X+X+X+X+X+X+X+X+X+X+X+X+X+X+X+X~.' ' { 5 % 0 f M G G D D f q N | n n ( *.( D m N G R.+X",
"+X+X+X+X+X+X+X+X+X+X+X+X+X+X+X+X+X+X+X+X+X+X+X+X+X+X+X+X+X+X+X+X+X+X+X+X+X+X+Xr.v R R T T T Y Y R R R ' Y . o . , j f M ( L n e a q n | _ L H / / &.6._ s r Y.+X",
"+X+X+X+X+X+X+X+X+X+X+X+X+X+X+X+X+X+X+X+X+X+X+X+X+X+X+X+X+X+X+X+X+X+X+XL.<.y j 5 o @ @ @ @ @ @ o . . X o O = 2 0 q F L n D ( n w l M M g w D 3.6.f.m.B.K.( 9 W.+X",
"+X+X+X+X+X+X+X+X+X+X+X+X+X+X+X+X+X+X+X+X+X+X+X+X+X+X+X+X+X+X+X+X+XC.Z.y . & # ; 2 2 0 i q a i 2 , , , , , * 2 q M L L L N n H n g 9 w L ( #.a.b.b.M.K.+Xp. .+X+X",
"+X+X+X+X+X+X+X+X+X+X+X+X+X+X+X+X+X+X+X+X+X+X+X+X+X+X+X+X+X+X+X+XC.= o = 2 2 u q u i w q i l a q q 0 0 0 7 0 q a M L J L  .D M  .Q S L  ...6.z.g.y.#.1.7.7.P.+X+X",
"+X+X+X+X+X+X+X+X+X+X+X+X+X+X+X+X+X+X+X+X+X+X+X+X+X+X+X+X+X+X+XZ.4 @ 2 6 7 7 u u u i i a a a i w i l j q i x i M D M D L #. .D D (  .(  .y.a.y.y.y.-. .G P.+X+X+X",
"+X+X+X+X+X+X+X+X+X+X+X+X+X+X+X+X+X+X+X+X+X+X+X+X+X+X+X+X+X~.<.= 2 q q l l a i a l l a S D D M a i M M g n n e N N g n ( #.#. .D D D D Q 9.6.6.@.M G Q C.+X+X+X+X",
"+X+X+X+X+X+X+X+X+X+X+X+X+X+X+X+X+X+X+X+X+X+X+X+X+X+X+X+XR.x @ 0 a a a D l l g b D l q n b n D g n G n l J n g D D K n D ( #.o.( K Q _  .1.6._ u.P.B.P.+X+X+X+X+X",
"+X+X+X+X+X+X+X+X+X+X+X+X+X+X+X+X+X+X+X+X+X+X+X+X+X+X+XZ.4 @ 6 6 u u a D g a a b D n e e g D n n D J b g N m N f s J L m m L  .#. .1.z.f.d.a._ l.+X+X+X+X+X+X+X+X",
"+X+X+X+X+X+X+X+X+X+X+X+X+X+X+X+X+X+X+X+X+X+X+X+X+X+Xl.* + , 2 6 q q a g b g a g N J g q n D D n b J n w g N N g g g J L g l L  .-.8.m.S.B.D.$.l.+X+X+X+X+X+X+X+X",
"+X+X+X+X+X+X+X+X+X+X+X+X+X+X+X+X+X+X+X+X+X+X+X+X+X+Xl.o * 7 q 0 a M a a n L N g n D m n N D D n g D M g N b D D D a e M L D n (  .6.S.K.K.E.7.Z.+X+X+X+X+X+X+X+X",
"+X+X+X+X+X+X+X+X+X+X+X+X+X+X+X+X+X+X+X+X+X+X+X+X+XR.{ , 6 u q q a D s n J J m b J D D n D D D D g N N n K a a N G D l a M G D D L -.B.K.J.Y.8.Z.+X+X+X+X+X+X+X+X",
"+X+X+X+X+X+X+X+X+X+X+X+X+X+X+X+X+X+X+X+X+X+X+X+X+X{ @ q a l a 6 9 b g m D D b g D J n n L L K n n D P L L g q n M D G n n L ( | 6.d.S.H.J.Y.t.B.+X+X+X+X+X+X+X+X",
"+X+X+X+X+X+X+X+X+X+X+X+X+X+X+X+X+X+X+X+X+X+X+X+Xs.* 0 q a D M a 9 e a A D m N n N L b J L L L D L _ ( L L f a e w l D L L Q Q L o.g.A.G.K.E.t.B.+X+X+X+X+X+X+X+X",
"+X+X+X+X+X+X+X+X+X+X+X+X+X+X+X+X+X+X+X+X+X+X+X+X<.& w l n D D D g 9 e g m D n A J J b L Q L D L  . .( L n 6 w l D f e g D ( ( L L o.a.M.H.K.9.B.+X+X+X+X+X+X+X+X",
"+X+X+X+X+X+X+X+X+X+X+X+X+X+X+X+X+X+X+X+X+X+X+XY.= , a a a n J J D n g g m J n n L L l D Q Q D n  .o. .L M 2 q l L G D g a L } | (  .d.m.v.A.1.Z.+X+X+X+X+X+X+X+X",
"+X+X+X+X+X+X+X+X+X+X+X+X+X+X+X+X+X+X+X+X+X+X+X~.* , w q f g b D D D D D A D n g L #.n H Q ( D ( #.#.| D q 6 i f l D I L D M G Q  .9.f.g.v.m.t.C.+X+X+X+X+X+X+X+X",
"+X+X+X+X+X+X+X+X+X+X+X+X+X+X+X+X+X+X+X+X+X+X+Xt.% , q a D n g a g n D n n A D D P #.( (  . .M |  . .( n 6 w i f n D D D L G H | #.p.g.g.G.&.C.+X+X+X+X+X+X+X+X+X",
"+X+X+X+X+X+X+X+X+X+X+X+X+X+X+X+X+X+X+X+X+X+X~.O O , q i l D n e e l D g D h g D (  .#.Q  . .D (  .| L l 6 q w f D L D D L I -.#.-.u.b.M.d.) C.+X+X+X+X+X+X+X+X+X",
"+X+X+X+X+X+X+X+X+X+X+X+X+X+X+X+X+X+X+X+X+X+XR O @ , q i q g D D g g n L L L g g ( #.#.( L #. .L o.( M 2 q a j l a l D G M D Q #.9.p.a.9./ t.+X+X+X+X+X+X+X+X+X+X",
"+X+X+X+X+X+X+X+X+X+X+X+X+X+X+X+X+X+X+X+X+X+Xu = % & 2 q q q n L L n g A L ( K n L  .#.#.L  .#. .#.( M 6 q n L L G f e g n D  . .9.m.9.) t.+X+X+X+X+X+X+X+X+X+X+X",
"+X+X+X+X+X+X+X+X+X+X+X+X+X+X+X+X+X+X+X+X+X^ 7 y * # , 0 i q e l n L K g g J ( / n Q ( -.#./ #.-.@.( D 6 q M M n D ( ( (  .#.-.#.8.p.] s.+X+X+X+X+X+X+X+X+X+X+X+X",
"+X+X+X+X+X+X+X+X+X+X+X+X+X+X+X+X+X+X+X+X~.u 0 q 2 - , q q q a a e l n L n n L ( L / L #.#.( #.-.#. ._ q q q q 0 a l G  .o. .1.#./ ) Z.+X+X+X+X+X+X+X+X+X+X+X+X+X",
"+XC.B y :.+X+X+X+X+X+X+X+X+X+X+X+X+X+X+XF a G x 0 @ ; u q w M D S n a K P D D D o.&. .( L %.#.1.6.#. .6 l l w M g q g n G #.#.Q 0 2 +X+X+X+X+X+X+X+X+X+X+X+X+X+X",
"+Xp O o z +X+X+X+X+X+X+X+X+X+X+X+X+X^.Y 2 a Q G 7 : 0 6 0 6 q a D D n a b J J K ( 6.8.-._ _ 6.8.9.6.-.f w l n G L L L G M n M j 0 4 ~.+X+X+X+X+X+X+X+X+X+X+X+X+X",
"+X0 O = % z ~.+X+X+X+X+X+X+X+X+X+XR.d 6 n D ( M 2 V.Y   0 q q q a D G l q b L (  .1.5.8.6.1.9.y.u.u.9.1.a w M L Q M L Q Q L G * { +X+X+X+X+X+X+X+X+X+X+X+X+X+X+X",
"+Xn.4 % = + p j.+X+X+X+X+X+X+X{ x j 6 D ( | K i j.+XP.z - a a q q a M L K l a G  .1.5.-.o.o.%.o._ _ _ ( L w w S M g e a n ( o.2 >.+X+X+X+X+X+X+X+X+X+X+X+X+X+X+X",
"+X+X4 O * 2 2 4 { ] ] ' ! ! ' = # , e K } n a j.+X+XR.y * 8 , q g q a D Q ( L D | 1.&.M w a q x ) Q T ) / 2 < 2 e e f l D D S , <.+X+X+X+X+X+X+X+X+X+X+X+X+X+X+X",
"+X+Xl.5 @ i l q a , , , 6 6 , w a b J K g j l.+X+Xl.p @ 0 a e f n l a a n  .#.o.o.-./ 6 M T , t.+X+X+X+XI.* < - 0 a L Q K D K n G { ~.+X+X+X+X+X+X+X+X+X+X+X+X+X",
"+X+X+XZ., 2 0 i  .D N l N _ G ( L N b 9 l D.+X+XZ.0 * a a w b D g D ( Q n | #.#.-._ 6 w l q ] R.+X+X+X+XJ.# , 6 * q n l a n (  .n 0 ~.+X+X+X+X+X+X+X+X+X+X+X+X+X",
"+X+X+X+Xj.z p 7 L Q D l Q ( ( D b 6 d x x.+X+X+XB & l M M n D Q D D ( (  . .#.-.( 9 q l , ' +X+X+X+X+X+XT.@ , 6 6 - q g L ( }  .L x ~.+X+X+X+X+X+X+X+X+X+X+X+X+X",
"+X+X+X+X+X+Xl.* 7 7 2 6 q q 6 x ] Q J.+X+X+X+X+XY * G a M ( Q ( L G  .#.%.-.#.D q 0 & j 7.R.+X+X+X+X+X+Xt.* w a a < < l ( ( L L Q j ~.+X+X+X+X+X+X+X+X+X+X+X+X+X",
"+X+X+X+X+X+X+XW.R.R.B.l.k.l.j.R.+X+X+X+X+X+X+X+XY % F l 8 l L S 6 q n M l M j 6 6 u :.l.+X+X+X+X+X+X+XP.% 2 w l a l 2 2 M g n D _ G F ~.+X+X+X+X+X+X+X+X+X+X+X+X",
"+X+X+X+X+X+X+X+X+X+X+X+X+X+X+X+X+X+X+X+X+X+X+X+X+Xv , S L n l q { ) o - 6 , - 8 q u +X+X~.+X+X+X+X+X+XL.* 2 8 a l f 0 F 0 M S (  ./ y +X+X+X+X+X+X+X+X+X+X+X+X+X",
"+X+X+X+X+X+X+X+X+X+X+X+X+X+X+X+X+X+X+X+X+X+X+X+X+XY & j M M n a +X~.:.x 6 0 q j l l t.R.+X+X+X+X+X+X+XL.* 0 j l n j 4.+XU 0 H ( _ Q x j.+X+X+X+X+X+X+X+X+X+X+X+X",
"+X+X+X+X+X+X+X+X+X+X+X+X+X+X+X+X+X+X+X+X+X+X+X+X+X~.U 6 L |  .( @.+X+Xt.# 8 l M H _ q ) l.s.~.+X+X+X+XP.= a j M a T +X+X0.* S L M G ( j +X+X+X+X+X+X+X+X+X+X+X+X",
"+X+X+X+X+X+X+X+X+X+X+X+X+X+X+X+X+X+X+X+X+X+X+X+X+X+XR 8 / o.o. .M 1.R.R.! - e D Q o.#.D l l t.+X+X+X+XP.2 x M M j T C.+XP.@ 0 H G L %.>.Z.B.+X+X+X+X+X+X+X+X+X+X",
"+X+X+X+X+X+X+X+X+X+X+X+X+X+X+X+X+X+X+X+X+X+X+X+X+X+Xj , T Q o.n.k.k.8.j.+X$.a L  ._ o.-.%.$.M i.+X+X+XP.* G Q _ o._ E Z.+X:.4 F #.%.f.B.8.>.n.+X+X+X+X+X+X+X+X+X",
"+X+X+X+X+X+X+X+X+X+X+X+X+X+X+X+X+X+X+X+X+X+X+X+X+X+X' X x d.S.J.B.s.8.t.+X+Xr.a l  .#.-. .G o.M ~.+X+X~.<.T $.8.8._ ] ] +X+Xj.0 ] v.J.Y.k.n.] W.+X+X+X+X+X+X+X+X",
"+X+X+X+X+X+X+X+X+X+X+X+X+X+X+X+X+X+X+X+X+X+X+X+X+X+X+Xv j u.S.S.z.%.1.e.+X+X+XV.r.j a f a a a 2.+X+X+X+X+X) o.%.o.x M ) +X+X+Xr.) d.f.n.@.&.] ~.+X+X+X+X+X+X+X+X",
"+X+X+X+X+X+X+X+X+X+X+X+X+X+X+X+X+X+X+X+X+X+X+X+X+X+X+X+XY a G T Q M 2.R.+X+X+X+X+XZ.n.n.Z.Z.n.R.+X+X+X+X~.Y x F B M M l.+X+X+X+Xc.F ! ) ) E t.+X+X+X+X+X+X+X+X+X",
"+X+X+X+X+X+X+X+X+X+X+X+X+X+X+X+X+X+X+X+X+X+X+X+X+X+X+X+X~.R.R.R.R.Y.~.+X+X+X+X+X+X+X+X+X+X+X+X+X+X+X+X+X+X+X+X+X+X+X+X+X+X+X+X+X+X+X+X+X+X+X+X+X+X+X+X+X+X+X+X+X",
"+X+X+X+X+X+X+X+X+X+X+X+X+X+X+X+X+X+X+X+X+X+X+X+X+X+X+X+X+X+X+X+X+X+X+X+X+X+X+X+X+X+X+X+X+X+X+X+X+X+X+X+X+X+X+X+X+X+X+X+X+X+X+X+X+X+X+X+X+X+X+X+X+X+X+X+X+X+X+X+X",
"+X+X+X+X+X+X+X+X+X+X+X+X+X+X+X+X+X+X+X+X+X+X+X+X+X+X+X+X+X+X+X+X+X+X+X+X+X+X+X+X+X+X+X+X+X+X+X+X+X+X+X+X+X+X+X+X+X+X+X+X+X+X+X+X+X+X+X+X+X+X+X+X+X+X+X+X+X+X+X+X",
"+X+X+X+X+X+X+X+X+X+X+X+X+X+X+X+X+X+X+X+X+X+X+X+X+X+X+X+X+X+X+X+X+X+X+X+X+X+X+X+X+X+X+X+X+X+X+X+X+X+X+X+X+X+X+X+X+X+X+X+X+X+X+X+X+X+X+X+X+X+X+X+X+X+X+X+X+X+X+X+X",
"+X+X+X+X+X+X+X+X+X+X+X+X+X+X+X+X+X+X+X+X+X+X+X+X+X+X+X+X+X+X+X+X+X+X+X+X+X+X+X+X+X+X+X+X+X+X+X+X+X+X+X+X+X+X+X+X+X+X+X+X+X+X+X+X+X+X+X+X+X+X+X+X+X+X+X+X+X+X+X+X",
"+X+X+X+X+X+X+X+X+X+X+X+X+X+X+X+X+X+X+X+X+X+X+X+X+X+X+X+X+X+X+X+X+X+X+X+X+X+X+X+X+X+X+X+X+X+X+X+X+X+X+X+X+X+X+X+X+X+X+X+X+X+X+X+X+X+X+X+X+X+X+X+X+X+X+X+X+X+X+X+X",
"+X+X+X+X+X+X+X+X+X+X+X+X+X+X+X+X+X+X+X+X+X+X+X+X+X+X+X+X+X+X+X+X+X+X+X+X+X+X+X+X+X+X+X+X+X+X+X+X+X+X+X+X+X+X+X+X+X+X+X+X+X+X+X+X+X+X+X+X+X+X+X+X+X+X+X+X+X+X+X+X",
"+X+X+X+X+X+X+X+X+X+X+X+X+X+X+X+X+X+X+X+X+X+X+X+X+X+X+X+X+X+X+X+X+X+X+X+X+X+X+X+X+X+X+X+X+X+X+X+X+X+X+X+X+X+X+X+X+X+X+X+X+X+X+X+X+X+X+X+X+X+X+X+X+X+X+X+X+X+X+X+X",
"+X+X+X+X+X+X+X+X+X+X+X+X+X+X+X+X+X+X+X+X+X+X+X+X+X+X+X+X+X+X+X+X+X+X+X+X+X+X+X+X+X+X+X+X+X+X+X+X+X+X+X+X+X+X+X+X+X+X+X+X+X+X+X+X+X+X+X+X+X+X+X+X+X+X+X+X+X+X+X+X",
"+X+X+X+X+X+X+X+X+X+X+X+X+X+X+X+X+X+X+X+X+X+X+X+X+X+X+X+X+X+X+X+X+X+X+X+X+X+X+X+X+X+X+X+X+X+X+X+X+X+X+X+X+X+X+X+X+X+X+X+X+X+X+X+X+X+X+X+X+X+X+X+X+X+X+X+X+X+X+X+X",
"+X+X+X+X+X+X+X+X+X+X+X+X+X+X+X+X+X+X+X+X+X+X+X+X+X+X+X+X+X+X+X+X+X+X+X+X+X+X+X+X+X+X+X+X+X+X+X+X+X+X+X+X+X+X+X+X+X+X+X+X+X+X+X+X+X+X+X+X+X+X+X+X+X+X+X+X+X+X+X+X",
"+X+X+X+X+X+X+X+X+X+X+X+X+X+X+X+X+X+X+X+X+X+X+X+X+X+X+X+X+X+X+X+X+X+X+X+X+X+X+X+X+X+X+X+X+X+X+X+X+X+X+X+X+X+X+X+X+X+X+X+X+X+X+X+X+X+X+X+X+X+X+X+X+X+X+X+X+X+X+X+X",
"+X+X+X+X+X+X+X+X+X+X+X+X+X+X+X+X+X+X+X+X+X+X+X+X+X+X+X+X+X+X+X+X+X+X+X+X+X+X+X+X+X+X+X+X+X+X+X+X+X+X+X+X+X+X+X+X+X+X+X+X+X+X+X+X+X+X+X+X+X+X+X+X+X+X+X+X+X+X+X+X",
"+X+X+X+X+X+X+X+X+X+X+X+X+X+X+X+X+X+X+X+X+X+X+X+X+X+X+X+X+X+X+X+X+X+X+X+X+X+X+X+X+X+X+X+X+X+X+X+X+X+X+X+X+X+X+X+X+X+X+X+X+X+X+X+X+X+X+X+X+X+X+X+X+X+X+X+X+X+X+X+X"
};
