/* XPM */
static char *louis_back3[] = {
/* columns rows colors chars-per-pixel */
"38 80 160 2 ",
"   c #2D2C29",
".  c #302F2B",
"X  c #32312E",
"o  c #363533",
"O  c #393736",
"+  c #3B3935",
"@  c #3D3C39",
"#  c #403C37",
"$  c #413E3B",
"%  c #44413D",
"&  c #48443E",
"*  c #4F493F",
"=  c #454442",
"-  c #4A4742",
";  c #4D4A45",
":  c #4F4E4B",
">  c #534D46",
",  c #534E49",
"<  c #565047",
"1  c #585047",
"2  c #55514B",
"3  c #5B544C",
"4  c #5E584F",
"5  c #555452",
"6  c #5B5751",
"7  c #5E5A53",
"8  c #5D5D5A",
"9  c #60564F",
"0  c #625C55",
"q  c #635E59",
"w  c #685F58",
"e  c #66615D",
"r  c #6A645D",
"t  c #70675F",
"y  c #71695F",
"u  c #5F6060",
"i  c #666562",
"p  c #6A6561",
"a  c #6D6963",
"s  c #6B6B6A",
"d  c #706760",
"f  c #726B64",
"g  c #786E64",
"h  c #736E69",
"j  c #796F68",
"k  c #777065",
"l  c #7A7166",
"z  c #76716A",
"x  c #7B746B",
"c  c #7F786E",
"v  c #747472",
"b  c #7C7771",
"n  c #7D7974",
"m  c #7B7B79",
"M  c #80766B",
"N  c #82796E",
"B  c #897D6F",
"V  c #847C72",
"C  c #897F74",
"Z  c #807C79",
"A  c #878177",
"S  c #8B8176",
"D  c #82807D",
"F  c #8D8379",
"G  c #918476",
"H  c #91867A",
"J  c #948A7D",
"K  c #9A8D7E",
"L  c #848382",
"P  c #888785",
"I  c #8C8983",
"U  c #8D8D8B",
"Y  c #958C81",
"T  c #9A8F82",
"R  c #908F8D",
"E  c #9C9385",
"W  c #94918E",
"Q  c #9F978A",
"!  c #9D9389",
"~  c #959594",
"^  c #989795",
"/  c #9B9896",
"(  c #9C9A95",
")  c #999996",
"_  c #9B9A98",
"`  c #9D9C9B",
"'  c #A09789",
"]  c #A39A8D",
"[  c #A39C8E",
"{  c #A39A8A",
"}  c #A69F90",
"|  c #A09E9B",
" . c #A0A09F",
".. c #A4A4A2",
"X. c #ABA8A4",
"o. c #A9A9A7",
"O. c #ADACAB",
"+. c #B1B1AF",
"@. c #B1B1B0",
"#. c #B5B5B4",
"$. c #B8B7B6",
"%. c #B8B8B6",
"&. c #B7B8B8",
"*. c #BDBDBB",
"=. c #C1BFBD",
"-. c #C0BFBD",
";. c #C1C0BF",
":. c #C1C1BE",
">. c #BFBFC0",
",. c #C4C3C1",
"<. c #C7C6C5",
"1. c #C4C4C3",
"2. c #C7C8C5",
"3. c #C8C8C6",
"4. c #C9C8C6",
"5. c #CBCBC8",
"6. c #CBCBCB",
"7. c #D0CFCF",
"8. c #D1D1CE",
"9. c #D3D4D1",
"0. c #D7D7D4",
"q. c #D2D2D1",
"w. c #D9D7D6",
"e. c #D8D9D7",
"r. c #D8D9D8",
"t. c #DDDCD9",
"y. c #DDDDDB",
"u. c #DFDFDB",
"i. c #DDDDDD",
"p. c #E2E1DF",
"a. c #E1E1DF",
"s. c #E3E2E0",
"d. c #E7E5E3",
"f. c #E4E4E3",
"g. c #E7E8E7",
"h. c #ECECEC",
"j. c #F1EFF0",
"k. c #F1F2F0",
"l. c #F2F2F1",
"z. c #F4F3F2",
"x. c #F4F5F3",
"c. c #F4F4F2",
"v. c #F6F6F6",
"b. c #F3F3F3",
"n. c #F7F8F7",
"m. c #F9F9F7",
"M. c #F9F9F9",
"N. c #FAFAFA",
"B. c #FBFBFB",
"V. c #FAFBFA",
"C. c #FCFCFC",
"Z. c #FDFDFC",
"A. c #FDFDFD",
"S. c #FEFEFD",
"D. c #FEFDFE",
"F. c #FDFFFE",
"G. c #FF00FF",
"H. c #FFFFFF",
"J. c #FEFFFF",
"K. c #FEFEFE",
/* pixels */
"G.G.G.G.G.G.G.G.G.G.G.G.G.G.G.G.G.G.G.G.G.G.G.G.G.G.G.G.G.G.G.G.G.G.G.G.G.G.",
"G.G.G.G.G.G.G.G.G.G.G.G.G.G.G.G.G.G.G.G.G.G.G.G.G.G.G.G.G.G.G.G.G.G.G.G.G.G.",
"G.G.G.G.G.G.G.G.G.G.G.G.G.G.G.G.G.G.G.G.G.G.G.G.G.G.G.G.G.G.G.G.G.G.G.G.G.G.",
"G.G.G.G.G.G.G.G.G.G.G.G.G.G.G.G.G.G.G.G.G.G.G.G.G.G.G.G.G.G.G.G.G.G.G.G.G.G.",
"G.G.G.G.G.G.G.G.s.n z t.G.G.G.G.G.G.G.G.G.G.G.G.c.U m =.G.G.G.G.G.G.G.G.G.G.",
"G.G.G.G.G.G.G.c.Z V V f t.G.G.G.G.G.G.G.G.G.G.G.L f x a 0.G.G.G.G.G.G.G.G.G.",
"G.G.G.G.G.G.G.c.z E Q V q 0.G.G.G.G.G.G.G.G.G./ f E E q =.G.G.G.G.G.G.G.G.G.",
"G.G.G.G.G.G.G.c.z Y E [ V e t.G.G.G.G.G.G.G.` x E E E q <.G.G.G.G.G.G.G.G.G.",
"G.G.G.G.G.G.G.c.f Y E E  .r 6 m n n m n n n q J E E E e 4.G.G.G.G.G.G.G.G.G.",
"G.G.G.G.G.G.G.c.a J E E E S 3 ; , ; % & ; , f F E E E q <.G.G.G.G.G.G.G.G.G.",
"G.G.G.G.G.G.G.c.a x E E S A a p a r q r p e f S E E J a 8.G.G.G.G.G.G.G.G.G.",
"G.G.G.G.G.G.G.G.s.I l J l f r e r e q r e e f x Y V q 5.G.G.G.G.G.G.G.G.G.G.",
"G.G.G.G.G.G.G.G.G.W r F f f r r r e q q i e f y M x e p.G.G.G.G.G.G.G.G.G.G.",
"G.G.G.G.G.G.G.G.w.x N V k r r q f f q p a e a V S V q <.G.G.G.G.G.G.G.G.G.G.",
"G.G.G.G.G.G.G.G.X.3 J E V r f a x x 9 f f p a c Y T 3 / G.G.G.G.G.G.G.G.G.G.",
"G.G.G.G.G.G.G.t.a A E E V q x n a f r f r f V x J J V q *.G.G.G.G.G.G.G.G.G.",
"G.G.G.G.G.G.G.0.q Y [ E N f x x r h f x a k A x J G S 3 #.G.G.G.G.G.G.G.G.G.",
"G.G.G.G.G.G.G.0.e Y ' E J V f x r f f x x x F N E K C 3 %.G.G.G.G.G.G.G.G.G.",
"G.G.G.G.G.G.G.0.e Q E E [ S t F f x r V V f Y S ' T S , #.G.G.G.G.G.G.G.G.G.",
"G.G.G.G.G.G.G.e.r F F J Q J S N M V r V x f J E E H V 6 <.G.G.G.G.G.G.G.G.G.",
"G.G.G.G.G.G.G.G.:.3 l F Y J E f x N r N f V J J J F q o.G.G.G.G.G.G.G.G.G.G.",
"G.G.G.G.G.G.G.G.G.` 3 N J F H f x x q l k S S g J q | G.G.G.G.G.G.G.G.G.G.G.",
"G.G.G.G.G.G.G.G.G.#.> x Y H S r x x q N x k J y F 3 ` G.G.G.G.G.G.G.G.G.G.G.",
"G.G.G.G.G.G.G.G.G.4.> N S S S e f x r c c r V f y 3 ~ G.G.G.G.G.G.G.G.G.G.G.",
"G.G.G.G.G.G.G.G.G.0.> V f x f r r r r f f e r V f > ` G.G.G.G.G.G.G.G.G.G.G.",
"G.G.G.G.G.G.G.G.h.I q V r 6 e r q q q e r r e h x q s 7.G.G.G.G.G.G.G.G.G.G.",
"G.G.G.G.G.G.G.G.0.= a q 6 6 6 6 3 3 3 6 q q q q e f % ` G.G.G.G.G.G.G.G.G.G.",
"G.G.G.G.G.G.G.e.5 ; 6 q p r q 3 3 3 3 3 3 3 q 6 e p q 8 #.G.G.G.G.G.G.G.G.G.",
"G.G.G.G.G.G.G.<.  6 q e p r 4 3 6 3 3 3 q r r f 6 6 p O U G.G.G.G.G.G.G.G.G.",
"G.G.G.G.G.G.G.<.% n r q r r q e p q 3 3 6 e p V x 3 r ; ~ G.G.G.G.G.G.G.G.G.",
"G.G.G.G.G.G.G.2.@ p q x r r a a p e 3 3 q p p r M x r % ~ G.G.G.G.G.G.G.G.G.",
"G.G.G.G.G.G.G.0.+ q f S S V z r p p 6 q r r p x x S x # ` G.G.G.G.G.G.G.G.G.",
"G.G.G.G.G.G.G.+.; f F V f r p e q q 6 q e r p p r x S 2 D c.G.G.G.G.G.G.G.G.",
"G.G.G.G.G.G.#.O p F V r q p x e r q 3 q r r p p f r f f $ R G.G.G.G.G.G.G.G.",
"G.G.G.G.G.G.#.$ a V f r r f V e r q 3 q p e e p F M q x 2 U G.G.G.G.G.G.G.G.",
"G.G.G.G.G.G.#.; f x V M V x p e e q 6 q e p a r C F x x > ~ G.G.G.G.G.G.G.G.",
"G.G.G.G.G.G.#.; f V S C f r e e e r 6 3 q f f p f x F C ; ~ G.G.G.G.G.G.G.G.",
"G.G.G.G.G.G.<.3 F S F v e e p p e r 6 3 r r r f f r x F , ` G.G.G.G.G.G.G.G.",
"G.G.G.G.G.c.L q Y F V f h x f r p e 3 3 6 q r p p f C F 3 s j.G.G.G.G.G.G.G.",
"G.G.G.G.G.<.  e S C x x S H N p i e 3 6 q q r r f f F F q X 5.G.G.G.G.G.G.G.",
"G.G.G.G.G.G...6 F y t Y J C V p e p 6 q p r e x F f x F ; W G.G.G.G.G.G.G.G.",
"G.G.G.G.G.G.#.- r t x F S S z p p r 6 q p e f x y f f f $ ` G.G.G.G.G.G.G.G.",
"G.G.G.G.G.G.#.$ f F V B B S x a r q 4 q q e p p f C J N $ ` G.G.G.G.G.G.G.G.",
"G.G.G.G.G.s.h 6 g C M B S S f p e 3 3 6 q e r r x H J H 6 2 5.G.G.G.G.G.G.G.",
"G.G.G.G.c.m ; x V V J K S F f i q 6 3 q p r r r j J G S f % v h.G.G.G.G.G.G.",
"G.G.G.G.5.o e V M M C N k a p e e p 6 q r p p a C l M G N x + o.G.G.G.G.G.G.",
"G.G.G.G.0.= p f N V H C V f q p q e 6 3 q p r x G N B H M x 2 *.G.G.G.G.G.G.",
"G.G.G.s.6 6 a a N J Y Y Y x e i e e 6 2 e p r C J G M l F F a 6 0.G.G.G.G.G.",
"G.G.G.t.o e a p x V F F x a i i e i 6 6 p p p f N f x F V f h + *.G.G.G.G.G.",
"G.G.G.s.= q z h a f j x r i i i e i 6 3 e i p p p c G K N f z % :.G.G.G.G.G.",
"G.G.G.s.= e x n p p a N x p i i i e 6 3 r i p p e A J J M f x @ =.G.G.G.G.G.",
"G.G.G.s.= e v x p h p N S f p i 8 q 3 6 r 6 p a r V N f f f f @ :.G.G.G.G.G.",
"G.G.G.s.; e a r p V f r x x e e q 6 , q 6 3 e r V x r n x r a $ *.G.G.G.G.G.",
"G.G.G.t.@ 8 p p e z x r a a e e r 6 3 3 3 2 r r N N w x x e i o #.G.G.G.G.G.",
"G.G.G.c.R ; e e i e f x r p p r 3 < 2 q 3 q r x f r f f r a 2 U h.G.G.G.G.G.",
"G.G.G.G.0.X , 6 e a x N N f p e 3 > 3 3 2 e r a r r S x q p @ <.G.G.G.G.G.G.",
"G.G.G.G.s.a % q f V F S V r q q > 3 q 3 < q q e e n x e r , m h.G.G.G.G.G.G.",
"G.G.G.G.G.#.  6 x x x x a p e 3 3 q 3 > 3 q 3 q i a a e e X o.G.G.G.G.G.G.G.",
"G.G.G.G.G.c.U $ x f d f e a p q q 3 < < 3 4 3 6 e e e p 2 8 5.G.G.G.G.G.G.G.",
"G.G.G.G.G.G.<.. q q r x e q 3 3 3 < > 2 > > 3 3 q q q 6 O o.G.G.G.G.G.G.G.G.",
"G.G.G.G.G.G.<.; 3 q 3 q q 3 > < * 3 6 ; 2 < 2 6 6 6 2 , @ o.G.G.G.G.G.G.G.G.",
"G.G.G.G.G.G.G.o.O 2 > > & > 1 3 6 q p : ; > - 3 3 ; > @ ~ G.G.G.G.G.G.G.G.G.",
"G.G.G.G.G.G.G.<.: + , 3 % ; 3 3 z V e 6 - ; ; 6 q q 2 = <.G.G.G.G.G.G.G.G.G.",
"G.G.G.G.G.G.G.G.t.5 $ % + + - 6 V H N z $ o + $ & % ; #.G.G.G.G.G.G.G.G.G.G.",
"G.G.G.G.G.G.G.G.G.h.8 8 8 i 5 q Y V k x = u s i a 8 ..G.G.G.G.G.G.G.G.G.G.G.",
"G.G.G.G.G.G.G.G.G.G.G.G.G.G.#.2 S N f z ; g.G.G.G.G.G.G.G.G.G.G.G.G.G.G.G.G.",
"G.G.G.G.G.G.G.G.G.G.G.G.G.G.X.$ c Y V V = t.G.G.G.G.G.G.G.G.G.G.G.G.G.G.G.G.",
"G.G.G.G.G.G.G.G.G.G.G.G.G.G.t.v r V q q % 5.G.G.G.G.G.G.G.G.G.G.G.G.G.G.G.G.",
"G.G.G.G.G.G.G.G.G.G.G.G.G.G.G./ % r k k 6 8 c.G.G.G.G.G.G.G.G.G.G.G.G.G.G.G.",
"G.G.G.G.G.G.G.G.G.G.G.G.G.G.G.5.a f Q Y r 2 *.G.G.G.G.G.G.G.G.G.G.G.G.G.G.G.",
"G.G.G.G.G.G.G.G.G.G.G.G.G.G.G.G.~ 2 V x x q : c.G.G.G.G.G.G.G.G.G.G.G.G.G.G.",
"G.G.G.G.G.G.G.G.G.G.G.G.G.G.G.G.o.8 r C Y f 6 I D ..G.G.G.G.G.G.G.G.G.G.G.G.",
"G.G.G.G.G.G.G.G.G.G.G.G.G.G.G.G.G.*.2 F Q x q % % : n v v m m z t.G.G.G.G.G.",
"G.G.G.G.G.G.G.G.G.G.G.G.G.G.G.G.G.G.o.2 z V f F V 3 ; = + o o o 5 t.G.G.G.G.",
"G.G.G.G.G.G.G.G.G.G.G.G.G.G.G.G.G.G.G...- e a F x e x r 2 ; = = % 0.G.G.G.G.",
"G.G.G.G.G.G.G.G.G.G.G.G.G.G.G.G.G.G.G.G.5.i 6 6 6 q r 6 = @ = : <.G.G.G.G.G.",
"G.G.G.G.G.G.G.G.G.G.G.G.G.G.G.G.G.G.G.G.G.c.G.L 2 8 6 5 5 : v c.G.G.G.G.G.G.",
"G.G.G.G.G.G.G.G.G.G.G.G.G.G.G.G.G.G.G.G.G.G.G.G.m.G.G.G.G.G.c.G.G.G.G.G.G.G.",
"G.G.G.G.G.G.G.G.G.G.G.G.G.G.G.G.G.G.G.G.G.G.G.G.G.G.G.G.G.G.G.G.G.G.G.G.G.G.",
"G.G.G.G.G.G.G.G.G.G.G.G.G.G.G.G.G.G.G.G.G.G.G.G.G.G.G.G.G.G.G.G.G.G.G.G.G.G."
};
