/* XPM */
static char *louis_jump[] = {
/* columns rows colors chars-per-pixel */
"80 64 182 2 ",
"   c #2C2B2A",
".  c #302E2C",
"X  c #32302C",
"o  c #363532",
"O  c #383631",
"+  c #3B3A36",
"@  c #3D3C39",
"#  c #403D37",
"$  c #403E3C",
"%  c #44423E",
"&  c #49463F",
"*  c #564B31",
"=  c #64542C",
"-  c #464542",
";  c #494642",
":  c #474843",
">  c #4C4944",
",  c #4E4D4C",
"<  c #514C45",
"1  c #514E4A",
"2  c #4F504D",
"3  c #55524D",
"4  c #5A554F",
"5  c #545352",
"6  c #595652",
"7  c #5D5954",
"8  c #5E5C5A",
"9  c #745648",
"0  c #625C56",
"q  c #695F56",
"w  c #635F5A",
"e  c #65615B",
"r  c #6B645D",
"t  c #6E685E",
"y  c #70675D",
"u  c #70695E",
"i  c #656463",
"p  c #6B6661",
"a  c #6E6963",
"s  c #6B6B6A",
"d  c #736C63",
"f  c #786F66",
"g  c #736E69",
"h  c #777066",
"j  c #797166",
"k  c #75716C",
"l  c #7C746A",
"z  c #7F786E",
"x  c #767574",
"c  c #787775",
"v  c #7F7972",
"b  c #777878",
"n  c #7C7C7B",
"m  c #83753D",
"M  c #826D61",
"N  c #81756C",
"B  c #837A6E",
"V  c #887D6E",
"C  c #847C72",
"Z  c #897E72",
"A  c #837E79",
"S  c #A38831",
"D  c #88806F",
"F  c #878075",
"G  c #8B8275",
"H  c #85827C",
"J  c #8D857A",
"K  c #8F887E",
"L  c #918476",
"P  c #92867A",
"I  c #938A7D",
"U  c #998D7E",
"Y  c #958A75",
"T  c #B2A364",
"R  c #838382",
"E  c #8A8884",
"W  c #8B8A89",
"Q  c #8C8584",
"!  c #958D82",
"~  c #998E82",
"^  c #938E88",
"/  c #969185",
"(  c #9A9185",
")  c #92908E",
"_  c #9D958A",
"`  c #9E988D",
"'  c #959594",
"]  c #9A9793",
"[  c #979897",
"{  c #9E9A92",
"}  c #9C9C9B",
"|  c #A08F82",
" . c #A19485",
".. c #A1978B",
"X. c #A2998D",
"o. c #AC9A8D",
"O. c #B29A8F",
"+. c #A49D92",
"@. c #AB9E91",
"#. c #A29F9A",
"$. c #9FA09F",
"%. c #A6A196",
"&. c #ABA195",
"*. c #A5A29B",
"=. c #ACA59B",
"-. c #AFA99C",
";. c #B1A799",
":. c #B2AA9D",
">. c #A3A4A3",
",. c #ADA7A1",
"<. c #ACAAA4",
"1. c #ADADAE",
"2. c #B4ADA2",
"3. c #B8AFA3",
"4. c #B3AFA8",
"5. c #AEB0AE",
"6. c #B6B1A4",
"7. c #BAB1A5",
"8. c #B5B2AC",
"9. c #BCB5A9",
"0. c #BEB9AC",
"q. c #AFB0B2",
"w. c #BCBAB5",
"e. c #BCBCBB",
"r. c #B4B4B3",
"t. c #C1B1A4",
"y. c #C1B9AC",
"u. c #C5BEB2",
"i. c #C6C0B4",
"p. c #C9C3B6",
"a. c #C3C1BD",
"s. c #CBC5BB",
"d. c #CEC8BD",
"f. c #BDBFC1",
"g. c #C5C5C4",
"h. c #CAC9C5",
"j. c #C7C8C8",
"k. c #CBCBCB",
"l. c #D3CCC3",
"z. c #D6D1C6",
"x. c #D9D3C7",
"c. c #D7D3C8",
"v. c #DCD7CD",
"b. c #DED8CD",
"n. c #D4D4D4",
"m. c #D8D7D5",
"M. c #DEDCD4",
"N. c #DCDCDC",
"B. c #E2DED2",
"V. c #E3DFDC",
"C. c #E7E2D8",
"Z. c #EEE7DA",
"A. c #ECE8DC",
"S. c #E1E2E1",
"D. c #E5E5E5",
"F. c #E4E4E4",
"G. c #E8E7E5",
"H. c #EBE9E5",
"J. c #ECECEC",
"K. c #F0ECE2",
"L. c #EFF0EF",
"P. c #F5F1E9",
"I. c #EEEFF0",
"U. c #F4F5F4",
"Y. c #F8F8F7",
"T. c #F7F8F8",
"R. c #F8F9F9",
"E. c #FBFBFB",
"W. c #FAFAFA",
"Q. c #FCFBFB",
"!. c #FCFCFB",
"~. c #FCFCFC",
"^. c #FDFDFC",
"/. c #FDFDFD",
"(. c #FDFCFC",
"). c #FEFEFD",
"_. c #FEFEFC",
"`. c #FEFEFE",
"'. c #FF00FF",
"]. c #FEFFFE",
"[. c #FDFDFE",
"{. c #FEFEFE",
/* pixels */
"'.'.'.'.'.'.'.'.'.'.'.'.'.'.'.'.'.'.'.'.'.'.'.'.'.'.'.'.'.'.'.'.'.'.'.'.'.'.'.'.'.'.'.'.'.'.'.'.'.'.'.'.'.'.'.'.'.'.'.'.'.'.'.'.'.'.'.'.'.'.'.'.'.'.'.'.'.'.'.'.",
"'.'.'.'.'.'.'.'.'.'.'.'.'.'.'.'.'.'.'.'.'.'.'.'.'.'.'.'.'.'.'.'.'.'.'.'.'.'.'.'.'.'.'.'.'.'.'.'.'.'.'.'.'.'.'.'.'.'.'.'.'.'.'.'.'.'.'.'.'.'.'.'.'.'.'.'.'.'.'.'.",
"'.'.'.'.'.'.'.'.'.'.'.'.'.'.'.'.'.'.'.'.'.'.'.'.'.'.'.'.'.'.'.'.'.'.'.'.'.'.'.'.'.'.'.'.'.'.'.'.'.'.'.'.'.'.'.'.'.'.'.'.'.'.'.'.'.'.'.'.'.'.'.'.'.'.'.'.'.'.'.'.",
"'.'.'.'.'.'.'.'.'.'.'.'.'.'.'.'.'.'.'.'.'.'.'.'.'.'.'.'.'.'.'.'.'.'.'.'.'.'.'.'.'.'.'.'.'.'.'.'.'.'.'.'.'.'.'.'.'.'.'.'.'.'.'.'.'.'.'.'.'.'.'.'.'.'.'.'.'.'.'.'.",
"'.'.'.'.'.'.'.'.'.'.'.'.'.'.'.'.'.'.'.'.'.'.'.'.'.'.'.'.'.'.'.'.'.'.'.'.'.'.'.'.'.'.'.'.'.'.'.'.'.'.'.'.'.'.'.'.'.'.'.'.'.'.'.'.'.'.'.'.'.'.'.'.'.'.'.'.'.'.'.'.",
"'.'.'.'.'.'.'.'.'.'.'.'.'.'.'.'.'.'.'.'.'.'.'.'.'.'.'.'.'.'.'.'.'.'.'.'.'.'.'.'.'.'.'.'.'.'.'.'.'.'.'.'.'.'.'.'.'.'.'.'.'.'.'.'.'.'.'.'.'.'.'.'.'.'.'.'.'.'.'.'.",
"'.'.'.'.'.'.'.'.'.'.'.'.'.'.'.'.'.'.'.'.'.'.'.'.'.'.'.'.'.'.'.'.'.'.'.'.'.'.'.'.'.'.'.'.'.'.'.'.'.'.'.'.'.'.'.'.'.'.'.'.'.'.'.'.'.'.'.'.'.'.'.'.'.'.'.'.'.'.'.'.",
"'.'.'.'.'.'.'.'.'.'.'.'.'.'.'.'.'.'.'.'.'.'.'.'.'.'.'.'.'.'.'.'.'.'.'.'.'.'.'.'.'.'.'.'.'.'.'.'.'.'.'.'.'.'.'.'.'.'.'.'.'.'.'.'.'.'.'.'.'.'.'.'.'.'.'.'.'.'.'.'.",
"'.'.'.'.'.'.'.'.'.'.'.'.'.'.'.'.'.'.'.'.'.'.'.'.'.'.'.'.'.'.'.'.'.'.'.'.'.'.'.'.'.'.'.'.'.'.'.'.'.'.'.'.'.'.'.'.'.'.'.'.'.'.'.'.'.'.'.'.'.'.'.'.'.'.'.'.'.'.'.'.",
"'.'.'.'.'.'.'.'.'.'.'.'.'.'.'.'.'.J.S.'.T.n.m.'.'.'.'.'.'.'.'.'.'.'.'.'.'.'.'.'.'.'.'.'.'.'.'.'.'.'.'.'.'.'.'.'.'.'.'.'.'.'.'.'.'.'.'.'.'.'.'.'.'.'.'.'.'.'.'.'.",
"'.'.'.'.'.'.'.'.'.'.'.'.'.'.'.'.'.g.7 k.'.l g w.'.'.'.'.'.'.'.'.'.'.'.'.'.'.'.'.'.'.'.'.'.'.'.'.'.'.'.'.'.'.'.'.'.'.'.'.'.'.'.'.'.'.'.'.'.'.'.'.'.'.'.'.'.'.'.'.",
"'.'.'.'.'.'.'.'.'.'.'.'.'.'.'.'.'.h.% 6 } =.@.g w.'.'.'.'.'.'.'.'.'.'.'.'.'.'.'.'.'.'.'.'.'.'.'.'.'.'.'.'.'.'.'.'.'.'.'.'.'.'.'.'.'.'.'.'.'.'.'.'.'.'.'.'.'.'.'.",
"'.'.'.'.'.'.'.'.'.'.'.'.'.'.'.'.'.S.! g : K t.P 7 g.'.'.'.'.'.'.'.'.'.'.'.'.'.'.'.'.'.'.'.'.'.'.'.'.'.'.'.'.'.'.'.'.'.'.'.'.'.'.'.'.'.'.'.'.'.'.'.'.'.'.'.'.'.'.",
"'.'.'.'.'.'.'.'.'.'.'.'.'.'.'.'.'.'.e.0 6 J t.o.B 6 w.'.'.'.'.'.'.'.'.'.'.'.'.'.'.'.'.'.'.'.'.'.'.'.'.'.'.'.'.'.'.'.'.'.'.'.'.'.'.'.'.'.'.'.'.'.'.'.'.'.'.'.'.'.",
"'.'.'.'.'.'.'.'.'.'.'.'.'.'.'.'.'.e.3 r 0 J @.O.| g 6 S.'.'.'.'.'.'.'.'.'.'.'.'.'.'.'.'.'.'.'.'.'.'.'.'.'.'.'.'.'.'.'.'.'.'.'.'.'.'.'.'.'.'.'.'.'.'.'.'.'.'.'.'.",
"'.'.'.'.'.'.'.'.'.'.'.'.'.'.'.'.e.> 7 l J X.@.~ U J g 6 g.'.'.'.'.'.'.'.'.'.'.'.'.'.'.'.'.'.'.'.'.'.'.'.'.'.'.'.'.'.'.'.'.'.'.'.'.'.'.'.'.'.'.'.'.'.'.'.'.'.'.'.",
"'.'.'.'.'.'.'.'.'.'.'.'.'.'.'.k.; r C B I ( &.I ( C g r & e.'.'.'.'.'.'.'.'.'.'.'.'.'.'.'.'.'.'.'.'.'.'.'.'.'.'.'.'.'.'.'.'.'.'.'.'.'.'.'.'.'.J.S.'.'.'.'.'.'.'.",
"'.'.'.'.'.'.'.'.'.'.'.'.'.'.U.s l g ( X.I P I F F g l B < s '.'.'.'.'.'.'.'.'.'.'.'.'.'.'.'.'.'.'.'.'.'.'.'.'.'.'.'.'.'.'.'.'.'.'.'.'.'.'.'.S.> > J.'.'.'.'.'.'.",
"'.'.'.'.'.'.'.'.'.'.'.'.'.'.U.g X.%._ F I I I U l h Z B 0 e J.'.'.'.'.'.'.'.'.'.'.'.'.'.'.'.'.'.'.'.'.'.'.'.'.'.'.'.'.'.'.'.'.'.'.'.'.'.'.'.R   o k '.'.'.'.'.'.",
"'.'.'.'.'.'.'.'.'.'.'.'.'.'.T.g :./ = m k l F U I I I J l ; k e.r.1.S.'.'.'.'.'.'.'.'.'.'.'.'.'.'.'.'.'.'.'.'.'.'.'.'.'.'.'.'.'.'.'.'.'.'.'.n   :   $.'.'.'.'.'.",
"'.'.'.'.'.'.'.'.'.'.'.'.'.'.S.g C * S T Q B r g F I ( F B g 1 @ % o s >.} } } [ ' ' W e.'.'.'.'.'.'.'.'.'.'.'.'.'.'.'.'.'.'.'.'.'.'.'.'.'.'.n.> @ > 8 '.'.'.'.'.",
"'.'.'.'.'.'.'.'.'.'.'.'.'.V.~ J N F Y F C I J r r g F I F h l v e 8 % X @ o X O o @ O > n c x S.'.'.'.'.'.'.'.'.'.'.'.'.'.'.'.'.'.'.'.'.'.'.'.s > 3 s '.'.'.'.'.",
"'.'.'.'.'.'.'.'.'.'.'.'.'.s.9 Z =.2.+._ J l l F l e l I F ! P F g w e e e 7 4 6 7 0 0 3 & % O i w.'.'.'.'.'.'.'.'.'.'.'.'.'.'.'.'.'.'.'.'.'.'.s w e s '.'.'.'.'.",
"'.'.'.'.'.'.'.'.'.'.'.'.'.H.M l.B.z.l.u.:.K F l h C F k (  .P B B B B B g e e w p r r p w 0 6 @ 8 Q W U.'.'.'.'.'.'.'.'.'.'.'.'.'.'.'.'.'.'.n.3 1 1 i '.'.'.'.'.",
"'.'.'.'.'.'.'.'.'.'.'.'.'.'.8.8.h.i.p.x.u.&.@.( ( _ l J ( I l B B F F B g B g e p p r 0 r r e w 0 > % 6 } '.'.'.'.'.'.'.'.'.'.'.'.'.'.'.'.'.>.; l > 2 '.'.'.'.'.",
"'.'.'.'.'.'.'.'.'.'.'.'.'.'.'.>.) 4.u.7.y.0.;.@.X.F ( ..C C Z L L F B C r F B r F B l r B B r g l g 0 % @ n n.'.'.'.'.'.'.'.'.'.'.'.'.'.'.'.) r F 3 >.'.'.'.'.'.",
"'.'.'.'.'.'.'.'.'.'.'.'.'.'.'.'.*.^ ] _ _ :.2.! ! +.=.J Z L L B g B l t g F l l F B g 0 N Z g r l B 0 0 7 % @ S.'.'.'.'.'.'.'.'.'.'.'.'.'.e.$ l I > n.'.'.'.'.'.",
"'.'.'.'.'.'.'.'.'.'.'.'.'.'.'.'.U.J.U.J.J _ 9.7.s.9.( F F C r g C V g r F F g F L l w e r g r r B B 0 e w 7 > 5 1.'.'.'.'.'.'.'.'.'.'.'.S.5 r ! B p n.'.'.'.'.'.",
"'.'.'.'.'.'.'.'.'.'.'.'.'.'.'.'.'.'.'.'.n./ x.M.x.:.F B r 0 r g g r r B ( B g L Z l l Z B l r B Z 0 r g 0 r e < $ q.'.'.'.'.'.'.'.'.'.'.g 3 r F e >.'.'.'.'.'.'.",
"'.'.'.'.'.'.'.'.'.'.'.'.'.'.'.'.'.'.'.'.N.! s.x.p.! F F Z C B B g 7 l F ( Z l P L Z F F F C p Z C r l B 0 l B 0 1 . n U.'.'.'.'.'.U.'.] < f Z r n U.'.'.'.'.'.'.",
"'.'.'.'.'.'.'.'.'.'.'.'.'.'.'.'.'.'.'.'.'.n.+.9.K ~ ~ F F C s r r 0 B U ..~ B P P P l F F g B I B u N g 0 l C 0 0 1 @ 5 j.N.N.N.k.5 1 r B l P 7 >.'.'.'.'.'.'.'.",
"'.'.'.'.'.'.'.'.'.'.'.'.'.'.'.'.'.'.a.e.k.} C / C ! J l s g C r 0 w g I .. .z Z P I l F J F P J F f f r s C F r 0 7 > 1 ; % % ; % 3 0 g  .B 0 *.'.'.'.'.'.'.'.'.",
"'.'.'.'.'.'.'.'.'.'.'.'.'.'.'.J.*.#.l g g 0 6 0 0 r u z J C s r e 3 e I X.X.l F X._ l ( ~ J F C F l e e B F l e k 7 < 0 r r g F g r P 0 g w >.'.'.'.'.'.'.'.'.'.",
"'.'.'.'.'.'.'.'.'.'.'.'.'.S.,.*.2.&.~ P F r 0 r K ! l g B Z J g e > e I +.X.C +.;.! K &.( B C C F g 0 l F B g 0 g e 1 > 0 u J U F y q k W J.'.'.'.'.'.'.'.'.'.'.",
"'.'.'.'.'.'.'.'.'.'.'.'.N.+.u.9.&._ J ! _ ( J F ( J ( J s r C h w 6 r I X._ / :.X./ +.X.J C ( F Z Z l F F t r u u g 3 $ ; 1 e r 0 e } S.'.'.'.'.'.'.'.'.'.'.'.'.",
"'.'.'.'.'.'.'.'.'.'.'.'.=.X.X.F 2.i.7.2.! C l ( I t r I I w s z e 1 z I +.+.:.X./ %.+.J ! _ X.J F J F P g r C u g B > i n.n.n.n.n.N.'.'.'.'.'.'.'.'.'.'.'.'.'.'.",
"'.'.'.'.'.'.'.'.'.'.'.'.h.l l s.K.K.z.3.&._ B l ( ( g z ! r g z < s +.6.:.-.-.X.+.2.&.+.=.X...C I B l g l B g 0 l B & b '.'.'.'.'.'.'.'.'.'.'.'.'.'.'.'.'.'.'.'.",
"'.'.'.'.'.'.'.'.'.'.'.'.'.} =.M.x.A.B.:.C g r 3 e k 7 e g 0 6 3 s =.y.s.i.p.7.=.2.6.=.2.=.X.I J ( I B r F l l g F l < R '.'.'.'.'.'.'.'.'.'.'.'.'.'.'.'.'.'.'.'.",
"'.'.'.'.'.'.'.'.'.'.'.'.'.N.%.=.b.Z.p.} a.e.g.j.g.g.r.w 8 e 7 w *.y.7.u.p.s.i.u.p.u.=.9.=.%.! J ..! g F F h D B l t > s '.'.'.'.'.'.'.'.'.'.'.'.'.'.'.'.'.'.'.'.",
"'.'.'.'.'.G.'.'.'.'.'.'.'.H.w.J =.} E g.'.'.'.'.'.'.'.U.U.U.'.G.<._ ..X._ 9.p.d.d.s.y.0.a.6.+.( ~ r l I g l I l l 0 ; } '.'.'.'.'.'.'.'.'.'.'.'.'.'.'.'.'.'.'.'.",
"'.'.'.'.'.J.J.'.'.'.'.'.'.'.'.g.e.e.n.'.'.'.'.'.'.'.'.'.'.'.'.'.'.h.w.u.a.2./ _ 0.y.y.9.0.y.9.&.B l F B l J C t Z u % f.'.'.'.'.'.'.'.'.'.'.'.'.'.'.'.'.'.'.'.'.",
"'.'.'.'.'.'.U.'.'.'.'.'.'.'.'.'.'.'.'.'.'.'.'.'.'.'.'.'.'.'.'.'.'.'.'.'.'.J.S.g.J / _ -.=.&.6.+.I ~ B h P C g F C r # 8 '.'.'.'.'.'.'.'.'.'.'.'.'.'.'.'.'.'.'.'.",
"'.'.'.'.'.'.'.'.'.'.'.'.'.'.'.'.'.'.'.'.'.'.'.'.'.'.'.'.'.'.'.'.'.'.'.'.'.'.'.'.J.U.J.k ! =.2.=.! P C C J l 0 l g 0 < w g.'.'.'.'.'.'.'.'.'.'.'.'.'.'.'.'.'.'.'.",
"'.'.'.'.'.'.'.'.'.'.'.'.'.'.'.'.'.'.'.'.'.'.'.'.'.'.'.'.'.'.'.'.'.'.'.'.'.'.'.'.'.'.'.e.k X.=.( _ C F I C g l r e l t 6 @ x ' S.'.'.'.'.'.'.'.'.'.'.'.'.'.'.'.'.",
"'.'.'.'.'.'.'.'.'.'.'.'.'.'.'.'.'.'.'.'.'.'.'.'.'.'.'.'.'.'.'.'.'.'.'.'.'.'.'.'.'.'.'.'.e.g _ &.:._ I I g l I g C I g g s > $ x U.'.'.'.'.'.'.'.'.'.'.'.'.'.'.'.",
"'.'.'.'.'.'.'.'.'.'.'.'.'.'.'.'.'.'.'.'.'.'.'.'.'.'.'.'.'.'.'.'.'.'.'.'.'.'.'.'.'.'.'.'.'.>.l :.9.2...l l ~ l C J r J K g s e 6 J.'.'.'.'.'.'.'.'.'.'.'.'.'.'.'.",
"'.'.'.'.'.'.'.'.'.'.'.'.'.'.'.'.'.'.'.'.'.'.'.'.'.'.'.'.'.'.'.'.'.'.'.'.'.'.'.'.'.'.'.'.'.'.} C 9.9.2._ _ P B ( J B X.P l K h w J.'.'.'.'.'.'.'.'.'.'.'.'.'.'.'.",
"'.'.'.'.'.'.'.'.'.'.'.'.'.'.'.'.'.'.'.'.'.'.'.'.'.'.'.'.'.'.'.'.'.'.'.'.'.'.'.'.'.'.'.'.'.'.'.n.A ! 2.2.+.I ! ~ ! ! F B +.Z ! e n '.'.'.'.'.'.'.'.'.'.'.'.'.'.'.",
"'.'.'.'.'.'.'.'.'.'.'.'.'.'.'.'.'.'.'.'.'.'.'.'.'.'.'.'.'.'.'.'.'.'.'.'.'.'.'.'.'.'.'.'.'.'.'.'.N.W H J v k k g e w w 7 F ( ( g s '.'.'.'.'.'.'.'.'.'.'.'.'.'.'.",
"'.'.'.'.'.'.'.'.'.'.'.'.'.'.'.'.'.'.'.'.'.'.'.'.'.'.'.'.'.'.'.'.'.'.'.'.'.'.'.'.'.'.'.'.'.'.'.'.'.'.J.J.J.I.J.'.1.> l l 7 ( &.X.s U.'.'.'.'.'.'.'.'.'.'.'.'.'.'.",
"'.'.'.'.'.'.'.'.'.'.'.'.'.'.'.'.'.'.'.'.'.'.'.'.'.'.'.'.'.'.'.'.'.'.'.'.'.'.'.'.'.'.'.'.'.'.'.'.'.'.'.'.'.'.'.'.'.} s F t t y.y.( U.'.'.'.'.'.'.'.'.'.'.'.'.'.'.",
"'.'.'.'.'.'.'.'.'.'.'.'.'.'.'.'.'.'.'.'.'.'.'.'.'.'.'.'.'.'.'.'.'.'.'.'.'.'.'.'.'.'.'.'.'.'.'.'.'.'.'.'.'.'.'.'.'.'.R l J e d.K.s.4.U.'.'.'.'.'.'.'.'.'.'.'.'.'.",
"'.'.'.'.'.'.'.'.'.'.'.'.'.'.'.'.'.'.'.'.'.'.'.'.'.'.'.'.'.'.'.'.'.'.'.'.'.'.'.'.'.'.'.'.'.'.'.'.'.'.'.'.'.'.'.'.'.'.' +...l =.P.H.9.! T.'.'.'.'.'.'.'.'.'.'.'.'.",
"'.'.'.'.'.'.'.'.'.'.'.'.'.'.'.'.'.'.'.'.'.'.'.'.'.'.'.'.'.'.'.'.'.'.'.'.'.'.'.'.'.'.'.'.'.'.'.'.'.'.'.'.'.'.'.'.'.'.>.*.y.( C l.C.x.X.S.'.'.'.'.'.'.'.'.'.'.'.'.",
"'.'.'.'.'.'.'.'.'.'.'.'.'.'.'.'.'.'.'.'.'.'.'.'.'.'.'.'.'.'.'.'.'.'.'.'.'.'.'.'.'.'.'.'.'.'.'.'.'.'.'.'.'.'.'.'.'.'.U.#.<.7.h J 9.x.<.S.'.'.'.'.'.'.'.'.'.'.'.'.",
"'.'.'.'.'.'.'.'.'.'.'.'.'.'.'.'.'.'.'.'.'.'.'.'.'.'.'.'.'.'.'.'.'.'.'.'.'.'.'.'.'.'.'.'.'.'.'.'.'.'.'.'.'.'.'.'.'.'.'.U.<.C H e.4.F w.'.'.'.'.'.'.'.'.'.'.'.'.'.",
"'.'.'.'.'.'.'.'.'.'.'.'.'.'.'.'.'.'.'.'.'.'.'.'.'.'.'.'.'.'.'.'.'.'.'.'.'.'.'.'.'.'.'.'.'.'.'.'.'.'.'.'.'.'.'.'.'.'.'.'.'.N.J.'.J.S.U.'.'.'.'.'.'.'.'.'.'.'.'.'.",
"'.'.'.'.'.'.'.'.'.'.'.'.'.'.'.'.'.'.'.'.'.'.'.'.'.'.'.'.'.'.'.'.'.'.'.'.'.'.'.'.'.'.'.'.'.'.'.'.'.'.'.'.'.'.'.'.'.'.'.'.'.'.'.'.'.'.'.'.'.'.'.'.'.'.'.'.'.'.'.'.",
"'.'.'.'.'.'.'.'.'.'.'.'.'.'.'.'.'.'.'.'.'.'.'.'.'.'.'.'.'.'.'.'.'.'.'.'.'.'.'.'.'.'.'.'.'.'.'.'.'.'.'.'.'.'.'.'.'.'.'.'.'.'.'.'.'.'.'.'.'.'.'.'.'.'.'.'.'.'.'.'.",
"'.'.'.'.'.'.'.'.'.'.'.'.'.'.'.'.'.'.'.'.'.'.'.'.'.'.'.'.'.'.'.'.'.'.'.'.'.'.'.'.'.'.'.'.'.'.'.'.'.'.'.'.'.'.'.'.'.'.'.'.'.'.'.'.'.'.'.'.'.'.'.'.'.'.'.'.'.'.'.'.",
"'.'.'.'.'.'.'.'.'.'.'.'.'.'.'.'.'.'.'.'.'.'.'.'.'.'.'.'.'.'.'.'.'.'.'.'.'.'.'.'.'.'.'.'.'.'.'.'.'.'.'.'.'.'.'.'.'.'.'.'.'.'.'.'.'.'.'.'.'.'.'.'.'.'.'.'.'.'.'.'.",
"'.'.'.'.'.'.'.'.'.'.'.'.'.'.'.'.'.'.'.'.'.'.'.'.'.'.'.'.'.'.'.'.'.'.'.'.'.'.'.'.'.'.'.'.'.'.'.'.'.'.'.'.'.'.'.'.'.'.'.'.'.'.'.'.'.'.'.'.'.'.'.'.'.'.'.'.'.'.'.'.",
"'.'.'.'.'.'.'.'.'.'.'.'.'.'.'.'.'.'.'.'.'.'.'.'.'.'.'.'.'.'.'.'.'.'.'.'.'.'.'.'.'.'.'.'.'.'.'.'.'.'.'.'.'.'.'.'.'.'.'.'.'.'.'.'.'.'.'.'.'.'.'.'.'.'.'.'.'.'.'.'.",
"'.'.'.'.'.'.'.'.'.'.'.'.'.'.'.'.'.'.'.'.'.'.'.'.'.'.'.'.'.'.'.'.'.'.'.'.'.'.'.'.'.'.'.'.'.'.'.'.'.'.'.'.'.'.'.'.'.'.'.'.'.'.'.'.'.'.'.'.'.'.'.'.'.'.'.'.'.'.'.'."
};
