/* XPM */
static char *louis_side_walk[] = {
/* columns rows colors chars-per-pixel */
"80 80 191 2 ",
"   c #080807",
".  c #0B0C0B",
"X  c #040504",
"o  c #10100E",
"O  c #191205",
"+  c #0F1011",
"@  c #141413",
"#  c #1A1916",
"$  c #1C1C1A",
"%  c #1A1716",
"&  c #201F1D",
"*  c #1E201C",
"=  c #22211E",
"-  c #1F2020",
";  c #242423",
":  c #282624",
">  c #272827",
",  c #2A2A26",
"<  c #272828",
"1  c #2C2C2A",
"2  c #312F2B",
"3  c #33322E",
"4  c #2F2F30",
"5  c #2F3030",
"6  c #353535",
"7  c #393733",
"8  c #373837",
"9  c #3B3A35",
"0  c #373738",
"q  c #383738",
"w  c #373838",
"e  c #FF00FF",
"r  c #513E08",
"t  c #413F3C",
"y  c #423D35",
"u  c #44352E",
"i  c #3F403F",
"p  c #42413E",
"a  c #4A453D",
"s  c #6D5E30",
"d  c #3F3F40",
"f  c #403F40",
"g  c #3F4040",
"h  c #434343",
"j  c #4A4743",
"k  c #474846",
"l  c #4B4945",
"z  c #484748",
"x  c #FF00FF",
"c  c #474748",
"v  c #524D45",
"b  c #514F4B",
"n  c #4F504E",
"m  c #575147",
"M  c #53514D",
"N  c #5A554D",
"B  c #5D584F",
"V  c #504F50",
"C  c #4F5050",
"Z  c #545453",
"A  c #5A5753",
"S  c #5C5954",
"D  c #5C5C5B",
"F  c #575757",
"G  c #60584E",
"H  c #65564D",
"J  c #635D54",
"K  c #605F5E",
"L  c #695F56",
"P  c #5F605F",
"I  c #656156",
"U  c #6A6157",
"Y  c #63615C",
"T  c #6B645B",
"R  c #6E695E",
"E  c #71675D",
"W  c #71695E",
"Q  c #796E5F",
"!  c #7F735A",
"~  c #615F60",
"^  c #646463",
"/  c #696766",
"(  c #676866",
")  c #6B6965",
"_  c #6C6C6B",
"`  c #686768",
"'  c #746C62",
"]  c #796F63",
"[  c #706F6E",
"{  c #6F706E",
"}  c #767066",
"|  c #7B7366",
" . c #72716E",
".. c #7C7469",
"X. c #7F786B",
"o. c #706F70",
"O. c #6F7070",
"+. c #747373",
"@. c #787776",
"#. c #797976",
"$. c #7A7979",
"%. c #7E7E7D",
"&. c #7D7C7B",
"*. c #777778",
"=. c #807567",
"-. c #817769",
";. c #847A6C",
":. c #897E6E",
">. c #857D71",
",. c #897E71",
"<. c #FF00FF",
"1. c #807F7E",
"2. c #7F807B",
"3. c #C5A131",
"4. c #908252",
"5. c #89806F",
"6. c #878175",
"7. c #8B8274",
"8. c #FF00FF",
"9. c #82817E",
"0. c #8D8579",
"q. c #8E887C",
"w. c #908577",
"e. c #FF00FF",
"r. c #948B7C",
"t. c #938877",
"y. c #A59060",
"u. c #827F80",
"i. c #838281",
"p. c #828181",
"a. c #848382",
"s. c #858482",
"d. c #868582",
"f. c #FF00FF",
"g. c #858483",
"h. c #888785",
"j. c #888786",
"k. c #FF00FF",
"l. c #FF00FF",
"z. c #898986",
"x. c #898788",
"c. c #8A8988",
"v. c #8C8B8A",
"b. c #968E81",
"n. c #908F8E",
"m. c #9A8F85",
"M. c #8F908F",
"N. c #959185",
"B. c #9B9384",
"V. c #91918E",
"C. c #9E9689",
"Z. c #9F998A",
"A. c #9F9987",
"S. c #929290",
"D. c #9C9C9C",
"F. c #A19987",
"G. c #A39B8D",
"H. c #A59D91",
"J. c #A7A18F",
"K. c #A8A18E",
"L. c #FF00FF",
"P. c #ABA394",
"I. c #ABA598",
"U. c #AFA99C",
"Y. c #ADA896",
"T. c #B1A897",
"R. c #B3AC9C",
"E. c #B3ADA0",
"W. c #B7B1A3",
"Q. c #B9B3A3",
"!. c #BEB9AC",
"~. c #C3BDAB",
"^. c #C0B9A7",
"/. c #C5BDB0",
"(. c #CBC3B3",
"). c #CEC8B9",
"_. c #C7C2B5",
"`. c #D2CCBC",
"'. c #D7D1C1",
"]. c #DAD5C4",
"[. c #DCD8CA",
"{. c #E0DAC7",
"}. c #E4DECD",
"|. c #E4DFD1",
" X c #E7E1CE",
".X c #E6E3D2",
"XX c #EEEADD",
"oX c #EAE5D6",
"OX c #F2EBDC",
"+X c #F6EFE0",
"@X c #FDF5E4",
/* pixels */
"[ f.8.f.f.k e k e x f.f.<.l._ e k k e _ f.f.f.&.k d k e x f.8.8.f.Y e k k k +.j.8.f.8.x g k e x f.f.f.c.^ e k k e _ f.8.f.8.x e k e x f.8.8.j.^ e k k e _ f.8.f.",
"+.j.f.f.f.z e k e x f.f.f.v._ e k k e _ k.f.f.<.k e k g x f.f.8.f.F e k k k +.l.f.f.8.x e k e x f.f.f.v.^ e k k e _ f.f.f.f.x e k e x f.f.8.l.^ e k k e _ j.8.8.",
"[ f.f.f.f.x k k e x &.u.f.v._ e k k p _ f.f.&.&.x k k k m f.8.&.f.Y e k k k +.l.8.&.&.x k k k Z <.<.&.f.^ k k k k _ f.&.8.<.x k k k x 8.&.&.f.^ k k k e _ f.<.<.",
"F k x x x &.f.&.&. .k k x k F <.&.&.f.F k z k k +.&.&.<.+.x x k e F &.&.&.&.F k x k z @.&.&.f.+.k k x k ^ f.&.&.f.F k x k z &.f.&.f.+.k k k k ^ f.&.&.u.F k x x ",
"Z e k k k f.l.f.v.&.e e k e F l.f.f.v.F e p e e @.f.f.l.&.e k p 9 F v.f.f.l.Z e k e k &.j.f.f.+.e e f e ^ v.f.f.v.Z e k e k &.l.f.l.@.e e k e Y v.f.f.v.Z e k k ",
"Z e k k k &.f.&.f.@.k k k e F f.f.f.l.F k k k k +.f.8.f.&.k k k e F f.<.<.j.F t k k k &.f.<.8.+.k k k e ^ f.8.8.j.F e k k k &.f.8.f.+.p k k e F j.8.<.f.F e k k ",
"Z e e e e &.f.f.v.&.e d e 6 F v.f.f.v.Z e e e e &.f.f.v.&.e e k e F c.f.f.v.Z e k p k &.j.f.f.+.e e e w ^ v.f.f.v.Z 0 e e e &.v.f.l.+.e e e 0 F v.f.f.v.Z e p e ",
"F x Z x x _ +.+.+.+.Z Z b c F &.+.+.+.F x Z b b _ +.[ +._ Z Z Z Z K +.+.[ +.F Z Z Z Z  .+.+.+._ x b b x ^ &.+.+.@.F x b x x _ +.+.+._ Z Z Z x F +.+.+.+.F x Z Z ",
"+.v.f.f.f.k e k e x v.l.f.j._ e p k e _ f.f.j.f.z e e e x l.l.l.v.^ e e e 6  .v.f.v.j.x e t e x f.f.8.l.^ e k k e +.v.f.f.f.k e k e x l.f.f.v.^ e k k e _ v.f.f.",
"+.f.u.f.8.k e k e x f.8.8.l._ e k k e _ f.f.f.f.x k k e x f.f.f.v.^ e k k e _ j.f.f.f.x d k e x 8.8.8.f.^ e k k e _ j.f.f.8.x k k d m f.f.f.c.^ e k k e _ j.8.f.",
"_ f.<.f.8.k e k e x f.<.8.l._ e k k e _ f.f.f.f.x k k e x <.f.f.j./ k k k e _ f.8.f.f.x k k e x f.f.&.f.^ e k k e [ j.f.f.8.x k k k m f.f.f.f.^ e k k e _ f.<.f.",
"_ v.f.f.f.k e k f k j.l.v.V._ 6 e e e +.v.l.v.l.z e e 6 k f.j.f.V._ e k e 6 _ v.f.j.v.x e f e x l.j.f.v.^ 6 e e e +.v.j.j.f.k e e e x l.j.f.v.^ 9 k e 6 _ v.f.f.",
"F F F F F ^ ^ Z e  .x 6 k _ Y Y ^ ^ ^ ^ F ^ ^ Y ^ ^ ^ ^ F F F F ^ / _ _ ^ ^ K F F F ^ _ _ / / ^ F F F F ^ ^ ^ ^ ^ ^ K Y F F ^ ^ ^ ^ ^ F Y K F ^ ^ ^ ^ ^ P F F F ",
"x e p e e &.v./   x 1 t v > F l.f.f.l.Z e k e p <.v.j.l.+.6 e e 6 ^ n.j.f.v.Z e e e f f.v.l.l.@.e e p e K n.j.j.v.Z e e e p <.v.j.v.+.e e e e Y v.l.f.v.F 6 e e ",
"Z k k k k @.j.^ o ; > G.P.a k l.<.<.f.Z k k k k &.f.8.f.+.e k k e F f.<.f.l.F i k k k &.f.<.f.+.p k k k ^ l.f.8.f.Z e k k k &.f.f.f.+.k k k i F f.8.f.j.F e k k ",
"Z i k k k +.j.^ = B = P.Q.r.t  .j.&.f.m e k k k &.f.f.j.+.e k k e F f.8.f.v.F e k k k &.f.<.f.+.p k k p ^ v.f.8.f.Z e k k k &.f.f.f.+.k k k e F l.f.f.l.F e k k ",
"Z e k k k +.j._ o 3 ; Y.Q.B.] 1  .f.8.b e k k k <.f.f.l.@.e t k e F f.f.f.v.Z e p e e &.f.f.l.@.e k k e ^ v.f.f.j.Z 9 e e i &.f.f.f.+.e g k e F l.f.f.v.F e k d ",
"_ +.+.&.@.Z 8 $ o = # J.P.T.0.t $ k x ^ @.@.@.+.Z x x x Z +.+.+.&.Y k x b x ^ +.+.+.+.x x x x F &.@.+.&.Y k x x x _ +.+.+.+.Z x x x Z @.+.+.@.^ x x x x / @.+.+.",
"+.l.f.j.v.e . 2 z J R Y.r.r.r.m > @ 6  .v.l.l.8.k e e e x j.f.f.v.^ e k k w _ j.f.f.8.k e p e Z v.l.f.l.Y 6 p p e +.v.f.l.f.k e p e x l.f.f.v.^ e i g e _ v.f.f.",
"_ f.&.l.+.$ 9 E R 0.0.J.r.:.r.R m N @ ^ k.8.8.2.z p k k m f.8.<.f.^ e k k e _ f.u.8.&.k i k k Z f.f.<.f.^ e k k k  .f.8.f.8.x k k p m f.f.f.f.^ e k k e _ f.8.f.",
"_ f.j.^ ; z N | ..:.;.0.,.| r.J m ' 3 > v.f.f.f.k e k e x l.f.8.v.^ e k e 6 _ j.f.f.f.k e k e x f.f.f.l.^ e p k e _ l.f.f.f.x e e e x f.l.f.v.^ 9 e e e _ v.f.f.",
"_ &.8.k 3 F N Y.L.r.;.,.] R ;.v J ..J $ P 8.&.@.x x x k x &.&.+.&.( x C z k _ &.&.&.&.Z x m z x +.&.&.&.^ x x x k _ &.@.&.&.Z k x k Z &.&.&.8.^ k x x k _ &.&.&.",
"Z k k ; p P.6.'  .0.,.0.e.;.J U | } Y 3 ; x k k +.f.8.8.+.k k i 6 ^ v.f.&.f.Z e k k c 8.f.f.f.+.e k k e ^ v.f.8.f.Z e k k k &.f.<.f.+.p k k g Y f.&.&.f.F e k k ",
"Z e x ; y ].z r s m R ;.0.0.;.;.;.;.' 9 > x e e +.f.8.f.@.k k k e ^ v.f.f.l.F k k k k @.f.8.f.+.e p k e ^ v.f.8.f.Z e k k k &.f.8.f.+.i k k e F j.<.8.f.Z e k k ",
"Z k k $ R R O 3.4.l.' J ' ,.,.,.0.,.R e ; e k k &.<.&.f.+.k k k e F +._ _ +.x 6 6 e x f.f.<.f.+.k k k e ^ v.f.<.f.Z e k k k &.f.&.f.+.k k k e F j.<.f.j.F e k k ",
"Z 0 t ' E m ! y.| ' 0.' N R -.,.0.;.' F > . > 1 b 8.j.V.&.e e e 8 $ . . + $ $ #   @ 3 x &.f.l.&.k e k w F n.j.f.v.Z e g e e <.l.f.v.+.e e i w F v.j.l.n.Z 6 e e ",
"^ x u H R R.Z. .R E ,.0.R N J R ,.0.0.R N ; . @ @ ; 6 e 6   @ $ @ : 9 t v v v a 3 = = # ; ; k ^ ^ _ Y F F ^ ^ ^ _ ^ K Y F F ^ ^ ^ ^ ^ F F F F ^ ^ / _ _ Y F F F ",
"+.&.% N `.(._.Q.B.b.F F ' } R N ;.0.' | | z e e 1 $ ; > 1 1 9 v B m v J ' J J N m N N v 3 = . @ x +.v.l.F 6 e e e +.v.f.j.f.k e e e x v.c.f.v.^ 6 e e 6 _ v.f.f.",
"_ v.8 W.@X'.).(.).R.b.0.Y F E ....E q.5.;.E v a 9 z v m N N m J ' _ R F F J F F F F J v a a y 9 : @ z f.F e k k k [ f.<.8.&.k k k p m f.f.u.f.^ e k k e ^ f.&.&.",
"_ f._ I L.6.0.G.~.(.G.B.r.0.t.0.' 0.b.=.;.] R R J J F J J N F J J F J E R F R E E R J B R E N v v z % ; x e k k f _ f.<.<.&.x k k k x f.u.<.f.^ e k k e _ f.&.&.",
"+.j.l._ 3 q.B.P.R.(.(.H.0.r.0.E 0.G.b.;.E | 0.E | -.J J ] ' F N ' | ..,...N | :.0.' R R J ;.R J J J a & . 1 k t e _ j.8.f.f.x e k e x f.f.f.v.^ e p e e _ l.f.f.",
"F Z Z F z p 6 8 0.G.P.q.' ' ..0.C.C.b.=.J | :.R ] 0.;.J ' 5.' F | ,.;.R R N E ;.0.| F m U ] J J K N a t 1 . m +._ Z x Z Z F  .+.+.+.^ V Z Z x K  ._ _ +.F Z Z Z ",
"Z e e e k _ _ +.6 ' P.G.P.C.0.b.Z.r...J -.;.| ' -.0.:.B ] ;.;.J R -.,.| N F | ;.| R J R R N J K J H v 9 9 : $ &.l.b 6 e e k f.v.j.v.+.6 e e 6 F v.f.f.M.F e e e ",
"Z e k k k &.f.v.e 6.`._.).R.Z.G.r.E U ;.,.' m ] 0.-.' F | :.=.J ] ,.;.:.' E ;.;.' E | ;.| U K ;.;.U N N a 9 $ _ l.Z e k k k &.f.<.f.+.t k k e F f.<.f.c.F d k k ",
"Z e k k k &.f.v.k N.+X|.].R.G.b.' R -.,.R F E -.;.| E J ] :.] J -.;.;.;...;.;.;.-.U | :.;.;.R ,.;.J N J N v 8 > @.F e k e e &.f.f.j.@.e k k e ^ l.f.f.j.F e k k ",
"Z k z x x @.&.f.e N.OX}. X~.r.;.R ' ;.R ' -.;.| R ;.:.R | ;.] ' 0.;.;.,._ ;.:.;.;.E | ;.;.;.E | I B J =.R J m $ q F k k k k +.&.&.u.+.k k z k F <.&.*.&.F k x k ",
"_ <.<.f.f.x k k 1 P.OX}..X'.R.G.r.0.U ' t.0.0.R J =.;.;.;.:.;.R ;.6.;.0.0.' ,.;.Q | ;.,.;.0.' B F U =.-.;.' J b @ V l.&.&.@.k k k k Z f.8.<.f.^ e k k e _ f.&.&.",
"_ f.f.f.f.x e k 1 P.OX}..XoX`.b.0.0.;.0.0.| R R J | ;.;.;.0.b.,.} ;.;.0.0.R ;.;.;.U E ,.0.| U U E ;.;.;.-.' R N = x v.8.8.<.k e k e x f.f.f.v.^ e e g e _ j.f.8.",
"_ f.8.f.f.z e k 2 C. X.X|.!.G.0.0.e.,.' R R ' I z J ;.;.0.m.B.,.J | ;.,.6.R 0.;.:.Y ' e.0.;.| -.;.;.0.;.R J F N 1 @ +.f.8.&.z k k e x f.f.f.j.^ e k k e _ f.8.8.",
"_ f.f.f.<.k e k : 6.{.].`.R.r.B.r.0.R R R 0.;.I p z | ;.0.C.C.r.Y R 0.0.;.E P.r.,.R | B.,.0.:.;.;.] ' E -.R F b 3   _ f.8.8.x p k e x f.f.f.j.^ e k k e _ f.8.8.",
" .f.f.f.<.k e k 1 m ].].).Q.C.r.e.| E 0.r.;.' I m 3 I ;.0.C.C.H...' G.0.0.r.P.B.,.;.0.} | E ' | R F F ;.t.] N b 3 . ^ l.f.f.x i k e x f.8.8.f.^ e k k e / f.8.8.",
" .f.f.f.f.k e k k ; @.XX[.(.P.B.,.;.0.0.;.' R I Y e m | r.G.B.C.;.6.J...0.P.P.e.0.;.' J | | | } F F ' 0.-.J J v 3 * 3 @.l.f.x e k e x f.8.8.f.( e k k e ^ f.8.f.",
" .f.f.f.8.k e e k 6 3 E.'.`.R.G.G.0.t...| 6.E F J e v -.0.N.G.0.0.G.r.| F.H.H.r.0...F -.:.;.| I R | ;.-.R J J m 3 $ $ F v.8.x e k e m f.f.8.f._ e k k e _ f.8.f.",
"+.f.f.f.<.k e p e F _ 1 B.~.R.G.r.' ..e.0.I B Y F N p ;.,.b.G.B.G.G.r.F.K.F.,.r.,.E ;.e.0.I J ;.0.,...J J K m v ; $ e ; &.f.x e k e x f.f.8.f._ e k k e _ f.f.f.",
"+.f.f.f.&.x k k i Z V.F > B.R.B.0.,.R R I J ;.;.' Y p ;.,.b.r.G.Y.N.0.P.G.B.;.C.r.' r.r.R B } ;...Y F B J J m a ; ; B 3 x l.x k k e n f.f.f.j.^ e k p e _ v.f.f.",
"+.v.j.l.f.p e e e m v.v.@.9 R B.B.G.B.0.;.0.' R | R k r.e.r.r.G.P.L.I.;.,.B.G.R.B.0.r.| R ;.;.F ' ' ..R J R N 9 $ 9 J J $ &.x e e 6 x l.l.j.v.^ 6 e 6 6 ^ f.v.f.",
"_ [ _ _ _ Z Z Z Z Y +._ +._ 8 Y b.r.B.r.| Y N m Y R a B.C.B.R.R.P.R.Z.0.P.R.R.R.P.r.;.;.0.;.R E ;.,.| I F m N > $ F R E 9 $ Z F Z Z F  . . .{ F x x F 1 # e ^ _ ",
"Z e k p e @.f.8.l.@.e e p e F t v H.q.R J N E J | ..t G.R.W.Q.Q.!.!.I.R.Q.E.Q.R.P.B.0.0.;.U ' ;...R J J N p 3 @ ; z ....F : e v.v.l.+.e p k e Z f.f._ @ 8 > $ k ",
"Z k k k k @.8.2.f.+.k k k e F f.c 9 J | ,.;.;.;.0.a ..Y.E.P.P.G.B._ e k e 9 p 0.P.G.0.J J ;.r.,.J F J R N 9   e Z = ' ;.' R > 6 _ f.+.k x x k F f._ ; ; t : ; k ",
"Z e k p k &.8.8.f.+.k k k e F v.<.$ ..m.6.J E -.G @ ; > = $ $ @ o k +._ ^ ^ @ > G.G.| I 0.r.,.Y I R F z v > ; @.l.6 9 ' -.,.E 9 > $ k 6 6 e 4 x k @ 1 6 8 = ; k ",
"x 6 e e k 8.l.l.v.+.0 e e 6 F S.l.; ;.0.R F m F # d *._ F ; < 1 < ^ D.S.S.V.1 o z B.B.B.G._ Y ' ..' J N m 1 e S.v.F $ : E :.;.' N a ; # $ @ % $ & p b 8 1 . 6 e ",
"^ ^ ^ ^ _ ^ F ^ F F ^ / ^ ^ ^ ^ F @ Y -.;.r.' b . w _ F F ^ ^ ^ / ^ F K F Z ^ k @ b G.P.G.,.0.r.-.R R N F p ; Z ^ _ _ e = J ,.t.] ;.| | I m m ' ] N R 8 & n ^ ^ ",
"+.l.f.f.f.k e f e x f.f.f.v._ e k $ J 0...' ' $ @ ; 6 e k j.f.8.j.^ q t t 6 +.8.2 ; m G.P.G.m.e.;.0.:.R J J c $ 1 +.v.<.Z ; v E t.r.0.,._ F / 0...b z @ x v.8.f.",
"+.f.f.f.&.c k k t b f.f.<.f._ p k 1 ;.0.;...N ; t : ; k x f.<.&.f.^ e k k e _ j.&.k 8 p R ....| | ;.:.;.;.| E z $ +.f.<.j./ $ : a v R ' ] F E -.N > $ 1 _ f.&.<.",
"+.f.f.f.&.k k k e b j.f.f.j.^ e e 2 ,.,.0.r.a 8 R $ ; k x f.f.f.f.~ e k k e +.f.f.@.1 z 8 ; @ o @ N e.0.;.J ,.p @ +.v.8.f.f.x 6 ; = $ = ; ; $ $ $ ; z k _ l.8.8.",
"+.f.f.f.&.k k k e x j.f.f.f.^ e e 1 ,.' E | 3 a ..; ; k x j.f.f.f.F 0 e k k +.f.f.&.; N c c m t @ 1 E -.J F ..6 @ o.v.f.f.<.k k x k e _ +.+.+.Z e c x k _ j.8.<.",
"Z x x x Z +.&.&.&._ z z x c F &.^ 8 0.0.R J @ N ] N $ x @.x x x k F @.+.@.f.F Z w 1 z R m z z ; e 9 2 ' R ,.F @ [ F x x x x +.&.&.&.o.k x x c F @.+.&.f.F c x x ",
"Z e k k k f.f.f.j.+.e e k e F v._ t r.0.' ;   p ..,.2 x <.e k k e F f.8.f.v.e @ 6 b ;.E J b 2 k Z 1 ; } J R z . &.Z e k k k 8.f.f.f.+.e k k e F l.f.f.v.F e k k ",
"Z k k k k &.f.<.f.+.e k k e ^ f.x ..,.0.,.# 2 ,.6.B.8 x &.e k k e F f.&.&.9 I ;.0.b.0.R R 2 1 &.Z 3 F r.0.' : e &.Z e k k k &.f.&.f.+.k k k e F f.8.8.f.F e k k ",
"Z e k e k f.j.f.f.+.e e k k k Z N r.| ;.0.# 6.Q.G.T.p x &.e e k e F f.v.e p B.G.R.G.r.R 3 e v.Y @ c B.0.r...$ +.l.Z e k k k f.f.f.j.+.e e t e F v.f.f.f.Z e k k ",
"F Z Z Z Z +.+._ [ _ x Z Z 6 m 8.`.~.G.b.J $ > _ 0.m t _ _ Z Z Z Z ^ +.+.6 9 Y _ r.| J : x &.F b l.~.).W.H.| = F +.F x Z Z Z +.+.+.+._ x Z x x F +.+.+.+.F x Z Z ",
"_ v.v.v.f.k e e e x l.l.v.3 _.OXXXOX~.;.2 [ +.1 $ > k e k l.v.l.n._ e e e $ $ 1 1 ; ; e x x $  .}.]..XXXQ.Z $ 6 6 _ v.f.f.f.k e e e x j.f.f.v._ e k e 6 _ v.f.f.",
"_ f.f.f.f.x k k e x f.f.f.1 Y.E.}.oXW.3 / v.8.f.x k k e k 8.f.f.l.^ e k i e +.l.f.f.f.x k x $ _ H.^.{.[.E.1 6 k e _ f.f.f.f.z e k e x f.f.f.f._ e k k e / f.f.f.",
"_ f.f.f.f.x k k i x 8.8.f.F 1 2 9 p 1 b l.8.8.&.k k k k x <.8.8.l.^ e k k k +.f.8.8.8.x k k e 1 > 1 3 3 2 6 k k e _ f.2.f.f.x e k e x f.f.f.f._ p k k e _ f.f.f.",
"_ v.f.l.v.k e e w k f.f.f.v.Z ; 1 6 4 +.v.f.f.f.k e p e x f.f.f.v.^ 6 k k e *.v.f.l.f.k e e 6 6 _ _ ^ _ C e k e 6 _ v.f.v.v.k e e 6 x v.v.v.M._ e e e 6 _ v.f.f.",
"^ ^ ^ ^ ^ ^ ^ ^ ^ ^ ^ F Y ^ ^ F F ^ _ ^ ^ F F P ^ ^ ^ ^ ^ F F F P Y Y ^ ( ( _ ^ ^ ^ ^ ^ Y F F F ^ _ _ ^ ^ K ^ ^ F F ^ ^ ^ ` ^ F F F Y ^ ^ ^ ^ ^ Y ^ ^ Y ^ ^ ^ ^ ",
"Z 6 e e e <.v.f.v.&.e e e 6 F v.f.f.V.F 8 e w e 8.v.v.V.&.6 6 e 6 F v.v.v.V.Z 6 e e e 8.v.f.l.@.9 e e 3 F v.f.f.v.Z e k e k 8.v.f.v.@.e e e 6 F v.f.f.v.Z 6 e e ",
"Z e k e k &.f.8.f.@.k k k e F f.8.8.l.F i k g k &.f.f.l.+.e p k e ^ v.f.f.f.Z e k p k &.f.8.f.@.k k k e F f.8.f.f.F k k k k &.f.8.f.+.i k k e F l.f.8.f.F e k k ",
"Z e k e e &.f.8.k.&.k i k e F f.f.8.j.F e k g k &.f.f.j.+.e e k e ^ v.f.f.f.x e k i k &.f.f.k.&.k e k e F f.8.f.f.F e k k k &.f.f.f.+.e k k e F v.f.f.l.Z e k k ",
"Z 6 e e e &.l.l.v.&.e e e 6 F v.f.f.v.F e g e e &.l.j.v.@.9 e e 6 ^ v.f.j.l.x e e e k f.v.l.v.&.e e e 6 F v.f.f.v.Z e e e e &.l.j.v.@.e e e 9 F v.f.f.v.Z 6 e e ",
"_ o._ +._ Z m Z Z F +.+.+.+.^ x Z m n _ +.+.+._ Z x Z Z F +._ _  .^ Z Z Z Z ^ [ _  ._ Z Z Z Z F +._ _  .Y m Z Z Z _ +._ _ _ Z m Z Z F +. . .+.^ x Z Z x ^ +.+.+.",
"+.v.f.f.f.k e e e x v.v.j.v.^ 6 e e e O.v.f.f.f.k e e e x v.f.f.v.^ e k k e +.v.f.f.8.k e k e x v.f.f.v.^ w g e e _ j.f.f.f.k e k e x v.f.f.v.^ 6 e e e _ v.f.f.",
"+.f.8.f.&.k e k e x f.f.f.j.^ e k k t _ f.f.f.&.k e k e x f.f.2.f.F e k k k +.f.8.8.&.k t k e x f.8.&.f.^ e k k e _ f.&.u.u.z k k k x f.f.f.f.^ e k k e _ f.&.<.",
"+.v.f.f.f.k e e e x f.f.f.v._ e k k e _ l.f.f.<.k e e e x v.f.f.f.F 6 d k k +.v.f.f.&.e e e e x j.f.f.l.^ e k k e _ f.u.f.f.k e k e x f.f.f.v.^ e f k e _ f.f.f.",
"_ f.&.&.&.z k k k x &.&.&.f.^ k x x k _ f.&.f.&.k e k p Z f.f.&.<.F e k k z +.f.<.&.&.k k k k x 8.f.&.f.^ k k k k _ &.&.&.&.x k x k Z &.&.&.u.^ k z x k _ &.&.&.",
"Z k k k k &.&.&.u.+.d k k e F j.f.f.f.Z e k k c &.&.&.f.+.k k k e F <.&.&.f.Z k k k k +.&.&.<.+.k k k k ^ f.&.&.f.Z d k k k &.f.f.f.+.k k k e F f.f.f.f.F e k k ",
"Z e k k k &.f.<.f.+.e e t e F v.f.f.f.Z e k e k &.f.8.f.&.e k k e F j.u.f.v.Z e k g e &.f.8.f.@.e e k e ^ v.f.f.f.Z e k k k &.f.f.j.+.e e k e F v.f.f.l.Z e k k ",
"Z g k k k &.f.<.f.+.f k k e F x.f.f.f.Z e k k k &.f.8.f.@.k k k e F f.u.<.f.Z i k k k &.f.<.f.@.k k k e ^ j.f.<.f.F f k k k &.f.f.f.+.t k k e F f.8.8.f.F e k k ",
"Z e k e k <.v.f.c.*.e e e 6 F v.l.f.v.Z 0 e e e &.f.f.x.&.e e f q F j.f.f.l.Z e k e e &.f.f.f.&.e e e e ^ v.f.f.j.Z e k f e &.v.f.v.&.e e e 6 F j.f.f.v.Z e k k ",
"F Z F Z F _ +.+.+._ Z Z Z m F +.+.+.+.F Z Z Z Z _ _ _ _ _ Z F F Z ~ _ _ _ _ F Z F Z F _ _ _ _ ` Z Z Z Z ^ +._ _ _ F Z Z Z Z _ +.+.+._ Z Z Z Z F _ _ _ o.F Z Z Z "
};
