/* XPM */
static char *louis_walk_left2[] = {
/* columns rows colors chars-per-pixel */
"80 80 194 2 ",
"   c #39372F",
".  c #363532",
"X  c #383734",
"o  c #3B3935",
"O  c #3D3D3B",
"+  c #413E38",
"@  c #44423D",
"#  c #49453E",
"$  c #6D613B",
"%  c #454441",
"&  c #4A4741",
"*  c #4C4A45",
"=  c #4E4D4A",
"-  c #524E45",
";  c #534E49",
":  c #4F504D",
">  c #55524C",
",  c #5A554D",
"<  c #5C594E",
"1  c #565145",
"2  c #5B5751",
"3  c #5D5A53",
"4  c #5C5C59",
"5  c #555653",
"6  c #635D55",
"7  c #625E59",
"8  c #666156",
"9  c #6B6256",
"0  c #65625B",
"q  c #6B655C",
"w  c #6E695E",
"e  c #726A5E",
"r  c #726758",
"t  c #7C715B",
"y  c #656461",
"u  c #6B6661",
"i  c #6E6961",
"p  c #6C6C6A",
"a  c #746D63",
"s  c #7A6F62",
"d  c #716E6A",
"f  c #767065",
"g  c #7B7365",
"h  c #7F7867",
"j  c #75726A",
"k  c #7C756A",
"l  c #7E786C",
"z  c #747472",
"x  c #7A7773",
"c  c #7E7B73",
"v  c #7B7B7B",
"b  c #81776A",
"n  c #837B6D",
"m  c #897E6F",
"M  c #847D71",
"N  c #897E71",
"B  c #817F7B",
"V  c #B29F45",
"C  c #A59453",
"Z  c #B8A85E",
"A  c #8A806F",
"S  c #868073",
"D  c #8B8274",
"F  c #85837C",
"G  c #8D8579",
"H  c #8E897C",
"J  c #908576",
"K  c #918779",
"L  c #948A7C",
"P  c #988E7F",
"I  c #97907F",
"U  c #7F8281",
"Y  c #858583",
"T  c #8D8A83",
"R  c #8B8B89",
"E  c #8A8780",
"W  c #958E82",
"Q  c #998E81",
"!  c #918F8B",
"~  c #8F9087",
"^  c #8F908D",
"/  c #969184",
"(  c #9B9284",
")  c #94928C",
"_  c #9D9589",
"`  c #9E988C",
"'  c #959594",
"]  c #989794",
"[  c #9C9A94",
"{  c #9D9C9B",
"}  c #A09586",
"|  c #A19689",
" . c #A39B8D",
".. c #A99D8E",
"X. c #A49D91",
"o. c #A99E92",
"O. c #A09D9B",
"+. c #9EA09D",
"@. c #A6A195",
"#. c #ABA394",
"$. c #A5A299",
"%. c #ACA59A",
"&. c #AEA99C",
"*. c #B2A496",
"=. c #B1A699",
"-. c #B2AA9D",
";. c #BAAE9F",
":. c #A5A5A4",
">. c #ABA9A2",
",. c #ABACAA",
"<. c #A6A8A8",
"1. c #B4ADA2",
"2. c #B1AFA9",
"3. c #B8AEA2",
"4. c #AEB0AC",
"5. c #B6B1A4",
"6. c #BAB3A5",
"7. c #B5B2AA",
"8. c #BBB5AA",
"9. c #BEB9AB",
"0. c #AEAFB0",
"q. c #AFB2B2",
"w. c #B5B5B2",
"e. c #BBBAB3",
"r. c #BABCBB",
"t. c #B8B8B4",
"y. c #C3BBAD",
"u. c #C3BEB2",
"i. c #BFC0BE",
"p. c #C5C0B4",
"a. c #CAC4B6",
"s. c #C2C1BD",
"d. c #CAC6BB",
"f. c #CECABE",
"g. c #D1CBBE",
"h. c #BFC0C0",
"j. c #C4C5C3",
"k. c #CDCBC3",
"l. c #CDCDCB",
"z. c #D2CEC5",
"x. c #D0CFCB",
"c. c #CFD1CE",
"v. c #D6D1C5",
"b. c #D9D3C5",
"n. c #D2D1CC",
"m. c #DAD6CA",
"M. c #DDD9CC",
"N. c #D4D4D2",
"B. c #DBD9D5",
"V. c #D6D9DA",
"C. c #DCDDDB",
"Z. c #D8D7D4",
"A. c #E1DACF",
"S. c #E1DDD4",
"D. c #E3DFD9",
"F. c #DFE0DE",
"G. c #E5E0D4",
"H. c #E8E1D7",
"J. c #E3E1DC",
"K. c #E9E4DC",
"L. c #DEE1E1",
"P. c #E3E4E2",
"I. c #E7E8E7",
"U. c #EDEAE5",
"Y. c #E7E7E8",
"T. c #E7E9E9",
"R. c #EBECEB",
"E. c #F0ECE4",
"W. c #F1F0EF",
"Q. c #EEF0F0",
"!. c #F6F6F6",
"~. c #F3F4F4",
"^. c #F7F7F8",
"/. c #FAFAFA",
"(. c #FCFBFB",
"). c #FBFCFB",
"_. c #FCFCFB",
"`. c #FCFCFC",
"'. c #FCFDFC",
"]. c #FDFDFD",
"[. c #FEFFFD",
"{. c #FEFDFE",
"}. c #FDFEFE",
"|. c #FDFFFE",
" X c #FEFEFE",
".X c #FFFEFE",
"XX c #FEFFFE",
"oX c #FFFFFE",
"OX c #FEFEFF",
"+X c #FF00FF",
"@X c #FFFFFF",
"#X c #FFFEFF",
"$X c #FEFFFE",
"%X c #F8F8F7",
/* pixels */
"+X+X+X+X+X+X+X+X+X+X+X+X+X+X+X+X+X+X+X+X+X+X+X+X+X+X+X+X+X+X+X+X+X+X+X+X+X+X+X+X+X+X+X+X+X+X+X+X+X+X+X+X+X+X+X+X+X+X+X+X+X+X+X+X+X+X+X+X+X+X+X+X+X+X+X+X+X+X+X+X",
"+X+X+X+X+X+X+X+X+X+X+X+X+X+X+X+X+X+X+X+X+X+X+X+X+X+X+X+X+X+X+X+X+X+X+X+X+X+X+X+X+X+X+X+X+X+X+X+X+X+X+X+X+X+X+X+X+X+X+X+X+X+X+X+X+X+X+X+X+X+X+X+X+X+X+X+X+X+X+X+X",
"+X+X+X+X+X+X+X+X+X+X+X+X+X+X+X+X+X+X+X+X+X+X+X+X+X+X+X+X+X+X+X+X+X+X+X+X+X+X+X+X+X+X+X+X+X+X+X+X+X+X+X+X+X+X+X+X+X+X+X+X+X+X+X+X+X+X+X+X+X+X+X+X+X+X+X+X+X+X+X+X",
"+X+X+X+X+X+X+X+X+X+X+X+X+X+X+X+X+X+X+X+X+X+X+X+X+X+X+X+X+X+X+X+X+X+X+X+X+X+X+X+X+X+X+X+X+X+X+X+X+X+X+X+X+X+X+X+X+X+X+X+X+X+X+X+X+X+X+X+X+X+X+X+X+X+X+X+X+X+X+X+X",
"+X+X+X+X+X+X+X+X+X+X+X+X+X+X+X+X+X+X+X+X+X+X+X+X+X+X+X+X+X+X+X+X+X+X+X+X+X+X+X+X+X+X+X+X+X+X+X+X+X+X+X+X+X+X+X+X+X+X+X+X+X+X+X+X+X+X+X+X+X+X+X+X+X+X+X+X+X+X+X+X",
"+X+X+X+X+X+X+X+X+X+X+X+X+X+X+X+X+X+X+X+X+X+X+X+X+X+X+X+X+X+X+X+X+X+X+X+X+X+X+X+X+X+X+X+X+X+X+X+X+X+X+X+X+X+X+X+X+X+X+X+X+X+X+X+X+X+X+X+X+X+X+X+X+X+X+X+X+X+X+X+X",
"+X+X+X+X+X+X+X+X+X+X+X+X+X+X+X+X+X+X+X+X+X+X+X+X+X+X+X+X+X+X+X+X+X+X+X+X+X+X+X+X+X+X+X+X+X+X+X+X+X+X+X+X+X+X+X+X+X+X+X+X+X+X+X+X+X+X+X+X+X+X+X+X+X+X+X+X+X+X+X+X",
"+X+X+X+X+X+X+X+X+X+X+X+X+X+X+X+X+X+X+X+X+X+X+X+X+X+X+X+X+X+X+X+X+X+X+X+X+X+X+X+X+X+X+X+X+X+X+X+X+X+X+X+X+X+X+X+X+X+X+X+X+X+X+X+X+X+X+X+X+X+X+X+X+X+X+X+X+X+X+X+X",
"+X+X+X+X+X+X+X+X+X+X+X+X+X+X+X+X+X+X+X+X+X+X+X+X+X+X+X+X+X+X+X+X+X+X+X+X+X+X+X+X+X+X+X+X+X+X+X+X+X+X+X+X+X+X+X+X+X+X+X+X+X+X+X+X+X+X+X+X+X+X+X+X+X+X+X+X+X+X+X+X",
"+X+X+X+X+X+X+X+X+X+X+X+X+X+X+X+X+X+X+X+X+X+X+X+X+X+X+X+X+X+X+X+X+X+X+X+X+X+X+X+X+X+X+X+X+X+X+X+X+X+X+X+X+X+X+X+X+X+X+X+X+X+X+X+X+X+X+X+X+X+X+X+X+X+X+X+X+X+X+X+X",
"+X+X+X+X+X+X+X+X+X+X+X+X+X+X+X+X+X+X+X+X+X+X+X+X+X+X+X+X+X+X+X+X+X+X+X+X+X+X+X+X+X+X+X+X+X+X+X+X+X+X+X+X+X+X+X+X+X+X+X+X+X+X+X+X+X+X+X+X+X+X+X+X+X+X+X+X+X+X+X+X",
"+X+X+X+X+X+X+X+XC.C.+XR.l.C.+X+X+X+X+X+X+X+X+X+X+X+X+X+X+X+X+X+X+X+X+X+X+X+X+X+X+X+X+X+X+X+X+X+X+X+X+X+X+X+X+X+X+X+X+X+X+X+X+X+X+X+X+X+X+X+X+X+X+X+X+X+X+X+X+X+X",
"+X+X+X+X+X+X+X+X' 4 ~.l.6 x C.+X+X+X+X+X+X+X+X+X+X+X+X+X+X+X+X+X+X+X+X+X+X+X+X+X+X+X+X+X+X+X+X+X+X+X+X+X+X+X+X+X+X+X+X+X+X+X+X+X+X+X+X+X+X+X+X+X+X+X+X+X+X+X+X+X",
"+X+X+X+X+X+X+X+X:.o ] n.Q Q G T.+X+X+X+X+X+X+X+X+X+X+X+X+X+X+X+X+X+X+X+X+X+X+X+X+X+X+X+X+X+X+X+X+X+X+X+X+X+X+X+X+X+X+X+X+X+X+X+X+X+X+X+X+X+X+X+X+X+X+X+X+X+X+X+X",
"+X+X+X+X+X+X+X+X:., u a 1.=.D T Q.+X+X+X+X+X+X+X+X+X+X+X+X+X+X+X+X+X+X+X+X+X+X+X+X+X+X+X+X+X+X+X+X+X+X+X+X+X+X+X+X+X+X+X+X+X+X+X+X+X+X+X+X+X+X+X+X+X+X+X+X+X+X+X",
"+X+X+X+X+X+X+X+X:.2 a i 3.-.( n F R.+X+X+X+X+X+X+X+X+X+X+X+X+X+X+X+X+X+X+X+X+X+X+X+X+X+X+X+X+X+X+X+X+X+X+X+X+X+X+X+X+X+X+X+X+X+X+X+X+X+X+X+X+X+X+X+X+X+X+X+X+X+X",
"+X+X+X+X+X+X+X+X' % , i #.*.*.| a z Q.+X+X+X+X+X+X+X+X+X+X+X+X+X+X+X+X+X+X+X+X+X+X+X+X+X+X+X+X+X+X+X+X+X+X+X+X+X+X+X+X+X+X+X+X+X+X+X+X+X+X+X+X+X+X+X+X+X+X+X+X+X",
"+X+X+X+X+X+XP.z 2 0 a n o...=.%.K ; z ~.+X+X+X+X+X+X+X+X+X+X+X+X+X+X+X+X+X+X+X+X+X+X+X+X+X+X+X+X+X+X+X+X+X+X+X+X+X+X+X+X+X+X+X+X+X+X+X+X+X+X+X+X+X+X+X+X+X+X+X+X",
"+X+X+X+X+XP.d 2 j l Q  .;.*.} #.G l 2 B +X+X+X+X+X+X+X+X+X+X+X+X+X+X+X+X+X+X+X+X+X+X+X+X+X+X+X+X+X+X+X+X+X+X+X+X+X+X+X+X+X+X+X+X+X+X+X+X+X+X+X+X+X+X+X+X+X+X+X+X",
"+X+X+X+XZ.u 2 M D M Q ( ..*.| o.L l G 6 v P.+X+X+X+X+X+X+X+X+X+X+X+X+X+X+X+X+X+X+X+X+X+X+X+X+X+X+X+X+X+X+X+X+X+X+X+X+X+X+X+X+X+X+X+X+X+X+X+X+X+X+X+X+X+X+X+X+X+X",
"+X+X+X~.4 f a g D L L L Q L D o.G a N M + r.+X+X+X+X+X+X+X+X+X+X+X+X+X+X+X+X+X+X+X+X+X+X+X+X+X+X+X+X+X+X+X+X+X+X+X+X+X+X+X+X+X+X+X+X+X+X+X+X+X+X+X+X+X+X+X+X+X+X",
"+X+X+XW.y G M #...#.L L L L K D g l G G w * h.+X+X+X+X+X+X+X+X+X+X+X+X+X+X+X+X+X+X+X+X+X+X+X+X+X+X+X+X+X+X+X+X+X+X+X+X+X+X+X+X+X+X+X+X+X+X+X+X+X+X+X+X+X+X+X+X+X",
"+X+X+XR.y 8.5.8 r n Q Q Q P Q D D G G a q X q.+X+X+X+X+X+X+X+X+X+X+X+X+X+X+X+X+X+X+X+X+X+X+X+X+X+X+X+X+X+X+X+X+X+X+X+X+X+X+X+X+X+X+X+X+X+X+X+X+X+X+X+X+X+X+X+X+X",
"+X+X+X+Xd 6._ $ V t g n K L L L G D D M q O h.+X+X+X+X+X+X+X+X+X+X+X+X+X+X+X+X+X+X+X+X+X+X+X+X+X+X+X+X+X+X+X+X+X+X+X+X+X+X+X+X+X+X+X+X+X+X+X+X+X+X+X+X+X+X+X+X+X",
"+X+X~.%.D Q 1 C Z ( ( D a l H G D G G l w * R V.+X+X+X+X+X+X+X+X+X+X+X+X+X+X+X+X+X+X+X+X+X+X+X+X+X+X+X+X+X+X+X+X+X+X+X+X+X+X+X+X+X+X+X+X+X+X+X+X+X+X+X+X+X+X+X+X",
"+XR.G N m D ( *.( n n | N q f D D G G M f 0 % 5 { ' ' ~.+X+X+X+X+X+X+X+X+X+X+X+X+X+X+X+X+X+X+X+X+X+X+X+X+X+X+X+X+X+X+X+X+X+X+X+X+X+X+X+X+X+X+X+X+X+X+X+X+X+X+X+X",
"+XY.r s _ 6.&./ / H L _ | n q a e n L ( M f j , . o . Y ' R R R Y Y T T T R R v r.+X+X+X+X+X+X+X+X+X+X+X+X+X+X+X+X+X+X+X+X+X+X+X+X+X+X+X+X+X+X+X+X+X+X+X+X+X+X+X",
"+XW.9 ( K.B.m.f.6.3.D w g M M l w n ( D n L F q 0 2 = O o X . . o @ @ @ @ @ @ o 5 j y <.L.+X+X+X+X+X+X+X+X+X+X+X+X+X+X+X+X+X+X+X+X+X+X+X+X+X+X+X+X+X+X+X+X+X+X+X",
"+X+X .p.+XK.M.b.b.a.#.( L w 9 g n H n N L L L M q 2 * , , , , , 2 i a q i 0 2 2 ; # & . y Z.C.+X+X+X+X+X+X+X+X+X+X+X+X+X+X+X+X+X+X+X+X+X+X+X+X+X+X+X+X+X+X+X+X+X",
"+X+XP.7.7.1.#.y.g.z.6... .L S Q  .M D  .L J L M a q 0 7 0 0 0 q q a l i q w i u q u 2 2 = o = C.+X+X+X+X+X+X+X+X+X+X+X+X+X+X+X+X+X+X+X+X+X+X+X+X+X+X+X+X+X+X+X+X",
"+X+X+XP.G  .-.y.y.y.a.y. .(  .( D D  .#.L D M D M i x i q j l i w i a a a i i u u u 7 7 6 2 @ 4 Z.+X+X+X+X+X+X+X+X+X+X+X+X+X+X+X+X+X+X+X+X+X+X+X+X+X+X+X+X+X+X+X",
"+X+X+X+XC.Q G M @.6.6.9.Q D D D D  .#.#.( n g N N e n n g M M i a M D D S a l l a i a l l q q 2 = <.~.+X+X+X+X+X+X+X+X+X+X+X+X+X+X+X+X+X+X+X+X+X+X+X+X+X+X+X+X+X",
"+X+X+X+X+XP.B.P.u._ 6.1. ._ Q K ( o.#.( D n K D D g n J l n G n g D n b n q l D b g l l D a a a 0 @ x R.+X+X+X+X+X+X+X+X+X+X+X+X+X+X+X+X+X+X+X+X+X+X+X+X+X+X+X+X",
"+X+X+X+X+X+X+X+Xl._ a.d.f.z.1. .#. .L m m L J s f N m N g b J D n n D g e e n D b a a g D a u u 6 6 @ 4 Z.+X+X+X+X+X+X+X+X+X+X+X+X+X+X+X+X+X+X+X+X+X+X+X+X+X+X+X",
"+X+X+X+X+X+X+X+Xl.$.D.B.S.m.8.-. .L l g L J g g g N N g w n J b n D D n q g J N g a g b g a q q 6 2 , + * l.+X+X+X+X+X+X+X+X+X+X+X+X+X+X+X+X+X+X+X+X+X+X+X+X+X+X",
"+X+X+X+X+X+X+X+XZ.7.E.K.K.S.6. .( n D L M e a D D D b N g M D g n D D N n m D n g N L n a a M a 0 q 7 * o l.+X+X+X+X+X+X+X+X+X+X+X+X+X+X+X+X+X+X+X+X+X+X+X+X+X+X",
"+X+X+X+X+X+X+X+XZ.8.Y.J.K.B.-.L D D G M a l D G N a a K n N N g D D D D n D D J b m J J n s D a q q u 6 , { R.+X+X+X+X+X+X+X+X+X+X+X+X+X+X+X+X+X+X+X+X+X+X+X+X+X",
"+X+X+X+X+X+X+X+XB.t.Y.J.H.S.d.6.| ( L n n G D M n q g L L P D n n K L L n n J D g b D D m g b 9 6 a l a q @ { +X+X+X+X+X+X+X+X+X+X+X+X+X+X+X+X+X+X+X+X+X+X+X+X+X",
"+X+X+X+X+X+X+X+XB.t.E.K.G.A.g.o.L Q Q L L D l w e a f L L ( _ L D L L L J b L N n N m D A a e 9 a M D a q 0 * s.+X+X+X+X+X+X+X+X+X+X+X+X+X+X+X+X+X+X+X+X+X+X+X+X",
"+X+X+X+X+X+X+X+XB.9.K.H.M.a.o.L L ( ( D g e f D l w 6 n L (  . .L D L Q L b J J A n D m g e 9 g D D D n l w & <.+X+X+X+X+X+X+X+X+X+X+X+X+X+X+X+X+X+X+X+X+X+X+X+X",
"+X+X+X+X+X+X+X+XZ.1.A.v.m.d. .( | } L a g D G L l q 2 M L  .o. .n D Q Q D l L L n n J m g g n D J J n a a a , = Y.+X+X+X+X+X+X+X+X+X+X+X+X+X+X+X+X+X+X+X+X+X+X+X",
"+X+X+X+X+X+X+X+XC.t.m.v.g.f.9. .Q G M D L I D l f i 6 q D | #.#.( D ( Q H n #.L g n D A D D D D D b g f q w , * ~.+X+X+X+X+X+X+X+X+X+X+X+X+X+X+X+X+X+X+X+X+X+X+X",
"+X+X+X+X+X+X+X+X+XC.&.G.g.g.p.#.| H G L D D D n f i w 6 n (  . .| M  . .( ( #.P D D A n n D n g a g n D a q , % t.+X+X+X+X+X+X+X+X+X+X+X+X+X+X+X+X+X+X+X+X+X+X+X",
"+X+X+X+X+X+X+X+X+XC.) d.M.b.u.-.#.-.I L D D L D f w q 6 l L |  .( D  . .Q #. .( D g h D g D l e e n D l i q , O O ~.+X+X+X+X+X+X+X+X+X+X+X+X+X+X+X+X+X+X+X+X+X+X",
"+X+X+X+X+X+X+X+X+X+Xt./ 9.a.p.9.#.Q D M G D l a l j a q 2 M ( o.L  .#.L ( #.#.( g g L L L n g g D D g q i q , @ O R +X+X+X+X+X+X+X+X+X+X+X+X+X+X+X+X+X+X+X+X+X+X",
"+X+X+X+X+X+X+X+X+X+X+Xt.) 9.m.9. . .D n g e f G L L n q 6 M ( #. .#. .L #.#. .L n K ( L A g n L L n q q q 2 & % = u +X+X+X+X+X+X+X+X+X+X+X+X+X+X+X+X+X+X+X+X+X+X",
"+X+X+X+X+X+X+X+X+X+X+X+Xs.] p.8.#.-.#. .( ( ( D n M M q 6 D ( @.-.#./ #.-.( Q n / ( J g g K L n l e q i 0 , # * y 7 ^ +X+X+X+X+X+X+X+X+X+X+X+X+X+X+X+X+X+X+X+X+X",
"+X+X+X+X+X+X+X+X+X+X+X+X+XZ.) / #.1. .o. .G l a 0 q q q q _  .#.-.#.( #.#.L / L ( L n n L n l e a a q q q , - 2 q 0 u ~.+X+X+X+X+X+X+X+X+X+X+X+X+X+X+X+X+X+X+X+X",
"+X+X+X+X+X+X+X+X+X+X+X+X+X+X2 0 Q #.#.G n g q g M w l l 6  .#.6.1.#.%.L (  .&.o.D D D P K a n S D M w q u ; @ 0 x G a F +X+X+X+X+X+X+X+X+X+X+X+X+X+X+X:.y B C.+X",
"+X+X+X+X+X+X+X+X+X+X+X+X+X~.4 0 j M n M G L L L G n l w f -.6.9.8.6._ _ -.8.6.( K J J b a n D D a q 6 0 6 0 : 7 G Q a 2 Y ^.+X+X+X+X+X+X+X+X+X+X+X+X+Xz o O p +X",
"+X+X+X+X+X+X+X+X+X+X+X+X+X+X+X{ * G L Q Q L M Q L M w a 1.9.u.u.y.9.1.6.8.5.1. .( L b q l G D a q q q 0   Y V.2 M ( D n 6 d R.+X+X+X+X+X+X+X+X+X+X~.z % = O 0 +X",
"+X+X+X+X+X+X+X+X+X+X+X+X+X+X+X>.2 o.( n a e g M S w w L ( _ _ _ o.%.o.o.-.5.1. .G a l K L M a q q a a - z P.+Xj.i K | ( D 6 j x { +X+X+X+X+X+X+Xj.p + = % 4 n.+X",
"+X+X+X+X+X+X+X+X+X+X+X+X+X+X+X<., S D D l f e e 2 < 2 / ) T Q ) x q a w M &.1.| D L ( Q D a q g q , 8 * y R.+X+Xj.a n } K e , # = ' ! ! ' ] ] { 4 2 2 * O 4 +X+X",
"+X+X+X+X+X+X+X+X+X+X+X+X+X~.{ G n K D K Q L a 0 - < * I.+X+X+X+Xt., T M 6 / -.o.o.#. .n a a l n f e a 0 @ p l.+X+Xl.j g K J b a w , 6 6 , , , a q l i @ 5 l.+X+X",
"+X+X+X+X+X+X+X+X+X+X+X+X+X~.0 n  .( n a l n q * 6 , # J.+X+X+X+XR.] q l w 6 _ -.#.#.| n Q ( D g D b w a a * 0 Z.+X+XD.l 9 b N L ( G _ N l N D  .i 0 2 , Z.+X+X+X",
"+X+X+X+X+X+X+X+X+X+X+X+X+X~.x L  .} ( L g q - 6 6 , @ T.+X+X+X+X+X+X' , l q 9 ( -.#. . .( ( D D Q D n M M l & B +X+X+Xx.x d 6 b D ( ( Q l D Q L 7 p z j.+X+X+X+X",
"+X+X+X+X+X+X+X+X+X+X+X+X+X~.j Q L L ( ( l < < a a w * t.+X+X+X+X+X+XR.7.j & 0 q D #.-.%.#. .G L ( Q ( M a G * Y +X+X+X+X+XJ.Q ] x 6 q q 6 2 7 7 * l.+X+X+X+X+X+X",
"+X+X+X+X+X+X+X+X+X+X+X+X~.F G _ D n g M 2 2 l a l w 2 % P.+X+X+X+X+X+X+Xl.:.u 6 6 j M l M n q 6 S L l 8 l F % Y +X+X+X+X+X+X+X+XR.j.l.k.l.B.R.R.W.+X+X+X+X+X+X+X",
"+X+X+X+X+X+X+X+X+X+X+X+X+Xy /  .( S M 0 F 0 f l a 8 2 * L.+X+X+X+X+X+X~.+X+Xu q 8 - , 6 - o ) { q l n L S , v +X+X+X+X+X+X+X+X+X+X+X+X+X+X+X+X+X+X+X+X+X+X+X+X+X",
"+X+X+X+X+X+X+X+X+X+X+X+Xj.x Q _ ( H 0 U +X4.j n l j 0 * L.+X+X+X+X+X+X+XR.t.l l j q 0 6 x :.~.+Xa n M M j & Y +X+X+X+X+X+X+X+X+X+X+X+X+X+X+X+X+X+X+X+X+X+X+X+X+X",
"+X+X+X+X+X+X+X+X+X+X+X+Xj ( G M L S * 0.+X+XT a M j a = P.+X+X+X+X~.s.l.) q _ H M l 8 # t.+X+X@.(  .| L 6 U ~.+X+X+X+X+X+X+X+X+X+X+X+X+X+X+X+X+X+X+X+X+X+X+X+X+X",
"+X+X+X+X+X+X+X+X+X+XB.Z.>.%.L G H 0 @ P.+XC.T j M M x 2 P.+X+X+X+Xt.l l D #.o.Q D e - ! R.R.1.M  .o.o./ 8 R +X+X+X+X+X+X+X+X+X+X+X+X+X+X+X+X+X+X+X+X+X+X+X+X+X+X",
"+X+X+X+X+X+X+X+X+Xn.>.8.B.f.%.#.F 4 :.+XZ.E _ o._ Q G * P.+X+X+Xi.M $.%.-.o._  .L a $.+Xj.8.k.k.n.o.Q T , j +X+X+X+X+X+X+X+X+X+X+X+X+X+X+X+X+X+X+X+X+X+X+X+X+X+X",
"+X+X+X+X+X+X+X+XW.] n.k.Y.J.v.] 0 j.+X+X] ] _ 8.8.$.T <.~.+X+X~.M o.G  .-.#. .l a r.+X+Xt.8.s.B.J.S.d.x X ' +X+X+X+X+X+X+X+X+X+X+X+X+X+X+X+X+X+X+X+X+X+X+X+X+X+X",
"+X+X+X+X+X+X+X+X~.] &.@.n.f.d.) r.+X+X+X) M x o.%.o.) +X+X+X+X+X2.a a a f a j r.V.+X+X+Xe.1.%.z.S.S.u.j v +X+X+X+X+X+X+X+X+X+X+X+X+X+X+X+X+X+X+X+X+X+X+X+X+X+X+X",
"+X+X+X+X+X+X+X+X+Xt.E ) ) ! F c.+X+X+X+Xl.M M B F x Y ~.+X+X+X+XR.n.Z.Z.n.n.Z.+X+X+X+X+XR.2.M Q T G a Y +X+X+X+X+X+X+X+X+X+X+X+X+X+X+X+X+X+X+X+X+X+X+X+X+X+X+X+X",
"+X+X+X+X+X+X+X+X+X+X+X+X+X+X+X+X+X+X+X+X+X+X+X+X+X+X+X+X+X+X+X+X+X+X+X+X+X+X+X+X+X+X+X+X+X~.Y.R.R.R.R.~.+X+X+X+X+X+X+X+X+X+X+X+X+X+X+X+X+X+X+X+X+X+X+X+X+X+X+X+X",
"+X+X+X+X+X+X+X+X+X+X+X+X+X+X+X+X+X+X+X+X+X+X+X+X+X+X+X+X+X+X+X+X+X+X+X+X+X+X+X+X+X+X+X+X+X+X+X+X+X+X+X+X+X+X+X+X+X+X+X+X+X+X+X+X+X+X+X+X+X+X+X+X+X+X+X+X+X+X+X+X",
"+X+X+X+X+X+X+X+X+X+X+X+X+X+X+X+X+X+X+X+X+X+X+X+X+X+X+X+X+X+X+X+X+X+X+X+X+X+X+X+X+X+X+X+X+X+X+X+X+X+X+X+X+X+X+X+X+X+X+X+X+X+X+X+X+X+X+X+X+X+X+X+X+X+X+X+X+X+X+X+X",
"+X+X+X+X+X+X+X+X+X+X+X+X+X+X+X+X+X+X+X+X+X+X+X+X+X+X+X+X+X+X+X+X+X+X+X+X+X+X+X+X+X+X+X+X+X+X+X+X+X+X+X+X+X+X+X+X+X+X+X+X+X+X+X+X+X+X+X+X+X+X+X+X+X+X+X+X+X+X+X+X",
"+X+X+X+X+X+X+X+X+X+X+X+X+X+X+X+X+X+X+X+X+X+X+X+X+X+X+X+X+X+X+X+X+X+X+X+X+X+X+X+X+X+X+X+X+X+X+X+X+X+X+X+X+X+X+X+X+X+X+X+X+X+X+X+X+X+X+X+X+X+X+X+X+X+X+X+X+X+X+X+X",
"+X+X+X+X+X+X+X+X+X+X+X+X+X+X+X+X+X+X+X+X+X+X+X+X+X+X+X+X+X+X+X+X+X+X+X+X+X+X+X+X+X+X+X+X+X+X+X+X+X+X+X+X+X+X+X+X+X+X+X+X+X+X+X+X+X+X+X+X+X+X+X+X+X+X+X+X+X+X+X+X",
"+X+X+X+X+X+X+X+X+X+X+X+X+X+X+X+X+X+X+X+X+X+X+X+X+X+X+X+X+X+X+X+X+X+X+X+X+X+X+X+X+X+X+X+X+X+X+X+X+X+X+X+X+X+X+X+X+X+X+X+X+X+X+X+X+X+X+X+X+X+X+X+X+X+X+X+X+X+X+X+X",
"+X+X+X+X+X+X+X+X+X+X+X+X+X+X+X+X+X+X+X+X+X+X+X+X+X+X+X+X+X+X+X+X+X+X+X+X+X+X+X+X+X+X+X+X+X+X+X+X+X+X+X+X+X+X+X+X+X+X+X+X+X+X+X+X+X+X+X+X+X+X+X+X+X+X+X+X+X+X+X+X",
"+X+X+X+X+X+X+X+X+X+X+X+X+X+X+X+X+X+X+X+X+X+X+X+X+X+X+X+X+X+X+X+X+X+X+X+X+X+X+X+X+X+X+X+X+X+X+X+X+X+X+X+X+X+X+X+X+X+X+X+X+X+X+X+X+X+X+X+X+X+X+X+X+X+X+X+X+X+X+X+X",
"+X+X+X+X+X+X+X+X+X+X+X+X+X+X+X+X+X+X+X+X+X+X+X+X+X+X+X+X+X+X+X+X+X+X+X+X+X+X+X+X+X+X+X+X+X+X+X+X+X+X+X+X+X+X+X+X+X+X+X+X+X+X+X+X+X+X+X+X+X+X+X+X+X+X+X+X+X+X+X+X",
"+X+X+X+X+X+X+X+X+X+X+X+X+X+X+X+X+X+X+X+X+X+X+X+X+X+X+X+X+X+X+X+X+X+X+X+X+X+X+X+X+X+X+X+X+X+X+X+X+X+X+X+X+X+X+X+X+X+X+X+X+X+X+X+X+X+X+X+X+X+X+X+X+X+X+X+X+X+X+X+X",
"+X+X+X+X+X+X+X+X+X+X+X+X+X+X+X+X+X+X+X+X+X+X+X+X+X+X+X+X+X+X+X+X+X+X+X+X+X+X+X+X+X+X+X+X+X+X+X+X+X+X+X+X+X+X+X+X+X+X+X+X+X+X+X+X+X+X+X+X+X+X+X+X+X+X+X+X+X+X+X+X",
"+X+X+X+X+X+X+X+X+X+X+X+X+X+X+X+X+X+X+X+X+X+X+X+X+X+X+X+X+X+X+X+X+X+X+X+X+X+X+X+X+X+X+X+X+X+X+X+X+X+X+X+X+X+X+X+X+X+X+X+X+X+X+X+X+X+X+X+X+X+X+X+X+X+X+X+X+X+X+X+X",
"+X+X+X+X+X+X+X+X+X+X+X+X+X+X+X+X+X+X+X+X+X+X+X+X+X+X+X+X+X+X+X+X+X+X+X+X+X+X+X+X+X+X+X+X+X+X+X+X+X+X+X+X+X+X+X+X+X+X+X+X+X+X+X+X+X+X+X+X+X+X+X+X+X+X+X+X+X+X+X+X"
};
