/* XPM */
static char *louis_back1[] = {
/* columns rows colors chars-per-pixel */
"15 32 114 2 ",
"   c #3D3D3C",
".  c #423F3A",
"X  c #44413B",
"o  c #4C4740",
"O  c #4C4A45",
"+  c #534F4A",
"@  c #56524D",
"#  c #5B554D",
"$  c #555451",
"%  c #5A5650",
"&  c #5E5953",
"*  c #5F5D5A",
"=  c #635D55",
"-  c #635F59",
";  c #65615C",
":  c #6B645B",
">  c #72685F",
",  c #676360",
"<  c #6A6561",
"1  c #6E6964",
"2  c #726B64",
"3  c #736E68",
"4  c #797066",
"5  c #76716D",
"6  c #7B736A",
"7  c #767572",
"8  c #7C7770",
"9  c #7E7973",
"0  c #7E7D7B",
"q  c #81776C",
"w  c #82796E",
"e  c #847C73",
"r  c #887E73",
"t  c #8D8376",
"y  c #81817F",
"u  c #8C847B",
"i  c #928679",
"p  c #93897C",
"a  c #998C7C",
"s  c #858481",
"d  c #8D8A87",
"f  c #8F8D89",
"g  c #938E86",
"h  c #91918F",
"j  c #959491",
"k  c #989693",
"l  c #9B9997",
"z  c #9D9C99",
"x  c #9A9A9A",
"c  c #A09E9C",
"v  c #A5A5A3",
"b  c #A4A5A4",
"n  c #A7A6A4",
"m  c #AAA7A5",
"M  c #ADA9A4",
"N  c #AFAFAE",
"B  c #B1B0AE",
"V  c #B4B2AE",
"C  c #B2B1B0",
"Z  c #B2B2B2",
"A  c #B8B7B5",
"S  c #BCBCBD",
"D  c #BFBFBF",
"F  c #C5C4C2",
"G  c #C6C5C3",
"H  c #C7C6C5",
"J  c #C7C7C7",
"K  c #CAC8C4",
"L  c #CACAC9",
"P  c #CDCDCD",
"I  c #D2D2D1",
"U  c #D3D3D3",
"Y  c #D4D5D5",
"T  c #D7D7D7",
"R  c #DAD9D7",
"E  c #DBDCDC",
"W  c #DFDFDF",
"Q  c #E1E0DF",
"!  c #E1E1E0",
"~  c #E1E1E1",
"^  c #E4E4E4",
"/  c #E5E6E6",
"(  c #E8E8E8",
")  c #EDEDEC",
"_  c #EEEDED",
"`  c #EEEEEE",
"'  c #EEEEEF",
"]  c #F1F2F2",
"[  c #F2F3F3",
"{  c #F3F3F4",
"}  c #F4F4F4",
"|  c #F6F6F6",
" . c #F6F7F7",
".. c #F7F7F7",
"X. c #F5F6F6",
"o. c #F8F9F9",
"O. c #F9F9F9",
"+. c #FAFAF9",
"@. c #FBFBF9",
"#. c #FAFAFA",
"$. c #FBFBFB",
"%. c #FCFCFA",
"&. c #FCFCFB",
"*. c #FDFDFB",
"=. c #FCFCFC",
"-. c #FDFDFC",
";. c #FDFDFD",
":. c #FEFEFC",
">. c #FEFEFD",
",. c #FDFDFE",
"<. c #FEFEFE",
"1. c #FFFFFE",
"2. c #FFFFFF",
"3. c #FEFEFE",
/* pixels */
"<.<.<.<.<.<.<.<.<.<.<.<.<.<.<.",
"<.<.<.! <.<.<.<.<.` ` <.<.<.<.",
"<.<.R 6 V <.<.<.` u g <.<.<.<.",
"<.<.K i a k c z e a u  .<.<.<.",
"<.<.Q u t = # # 1 e M <.<.<.<.",
"<.<.<.e 6 2 2 2 6 2 A <.<.<.<.",
"<.<.F w u 2 2 2 w i 8  .<.<.<.",
"<.<.F r a 6 6 6 w a 9  .<.<.<.",
"<.<. .9 t t q 4 w 6 V <.<.<.<.",
"<.<.<.M 4 w 6 2 6 : I <.<.<.<.",
"<.<.<.s - < ; = < ; k <.<.<.<.",
"<.<.L % - & # # < ; @ ! <.<.<.",
"<.<.F : q ; ; = 2 w & W <.<.<.",
"<.<.l 2 6 2 = = < 2 = V <.<.<.",
"<.<.s > e 2 ; = 2 w : n <.<.<.",
"<.<.u w 3 2 < & < 6 2 f <.<.<.",
"<.<.d 2 e w ; & 1 6 : d <.<.<.",
"<. .7 6 u 5 - & < 2 q 5 ` <.<.",
"<.Z % e w < ; - ; 6 i > n <.<.",
"<.s - e w ; , - , 6 t 6 3 <.<.",
"<.0 < 1 6 1 ; & ; 2 e 2 3  .<.",
"<.s * 1 2 1 - % - 6 2 - 1 <.<.",
"<.N O e 6 ; # # = < 6 # h <.<.",
"<. .; 2 2 - # # # - 1 $ W <.<.",
"<.<.n . & @ + @ # ; X s <.<.<.",
"<.<. .7 . X ; 1 O o & ! <.<.<.",
"<.<.<. .I D 1 4 0 I ` <.<.<.<.",
"<.<.<.<.<.<.s > 1 <.<.<.<.<.<.",
"<.<.<.<.<.<.I 1 2 s !  . .<.<.",
"<.<.<.<.<.<.<.D 1 : & $   z <.",
"<.<.<.<.<.<.<.<.L j 1 * $ F <.",
"<.<.<.<.<.<.<.<.<.<. . .<.<.<."
};
