/* XPM */
static char *louis_left_side_paw[] = {
/* columns rows colors chars-per-pixel */
"80 59 187 2 ",
"   c #302E2B",
".  c #33312E",
"X  c #333331",
"o  c #383534",
"O  c #3C3A34",
"+  c #3D3C3B",
"@  c #2A2A27",
"#  c #423E36",
"$  c #413E3B",
"%  c #45423C",
"&  c #49443C",
"*  c #6B5B32",
"=  c #66483A",
"-  c #444343",
";  c #494743",
":  c #4D4A44",
">  c #4D4B49",
",  c #534D47",
"<  c #524F4A",
"1  c #55524C",
"2  c #59544D",
"3  c #5F5849",
"4  c #545352",
"5  c #5A5652",
"6  c #5E5A53",
"7  c #5C5B5A",
"8  c #625D55",
"9  c #625E59",
"0  c #656156",
"q  c #66615B",
"w  c #6B655C",
"e  c #6E685F",
"r  c #70695F",
"t  c #625F60",
"y  c #656462",
"u  c #6A6661",
"i  c #6D6963",
"p  c #6D6C6C",
"a  c #736C63",
"s  c #7A6F62",
"d  c #736E68",
"f  c #777065",
"g  c #7A7166",
"h  c #75716B",
"j  c #7C746A",
"k  c #7F796D",
"l  c #757572",
"z  c #787774",
"x  c #7E7973",
"c  c #777978",
"v  c #7D7D7B",
"b  c #81744D",
"n  c #807266",
"m  c #81776B",
"M  c #837A6D",
"N  c #897C6E",
"B  c #857D72",
"V  c #897F71",
"C  c #817F7B",
"Z  c #B99E3E",
"A  c #8F826F",
"S  c #9F9063",
"D  c #868074",
"F  c #8C8275",
"G  c #85817B",
"H  c #8D857A",
"J  c #8F887C",
"K  c #908475",
"L  c #91867A",
"P  c #938A7D",
"I  c #988F7E",
"U  c #928975",
"Y  c #838281",
"T  c #8C8A85",
"R  c #878788",
"E  c #8D8D8D",
"W  c #958D82",
"Q  c #998E82",
"!  c #918E8A",
"~  c #9B9285",
"^  c #93918E",
"/  c #9C958A",
"(  c #9D988B",
")  c #959593",
"_  c #999692",
"`  c #999895",
"'  c #9C9B9A",
"]  c #A09286",
"[  c #A2968A",
"{  c #A39A8D",
"}  c #A89D8E",
"|  c #A49D91",
" . c #A89F92",
".. c #A09E99",
"X. c #A8A08F",
"o. c #A6A093",
"O. c #AAA295",
"+. c #A4A19D",
"@. c #ACA599",
"#. c #AEA99D",
"$. c #B0A494",
"%. c #B1A79A",
"&. c #B2AA9D",
"*. c #BAAB9E",
"=. c #A5A4A3",
"-. c #A9A7A0",
";. c #ADAAA5",
":. c #ADAEAD",
">. c #B4ADA3",
",. c #B8ADA2",
"<. c #B0ADA8",
"1. c #AFB0AF",
"2. c #B7B1A4",
"3. c #B9B1A3",
"4. c #B0B0AF",
"5. c #BBB5AA",
"6. c #BFB9AC",
"7. c #B4B5B5",
"8. c #BCB7B1",
"9. c #BFBBB3",
"0. c #B6B7B8",
"q. c #BCBCBB",
"w. c #C3B8A6",
"e. c #C1B9AC",
"r. c #C4B7AB",
"t. c #C3BDB2",
"y. c #C8BFB2",
"u. c #C1BFBB",
"i. c #CCC1AF",
"p. c #CAC3B4",
"a. c #CEC9BD",
"s. c #C7C3BA",
"d. c #D0C7B5",
"f. c #D3CBBD",
"g. c #BFC0C0",
"h. c #C4C4C4",
"j. c #CCCAC6",
"k. c #C7C8C8",
"l. c #CCCCCC",
"z. c #D4CEC2",
"x. c #DCD5C5",
"c. c #D0D0CF",
"v. c #DBD6CA",
"b. c #DCD8CA",
"n. c #D4D4D3",
"m. c #D8D3D0",
"M. c #D7D8D7",
"N. c #DCD9D4",
"B. c #DCDDDC",
"V. c #E2DACA",
"C. c #E4DED3",
"Z. c #E1DDDA",
"A. c #E7E1D6",
"S. c #EBE2D5",
"D. c #EAE4D9",
"F. c #EEEADE",
"G. c #DFDFE0",
"H. c #DFE0E0",
"J. c #E5E5E5",
"K. c #E8E7E6",
"L. c #E9E8E7",
"P. c #EBEBEB",
"I. c #F3EFE8",
"U. c #EFF0EF",
"Y. c #F1F1EE",
"T. c #EFEFF1",
"R. c #EFF0F1",
"E. c #F1F2F1",
"W. c #F4F5F4",
"Q. c #F8F8F7",
"!. c #F7F7F8",
"~. c #F7F8F8",
"^. c #FBFBFB",
"/. c #FBFBFA",
"(. c #FCFCFB",
"). c #FCFCFC",
"_. c #FDFDFD",
"`. c #FDFDFC",
"'. c #FEFDFD",
"]. c #FEFEFC",
"[. c #FEFEFD",
"{. c #FDFEFE",
"}. c #FEFEFE",
"|. c #FF00FF",
" X c #FFFFFE",
".X c #FDFEFD",
"XX c #FFFFFE",
/* pixels */
"|.|.|.|.|.|.|.|.|.|.|.|.|.|.|.|.|.|.|.|.|.|.|.|.|.|.|.|.|.|.|.|.|.|.|.|.|.|.|.|.|.|.|.|.|.|.|.|.|.|.|.|.|.|.|.|.|.|.|.|.|.|.|.|.|.|.|.|.|.|.|.|.|.|.|.|.|.|.|.|.",
"|.|.|.|.|.|.|.|.|.|.|.|.|.|.|.|.|.|.|.|.|.|.|.|.|.|.|.|.|.|.|.|.|.|.|.|.|.|.|.|.|.|.|.|.|.|.|.|.|.|.|.|.|.|.|.|.|.|.|.|.|.|.|.|.|.|.|.|.|.|.|.|.|.|.|.|.|.|.|.|.",
"|.|.|.|.|.|.|.|.|.|.|.|.|.|.|.|.|.|.|.|.|.|.|.|.|.|.|.|.|.|.|.|.|.|.|.|.|.|.|.|.|.|.|.|.|.|.|.|.|.|.|.|.|.|.|.|.|.|.|.|.|.|.|.|.|.|.|.|.|.|.|.|.|.|.|.|.|.|.|.|.",
"|.|.|.|.|.|.|.|.|.|.|.|.|.|.|.|.|.|.|.|.|.|.|.|.|.|.|.|.|.|.|.|.|.|.|.|.|.|.|.|.|.|.|.|.|.|.|.|.|.|.|.|.|.|.|.|.|.|.|.|.|.|.|.|.|.|.|.|.|.|.|.|.|.|.|.|.|.|.|.|.",
"|.|.|.|.|.|.|.|.|.|.|.|.|.|.|.|.|.|.|.|.|.|.|.|.|.|.|.|.|.|.|.|.|.|.|.|.|.|.|.|.|.|.|.|.|.|.|.|.|.|.|.|.|.|.|.|.|.|.|.|.|.|.|.|.|.|.|.|.|.|.|.|.|.|.|.|.|.|.|.|.",
"|.|.|.|.|.|.|.|.|.|.|.|.|.|.|.|.|.|.|.|.|.|.|.|.|.|.|.|.|.|.|.|.|.|.|.|.|.|.|.|.|.|.|.|.|.|.|.|.|.|.|.|.|.|.|.|.|.|.|.|.|.|.|.|.|.|.|.|.|.|.|.|.|.|.|.|.|.|.|.|.",
"|.|.|.|.|.|.|.|.|.|.|.|.|.|.|.|.|.|.|.|.|.|.|.|.|.|.|.|.|.|.|.|.|.|.|.|.|.|.|.|.|.|.|.|.|.|.|.|.|.|.|.|.|.|.|.|.|.|.|.|.|.|.|.|.|.|.|.|.|.|.|.|.|.|.|.|.|.|.|.|.",
"|.|.|.|.|.|.|.|.|.|.|.|.|.|.|.|.|.|.|.|.|.|.|.|.|.|.|.|.|.|.|.|.|.|.|.|.|.|.|.|.|.|.|.|.|.|.|.|.|.|.|.|.|.|.|.|.|.|.|.|.|.|.|.|.|.|.|.|.|.|.|.|.|.|.|.|.|.|.|.|.",
"|.|.|.|.|.|.|.|.|.|.|.|.|.|.|.|.|.|.|.|.|.|.|.|.|.|.|.|.|.|.|.|.|.|.|.|.|.|.|.|.|.|.|.|.|.|.|.|.|.|.|.|.|.|.|.|.|.|.|.|.|.|.|.|.|.|.|.|.|.|.|.|.|.|.|.|.|.|.|.|.",
"|.|.|.|.|.|.|.|.|.|.|.|.|.E.:.|.c.+.L.|.|.|.|.|.|.|.|.|.|.|.|.|.|.|.|.|.|.|.|.|.|.|.|.|.|.|.|.|.|.|.|.|.|.|.|.|.|.|.|.|.|.|.|.|.|.|.|.|.|.|.|.|.|.|.|.|.|.|.|.|.",
"|.|.|.|.|.|.|.|.|.|.|.|.|.P.+ :.8.q T E.|.|.|.|.|.|.|.|.|.|.|.|.|.|.|.|.|.|.|.|.|.|.|.|.|.|.|.|.|.|.|.|.|.|.|.|.|.|.|.|.|.|.|.|.|.|.|.|.|.|.|.|.|.|.|.|.|.|.|.|.",
"|.|.|.|.|.|.|.|.|.|.|.|.|.P.7 7 ! ,.M _ |.|.|.|.|.|.|.|.|.|.|.|.|.|.|.|.|.|.|.|.|.|.|.|.|.|.|.|.|.|.|.|.|.|.|.|.|.|.|.|.|.|.|.|.|.|.|.|.|.|.|.|.|.|.|.|.|.|.|.|.",
"|.|.|.|.|.|.|.|.|.|.|.|.|.E.9 7 j r.[ g ' |.|.|.|.|.|.|.|.|.|.|.|.|.|.|.|.|.|.|.|.|.|.|.|.|.|.|.|.|.|.|.|.|.|.|.|.|.|.|.|.|.|.|.|.|.|.|.|.|.|.|.|.|.|.|.|.|.|.|.",
"|.|.|.|.|.|.|.|.|.|.|.|.|.h., , j %.*.Q , ' |.|.|.|.|.|.|.|.|.|.|.|.|.|.|.|.|.|.|.|.|.|.|.|.|.|.|.|.|.|.|.|.|.|.|.|.|.|.|.|.|.|.|.|.|.|.|.|.|.|.|.|.|.|.|.|.|.|.",
"|.|.|.|.|.|.|.|.|.|.|.|.) 1 q j P  .} [ a $ :.|.|.|.|.|.|.|.|.|.|.|.|.|.|.|.|.|.|.|.|.|.|.|.|.|.|.|.|.|.|.|.|.|.|.|.|.|.|.|.|.|.|.|.|.|.|.|.|.|.|.|.|.|.|.|.|.|.",
"|.|.|.|.|.|.|.|.|.|.E.v , B B P ~ O.I ! j h 9 q.|.|.|.|.|.|.|.|.|.|.|.|.|.|.|.|.|.|.|.|.|.|.|.|.|.|.|.|.|.|.|.|.|.|.|.|.|.|.|.|.|.|.|.|.|.|.|.|.|.|.|.|.|.|.|.|.",
"|.|.|.|.|.|.|.|.|.|.^ , q V ~ P P H M Q j j j 4 T.|.|.|.|.|.|.|.|.|.|.|.|.|.|.|.|.|.|.|.|.|.|.|.|.|.|.|.|.|.|.|.|.|.|.|.|.|.|.|.|.|.|.|.|.|.|.|.|.|.|.|.|.|.|.|.",
"|.|.|.|.|.|.|.|.|.|.! B ! ! ~ ~ P L M a r M B , R |.|.|.|.|.|.|.|.|.|.|.|.|.|.|.|.|.|.|.|.|.|.|.|.|.|.|.|.|.|.|.|.|.|.|.|.|.|.|.|.|.|.|.|.|.|.|.|.|.|.|.|.|.|.|.",
"|.|.|.|.|.|.|.|.|.|.! | ) * b j D P P B D D j , p |.|.|.|.|.|.|.|.|.|.|.|.|.|.|.|.|.|.|.|.|.|.|.|.|.|.|.|.|.|.|.|.|.|.|.|.|.|.|.|.|.|.|.|.|.|.|.|.|.|.|.|.|.|.|.",
"|.|.|.|.|.|.|.|.|.J.B L 3 Z S B a i H ! P L B 1 p |.|.|.|.|.|.|.|.|.|.|.|.|.|.|.|.|.|.|.|.|.|.|.|.|.|.|.|.|.|.|.|.|.|.|.|.|.|.|.|.|.|.|.|.|.|.|.|.|.|.|.|.|.|.|.",
"|.|.|.|.|.|.|.|.Z.g m M P U f D ! a q B D H B q > h n.k.J.|.|.|.|.|.|.|.|.|.|.|.|.|.|.|.|.|.|.|.|.|.|.|.|.|.|.|.|.|.|.|.|.|.|.|.|.|.|.|.|.|.|.|.|.|.|.|.|.|.|.|.",
"|.|.|.|.|.|.|.|.m.= H 5.&.P D M D P j a a P H a q % + @ y 0.:.5.:.:.:.:.:.:.:.|.|.|.|.|.|.|.|.|.|.|.|.|.|.|.|.|.|.|.|.|.|.|.|.|.|.|.|.|.|.|.|.|.|.|.|.|.|.|.|.|.",
"|.|.|.|.|.|.|.|.L.N F.D.x.d.w.~ j j a q e D j D B 9 1 % O . X X O $ # O O O O c G q.|.|.|.|.|.|.|.|.|.|.|.|.|.|.|.|.|.|.|.|.|.|.|.|.|.|.|.|.|.|.|.|.|.|.|.|.|.|.",
"|.|.|.|.|.|.|.|.|.9.5.5.&.i.f.3.O.Q j D D g L P H d 1 > 1 1 1 1 1 q e q 8 1 1 $ % $ v k.|.|.|.|.|.|.|.|.|.E.E.|.|.|.|.|.|.|.|.|.|.|.|.|.|.|.|.|.|.|.|.|.|.|.|.|.",
"|.|.|.|.|.|.|.|.|.|.^ D } w.p.p.,.~ ] Q M H ~ D D M e i q 7 q q 8 q q 8 9 q q q 8 , % O +.|.|.|.|.|.|.|.|.|.E.|.|.|.|.|.|.|.|.|.|.|.|.|.|.|.|.|.|.|.|.|.|.|.|.|.",
"|.|.|.|.|.|.|.|.|.|.Q.+.! | &.3. .M M B P } } D a D j f m 0 j a q a g g q i i q q q q 1 & z P.|.|.|.|.|.|.|.|.Y.|.|.|.|.|.|.|.|.|.|.|.|.|.|.|.|.|.|.|.|.|.|.|.|.",
"|.|.|.|.|.|.|.|.|.|.|.|.|.P.~ >.&.#.} P } O.P g M D M g D a j M r V M m e M D a a f j q q & 4 k.|.|.|.|.|.|.|.E.|.|.|.|.|.|.|.|.|.|.|.|.|.|.|.|.|.|.|.|.|.|.|.|.",
"|.|.|.|.|.|.|.|.|.|.|.|.|.E.@.z.f.x.w.$.X.D g D V a g V M e j D j g M e q N M a 9 a M 9 q 6 ; $ 0.|.|.|.|.|.|.|.|.|.|.|.|.|.|.|.|.|.|.|.|.|.|.|.|.|.|.|.|.|.|.|.",
"|.|.|.|.|.|.|.|.|.|.|.|.|.I.#.S.S.v.5.O.D g L D q g D D j q B M f M M a g N g e a g q u q 5 1 % + M.|.|.|.|.|.|.|.|.|.|.|.|.|.|.|.|.|.|.|.|.|.|.|.|.|.|.|.|.|.|.",
"|.|.|.|.|.|.|.|.|.|.|.|.|.I.>.S.S.S.6.! D D B r M K D i M g B j M D N M B V m g D M q j g 7 9 1 $ n.|.|.|.|.|.|.|.|.|.|.|.|.|.|.|.|.|.|.|.|.|.|.|.|.|.|.|.|.|.|.",
"|.|.|.|.|.|.|.|.|.|.|.|.|.Y.2.S.S.S.x.&.~ ~ B D D V a q B D D M m D L k j D N g A A s g q 8 e q 1 y J.|.|.|.|.|.|.|.|.|.|.|.|.|.|.|.|.|.|.|.|.|.|.|.|.|.|.|.|.|.",
"|.|.|.|.|.|.|.|.|.|.|.|.|.E.5.A.D.x.5.P P ~ P B f u y t j P P P B D P D s D M V D D m q 8 e M a 8 O v |.|.|.|.|.|.|.|.|.|.|.|.|.|.|.|.|.|.|.|.|.|.|.|.|.|.|.|.|.",
"|.|.|.|.|.|.|.|.|.|.|.|.|.E.>.v.N.j.| ~ } ~ j r a B u 1 f P ~ ~ D k P D j D D j N M a q a V D g q , 7 P.|.|.|.|.|.|.|.|.|.|.|.|.|.|.|.|.|.|.|.|.|.|.|.|.|.|.|.|.",
"|.|.|.|.|.|.|.|.|.|.|.|.|.Q.t.z.v.a.6.} ~ H j P L j q 7 q D ~ ( H B P D j ~ D a D M g M K D j q q 8 . 0.|.|.|.|.|.|.|.|.|.|.|.|.|.|.|.|.|.|.|.|.|.|.|.|.|.|.|.|.",
"|.|.|.|.|.|.|.|.|.|.|.|.|.|.K.| V.x.p.@.~ H H B M a q q 1 s ! } ~ k } I H  .D M D M V V M a e g 8 8 . q.|.|.|.|.|.|.|.|.|.|.|.|.|.|.|.|.|.|.|.|.|.|.|.|.|.|.|.|.",
"|.|.|.|.|.|.|.|.|.|.|.|.|.|.|.;.O.f.p.&.o.L D B H j q q 5 a P } ~ H } P | } D M g j g M q q B j q 7 O 4 R.|.|.|.|.|.|.|.|.|.|.|.|.|.|.|.|.|.|.|.|.|.|.|.|.|.|.|.",
"|.|.|.|.|.|.|.|.|.|.|.|.|.|.|.E.+.| a.2.J j q j a a j a 7 7 H o.~ O.~ P O.} B q M P B a a M B q i 8 $   =.|.|.|.|.|.|.|.|.|.|.|.|.|.|.|.|.|.|.|.|.|.|.|.|.|.|.|.",
"|.|.|.|.|.|.|.|.|.|.|.|.|.|.|.|.|.;.o.2.~ ~ B j B L D D 8 8 H O.@.O.~ O.O.P M D P j a j D B e q q 1 + $ 7 |.|.|.|.|.|.|.|.|.|.|.|.|.|.|.|.|.|.|.|.|.|.|.|.|.|.|.",
"|.|.|.|.|.|.|.|.|.|.|.|.|.|.|.|.|.|.T f | } } ~ D j q a q q P ( &.| } 3.P D P ~ j a M M q q q q 7 : $ 5 : :.|.|.|.|.|.|.|.|.|.|.|.|.|.|.|.|.|.|.|.|.|.|.|.|.|.|.",
"|.|.|.|.|.|.|.|.|.|.|.|.|.|.|.|.|.|.z & j ~ H h q a a a a q | #.@.&.| ~ [ | P B M L j i g M a q 8 O > q 7 i P.|.|.|.|.|.|.|.|.|.|.|.|.n.q.E.|.|.|.|.|.|.|.|.|.|.",
"|.|.|.|.|.|.|.|.|.|.|.|.|.|.|.|.|.q., q 1 8 a B H H D D 7 J 6.w.5.&.H  .3.O.P D D j f D M a q 7 5 > > x j , y P.|.|.|.|.|.|.|.|.|.|.E.4 . p E.|.|.|.|.|.|.|.|.|.",
"|.|.|.|.|.|.|.|.|.|.|.|.|.|.|.|.|.! 7 i q 1 ! ~ f q j 0 B 3.5.w.5.&.&.5.2.@.~ B a j L B q q q 1 O h.Y q L M 1 u k.|.|.|.|.|.|.|.|.|.z + ; - P.|.|.|.|.|.|.|.|.|.",
"|.|.|.|.|.|.|.|.|.|.|.|.|.|.|.|.-.H H 0 q 7 H B M j q 1 x H H H j j a H >.&.P j P ~ B q r 8 8 # v |.P.z g Q H 1 ; y k.|.E.|.E.|.k.p + - o ' |.|.|.|.|.|.|.|.|.|.",
"|.|.|.|.|.|.|.|.|.|.|.|.|.|.|.;.D O.H a 7 , j D B H 8 ) |.P.P.E.` , j q ( >.} } ~ a i j j q 7 , - 0.|.P.h s L M a , 7 i u 9 7 y 5 5 7 + + n.|.|.|.|.|.|.|.|.|.|.",
"|.|.|.|.|.|.|.|.|.|.|.|.|.|.j.D %.~ M q $ ; ! ~ B a % ) |.|.|.|.E.T q a 9 ~ &.O.P B ! B a j 0 q 5 % 0.|.P.v 8 B V L D B j 8 q j f 9 , + q.|.|.|.|.|.|.|.|.|.|.|.",
"|.|.|.|.|.|.|.|.|.|.|.|.|.E.~ O.~ B 8 : :.T D ! ~ g v P.|.|.|.|.|.|.! u , 7 ! @.O.| ~ B H V V B a 7 y |.|.E.Y 7 q B P P D r B D q 4 7 q.|.|.|.|.|.|.|.|.|.|.|.|.",
"|.|.|.|.|.|.|.|.|.|.|.|.|.n.%.b.} 5 5 n.|.+.M j B 8 Y |.|.|.|.|.|.|.|.h.z 5 1 B ! P D q r P D q m q 4 |.|.|.|.B.' ' q 8 q 5 9 i 7 =.|.|.|.|.|.|.|.|.|.|.|.|.|.|.",
"|.|.|.|.|.|.|.|.|.|.|.|.P.| C.C.P 7 J.|.|.o.D P j 7 g.|.|.|.|.|.|.|.|.|.E.5 q 1 5 8 o C ' q g M B , :.|.|.|.|.|.|.|.G.B.B.B.J.P.E.|.|.|.|.|.|.|.|.|.|.|.|.|.|.|.",
"|.|.|.|.|.|.|.|.|.|.|.|.P.O.a.w.D =.|.|.J.H L P M y |.|.|.|.|.|.|.|.E.n.G B j a 7 9 q.|.B.8 m j 0 5 E.|.|.|.|.|.|.|.|.|.|.|.|.|.|.|.|.|.|.|.|.|.|.|.|.|.|.|.|.|.",
"|.|.|.|.|.|.|.|.|.|.|.|.E.>.O.G ) !.|.J.8.Q D H j 4 E.|.|.|.|.|.|...B B H ~ B a % ) |.B.B ~ ] D , h.|.|.|.|.|.|.|.|.|.|.|.|.|.|.|.|.|.|.|.|.|.|.|.|.|.|.|.|.|.|.",
"|.|.|.|.|.|.|.|.|.|.|.|.|.|.:.q.|.|.n.@.p.a.O.[ q ' |.|.|.|.|.|.+.! | >.O.~ B q +.P.j.t.5.@.L ! : h.|.|.|.|.|.|.|.|.|.|.|.|.|.|.|.|.|.|.|.|.|.|.|.|.|.|.|.|.|.|.",
"|.|.|.|.|.|.|.|.|.|.|.|.|.|.|.|.|.|.;.t.v.I.x.B ! |.|.|.|.|.|.E.H M j ! H G x k.|.N.O.v.Y.D.y.h ; n.|.|.|.|.|.|.|.|.|.|.|.|.|.|.|.|.|.|.|.|.|.|.|.|.|.|.|.|.|.|.",
"|.|.|.|.|.|.|.|.|.|.|.|.|.|.|.|.|.|.<.M ~ O.! =.|.|.|.|.|.|.|.|.j.+.+..._ q.|.|.|.B.| ~ t.f.>.i q.|.|.|.|.|.|.|.|.|.|.|.|.|.|.|.|.|.|.|.|.|.|.|.|.|.|.|.|.|.|.|.",
"|.|.|.|.|.|.|.|.|.|.|.|.|.|.|.|.|.|.J.s.h.u.q.E.|.|.|.|.|.|.|.|.|.|.|.|.|.|.|.|.|.|.j.^ ' ..^ q.|.|.|.|.|.|.|.|.|.|.|.|.|.|.|.|.|.|.|.|.|.|.|.|.|.|.|.|.|.|.|.|.",
"|.|.|.|.|.|.|.|.|.|.|.|.|.|.|.|.|.|.|.|.|.|.|.|.|.|.|.|.|.|.|.|.|.|.|.|.|.|.|.|.|.|.|.|.|.|.|.|.|.|.|.|.|.|.|.|.|.|.|.|.|.|.|.|.|.|.|.|.|.|.|.|.|.|.|.|.|.|.|.|.",
"|.|.|.|.|.|.|.|.|.|.|.|.|.|.|.|.|.|.|.|.|.|.|.|.|.|.|.|.|.|.|.|.|.|.|.|.|.|.|.|.|.|.|.|.|.|.|.|.|.|.|.|.|.|.|.|.|.|.|.|.|.|.|.|.|.|.|.|.|.|.|.|.|.|.|.|.|.|.|.|.",
"|.|.|.|.|.|.|.|.|.|.|.|.|.|.|.|.|.|.|.|.|.|.|.|.|.|.|.|.|.|.|.|.|.|.|.|.|.|.|.|.|.|.|.|.|.|.|.|.|.|.|.|.|.|.|.|.|.|.|.|.|.|.|.|.|.|.|.|.|.|.|.|.|.|.|.|.|.|.|.|.",
"|.|.|.|.|.|.|.|.|.|.|.|.|.|.|.|.|.|.|.|.|.|.|.|.|.|.|.|.|.|.|.|.|.|.|.|.|.|.|.|.|.|.|.|.|.|.|.|.|.|.|.|.|.|.|.|.|.|.|.|.|.|.|.|.|.|.|.|.|.|.|.|.|.|.|.|.|.|.|.|.",
"|.|.|.|.|.|.|.|.|.|.|.|.|.|.|.|.|.|.|.|.|.|.|.|.|.|.|.|.|.|.|.|.|.|.|.|.|.|.|.|.|.|.|.|.|.|.|.|.|.|.|.|.|.|.|.|.|.|.|.|.|.|.|.|.|.|.|.|.|.|.|.|.|.|.|.|.|.|.|.|."
};
