/* XPM */
static char *louis_left_view[] = {
/* columns rows colors chars-per-pixel */
"65 80 194 2 ",
"   c #2E2E2D",
".  c #252423",
"X  c #302E2C",
"o  c #33312E",
"O  c #2D3134",
"+  c #343434",
"@  c #393633",
"#  c #363837",
"$  c #3B3A36",
"%  c #37373B",
"&  c #3B3B3A",
"*  c #36383A",
"=  c #433B1F",
"-  c #413E3B",
";  c #44423D",
":  c #4D483E",
">  c #403F40",
",  c #444343",
"<  c #4A4642",
"1  c #4C4A44",
"2  c #494749",
"3  c #4D4C4A",
"4  c #524D45",
"5  c #524E49",
"6  c #5A4D45",
"7  c #4F504E",
"8  c #55524C",
"9  c #5A554D",
"0  c #5C584F",
"q  c #4B4E50",
"w  c #545452",
"e  c #5B5651",
"r  c #5D5A54",
"t  c #575958",
"y  c #5D5B59",
"u  c #6A574F",
"i  c #635B4C",
"p  c #635C54",
"a  c #695E56",
"s  c #635E5A",
"d  c #685E58",
"f  c #70664F",
"g  c #676156",
"h  c #696157",
"j  c #65615C",
"k  c #6B645C",
"l  c #6F685E",
"z  c #786F54",
"x  c #70675D",
"c  c #716A5E",
"v  c #7A655E",
"b  c #7D725D",
"n  c #666562",
"m  c #6A6661",
"M  c #6D6962",
"N  c #6C6C6B",
"B  c #746C63",
"V  c #786E64",
"C  c #726E69",
"Z  c #796D68",
"A  c #767166",
"S  c #7A7166",
"D  c #76716B",
"F  c #7C746B",
"G  c #7E796E",
"H  c #6D6F73",
"J  c #747472",
"K  c #7D7770",
"L  c #7D7973",
"P  c #7C7C7C",
"I  c #887A2E",
"U  c #85773C",
"Y  c #847B59",
"T  c #81776C",
"R  c #82796E",
"E  c #847C72",
"W  c #897E73",
"Q  c #857D78",
"!  c #887E78",
"~  c #837671",
"^  c #988A46",
"/  c #BDB053",
"(  c #878074",
")  c #8B8276",
"_  c #878279",
"`  c #8D847A",
"'  c #8E887E",
"]  c #91867B",
"[  c #938A7D",
"{  c #998C7E",
"}  c #858584",
"|  c #8B8780",
" . c #8D8983",
".. c #8E8D8C",
"X. c #958D82",
"o. c #998E82",
"O. c #938F89",
"+. c #988F88",
"@. c #969285",
"#. c #9A9185",
"$. c #94918B",
"%. c #9D958A",
"&. c #9E988D",
"*. c #969492",
"=. c #989793",
"-. c #9C9A95",
";. c #9C9B9A",
":. c #A1968A",
">. c #A39A8D",
",. c #A59D92",
"<. c #A99E91",
"1. c #A6A093",
"2. c #ABA295",
"3. c #A4A29C",
"4. c #ADA59A",
"5. c #AEA89D",
"6. c #B0A093",
"7. c #B1A69A",
"8. c #B2AA9E",
"9. c #A4A4A3",
"0. c #A9A6A1",
"q. c #ADAAA4",
"w. c #ABABA9",
"e. c #B4ADA2",
"r. c #B9ADA2",
"t. c #B2AFA8",
"y. c #B7B1A5",
"u. c #B9B2A6",
"i. c #B4B1AB",
"p. c #BBB5AA",
"a. c #BEB9AE",
"s. c #B4B3B2",
"d. c #BEBAB2",
"f. c #BCBCBB",
"g. c #C0B7AD",
"h. c #C1BAAF",
"j. c #C2BDB2",
"k. c #C1BEBA",
"l. c #C6C0B4",
"z. c #C9C2B6",
"x. c #C6C2B8",
"c. c #CBC5BA",
"v. c #CEC9BD",
"b. c #D0C9BD",
"n. c #C3C3C2",
"m. c #C8C7C6",
"M. c #C6C9C7",
"N. c #CBC9C5",
"B. c #CDCDCD",
"V. c #D4CEC2",
"C. c #D5D1C5",
"Z. c #D9D4C7",
"A. c #DDD8C6",
"S. c #D2D1CE",
"D. c #DAD5CA",
"F. c #DCD8CD",
"G. c #D4D4D3",
"H. c #D9D6D3",
"J. c #DBDAD5",
"K. c #DDDCDB",
"L. c #E2DCCF",
"P. c #E2DED3",
"I. c #E1DDDB",
"U. c #E6E1D6",
"Y. c #E6E4D9",
"T. c #E9E5DA",
"R. c #EBE9DD",
"E. c #EAE3D7",
"W. c #E4E5E5",
"Q. c #ECEAE3",
"!. c #EDEDEC",
"~. c #ECECEB",
"^. c #F0EFEE",
"/. c #F3EEE5",
"(. c #F4F2EC",
"). c #EFEFF0",
"_. c #F2F3F2",
"`. c #F4F4F3",
"'. c #F9F9F7",
"]. c #FBFAF4",
"[. c #FBFBFB",
"{. c #FDFDFB",
"}. c #FCFCFC",
"|. c #FDFDFD",
" X c #FCFDFD",
".X c #FEFEFC",
"XX c #FEFEFD",
"oX c #FFFEFC",
"OX c #FDFEFE",
"+X c #FF00FF",
"@X c #FFFFFF",
"#X c #FEFDFE",
"$X c #FEFEFE",
"%X c #F4F6F8",
/* pixels */
"+X+X+X+X+X+X+X+X+X+X+X+X+X+X+X+X+X+X+X+X+X+X+X+X+X+X+X+X+X+X+X+X+X+X+X+X+X+X+X+X+X+X+X+X+X+X+X+X+X+X+X+X+X+X+X+X+X+X+X+X+X+X+X+X+X",
"+X+X+X+X+X+X+X+X+X+X+X+X+X+X+X+X+X+X+X+X+X+X+X+X+X+X+X+X+X+X+X+X+X+X+X+X+X+X+X+X+X+X+X+X+X+X+X+X+X+X+X+X+X+X+X+X+X+X+X+X+X+X+X+X+X",
"+X+X+X+X+X+X+X+X+X+X+X+X+X+X+X+X+X+X+X+X+X+X+X+X+X+X+X+X+X+X+X+X+X+X+X+X+X+X+X+X+X+X+X+X+X+X+X+X+X+X+X+X+X+X+X+X+X+X+X+X+X+X+X+X+X",
"+X+X+X+X+X+X+X+X+X+X+X+X+X+X+X+X+X+X+X+X+X+X+X+X+X+X+X+X+X+X+X+X+X+X+X+X+X+X+X+X+X+X+X+X+X+X+X+X+X+X+X+X+X+X+X+X+X+X+X+X+X+X+X+X+X",
"+X+X+X+X+X+X+X+X+X+X+X~.M._.+X^.J.H._.+X+X+X+X+X+X+X+X+X+X+X+X+X+X+X+X+X+X+X+X+X+X+X+X+X+X+X+X+X+X+X+X+X+X+X+X+X+X+X+X+X+X+X+X+X+X",
"+X+X+X+X+X+X+X+X+X+X+Xs.. ;.+Xn.e j q.+X+X+X+X+X+X+X+X+X+X+X+X+X+X+X+X+X+X+X+X+X+X+X+X+X+X+X+X+X+X+X+X+X+X+X+X+X+X+X+X+X+X+X+X+X+X",
"+X+X+X+X+X+X+X+X+X+X+Xs.3 3 =.k.W ,.k e.+X+X+X+X+X+X+X+X+X+X+X+X+X+X+X+X+X+X+X+X+X+X+X+X+X+X+X+X+X+X+X+X+X+X+X+X+X+X+X+X+X+X+X+X+X",
"+X+X+X+X+X+X+X+X+X+X+Xs.1 C e 9 ,.8.<.p f.+X+X+X+X+X+X+X+X+X+X+X+X+X+X+X+X+X+X+X+X+X+X+X+X+X+X+X+X+X+X+X+X+X+X+X+X+X+X+X+X+X+X+X+X",
"+X+X+X+X+X+X+X+X+X+X+Xs.< F k 4 >.r.:.W C J.+X+X+X+X+X+X+X+X+X+X+X+X+X+X+X+X+X+X+X+X+X+X+X+X+X+X+X+X+X+X+X+X+X+X+X+X+X+X+X+X+X+X+X",
"+X+X+X+X+X+X+X+X+X+X+Xf.< C m 8 ,.r.<.] k *.~.+X+X+X+X+X+X+X+X+X+X+X+X+X+X+X+X+X+X+X+X+X+X+X+X+X+X+X+X+X+X+X+X+X+X+X+X+X+X+X+X+X+X",
"+X+X+X+X+X+X+X+X+X+X~.3.; s 9 8 %.7.7.<.#.4 =._.+X+X+X+X+X+X+X+X+X+X+X+X+X+X+X+X+X+X+X+X+X+X+X+X+X+X+X+X+X+X+X+X+X+X+X+X+X+X+X+X+X",
"+X+X+X+X+X+X+X+X+Xf.3 e M C C C %.:.6.r.] C < J _.+X+X+X+X+X+X+X+X+X+X+X+X+X+X+X+X+X+X+X+X+X+X+X+X+X+X+X+X+X+X+X+X+X+X+X+X+X+X+X+X",
"+X+X+X+X+X+X+X'.w.5 e W C F X.] <.>.{ >.] W M 3 n +X+X+X+X+X+X+X+X+X+X+X+X+X+X+X+X+X+X+X+X+X+X+X+X+X+X+X+X+X+X+X+X+X+X+X+X+X+X+X+X",
"+X+X+X+X+X+X+XN 3 j L ` F W ] ] >.1.o.#.] R C M e N.+X+X+X+X+X+X+X+X+X+X+X+X+X+X+X+X+X+X+X+X+X+X+X+X+X+X+X+X+X+X+X+X+X+X+X+X+X+X+X",
"+X+X+X+X+X+X+Xs m D k W T #.` ] ] X.W X.X.F k W e t +X+X+X+X+X+X+X+X+X+X+X+X+X+X+X+X+X+X+X+X+X+X+X+X+X+X+X+X+X+X+X+X+X+X+X+X+X+X+X",
"+X+X+X+X+X+X+XC ` F G ,.%.>.` ` ] ] W W R h C F e s J.+X+X+X+X+X+X+X+X+X+X+X+X+X+X+X+X+X+X+X+X+X+X+X+X+X+X+X+X+X+X+X+X+X+X+X+X+X+X",
"+X+X+X+X+X+X+XW W x.@.f b W ` X.X.] o.W g S W R k e 3 ).+X+X+X+X+X+X+X+X+X+X+X+X+X+X+X+X+X+X+X+X+X+X+X+X+X+X+X+X+X+X+X+X+X+X+X+X+X",
"+X+X+X+X+X+X+XF ) C.i I U 4 S W ] ] ] ] ) W W W S e 8 _.+X+X+X+X+X+X+X+X+X+X+X+X+X+X+X+X+X+X+X+X+X+X+X+X+X+X+X+X+X+X+X+X+X+X+X+X+X",
"+X+X+X+X+X'.i.k :.k = / ^ F W k k W ] ] ] ] ] W W M 8 J.+X+X+X+X+X+X+X+X+X+X+X+X+X+X+X+X+X+X+X+X+X+X+X+X+X+X+X+X+X+X+X+X+X+X+X+X+X",
"+X+X+X+XI.~ ` %.` c c Y z W ` ` c k R ` ] ] ] ) R C 4 , J.+X+X+X+X+X+X+X+X+X+X+X+X+X+X+X+X+X+X+X+X+X+X+X+X+X+X+X+X+X+X+X+X+X+X+X+X",
"+X+X+X+XH.v T S ` %.@.W K C ) X.#.C p C F ) ] ` R S p 1 1 J.+X+X+X+X+X+X+X+X+X+X+X+X+X+X+X+X+X+X+X+X+X+X+X+X+X+X+X+X+X+X+X+X+X+X+X",
"+X+X+X+XJ.u a =.x.p.u.@.X.X.` ` ] ` k p 9 S ) ] ` S C s $ t G.+X+X+X+X+X+X+X+X+X+X+X+X+X+X+X+X+X+X+X+X+X+X+X+X+X+X+X+X+X+X+X+X+X+X",
"+X+X+X+XJ.6 g.'.Z.z.b.h.5.e.` C C W _ W k C ` ) R C W C 5 o 8 n.~.+X+X+X+X+X+X+X+X+X+X+X+X+X+X+X+X+X+X+X+X+X+X+X+X+X+X+X+X+X+X+X+X",
"+X+X+X+XJ.` 8.P.V.h.z.F.F.z.p.1.%.c p g k F ) c F ` ) W C s , . 9.~.G._.+X+X+X+X+X+X+X+X+X+X+X+X+X+X+X+X+X+X+X+X+X+X+X+X+X+X+X+X+X",
"+X+X+X+X+X(.W W %.%.h.j.V.V.8.1.1.#.` ] #.] C R ] ) ) ( C p e 8 - & o ;.~.J._.+X+X+X+X+X+X+X+X+X+X+X+X+X+X+X+X+X+X+X+X+X+X+X+X+X+X",
"+X+X+X+X+X+X~.` %.p.j.x.x.j.v.u.4.,.%.%.@.c F #.) W ` F p e p e s 5 $ & & + G.+X+X+X+X+X+X+X+X+X+X+X+X+X+X+X+X+X+X+X+X+X+X+X+X+X+X",
"+X+X+X+X+X+X+X+Xq.W W $.N.u.u.h.,.%.>.#.G ` >.%.` ) R A C k C C p e 1 < 5 1 D P P L J w.+X+X+X+X+X+X+X+X+X+X+X+X+X+X+X+X+X+X+X+X+X",
"+X+X+X+X+X+X+X+XW.M.S.G.=.,.u.4.] ) ] X.] >.>.:.%.R S W ` R F F j p e e e 8 @ X + @ @ + 9.G.+X+X+X+X+X+X+X+X+X+X+X+X+X+X+X+X+X+X+X",
"+X+X+X+X+X+X+X+X+X+X+X+X3.#.g.e.e.u.,.>.>.>.>.:.` T W ) W R R C p p k M s e e 5 < e s 8 o j J.W.+X+X+X+X+X+X+X+X+X+X+X+X+X+X+X+X+X",
"+X+X+X+X+X+X+X+X+X+X+X+X3.&.b.z.h.z.u.,.4.>.#.) S R ` W W W W C l C F W g k M j k p 9 j s e o N _.+X+X+X+X+X+X+X+X+X+X+X+X+X+X+X+X",
"+X+X+X+X+X+X+X+X+X+X+X+Xq.e.P.L.F.V.j.e.1.` ) R W ] ) C l R W R S S W F 9 F ) R C k k C a p 8 ; t J.+X+X+X+X+X+X+X+X+X+X+X+X+X+X+X",
"+X+X+X+X+X+X+X+X+X+X+X+Xq.a.T.P.E.L.j.4.#.) ( ) ) ` S k x S W R R F W F 0 F W R p k W C F k s e - 3 n.+X+X+X+X+X+X+X+X+X+X+X+X+X+X",
"+X+X+X+X+X+X+X+X+X+X+X+Xt.d.T.P.U.U.j.&.#.X.F ` ` F c F ) ) ) F C ) W F e F ) R k s C C C k k s 9 $   9.+X+X+X+X+X+X+X+X+X+X+X+X+X",
"+X+X+X+X+X+X+X+X+X+X+X+Xi.d.T.P.U.Y.v.e.u.#.R ) S C ) ) W R R C C S ) F 9 F W R k k C c l k j j s 8 $ n +X+X+X+X+X+X+X+X+X+X+X+X+X",
"+X+X+X+X+X+X+X+X+X+X+X+Xi.j.R.U.U.U.T.F.8.] ) ) F ` ) W W W c k C F ) C k W R x k W ] W ` k j m F k 9 $ w.'.+X+X+X+X+X+X+X+X+X+X+X",
"+X+X+X+X+X+X+X+X+X+X+X+Xi.l.R.U.Y.U.P.l.` W ] ] ) ) ) ) W R C A k W ` C F ` R C W ] ] ] W k j m W W k 9 ; P +X+X+X+X+X+X+X+X+X+X+X",
"+X+X+X+X+X+X+X+X+X+X+X+Xi.j.R.U.U.P.a.1.] o.>.] ` ] ` ` F c F C M D ` ` ] ] W S #.] ` ) R k j M W ) k p ; J +X+X+X+X+X+X+X+X+X+X+X",
"+X+X+X+X+X+X+X+X+X+X+X+Xi.u.F.P.U.C.u.1.#.#.#.X.` F F C C F F m s s W X.#.] R ] ] ] ) F R k k l ( R F k : N +X+X+X+X+X+X+X+X+X+X+X",
"+X+X+X+X+X+X+X+X+X+X+X+X3.4.F.F.C.v.u.1.o.#.#.` S C R W R S k s s j W #.#.X.] ] ] ) C ( ) C C R W c c C 9 $ n +X+X+X+X+X+X+X+X+X+X",
"+X+X+X+X+X+X+X+X+X+X+X+X~.5.u.F.F.V.p.4.>.:.R C W ` ` W W C p s 3 j ` #.#.X.` ) ] ` c ) R S ) ) R k l k p $ o 9.+X+X+X+X+X+X+X+X+X",
"+X+X+X+X+X+X+X+X+X+X+X+X+Xq.%.x.F.L.l.4.u.] R ) ] ) ) C D C e j 5 p G X.#.X.T ] #.` c ) ) ) ) ) R S S p j 8 ; , ~.+X+X+X+X+X+X+X+X",
"+X+X+X+X+X+X+X+X+X+X+X+X+X_.e.8.z.C.x.e.8.>.>.] W R c F F C s j e s F X.%.>.W X.#.W C W ) ) ) ) F C C k j p 4 8 _.+X+X+X+X+X+X+X+X",
"+X+X+X+X+X+X+X+X+X+X+X+X+X+X0.W u.a.l.l.1.1.,.o.] ) R ) W C k s e e F X.>.>.W W X.R ` T ] ) ) S W W R C k p 5 < J _.+X+X+X+X+X+X+X",
"+X+X+X+X+X+X+X+X+X+X+X+X+X+X+X0.L u.j.j.8.,.&.) ` ` ] W C C k s n 3 C X.>.#.` #.#.X.( V ) ) ) F W W F k k k 9 1 & _.+X+X+X+X+X+X+X",
"+X+X+X+X+X+X+X+X+X+X+X+X+X+X+X+X=.' j.a.u.) S ) C C C k C ` W A k < 8 ` ,.#.%.,.) >.X.) ] ) ] ] R k k k k k k 4 , s.+X+X+X+X+X+X+X",
"+X+X+X+X+X+X+X+X+X+X+X+X+X+X+X+X+X*.W d.e.,.%.%.` ` ` ` ` W ) W M e 8 ( #.&.>.,.>.,.,.>.] ] ) F k R W R C k k 8 1 & W.+X+X+X+X+X+X",
"+X+X+X+X+X+X+X+X+X+X+X+X+X+X+X+X+X'.*.e 4.8.4.>.%.%.#.X.W k k M M M 8 W X.,.1.1.4.1.,.#.) C x k R ] ] ] S k D p 5 , ~.+X+X+X+X+X+X",
"+X+X+X+X+X+X+X+X+X+X+X+X+X+X+X+X+X+X9.@ k 4.4.>.%.%.#.C k m s s m e D ,.4.5.4.4.8.%.G F S ) ) ) ] W V C l k F p 1 , ~.+X+X+X+X+X+X",
"+X+X+X+X+X+X+X+X+X+X+X+X+X+X+X+X+X+X;.; 5 p %.,.#.` l k F ` k p C 1 W u.8.8.1.8.,.W W X.] o.] ] ] W x k k C A p ; ; ~.+X+X+X+X+X+X",
"+X+X+X+X+X+X+X+X+X+X+X+X+X+X+X+X+X+X=.e W 4 9 F C k F X.` ) R F F 5  .h.8.8.u.4.R T :.#.#.{ o.) c C S F c ` C p ; - ~.+X+X+X+X+X+X",
"+X+X+X+X+X+X+X+X+X+X+X+X+X+X+X+X+X+X=.e W F 5 4 W X.o.X.W R F W p e 4.p.4.e.u.X.X.:.{ o.o.o.] c C V c ) ) S k e 1 & ~.+X+X+X+X+X+X",
"+X+X+X+X+X+X+X+X+X+X+X+X+X+X+X+X+X+X;.1 9 g k 9 ` :.` F k k j m ; F 5.5.j.z.e.<.1.>.{ o.o.` S c W ] W ) C p p 9 1 ; W.+X+X+X+X+X+X",
"+X+X+X+X+X+X+X+X+X+X+X+X+X+X+X+X+X+X=.s F 9 p p W X.c C F F M 5 o L 1.e.x.p.e.8.1.>.{ ] R C S ` ] ] C k p k k j 5 , _.+X+X+X+X+X+X",
"+X+X+X+X+X+X+X+X+X+X+X+X+X+X+X+X+X+X=.k ! p 9 9 k C C F X.` C < 4 &.1.u.z.8.8.4.X.] ` W x ) ] ] ) F h p C C p p 5 , M.+X+X+X+X+X+X",
"+X+X+X+X+X+X+X+X+X+X+X+X+X+X+X+X+X+X=.4 F W a 9 k T #.V T R k 8 X.1.e.j.v.e.8.%.o.] S C W ] ] ) S h h p C k p e 5 + , _.+X+X+X+X+X",
"+X+X+X+X+X+X+X+X+X+X+X+X+X+X+X+X+X+X=.5 k C F 9 ] :.o.o.W W 9 4 %.:.p.v.j.4.>.o.:.:.X.` ` T x x R F c k k h k 9 ; + t _.+X+X+X+X+X",
"+X+X+X+X+X+X+X+X+X+X+X+X+X+X+X+X+X+X=.C ] k k 4 ] :.#.>.` R e 4 %.%.8.j.p.4.,.#.:.` C C T R T F R R W F h k p 1 $ & * t _.+X+X+X+X",
"+X+X+X+X+X+X+X+X+X+X+X+X+X+X+X+X+X+X=.C X.c p 4 X.o.V R ) g F O.] ,.1.u.a.g.e.,.%.c k ) X.] W A S k p k k 9 1 & & & O q +X+X+X+X+X",
"+X+X+X+X+X+X+X+X+X+X+X+X+X+X+X+X+X+X=.C X.W k 4 o.#.W ) ] p =.~.j ,.4.e.p.h.8.,.W C R X.) c k C k p p C M 4 $ + # , & t +X+X+X+X+X",
"+X+X+X+X+X+X+X+X+X+X+X+X+X+X+X+X+X+X=.C ` c p 4 ] >.#.F C 1 } +X3.F ,.e.p.h.8.>.R X.#.S k k W F k c C p j 5 $ + & 1 1 e ~.+X+X+X+X",
"+X+X+X+X+X+X+X+X+X+X+X+X+X+X+X+X+X+XO.C ] C p 9 ] :.:.#.F 5 ..+X_.e.( S %.j.e.7.1.:.] C i F ] ] ] W h 9 1 1 & + , 1 4 1 t _.+X+X+X",
"+X+X+X+X+X+X+X+X+X+X+X+X+X+X+X+Xd._ ` #.X.X.p ` ` S S >.C $.+X_.+X~.C p F #.] >.1.1.>.#.S W R R T F C e < , + + 3 8 e t 3 _.+X+X+X",
"+X+X+X+X+X+X+X+X+X+X+X+X+X+X_.0.=.X.%.1.#.F 9 X.#.] ] 1.k $.+X+XN.$.F.F.x.j.%.W C ` @.#.#.( k p p h k s 9 , + + 2 e p e t _.+X+X+X",
"+X+X+X+X+X+X+X+X+X+X+X+X+X+X_.X.4.] %.,.F 3.x.e.>.1.1.4.h ..+XG.k z.x.x./.T.x.1.) W k k k k p 9 j C p 9 t + H M.3 p k e t _.+X+X+X",
"+X+X+X+X+X+X+X+X+X+X+X+X+X+X_. .3.L ,.C 5.P.(.Y.J.x.1.8.k ..+Xd.4 Z.4.z.(.~.U.v.%.X.p e e e e j s j p e + N '._.8 C ! j t _.+X+X+X",
"+X+X+X+X+X+X+X+X+X+X+X+X+X+X+X3.j j M e l.U.3.J.~.F.l.F =.+X+X_.$.p j C D C n e 5 1 ; & $ & $ $ + + @ + P W.+X~.5 j m j 3 _.+X+X+X",
"+X+X+X+X+X+X+X+X+X+X+X+X+X+X+X_.G.J.J. .>.A.@.V.C.x.x.M w.+X+X+X_.S.J.J.G.G.G.S.S.M.M.M.M.S.M.M.M.S.G.M._.+X~.J 5 k s e t _.+X+X+X",
"+X+X+X+X+X+X+X+X+X+X+X+X+X+X+X+X+X+X+X~.,.@.D `  .} F i.+X+X+X+X+X+X+X+X+X+X+X+X+X+X+X+X+X+X+X+X+X+X+X+X+X+XH.& M ! ! e , _.+X+X+X",
"+X+X+X+X+X+X+X+X+X+X+X+X+X+X+X+X+X+X+X+X_.~.^.~.~.~.~._.+X+X+X+X+X+X+X+X+X+X+X+X+X+X+X+X+X+X+X+X+X+X+X_.+X_.n m C W W D M.+X+X+X+X",
"+X+X+X+X+X+X+X+X+X+X+X+X+X+X+X+X+X+X+X+X+X+X+X+X+X+X+X+X+X+X+X+X+X+X+X+X+X+X+X+X+X+X+X+X+X+X+X+X+X+X+X+X~.J 1 m F ` C e +X+X+X+X+X",
"+X+X+X+X+X+X+X+X+X+X+X+X+X+X+X+X+X+X+X+X+X+X+X+X+X+X+X+X+X+X+X+X+X+X+X+X+X+X+X+X+X+X*.J } _.+X+X+XW.N J N , D W ) F M n.+X+X+X+X+X",
"+X+X+X+X+X+X+X+X+X+X+X+X+X+X+X+X+X+X+X+X+X+X+X+X+X+X+X+X+X+X+X+X+X+X+X+X+X+X+X+X+X;.+   + n N N C j - 8 4 k F W W t G.+X+X+X+X+X+X",
"+X+X+X+X+X+X+X+X+X+X+X+X+X+X+X+X+X+X+X+X+X+X+X+X+X+X+X+X+X+X+X+X+X+X+X+X+X+X+X+X+XN + 3 , + - 8 p a k ) ` V Z M m M.+X+X+X+X+X+X+X",
"+X+X+X+X+X+X+X+X+X+X+X+X+X+X+X+X+X+X+X+X+X+X+X+X+X+X+X+X+X+X+X+X+X+X+X+X+X+X+X+X+XJ   , , , 5 k F W d S R m 8 t N.+X+X+X+X+X+X+X+X",
"+X+X+X+X+X+X+X+X+X+X+X+X+X+X+X+X+X+X+X+X+X+X+X+X+X+X+X+X+X+X+X+X+X+X+X+X+X+X+X+X+X~.} + , > , 5 9 k t e t 3 w.W.+X+X+X+X+X+X+X+X+X",
"+X+X+X+X+X+X+X+X+X+X+X+X+X+X+X+X+X+X+X+X+X+X+X+X+X+X+X+X+X+X+X+X+X+X+X+X+X+X+X+X+X+X+Xn., , , , 3 t , *.+X~.+X+X+X+X+X+X+X+X+X+X+X",
"+X+X+X+X+X+X+X+X+X+X+X+X+X+X+X+X+X+X+X+X+X+X+X+X+X+X+X+X+X+X+X+X+X+X+X+X+X+X+X+X+X+X+X+X~.~.~.~.~.).~._.+X+X+X+X+X+X+X+X+X+X+X+X+X",
"+X+X+X+X+X+X+X+X+X+X+X+X+X+X+X+X+X+X+X+X+X+X+X+X+X+X+X+X+X+X+X+X+X+X+X+X+X+X+X+X+X+X+X+X+X+X+X+X+X+X+X+X+X+X+X+X+X+X+X+X+X+X+X+X+X",
"+X+X+X+X+X+X+X+X+X+X+X+X+X+X+X+X+X+X+X+X+X+X+X+X+X+X+X+X+X+X+X+X+X+X+X+X+X+X+X+X+X+X+X+X+X+X+X+X+X+X+X+X+X+X+X+X+X+X+X+X+X+X+X+X+X",
"+X+X+X+X+X+X+X+X+X+X+X+X+X+X+X+X+X+X+X+X+X+X+X+X+X+X+X+X+X+X+X+X+X+X+X+X+X+X+X+X+X+X+X+X+X+X+X+X+X+X+X+X+X+X+X+X+X+X+X+X+X+X+X+X+X"
};
