/* XPM */
static char *louis_collect[] = {
/* columns rows colors chars-per-pixel */
"80 73 206 2 ",
"   c #171719",
".  c #252423",
"X  c #2D2A25",
"o  c #2D2C2A",
"O  c #2B2725",
"+  c #312E2C",
"@  c #34322E",
"#  c #353532",
"$  c #393633",
"%  c #3B3A36",
"&  c #3D3C3A",
"*  c #373832",
"=  c #413F3B",
"-  c #463C26",
";  c #4B412B",
":  c #5D4B24",
">  c #44413D",
",  c #4B453A",
"<  c #454443",
"1  c #4A4742",
"2  c #4C4A45",
"3  c #4D4B49",
"4  c #474846",
"5  c #514C45",
"6  c #524E4A",
"7  c #55524C",
"8  c #5A554E",
"9  c #5D584F",
"0  c #555452",
"q  c #5A5652",
"w  c #5D5A54",
"e  c #5E5C59",
"r  c #60594F",
"t  c #63574C",
"y  c #645751",
"u  c #635D55",
"i  c #685F55",
"p  c #635E5A",
"a  c #745E58",
"s  c #68604B",
"d  c #656057",
"f  c #686155",
"g  c #66615B",
"h  c #6B645C",
"j  c #6E685E",
"k  c #71675F",
"l  c #71695E",
"z  c #666562",
"x  c #6B6761",
"c  c #6E6962",
"v  c #6D6D6C",
"b  c #716660",
"n  c #736C63",
"m  c #786E65",
"M  c #756F69",
"N  c #786F68",
"B  c #777066",
"V  c #797166",
"C  c #75716C",
"Z  c #7B746B",
"A  c #7F786E",
"S  c #757473",
"D  c #7A7672",
"F  c #7C7973",
"G  c #7D7C7B",
"H  c #857136",
"J  c #847955",
"K  c #817465",
"L  c #81766C",
"P  c #83796E",
"I  c #8B7D6F",
"U  c #847A67",
"Y  c #847C73",
"T  c #897E73",
"R  c #837E78",
"E  c #927F71",
"W  c #988347",
"Q  c #BC9E55",
"!  c #8C806E",
"~  c #878076",
"^  c #8C8275",
"/  c #85817C",
"(  c #8D847A",
")  c #8D887E",
"_  c #918476",
"`  c #91877B",
"'  c #938A7D",
"]  c #998D7E",
"[  c #9F9777",
"{  c #858483",
"}  c #8A8783",
"|  c #8D8981",
" . c #8D8D8A",
".. c #958C81",
"X. c #998E82",
"o. c #908F8C",
"O. c #969084",
"+. c #9B9284",
"@. c #95928D",
"#. c #9D9589",
"$. c #9E988D",
"%. c #959493",
"&. c #999693",
"*. c #9C9A94",
"=. c #9C9C9B",
"-. c #A29384",
";. c #A1968A",
":. c #A39A8D",
">. c #AB9B8C",
",. c #A99587",
"<. c #A59D92",
"1. c #A89E93",
"2. c #A39F9B",
"3. c #9FA09F",
"4. c #A7A094",
"5. c #AAA295",
"6. c #A6A29B",
"7. c #ADA59A",
"8. c #AEA89D",
"9. c #B4A494",
"0. c #B4A599",
"q. c #B2AA9E",
"w. c #BAA699",
"e. c #A09FA0",
"r. c #A4A4A3",
"t. c #ADAAA4",
"y. c #A7A7A8",
"u. c #ABABAA",
"i. c #B4ADA1",
"p. c #B9AEA4",
"a. c #B2AFAA",
"s. c #B7B0A4",
"d. c #B9B2A6",
"f. c #BCB5AA",
"g. c #BFB8AD",
"h. c #B4B2AD",
"j. c #B4B4B3",
"k. c #BBB9B4",
"l. c #BCBCBB",
"z. c #B7B8B7",
"x. c #C0AC9F",
"c. c #C1B3A6",
"v. c #C2BAAE",
"b. c #C4BDB2",
"n. c #C6BFB6",
"m. c #BFC0BE",
"M. c #C6C0B5",
"N. c #CAC2B5",
"B. c #C3C1BB",
"V. c #CCC4BA",
"C. c #CFC8BE",
"Z. c #D3CBBD",
"A. c #D0C7BE",
"S. c #C4C4C3",
"D. c #C8C7C5",
"F. c #CDCAC4",
"G. c #CDCDCB",
"H. c #D5CDC2",
"J. c #CFD0CD",
"K. c #DDD5CA",
"L. c #DDD8CD",
"P. c #DAD1C3",
"I. c #D4D4D2",
"U. c #D8D7D5",
"Y. c #DAD9D6",
"T. c #DCDCDB",
"R. c #E1D9CC",
"E. c #E4DED3",
"W. c #E1DDD8",
"Q. c #E5E1D6",
"!. c #E4E1DC",
"~. c #EAE5DC",
"^. c #EBE5D8",
"/. c #E4E3E2",
"(. c #EAE9E6",
"). c #EAEAEA",
"_. c #ECEDEB",
"`. c #ECECEC",
"'. c #E8E7E5",
"]. c #F2EEE4",
"[. c #F0EFED",
"{. c #EFF0EE",
"}. c #F2F1ED",
"|. c #F6F3EA",
" X c #EFEFF0",
".X c #EFF1F0",
"XX c #F4F4F3",
"oX c #F8F7F5",
"OX c #F8F9F7",
"+X c #FBFBFB",
"@X c #FAFAFA",
"#X c #F9F9F9",
"$X c #FBFCFB",
"%X c #FCFCFC",
"&X c #FDFDFD",
"*X c #FCFCFD",
"=X c #FEFEFD",
"-X c #FEFEFC",
";X c #FDFFFE",
":X c #FDFEFE",
">X c #FF00FF",
",X c #FFFFFF",
"<X c #FEFFFE",
"1X c #FCFEFD",
"2X c #FEFEFE",
"3X c #F8F8F7",
/* pixels */
">X>X>X>X>X>X>X>X>X>X>X>X>X>X>X>X>X>X>X>X>X>X>X>X>X>X>X>X>X>X>X>X>X>X>X>X>X>X>X>X>X>X>X>X>X>X>X>X>X>X>X>X>X>X>X>X>X>X>X>X>X>X>X>X>X>X>X>X>X>X>X>X>X>X>X>X>X>X>X>X",
">X>X>X>X>X>X>X>X>X>X>X>X>X>X>X>X>X>X>X>X>X>X>X>X>X>X>X>X>X>X>X>X>X>X>X>X>X>X>X>X>X>X>X>X>X>X>X>X>X>X>X>X>X>X>X>X>X>X>X>X>X>X>X>X>X>X>X>X>X>X>X>X>X>X>X>X>X>X>X>X",
">X>X>X>X>X>X>X>X>X>X>X>X>X>X>X>X>X>X>X>X>X>X>X>X>X>X>X>X>X>X>X>X>X>X>X>X>X>X>X>X>X>X>X>X>X>X>X>X>X>X>X>X>X>X>X>X>X>X>X>X>X>X>X>X>X>X>X>X>X>X>X>X>X>X>X>X>X>X>X>X",
">X>X>X>X>X>X>X>X>X>X>X>X>X>X>X>X>X>X>X>X>X>X>X>X>X>X>X>X>X>X>X>X>X>X>X>X>X>X>X>X>X>X>X>X>X>X>X>X>X>X>X>X>X>X>X>X>X>X>X>X>X>X>X>X>X>X>X>X>X>X>X>X>X>X>X>X>X>X>X>X",
">X>X>X>X>X>X>X>X>X>X>X>X>X>Xz.0 v D G S y.>X>X>X>X>X>X>X>X>X>X>X>X>X>X>X>X>X>X>X>X>X>X>X>X>X>X>X>X>X>X>X>X>X>X>X>X>X>X>X>X>X>X>X>X>X>X>X>X>X>X>X>X>X>X>X>X>X>X>X",
">X>X>X>X>X>X>X>X>X>X>X>Xz.z 3 . o + # o & r.>X>X>X>X>X>X>X>X>X>X>X>X>X>X>X>X>X>X>X>X>X>X>X>X>X>X>X>X>X>X>X>X>X>X>X>X>X>X>X>X>X>X>X>X>X>X>X>X>X>X>X>X>X>X>X>X>X>X",
">X>X>X>X>X>X>X>X>X>X>X>XS O = 6 2 = < 3 . v >X>X>X>X>X>X>X>X>X>X>X>X>X>X>X>X>X>X>X>X>X>X>X>X>X>X>X>X>X>X>X>X>X>X>X>X>X>X>X>X>X>X>X>X>X>X>X>X>X>X>X>X>X>X>X>X>X>X",
">X>X>X>X>X>X>X>X>X>X_.{ C w 6 q 3 # o . 3 U.>X>X>X>X>X>X>X>X>X>X>X>X>X>X>X>X>X>X>X>X>X>X>X>X>X>X>X>X>X>X>X>X>X>X>X>X>X>X>X>X>X>X>X>X>X>X>X>X>X>X>X>X>X>X>X>X>X>X",
">X>X>X>X>X>X>X>X>X/.D p #.b 6 1 & e G z r.>X>X>X>X>X>X>X>X>X>X>X>X>X>X>X>X>X>X>X>X>X>X>X>X>X>X>X>X>X>X>X>X>X>X>X>X>X>X>X>X>X>X>X>X>X>X>X>X>X>X>X>X>X>X>X>X>X>X>X",
">X>X>X>X>X>X>X>X>Xz.1 Z m B p #   y.>X>X>X>X>X>X>X>X>X>X>X>X>X>X>X>X>X>X>X>X>X>X>X>X>X>X>X>X>X>X>X>X>X>X>X>X>X>X>X>X>X>X>X>X>X>X>X>X>X>X>X>X>X>X>X>X>X>X>X>X>X>X",
">X>X>X>X>X>X>X>X>XG.q m r h $ { G./.>X>X>X>X>X>X>X>X>X>X>X>X>X>X>X>X>X>X>X>X>X>X>X>X>X>X>X>X>X>X>X>X>X>X>X>X>X>X>X>X>X>X>X>X>X>X>X>X>X>X>X>X>X>X>X>X>X>X>X>X>X>X",
">X>X>X>X>X>X>X>XS.M ( T h q < z.>X>X>X>X>X>X>X>X>X>X>X>X>X>X>X>X>X>X>X>X>X>X>X>X>X>X>X>X>X>X>X>X>X>X>X>X>X>X>X>X>X>X>X>X>X>X>X>X>X>X>X>X>X>X>X>X>X>X>X>X>X>X>X>X",
">X>X>X>X>X>X>X>Xz.6 1.' b o o.>X>X>X>X>X>X>X>X>X>X>X>X>X>X>X>X>X>X>X>X>X>X>X>X>X>X>X>X>X>X>X>X>X>X>X>X>X>X>X>X>X>X>X>X>X>X>X>X>X>X>X>X>X>X>X>X>X>X>X>X>X>X>X>X>X",
">X>X>X>X>X>X>X_.G 7 b b 2 &.XX>X>X>X>X>X>X>X>X>X>X>X>X>X>X>X>X>X>X>X>X>X>X>X>X>X>X>X>X>X>X>X>X>X>X>X>X>X>X>X>X>X>X>X>X>X>X>X>X>X>X>X>X>X>X>X>X>X>X>X>X>X>X>X>X>X",
">X>X>X>X>X>X>XD.6 ~ i 6 + z.>X>X>X>X>X>X>X>X>X>X>X>X>X>X>X>X>X>X>X>X>X>X>X>X>X>X>X>X>X>X>X>X>X>X>X>X>X>X>X>X>X>X>X>X>X>X>X>X>X>X>X>X>X>X>X>X>X>X>X>X>X>X>X>X>X>X",
">X>X>X>X>X>X>XU.g ;.` b $ y.>X>X>X>X>X>X>X>X>X>X>X>X>X>X>X>X>X>X>X>X>X>X>X>X>X>X>X>X>X>X>X>X>X>X>X>X>X>X>X>X>X>X>X>X>X>X>X>X>X>X>X>X>X>X>X>X>X>X>X>X>X>X>X>X>X>X",
">X>X>X>X>X>X>XY.p ....Y = r.>X>X>X>X>X>X>X>X>X>X>X>X>X>X>X>X>X>X>X>X>X>X>X>X>X>X>X>X>X>X>X>X>X>X>X>X>X>X>X>X>X>X>X>X>X>X>X>X>X>X>X>X>X>X>X>X>X>X>X>X>X>X>X>X>X>X",
">X>X>X>X>X>X>XY.g Y f h $ 3.>X>X>X>X>X>X>X>X>X>X>X>X>X>X>X>X>X>X>X>X>X>X>X>X>X>X>X>X>X>X>X>X>X>X>X>X>X>X>X>X>X>X>X>X>X>X>X>X>X>X>X>X>X>X>X>X>X>X>X>X>X>X>X>X>X>X",
">X>X>X>X>X>X>XY.g ~ f 8 @ =.>X>X>X>X>X>X>X>X>X>X>X>X>X>X>X>X>X>X>X>X>X>X>X>X>X>X>X>X>X>X>X>X>X>X>X>X>X>X>X>X>X>X>X>X>X>X>X>X>X>X>X>X>X>X>X>X>X>X>X>X>X>X>X>X>X>X",
">X>X>X>X>X>X>XT.g ~ Y Y 1 =.>X>X>X>X>X>X>X>X>X>X>X>X>X>X>X>X>X>X>X>X>X>X>X>X>X>X>X>X>X>X>X>X>X>X>X>X>X>X>X>X>X>X>X>X>X>X>X>X>X>X>X>X>X>X>X>X>X>X>X>X>X>X>X>X>X>X",
">X>X>X>X>X>X>XU.0 ( ( T i g U.>X>X>X>X>X>X>X>X>X>X>X>X>X>X>X>X>X>X>X>X>X>X>X>X>X>X>X>X>X>X>X>X>X>X>X>X>X>X>X>X>X>X>X>X>X>X>X>X>X>X>X>X>X>X>X>X>X>X>X>X>X>X>X>X>X",
">X>X>X>X>X>X>X_.~ Z ( i i % v {.>X>X>X>X>X>X>X>X>X>X>X>X>X>X>X>X>X>X>X>X>X>X>X>X>X>X>X>X>X>X>X>X>X>X>X>X>X>X>X>X>X>X>X>X>X>X>X>X>X>X>X>X>X>X>X>X>X>X>X>X>X>X>X>X",
">X>X>X>X>X>X>X>XU.w ( B Z x # &.>XXX>X>X>X>X>X>X>X>X_._._._._._._._._._._._._.>X>X>X>X>X>X>X>X>X>X>X>X>X>X>X>X>X>X>X>X>X>X>X>X>X>X>X>X>X>X>X>X>X>X>X>X>X>X>X>X>X",
">X>X>X>X>X>X>X>XS.2 Y #.' h 1 0 z.>X>X>X>X>X>X>X>X_.< < 4 3 < < < < < < < & v >X>X>X>X>X>X>X>X>X>X>X>X>X>X>X>X>X>X>X>X>X>X>X>X>X>X>X>X>X>X>X>X>X>X>X>X>X>X>X>X>X",
">X>X>X>X>X>X>X>X_.&.c ` Z Z h % < =.>X>X>X>X_.S { S & > 2 < 2 3 3 2 1 1 7 2 q G F XX>X>X>X>X>X>X>X>X>X>X>X>X>X>X>X>X>X>X>X>X>X>X>X>X>X>X>X>X>X>X>X>X>X>X>X>X>X>X",
">X>X>X>X>X>X>X>X>XG.1 Y Z k h g 2 & {  .{ } v # % = 7 7 2 5 7 w 8 8 8 5 w q 8 = # { *.o.T.>X>X>X>X>X>X>X>X>X>X>X>X>X>X>X>X>X>X>X>X>X>X>X>X>X>X>X>X>X>X>X>X>X>X>X",
">X>X>X>X>X>X>X>X>X/. .8 Z b B h x q % o o . @ 7 8 i i i g p w i q 8 8 5 i h i i 7 $ @ X C =.!.>X>X>X>X>X>X>X>X>X>X>X>X>X>X>X>X>X>X>X>X>X>X>X>X>X>X>X>X>X>X>X>X>X",
">X>X>X>X>X>X>X>X>X>X>X*.1 ~ Y b h g 7 = < 2 6 h C f i h c F h c p 8 i i h f r 9 g p 6 7 1 @ z z.>X>X>X>X>X>X>X>X>X>X>X>X>X>X>X>X>X>X>X>X>X>X>X>X>X>X>X>X>X>X>X>X",
">X>X>X>X>X>X>X>X>X>X>X>X} i ..Y Z w > 1 8 g b B Z h i k Z ( Z h i i b b h i 8 r g p w 7 7 q % 2 &.>X>X>X>X>X>X>X>X>X>X>X>X>X>X>X>X>X>X>X>X>X>X>X>X>X>X>X>X>X>X>X",
">X>X>X>X>X>X>X>X>X>X>X>X3X~ i Z i 2 2 q g h b b j w p b T j h g h B Z h g i i i i h g g 8 2 q 2 % z z.>X>X>X>X>X>X>X>X>X>X>X>X>X>X>X>X>X>X>X>X>X>X>X>X>X>X>X>X>X",
">X>X>X>X>X>X>X>X>X>X>X>X>XS.< 2 2 $ q g g h h B P h i h P j p g h b Z b i w g h h h g p p q 2 2 7 $ 3 z.>X>X>X>X>X>X>X>X>X>X>X>X>X>X>X>X>X>X>X>X>X>X>X>X>X>X>X>X",
">X>X>X>X>X>X>X>X>X>X>X>X>X>Xz.e # & 7 g c h b ( Y b i L L P x p g b Y B f i b Y b p p p g p q 8 6 7 % 3 S.>X>X>X>X>X>X>X>X>X>X>X>X>X>X>X>X>X>X>X>X>X>X>X>X>X>X>X",
">X>X>X>X>X>X>X>X>X>X>X>X>X>X>Xz.. 1 q g Z j Z ' ^ j h P K P h h h Z ^ h b Y P P B h x h p p i w 2 2 7 = & z.>X>X>X>X>X>X>X>X>XoXXXOX>X>X>X>X>X>X>X>X>XOXOX>X>X>X",
">X>X>X>X>X>X>X>X>X>X>X>X>X>X>Xr.o 6 p h h h ` _ ^ g i L ^ P h Y ` ^ P i Z ^ ! T h Z Z b h h h i 7 6 7 7 = > z.>X>X>X>X>X>X>X6.D M @.>X>X>X>X>X>X>XXXXX .D (.>X>X",
">X>X>X>X>X>X>X>X>X>X>X>X>X>Xr.# 7 w b ^ b g P _ Y h M P ] Z b ^ _ P b b ^ I I B b Y l P Z h c i 8 2 = 3 3 > & U.XX X_._.[.&.b ..) ~ >X>X>X>X>X>X>X&.q ~ R '.>X>X",
">X>X>X>X>X>X>X>X>X>X>X>X>X>Xr.o w p B ( b q h ( Y l Y P ' b P _ ( b A ^ P ^ P l ^ ^ ^ ( N h h i w 6 > 1 2 < > & < < < < w L ;.p.0.C q 0 0 q w z C x ~ C n.>X>X>X",
">X>X>X>X>X>X>X>X>X>X>X>X>X>Xr.$ g p Z ^ Z h i Y ^ T Z l ' b P ' P b ^ ^ ^ P b ^ _ ^ ^ ^ b h h g i i i w 6 2 < > = > & > l X.0.c.q.b % > 3 6 6 w g C ~ ~ _.>X>X>X",
">X>X>X>X>X>X>X>X>X>X>X>X>X>Xr.% z e Z ( Y b i h P T P l X.Z ^ ^ b b ^ ' ^ Z l ` _ T P Z c h h h B P Z h x g p p w w 7 h ] ,.w.c.5.j 6 g x x z c b ( v _.>X>X>X>X",
">X>X>X>X>X>X>X>X>X>X>X>X>X>Xr.= c e Z ( h c Y Z h ^ Y b ` ..X.l Z X.X.#.B Z ..' ^ m b ( Y P h b Y T B b F h b Z Z g p Y ,.9.x.0.:.l 7 g g g g i Y M /.>X>X>X>X>X",
">X>X>X>X>X>X>X>X>X>X>X>X>X>Xr.& c e Z ( x h Z Y i Z Y h _ #.] b Z #.#.' B P #.' Z B ' ' B f B T I I B h Z ^ ( ' ^ b c ^ ,.>.,.,.#.B Y h p g h h ( C _.>X>X>X>X>X",
">X>X>X>X>X>X>X>X>X>X>X>X>X>Xr.& x p C ( x g h ( Z f ` ^ ^ ] #.( ^ ' #.B ^ ;.:.^ B ' X.T P P I I ^ ^ P b b ' #.^ Z i h ' _ E ] 9.9.' ' l b g g h ( D _.>X>X>X>X>X",
">X>X>X>X>X>X>X>X>X>X>X>X>X>Xr.% z e c R Y c h P L m ^ ^ P ' ' #.#.#.#.B ` >.;.' ' ' _ ' ^ I I I T Z P P B #.#.^ Z i h ..T _ >.>.,.#.] ' Y g g w ` R  X>X>X>X>X>X",
">X>X>X>X>X>X>X>X>X>X>X>X>X>Xr.& z g g b ^ Z b ' T Z ^ ` ..^ h ' :.:.A ~ #.;.#.( Y P T ' ^ I I ^ l b ( ^ ..;.#.^ L h i h m ` #.X.] ] ] X.Z Z w x ( F {.>X>X>X>X>X",
">X>X>X>X>X>X>X>X>X>X>X>X>X>Xr.& c D b B T T b ' ^ h ^ #.#...h ..:.:.B ( :.;.#.' X.' ^ T Y Y I ^ l B ( ' :.#.` Y ( Y Y Y T ......] ] ] ..h Z w D b C G XX>X>X>X>X",
">X>X>X>X>X>X>X>X>X>X>X>X>X>Xr.# w Z Y Z L ( ( ' ^ f ` :.5.4.c ..:.<.A ' <.:.:.#.#.' ^ Y b l P ( b b ^ ' <.#.` ' ' ' ' X.X.' ' ' ;.4.' ( g Y i Y h ~ p XX>X>X>X>X",
">X>X>X>X>X>X>X>X>X>X>X>X>X>Xr.% p Z Y P P ( ) ' ` b ^ ;.q.5.b ..5.5...#.<.<.:.' ^ ' B b x b ^ ^ ~ P P ..<.#.' ' ' ' ' ' ........<.5.:.<.h ( b Y ( | e XX>X>X>X>X",
">X>X>X>X>X>X>X>X>X>X>X>X>X>Xr.$ g C c M ( Y h b ....' #.i.d.X.#.q.<.<.1.<.<.:.' ( B q g h Z ( ^ ' Y B ..<...' ` ' ' ......( B B j f P 4.4.X.` ' R S C XX>X>X>X>X",
">X>X>X>X>X>X>X>X>X>X>X>X>Xe.3 e g x g g Z ^ j i ) #.#.#.i.g.:...q.5.<.5.5.1.<...j i p g h Z ( ^ ( ..P ( <...` i g h f f f h ( #.i W : ; N.<.` X.- h >X>X>X>X>X>X",
">X>X>X>X>X>X>X>X>X>XXX&.z < 3 c g Z Y c h ' ` Z j #.#.:.g.n.g.i.g.5.4.g.5.<.<...2 q b g c Z P B ^ #.Y ^ <.#.Y h x M ( ..' ..' ' ,.Q H ; f 0.X.K H [ >X>X>X>X>X>X",
">X>X>X>X>X>X>X>X>XG.2 = < 7 g p b ( ..' B Z ..' h Z :.4.i.g.M.i.g.d.q.g.4.4.( 7 q i c ~ ' ` ( Y ^ #.T Y <...h ( Z Z #.:.:.#.' T P J J s t ;.` l ; D.>X>X>X>X>X>X",
">X>X>X>X>X>X>X>XT.M & p g x c p b T ^ X.P h ' #...l #.i.i.d.N.i.g.n.d.5.i.8.C 2 x g c Y Y P T ` ( #._ Z ' 5.( b ..B b b b b P ^ P ..4.4.Y T ;.B # G.>X>X>X>X>X>X",
">X>X>X>X>X>X>X>Xz.@ C c i x Z h h h b P ..B b #.4.#...i.d.N.V.8.d.N.N.g.v.Y 5 g h g h h h h b B P #.#.T ` q.5.A ( #.X.( #.<.^ #.p.g.d.d.4.` ,.T 1 U.>X>X>X>X>X>X",
">X>X>X>X>X>X>X>Xr.2 Y Z B b Y Z p x c Z $.^ h #.<.<.5.i.g.A.V.:.<.g.n.i.d.h 7 h h b ( ....#.P B L ^ #.#.#.g.d.i.( ( #...#.<.q.v.R.R.Z.P.Q.L a y a.>X>X>X>X>X>X>X",
">X>X>X>X>X>X>XS.3 Z h l ( ` ` ( Y Z c A :.:.( P :.4.q.n.V.V.g.b P 5.g.q.d.g 8 l ^ ..' T b ( $.O.Z P #.#.:.n.Z.Z.V.( ^ X.;.p.P.Z.Z.K.N.H.Q.E.b m (.>X>X>X>X>X>X>X",
">X>X>X>X>X>X>XS.6 Y b b B ( ' X.:.#...B ..d.4.' :.4.d.V.n.5.Z 7 2 Z <.4.5.9 b ' ' ..Y l i i h i p b Z ^ 4.M.N.N.N.s.<.Y :.H.<.g.K.N.N.Z.L.!.c G.>X>X>X>X>X>X>X>X",
">X>X>X>X>X>X>XJ.5 ....( l g C ) O.#.:.' #.q.g.g.d.v.i...( h 8 8 i i h ^ ) 9 B ' Y h i h Y T T ' Z 8 j A #.q.v.n.v.q.4.n.F } W.!...i.b.Z.5.g G.>X>X>X>X>X>X>X>X>X",
">X>X>X>X>X>X_.F Z #.;.:.<.Z 7 w c ) ) #.$.#.i.d.q.5.( 8 h i b b h g 7 w g 7 b Y k i h ^ :.:.,.;.4.A 5 b ( ' ..$.4.4.5.F D.oX>X>X/.@.Y Y a._.>X>X>X>X>X>X>X>X>X>X",
">X>X>X>X>X>XT.2 $.i.5.q.O.t.XX_.OXo.% 7 8 i Y ^ b 5 7 2 6 q y w g 3 &.>XB.& 2 i f Y ' ' X.' T ^ #.<.Z 5 q 8 8 p h h b U.>X>X>X>X>X(./.(.XX>X>X>X>X>X>X>X>X>X>X>X",
">X>X>X>X>X>X/.8 #.q.5.d.O.z.>X>X>X>Xr.* 7 8 c Z 9 p  X_.G 0 x g S.>X>X>X>XT.F > j ..#.' Z i b ..#.:.4.b 2 6 6 h Z c , z.>X>X>X>X>X>X>X>X>X>X>X>X>X>X>X>X>X>X>X>X",
">X>X>X>X>X>X/.7 8.N.n.M.@.z.>X>X>X>XB.% c j c b 7 z >X>XOXOX>X>X>X>X>X>X>X>X>X} , b T Z f h ( 4.` ' <.$.i 2 7 h Z ^ Y 2 Y.>X>X>X>X>X>X>X>X>X>X>X>X>X>X>X>X>X>X>X",
">X>X>X>X>X>X!.p V.E.L.L.$.z.>X>X>X>Xz.% C j h Z 8 z >X>X>X>X>X>X>X>X>X>X>X>X>X>Xz.e i c h Y #...' #.:.<.#.7 8 Z P ^ ;.B c >X>X>X>X>X>X>X>X>X>X>X>X>X>X>X>X>X>X>X",
">X>X>X>X>X/.D t.E.E.Q.].5.z.>X>X>X>Xz.@ b Y Z ..A ..>X>X>X>X>X>X>X>X>X>X>X>X>X>X>X/.z + 8 ( ( ^ ^ ..:.#.:.) w i B ^ X.#.Z &.>X>X>X>X>X>X>X>X>X>X>X>X>X>X>X>X>X>X",
">X>X>X>X>XY.7 i.E.Q.E.~.6.z.>X>X>X>XXXy.8 ..' #.' ~ ~ *.>X>X>X>X>X>X>X>X>X>X>X>X>X>XT.G.} > 8 Y ..#.#.#...4.#.8 i b ..#.:.i *.>XXXOX>X>X>X>X>X>X>X>X>X>X>X>X>X>X",
">X>X>X>X>X_.#.q.Q.Q.Q.].*.z.>X>X>X>X>XU.> ' ] ,.#.' ....6.XX>X>X>X>X>X>X>X>X>X>X>X>X>X>X!.G.@.> c #.#.X.q.d.d.i.g.i.b X.1.:.~ #.*.6.|.>X>X>X>X>X>X>X>X>X>X>X>X>X",
">X>X>X>X>X>XW.4.^.^.n.D.6.z.>X>X>X>X>XXXt.8 ..' <.q.#.#.Y *.>X>X>X>X>X>X>X>X>X>X>X>X>X>X>X>X_.T.&.6 A 4.d.M.K.!.^.E.V.( X.d.H.H.K.V.@.XX>X>X>X>X>X>X>X>X>X>X>X>X",
">X>X>X>X>X>XY.<.].|.z.F h./.>X>X>X>X>X>X>Xo.8 #.5.i.O.' | { >X>X>X>X>X>X>X>X>X>X>X>X>X>X>X>X>X>X_.z.F Y g.C.].|.^.5.].( ( n.^.^.i.H.| |.>X>X>X>X>X>X>X>X>X>X>X>X",
">X>X>X>X>X>XXXB.*.*.2.S.'.>X>X>X>X>X>X>X>XOXt.h b b c i F T.>X>X>X>X>X>X>X>X>X>X>X>X>X>X>X>X>X>X>X>XT.*.<.i.n.B.g.Y z.D Y <.g.g.( 8.} |.>X>X>X>X>X>X>X>X>X>X>X>X",
">X>X>X>X>X>X>XXXS.z.U.>X>X>X>X>X>X>X>X>X>X>X>XU.U.Y.T.T./.>X>X>X>X>X>X>X>X>X>X>X>X>X>X>X>X>X>X>X>X3X>XU.F ..| ( ~ ~ F ~ } | | | | F ~ |.>X>X>X>X>X>X>X>X>X>X>X>X",
">X>X>X>X>X>X>X>X>X>X>X>X>X>X>X>X>X>X>X>X>X>X>X>X>X>X>X>X>X>X>X>X>X>X>X>X>X>X>X>X>X>X>X>X>X>X>X>X>X>X>X>XOX>X>X>X>X>X>X>X>X>X>X>XOXXX_.>X>X>X>X>X>X>X>X>X>X>X>X>X",
">X>X>X>X>X>X>X>X>X>X>X>X>X>X>X>X>X>X>X>X>X>X>X>X>X>X>X>X>X>X>X>X>X>X>X>X>X>X>X>X>X>X>X>X>X>X>X>X>X>X>X>X>X>X>X>X>X>X>X>X>X>X>X>X>X>X>X>X>X>X>X>X>X>X>X>X>X>X>X>X",
">X>X>X>X>X>X>X>X>X>X>X>X>X>X>X>X>X>X>X>X>X>X>X>X>X>X>X>X>X>X>X>X>X>X>X>X>X>X>X>X>X>X>X>X>X>X>X>X>X>X>X>X>X>X>X>X>X>X>X>X>X>X>X>X>X>X>X>X>X>X>X>X>X>X>X>X>X>X>X>X",
">X>X>X>X>X>X>X>X>X>X>X>X>X>X>X>X>X>X>X>X>X>X>X>X>X>X>X>X>X>X>X>X>X>X>X>X>X>X>X>X>X>X>X>X>X>X>X>X>X>X>X>X>X>X>X>X>X>X>X>X>X>X>X>X>X>X>X>X>X>X>X>X>X>X>X>X>X>X>X>X",
">X>X>X>X>X>X>X>X>X>X>X>X>X>X>X>X>X>X>X>X>X>X>X>X>X>X>X>X>X>X>X>X>X>X>X>X>X>X>X>X>X>X>X>X>X>X>X>X>X>X>X>X>X>X>X>X>X>X>X>X>X>X>X>X>X>X>X>X>X>X>X>X>X>X>X>X>X>X>X>X"
};
