/* XPM */
static char *louis_walk_left[] = {
/* columns rows colors chars-per-pixel */
"80 80 198 2 ",
"   c #2D2E2D",
".  c #312F2A",
"X  c #363533",
"o  c #393732",
"O  c #3B3A34",
"+  c #3C3B39",
"@  c #413E39",
"#  c #433F37",
"$  c #3D403F",
"%  c #594F2D",
"&  c #43423C",
"*  c #49453D",
"=  c #444441",
"-  c #4A4741",
";  c #4B4A44",
":  c #4E4D4A",
">  c #474843",
",  c #504D46",
"<  c #524E49",
"1  c #55524C",
"2  c #59564D",
"3  c #5D594F",
"4  c #555552",
"5  c #5B5751",
"6  c #5D5A53",
"7  c #5D5C59",
"8  c #695C49",
"9  c #625D55",
"0  c #625F5A",
"q  c #636056",
"w  c #696257",
"e  c #65615A",
"r  c #6A655C",
"t  c #6D695E",
"y  c #726B5E",
"u  c #786D5E",
"i  c #776B55",
"p  c #6B6761",
"a  c #6D6962",
"s  c #6D6D6A",
"d  c #626362",
"f  c #736D63",
"g  c #786F62",
"h  c #716E6B",
"j  c #6E706E",
"k  c #767065",
"l  c #7A7366",
"z  c #73716B",
"x  c #7C756A",
"c  c #7E796C",
"v  c #767573",
"b  c #7B7671",
"n  c #7F7B73",
"m  c #7C7C7B",
"M  c #927D39",
"N  c #807867",
"B  c #80776B",
"V  c #837B6D",
"C  c #897E6F",
"Z  c #857D71",
"A  c #897F71",
"S  c #827F78",
"D  c #908139",
"F  c #88806E",
"G  c #91876F",
"H  c #868174",
"J  c #8B8375",
"K  c #8F8877",
"L  c #84827D",
"P  c #8D857A",
"I  c #8E897B",
"U  c #908577",
"Y  c #91877B",
"T  c #938A7C",
"R  c #998F7E",
"E  c #A89D79",
"W  c #CCB84F",
"Q  c #858483",
"!  c #8D8781",
"~  c #8D8B85",
"^  c #8C8C8C",
"/  c #958D81",
"(  c #988F82",
")  c #908E89",
"_  c #969083",
"`  c #9B9385",
"'  c #94938C",
"]  c #9D968A",
"[  c #9F988C",
"{  c #929391",
"}  c #9C9C9B",
"|  c #9C9791",
" . c #A0978A",
".. c #A39B8D",
"X. c #A89E8E",
"o. c #A09786",
"O. c #A59D91",
"+. c #A89F92",
"@. c #A6A194",
"#. c #ABA295",
"$. c #A4A29C",
"%. c #ACA69A",
"&. c #ADA89D",
"*. c #B0A79A",
"=. c #B2AA9D",
"-. c #B3A394",
";. c #A9A7A5",
":. c #A7A8A7",
">. c #ABAAA6",
",. c #A7A9A8",
"<. c #ADADAB",
"1. c #A2A2A0",
"2. c #B4ADA1",
"3. c #BAAFA5",
"4. c #B0AFAE",
"5. c #AFB0AE",
"6. c #B6B1A5",
"7. c #BAB3A5",
"8. c #B3B0AB",
"9. c #BCB5AA",
"0. c #BEB9AC",
"q. c #BDB8A6",
"w. c #AFB2B2",
"e. c #B4B4B3",
"r. c #B9B7B3",
"t. c #B7B8B4",
"y. c #BBB9B4",
"u. c #BCBCBA",
"i. c #C1B8A6",
"p. c #C3BCAF",
"a. c #C8BFAD",
"s. c #C4BDB1",
"d. c #C6C1B4",
"f. c #CAC3B4",
"g. c #C3C2BC",
"h. c #CAC5BB",
"j. c #CECABF",
"k. c #D3CBBD",
"l. c #D7D0BE",
"z. c #BEBFC0",
"x. c #C4C4C3",
"c. c #CBCAC4",
"v. c #CBCCCA",
"b. c #D2CDC2",
"n. c #D0CECB",
"m. c #CED0CF",
"M. c #D6D1C5",
"N. c #D4D2CD",
"B. c #D9D4CA",
"V. c #DDD9CE",
"C. c #D8D2C6",
"Z. c #D3D4D2",
"A. c #DAD7D2",
"S. c #D6D8D6",
"D. c #DBDAD4",
"F. c #DCDDDC",
"G. c #E0DBCC",
"H. c #E2DDD3",
"J. c #E6E1D6",
"K. c #E8E2D6",
"L. c #E5E2DB",
"P. c #EAE5DB",
"I. c #E9E8DE",
"U. c #E4E4E4",
"Y. c #E7E8E7",
"T. c #EDE9E0",
"R. c #E7E9E8",
"E. c #EBEBEB",
"W. c #EFF0F1",
"Q. c #F2F2F2",
"!. c #F4F4F4",
"~. c #F7F8F7",
"^. c #FFFEF5",
"/. c #F7F8F8",
"(. c #FBFBFB",
"). c #F9F9F9",
"_. c #FBFCFB",
"`. c #FBFCFC",
"'. c #FCFDFC",
"]. c #FDFDFD",
"[. c #FCFDFC",
"{. c #FDFEFD",
"}. c #FDFFFD",
"|. c #FEFEFD",
" X c #FEFDFE",
".X c #FFFDFE",
"XX c #FDFEFE",
"oX c #FDFFFE",
"OX c #FEFEFE",
"+X c #FFFEFE",
"@X c #FEFFFE",
"#X c #FEFEFF",
"$X c #FFFEFF",
"%X c #FF00FF",
"&X c #FFFFFF",
"*X c #FFFFFE",
"=X c #FEFDFD",
"-X c #FEFEFE",
/* pixels */
"%X%X%X%X%X%X%X%X%X%X%X%X%X%X%X%X%X%X%X%X%X%X%X%X%X%X%X%X%X%X%X%X%X%X%X%X%X%X%X%X%X%X%X%X%X%X%X%X%X%X%X%X%X%X%X%X%X%X%X%X%X%X%X%X%X%X%X%X%X%X%X%X%X%X%X%X%X%X%X%X",
"%X%X%X%X%X%X%X%X%X%X%X%X%X%X%X%X%X%X%X%X%X%X%X%X%X%X%X%X%X%X%X%X%X%X%X%X%X%X%X%X%X%X%X%X%X%X%X%X%X%X%X%X%X%X%X%X%X%X%X%X%X%X%X%X%X%X%X%X%X%X%X%X%X%X%X%X%X%X%X%X",
"%X%X%X%X%X%X%X%X%X%X%X%X%X%X%X%X%X%X%X%X%X%X%X%X%X%X%X%X%X%X%X%X%X%X%X%X%X%X%X%X%X%X%X%X%X%X%X%X%X%X%X%X%X%X%X%X%X%X%X%X%X%X%X%X%X%X%X%X%X%X%X%X%X%X%X%X%X%X%X%X",
"%X%X%X%X%X%X%X%X%X%X%X%X%X%X%X%X%X%X%X%X%X%X%X%X%X%X%X%X%X%X%X%X%X%X%X%X%X%X%X%X%X%X%X%X%X%X%X%X%X%X%X%X%X%X%X%X%X%X%X%X%X%X%X%X%X%X%X%X%X%X%X%X%X%X%X%X%X%X%X%X",
"%X%X%X%X%X%X%X%X%X%X%X%X%X%X%X%X%X%X%X%X%X%X%X%X%X%X%X%X%X%X%X%X%X%X%X%X%X%X%X%X%X%X%X%X%X%X%X%X%X%X%X%X%X%X%X%X%X%X%X%X%X%X%X%X%X%X%X%X%X%X%X%X%X%X%X%X%X%X%X%X",
"%X%X%X%X%X%X%X%X%X%X%X%X%X%X%X%X%X%X%X%X%X%X%X%X%X%X%X%X%X%X%X%X%X%X%X%X%X%X%X%X%X%X%X%X%X%X%X%X%X%X%X%X%X%X%X%X%X%X%X%X%X%X%X%X%X%X%X%X%X%X%X%X%X%X%X%X%X%X%X%X",
"%X%X%X%X%X%X%X%X%X%X%X%X%X%X%X%X%X%X%X%X%X%X%X%X%X%X%X%X%X%X%X%X%X%X%X%X%X%X%X%X%X%X%X%X%X%X%X%X%X%X%X%X%X%X%X%X%X%X%X%X%X%X%X%X%X%X%X%X%X%X%X%X%X%X%X%X%X%X%X%X",
"%X%X%X%X%X%X%X%X%X%X%X%X%X%X%X%X%X%X%X%X%X%X%X%X%X%X%X%X%X%X%X%X%X%X%X%X%X%X%X%X%X%X%X%X%X%X%X%X%X%X%X%X%X%X%X%X%X%X%X%X%X%X%X%X%X%X%X%X%X%X%X%X%X%X%X%X%X%X%X%X",
"%X%X%X%X%X%X%X%X%X%X%X%X%X%X%X%X%X%X%X%X%X%X%X%X%X%X%X%X%X%X%X%X%X%X%X%X%X%X%X%X%X%X%X%X%X%X%X%X%X%X%X%X%X%X%X%X%X%X%X%X%X%X%X%X%X%X%X%X%X%X%X%X%X%X%X%X%X%X%X%X",
"%X%X%X%X%X%X%X%X%X%X%X%X%X%X%X%X%X%X%X%X%X%X%X%X%X%X%X%X%X%X%X%X%X%X%X%X%X%X%X%X%X%X%X%X%X%X%X%X%X%X%X%X%X%X%X%X%X%X%X%X%X%X%X%X%X%X%X%X%X%X%X%X%X%X%X%X%X%X%X%X",
"%X%X%X%X%X%X%X%X%X%X%X%X%X%X%X%X%X%X%X%X%X%X%X%X%X%X%X%X%X%X%X%X%X%X%X%X%X%X%X%X%X%X%X%X%X%X%X%X%X%X%X%X%X%X%X%X%X%X%X%X%X%X%X%X%X%X%X%X%X%X%X%X%X%X%X%X%X%X%X%X",
"%X%X%X%X%X%X%X%X%X%X%X%X%X%X%X%X%X%X%X%X%X%X%X%X%X%X%X%X%X%X%X%X%X%X%X%X%X%X%X%X%X%X%X%X%X%X%X%X%X%X%X%X%X%X%X%X%X%X%X%X%X%X%X%X%X%X%X%X%X%X%X%X%X%X%X%X%X%X%X%X",
"%X%X%X%X%X%X%X%X%X%X%X%X!.%X%X%X%X%X%X%X%X%X%X%X%X%X%X%X%X%X%X%X%X%X%X%X%X%X%X%X%X%X%X%X%X%X%X%X%X%X%X%X%X%X%X%X%X%X%X%X%X%X%X%X%X%X%X%X%X%X%X%X%X%X%X%X%X%X%X%X",
"%X%X%X%X%X%X%X%X<.m %XS.b ~ W.%X%X%X%X%X%X%X%X%X%X%X%X%X%X%X%X%X%X%X%X%X%X%X%X%X%X%X%X%X%X%X%X%X%X%X%X%X%X%X%X%X%X%X%X%X%X%X%X%X%X%X%X%X%X%X%X%X%X%X%X%X%X%X%X%X",
"%X%X%X%X%X%X%X%Xe.X e.R.! P | !.%X%X%X%X%X%X%X%X%X%X%X%X%X%X%X%X%X%X%X%X%X%X%X%X%X%X%X%X%X%X%X%X%X%X%X%X%X%X%X%X%X%X%X%X%X%X%X%X%X%X%X%X%X%X%X%X%X%X%X%X%X%X%X%X",
"%X%X%X%X%X%X%X%Xe.; s ~ 3.#.A $.%X%X%X%X%X%X%X%X%X%X%X%X%X%X%X%X%X%X%X%X%X%X%X%X%X%X%X%X%X%X%X%X%X%X%X%X%X%X%X%X%X%X%X%X%X%X%X%X%X%X%X%X%X%X%X%X%X%X%X%X%X%X%X%X",
"%X%X%X%X%X%X%X%X4.1 p r 0.2. .Z r.%X%X%X%X%X%X%X%X%X%X%X%X%X%X%X%X%X%X%X%X%X%X%X%X%X%X%X%X%X%X%X%X%X%X%X%X%X%X%X%X%X%X%X%X%X%X%X%X%X%X%X%X%X%X%X%X%X%X%X%X%X%X%X",
"%X%X%X%X%X%X%X%Xe.@ 6 r 2.3.#.] f ;.%X%X%X%X%X%X%X%X%X%X%X%X%X%X%X%X%X%X%X%X%X%X%X%X%X%X%X%X%X%X%X%X%X%X%X%X%X%X%X%X%X%X%X%X%X%X%X%X%X%X%X%X%X%X%X%X%X%X%X%X%X%X",
"%X%X%X%X%X%X%Xu.p < 6 f ..#.7.%.J ; } %X%X%X%X%X%X%X%X%X%X%X%X%X%X%X%X%X%X%X%X%X%X%X%X%X%X%X%X%X%X%X%X%X%X%X%X%X%X%X%X%X%X%X%X%X%X%X%X%X%X%X%X%X%X%X%X%X%X%X%X%X",
"%X%X%X%X%X%X} 1 p l P R #.-.o.#.R p ; <.%X%X%X%X%X%X%X%X%X%X%X%X%X%X%X%X%X%X%X%X%X%X%X%X%X%X%X%X%X%X%X%X%X%X%X%X%X%X%X%X%X%X%X%X%X%X%X%X%X%X%X%X%X%X%X%X%X%X%X%X",
"%X%X%X%X%X' 1 l / A ] R ..#.R O.R l l < t.!.%X%X%X%X%X%X%X%X%X%X%X%X%X%X%X%X%X%X%X%X%X%X%X%X%X%X%X%X%X%X%X%X%X%X%X%X%X%X%X%X%X%X%X%X%X%X%X%X%X%X%X%X%X%X%X%X%X%X",
"%X%X%X!.Q 6 f l R / / R R R Z O.J y Z b + x.%X%X%X%X%X%X%X%X%X%X%X%X%X%X%X%X%X%X%X%X%X%X%X%X%X%X%X%X%X%X%X%X%X%X%X%X%X%X%X%X%X%X%X%X%X%X%X%X%X%X%X%X%X%X%X%X%X%X",
"%X%X%X!.p P l ] =.=._ R R J c P f r Z P 9 L U.%X%X%X%X%X%X%X%X%X%X%X%X%X%X%X%X%X%X%X%X%X%X%X%X%X%X%X%X%X%X%X%X%X%X%X%X%X%X%X%X%X%X%X%X%X%X%X%X%X%X%X%X%X%X%X%X%X",
"%X%X%X!.l %.%.J J _ _ R R R R f g Z J l f @ 4.%X%X%X%X%X%X%X%X%X%X%X%X%X%X%X%X%X%X%X%X%X%X%X%X%X%X%X%X%X%X%X%X%X%X%X%X%X%X%X%X%X%X%X%X%X%X%X%X%X%X%X%X%X%X%X%X%X",
"%X%X%X%Xl s.0.% D i l J R R Y J J J P Z l ; t.%X%X%X%X%X%X%X%X%X%X%X%X%X%X%X%X%X%X%X%X%X%X%X%X%X%X%X%X%X%X%X%X%X%X%X%X%X%X%X%X%X%X%X%X%X%X%X%X%X%X%X%X%X%X%X%X%X",
"%X%X%Xh.Z %.8 M W G P l f B R P J J P J l < :.%X%X%X%X%X%X%X%X%X%X%X%X%X%X%X%X%X%X%X%X%X%X%X%X%X%X%X%X%X%X%X%X%X%X%X%X%X%X%X%X%X%X%X%X%X%X%X%X%X%X%X%X%X%X%X%X%X",
"%X!.O.B J B B E E J H R l t B R R R R B l r > m U.S.S.%X%X%X%X%X%X%X%X%X%X%X%X%X%X%X%X%X%X%X%X%X%X%X%X%X%X%X%X%X%X%X%X%X%X%X%X%X%X%X%X%X%X%X%X%X%X%X%X%X%X%X%X%X",
"%XR.i B J ..%.I P c B ] ] l y l B J / / Z f p : X     w.m.v.v.v.v.m.S.S.S.B.m.c.F.%X%X%X%X%X%X%X%X%X%X%X%X%X%X%X%X%X%X%X%X%X%X%X%X%X%X%X%X%X%X%X%X%X%X%X%X%X%X%X",
"%X!.8 u j.C.d.q.#.%.Z f Z / P H l Z _ P l l l 4 : > > + + + $ $ > ; ; > ; > > o d t.<.F.%X%X%X%X%X%X%X%X%X%X%X%X%X%X%X%X%X%X%X%X%X%X%X%X%X%X%X%X%X%X%X%X%X%X%X%X",
"%X%XR 0.^.J.G.V.k.a...B H l l B l J H c P Y H f 6 : > : 1 1 1 1 6 r r r r 9 1 1 > X X > L W.W.%X%X%X%X%X%X%X%X%X%X%X%X%X%X%X%X%X%X%X%X%X%X%X%X%X%X%X%X%X%X%X%X%X",
"%X%Xc.=.B.0.=.q.l.k.7.#.#.R C R _ H l R R J P l 9 0 6 0 r r r r r f c p p r r 0 0 0 6 1 1 < v %X%X%X%X%X%X%X%X%X%X%X%X%X%X%X%X%X%X%X%X%X%X%X%X%X%X%X%X%X%X%X%X%X",
"%X%X%Xg.B ( X.i.f.f.M.p.=.#..._ J l R ..R A J Z l f Z k t z z p t r r r r r p p r p 0 0 9 1 1 s R.%X%X%X%X%X%X%X%X%X%X%X%X%X%X%X%X%X%X%X%X%X%X%X%X%X%X%X%X%X%X%X",
"%X%X%X%X8.R ( R 7.p.f.j.+.R Y J B _ ...._ B l J J l P B f B H r f l l l l t f f f t f k f r 9 1 r S.%X%X%X%X%X%X%X%X%X%X%X%X%X%X%X%X%X%X%X%X%X%X%X%X%X%X%X%X%X%X",
"%X%X%X%X%Xr.8.u.r.%.0.=.R J A C R ..#. .J c A J U l J R c l J l t Z B l Z t l P B l l B J g f r 1 : { R.%X%X%X%X%X%X%X%X%X%X%X%X%X%X%X%X%X%X%X%X%X%X%X%X%X%X%X%X",
"%X%X%X%X%X%X%X%XS.] p.0.7.0.O._ ..#...J l B J B B J J J l l J A f l B f f t B R B g l l R l r r 9 1 & 7 S.%X%X%X%X%X%X%X%X%X%X%X%X%X%X%X%X%X%X%X%X%X%X%X%X%X%X%X",
"%X%X%X%X%X%X%X%XS.$.B.b.k.b.7.#.#._ B k R R l y k C J B y l J B l B Z B w f J U N y y l B f r r 9 6 4 @ 7 v.%X%X%X%X%X%X%X%X%X%X%X%X%X%X%X%X%X%X%X%X%X%X%X%X%X%X",
"%X%X%X%X%X%X%X%XS.%.P.H.H.C.0.%./ B B / R c y Z J J B B f l J g l J A B l B J A u N J C r r f p r r 9 1 . :.%X%X%X%X%X%X%X%X%X%X%X%X%X%X%X%X%X%X%X%X%X%X%X%X%X%X",
"%X%X%X%X%X%X%X%XB.%.P.K.P.H.8.R J B P / B l P J J l y J B B J l Z J A J Z J J J N B R J l r Z l r r r 9 & 8.%X%X%X%X%X%X%X%X%X%X%X%X%X%X%X%X%X%X%X%X%X%X%X%X%X%X",
"%X%X%X%X%X%X%X%XB.%.P.K.K.K.h.0.......H J R R U J r r P R R J l B J Y R Z B J U B l J J B y B r w t f f r 1 e.%X%X%X%X%X%X%X%X%X%X%X%X%X%X%X%X%X%X%X%X%X%X%X%X%X",
"%X%X%X%X%X%X%X%XS.2.P.K.K.K.V.0.....] R R J Z y y t k R R R _ J l J R R R l J J N A J C C g g r r l A f t 1 ; S.%X%X%X%X%X%X%X%X%X%X%X%X%X%X%X%X%X%X%X%X%X%X%X%X",
"%X%X%X%X%X%X%X%XA.8.P.K.G.j.=.R R _ ] R B f t k f p r Z R _ ] _ / R R ( R B J J J B J J B y r y B J J B f t ; x.%X%X%X%X%X%X%X%X%X%X%X%X%X%X%X%X%X%X%X%X%X%X%X%X",
"%X%X%X%X%X%X%X%XS.2.H.C.C.s.[ _ ...._ B y l c R Z p 9 B R _ ....R J R / R B R R H l J B f l l B J U J l f t 1 7 !.%X%X%X%X%X%X%X%X%X%X%X%X%X%X%X%X%X%X%X%X%X%X%X",
"%X%X%X%X%X%X%X%XS.2.J.M.b.h.8.O._ / J B J R I H l p r f J _ ..#.[ I ] _ R l [ _ B f J J J J J U J A l f r r 1 1 !.%X%X%X%X%X%X%X%X%X%X%X%X%X%X%X%X%X%X%X%X%X%X%X",
"%X%X%X%X%X%X%X%X%XS.0.S.M.f.p.#.] H B J J J Z f f p f 6 l R ....#.I ..#.R J +._ Z B Y F J U J l l l B H r r ; 1 Y.%X%X%X%X%X%X%X%X%X%X%X%X%X%X%X%X%X%X%X%X%X%X%X",
"%X%X%X%X%X%X%X%X%XU.] b.V.C.s.#...O.R J B l R P l r p 6 l R ..#.#.J ....R ....R K J l U l A B l y B J c f r 1 o j %X%X%X%X%X%X%X%X%X%X%X%X%X%X%X%X%X%X%X%X%X%X%X",
"%X%X%X%X%X%X%X%X%X%XB.' u.j.f.=..._ J B P / I k f p t r r H _ #.] _ #.R J ...._ Z y A R R J B k B J B r p r 1 O : x.%X%X%X%X%X%X%X%X%X%X%X%X%X%X%X%X%X%X%X%X%X%X",
"%X%X%X%X%X%X%X%X%X%X%Xv.@.p.h.0...J Z f f k k J P I Z f 9 c _ @...#.#.R _ #..._ Z B ( R J l l J R Z t t r 6 ; ; & v %X%X%X%X%X%X%X%X%X%X%X%X%X%X%X%X%X%X%X%X%X%X",
"%X%X%X%X%X%X%X%X%X%X%X%Xu.] s.d._ +.O./ R R / R P J P k 6 l R ..%.=.....=.....J R _ R B l A P Z l f r t r 1 > 1 9 s v.%X%X%X%X%X%X%X%X%X%X%X%X%X%X%X%X%X%X%X%X%X",
"%X%X%X%X%X%X%X%X%X%X%X%X:.; P O.#.#.#.O.O._ Z B y y y y 6 H _ ..%.=...%.7.] _ R _ _ B l Z Z l r r p r t r 1 ; 9 r 1 m %X%X%X%X%X%X%X%X%X%X%X%X%X%X%X%X%X%X%X%X%X",
"%X%X%X%X%X%X%X%X%X%X%XU.s 4 9 t J O.#...J l w r Z t f H w _ ..#.2.%.=...[ ] %.#.R J Z J R f f l Z Z t t t 1 ; p l l p } %X%X%X%X%X%X%X%X%X%X%X%X%X%X%Xx.} e.%X%X",
"%X%X%X%X%X%X%X%X%X%XR.h p l r 6 9 J ..J y l H J P Z B B 9 O.7.0.0.7.#./ O.2.0.#.J J R J l l J H l k r r r 4 ; p P P 9 : } %X%X%X%X%X%X%X%X%X%X%X%X%X%Xv   + ^ %X",
"%X%X%X%X%X%X%X%X%X!.L 9 f B Z r 6 r f l P / R J R R H 9 / 7.d.s.s.p.=.%.7.7.2.#._ R A y f J J l r r r r & ^ z.6 Z P l f 1 <.%X%X%X%X%X%X%X%X%X%X%X%X{ : : X r %X",
"%X%X%X%X%X%X%X%Xg.] _ ] l f Z l 9 1 < k _ _ J y f y t Z #.#.#.%.2.2.2.2.2.2.=.#._ l f Z Y Y l r t f z 9 6 g.%X<.r P ( ( B 1 0 e.F.%X%X%X%X%X%X%XF.L > > > 4 e.%X",
"%X%X%X%X%X%X%Xr.Z _ @. .J r f l r , # f ..J B P J B w r n l n H L p r r k O.=...U A R _ R l f l f 9 r 1 v !.%X%Xe.p P ( B r 1 o h x.u.t.t.t.t.e.6 1 4 : + s %X%X",
"%X%X%X%X%X%Xv.P O.+._ / _ B w r 9 s s r c R J _ ] K 3 p %X!.!.!.%X' < f 9 Z =.+.......P f t Z R l r f t 1 s S.%X%Xx.f B J Z B f r 1 6 1 , , 1 r 0 l r > 4 x.%X%X",
"%X%X%X%X%Xx.] %.#...Z B Z k 9 1 h !.%X{ f _ / l l c 9 z %X%X%X%X%XU.z 9 r 9 / *.+.#.] f Z ( P l B J f f r 1 7 t.R.%XS.z f Z J P / P _ Z f l B _ w r 4 : v.%X%X%X",
"%X%X%X%Xn.[ 2.#.P J l p 1 1 O t.%X%X%X%X$.J ] ( _ _ w z %X%X%X%X%X%X!.p 6 t 9 J #.+..._ _ ] ( R ( P p f f p r * <.%X%XU.S l l R ] _ ] Y l R _ ( r 0 4 e.%X%X%X%X",
"%X%X%X%X%.0.H.s.J t * Q R.F.F.^.%X%X%X%X%.P O.] _ K w v %X%X%X%X%X%X%XR.n 6 9 1 k ..#.+.+.O./ J _ R Z P J f J r 8.%X%X%X%Xu.f n r 9 w w 1 1 1 1 o x.%X%X%X%X%X%X",
"%X%X%Xc.0.H.T.s.6 > 4.U.%X%X%X%X%X%X%X%X$.B ..c B B 9 h %X%X%X%X%X%X%X%XS.p > 1 1 p P P P P P c Z Y / H k l Y r e.%X%X%X%X%X%X%Xe.$.,.,.8.t.x.c.v.!.%X%X%X%X%X%X",
"%X%X%X] k.P.V.0.1 e.%X%X%X%X%X%X%X%X%X%Xc.' / _ Y l 6 v %X%X%X%X%X%X%X%X%Xv.z r 1 6 1 1 1 ; 1 ,.~ L n l J / Y f p t.%X%X%X%X%X%X%X%X%X%X%X%X%X%X%X%X%X%X%X%X%X%X",
"%X%X%XO.h.0.d.8.z !.%X%X%X%X%X%X%X%X%X%X%Xv.Z %...R f Q %X%X%X%X%X%X%X%X%X%X%XL 4 r r r 3 & Q %X%X!.c.n P B f P 9 $.%X%X%X%X%X%X%X%X%X%X%X%X%X%X%X%X%X%X%X%X%X%X",
"%X%X%X%.2.0.L ^ /.%X%X%X%X%X%X%X%X%X%X%X%XU.' [ _ _ l S %X%X%X%X%X%X%X!.!.R.L Z Z l l t ; ^ %X%X%X%X%Xt.p I / ] f <.%X%X%X%X%X%X%X%X%X%X%X%X%X%X%X%X%X%X%X%X%X%X",
"%X%X%X%X<.z t.%X%X%X%X%X%X%X%X%X%X%X%X%X%X!.g.R / ] H L %X%X%X%X%X%X!.' L L _ ] R z t < Q %X%X%X%X%X%X!.t.O.%._ l <.%X%X%X%X%X%X%X%X%X%X%X%X%X%X%X%X%X%X%X%X%X%X",
"%X%X%X%X%X%X%X%X%X%X%X%X%X%X%X%X%X%X%X%XJ.%.d.j.%.8.~ Q %X%X%X%X%X!.' ] @.%.%.] / P 0 ^ %X%X%X%X%X%X!.S.8.h.d.0.0.~ } %X%X%X%X%X%X%X%X%X%X%X%X%X%X%X%X%X%X%X%X%X",
"%X%X%X%X%X%X%X%X%X%X%X%X%X%X%X%X%X%X%X!.%.h.b.H.b.s.L m %X%X%X%X%X;.P _ ..0.2.+./ p :.%X%X%X%X%X%X%XS.,.A.S.P.I.V.H Q %X%X%X%X%X%X%X%X%X%X%X%X%X%X%X%X%X%X%X%X%X",
"%X%X%X%X%X%X%X%X%X%X%X%X%X%X%X%X%X%X%X!.%.8.7.V.K.h.^ { %X%X%X%X%Xn.l f k H Z l ! e.%X%X%X%X%X%X%X%Xv.,.h.g.P.K.j.$.x.%X%X%X%X%X%X%X%X%X%X%X%X%X%X%X%X%X%X%X%X%X",
"%X%X%X%X%X%X%X%X%X%X%X%X%X%X%X%X%X%X%X%X,.l L P I l g.%X%X%X%X%X%X%Xe.<.<.,.<.:.v.%X%X%X%X%X%X%X%X%X%Xx./ ] ' ' H 5.%X%X%X%X%X%X%X%X%X%X%X%X%X%X%X%X%X%X%X%X%X%X",
"%X%X%X%X%X%X%X%X%X%X%X%X%X%X%X%X%X%X%X%XR.S.S.S.S.S.R.%X%X%X%X%X%X%X%X%X%X%X%X%X%X%X%X%X%X%X%X%X%X%X%X%XU.U.U.U.U.R.%X%X%X%X%X%X%X%X%X%X%X%X%X%X%X%X%X%X%X%X%X%X",
"%X%X%X%X%X%X%X%X%X%X%X%X%X%X%X%X%X%X%X%X%X%X%X%X%X%X%X%X%X%X%X%X%X%X%X%X%X%X%X%X%X%X%X%X%X%X%X%X%X%X%X%X%X%X%X%X%X%X%X%X%X%X%X%X%X%X%X%X%X%X%X%X%X%X%X%X%X%X%X%X",
"%X%X%X%X%X%X%X%X%X%X%X%X%X%X%X%X%X%X%X%X%X%X%X%X%X%X%X%X%X%X%X%X%X%X%X%X%X%X%X%X%X%X%X%X%X%X%X%X%X%X%X%X%X%X%X%X%X%X%X%X%X%X%X%X%X%X%X%X%X%X%X%X%X%X%X%X%X%X%X%X",
"%X%X%X%X%X%X%X%X%X%X%X%X%X%X%X%X%X%X%X%X%X%X%X%X%X%X%X%X%X%X%X%X%X%X%X%X%X%X%X%X%X%X%X%X%X%X%X%X%X%X%X%X%X%X%X%X%X%X%X%X%X%X%X%X%X%X%X%X%X%X%X%X%X%X%X%X%X%X%X%X",
"%X%X%X%X%X%X%X%X%X%X%X%X%X%X%X%X%X%X%X%X%X%X%X%X%X%X%X%X%X%X%X%X%X%X%X%X%X%X%X%X%X%X%X%X%X%X%X%X%X%X%X%X%X%X%X%X%X%X%X%X%X%X%X%X%X%X%X%X%X%X%X%X%X%X%X%X%X%X%X%X",
"%X%X%X%X%X%X%X%X%X%X%X%X%X%X%X%X%X%X%X%X%X%X%X%X%X%X%X%X%X%X%X%X%X%X%X%X%X%X%X%X%X%X%X%X%X%X%X%X%X%X%X%X%X%X%X%X%X%X%X%X%X%X%X%X%X%X%X%X%X%X%X%X%X%X%X%X%X%X%X%X",
"%X%X%X%X%X%X%X%X%X%X%X%X%X%X%X%X%X%X%X%X%X%X%X%X%X%X%X%X%X%X%X%X%X%X%X%X%X%X%X%X%X%X%X%X%X%X%X%X%X%X%X%X%X%X%X%X%X%X%X%X%X%X%X%X%X%X%X%X%X%X%X%X%X%X%X%X%X%X%X%X",
"%X%X%X%X%X%X%X%X%X%X%X%X%X%X%X%X%X%X%X%X%X%X%X%X%X%X%X%X%X%X%X%X%X%X%X%X%X%X%X%X%X%X%X%X%X%X%X%X%X%X%X%X%X%X%X%X%X%X%X%X%X%X%X%X%X%X%X%X%X%X%X%X%X%X%X%X%X%X%X%X",
"%X%X%X%X%X%X%X%X%X%X%X%X%X%X%X%X%X%X%X%X%X%X%X%X%X%X%X%X%X%X%X%X%X%X%X%X%X%X%X%X%X%X%X%X%X%X%X%X%X%X%X%X%X%X%X%X%X%X%X%X%X%X%X%X%X%X%X%X%X%X%X%X%X%X%X%X%X%X%X%X",
"%X%X%X%X%X%X%X%X%X%X%X%X%X%X%X%X%X%X%X%X%X%X%X%X%X%X%X%X%X%X%X%X%X%X%X%X%X%X%X%X%X%X%X%X%X%X%X%X%X%X%X%X%X%X%X%X%X%X%X%X%X%X%X%X%X%X%X%X%X%X%X%X%X%X%X%X%X%X%X%X",
"%X%X%X%X%X%X%X%X%X%X%X%X%X%X%X%X%X%X%X%X%X%X%X%X%X%X%X%X%X%X%X%X%X%X%X%X%X%X%X%X%X%X%X%X%X%X%X%X%X%X%X%X%X%X%X%X%X%X%X%X%X%X%X%X%X%X%X%X%X%X%X%X%X%X%X%X%X%X%X%X",
"%X%X%X%X%X%X%X%X%X%X%X%X%X%X%X%X%X%X%X%X%X%X%X%X%X%X%X%X%X%X%X%X%X%X%X%X%X%X%X%X%X%X%X%X%X%X%X%X%X%X%X%X%X%X%X%X%X%X%X%X%X%X%X%X%X%X%X%X%X%X%X%X%X%X%X%X%X%X%X%X",
"%X%X%X%X%X%X%X%X%X%X%X%X%X%X%X%X%X%X%X%X%X%X%X%X%X%X%X%X%X%X%X%X%X%X%X%X%X%X%X%X%X%X%X%X%X%X%X%X%X%X%X%X%X%X%X%X%X%X%X%X%X%X%X%X%X%X%X%X%X%X%X%X%X%X%X%X%X%X%X%X"
};
