/* XPM */
static char *louis_right_side_paw[] = {
/* columns rows colors chars-per-pixel */
"80 59 187 2 ",
"   c #302E2B",
".  c #33312E",
"X  c #333331",
"o  c #383534",
"O  c #3C3A34",
"+  c #3D3C3B",
"@  c #2A2A27",
"#  c #423E36",
"$  c #413E3B",
"%  c #45423C",
"&  c #49443C",
"*  c #6B5B32",
"=  c #66483A",
"-  c #444343",
";  c #494743",
":  c #4D4A44",
">  c #4D4B49",
",  c #534D47",
"<  c #524F4A",
"1  c #55524C",
"2  c #59544D",
"3  c #5F5849",
"4  c #545352",
"5  c #5A5652",
"6  c #5E5A53",
"7  c #5C5B5A",
"8  c #625D55",
"9  c #625E59",
"0  c #656156",
"q  c #66615B",
"w  c #6B655C",
"e  c #6E685F",
"r  c #70695F",
"t  c #625F60",
"y  c #656462",
"u  c #6A6661",
"i  c #6D6963",
"p  c #6D6C6C",
"a  c #736C63",
"s  c #7A6F62",
"d  c #736E68",
"f  c #777065",
"g  c #7A7166",
"h  c #75716B",
"j  c #7C746A",
"k  c #7F796D",
"l  c #757572",
"z  c #787774",
"x  c #7E7973",
"c  c #777978",
"v  c #7D7D7B",
"b  c #81744D",
"n  c #807266",
"m  c #81776B",
"M  c #837A6D",
"N  c #897C6E",
"B  c #857D72",
"V  c #897F71",
"C  c #817F7B",
"Z  c #B99E3E",
"A  c #8F826F",
"S  c #9F9063",
"D  c #868074",
"F  c #8C8275",
"G  c #85817B",
"H  c #8D857A",
"J  c #8F887C",
"K  c #908475",
"L  c #91867A",
"P  c #938A7D",
"I  c #988F7E",
"U  c #928975",
"Y  c #838281",
"T  c #8C8A85",
"R  c #878788",
"E  c #8D8D8D",
"W  c #958D82",
"Q  c #998E82",
"!  c #918E8A",
"~  c #9B9285",
"^  c #93918E",
"/  c #9C958A",
"(  c #9D988B",
")  c #959593",
"_  c #999692",
"`  c #999895",
"'  c #9C9B9A",
"]  c #A09286",
"[  c #A2968A",
"{  c #A39A8D",
"}  c #A89D8E",
"|  c #A49D91",
" . c #A89F92",
".. c #A09E99",
"X. c #A8A08F",
"o. c #A6A093",
"O. c #AAA295",
"+. c #A4A19D",
"@. c #ACA599",
"#. c #AEA99D",
"$. c #B0A494",
"%. c #B1A79A",
"&. c #B2AA9D",
"*. c #BAAB9E",
"=. c #A5A4A3",
"-. c #A9A7A0",
";. c #ADAAA5",
":. c #ADAEAD",
">. c #B4ADA3",
",. c #B8ADA2",
"<. c #B0ADA8",
"1. c #AFB0AF",
"2. c #B7B1A4",
"3. c #B9B1A3",
"4. c #B0B0AF",
"5. c #BBB5AA",
"6. c #BFB9AC",
"7. c #B4B5B5",
"8. c #BCB7B1",
"9. c #BFBBB3",
"0. c #B6B7B8",
"q. c #BCBCBB",
"w. c #C3B8A6",
"e. c #C1B9AC",
"r. c #C4B7AB",
"t. c #C3BDB2",
"y. c #C8BFB2",
"u. c #C1BFBB",
"i. c #CCC1AF",
"p. c #CAC3B4",
"a. c #CEC9BD",
"s. c #C7C3BA",
"d. c #D0C7B5",
"f. c #D3CBBD",
"g. c #BFC0C0",
"h. c gray77",
"j. c #CCCAC6",
"k. c #C7C8C8",
"l. c gray80",
"z. c #D4CEC2",
"x. c #DCD5C5",
"c. c #D0D0CF",
"v. c #DBD6CA",
"b. c #DCD8CA",
"n. c #D4D4D3",
"m. c #D8D3D0",
"M. c #D7D8D7",
"N. c #DCD9D4",
"B. c #DCDDDC",
"V. c #E2DACA",
"C. c #E4DED3",
"Z. c #E1DDDA",
"A. c #E7E1D6",
"S. c #EBE2D5",
"D. c #EAE4D9",
"F. c #EEEADE",
"G. c #DFDFE0",
"H. c #DFE0E0",
"J. c gray90",
"K. c #E8E7E6",
"L. c #E9E8E7",
"P. c gray92",
"I. c #F3EFE8",
"U. c #EFF0EF",
"Y. c #F1F1EE",
"T. c #EFEFF1",
"R. c #EFF0F1",
"E. c #F1F2F1",
"W. c #F4F5F4",
"Q. c #F8F8F7",
"!. c #F7F7F8",
"~. c #F7F8F8",
"^. c #FBFBFB",
"/. c #FBFBFA",
"(. c #FCFCFB",
"). c gray99",
"_. c #FDFDFD",
"`. c #FDFDFC",
"'. c #FEFDFD",
"]. c #FEFEFC",
"[. c #FEFEFD",
"{. c #FDFEFE",
"}. c #FEFEFE",
"|. c magenta",
" X c #FFFFFE",
".X c #FDFEFD",
"XX c #FFFFFE",
/* pixels */
"|.|.|.|.|.|.|.|.|.|.|.|.|.|.|.|.|.|.|.|.|.|.|.|.|.|.|.|.|.|.|.|.|.|.|.|.|.|.|.|.|.|.|.|.|.|.|.|.|.|.|.|.|.|.|.|.|.|.|.|.|.|.|.|.|.|.|.|.|.|.|.|.|.|.|.|.|.|.|.|.",
"|.|.|.|.|.|.|.|.|.|.|.|.|.|.|.|.|.|.|.|.|.|.|.|.|.|.|.|.|.|.|.|.|.|.|.|.|.|.|.|.|.|.|.|.|.|.|.|.|.|.|.|.|.|.|.|.|.|.|.|.|.|.|.|.|.|.|.|.|.|.|.|.|.|.|.|.|.|.|.|.",
"|.|.|.|.|.|.|.|.|.|.|.|.|.|.|.|.|.|.|.|.|.|.|.|.|.|.|.|.|.|.|.|.|.|.|.|.|.|.|.|.|.|.|.|.|.|.|.|.|.|.|.|.|.|.|.|.|.|.|.|.|.|.|.|.|.|.|.|.|.|.|.|.|.|.|.|.|.|.|.|.",
"|.|.|.|.|.|.|.|.|.|.|.|.|.|.|.|.|.|.|.|.|.|.|.|.|.|.|.|.|.|.|.|.|.|.|.|.|.|.|.|.|.|.|.|.|.|.|.|.|.|.|.|.|.|.|.|.|.|.|.|.|.|.|.|.|.|.|.|.|.|.|.|.|.|.|.|.|.|.|.|.",
"|.|.|.|.|.|.|.|.|.|.|.|.|.|.|.|.|.|.|.|.|.|.|.|.|.|.|.|.|.|.|.|.|.|.|.|.|.|.|.|.|.|.|.|.|.|.|.|.|.|.|.|.|.|.|.|.|.|.|.|.|.|.|.|.|.|.|.|.|.|.|.|.|.|.|.|.|.|.|.|.",
"|.|.|.|.|.|.|.|.|.|.|.|.|.|.|.|.|.|.|.|.|.|.|.|.|.|.|.|.|.|.|.|.|.|.|.|.|.|.|.|.|.|.|.|.|.|.|.|.|.|.|.|.|.|.|.|.|.|.|.|.|.|.|.|.|.|.|.|.|.|.|.|.|.|.|.|.|.|.|.|.",
"|.|.|.|.|.|.|.|.|.|.|.|.|.|.|.|.|.|.|.|.|.|.|.|.|.|.|.|.|.|.|.|.|.|.|.|.|.|.|.|.|.|.|.|.|.|.|.|.|.|.|.|.|.|.|.|.|.|.|.|.|.|.|.|.|.|.|.|.|.|.|.|.|.|.|.|.|.|.|.|.",
"|.|.|.|.|.|.|.|.|.|.|.|.|.|.|.|.|.|.|.|.|.|.|.|.|.|.|.|.|.|.|.|.|.|.|.|.|.|.|.|.|.|.|.|.|.|.|.|.|.|.|.|.|.|.|.|.|.|.|.|.|.|.|.|.|.|.|.|.|.|.|.|.|.|.|.|.|.|.|.|.",
"|.|.|.|.|.|.|.|.|.|.|.|.|.|.|.|.|.|.|.|.|.|.|.|.|.|.|.|.|.|.|.|.|.|.|.|.|.|.|.|.|.|.|.|.|.|.|.|.|.|.|.|.|.|.|.|.|.|.|.|.|.|.|.|.|.|.|.|.|.|.|.|.|.|.|.|.|.|.|.|.",
"|.|.|.|.|.|.|.|.|.|.|.|.|.|.|.|.|.|.|.|.|.|.|.|.|.|.|.|.|.|.|.|.|.|.|.|.|.|.|.|.|.|.|.|.|.|.|.|.|.|.|.|.|.|.|.|.|.|.|.|.|.L.+.c.|.:.E.|.|.|.|.|.|.|.|.|.|.|.|.|.",
"|.|.|.|.|.|.|.|.|.|.|.|.|.|.|.|.|.|.|.|.|.|.|.|.|.|.|.|.|.|.|.|.|.|.|.|.|.|.|.|.|.|.|.|.|.|.|.|.|.|.|.|.|.|.|.|.|.|.|.|.E.T q 8.:.+ P.|.|.|.|.|.|.|.|.|.|.|.|.|.",
"|.|.|.|.|.|.|.|.|.|.|.|.|.|.|.|.|.|.|.|.|.|.|.|.|.|.|.|.|.|.|.|.|.|.|.|.|.|.|.|.|.|.|.|.|.|.|.|.|.|.|.|.|.|.|.|.|.|.|.|._ M ,.! 7 7 P.|.|.|.|.|.|.|.|.|.|.|.|.|.",
"|.|.|.|.|.|.|.|.|.|.|.|.|.|.|.|.|.|.|.|.|.|.|.|.|.|.|.|.|.|.|.|.|.|.|.|.|.|.|.|.|.|.|.|.|.|.|.|.|.|.|.|.|.|.|.|.|.|.|.' g [ r.j 7 9 E.|.|.|.|.|.|.|.|.|.|.|.|.|.",
"|.|.|.|.|.|.|.|.|.|.|.|.|.|.|.|.|.|.|.|.|.|.|.|.|.|.|.|.|.|.|.|.|.|.|.|.|.|.|.|.|.|.|.|.|.|.|.|.|.|.|.|.|.|.|.|.|.|.' , Q *.%.j , , h.|.|.|.|.|.|.|.|.|.|.|.|.|.",
"|.|.|.|.|.|.|.|.|.|.|.|.|.|.|.|.|.|.|.|.|.|.|.|.|.|.|.|.|.|.|.|.|.|.|.|.|.|.|.|.|.|.|.|.|.|.|.|.|.|.|.|.|.|.|.|.|.:.$ a [ }  .P j q 1 ) |.|.|.|.|.|.|.|.|.|.|.|.",
"|.|.|.|.|.|.|.|.|.|.|.|.|.|.|.|.|.|.|.|.|.|.|.|.|.|.|.|.|.|.|.|.|.|.|.|.|.|.|.|.|.|.|.|.|.|.|.|.|.|.|.|.|.|.|.|.q.9 h j ! I O.~ P B B , v E.|.|.|.|.|.|.|.|.|.|.",
"|.|.|.|.|.|.|.|.|.|.|.|.|.|.|.|.|.|.|.|.|.|.|.|.|.|.|.|.|.|.|.|.|.|.|.|.|.|.|.|.|.|.|.|.|.|.|.|.|.|.|.|.|.|.|.T.4 j j j Q M H P P ~ V q , ^ |.|.|.|.|.|.|.|.|.|.",
"|.|.|.|.|.|.|.|.|.|.|.|.|.|.|.|.|.|.|.|.|.|.|.|.|.|.|.|.|.|.|.|.|.|.|.|.|.|.|.|.|.|.|.|.|.|.|.|.|.|.|.|.|.|.|.R , B M r a M L P ~ ~ ! ! B ! |.|.|.|.|.|.|.|.|.|.",
"|.|.|.|.|.|.|.|.|.|.|.|.|.|.|.|.|.|.|.|.|.|.|.|.|.|.|.|.|.|.|.|.|.|.|.|.|.|.|.|.|.|.|.|.|.|.|.|.|.|.|.|.|.|.|.p , j D D B P P D j b * ) | ! |.|.|.|.|.|.|.|.|.|.",
"|.|.|.|.|.|.|.|.|.|.|.|.|.|.|.|.|.|.|.|.|.|.|.|.|.|.|.|.|.|.|.|.|.|.|.|.|.|.|.|.|.|.|.|.|.|.|.|.|.|.|.|.|.|.|.p 1 B L P ! H i a B S Z 3 L B J.|.|.|.|.|.|.|.|.|.",
"|.|.|.|.|.|.|.|.|.|.|.|.|.|.|.|.|.|.|.|.|.|.|.|.|.|.|.|.|.|.|.|.|.|.|.|.|.|.|.|.|.|.|.|.|.|.|.|.|.|.|.J.k.n.h > q B H D B q a ! D f U P M m g Z.|.|.|.|.|.|.|.|.",
"|.|.|.|.|.|.|.|.|.|.|.|.|.|.|.|.|.|.|.|.|.|.|.|.|.|.|.|.|.|.|.|.|.|.|.|.|.|.|.|.|.:.:.:.:.:.:.:.5.:.0.y @ + % q a H P a a j P D M D P &.5.H = m.|.|.|.|.|.|.|.|.",
"|.|.|.|.|.|.|.|.|.|.|.|.|.|.|.|.|.|.|.|.|.|.|.|.|.|.|.|.|.|.|.|.|.|.|.|.|.|.q.G c O O O O # $ O X X . O % 1 9 B D j D e q a j j ~ w.d.x.D.F.N L.|.|.|.|.|.|.|.|.",
"|.|.|.|.|.|.|.|.|.|.|.|.|.|.|.|.|.|.|.|.|.|.|.|.|.E.E.|.|.|.|.|.|.|.|.|.k.v $ % $ 1 1 8 q e q 1 1 1 1 1 > 1 d H P L g D D j Q O.3.f.i.&.5.5.9.|.|.|.|.|.|.|.|.|.",
"|.|.|.|.|.|.|.|.|.|.|.|.|.|.|.|.|.|.|.|.|.|.|.|.|.E.|.|.|.|.|.|.|.|.|.+.O % , 8 q q q 9 8 q q 8 q q 7 q i e M D D ~ H M Q ] ~ ,.p.p.w.} D ^ |.|.|.|.|.|.|.|.|.|.",
"|.|.|.|.|.|.|.|.|.|.|.|.|.|.|.|.|.|.|.|.|.|.|.|.Y.|.|.|.|.|.|.|.|.P.z & 1 q q q q i i q g g a q a j 0 m f j D a D } } P B M M  .3.&.| ! +.Q.|.|.|.|.|.|.|.|.|.|.",
"|.|.|.|.|.|.|.|.|.|.|.|.|.|.|.|.|.|.|.|.|.|.|.|.E.|.|.|.|.|.|.|.k.4 & q q j f a a D M e m M V r M j a D g M D M g P O.} P } #.&.>.~ P.|.|.|.|.|.|.|.|.|.|.|.|.|.",
"|.|.|.|.|.|.|.|.|.|.|.|.|.|.|.|.|.|.|.|.|.|.|.|.|.|.|.|.|.|.|.0.$ ; 6 q 9 M a 9 a M N q e M g j D j e M V g a V D g D X.$.w.x.f.z.@.E.|.|.|.|.|.|.|.|.|.|.|.|.|.",
"|.|.|.|.|.|.|.|.|.|.|.|.|.|.|.|.|.|.|.|.|.|.|.|.|.|.|.|.|.|.M.+ % 1 5 q u q g a e g N g a M M f M B q j D D g q D L g D O.5.v.S.S.#.I.|.|.|.|.|.|.|.|.|.|.|.|.|.",
"|.|.|.|.|.|.|.|.|.|.|.|.|.|.|.|.|.|.|.|.|.|.|.|.|.|.|.|.|.|.n.$ 1 9 7 g j q M D g m V B M N D M j B g M i D K M r B D D ! 6.S.S.S.>.I.|.|.|.|.|.|.|.|.|.|.|.|.|.",
"|.|.|.|.|.|.|.|.|.|.|.|.|.|.|.|.|.|.|.|.|.|.|.|.|.|.|.|.|.J.y 1 q e 8 q g s A A g N D j k L D m M D D B q a V D D B ~ ~ &.x.S.S.S.2.Y.|.|.|.|.|.|.|.|.|.|.|.|.|.",
"|.|.|.|.|.|.|.|.|.|.|.|.|.|.|.|.|.|.|.|.|.|.|.|.|.|.|.|.|.v O 8 a M e 8 q m D D V M D s D P D B P P P j t y u f B P ~ P P 5.x.D.A.5.E.|.|.|.|.|.|.|.|.|.|.|.|.|.",
"|.|.|.|.|.|.|.|.|.|.|.|.|.|.|.|.|.|.|.|.|.|.|.|.|.|.|.|.P.7 , q g D V a q a M N j D D j D P k D ~ ~ P f 1 u B a r j ~ } ~ | j.N.v.>.E.|.|.|.|.|.|.|.|.|.|.|.|.|.",
"|.|.|.|.|.|.|.|.|.|.|.|.|.|.|.|.|.|.|.|.|.|.|.|.|.|.|.|.0.. 8 q q j D K M g M D a D ~ j D P B H ( ~ D q 7 q j L P j H ~ } 6.a.v.z.t.Q.|.|.|.|.|.|.|.|.|.|.|.|.|.",
"|.|.|.|.|.|.|.|.|.|.|.|.|.|.|.|.|.|.|.|.|.|.|.|.|.|.|.|.q.. 8 8 g e a M V V M D M D  .H I } k ~ } ! s 1 q q a M B H H ~ @.p.x.V.| K.|.|.|.|.|.|.|.|.|.|.|.|.|.|.",
"|.|.|.|.|.|.|.|.|.|.|.|.|.|.|.|.|.|.|.|.|.|.|.|.|.|.|.R.4 O 7 q j B q q M g j g M D } | P } H ~ } P a 5 q q j H B D L o.&.p.f.O.;.|.|.|.|.|.|.|.|.|.|.|.|.|.|.|.",
"|.|.|.|.|.|.|.|.|.|.|.|.|.|.|.|.|.|.|.|.|.|.|.|.|.|.|.=.  $ 8 i q B M a a B P M q B } O.P ~ O.~ o.H 7 7 a j a a j q j J 2.a.| +.E.|.|.|.|.|.|.|.|.|.|.|.|.|.|.|.",
"|.|.|.|.|.|.|.|.|.|.|.|.|.|.|.|.|.|.|.|.|.|.|.|.|.|.|.7 $ + 1 q q e B D j a j P D M P O.O.~ O.@.O.H 8 8 D D L B j B ~ ~ 2.o.;.|.|.|.|.|.|.|.|.|.|.|.|.|.|.|.|.|.",
"|.|.|.|.|.|.|.|.|.|.|.|.|.|.|.|.|.|.|.|.|.|.|.|.|.|.:.: 5 $ : 7 q q q q M M a j ~ P D P 3.} | &.( P q q a q j D ~ } } | f T |.|.|.|.|.|.|.|.|.|.|.|.|.|.|.|.|.|.",
"|.|.|.|.|.|.|.|.|.|.E.q.n.|.|.|.|.|.|.|.|.|.|.|.|.P.i 7 q > O 8 q a M g i j L M B P | [ ~ | &.@.#.| q a a a a q h H ~ j & z |.|.|.|.|.|.|.|.|.|.|.|.|.|.|.|.|.|.",
"|.|.|.|.|.|.|.|.|.E.p . 4 E.|.|.|.|.|.|.|.|.|.|.P.y , j x > > 5 7 q a M D f j D D P O.3. .H &.5.w.6.J 7 D D H H B a 8 1 q , q.|.|.|.|.|.|.|.|.|.|.|.|.|.|.|.|.|.",
"|.|.|.|.|.|.|.|.|.P.- ; + z |.|.|.|.|.|.|.|.|.k.u 1 M L q Y h.O 1 q q q B L j a B ~ @.2.5.&.&.5.w.5.3.B 0 j q f ~ ! 1 q i 7 ! |.|.|.|.|.|.|.|.|.|.|.|.|.|.|.|.|.",
"|.|.|.|.|.|.|.|.|.|.' o - + p k.|.E.|.E.|.k.y ; 1 H Q g z P.|.v # 8 8 r q B ~ P j P &.>.H a j j H H H x 1 q j M B H 7 q 0 H H -.|.|.|.|.|.|.|.|.|.|.|.|.|.|.|.|.",
"|.|.|.|.|.|.|.|.|.|.n.+ + 7 5 5 y 7 9 u i 7 , a M L s h P.|.0.- , 7 q j j i a ~ } } >.( q j , ` E.P.P.|.) 8 H B D j , 7 a H O.D ;.|.|.|.|.|.|.|.|.|.|.|.|.|.|.|.",
"|.|.|.|.|.|.|.|.|.|.|.q.+ , 9 f j q 8 j B D L V B 8 v P.|.0.% 5 q 0 j a B ! B P O.&.~ 9 a q T E.|.|.|.|.) % a B ~ ! ; $ q M ~ %.D j.|.|.|.|.|.|.|.|.|.|.|.|.|.|.",
"|.|.|.|.|.|.|.|.|.|.|.|.q.7 4 q D B r D P P B q 7 Y E.|.|.y 7 a B V V H B ~ | O.@.! 7 , u ! |.|.|.|.|.|.P.v g ~ ! D T :.: 8 B ~ O.~ E.|.|.|.|.|.|.|.|.|.|.|.|.|.",
"|.|.|.|.|.|.|.|.|.|.|.|.|.|.=.7 i 9 5 q 8 q ' ' B.|.|.|.|.4 q m q D P r q D P ! B 1 5 z h.|.|.|.|.|.|.|.|.Y 8 B j M +.|.n.5 5 } b.%.n.|.|.|.|.|.|.|.|.|.|.|.|.|.",
"|.|.|.|.|.|.|.|.|.|.|.|.|.|.|.E.P.J.B.B.B.G.|.|.|.|.|.|.|.:., B M g q ' C o 8 5 1 q 5 E.|.|.|.|.|.|.|.|.|.g.7 j P D o.|.|.J.7 P C.C.| P.|.|.|.|.|.|.|.|.|.|.|.|.",
"|.|.|.|.|.|.|.|.|.|.|.|.|.|.|.|.|.|.|.|.|.|.|.|.|.|.|.|.|.E.5 0 j m 8 B.|.q.9 7 a j B G n.E.|.|.|.|.|.|.|.|.y M P L H J.|.|.=.D w.a.O.P.|.|.|.|.|.|.|.|.|.|.|.|.",
"|.|.|.|.|.|.|.|.|.|.|.|.|.|.|.|.|.|.|.|.|.|.|.|.|.|.|.|.|.|.h., D ] ~ B B.|.) % a B ~ H B B ..|.|.|.|.|.|.E.4 j H D Q 8.J.|.!.) G O.>.E.|.|.|.|.|.|.|.|.|.|.|.|.",
"|.|.|.|.|.|.|.|.|.|.|.|.|.|.|.|.|.|.|.|.|.|.|.|.|.|.|.|.|.|.h.: ! L @.5.t.j.P.+.q B ~ O.>.| ! +.|.|.|.|.|.|.' q [ O.a.p.@.n.|.|.q.:.|.|.|.|.|.|.|.|.|.|.|.|.|.|.",
"|.|.|.|.|.|.|.|.|.|.|.|.|.|.|.|.|.|.|.|.|.|.|.|.|.|.|.|.|.|.n.; h y.D.Y.v.O.N.|.k.x G H ! j M H E.|.|.|.|.|.|.! B x.I.v.t.;.|.|.|.|.|.|.|.|.|.|.|.|.|.|.|.|.|.|.",
"|.|.|.|.|.|.|.|.|.|.|.|.|.|.|.|.|.|.|.|.|.|.|.|.|.|.|.|.|.|.|.q.i >.f.t.~ | B.|.|.|.q._ ..+.+.j.|.|.|.|.|.|.|.|.=.! O.~ M <.|.|.|.|.|.|.|.|.|.|.|.|.|.|.|.|.|.|.",
"|.|.|.|.|.|.|.|.|.|.|.|.|.|.|.|.|.|.|.|.|.|.|.|.|.|.|.|.|.|.|.|.q.^ ..' ^ j.|.|.|.|.|.|.|.|.|.|.|.|.|.|.|.|.|.|.E.q.u.h.s.J.|.|.|.|.|.|.|.|.|.|.|.|.|.|.|.|.|.|.",
"|.|.|.|.|.|.|.|.|.|.|.|.|.|.|.|.|.|.|.|.|.|.|.|.|.|.|.|.|.|.|.|.|.|.|.|.|.|.|.|.|.|.|.|.|.|.|.|.|.|.|.|.|.|.|.|.|.|.|.|.|.|.|.|.|.|.|.|.|.|.|.|.|.|.|.|.|.|.|.|.",
"|.|.|.|.|.|.|.|.|.|.|.|.|.|.|.|.|.|.|.|.|.|.|.|.|.|.|.|.|.|.|.|.|.|.|.|.|.|.|.|.|.|.|.|.|.|.|.|.|.|.|.|.|.|.|.|.|.|.|.|.|.|.|.|.|.|.|.|.|.|.|.|.|.|.|.|.|.|.|.|.",
"|.|.|.|.|.|.|.|.|.|.|.|.|.|.|.|.|.|.|.|.|.|.|.|.|.|.|.|.|.|.|.|.|.|.|.|.|.|.|.|.|.|.|.|.|.|.|.|.|.|.|.|.|.|.|.|.|.|.|.|.|.|.|.|.|.|.|.|.|.|.|.|.|.|.|.|.|.|.|.|.",
"|.|.|.|.|.|.|.|.|.|.|.|.|.|.|.|.|.|.|.|.|.|.|.|.|.|.|.|.|.|.|.|.|.|.|.|.|.|.|.|.|.|.|.|.|.|.|.|.|.|.|.|.|.|.|.|.|.|.|.|.|.|.|.|.|.|.|.|.|.|.|.|.|.|.|.|.|.|.|.|.",
"|.|.|.|.|.|.|.|.|.|.|.|.|.|.|.|.|.|.|.|.|.|.|.|.|.|.|.|.|.|.|.|.|.|.|.|.|.|.|.|.|.|.|.|.|.|.|.|.|.|.|.|.|.|.|.|.|.|.|.|.|.|.|.|.|.|.|.|.|.|.|.|.|.|.|.|.|.|.|.|."
};
