/* XPM */
static char *louis_front_paw_mirror[] = {
/* columns rows colors chars-per-pixel */
"80 80 204 2 ",
"   c #020201",
".  c #090906",
"X  c #0C0C0A",
"o  c #060906",
"O  c #12120E",
"+  c #1F1909",
"@  c #151413",
"#  c #171816",
"$  c #1A1916",
"%  c #161718",
"&  c #1D1C1A",
"*  c #191614",
"=  c #120D08",
"-  c #211F1A",
";  c #24221D",
":  c #2A2417",
">  c #252522",
",  c #292722",
"<  c #2C2A25",
"1  c #2C2C2C",
"2  c #302E27",
"3  c #302E2A",
"4  c #34332D",
"5  c #39362F",
"6  c #333433",
"7  c #3C3A35",
"8  c #3C3C3A",
"9  c #413E36",
"0  c #413F39",
"q  c #4A3D33",
"w  c #45433C",
"e  c #49453C",
"r  c #454037",
"t  c #66463D",
"y  c #675C3E",
"u  c #7C6722",
"i  c #6F633F",
"p  c #454543",
"a  c #4A4740",
"s  c #4C4943",
"d  c #4B4A4A",
"f  c #524E45",
"g  c #5E4940",
"h  c #545146",
"j  c #55534A",
"k  c #5A564C",
"l  c #5D584E",
"z  c #595046",
"x  c #4E4F50",
"c  c #535454",
"v  c #5D5A51",
"b  c #5C5D5D",
"n  c #565758",
"m  c #61594D",
"M  c #625D53",
"N  c #605750",
"B  c #7E574D",
"V  c #6E6243",
"C  c #656155",
"Z  c #6A6357",
"A  c #666359",
"S  c #6B665A",
"D  c #6E695D",
"F  c #716A5E",
"G  c #786B58",
"H  c #7F7256",
"J  c #5F5F61",
"K  c #626363",
"L  c #6D6A62",
"P  c gray42",
"I  c #676768",
"U  c #736E62",
"Y  c #7A6E64",
"T  c #767165",
"R  c #797366",
"E  c #7B7669",
"W  c #7E796C",
"Q  c #737474",
"!  c #7C7A74",
"~  c #7C7C7C",
"^  c #787778",
"/  c #90721B",
"(  c #967B29",
")  c #937C38",
"_  c #886E26",
"`  c #8A7D59",
"'  c #83766D",
"]  c #827C6E",
"[  c #8A7670",
"{  c #847E71",
"}  c #8B7C73",
"|  c #917F79",
" . c #9E822C",
".. c #B0902E",
"X. c #BF9F3A",
"o. c #AE8B29",
"O. c #D6AF30",
"+. c #D6AE2E",
"@. c #E2BC31",
"#. c #8F825F",
"$. c #928255",
"%. c #868175",
"&. c #8A8376",
"*. c #878379",
"=. c #8C8679",
"-. c #8E897B",
";. c #92847B",
":. c #928B7D",
">. c #948173",
",. c #B4A375",
"<. c #7F7F80",
"1. c #848384",
"2. c #8E8C82",
"3. c #8A8B8A",
"4. c #948E81",
"5. c #959183",
"6. c #999385",
"7. c #9B968A",
"8. c #9E998B",
"9. c #969188",
"0. c #929292",
"q. c gray61",
"w. c #9F9C92",
"e. c #A19B8D",
"r. c #A29689",
"t. c #A39E92",
"y. c #A79F96",
"u. c #A7A08F",
"i. c #A6A193",
"p. c #ABA495",
"a. c #A6A498",
"s. c #ACA599",
"d. c #AEA99B",
"f. c #B3A59A",
"g. c #B2AC9D",
"h. c #B9AB9D",
"j. c #BAB199",
"k. c #A5A5A4",
"l. c gray67",
"z. c #AEABA1",
"x. c #B3AEA2",
"c. c #BAAFA2",
"v. c #B6B1A4",
"b. c #B8B3A5",
"n. c #B3B2AB",
"m. c #BAB5AA",
"M. c #BDB9AC",
"N. c gray70",
"B. c #BBBBBC",
"V. c #BAB9B5",
"C. c #C1BCAE",
"Z. c #C1BDB1",
"A. c #C5C1B5",
"S. c #C9C5B7",
"D. c #C7C3B9",
"F. c #CAC6BA",
"G. c #CDC9BB",
"H. c #D0CBBE",
"J. c #BFC0C0",
"K. c #C3C3C3",
"L. c #CECBC1",
"P. c gray81",
"I. c #D2CFC3",
"U. c #D5D2C4",
"Y. c #DAD5C6",
"T. c #D4D3C9",
"R. c #D9D6C9",
"E. c #DDD9CC",
"W. c #DCD8C6",
"Q. c gray84",
"!. c #D5D5D5",
"~. c #DEDCD2",
"^. c #D7D8D8",
"/. c #D8D9D9",
"(. c #DDDDDD",
"). c #E1DDCC",
"_. c #E1DDD1",
"`. c #E4E0CE",
"'. c #E5E2D5",
"]. c #E8E4D4",
"[. c #E7E4D8",
"{. c #E9E6D9",
"}. c #ECE9DC",
"|. c #EDE9D7",
" X c #E1E1E2",
".X c #EDEBE0",
"XX c #EEEEEE",
"oX c gray92",
"OX c #F1EFE3",
"+X c #F2F0E6",
"@X c #F8F6EC",
"#X c #F4F4F4",
"$X c gray98",
"%X c gray99",
"&X c #FDFDFD",
"*X c #FCFDFD",
"=X c magenta",
"-X c #FEFFFE",
";X c #FEFFFF",
":X c white",
">X c #FFFEFE",
",X c #FDFEFD",
"<X c #FEFEFE",
"1X c #F7F8F7",
/* pixels */
"=X=X=X=X=X=X=X=X=X=X=X=X=X=X=X=X=X=X=X=X=X=X=X=X=X=X=X=X=X=X=X=X=X=X=X=X=X=X=X=X=X=X=X=X=X=X=X=X=X=X=X=X=X=X=X=X=X=X=X=X=X=X=X=X=X=X=X=X=X=X=X=X=X=X=X=X=X=X=X=X",
"=X=X=X=X=X=X=X=X=X=X=X=X=X=X=X=X=X=X=X=X=X=X=X=X=X=X=X=X=X=X=X=X=X=X=X=X=X=X=X=X=X=X=X=X=X=X=X=X=X=X=X=X=X=X=X=X=X=X=X=X=X=X=X=X=X=X=X=X=X=X=X=X=X=X=X=X=X=X=X=X",
"=X=X=X=X=X=X=X=X=X=X=X=X=X=X=X=X=X=X=X=X=X=X=X=X=X=X=X=X=X=X=X=X=X=X=X=X=X=X=X=X=X=X=X=X=X=X=X=X=X=X=X=X=X=X=X=X=X=X=X=X=X=X=X=X=X=X=X=X=X=X=X=X=X=X=X=X=X=X=X=X",
"=X=X=X=X=X=X=X=X=X=X=X=X=X=X=X=X=X=X=X=X=X=X=X=X=X=X=X/.Q.Q.oX=X=X=X=X=X=X=X=X=X=X=X=X=X=X=X=X=X=XQ././.=X=X=X=X=X=X=X=X=X=X=X=X=X=X=X=X=X=X=X=X=X=X=X=X=X=X=X=X",
"=X=X=X=X=X=X=X=X=X=X=X=X=X=X=X=X=X=X=X=X=X=X=X=X=X=X^.< * X Q =X=X=X=X=X=X=X=X=X=X=X=X=X=X=X=X=Xk.X * - K.=X=X=X=X=X=X=X=X=X=X=X=X=X=X=X=X=X=X=X=X=X=X=X=X=X=X=X",
"=X=X=X=X=X=X=X=X=X=X=X=X=X=X=X=X=X=X=X=X=X=X=X=X=XoX1 Y { =.9 ~ =X=X=X=X=X=X=X=X=X=X=X=X=X=X=Xq.; } ' ' > /.=X=X=X=X=X=X=X=X=X=X=X=X=X=X=X=X=X=X=X=X=X=X=X=X=X=X",
"=X=X=X=X=X=X=X=X=X=X=X=X=X=X=X=X=X=X=X=X=X=X=X=X=XoX< } 7.:.:.7 1.=X=X=X=X=X=X=X=X=X=X=X=X=XN., :.r.r.;.- Q.=X=X=X=X=X=X=X=X=X=X=X=X=X=X=X=X=X=X=X=X=X=X=X=X=X=X",
"=X=X=X=X=X=X=X=X=X=X=X=X=X=X=X=X=X=X=X=X=X=X=X=X=XoX1 } s.x.c.r.5 ~ =X#X=X=X=X=X=X=X=X#X=XB., { p.h.c.:.; ^.=X=X=X=X=X=X=X=X=X=X=X=X=X=X=X=X=X=X=X=X=X=X=X=X=X=X",
"=X=X=X=X=X=X=X=X=X=X=X=X=X=X=X=X=X=X=X=X=X=X=X=X=XoX1 [ s.b.x.c.E 4 ~ =X=X=X=X=X=X=X=X=Xl.< E p.p.f.g.;.; /.=X=X=X=X=X=X=X=X=X=X=X=X=X=X=X=X=X=X=X=X=X=X=X=X=X=X",
"=X=X=X=X=X=X=X=X=X=X=X=X=X=X=X=X=X=X=X=X=X=X=X=X=XoX1 [ s.x.g.g.4.S v P P P I P P P P Q L l 4.p.p.f.f.;.; ^.=X=X=X=X=X=X=X=X=X=X=X=X=X=X=X=X=X=X=X=X=X=X=X=X=X=X",
"=X=X=X=X=X=X=X=X=X=X=X=X=X=X=X=X=X=X=X=X=X=X=X=X=XoX< [ s.s.r.u.7.{ D < & @ @ @ * & ; 4 C =.r.p.r.r.f.| ; /.=X=X=X=X=X=X=X=X=X=X=X=X=X=X=X=X=X=X=X=X=X=X=X=X=X=X",
"=X=X=X=X=X=X=X=X=X=X=X=X=X=X=X=X=X=X=X=X=X=X=X=X=XoX< } y.t.-.:.:.E -.5.j l M e M T f =.=.] r.r.] ;.p.| & Q.=X=X=X=X=X=X=X=X=X=X=X=X=X=X=X=X=X=X=X=X=X=X=X=X=X=X",
"=X=X=X=X=X=X=X=X=X=X=X=X=X=X=X=X=X=X=X=X=X=X=X=X=XoX> F } =.{ ] %.] -.*.e E L 9 v =.j { %.{ 7.:.{ E ] F O Q.=X=X=X=X=X=X=X=X=X=X=X=X=X=X=X=X=X=X=X=X=X=X=X=X=X=X",
"=X=X=X=X=X=X=X=X=X=X=X=X=X=X=X=X=X=X=X=X=X=X=X=X=XoX> N ' =.p.p.r.:.4.=.e { U 9 l =.j { -.=.r.g.g.] Y l @ /.=X=X=X=X=X=X=X=X=X=X=X=X=X=X=X=X=X=X=X=X=X=X=X=X=X=X",
"=X=X=X=X=X=X=X=X=X=X=X=X=X=X=X=X=X=X=X=X=X=X=X=X=X=X Xd M :.=.{ =.=.4.%.l A A e l T f W 4.=.=.=.4.;.l 4 Q.=X=X=X=X=X=X=X=X=X=X=X=X=X=X=X=X=X=X=X=X=X=X=X=X=X=X=X",
"=X=X=X=X=X=X=X=X=X=X=X=X=X=X=X=X=X=X=X=X=X=X=X=X=X=X=Xc , =.W W ] =.4.C %.l M e U l E l %.=.%.{ ] =.4 @ =X=X=X=X=X=X=X=X=X=X=X=X=X=X=X=X=X=X=X=X=X=X=X=X=X=X=X=X",
"=X=X=X=X=X=X=X=X=X=X=X=X=X=X=X=X=X=X=X=X=X=X=X=X=X=X=Xx 3 ] =.:.8.7.7.a ] E h f l E =.9 %.8.7.:.%.=.h & Q.=X=X=X=X=X=X=X=X=X=X=X=X=X=X=X=X=X=X=X=X=X=X=X=X=X=X=X",
"=X=X=X=X=X=X=X=X=X=X=X=X=X=X=X=X=X=X=X=X=X=X=X=X=X=Xq.X S =.-.5.m.Z.C.t.5.{ W %.{ =.:.7.A.Z.s.r.=.{ %.; c =X=X=X=X=X=X=X=X=X=X=X=X=X=X=X=X=X=X=X=X=X=X=X=X=X=X=X",
"=X=X=X=X=X=X=X=X=X=X=X=X=X=X=X=X=X=X=X=X=X=X=X=X=X=Xq.X T %.{ ] y y 4 *.H.t.=.7.7.%.m.i.j G V ] E E =.4 c =X=X=X=X=X=X=X=X=X=X=X=X=X=X=X=X=X=X=X=X=X=X=X=X=X=X=X",
"=X=X=X=X=X=X=X=X=X=X=X=X=X=X=X=X=X=X=X=X=X=X=X=X=X0.> f f l E G O.( + / ,.m.E 5.=.i.j./ = u @.V L M f M 3 I =X=X=X=X=X=X=X=X=X=X=X=X=X=X=X=X=X=X=X=X=X=X=X=X=X=X",
"=X=X=X=X=X=X=X=X=X=X=X=X=X=X=X=X=X=X=X=X=X=X=X=X=XP   l f W L.:.O. .: +.i 7.=.7.=.5.H o.* u @.#.F.r.Z C , d =X=X=X=X=X=X=X=X=X=X=X=X=X=X=X=X=X=X=X=X=X=X=X=X=X=X",
"=X=X=X=X=X=X=X=X=X=X=X=X=X=X=X=X=X=X=X=X=X=X=X=X=XQ . S =.=.T U ) X. ...  l 7.4.7.l X ( _  .) ] %.] :.T ; c =X=X=X=X=X=X=X=X=X=X=X=X=X=X=X=X=X=X=X=X=X=X=X=X=X=X",
"=X=X=X=X=X=X=X=X=X=X=X=X=X=X=X=X=X=X=X=X=X=X=X=X=XQ . S -.=.U =.] ` ` H U m :.7.7.F M H $.V l :.E E -.E * c =X=X=X=X=X=X=X=X=X=X=X=X=X=X=X=X=X=X=X=X=X=X=X=X=X=X",
"=X=X=X=X=X=X=X=X=X=X=X=X=X=X=X=X=X=X=X=X=X=X=X=X=XP   j S 7.4.{ E T U U =.m ] i.:.Z ] T U E E E :.7.] f O d =X=X=X=X=X=X=X=X=X=X=X=X=X=X=X=X=X=X=X=X=X=X=X=X=X=X",
"=X=X=X=X=X=X=X=X=X=X=X=X=X=X=X=X=X=X=X=X=X=X=X=X=X/.~ ; M E D ] =.-.:.8.s.z G >.G q 7.:.=.] { ] =.E D < b Q.=X=X=X=X=X=X=X=X=X=X=X=X=X=X=X=X=X=X=X=X=X=X=X=X=X=X",
"=X=X=X=X=X=X=X=X=X=X=X=X=X=X=X=X=X=X=X=X=X=X=X=X=X=XN.  v f ] g.s.d.g.E G.t.t B t :.Y.E :.r.8.8.T S S * ~ =X=X=X=X=X=X=X=X=X=X=X=X=X=X=X=X=X=X=X=X=X=X=X=X=X=X=X",
"=X=X=X=X=X=X=X=X=X=X=X=X=X=X=X=X=X=X=X=X=X=X=X=X=X=X#Xk.3 ] u.h.F.).G.g.R.+X=.g ;.OX).b.Z.Y.m.8.:.=.9 q.#X=X=X=X=X=X=X=X=X=X=X=X=X=X=X=X=X=X=X=X=X=X=X=X=X=X=X=X",
"=X=X=X=X=X=X=X=X=X=X=X=X=X=X=X=X=X=X=X=X=X=X=X=X=X=X=X/.O ] 7.g.G.U.F.A.^.OX}.M {.+XR.C.S.E.G.m.r.] * N.=X=X=X=X=X=X=X=X=X=X=X=X=X=X=X=X=X=X=X=X=X=X=X=X=X=X=X=X",
"=X=X=X=X=X=X=X=X=X=X=X=X=X=X=X=X=X=X=X=X=X=X=X=X=X=X=XQ.X S G.G.g.p.x.x.r.8.=.e =.7.m.Z.b.b.b.G.Y.-.  V.=X=X=X=X=X=X=X=X=X=X=X=X=X=X=X=X=X=X=X=X=X=X=X=X=X=X=X=X",
"=X=X=X=X=X=X=X=X=X=X=X=X=X=X=X=X=X=X=X=X=X=X=X=X=X=X=X#Xk.S =.8.i.m.m.d.5.E v 8.{ M i.F.A.C.b.i.7.l 3.oX=X=X=X=X=X=X=X=X=X=X=X=X=X=X=X=X=X=X=X=X=X=X=X=X=X=X=X=X",
"=X=X=X=X=X=X=X=X=X=X=X=X=X=X=X=X=X=X=X=X=X=X=X=X=X=X=X/.; e =.g.:.r.S._.OX|.|.].}.}.}.[.U.p.-.g.r.h @ B.=X=X=X=X=X=X=X=X=X=X=X=X=X=X=X=X=X=X=X=X=X=X=X=X=X=X=X=X",
"=X=X=X=X=X=X=X=X=X=X=X=X=X=X=X=X=X=X=X=X=X=X=X=X=X=X=XQ.* l T -.:.4.s.H.W.`.].].].`.).F.b.i.-.=.] F ; N.=X=X=X=X=X=X=X=X=X=X=X=X=X=X=X=X=X=X=X=X=X=X=X=X=X=X=X=X",
"=X=X=X=X=X=X=X=X=X=X=X=X=X=X=X=X=X=X=X=X=X=X=X=X=X=X=X X* { 7.=.-.p.d.d.g.U.E.E.E.U.b.b.b.x.7.=.4.7.; B.=X=X=X=X=X=X=X=X=X=X=X=X=X=X=X=X=X=X=X=X=X=X=X=X=X=X=X=X",
"=X=X=X=X=X=X=X=X=X=X=X=X=X=X=X=X=X=X=X=X=X=X=X=X=X=XK.8 e 4.g.r.b.A.b.d.s.p.d.d.p.p.p.d.C.I.p.s.s.7.C a 0.=X=X=X=X=X=X=X=X=X=X=X=X=X=X=X=X=X=X=X=X=X=X=X=X=X=X=X",
"=X=X=X=X=X=X=X=X=X=X=X=X=X=X=X=X=X=X=X=X=X=X=X=X=X=Xl.  W =.8.m.'.F.b.S.G.m.m.m.m.m.W.C.m.U.R.G.s.4.4.O I =X=X=X=X=X=X=X=X=X=X=X=X=X=X=X=X=X=X=X=X=X=X=X=X=X=X=X",
"=X=X=X=X=X=X=X=X=X=X=X=X=X=X=X=X=X=X=X=X=X=X=X=X=X#X0.< %.%.r.C.U._.U.).`.E.'.'.'.'.].).Y.U.R.F.x.7.4.3 b  X=X=X=X=X=X=X=X=X=X=X=X=X=X=X=X=X=X=X=X=X=X=X=X=X=X=X",
"=X=X=X=X=X=X=X=X=X=X=X=X=X=X=X=X=X=X=X=X=X=X=X=X=XI < U %.-.a.U.'..X].].].{.{.}.}.}.].].].}.'.E.m.4.=.M ; & =X=X=X=X=X=X=X=X=X=X=X=X=X=X=X=X=X=X=X=X=X=X=X=X=X=X",
"=X=X=X=X=X=X=X=X=X=X=X=X=X=X=X=X=X=X=X=X=X=X=X=X=Xb < W E :.a.[..X].].].].{.{.{.{.{.].].].].}.+Xm.4.{ Z < @ #X=X=X=X=X=X=X=X=X=X=X=X=X=X=X=X=X=X=X=X=X=X=X=X=X=X",
"=X=X=X=X=X=X=X=X=X=X=X=X=X=X=X=X=X=X=X=X=X=X=X=X=Xb 3 -.=.4.a.[.{.'.].{.{.{.{.{.{.{.].].'.'.'.OXM.8.=.=.M @ oX=X=X=X=X=X=X=X=X=X=X=X=X=X=X=X=X=X=X=X=X=X=X=X=X=X",
"=X=X=X=X=X=X=X=X=X=X=X=X=X=X=X=X=X=X=X=X=X=X=X=X=Xb < W U -.t.A.E.'.'.{.{.{.{.{.{.{.].].'.'.'.I.m.4.T F U @ oX=X=X=X=X=X=X=X=X=X=X=X=X=X=X=X=X=X=X=X=X=X=X=X=X=X",
"=X=X=X=X=X=X=X=X=X=X=X=X=X=X=X=X=X=X=X=X=X=X=X=X=XJ < E C W 7.s.E.].{.{.{.{.{.[.{.{.{.{.{.].'.A.t.E D S e @ oX=X=X=X=X=X=X=X=X=X=X=X=X=X=X=X=X=X=X=X=X=X=X=X=X=X",
"=X=X=X=X=X=X=X=X=X=X=X=X=X=X=X=X=X=X=X=X=X=X=X=X=XI , E ] T S { U.].{.{.{.{.[.[.[.{.{.{.{.'.E.d.E U { %.a @ oX=X=X=X=X=X=X=X=X=X=X=X=X=X=X=X=X=X=X=X=X=X=X=X=X=X",
"=X=X=X=X=X=X=X=X=X=X=X=X=X=X=X=X=X=X=X=X=X=X=X=X=XI > W 7.=.] S t..X{.{.{.{.[.[.[.{.{.{.{.[.i.F =.7.7.:.j @ oX=X=X=X=X=X=X=X=X=X=X=X=X=X=X=X=X=X=X=X=X=X=X=X=X=X",
"=X=X=X=X=X=X=X=X=X=X=X=X=X=X=X=X=X=X=X=X=X=X=X=X=XI < E 7.r.r.:.8.F.'.{.{.{.[.[.[.[.{.{.'.m.7.:.r.d.8.E l @ oX=X=X=X=X=X=X=X=X=X=X=X=X=X=X=X=X=X=X=X=X=X=X=X=X=X",
"=X=X=X=X=X=X=X=X=X=X=X=X=X=X=X=X=X=X=X=X=X=X=X=X=XI < U { t.r.t.d.m.'.{.{.[.[.{.[.[.[.{.'.b.p.i.r.r.-.E l * oX=X=X=X=X=X=X=X=X=X=X=X=X=X=X=X=X=X=X=X=X=X=X=X=X=X",
"=X=X=X=X=X=X=X=X=X=X=X=X=X=X=X=X=X=X=X=X=X=X=X=X=XI , U { 4.7.i.Z.F.'.{.[.[.[.{.[.[.'.].'.A.b.i.u.:.] =.M & oX=X=X=X=X=X=X=X=X=X=X=X=X=X=X=X=X=X=X=X=X=X=X=X=X=X",
"=X=X=X=X=X=X=X=X=X=X=X=X=X=X=X=X=X=X=X=X=X=X=X=X=Xb ; U E E 4.i.F.R.}.[.'.'.[.{.[.'.'.'.'.F.x.r.:.{ ] =.M & oX=X=X=X=X=X=X=X=X=X=X=X=X=X=X=X=X=X=X=X=X=X=X=X=X=X",
"=X=X=X=X=X=X=X=X=X=X=X=X=X=X=X=X=X=X=X=X=X=X=X=X=XI > A M T { 7.m.m._.{.'.'.[.[.{.[.'.'.A.b.m.7.{ =.=.T l > oX=X=X=X=X=X=X=X=X=X=X=X=X=X=X=X=X=X=X=X=X=X=X=X=X=X",
"=X=X=X=X=X=X=X=X=X=X=X=X=X=X=X=X=X=X=X=X=X=X=X=X=X=XP - M E 7.7.x.b.Z.U.[.'.[.{.[.^.'.S.x.g.i.7.T S S l < Q.=X=X=X=X=X=X=X=X=X=X=X=X=X=X=X=X=X=X=X=X=X=X=X=X=X=X",
"=X=X=X=X=X=X=X=X=X=X=X=X=X=X=X=X=X=X=X=X=X=X=X=X=X=XQ @ S D 7.t.d.m.x.b.C.E.{.{.{.U.Z.x.s.7.U F m M F f & #X=X=X=X=X=X=X=X=X=X=X=X=X=X=X=X=X=X=X=X=X=X=X=X=X=X=X",
"=X=X=X=X=X=X=X=X=X=X=X=X=X=X=X=X=X=X=X=X=X=X=X=X=X=XQ * M l Q { 7.x.b.s.m.G.U._.E.F.x.r.4.E M l E =.4.l * oX=X=X=X=X=X=X=X=X=X=X=X=X=X=X=X=X=X=X=X=X=X=X=X=X=X=X",
"=X=X=X=X=X=X=X=X=X=X=X=X=X=X=X=X=X=X=X=X=X=X=X=X=X=XQ * D v l S E { 7.s.b.b.m.m.m.m.b.:.U E ] E 7.7.7.D @ oX=X=X=X=X=X=X=X=X=X=X=X=X=X=X=X=X=X=X=X=X=X=X=X=X=X=X",
"=X=X=X=X=X=X=X=X=X=X=X=X=X=X=X=X=X=X=X=X=X=X=X=X=X=XQ * =.%.U F S l E 7.x.x.g.d.g.b.7.F S r.p.s.i.7.=.l @ oX=X=X=X=X=X=X=X=X=X=X=X=X=X=X=X=X=X=X=X=X=X=X=X=X=X=X",
"=X=X=X=X=X=X=X=X=X=X=X=X=X=X=X=X=X=X=X=X=X=X=X=X=X=X3.  D i.i.4.W S W D t.b.x.b.m.g.S l 7.r.t.p.d.:.l e X oX=X=X=X=X=X=X=X=X=X=X=X=X=X=X=X=X=X=X=X=X=X=X=X=X=X=X",
"=X=X=X=X=X=X=X=X=X=X=X=X=X=X=X=X=X=X=X=X=X=X=X=X=X=X=Xd e t.i.8.7.7.=.Z =.r.^ A C l C { r.t.7.%.=.E e 6 K.=X=X=X=X=X=X=X=X=X=X=X=X=X=X=X=X=X=X=X=X=X=X=X=X=X=X=X",
"=X=X=X=X=X=X=X=X=X=X=X=X=X=X=X=X=X=X=X=X=X=X=X=X=X=X=Xp , %.7.i.t.r.r.W l ] - X 1   e =.r.7.Z l C E a 1 =X=X=X=X=X=X=X=X=X=X=X=X=X=X=X=X=X=X=X=X=X=X=X=X=X=X=X=X",
"=X=X=X=X=X=X=X=X=X=X=X=X=X=X=X=X=X=X=X=X=X=X=X=X=X=X=XJ.> M -.=.r.i.t.r.C 5 ^  X=X> ; -.:.U ] =.T ] C & =X=X=X=X=X=X=X=X=X=X=X=X=X=X=X=X=X=X=X=X=X=X=X=X=X=X=X=X",
"=X=X=X=X=X=X=X=X=X=X=X=X=X=X=X=X=X=X=X=X=X=X=X=X=X=X=X=X8 f E S E { t.t.{ X V.=X#X6 @ U -.W i.i.7.=.v Q =X=X=X=X=X=X=X=X=X=X=X=X=X=X=X=X=X=X=X=X=X=X=X=X=X=X=X=X",
"=X=X=X=X=X=X=X=X=X=X=X=X=X=X=X=X=X=X=X=X=X=X=X=X=X=X=X=X6 a D l l C r.t.p.; l.=X#Xp O C i.s.=.W 7.L 1 =X=X=X=X=X=X=X=X=X=X=X=X=X=X=X=X=X=X=X=X=X=X=X=X=X=X=X=X=X",
"=X=X=X=X=X=X=X=X=X=X=X=X=X=X=X=X=X=X=X=X=X=X=X=X=X=X=X=X6 h ] T C S E =.r.< N.=X=XQ   { g.8.A h l 9 6 =X=X=X=X=X=X=X=X=X=X=X=X=X=X=X=X=X=X=X=X=X=X=X=X=X=X=X=X=X",
"=X=X=X=X=X=X=X=X=X=X=X=X=X=X=X=X=X=X=X=X=X=X=X=X=X=X=X=X6 * A p.=.{ C l T ; N.=X=X3.  { p.t.s.%.v < 1 =X=X=X=X=X=X=X=X=X=X=X=X=X=X=X=X=X=X=X=X=X=X=X=X=X=X=X=X=X",
"=X=X=X=X=X=X=X=X=X=X=X=X=X=X=X=X=X=X=X=X=X=X=X=X=X=X=X=X6   v :.5.8.4.=.r., l.=X=X3.  E p.i.i.8.4.7 1 =X=X=X=X=X=X=X=X=X=X=X=X=X=X=X=X=X=X=X=X=X=X=X=X=X=X=X=X=X",
"=X=X=X=X=X=X=X=X=X=X=X=X=X=X=X=X=X=X=X=X=X=X=X=X=X=X=X=X1 X j %.7.t.t.i.g.< l.=X=Xb < :.7.W W r.A . 6 =X=X=X=X=X=X=X=X=X=X=X=X=X=X=X=X=X=X=X=X=X=X=X=X=X=X=X=X=X",
"=X=X=X=X=X=X=X=X=X=X=X=X=X=X=X=X=X=X=X=X=X=X=X=X=X=X=X=X1   j W U %.t.r.p.< l.=X#X& 2.g.8.5.W E a o 6 =X=X=X=X=X=X=X=X=X=X=X=X=X=X=X=X=X=X=X=X=X=X=X=X=X=X=X=X=X",
"=X=X=X=X=X=X=X=X=X=X=X=X=X=X=X=X=X=X=X=X=X=X=X=X=X=X=X=X1 & j U M ] i.r.p.> l.=X#X> 4.x.5.5.i.T a * 6 =X=X=X=X=X=X=X=X=X=X=X=X=X=X=X=X=X=X=X=X=X=X=X=X=X=X=X=X=X",
"=X=X=X=X=X=X=X=X=X=X=X=X=X=X=X=X=X=X=X=X=X=X=X=X=X=X=X=X1 { 0 e 8.7.4.4.s.; l.=X=X> 2.s.W E t.7 l a 1 =X=X=X=X=X=X=X=X=X=X=X=X=X=X=X=X=X=X=X=X=X=X=X=X=X=X=X=X=X",
"=X=X=X=X=X=X=X=X=X=X=X=X=X=X=X=X=X=X=X=X=X=X=X=X=X=X=X=X& { 7 4 -.{ T E i.; l.=XoX> 2.d.i.7.i.6 a E d 1.=X=X=X=X=X=X=X=X=X=X=X=X=X=X=X=X=X=X=X=X=X=X=X=X=X=X=X=X",
"=X=X=X=X=X=X=X=X=X=X=X=X=X=X=X=X=X=X=X=X=X=X=X=X=X=X=X=X<.4 X 7 T U 7.5.p.; l.=X6 2.L.x.w.8.:.> 0 8.U X #X=X=X=X=X=X=X=X=X=X=X=X=X=X=X=X=X=X=X=X=X=X=X=X=X=X=X=X",
"=X=X=X=X=X=X=X=X=X=X=X=X=X=X=X=X=X=X=X=X=X=X=X=X=X=X=X=X=X3.% 7 %.-.t.7.p.> l.=X& m.@XF.m.m.s.& 8 :.l > #X=X=X=X=X=X=X=X=X=X=X=X=X=X=X=X=X=X=X=X=X=X=X=X=X=X=X=X",
"=X=X=X=X=X=X=X=X=X=X=X=X=X=X=X=X=X=X=X=X=X=X=X=X=X=X=X=X1X=Xn < %.E U S t.4 N.=X> m.OX[..X[.=.7 v { 0 # #X=X=X=X=X=X=X=X=X=X=X=X=X=X=X=X=X=X=X=X=X=X=X=X=X=X=X=X",
"=X=X=X=X=X=X=X=X=X=X=X=X=X=X=X=X=X=X=X=X=X=X=X=X=X=X=X=X=X=Xd 0 s.5.W { p.4 m.=X> x.'.^.}.R.@ @ ; O & N.=X=X=X=X=X=X=X=X=X=X=X=X=X=X=X=X=X=X=X=X=X=X=X=X=X=X=X=X",
"=X=X=X=X=X=X=X=X=X=X=X=X=X=X=X=X=X=X=X=X=X=X=X=X=X=X=X=X=X=Xd 0 s.7.8.8.s.4 N.=X@ z.d.D.[.y.  3.B.N.B.=X=X=X=X=X=X=X=X=X=X=X=X=X=X=X=X=X=X=X=X=X=X=X=X=X=X=X=X=X",
"=X=X=X=X=X=X=X=X=X=X=X=X=X=X=X=X=X=X=X=X=X=X=X=X=X=X=X=X=X#Xp L R.D.G.L.m.< 0.=XK.a w._.s.p K.=X=X=X=X=X=X=X=X=X=X=X=X=X=X=X=X=X=X=X=X=X=X=X=X=X=X=X=X=X=X=X=X=X",
"=X=X=X=X=X=X=X=X=X=X=X=X=X=X=X=X=X=X=X=X=X=X=X=X=X=X=X=X=X^ e +X}.{..X+X'.7.O /.=XB.p > j K.=X=X=X=X=X=X=X=X=X=X=X=X=X=X=X=X=X=X=X=X=X=X=X=X=X=X=X=X=X=X=X=X=X=X",
"=X=X=X=X=X=X=X=X=X=X=X=X=X=X=X=X=X=X=X=X=X=X=X=X=X=X=X=X=X~ d @XR.'.[.R..X^.& /.=X=XB.q.K.=X=X=X=X=X=X=X=X=X=X=X=X=X=X=X=X=X=X=X=X=X=X=X=X=X=X=X=X=X=X=X=X=X=X=X",
"=X=X=X=X=X=X=X=X=X=X=X=X=X=X=X=X=X=X=X=X=X=X=X=X=X=X=X=X=XQ d +X2.^..Xw.^.U.# /.=X=X=X=X=X=X=X=X=X=X=X=X=X=X=X=X=X=X=X=X=X=X=X=X=X=X=X=X=X=X=X=X=X=X=X=X=X=X=X=X",
"=X=X=X=X=X=X=X=X=X=X=X=X=X=X=X=X=X=X=X=X=X=X=X=X=X=X=X=X=X~ 7 Z.=.L.^.t.G.b.&  X=X=X=X=X=X=X=X=X=X=X=X=X=X=X=X=X=X=X=X=X=X=X=X=X=X=X=X=X=X=X=X=X=X=X=X=X=X=X=X=X",
"=X=X=X=X=X=X=X=X=X=X=X=X=X=X=X=X=X=X=X=X=X=X=X=X=X=X=X=X=X=X1.  @ & & @   a oX=X=X=X=X=X=X=X=X=X=X=X=X=X=X=X=X=X=X=X=X=X=X=X=X=X=X=X=X=X=X=X=X=X=X=X=X=X=X=X=X=X",
"=X=X=X=X=X=X=X=X=X=X=X=X=X=X=X=X=X=X=X=X=X=X=X=X=X=X=X=X=X=XoXB.K.B.B.B.B.P.=X=X=X=X=X=X=X=X=X=X=X=X=X=X=X=X=X=X=X=X=X=X=X=X=X=X=X=X=X=X=X=X=X=X=X=X=X=X=X=X=X=X",
"=X=X=X=X=X=X=X=X=X=X=X=X=X=X=X=X=X=X=X=X=X=X=X=X=X=X=X=X=X=X=X=X=X=X=X=X=X=X=X=X=X=X=X=X=X=X=X=X=X=X=X=X=X=X=X=X=X=X=X=X=X=X=X=X=X=X=X=X=X=X=X=X=X=X=X=X=X=X=X=X"
};
