/* XPM */
static char *louis_front_grumpy[] = {
/* columns rows colors chars-per-pixel */
"42 80 204 2 ",
"   c #2D2D29",
".  c #232323",
"X  c #32322F",
"o  c #353331",
"O  c #393733",
"+  c #3C3A36",
"@  c #3D3D39",
"#  c #4E3E24",
"$  c #413F3A",
"%  c #5A522F",
"&  c #44423D",
"*  c #49443E",
"=  c #544A3D",
"-  c #705A2B",
";  c #6C5E35",
":  c #6B5D3F",
">  c #7D6C3D",
",  c #464541",
"<  c #4A4642",
"1  c #4C4A45",
"2  c #4D4D4A",
"3  c #524D46",
"4  c #524E4A",
"5  c #545046",
"6  c #55514B",
"7  c #5A544C",
"8  c #5C584F",
"9  c #565551",
"0  c #5B5752",
"q  c #5E5954",
"w  c #5D5C5A",
"e  c #67544C",
"r  c #78594D",
"t  c #605752",
"y  c #625C54",
"u  c #635E59",
"i  c #6B5F5A",
"p  c #666057",
"a  c #696057",
"s  c #66615B",
"d  c #6B645C",
"f  c #6F695F",
"g  c #73665D",
"h  c #72695D",
"j  c #796E5F",
"k  c #7D725C",
"l  c #646361",
"z  c #6C6661",
"x  c #6E6963",
"c  c #6D6C6A",
"v  c #736761",
"b  c #736C64",
"n  c #786F66",
"m  c #756E68",
"M  c #767066",
"N  c #797167",
"B  c #75716A",
"V  c #7B746B",
"C  c #7E786E",
"Z  c #757472",
"A  c #7E7770",
"S  c #777877",
"D  c #7D7972",
"F  c #7D7C7B",
"G  c #8E6C61",
"H  c #80766D",
"J  c #81796E",
"K  c #8C7C6C",
"L  c #8A7C62",
"P  c #807771",
"I  c #847C73",
"U  c #897E73",
"Y  c #827E79",
"T  c #978549",
"R  c #9F9051",
"E  c #9E905A",
"W  c #AB9750",
"Q  c #A99859",
"!  c #BDAA56",
"~  c #91856C",
"^  c #9E9069",
"/  c #9E9362",
"(  c #868076",
")  c #8B8176",
"_  c #84817C",
"`  c #8C847B",
"'  c #8E897E",
"]  c #91867B",
"[  c #938A7E",
"{  c #908676",
"}  c #9B937F",
"|  c #858482",
" . c #8B8782",
".. c #8C8983",
"X. c #8D8C8A",
"o. c #948D83",
"O. c #9A8E84",
"+. c #968E88",
"@. c #988F88",
"#. c #969186",
"$. c #9A9186",
"%. c #95928C",
"&. c #9C948A",
"*. c #9E988D",
"=. c #959594",
"-. c #979997",
";. c #9C9A93",
":. c #9C9C9B",
">. c #9B9791",
",. c #A29486",
"<. c #A3948A",
"1. c #A8958B",
"2. c #A29A8E",
"3. c #A39984",
"4. c #A49D93",
"5. c #A89D92",
"6. c #A29F98",
"7. c #BEB081",
"8. c #A6A096",
"9. c #ABA296",
"0. c #A5A39C",
"q. c #ACA59A",
"w. c #AEA99D",
"e. c #B0A79A",
"r. c #B3AA9E",
"t. c #B8A99F",
"y. c #A5A5A3",
"u. c #ACAAA4",
"i. c #A7A7A8",
"p. c #ABABAB",
"a. c #B4ADA2",
"s. c #BAADA3",
"d. c #B9AFA9",
"f. c #B7B1A6",
"g. c #BAB2A6",
"h. c #B5B1AB",
"j. c #BCB5AA",
"k. c #BEB8AD",
"l. c #B4B4B2",
"z. c #BAB9B5",
"x. c #BCBBBA",
"c. c #B9B7B2",
"v. c #C0B7AA",
"b. c #C1BAAE",
"n. c #C4BDB1",
"m. c #C6BFB6",
"M. c #C5C3B7",
"N. c #CAC2B5",
"B. c #C2C1BC",
"V. c #CCC5BA",
"C. c #CEC9BC",
"Z. c #D2CBBE",
"A. c #D0C7BC",
"S. c #C4C4C3",
"D. c #CCCAC4",
"F. c #CBCBCA",
"G. c #D3CDC3",
"H. c #D2CEC8",
"J. c #D5D1C5",
"K. c #DAD4C6",
"L. c #D3D2CB",
"P. c #DAD5CA",
"I. c #DED9CD",
"U. c #D5D5D3",
"Y. c #D8D7D6",
"T. c #DCDAD3",
"R. c #DDDDDB",
"E. c #E1DBCD",
"W. c #E2DED2",
"Q. c #E2DFDA",
"!. c #E5E1D5",
"~. c #E8E3D6",
"^. c #E5E2DB",
"/. c #EAE6DA",
"(. c #EDE9DD",
"). c #E4E4E3",
"_. c #E8E6E3",
"`. c #E7E8E6",
"'. c #E9E8E7",
"]. c #EBE9E2",
"[. c #E9E9E9",
"{. c #EEEEEC",
"}. c #ECEDEC",
"|. c #F3EEE3",
" X c #EFF0EE",
".X c #F5F2E8",
"XX c #F9F3E9",
"oX c #F4F4F3",
"OX c #F7F8F6",
"+X c #FAFAFA",
"@X c #FBFCFB",
"#X c #FCFCFB",
"$X c #FCFCFC",
"%X c #FDFDFD",
"&X c #FF00FF",
"*X c #FEFEFD",
"=X c #FEFEFC",
"-X c #FEFDFE",
";X c #FEFEFE",
":X c #FFFFFF",
">X c #FEFFFE",
",X c #FDFEFD",
"<X c #FEFEFE",
"1X c #FBF6F0",
/* pixels */
"&X&X&X&X&X&X&X&X&X&X&X&X&X&X&X&X&X&X&X&X&X&X&X&X&X&X&X&X&X&X&X&X&X&X&X&X&X&X&X&X&X&X",
"&X&X&X&X&X&X&X&X&X&X&X&X&X&X&X&X&X&X&X&X&X&X&X&X&X&X&X&X&X&X&X&X&X&X&X&X&X&X&X&X&X&X",
"&X&X&X&X&X&X&X&X&X&X&X&X&X&X&X&X&X&X&X&X&X&X&X&X&X&X&X&X&X&X&X&X&X&X&X&X&X&X&X&X&X&X",
"&X&X&X&X&X&X&X&X&X&X%.' %.&X&X&X&X&X&X&X&X&X&X&X&X&X&X&Xy.I I ).&X&X&X&X&X&X&X&X&X&X",
"&X&X&X&X&X&X&X&XoX;.I U x u.&X&X&X&X&X&X&X&X&X&X&X&X&XM.x U ] ' ).&X&X&X&X&X&X&X&X&X",
"&X&X&X&X&X&X&X&X}.d O.5.4.m c.&X&X&X&X&X&X&X&X&X&X&XL.D &.4.,.d U.&X&X&X&X&X&X&X&X&X",
"&X&X&X&X&X&X&X&X}.m O.s.g.q.B c.&X&X&X&X&X&X&X&X&XQ.D 4.g.a.,.x Y.&X&X&X&X&X&X&X&X&X",
"&X&X&X&X&X&X&X&X}.x O.s.g.g.2.d h.oX'.}.}.}.`.[.}.' o.g.a.a.1.d Y.&X&X&X&X&X&X&X&X&X",
"&X&X&X&X&X&X&X&X}.v O.s.a.t.5.' x 4 4 2 2 1 1 1 t ' 2.t.a.a.,.d U.&X&X&X&X&X&X&X&X&X",
"&X&X&X&X&X&X&X&X}.m ,.s.,.2.8.' ' V s x u x q x o.' &.8.8.e.,.i U.&X&X&X&X&X&X&X&X&X",
"&X&X&X&X&X&X&X&X Xx ] $.] O.&.] o.A A ' 0 A B x $.] O.o.o.,.O.t U.&X&X&X&X&X&X&X&X&X",
"&X&X&X&X&X&X&X&XoXm H ) 8.g.4.o.&.V V Y 7 A A s $.O.5.t.t.{ U x U.&X&X&X&X&X&X&X&X&X",
"&X&X&X&X&X&X&X&X&XoXo.I 5.&.o.[ o.N f V q m d m o.O.[ [ ,.I m ^.&X&X&X&X&X&X&X&X&X&X",
"&X&X&X&X&X&X&X&X&X&X' x o.] [ [ M N V m d d V ( H $.) ] [ I 2 oX&X&X&X&X&X&X&X&X&X&X",
"&X&X&X&X&X&X&X&X&Xx.q V [ &.4.d.;.C O.J m m ' I O.g.g.8.] [ x ..&X&X&X&X&X&X&X&X&X&X",
"&X&X&X&X&X&X&X&X&X| 1 o.' O.[ 3.t.M.2.o.o.[ &.s.;.J ~ [ [ &.B x &X&X&X&X&X&X&X&X&X&X",
"&X&X&X&X&X&X&X&XR.c x m m h Q > # ^ g.o.o.] k.7.: % W k D V V s l.&X&X&X&X&X&X&X&X&X",
"&X&X&X&X&X&X&X&X:.$ x V a.) Q L - W $.&.&.&.$.T T ; ! } a.J m 4 | &X&X&X&X&X&X&X&X&X",
"&X&X&X&X&X&X&X&Xi.& ..o.J ) / T T > = ] &.[ t ; Q R E I V ' o.4 X.&X&X&X&X&X&X&X&X&X",
"&X&X&X&X&X&X&X&X:.+ _ $.J [ { k L j V ' 4.U m ) K ~ U ' ) ) I & F &X&X&X&X&X&X&X&X&X",
"&X&X&X&X&X&X&X&XS.l d ) o.] ' ' ' *.P v 1.K g q.*.o.#.' ) ' x q i.&X&X&X&X&X&X&X&X&X",
"&X&X&X&X&X&X&X&X&Xl.& V N &.&.;.#.w.a.e G r ,.M.4.w.4.2.I m & y.&X&X&X&X&X&X&X&X&X&X",
"&X&X&X&X&X&X&X&X&X'.X.m ' q.g.G.g.g.'.q.e U (.M.g.K.G.k.q.V | `.&X&X&X&X&X&X&X&X&X&X",
"&X&X&X&X&X&X&X&X&X&XS.C 8.a.C.K.N.G.XXXXD W.XXI.Z.K.E.n.t.I R.&X&X&X&X&X&X&X&X&X&X&X",
"&X&X&X&X&X&X&X&X&X&Xx.D I.G.N.b.g.b.a.2.m [ 4.t.g.g.g.V.G.B R.&X&X&X&X&X&X&X&X&X&X&X",
"&X&X&X&X&X&X&X&X&X&X'.z.8.q.g.b.m.N.4.4.n.4.q.t.N.n.t.a.;.y.).&X&X&X&X&X&X&X&X&X&X&X",
"&X&X&X&X&X&X&X&X&X&XF.4 V g.&.4.A.W.XXXX|.XX|.~.V.2.$.a.I < D.&X&X&X&X&X&X&X&X&X&X&X",
"&X&X&X&X&X&X&X&X&X&XF.6 o.$.#.e.g.n.G.(.~.(.I.b.t.8.2.' o.d L.&X&X&X&X&X&X&X&X&X&X&X",
"&X&X&X&X&X&X&X&X&X'._ m q.4.2.g.g.f.g.b.b.b.g.a.g.g.e.5.g.o.F F.&X&X&X&X&X&X&X&X&X&X",
"&X&X&X&X&X&X&X&X&XY.9 &.*.g.V.V.b.V.V.g.g.g.g.C.n.b.G.b.8.2.0 h.&X&X&X&X&X&X&X&X&X&X",
"&X&X&X&X&X&X&X&X}.X.D 4.4.b.J.J.E.~.~.W.!.!.E.(.E.E.K.n.2.2.' c x.&X&X&X&X&X&X&X&X&X",
"&X&X&X&X&X&X&X&XS.&  .*.q.J.!.(.(.~.(.(.(.(.(.(.(.(.!.K.4.o.) & X.&X&X&X&X&X&X&X&X&X",
"&X&X&X&X&X&X&X&XF.q o.' 8.^.(.(.(.~.~.(.!.(.(.(.(.(.(.(.a.$.I u ;.&X&X&X&X&X&X&X&X&X",
"&X&X&X&X&X&X&X&XF.9 o.*.w.D.^.(.(.(.(.(.(.(.(.(.(.(.(.K.q.2.#.6 -.&X&X&X&X&X&X&X&X&X",
"&X&X&X&X&X&X&X&XF.1 V I #.g.!.(.(.(.(.(.(.(.(.(.(.(.E.b.8.' M $ :.&X&X&X&X&X&X&X&X&X",
"&X&X&X&X&X&X&X&XF.1 ' ) I #.L.|.(.(.(.(.(.(.(.(.(.(.!.4.( J I < 6.&X&X&X&X&X&X&X&X&X",
"&X&X&X&X&X&X&X&Xl.,  .4.' D w.W.(.(.(.(.(.(.(.(.(.!.k.( ' $.o.4 -.&X&X&X&X&X&X&X&X&X",
"&X&X&X&X&X&X&Xx.@ 4 V 4.q.8.;.k.!.(.(.(.(.(.(.(.(.N.8.2.8.4.' s @ -.&X&X&X&X&X&X&X&X",
"&X&X&X&X&X&X&Xz.@ q V 4.q.q.a.M.I.(.(.(.(.(.(.(.W.C.g.8.8.2.[ f $ X.&X&X&X&X&X&X&X&X",
"&X&X&X&X&X&X&Xx., x m ' q.a.J.K.L.(.(.(.(.(.(.W.C.E.K.g.w.o.I V 1 X.&X&X&X&X&X&X&X&X",
"&X&X&X&X&X&X&Xx.1 x t ( C.V.I.(.(.(.(.(.(.(.(.(.(.~.K.V.G.%.d B 4 +.&X&X&X&X&X&X&X&X",
"&X&X&X&X&X&X&Xx.6 ' d J K.W.!.(.(.(.(.(.(.(.(.(.^.~.~.E.J.&.f o.q X.&X&X&X&X&X&X&X&X",
"&X&X&X&X&X&X&XD.6 ' U [ C.K.(.(.(.(.(.(.(.(.(.(.(.(.~.K.J.*.' ' 4 -.&X&X&X&X&X&X&X&X",
"&X&X&X&X&X&X).Z 0 I ) ] f.K.(.(.(.(.(.(.(.(.(.(.(.(.(.E.g.$.' ) 4 l ).&X&X&X&X&X&X&X",
"&X&X&X&X&X&Xx.  q I ) K o.M.W.(.(.(.(.(.(.(.(.^.(.(.K.Z.2.) ' I q . :.&X&X&X&X&X&X&X",
"&X&X&X&X&X&X&Xy.4 ' ] U [ q.n.W.(.(.(.(.(.(.^.(.(.W.N.g.4.' ' ) 1 F &X&X&X&X&X&X&X&X",
"&X&X&X&X&X&X&XS.1 _ ) U $.w.g.k.Z.W.(.(.(.(.(.(.J.b.n.g.o.] V I < -.&X&X&X&X&X&X&X&X",
"&X&X&X&X&X&X&XS.@ x V U U &.a.g.f.G.I.W.(.!.I.J.n.g.g.4.' U m x @ :.&X&X&X&X&X&X&X&X",
"&X&X&X&X&X&X}.-.@ u I [ &.4.a.g.g.n.C.I.^.!.J.b.g.g.t.8.&.&.[ x , c U.&X&X&X&X&X&X&X",
"&X&X&X&X&X&Xy.o 4 0 M ' 4.q.q.g.g.g.C.J.K.K.V.h.g.k.q.8.o.' I x s & c &X&X&X&X&X&X&X",
"&X&X&X&X&X}.X.4 w 4 p m m m I 4.g.g.g.g.z.k.g.g.z.w.$.' m a m x u 0 w x.&X&X&X&X&X&X",
"&X&X&X&X&X-.@ s u 0 D ' g m m I 4.g.g.g.g.g.g.h.a.$.n h d V o.s 0 s , w &X&X&X&X&X&X",
"&X&X&X&X&X:., m V 7 A &.I V V I V 4.g.g.g.g.g.q.M o.U H V o.o.u u B 0 c &X&X&X&X&X&X",
"&X&X&X&XS.0 x ' I t d o.,.2.2.&.V M w.g.g.g.g.V f [ $.&.5.2.N 7 m I m q | &X&X&X&X&X",
"&X&X&X&Xy.3 ' ] I u 5 m U e.t.t.&.d o.a.g.g.q.s I 2.e.t.$.J 7 3 m V ' m u &X&X&X&X&X",
"&X&X&X&Xy.6 ' o.I V t 0 V O.8.a.a.V M 8.g.a.o.d q.t.e.2.' m 0 0 m U &.V l &X&X&X&X&X",
"&X&X&X&Xi.4 o.$.J I s 3 m I &.q.q.' m 4.b.a.C ' q.8.2.I V d 6 V m ' ,.m s &X&X&X&X&X",
"&X&X&X&Xy.3 &.o.V I s 6 x m N I 4.4.m d &.( t 2.q.$.d m m d 7 V m U O.d w &X&X&X&X&X",
"&X&X&X&Xy.1 [ ) V I d q m d a m o.4.V q ' m 7 4.*.I p d m x 7 V V ) ' q w &X&X&X&X&X",
"&X&X&X&Xy.* I I V I m x ..V m J C o.M q o.V 6 I V M m J o.x d I I [ ) 7 w &X&X&X&X&X",
"&X&X&X&X:.& I V N #.I t m O.&.*.' ' x q  .m 8 ' ( o.2.o.' 7 V O.) I ' 6 2 &X&X&X&X&X",
"&X&X&X&XS.u q V &.&.V 7 m o.8.8.q.f.' 7 V s d a.q.q.e.$.V 7 V o.$.[ t q i.&X&X&X&X&X",
"&X&X&X&X&Xi.+ m $.2.' t d H I &.w.a...7 V s d t.q.8.' J V 3 m $.,.) * x &X&X&X&X&X&X",
"&X&X&X&X&Xl.1 s ' [ o.t d J N o.t.a.' 6 V s d a.q.8.J N V 7 I [ o.C 2 F &X&X&X&X&X&X",
"&X&X&X&X&X&Xi.1 V I o.m m &.4.[ ' a.' 3 B u s a.o.I &.$.( t ' ) ) q | &X&X&X&X&X&X&X",
"&X&X&X&X&X&X&Xh.< I o.V d g ' I I q.' 1 B q u a.' I ) n 7 d ' ' m @  .&X&X&X&X&X&X&X",
"&X&X&X&X&X&X&XS.+ m V I d d $.2.4.w._ 1 m 0 t a.q.q.2.V 7 x m x 1 1 i.&X&X&X&X&X&X&X",
"&X&X&X&X&X&X&XM.O 6 t m d m &.o.&.4._ < q 4 s w.&.&.&.o.6 u 7 1 X :.&X&X&X&X&X&X&X&X",
"&X&X&X&X&X&X&Xl.  Y V q 7 d &.' m '  .< q 6 x q.H ' 2.[ 3 1 s V & :.&X&X&X&X&X&X&X&X",
"&X&X&X&X&X&X&X}.z.>.4.x 1 t 2.&.J &.o.4 x 0 x q.V o.t.' 3 7 ] ' h.oX&X&X&X&X&X&X&X&X",
"&X&X&X&X&X&X&X&XL.s 4. .6 u &.&.&.4.o.6 u 7 d 8.$.&.4.o.6 U &.d X.&X&X&X&X&X&X&X&X&X",
"&X&X&X&X&X&X&X&Xx.1 Y Y s 6.a.a.a.a.o.3 o O x q.h.g.k.h.B V ' < | &X&X&X&X&X&X&X&X&X",
"&X&X&X&X&X&X&X&X&XZ +   D '.(.(.'.G.o.6 w s d G.(.(.(..XY.0 + Z oX&X&X&X&X&X&X&X&X&X",
"&X&X&X&X&X&X&X&X&XoXi.l ;.^.Q._.L.K.G.t h.D.&.'.D.Q.^.L.Y._ x.oX&X&X&X&X&X&X&X&X&X&X",
"&X&X&X&X&X&X&X&X&X&X&XR.;.Y.m.1Xu.L.W.d L.h.) (.u.Y.(.q.G.Z oX&X&X&X&X&X&X&X&X&X&X&X",
"&X&X&X&X&X&X&X&X&X&X&XR.6.q.>.h.+.&.4.g.oXS.o.8.' 8.q.I %.:.}.&X&X&X&X&X&X&X&X&X&X&X",
"&X&X&X&X&X&X&X&X&X&X&X&X).|  .| X.Y -.&X&X&XY._ ........%.&X&X&X&X&X&X&X&X&X&X&X&X&X",
"&X&X&X&X&X&X&X&X&X&X&X&X&X&X&X&X&X&X&X&X&X&X&X&X&X&X&X&X&X&X&X&X&X&X&X&X&X&X&X&X&X&X",
"&X&X&X&X&X&X&X&X&X&X&X&X&X&X&X&X&X&X&X&X&X&X&X&X&X&X&X&X&X&X&X&X&X&X&X&X&X&X&X&X&X&X",
"&X&X&X&X&X&X&X&X&X&X&X&X&X&X&X&X&X&X&X&X&X&X&X&X&X&X&X&X&X&X&X&X&X&X&X&X&X&X&X&X&X&X"
};
