/* XPM */
static char *louis_front80[] = {
/* columns rows colors chars-per-pixel */
"38 80 199 2 ",
"   c #2E2C29",
".  c #3D3D3A",
"X  c #373633",
"o  c #4A3C21",
"O  c #413E3B",
"+  c #504527",
"@  c #43423E",
"#  c #48433C",
"$  c #4C483F",
"%  c #564B3D",
"&  c #645A2E",
"*  c #725D37",
"=  c #72643B",
"-  c #7F723D",
";  c #454341",
":  c #4A4642",
">  c #4C4945",
",  c #4E4C4A",
"<  c #524C44",
"1  c #524E4A",
"2  c #55524D",
"3  c #5A544C",
"4  c #5E584E",
"5  c #585247",
"6  c #4E4E50",
"7  c #565451",
"8  c #595651",
"9  c #5D5953",
"0  c #5D5C5A",
"q  c #60594E",
"w  c #625C55",
"e  c #695C52",
"r  c #625E59",
"t  c #745C50",
"y  c #6E6247",
"u  c #72664F",
"i  c #666056",
"p  c #64615B",
"a  c #6A645C",
"s  c #6E685F",
"d  c #70665E",
"f  c #786A5A",
"g  c #646361",
"h  c #6C6660",
"j  c #6E6962",
"k  c #6D6C6A",
"l  c #716760",
"z  c #746C64",
"x  c #7B6E64",
"c  c #786F69",
"v  c #736E68",
"b  c #757066",
"n  c #7A7266",
"m  c #75726B",
"M  c #7B746B",
"N  c #7E796E",
"B  c #767573",
"V  c #7E7A72",
"C  c #7C7C7A",
"Z  c #787774",
"A  c #8D7F4D",
"S  c #81744C",
"D  c #8F7F5A",
"F  c #866858",
"G  c #836E66",
"H  c #837066",
"J  c #837D65",
"K  c #81766C",
"L  c #827A6D",
"P  c #8B7E6C",
"I  c #847C73",
"U  c #897F74",
"Y  c #847E78",
"T  c #917E73",
"R  c #95834C",
"E  c #A39256",
"W  c #A89757",
"Q  c #B2A65B",
"!  c #8A806B",
"~  c #868175",
"^  c #8A8276",
"/  c #85827A",
"(  c #8C857A",
")  c #8E887D",
"_  c #91877C",
"`  c #928A7E",
"'  c #978774",
"]  c #A4986B",
"[  c #B4A267",
"{  c #C6AF64",
"}  c #858482",
"|  c #8C8680",
" . c #8C8A83",
".. c #8D8D8C",
"X. c #948C82",
"o. c #998E83",
"O. c #928E8A",
"+. c #8F918F",
"@. c #959085",
"#. c #9B9285",
"$. c #94908B",
"%. c #9C958A",
"&. c #9E988D",
"*. c #959492",
"=. c #989693",
"-. c #9E9A91",
";. c #9C9B9A",
":. c #A2968B",
">. c #A29A8E",
",. c #A5988B",
"<. c #A59E92",
"1. c #A99E94",
"2. c #A39F9B",
"3. c #A6A196",
"4. c #ABA295",
"5. c #A7A499",
"6. c #ACA59A",
"7. c #AEA99C",
"8. c #B1A59A",
"9. c #B2AA9D",
"0. c #B8AC9D",
"q. c #B2A494",
"w. c #BBB197",
"e. c #A5A4A3",
"r. c #ABA9A7",
"t. c #ADADAA",
"y. c #A8A4A1",
"u. c #B4ADA2",
"i. c #B8AFA4",
"p. c #B6B1A4",
"a. c #BAB2A5",
"s. c #B6B2AF",
"d. c #BDB6AA",
"f. c #BFB9AC",
"g. c #B4B4B2",
"h. c #B9B6B4",
"j. c #B9B9B6",
"k. c #BDBAB4",
"l. c #BCBBBA",
"z. c #C0B7AC",
"x. c #C2BAAD",
"c. c #C3BEB3",
"v. c #C1BFBB",
"b. c #C6C2B5",
"n. c #C9C3B6",
"m. c #C4C2BD",
"M. c #CCC6BA",
"N. c #CEC9BD",
"B. c #D2CBBE",
"V. c #D6D0BF",
"C. c #CBC7C0",
"Z. c #CBC9C5",
"A. c #CCCCCB",
"S. c #D3CDC1",
"D. c #D0CFCE",
"F. c #D5D1C5",
"G. c #DAD3C5",
"H. c #D3D1CC",
"J. c #DBD6CA",
"K. c #DEDACD",
"L. c #D6D6D6",
"P. c #D3D3D2",
"I. c #DCDAD4",
"U. c #DCDCDA",
"Y. c #E1DACB",
"T. c #E2DFD2",
"R. c #E0DFDC",
"E. c #E6E1D5",
"W. c #E9E3D6",
"Q. c #E6E2DB",
"!. c #EAE6DA",
"~. c #ECE9DD",
"^. c #F0E7D8",
"/. c #F3EBDD",
"(. c #E2E2E3",
"). c #E9E7E0",
"_. c #E7E8E7",
"`. c #ECE9E3",
"'. c #EDEDED",
"]. c #F1EBE1",
"[. c #F0EFED",
"{. c #F6F2EC",
"}. c #F4F4F4",
"|. c #FFFAF0",
" X c #FBFBFB",
".X c #FAFAFA",
"XX c #FAFAF9",
"oX c #FCFBFB",
"OX c #FCFBFC",
"+X c #FCFCFC",
"@X c #FDFDFD",
"#X c #FCFDFD",
"$X c #FEFEFD",
"%X c #FDFEFE",
"&X c #FF00FF", 
"*X c #FFFFFF",
"=X c #FEFFFE",
"-X c #FDFEFD",
";X c #FEFEFE",
/* pixels */
"&X&X&X&X&X&X&X&X&X&X&X&X&X&X&X&X&X&X&X&X&X&X&X&X&X&X&X&X&X&X&X&X&X&X&X&X&X&X",
"&X&X&X&X&X&X&X&X&X&X&X&X&X&X&X&X&X&X&X&X&X&X&X&X&X&X&X&X&X&X&X&X&X&X&X&X&X&X",
"&X&X&X&X&X&X&X&X&X&X&X&X&X&X&X&X&X&X&X&X&X&X&X&X&X&X&X&X&X&X&X&X&X&X&X&X&X&X",
"&X&X&X&X&X&X&X&X&X&X&X&X&X&X&X&X&X&X&X&X&X&X&X&X&X&X&X&X&X&X&X&X&X&X&X&X&X&X",
"&X&X&X&X&X&X&X&X&X&X&X&X&X&X&X&X&X&X&X&X&X&X&X&X&X&X&X&X&X&X&X&X&X&X&X&X&X&X",
"&X&X&X&X&X&X&X&XA.O.*.h.&X&X&X&X&X&X&X&X&X&X&X&X&X&XL. .O.s.&X&X&X&X&X&X&X&X",
"&X&X&X&X&X&X&XH.Y Y ^ V h.&X&X&X&X&X&X&X&X&X&X&X&X_.| V Y M h.&X&X&X&X&X&X&X",
"&X&X&X&X&X&X&Xg.h 1.<.%.a s.&X&X&X&X&X&X&X&X&X&X'. .Y <.1.K $.&X&X&X&X&X&X&X",
"&X&X&X&X&X&X&Xj.l 4.u.4.%.M t.&X&X&X&X&X&X&X&X&X=.z u.9.q.x <.&X&X&X&X&X&X&X",
"&X&X&X&X&X&X&Xj.d 8.a.u.1.#.V A.U.L.L.L.L.H.L.g.a 4.8.0.q.H 2.&X&X&X&X&X&X&X",
"&X&X&X&X&X&X&Xj.d 8.u.u.u.o.%.r : : @ . O @ ; m X.4.0.9.q.H 2.&X&X&X&X&X&X&X",
"&X&X&X&X&X&X&Xj.a 4.4.<.4.%.X.| h h p 8 p 8 Y ` ` 8.4.4.4.G 2.&X&X&X&X&X&X&X",
"&X&X&X&X&X&X&Xj.a :.o.` ` X.` o.z Y M w Y j M o.#.:.o.>.1.x -.&X&X&X&X&X&X&X",
"&X&X&X&X&X&X&Xh.h o._ 9.a.1.` X.h ^ M w ^ z M :.#.9.z.>._ Y r.&X&X&X&X&X&X&X",
"&X&X&X&X&X&X&X&Xm.a ` >.:.o.X.X.l M m a M a M ` ^ #.<.%.a v.&X&X&X&X&X&X&X&X",
"&X&X&X&X&X&X&X&XL.> _ X.X.X.X.a M z M z M ~ f ` o._ _ X.: j.&X&X&X&X&X&X&X&X",
"&X&X&X&X&X&X&X}.} w ` X.4.9.c.%.^ Y M z Y X.N p.0.9.#.X.m p _.&X&X&X&X&X&X&X",
"&X&X&X&X&X&X&X'.> a ^ Y ` #.` 4.c.X.` ` X.a.b.#.n J ^ ^ Y 7 [.&X&X&X&X&X&X&X",
"&X&X&X&X&X&X&Xe.2 w a a y E o = w.<.X.X.>.0.] + - S a h a r ;.&X&X&X&X&X&X&X",
"&X&X&X&X&X&X&Xm 1 z Y 2.u { * W A :.#.#.<.P W = Q E -. .a w , }.&X&X&X&X&X&X",
"&X&X&X&X&X&X&XC 8 X.U j P [ - E & x %.%.~ % R A E D M a Y h 0 &X&X&X&X&X&X&X",
"&X&X&X&X&X&X&XZ > Y ` Y >.' J ! f J %.<.M b J J J J ^ n Y r 2 &X&X&X&X&X&X&X",
"&X&X&X&X&X&X&Xg.8 j U Y ~ )  .$.%.x T ' u ` 7.<.%.` Y ^ V k t.&X&X&X&X&X&X&X",
"&X&X&X&X&X&X&X&X..p M X.4.5.3.@.u.^ t F f f.4.7.7.4.#.Y 8 m &X&X&X&X&X&X&X&X",
"&X&X&X&X&X&X&X&XXXO.Y 4.a.b.B.a.S.~.U e W.K.u.B.F.z.a.#.| g.&X&X&X&X&X&X&X&X",
"&X&X&X&X&X&X&X&X&X$.$.a.a.J.V.z.S.XX<.z {.S.B.J.F.B.p.X.e.&X&X&X&X&X&X&X&X&X",
"&X&X&X&X&X&X&X&X&X=.<.S.b.b.b.z.z.9.w 5 %.9.z.M.z.c.B.5.;.&X&X&X&X&X&X&X&X&X",
"&X&X&X&X&X&X&X&X&XU.2.X.b.a.b.S.a.#.z.B.#.9.B.M.a.u.>.$.v.&X&X&X&X&X&X&X&X&X",
"&X&X&X&X&X&X&X&X&X} > X.u.<.a.c.F././.^./.Y.B.a.>.<.4.2 k &X&X&X&X&X&X&X&X&X",
"&X&X&X&X&X&X&X&X&X} a X.@.<.u.u.a.B.Y.Y.F.z.a.a.u.X.) m Z }.&X&X&X&X&X&X&X&X",
"&X&X&X&X&X&X&X&Xe.8 ^ 4.u.7.z.z.b.u.9.9.9.a.a.M.b.4.4.>.M g &X&X&X&X&X&X&X&X",
"&X&X&X&X&X&X&X&XB j %.>.M.F.N.T.E.S.B.B.N.J.T.K.F.M.a.#.^ k '.&X&X&X&X&X&X&X",
"&X&X&X&X&X&X&X..@ ^ %.4.S.E.E.~.~.~.~.~.~.~.~.W.T.S.a.#.&.m 0 &X&X&X&X&X&X&X",
"&X&X&X&X&X&X&X..2 Y o.7.~.~.~.~.~.~.~.~.~.~.~.~.W.~.B.>.X.j 0 &X&X&X&X&X&X&X",
"&X&X&X&X&X&X&X..p %.X.&.L.~.~.~.~.~.~.~.~.~.~.~.W.~.M.4.<.V 0 &X&X&X&X&X&X&X",
"&X&X&X&X&X&X&X*., M %.5.b.~.~.~.~.~.~.~.~.~.~.~.~.J.9.#.^ w p &X&X&X&X&X&X&X",
"&X&X&X&X&X&X&X..2 Y Y X.a.E.~.~.~.~.~.~.~.~.~.~.~.b.` U Y h r &X&X&X&X&X&X&X",
"&X&X&X&X&X&X&X..7 %.X.Y ) K.~.~.~.~.~.~.~.~.~.W.~.3.M ` X.j g &X&X&X&X&X&X&X",
"&X&X&X&X&X&Xj.0 1 ^ 4.%.$.p.F.~.~.~.~.~.~.~.~.L.f.&.&.4.%.a 1 ;.&X&X&X&X&X&X",
"&X&X&X&X&X&XB X 2 Y <.7.4.b.H.~.~.~.~.~.~.~.~.K.c.7.4.3.X.z @ > &X&X&X&X&X&X",
"&X&X&X&X&X&XC , j M %.4.b.T.E.E.~.~.~.~.~.~.K.F.K.N.9.&.Y z 8 0 &X&X&X&X&X&X",
"&X&X&X&X&X&X} 8 a p -.c.J.~.~.~.~.~.~.~.~.~.E.E.~.J.b.3.a i p 0 &X&X&X&X&X&X",
"&X&X&X&X&X&X} r M w <.K.E.~.~.~.~.~.~.~.~.~.~.W.W.Y.Y.7.a Y b 0 &X&X&X&X&X&X",
"&X&X&X&X&X&X .w X.M &.F.T.W.~.~.~.~.~.~.~.~.W.W.W.Y.F.4.n #.b p &X&X&X&X&X&X",
"&X&X&X&X&X&XV i X._ >.a.F.~.E.~.~.~.~.~.~.~.~.W.W.Y.b.<.` ` a 7 '.&X&X&X&X&X",
"&X&X&X&X&Xe.  z ` _ ^ @.Z.T.W.~.~.~.~.~.~.~.W.E.E.K.4.~ ` ` z   ..&X&X&X&X&X",
"&X&X&X&X&XL.8 p X.` ^ &.u.b.W.~.~.~.~.~.E.W.~.~.F.f.4.^ ` X.a ; A.&X&X&X&X&X",
"&X&X&X&X&X&X..2  .^ @.3.a.a.b.K.~.~.~.~.~.~.T.F.M.z.>.#.^ ^ 8 0 &X&X&X&X&X&X",
"&X&X&X&X&X&X..@ M Y ^ X.4.f.a.M.L.E.~.~.E.E.N.a.z.a.` ^ Y z 2 0 &X&X&X&X&X&X",
"&X&X&X&X&X}.C ; z ^ X.X.&.a.z.m.Z.H.~.~.K.M.c.f.a.4.%.X.X.M 1 , A.&X&X&X&X&X",
"&X&X&X&X&X^ X 5 j ^ X.<.4.9.a.a.M.F.H.J.F.b.i.a.a.4.&.#.#.m 7 O ; &X&X&X&X&X",
"&X&X&X&XU.k > r 8 z z M V %.u.a.z.c.b.M.c.a.a.a.<.^ n z z z 8 g , ;.&X&X&X&X",
"&X&X&X&XV O j 8 w M m z m M %.9.a.a.a.a.a.a.u.<.M x z z ) z 8 p > , &X&X&X&X",
"&X&X&X&X} , m 5 w X.^ M M V Y Y a.z.z.z.a.z.` J K M M ~ %.h 5 M j r &X&X&X&X",
"&X&X&Xj.k m ^ z 5 Y &.>.%.%.Y j &.z.a.a.z.<.n Y %.%.#.3.^ w a _ ^ r C }.&X&X",
"&X&X&X0 8 ^ Y M 5 a Y >.4.4.%.z M u.a.a.i.Y b #.<.4.X.^ z 2 M #.Y z , }.&X&X",
"&X&X&Xk r ^ ^ M a w K _ %.<.4.X.^ 4.a.a.4.Y X.u.4.>.Y M r w M ` #.Y 7 }.&X&X",
"&X&X&Xj a %.^ M Y 5 z x ^ %.4.4.` ` a.f.X.Y <.9.1.^ J z > z M ^ :.^ 7 }.&X&X",
"&X&X&Xp j 4.Y M J < r z a M <.4.<.w ^ X.4 M :.%.J x z a : j n Y %.Y 7 }.&X&X",
"&X&X&Xg w X.^ J n < z j j z ^ <.3.> a z # Y <.X.M z z a > j M J ^ m 2 }.&X&X",
"&X&X&Xg 1 Y ^ ^ J 5 M X.Y ^ Y X.#.< a M $ N X.z ^ Y X.~ 2 M J ^ ^ p 7 }.&X&X",
"&X&X&X8 > Y Y ^ ` d w #.#.3.%.^ Y 5 a z < b Y ` <.>.#.a 8 ^ ^ z Y 0 ; '.&X&X",
"&X&X&Xe.0 p X.` ^ z q Y X.4.4.<.4.p a z 2 3.4.1.1.#.^ i p ^ ` ^ r , C }.&X&X",
"&X&X&X&X..> ` #.` n 5 M J ^ <.<.9.a a z 2 4.9.4._ J N a w ^ X.) 8 , }.&X&X&X",
"&X&X&X&X+.@ Y X.` J 5 M n J >.<.9.a a z 2 4.9.<.Y M J w z ` ) ^ , 6 '.&X&X&X",
"&X&X&X&X;.: j n X.` z ` #.#.M #.u.a w z 5 9.>.n ` %.M w Y ` N 8 , (.&X&X&X&X",
"&X&X&X&X&Xr.; b #.X.z e M n z X.u.a r z 5 u.%.M n M 5 w ^ ) m 2 k &X&X&X&X&X",
"&X&X&X&X&Xg.  a M Y n q X.:.%.<.4.a 5 w 5 7.9.<.%.) 8 p z a 8 1 '.&X&X&X&X&X",
"&X&X&X&X&X&Xk @ a a a 5 ^ ^ ^ ^ 4.a 1 8 8 7.#.) ^ %.p 2 1 8 > . }.&X&X&X&X&X",
"&X&X&X&X&X&XU.=.%.M < 2 ` ` Y n <.p 2 r 8 4.^ ~ #.%.a < a ~  .g.&X&X&X&X&X&X",
"&X&X&X&X&X&X&Xm.@.>.a 5 %.9.%.` 4.r 2 8 2 3.>.%.u.>.a a X.^ $.&X&X&X&X&X&X&X",
"&X&X&X&X&X&X&XY ^ >.Y 5 &.<.1.<.4.a > , 2 <.<.4.3.4.m Y <.M h &X&X&X&X&X&X&X",
"&X&X&X&X&X&X&X*.# z a %.M.M.N.c.4.h     w 4.N.Z.S.F.a.a a : g &X&X&X&X&X&X&X",
"&X&X&X&X&X&X&X}.k   p W._.)._.E.M.Y $.O.| J.W._.).]._. .2 0 A.&X&X&X&X&X&X&X",
"&X&X&X&X&X&X&X&X(.*.^ H.C.W.C.c.~.^ Z.A.%.].S.c.).c.H.2.t.U.&X&X&X&X&X&X&X&X",
"&X&X&X&X&X&X&X&X&X&XO.c.4.~.j.4.J.Y j.m.^ S.z.u./.4.b.M R.&X&X&X&X&X&X&X&X&X",
"&X&X&X&X&X&X&X&X&X&XR.| p m z j p v.&X&Xv.j a j M a M Z.XX&X&X&X&X&X&X&X&X&X",
"&X&X&X&X&X&X&X&X&X&X&XU.L.A.L.L.A.}.&X&X[.A.H.A.A.A.A.&X&X&X&X&X&X&X&X&X&X&X",
"&X&X&X&X&X&X&X&X&X&X&X&X&X&X&X&X&X&X&X&X&X&X&X&X&X&X&X&X&X&X&X&X&X&X&X&X&X&X",
"&X&X&X&X&X&X&X&X&X&X&X&X&X&X&X&X&X&X&X&X&X&X&X&X&X&X&X&X&X&X&X&X&X&X&X&X&X&X"
};
