/* XPM */
static char *louis_walk_right[] = {
/* columns rows colors chars-per-pixel */
"80 80 198 2 ",
"   c #2D2E2D",
".  c #312F2A",
"X  c #363533",
"o  c #393732",
"O  c #3B3A34",
"+  c #3C3B39",
"@  c #413E39",
"#  c #433F37",
"$  c #3D403F",
"%  c #594F2D",
"&  c #43423C",
"*  c #49453D",
"=  c #444441",
"-  c #4A4741",
";  c #4B4A44",
":  c #4E4D4A",
">  c #474843",
",  c #504D46",
"<  c #524E49",
"1  c #55524C",
"2  c #59564D",
"3  c #5D594F",
"4  c #555552",
"5  c #5B5751",
"6  c #5D5A53",
"7  c #5D5C59",
"8  c #695C49",
"9  c #625D55",
"0  c #625F5A",
"q  c #636056",
"w  c #696257",
"e  c #65615A",
"r  c #6A655C",
"t  c #6D695E",
"y  c #726B5E",
"u  c #786D5E",
"i  c #776B55",
"p  c #6B6761",
"a  c #6D6962",
"s  c #6D6D6A",
"d  c #626362",
"f  c #736D63",
"g  c #786F62",
"h  c #716E6B",
"j  c #6E706E",
"k  c #767065",
"l  c #7A7366",
"z  c #73716B",
"x  c #7C756A",
"c  c #7E796C",
"v  c #767573",
"b  c #7B7671",
"n  c #7F7B73",
"m  c #7C7C7B",
"M  c #927D39",
"N  c #807867",
"B  c #80776B",
"V  c #837B6D",
"C  c #897E6F",
"Z  c #857D71",
"A  c #897F71",
"S  c #827F78",
"D  c #908139",
"F  c #88806E",
"G  c #91876F",
"H  c #868174",
"J  c #8B8375",
"K  c #8F8877",
"L  c #84827D",
"P  c #8D857A",
"I  c #8E897B",
"U  c #908577",
"Y  c #91877B",
"T  c #938A7C",
"R  c #998F7E",
"E  c #A89D79",
"W  c #CCB84F",
"Q  c #858483",
"!  c #8D8781",
"~  c #8D8B85",
"^  c gray55",
"/  c #958D81",
"(  c #988F82",
")  c #908E89",
"_  c #969083",
"`  c #9B9385",
"'  c #94938C",
"]  c #9D968A",
"[  c #9F988C",
"{  c #929391",
"}  c #9C9C9B",
"|  c #9C9791",
" . c #A0978A",
".. c #A39B8D",
"X. c #A89E8E",
"o. c #A09786",
"O. c #A59D91",
"+. c #A89F92",
"@. c #A6A194",
"#. c #ABA295",
"$. c #A4A29C",
"%. c #ACA69A",
"&. c #ADA89D",
"*. c #B0A79A",
"=. c #B2AA9D",
"-. c #B3A394",
";. c #A9A7A5",
":. c #A7A8A7",
">. c #ABAAA6",
",. c #A7A9A8",
"<. c #ADADAB",
"1. c #A2A2A0",
"2. c #B4ADA1",
"3. c #BAAFA5",
"4. c #B0AFAE",
"5. c #AFB0AE",
"6. c #B6B1A5",
"7. c #BAB3A5",
"8. c #B3B0AB",
"9. c #BCB5AA",
"0. c #BEB9AC",
"q. c #BDB8A6",
"w. c #AFB2B2",
"e. c #B4B4B3",
"r. c #B9B7B3",
"t. c #B7B8B4",
"y. c #BBB9B4",
"u. c #BCBCBA",
"i. c #C1B8A6",
"p. c #C3BCAF",
"a. c #C8BFAD",
"s. c #C4BDB1",
"d. c #C6C1B4",
"f. c #CAC3B4",
"g. c #C3C2BC",
"h. c #CAC5BB",
"j. c #CECABF",
"k. c #D3CBBD",
"l. c #D7D0BE",
"z. c #BEBFC0",
"x. c #C4C4C3",
"c. c #CBCAC4",
"v. c #CBCCCA",
"b. c #D2CDC2",
"n. c #D0CECB",
"m. c #CED0CF",
"M. c #D6D1C5",
"N. c #D4D2CD",
"B. c #D9D4CA",
"V. c #DDD9CE",
"C. c #D8D2C6",
"Z. c #D3D4D2",
"A. c #DAD7D2",
"S. c #D6D8D6",
"D. c #DBDAD4",
"F. c #DCDDDC",
"G. c #E0DBCC",
"H. c #E2DDD3",
"J. c #E6E1D6",
"K. c #E8E2D6",
"L. c #E5E2DB",
"P. c #EAE5DB",
"I. c #E9E8DE",
"U. c #E4E4E4",
"Y. c #E7E8E7",
"T. c #EDE9E0",
"R. c #E7E9E8",
"E. c gray92",
"W. c #EFF0F1",
"Q. c gray95",
"!. c #F4F4F4",
"~. c #F7F8F7",
"^. c #FFFEF5",
"/. c #F7F8F8",
"(. c #FBFBFB",
"). c #F9F9F9",
"_. c #FBFCFB",
"`. c #FBFCFC",
"'. c #FCFDFC",
"]. c #FDFDFD",
"[. c #FCFDFC",
"{. c #FDFEFD",
"}. c #FDFFFD",
"|. c #FEFEFD",
" X c #FEFDFE",
".X c #FFFDFE",
"XX c #FDFEFE",
"oX c #FDFFFE",
"OX c #FEFEFE",
"+X c #FFFEFE",
"@X c #FEFFFE",
"#X c #FEFEFF",
"$X c #FFFEFF",
"%X c magenta",
"&X c white",
"*X c #FFFFFE",
"=X c #FEFDFD",
"-X c #FEFEFE",
/* pixels */
"%X%X%X%X%X%X%X%X%X%X%X%X%X%X%X%X%X%X%X%X%X%X%X%X%X%X%X%X%X%X%X%X%X%X%X%X%X%X%X%X%X%X%X%X%X%X%X%X%X%X%X%X%X%X%X%X%X%X%X%X%X%X%X%X%X%X%X%X%X%X%X%X%X%X%X%X%X%X%X%X",
"%X%X%X%X%X%X%X%X%X%X%X%X%X%X%X%X%X%X%X%X%X%X%X%X%X%X%X%X%X%X%X%X%X%X%X%X%X%X%X%X%X%X%X%X%X%X%X%X%X%X%X%X%X%X%X%X%X%X%X%X%X%X%X%X%X%X%X%X%X%X%X%X%X%X%X%X%X%X%X%X",
"%X%X%X%X%X%X%X%X%X%X%X%X%X%X%X%X%X%X%X%X%X%X%X%X%X%X%X%X%X%X%X%X%X%X%X%X%X%X%X%X%X%X%X%X%X%X%X%X%X%X%X%X%X%X%X%X%X%X%X%X%X%X%X%X%X%X%X%X%X%X%X%X%X%X%X%X%X%X%X%X",
"%X%X%X%X%X%X%X%X%X%X%X%X%X%X%X%X%X%X%X%X%X%X%X%X%X%X%X%X%X%X%X%X%X%X%X%X%X%X%X%X%X%X%X%X%X%X%X%X%X%X%X%X%X%X%X%X%X%X%X%X%X%X%X%X%X%X%X%X%X%X%X%X%X%X%X%X%X%X%X%X",
"%X%X%X%X%X%X%X%X%X%X%X%X%X%X%X%X%X%X%X%X%X%X%X%X%X%X%X%X%X%X%X%X%X%X%X%X%X%X%X%X%X%X%X%X%X%X%X%X%X%X%X%X%X%X%X%X%X%X%X%X%X%X%X%X%X%X%X%X%X%X%X%X%X%X%X%X%X%X%X%X",
"%X%X%X%X%X%X%X%X%X%X%X%X%X%X%X%X%X%X%X%X%X%X%X%X%X%X%X%X%X%X%X%X%X%X%X%X%X%X%X%X%X%X%X%X%X%X%X%X%X%X%X%X%X%X%X%X%X%X%X%X%X%X%X%X%X%X%X%X%X%X%X%X%X%X%X%X%X%X%X%X",
"%X%X%X%X%X%X%X%X%X%X%X%X%X%X%X%X%X%X%X%X%X%X%X%X%X%X%X%X%X%X%X%X%X%X%X%X%X%X%X%X%X%X%X%X%X%X%X%X%X%X%X%X%X%X%X%X%X%X%X%X%X%X%X%X%X%X%X%X%X%X%X%X%X%X%X%X%X%X%X%X",
"%X%X%X%X%X%X%X%X%X%X%X%X%X%X%X%X%X%X%X%X%X%X%X%X%X%X%X%X%X%X%X%X%X%X%X%X%X%X%X%X%X%X%X%X%X%X%X%X%X%X%X%X%X%X%X%X%X%X%X%X%X%X%X%X%X%X%X%X%X%X%X%X%X%X%X%X%X%X%X%X",
"%X%X%X%X%X%X%X%X%X%X%X%X%X%X%X%X%X%X%X%X%X%X%X%X%X%X%X%X%X%X%X%X%X%X%X%X%X%X%X%X%X%X%X%X%X%X%X%X%X%X%X%X%X%X%X%X%X%X%X%X%X%X%X%X%X%X%X%X%X%X%X%X%X%X%X%X%X%X%X%X",
"%X%X%X%X%X%X%X%X%X%X%X%X%X%X%X%X%X%X%X%X%X%X%X%X%X%X%X%X%X%X%X%X%X%X%X%X%X%X%X%X%X%X%X%X%X%X%X%X%X%X%X%X%X%X%X%X%X%X%X%X%X%X%X%X%X%X%X%X%X%X%X%X%X%X%X%X%X%X%X%X",
"%X%X%X%X%X%X%X%X%X%X%X%X%X%X%X%X%X%X%X%X%X%X%X%X%X%X%X%X%X%X%X%X%X%X%X%X%X%X%X%X%X%X%X%X%X%X%X%X%X%X%X%X%X%X%X%X%X%X%X%X%X%X%X%X%X%X%X%X%X%X%X%X%X%X%X%X%X%X%X%X",
"%X%X%X%X%X%X%X%X%X%X%X%X%X%X%X%X%X%X%X%X%X%X%X%X%X%X%X%X%X%X%X%X%X%X%X%X%X%X%X%X%X%X%X%X%X%X%X%X%X%X%X%X%X%X%X%X%X%X%X%X%X%X%X%X%X%X%X%X%X%X%X%X%X%X%X%X%X%X%X%X",
"%X%X%X%X%X%X%X%X%X%X%X%X%X%X%X%X%X%X%X%X%X%X%X%X%X%X%X%X%X%X%X%X%X%X%X%X%X%X%X%X%X%X%X%X%X%X%X%X%X%X%X%X%X%X%X%X%X%X%X%X%X%X%X%X%X%X%X!.%X%X%X%X%X%X%X%X%X%X%X%X",
"%X%X%X%X%X%X%X%X%X%X%X%X%X%X%X%X%X%X%X%X%X%X%X%X%X%X%X%X%X%X%X%X%X%X%X%X%X%X%X%X%X%X%X%X%X%X%X%X%X%X%X%X%X%X%X%X%X%X%X%X%X%X%X%X%XW.~ b S.%Xm <.%X%X%X%X%X%X%X%X",
"%X%X%X%X%X%X%X%X%X%X%X%X%X%X%X%X%X%X%X%X%X%X%X%X%X%X%X%X%X%X%X%X%X%X%X%X%X%X%X%X%X%X%X%X%X%X%X%X%X%X%X%X%X%X%X%X%X%X%X%X%X%X%X%X!.| P ! R.e.X e.%X%X%X%X%X%X%X%X",
"%X%X%X%X%X%X%X%X%X%X%X%X%X%X%X%X%X%X%X%X%X%X%X%X%X%X%X%X%X%X%X%X%X%X%X%X%X%X%X%X%X%X%X%X%X%X%X%X%X%X%X%X%X%X%X%X%X%X%X%X%X%X%X%X$.A #.3.~ s ; e.%X%X%X%X%X%X%X%X",
"%X%X%X%X%X%X%X%X%X%X%X%X%X%X%X%X%X%X%X%X%X%X%X%X%X%X%X%X%X%X%X%X%X%X%X%X%X%X%X%X%X%X%X%X%X%X%X%X%X%X%X%X%X%X%X%X%X%X%X%X%X%X%Xr.Z  .2.0.r p 1 4.%X%X%X%X%X%X%X%X",
"%X%X%X%X%X%X%X%X%X%X%X%X%X%X%X%X%X%X%X%X%X%X%X%X%X%X%X%X%X%X%X%X%X%X%X%X%X%X%X%X%X%X%X%X%X%X%X%X%X%X%X%X%X%X%X%X%X%X%X%X%X%X;.f ] #.3.2.r 6 @ e.%X%X%X%X%X%X%X%X",
"%X%X%X%X%X%X%X%X%X%X%X%X%X%X%X%X%X%X%X%X%X%X%X%X%X%X%X%X%X%X%X%X%X%X%X%X%X%X%X%X%X%X%X%X%X%X%X%X%X%X%X%X%X%X%X%X%X%X%X%X%X} ; J %.7.#...f 6 < p u.%X%X%X%X%X%X%X",
"%X%X%X%X%X%X%X%X%X%X%X%X%X%X%X%X%X%X%X%X%X%X%X%X%X%X%X%X%X%X%X%X%X%X%X%X%X%X%X%X%X%X%X%X%X%X%X%X%X%X%X%X%X%X%X%X%X%X%X%X<.; p R #.o.-.#.R P l p 1 } %X%X%X%X%X%X",
"%X%X%X%X%X%X%X%X%X%X%X%X%X%X%X%X%X%X%X%X%X%X%X%X%X%X%X%X%X%X%X%X%X%X%X%X%X%X%X%X%X%X%X%X%X%X%X%X%X%X%X%X%X%X%X%X%X%X!.t.< l l R O.R #...R ] A / l 1 ' %X%X%X%X%X",
"%X%X%X%X%X%X%X%X%X%X%X%X%X%X%X%X%X%X%X%X%X%X%X%X%X%X%X%X%X%X%X%X%X%X%X%X%X%X%X%X%X%X%X%X%X%X%X%X%X%X%X%X%X%X%X%X%X%Xx.+ b Z y J O.Z R R R / / R l f 6 Q !.%X%X%X",
"%X%X%X%X%X%X%X%X%X%X%X%X%X%X%X%X%X%X%X%X%X%X%X%X%X%X%X%X%X%X%X%X%X%X%X%X%X%X%X%X%X%X%X%X%X%X%X%X%X%X%X%X%X%X%X%X%XU.L 9 P Z r f P c J R R _ =.=.] l P p !.%X%X%X",
"%X%X%X%X%X%X%X%X%X%X%X%X%X%X%X%X%X%X%X%X%X%X%X%X%X%X%X%X%X%X%X%X%X%X%X%X%X%X%X%X%X%X%X%X%X%X%X%X%X%X%X%X%X%X%X%X%X4.@ f l J Z g f R R R R _ _ J J %.%.l !.%X%X%X",
"%X%X%X%X%X%X%X%X%X%X%X%X%X%X%X%X%X%X%X%X%X%X%X%X%X%X%X%X%X%X%X%X%X%X%X%X%X%X%X%X%X%X%X%X%X%X%X%X%X%X%X%X%X%X%X%X%Xt.; l Z P J J J Y R R J l i D % 0.s.l %X%X%X%X",
"%X%X%X%X%X%X%X%X%X%X%X%X%X%X%X%X%X%X%X%X%X%X%X%X%X%X%X%X%X%X%X%X%X%X%X%X%X%X%X%X%X%X%X%X%X%X%X%X%X%X%X%X%X%X%X%X%X:.< l J P J J P R B f l P G W M 8 %.Z h.%X%X%X",
"%X%X%X%X%X%X%X%X%X%X%X%X%X%X%X%X%X%X%X%X%X%X%X%X%X%X%X%X%X%X%X%X%X%X%X%X%X%X%X%X%X%X%X%X%X%X%X%X%X%X%X%X%XS.S.U.m > r l B R R R R B t l R H J E E B B J B O.!.%X",
"%X%X%X%X%X%X%X%X%X%X%X%X%X%X%X%X%X%X%X%X%X%X%X%X%X%X%X%X%X%X%X%X%X%X%X%X%X%X%XF.c.m.B.S.S.S.m.v.v.v.v.m.w.    X : p f Z / / J B l y l ] ] B c P I %...J B i R.%X",
"%X%X%X%X%X%X%X%X%X%X%X%X%X%X%X%X%X%X%X%X%X%X%X%X%X%X%X%X%X%X%X%X%X%X%X%XF.<.t.d o > > ; > ; ; > $ $ + + + > > : 4 l l l P _ Z l H P / Z f Z %.#.q.d.C.j.u 8 !.%X",
"%X%X%X%X%X%X%X%X%X%X%X%X%X%X%X%X%X%X%X%X%X%X%X%X%X%X%X%X%X%X%X%X%XW.W.L > X X > 1 1 9 r r r r 6 1 1 1 1 : > : 6 f H Y P c H J l B l l H B ..a.k.V.G.J.^.0.R %X%X",
"%X%X%X%X%X%X%X%X%X%X%X%X%X%X%X%X%X%X%X%X%X%X%X%X%X%X%X%X%X%X%X%X%Xv < 1 1 6 0 0 0 r r p p c f r r r r r 0 6 0 9 l P J R R l H _ R C R #.#.7.k.l.q.=.0.B.=.c.%X%X",
"%X%X%X%X%X%X%X%X%X%X%X%X%X%X%X%X%X%X%X%X%X%X%X%X%X%X%X%X%X%X%XR.s 1 1 9 0 0 p r p p r r r r r t p z z t k Z f l Z J A R ..R l J _ ..#.=.p.M.f.f.i.X.( B g.%X%X%X",
"%X%X%X%X%X%X%X%X%X%X%X%X%X%X%X%X%X%X%X%X%X%X%X%X%X%X%X%X%X%XS.r 1 9 r f k f t f f f t l l l l f r H B f B P l J J l B _ ...._ B J Y R +.j.f.p.7.R ( R 8.%X%X%X%X",
"%X%X%X%X%X%X%X%X%X%X%X%X%X%X%X%X%X%X%X%X%X%X%X%X%X%X%X%XR.{ : 1 r f g J B l l B P l t Z l B Z t l J l c R J l U J A c J  .#...R C A J R =.0.%.r.u.8.r.%X%X%X%X%X",
"%X%X%X%X%X%X%X%X%X%X%X%X%X%X%X%X%X%X%X%X%X%X%X%X%X%X%XS.7 & 1 9 r r l R l l g B R B t f f B l f A J l l J J J B B J B l J ..#..._ O.0.7.0.p.] S.%X%X%X%X%X%X%X%X",
"%X%X%X%X%X%X%X%X%X%X%X%X%X%X%X%X%X%X%X%X%X%X%X%X%X%Xv.7 @ 4 6 9 r r f B l y y N U J f w B Z B l B J l y B J C k y l R R k B _ #.#.7.b.k.b.B.$.S.%X%X%X%X%X%X%X%X",
"%X%X%X%X%X%X%X%X%X%X%X%X%X%X%X%X%X%X%X%X%X%X%X%X%X%X:.. 1 9 r r p f r r C J N u A J B l B A J l g J l f B B J J Z y c R / B B / %.0.C.H.H.P.%.S.%X%X%X%X%X%X%X%X",
"%X%X%X%X%X%X%X%X%X%X%X%X%X%X%X%X%X%X%X%X%X%X%X%X%X%X8.& 9 r r r l Z r l J R B N J J J Z J A J Z l J B B J y l J J P l B / P B J R 8.H.P.K.P.%.B.%X%X%X%X%X%X%X%X",
"%X%X%X%X%X%X%X%X%X%X%X%X%X%X%X%X%X%X%X%X%X%X%X%X%Xe.1 r f f t w r B y B J J l B U J B Z R Y J B l J R R P r r J U R R J H ......0.h.K.K.K.P.%.B.%X%X%X%X%X%X%X%X",
"%X%X%X%X%X%X%X%X%X%X%X%X%X%X%X%X%X%X%X%X%X%X%X%XS.; 1 t f A l r r g g C C J A N J J l R R R J l J _ R R R k t y y Z J R R ] ....0.V.K.K.K.P.2.S.%X%X%X%X%X%X%X%X",
"%X%X%X%X%X%X%X%X%X%X%X%X%X%X%X%X%X%X%X%X%X%X%X%Xx.; t f B J J B y r y B J J B J J J B R ( R R / _ ] _ R Z r p f k t f B R ] _ R R =.j.G.K.P.8.A.%X%X%X%X%X%X%X%X",
"%X%X%X%X%X%X%X%X%X%X%X%X%X%X%X%X%X%X%X%X%X%X%X!.7 1 t f l J U J B l l f B J l H R R B R / R J R ...._ R B 9 p Z R c l y B _ ...._ [ s.C.C.H.2.S.%X%X%X%X%X%X%X%X",
"%X%X%X%X%X%X%X%X%X%X%X%X%X%X%X%X%X%X%X%X%X%X%X!.1 1 r r f l A J U J J J J J f B _ [ l R _ ] I [ #..._ J f r p l H I R J B J / _ O.8.h.b.M.J.2.S.%X%X%X%X%X%X%X%X",
"%X%X%X%X%X%X%X%X%X%X%X%X%X%X%X%X%X%X%X%X%X%X%XY.1 ; r r H B l l l J U J F Y B Z _ +.J R #...I #.....R l 6 f p f f Z J J J B H ] #.p.f.M.S.0.S.%X%X%X%X%X%X%X%X%X",
"%X%X%X%X%X%X%X%X%X%X%X%X%X%X%X%X%X%X%X%X%X%X%Xj o 1 r f c J B y l B A l U l J K R ....R ....J #.#...R l 6 p r l P R l B J R O...#.s.C.V.b.] U.%X%X%X%X%X%X%X%X%X",
"%X%X%X%X%X%X%X%X%X%X%X%X%X%X%X%X%X%X%X%X%X%Xx.: O 1 r p r B J B k B J R R A y Z _ ....J R #._ ] #._ H r r t p f k I / P B J _ ..=.f.j.u.' B.%X%X%X%X%X%X%X%X%X%X",
"%X%X%X%X%X%X%X%X%X%X%X%X%X%X%X%X%X%X%X%X%X%Xv & ; ; 6 r t t Z R J l l J R ( B Z _ ..#._ R #.#...@._ c 9 f Z I P J k k f f Z J ..0.h.p.@.v.%X%X%X%X%X%X%X%X%X%X%X",
"%X%X%X%X%X%X%X%X%X%X%X%X%X%X%X%X%X%X%X%X%Xv.s 9 1 > 1 r t r f l Z P A l B R _ R J ....=.....=.%...R l 6 k P J P R / R R / O.+._ d.s.] u.%X%X%X%X%X%X%X%X%X%X%X%X",
"%X%X%X%X%X%X%X%X%X%X%X%X%X%X%X%X%X%X%X%X%Xm 1 r 9 ; 1 r t r p r r l Z Z l B _ _ R _ ] 7.%...=.%..._ H 6 y y y y B Z _ O.O.#.#.#.O.P ; :.%X%X%X%X%X%X%X%X%X%X%X%X",
"%X%Xe.} x.%X%X%X%X%X%X%X%X%X%X%X%X%X%X%X} p l l p ; 1 t t t Z Z l f f R J Z J R #.%.] [ ..=.%.2.#..._ w H f t Z r w l J ..#.O.J t 9 4 s U.%X%X%X%X%X%X%X%X%X%X%X",
"%X^ +   v %X%X%X%X%X%X%X%X%X%X%X%X%X%X} : 9 P P p ; 4 r r r k l H J l l J R J J #.0.2.O./ #.7.0.0.7.O.9 B B Z P J H l y J ..J 9 6 r l p h R.%X%X%X%X%X%X%X%X%X%X",
"%Xr X : : { %X%X%X%X%X%X%X%X%X%X%X%X<.1 f l P Z 6 z.^ & r r r r l J J f y A R _ #.2.7.7.%.=.p.s.s.d.7./ 9 H R R J R / P l f r 6 r Z B f 9 L !.%X%X%X%X%X%X%X%X%X",
"%Xe.4 > > > L F.%X%X%X%X%X%X%XF.e.0 1 B ( ( P r <.%Xg.6 9 z f t r l Y Y Z f l _ #.=.2.2.2.2.2.2.%.#.#.#.Z t y f y J _ _ k < 1 9 l Z f l ] _ ] g.%X%X%X%X%X%X%X%X",
"%X%Xs + : 4 1 6 e.t.t.t.t.u.x.h o 1 r B ( P p e.%X%X!.v 1 r 9 f l f l R _ R A U ..=.O.k r r p L H n l n r w B J P B J ..f # , r l f r J  .@._ Z r.%X%X%X%X%X%X%X",
"%X%Xx.4 > r l 0 r 1 , , 1 6 1 r f B Z J B f x.%X%XS.s 1 t f r l R Z t f P ......+.=.Z 9 f < ' %X!.!.!.%Xp 3 K ] _ J R c r s s 9 r w B _ / _ +.O.P v.%X%X%X%X%X%X",
"%X%X%Xv.: 4 r w _ B l f Z _ P / P J Z f z S.%XR.t.7 1 r f f J B l P ( Z f ] #.+.*./ 9 r 9 z U.%X%X%X%X%Xz 9 c l l / _ f { %X!.h 1 9 k Z B Z ..#.%.] x.%X%X%X%X%X",
"%X%X%X%Xe.4 0 r ( _ R l Y ] _ ] R l l S U.%X%X<.* r p f f p P ( R ( ] _ _ ..+.#.J 9 t 6 p !.%X%X%X%X%X%Xz w _ _ ( ] J $.%X%X%X%Xt.O 1 1 p l J P #.2.[ n.%X%X%X%X",
"%X%X%X%X%X%Xx.o 1 1 1 1 w w 9 r n f u.%X%X%X%X8.r J f J P Z R _ J / O.+.+.#...k 1 9 6 n R.%X%X%X%X%X%X%Xv w K _ ] O.P %.%X%X%X%X^.F.F.R.Q * t J s.H.0.%.%X%X%X%X",
"%X%X%X%X%X%X!.v.c.x.t.8.,.,.$.e.%X%X%X%X%X%X%Xe.r Y l k H / Y Z c P P P P P p 1 1 > p S.%X%X%X%X%X%X%X%Xh 9 B B c ..B $.%X%X%X%X%X%X%X%XU.4.> 6 s.T.H.0.c.%X%X%X",
"%X%X%X%X%X%X%X%X%X%X%X%X%X%X%X%X%X%X%X%X%X%Xt.p f Y / J l n L ~ ,.1 ; 1 1 1 6 1 r z v.%X%X%X%X%X%X%X%X%Xv 6 l Y _ / ' c.%X%X%X%X%X%X%X%X%X%Xe.1 0.V.P.k.] %X%X%X",
"%X%X%X%X%X%X%X%X%X%X%X%X%X%X%X%X%X%X%X%X%X%X$.9 P f B P n c.!.%X%XQ & 3 r r r 4 L %X%X%X%X%X%X%X%X%X%X%XQ f R ..%.Z v.%X%X%X%X%X%X%X%X%X%X%X!.z 8.d.0.h.O.%X%X%X",
"%X%X%X%X%X%X%X%X%X%X%X%X%X%X%X%X%X%X%X%X%X%X<.f ] / I p t.%X%X%X%X%X^ ; t l l Z Z L R.!.!.%X%X%X%X%X%X%XS l _ _ [ ' U.%X%X%X%X%X%X%X%X%X%X%X%X/.^ L 0.2.%.%X%X%X",
"%X%X%X%X%X%X%X%X%X%X%X%X%X%X%X%X%X%X%X%X%X%X<.l _ %.O.t.!.%X%X%X%X%X%XQ < t z R ] _ L L ' !.%X%X%X%X%X%XL H ] / R g.!.%X%X%X%X%X%X%X%X%X%X%X%X%X%Xt.z <.%X%X%X%X",
"%X%X%X%X%X%X%X%X%X%X%X%X%X%X%X%X%X%X%X%X%X} ~ 0.0.d.h.8.S.!.%X%X%X%X%X%X^ 0 P / ] %.%.@.] ' !.%X%X%X%X%XQ ~ 8.%.j.d.%.J.%X%X%X%X%X%X%X%X%X%X%X%X%X%X%X%X%X%X%X%X",
"%X%X%X%X%X%X%X%X%X%X%X%X%X%X%X%X%X%X%X%X%XQ H V.I.P.S.A.,.S.%X%X%X%X%X%X%X:.p / +.2.0..._ P ;.%X%X%X%X%Xm L s.b.H.b.h.%.!.%X%X%X%X%X%X%X%X%X%X%X%X%X%X%X%X%X%X%X",
"%X%X%X%X%X%X%X%X%X%X%X%X%X%X%X%X%X%X%X%X%Xx.$.j.K.P.g.h.,.v.%X%X%X%X%X%X%X%Xe.! l Z H k f l n.%X%X%X%X%X{ ^ h.K.V.7.8.%.!.%X%X%X%X%X%X%X%X%X%X%X%X%X%X%X%X%X%X%X",
"%X%X%X%X%X%X%X%X%X%X%X%X%X%X%X%X%X%X%X%X%X%X5.H ' ' ] / x.%X%X%X%X%X%X%X%X%X%Xv.:.<.,.<.<.e.%X%X%X%X%X%X%Xg.l I P L l ,.%X%X%X%X%X%X%X%X%X%X%X%X%X%X%X%X%X%X%X%X",
"%X%X%X%X%X%X%X%X%X%X%X%X%X%X%X%X%X%X%X%X%X%XR.U.U.U.U.U.%X%X%X%X%X%X%X%X%X%X%X%X%X%X%X%X%X%X%X%X%X%X%X%X%XR.S.S.S.S.S.R.%X%X%X%X%X%X%X%X%X%X%X%X%X%X%X%X%X%X%X%X",
"%X%X%X%X%X%X%X%X%X%X%X%X%X%X%X%X%X%X%X%X%X%X%X%X%X%X%X%X%X%X%X%X%X%X%X%X%X%X%X%X%X%X%X%X%X%X%X%X%X%X%X%X%X%X%X%X%X%X%X%X%X%X%X%X%X%X%X%X%X%X%X%X%X%X%X%X%X%X%X%X",
"%X%X%X%X%X%X%X%X%X%X%X%X%X%X%X%X%X%X%X%X%X%X%X%X%X%X%X%X%X%X%X%X%X%X%X%X%X%X%X%X%X%X%X%X%X%X%X%X%X%X%X%X%X%X%X%X%X%X%X%X%X%X%X%X%X%X%X%X%X%X%X%X%X%X%X%X%X%X%X%X",
"%X%X%X%X%X%X%X%X%X%X%X%X%X%X%X%X%X%X%X%X%X%X%X%X%X%X%X%X%X%X%X%X%X%X%X%X%X%X%X%X%X%X%X%X%X%X%X%X%X%X%X%X%X%X%X%X%X%X%X%X%X%X%X%X%X%X%X%X%X%X%X%X%X%X%X%X%X%X%X%X",
"%X%X%X%X%X%X%X%X%X%X%X%X%X%X%X%X%X%X%X%X%X%X%X%X%X%X%X%X%X%X%X%X%X%X%X%X%X%X%X%X%X%X%X%X%X%X%X%X%X%X%X%X%X%X%X%X%X%X%X%X%X%X%X%X%X%X%X%X%X%X%X%X%X%X%X%X%X%X%X%X",
"%X%X%X%X%X%X%X%X%X%X%X%X%X%X%X%X%X%X%X%X%X%X%X%X%X%X%X%X%X%X%X%X%X%X%X%X%X%X%X%X%X%X%X%X%X%X%X%X%X%X%X%X%X%X%X%X%X%X%X%X%X%X%X%X%X%X%X%X%X%X%X%X%X%X%X%X%X%X%X%X",
"%X%X%X%X%X%X%X%X%X%X%X%X%X%X%X%X%X%X%X%X%X%X%X%X%X%X%X%X%X%X%X%X%X%X%X%X%X%X%X%X%X%X%X%X%X%X%X%X%X%X%X%X%X%X%X%X%X%X%X%X%X%X%X%X%X%X%X%X%X%X%X%X%X%X%X%X%X%X%X%X",
"%X%X%X%X%X%X%X%X%X%X%X%X%X%X%X%X%X%X%X%X%X%X%X%X%X%X%X%X%X%X%X%X%X%X%X%X%X%X%X%X%X%X%X%X%X%X%X%X%X%X%X%X%X%X%X%X%X%X%X%X%X%X%X%X%X%X%X%X%X%X%X%X%X%X%X%X%X%X%X%X",
"%X%X%X%X%X%X%X%X%X%X%X%X%X%X%X%X%X%X%X%X%X%X%X%X%X%X%X%X%X%X%X%X%X%X%X%X%X%X%X%X%X%X%X%X%X%X%X%X%X%X%X%X%X%X%X%X%X%X%X%X%X%X%X%X%X%X%X%X%X%X%X%X%X%X%X%X%X%X%X%X",
"%X%X%X%X%X%X%X%X%X%X%X%X%X%X%X%X%X%X%X%X%X%X%X%X%X%X%X%X%X%X%X%X%X%X%X%X%X%X%X%X%X%X%X%X%X%X%X%X%X%X%X%X%X%X%X%X%X%X%X%X%X%X%X%X%X%X%X%X%X%X%X%X%X%X%X%X%X%X%X%X",
"%X%X%X%X%X%X%X%X%X%X%X%X%X%X%X%X%X%X%X%X%X%X%X%X%X%X%X%X%X%X%X%X%X%X%X%X%X%X%X%X%X%X%X%X%X%X%X%X%X%X%X%X%X%X%X%X%X%X%X%X%X%X%X%X%X%X%X%X%X%X%X%X%X%X%X%X%X%X%X%X",
"%X%X%X%X%X%X%X%X%X%X%X%X%X%X%X%X%X%X%X%X%X%X%X%X%X%X%X%X%X%X%X%X%X%X%X%X%X%X%X%X%X%X%X%X%X%X%X%X%X%X%X%X%X%X%X%X%X%X%X%X%X%X%X%X%X%X%X%X%X%X%X%X%X%X%X%X%X%X%X%X",
"%X%X%X%X%X%X%X%X%X%X%X%X%X%X%X%X%X%X%X%X%X%X%X%X%X%X%X%X%X%X%X%X%X%X%X%X%X%X%X%X%X%X%X%X%X%X%X%X%X%X%X%X%X%X%X%X%X%X%X%X%X%X%X%X%X%X%X%X%X%X%X%X%X%X%X%X%X%X%X%X"
};
