/* XPM */
static char *louis_back2[] = {
/* columns rows colors chars-per-pixel */
"42 80 151 2 ",
"   c #302F2D",
".  c #35332F",
"X  c #343432",
"o  c #393632",
"O  c #3A3936",
"+  c #3C3C3A",
"@  c #403E3A",
"#  c #44423E",
"$  c #454441",
"%  c #4A4642",
"&  c #4C4945",
"*  c #4D4D4A",
"=  c #524D46",
"-  c #514E49",
";  c #4F504D",
":  c #565146",
">  c #585147",
",  c #55514B",
"<  c #5A544C",
"1  c #5D594F",
"2  c #565553",
"3  c #5B5651",
"4  c #5D5953",
"5  c #5E5D5B",
"6  c #625C55",
"7  c #635E59",
"8  c #656057",
"9  c #65615C",
"0  c #6A645D",
"q  c #6E685F",
"w  c #70685F",
"e  c #666462",
"r  c #6A6561",
"t  c #6D6963",
"y  c #6C6C6A",
"u  c #706662",
"i  c #736C64",
"p  c #786F66",
"a  c #736E69",
"s  c #777066",
"d  c #7A7166",
"f  c #76716A",
"g  c #7C746B",
"h  c #7E786E",
"j  c #747472",
"k  c #7A7672",
"l  c #7F7972",
"z  c #7D7D7B",
"x  c #82776C",
"c  c #82796F",
"v  c #897C6F",
"b  c #847C72",
"n  c #897E73",
"m  c #827F7C",
"M  c #878075",
"N  c #8B8176",
"B  c #81807E",
"V  c #8D857A",
"C  c #918477",
"Z  c #92867B",
"A  c #93897D",
"S  c #998D7E",
"D  c #858483",
"F  c #898681",
"G  c #8C8985",
"H  c #8C8C8B",
"J  c #958C81",
"K  c #998E81",
"L  c #918E8B",
"P  c #8F908D",
"I  c #9D9485",
"U  c #9C9283",
"Y  c #93908E",
"T  c #97928D",
"R  c #97948E",
"E  c #90908E",
"W  c #9D9589",
"Q  c #9F9689",
"!  c #939390",
"~  c #929291",
"^  c #9A9893",
"/  c #999997",
"(  c #9D9B98",
")  c #9E9D99",
"_  c #9B9B9B",
"`  c #A09588",
"'  c #A09688",
"]  c #A1968B",
"[  c #A19889",
"{  c #A1988B",
"}  c #A2998C",
"|  c #A49B8C",
" . c #A49A91",
".. c #A6A49F",
"X. c #A0A09F",
"o. c #A5A2A0",
"O. c #A7A5A2",
"+. c #A8A8A7",
"@. c #AAAAAA",
"#. c #B0AFAC",
"$. c #B4B4B4",
"%. c #BFBEBB",
"&. c #BDBDBC",
"*. c #BBBBBB",
"=. c #C4C2BF",
"-. c #C4C3C0",
";. c #C5C4C1",
":. c #C9C7C3",
">. c #CDCDCD",
",. c #D0CFCC",
"<. c #CDD0CE",
"1. c #D2D1CE",
"2. c #D4D4D3",
"3. c #D9D9D6",
"4. c #D7D8D8",
"5. c #DCDBD8",
"6. c #DBDCDC",
"7. c #E2E2E2",
"8. c #E7E8E7",
"9. c #E8E8E6",
"0. c #E9E8E6",
"q. c #EFEFED",
"w. c #ECECEC",
"e. c #F4F4F2",
"r. c #F4F4F4",
"t. c #F8F7F7",
"y. c #F8F8F7",
"u. c #F7F7F8",
"i. c #F8F8F8",
"p. c #F9F9F9",
"a. c #FAF9FA",
"s. c #F9FAFA",
"d. c #FAFAFA",
"f. c #FAFBFA",
"g. c #FBFBFA",
"h. c #FBFBFB",
"j. c #FCFCFC",
"k. c #FDFCFC",
"l. c #FCFCFD",
"z. c #FDFDFD",
"x. c #FDFEFC",
"c. c #FEFEFD",
"v. c #FDFDFE",
"b. c #FEFDFE",
"n. c #FDFEFE",
"m. c #FDFFFE",
"M. c #FF00FF",
"N. c #FEFEFF",
"B. c #FFFFFF",
"V. c #FFFEFE",
"C. c #FEFEFD",
/* pixels */
"M.M.M.M.M.M.M.M.M.M.M.M.M.M.M.M.M.M.M.M.M.M.M.M.M.M.M.M.M.M.M.M.M.M.M.M.M.M.M.M.M.M.",
"M.M.M.M.M.M.M.M.M.M.M.M.M.M.M.M.M.M.M.M.M.M.M.M.M.M.M.M.M.M.M.M.M.M.M.M.M.M.M.M.M.M.",
"M.M.M.M.M.M.M.M.M.M.M.M.M.M.M.M.M.M.M.M.M.M.M.M.M.M.M.M.M.M.M.M.M.M.M.M.M.M.M.M.M.M.",
"M.M.M.M.M.M.M.M.M.M.M.M.M.M.M.M.M.M.M.M.M.M.M.M.M.M.M.M.M.M.M.M.M.M.M.M.M.M.M.M.M.M.",
"M.M.M.M.M.M.M.M.M.M.o.k ;.M.M.M.M.M.M.M.M.M.M.M.M.M.&.k ^ M.M.M.M.M.M.M.M.M.M.M.M.M.",
"M.M.M.M.M.M.M.M.M.o.a g a ,.M.M.M.M.M.M.M.M.M.M.M.;.8 g p ( M.M.M.M.M.M.M.M.M.M.M.M.",
"M.M.M.M.M.M.M.M.M.G b  .M t 5.M.M.M.M.M.M.M.M.M.:.r M S p F M.M.M.M.M.M.M.M.M.M.M.M.",
"M.M.M.M.M.M.M.M.M.L c W { M t e.M.M.M.M.M.M.M.=.r V { ' p G M.M.M.M.M.M.M.M.M.M.M.M.",
"M.M.M.M.M.M.M.M.M.L g ] U { b k L G H L L L T 0 c { U ] p G M.M.M.M.M.M.M.M.M.M.M.M.",
"M.M.M.M.M.M.M.M.M.T b ] U S b , # # % # # % % 0 M U U W p F M.M.M.M.M.M.M.M.M.M.M.M.",
"M.M.M.M.M.M.M.M.M.G 6 J U S b s 0 t t 7 0 p 0 0 b S S S p G M.M.M.M.M.M.M.M.M.M.M.M.",
"M.M.M.M.M.M.M.M.M.3.T 0 S M p g 0 r p 0 a 0 8 0 s V V 4 ..y.M.M.M.M.M.M.M.M.M.M.M.M.",
"M.M.M.M.M.M.M.M.M.M.1.& M b p s 0 p 0 0 0 0 0 0 8 p g 3 &.M.M.M.M.M.M.M.M.M.M.M.M.M.",
"M.M.M.M.M.M.M.M.M.M.( 0 d g p p 0 t b p 0 p 0 8 p b g 0 ! M.M.M.M.M.M.M.M.M.M.M.M.M.",
"M.M.M.M.M.M.M.M.M.9.4 g b b 0 t g r n 0 p g 0 0 p J J b - q.M.M.M.M.M.M.M.M.M.M.M.M.",
"M.M.M.M.M.M.M.M.M.D 8 V J M 0 0 b 0 b 0 p p q V p S S M r D M.M.M.M.M.M.M.M.M.M.M.M.",
"M.M.M.M.M.M.M.M.M.s g U U M g p b 0 p p p p p V d K S M q e M.M.M.M.M.M.M.M.M.M.M.M.",
"M.M.M.M.M.M.M.M.M.b c U U Z V p c 6 p p w c d V g S K M 0 a M.M.M.M.M.M.M.M.M.M.M.M.",
"M.M.M.M.M.M.M.M.M.l M ] U U S 0 M p g p p S p S M S U Z p 8 M.M.M.M.M.M.M.M.M.M.M.M.",
"M.M.M.M.M.M.M.M.M.G g J Z K S d b g b p g M 0 S U U S M t B M.M.M.M.M.M.M.M.M.M.M.M.",
"M.M.M.M.M.M.M.M.M.9.t p b S J S g p S p g d s K U U Z g e q.M.M.M.M.M.M.M.M.M.M.M.M.",
"M.M.M.M.M.M.M.M.M.M.&.< g V V M g w n 0 p p d J b b b 8 5.M.M.M.M.M.M.M.M.M.M.M.M.M.",
"M.M.M.M.M.M.M.M.M.M.5.* p S Z V p 0 M 0 p b 0 M c c b 3 7.M.M.M.M.M.M.M.M.M.M.M.M.M.",
"M.M.M.M.M.M.M.M.M.M.M.y 0 V S V p 0 V g p V 0 p V 0 s - 5.M.M.M.M.M.M.M.M.M.M.M.M.M.",
"M.M.M.M.M.M.M.M.M.M.M.a 0 l g b t 8 b h 0 p r 0 b b p - q.M.M.M.M.M.M.M.M.M.M.M.M.M.",
"M.M.M.M.M.M.M.M.M.M.&.4 a s 7 8 r t t 0 8 r r r g V g , ( q.M.M.M.M.M.M.M.M.M.M.M.M.",
"M.M.M.M.M.M.M.M.M.M.y & t 6 3 4 8 8 6 1 3 7 7 8 r 0 p s @ 4.M.M.M.M.M.M.M.M.M.M.M.M.",
"M.M.M.M.M.M.M.M.M.+., 3 7 7 0 7 6 6 3 : : < , 4 4 4 p p 4 r 5.M.M.M.M.M.M.M.M.M.M.M.",
"M.M.M.M.M.M.M.M.M.4 $ 8 8 8 0 4 < < < < > 4 r r t 8 3 7 t X >.M.M.M.M.M.M.M.M.M.M.M.",
"M.M.M.M.M.M.M.M.M.r a l 0 0 p 6 6 8 7 < < 4 0 r g b 0 < s $ >.M.M.M.M.M.M.M.M.M.M.M.",
"M.M.M.M.M.M.M.M.M.y 4 0 d p 7 8 0 t r 4 < < 7 r 0 p M 0 2 + >.M.M.M.M.M.M.M.M.M.M.M.",
"M.M.M.M.M.M.M.M.M.a , 6 b b g g t r t 0 3 8 8 8 p g c b 4 X 4.M.M.M.M.M.M.M.M.M.M.M.",
"M.M.M.M.M.M.M.M.M.a 4 b M d p 0 0 8 8 6 4 8 8 8 r r r p p & #.M.M.M.M.M.M.M.M.M.M.M.",
"M.M.M.M.M.M.M.M.z 8 c M s 6 0 c p 8 0 6 < 7 8 8 8 8 r 8 t 0 # $.M.M.M.M.M.M.M.M.M.M.",
"M.M.M.M.M.M.M.M.5 3 b b 0 0 w V g 0 r 6 < 8 8 8 7 a V 0 6 b , $.M.M.M.M.M.M.M.M.M.M.",
"M.M.M.M.M.M.M.M.e 3 p c c M M g p r r 4 < 8 8 t t p V b s g - $.M.M.M.M.M.M.M.M.M.M.",
"M.M.M.M.M.M.M.M.e 7 g M C n g 0 r r r 7 < 8 8 t p p d b J s , $.M.M.M.M.M.M.M.M.M.M.",
"M.M.M.M.M.M.M.M.y g V C M g r r r r r 8 < 7 e 8 8 t r w V g - &.M.M.M.M.M.M.M.M.M.M.",
"M.M.M.M.M.M.M.>.5 g S b p t g g 0 r r 7 , 4 7 8 r 8 t p M M 3 z e.M.M.M.M.M.M.M.M.M.",
"M.M.M.M.M.M.M.e # b S g p p Z n g r 8 4 , 6 8 e 8 8 t p n S 0 + 4.M.M.M.M.M.M.M.M.M.",
"M.M.M.M.M.M.M.5.8 g n 0 g V Z M c 0 r 7 , 8 r r r g b w g b = ! M.M.M.M.M.M.M.M.M.M.",
"M.M.M.M.M.M.M.M.e 3 r p n n v n g 8 r 7 , 7 r r s x p 0 0 0 @ ( M.M.M.M.M.M.M.M.M.M.",
"M.M.M.M.M.M.M.M.e - g V b n n b p a 8 4 < 7 8 r t r g b M g # ( M.M.M.M.M.M.M.M.M.M.",
"M.M.M.M.M.M.M.$.4 7 p n x n n b 0 r 7 < 3 7 7 0 r r g S Z V 3 3 &.M.M.M.M.M.M.M.M.M.",
"M.M.M.M.M.M.>.* 7 g n Z Z Z V b 8 e 7 3 3 7 r 8 r 0 g Z n c p , 5 7.M.M.M.M.M.M.M.M.",
"M.M.M.M.M.M.y & a Z c c M b g p e 8 8 e 5 8 0 r 8 a b p x C n b & D M.M.M.M.M.M.M.M.",
"M.M.M.M.M.M.j - a b p n n x a 7 8 e 7 r 4 4 7 e 8 g M d n Z x c 1 H M.M.M.M.M.M.M.M.",
"M.M.M.M.M.$.& 5 a s b K S S l e e e 8 e 4 3 8 e 0 b C M n x Z V 8 , &.M.M.M.M.M.M.M.",
"M.M.M.M.M.z + t e r l M S b t r e e e r 4 7 r e r p c p x Z x 0 0 + D M.M.M.M.M.M.M.",
"M.M.M.M.M.H # a s t t g M g r e e e e e 4 4 r r r r r g C S x p t & T M.y.M.M.M.M.M.",
"M.M.M.M.M.H # p b t 8 r s b g e e e e e 4 4 r r r r 0 b M M c p b & H M.M.M.M.M.M.M.",
"M.M.M.M.M.H # s g r r t a c g p r e 5 e 4 4 r 6 r p 0 b g 8 t p s - H M.M.M.M.M.M.M.",
"M.M.M.M.M.! $ t e 8 a g 8 p g s 8 e 8 7 , 7 6 < r r b c 0 p s 8 p , H M.M.M.M.M.M.M.",
"M.M.M.M.M.D + 8 8 8 e k s p s r 8 r t 6 < 7 < < t 0 b g 6 p p 7 t # D M.M.M.M.M.M.M.",
"M.M.M.M.M.&.* 2 7 8 e r b l 8 e r r 4 < , 6 < 0 r g p 0 0 0 0 8 4 * $.M.M.M.M.M.M.M.",
"M.M.M.M.M.M.j O 2 4 7 a g g s r r 7 , = , 6 < 0 0 d 8 6 b g 6 8 # z M.M.M.M.M.M.M.M.",
"M.M.M.M.M.M.j O , 8 g b V b l 7 7 3 , , 4 1 : 6 6 0 0 c x 0 8 5 + z M.M.M.M.M.M.M.M.",
"M.M.M.M.M.M.e.2 # 0 h g g g 0 8 7 3 4 8 4 < 1 6 3 8 0 a p 8 8 # y M.M.M.M.M.M.M.M.M.",
"M.M.M.M.M.M.M.! + 7 g 0 p 0 8 r r 8 6 < < > < 6 4 6 8 8 0 0 8 O j M.M.M.M.M.M.M.M.M.",
"M.M.M.M.M.M.M.M.2 $ 6 < p t < 6 3 6 < : > < < < 4 4 6 8 8 8 * s e.M.M.M.M.M.M.M.M.M.",
"M.M.M.M.M.M.M.M.z # , < 3 7 4 , = = = , 3 = < , 3 6 7 4 4 4 . j M.M.M.M.M.M.M.M.M.M.",
"M.M.M.M.M.M.M.M.M.4 # = = = % : : : - 3 7 , , , , 6 < & % # a 7.M.M.M.M.M.M.M.M.M.M.",
"M.M.M.M.M.M.M.M.y.5   @ , & @ - < : 8 t 0 4 - = & < , = < + H M.M.M.M.M.M.M.M.M.M.M.",
"M.M.M.M.M.M.M.M.M.e.! O - , & - < 4 0 b d 0 , # , , , & o H M.M.M.M.M.M.M.M.M.M.M.M.",
"M.M.M.M.M.M.M.M.M.M.M.^ X $ $ # $ - g J g g 4 + * % & + ! M.M.M.M.M.M.M.M.M.M.M.M.M.",
"M.M.M.M.M.M.M.M.M.M.M.e.7.7.7.q.4.$ 0 g g c 8 y e.q.q.q.M.M.M.M.M.M.M.M.M.M.M.M.M.M.",
"M.M.M.M.M.M.M.M.M.M.M.M.M.M.M.M.e.* 3 b V V 3 j M.M.M.M.M.M.M.M.M.M.M.M.M.M.M.M.M.M.",
"M.M.M.M.M.M.M.M.M.M.M.M.M.M.M.M.M.5., 0 0 6 , e u.M.M.M.M.M.M.M.M.M.M.M.M.M.M.M.M.M.",
"M.M.M.M.M.M.M.M.M.M.M.M.M.M.M.M.M.e.$ 3 t b p % ( M.M.M.M.M.M.M.M.M.M.M.M.M.M.M.M.M.",
"M.M.M.M.M.M.M.M.M.M.M.M.M.M.M.M.M.e.z 2 s J g 4 e 8.M.M.M.M.M.M.M.M.M.M.M.M.M.M.M.M.",
"M.M.M.M.M.M.M.M.M.M.M.M.M.M.M.M.M.M.t., 7 s g g 4 e 7.M.M.M.M.M.M.M.M.M.M.M.M.M.M.M.",
"M.M.M.M.M.M.M.M.M.M.M.M.M.M.M.M.M.M.e.X.2 t J J p & e j 4.M.y.M.M.M.M.M.M.M.M.M.M.M.",
"M.M.M.M.M.M.M.M.M.M.M.M.M.M.M.M.M.M.M.M.$.2 m S g r 3 * * , * ; 2 2 * $.M.M.M.M.M.M.",
"M.M.M.M.M.M.M.M.M.M.M.M.M.M.M.M.M.M.M.M.M.( , a b x V p , , & # X X + X >.M.M.M.M.M.",
"M.M.M.M.M.M.M.M.M.M.M.M.M.M.M.M.M.M.M.M.M.M.@.* 4 0 g 8 a s 7 4 $ $ + + 4.M.M.M.M.M.",
"M.M.M.M.M.M.M.M.M.M.M.M.M.M.M.M.M.M.M.M.M.M.M.<.y 2 4 * , , & & +   $ >.M.M.M.M.M.M.",
"M.M.M.M.M.M.M.M.M.M.M.M.M.M.M.M.M.M.M.M.M.M.M.M.e.M.>.5 e e e e e 2 >.M.M.M.M.M.M.M.",
"M.M.M.M.M.M.M.M.M.M.M.M.M.M.M.M.M.M.M.M.M.M.M.M.M.M.M.M.M.M.M.M.M.M.M.M.M.M.M.M.M.M.",
"M.M.M.M.M.M.M.M.M.M.M.M.M.M.M.M.M.M.M.M.M.M.M.M.M.M.M.M.M.M.M.M.M.M.M.M.M.M.M.M.M.M.",
"M.M.M.M.M.M.M.M.M.M.M.M.M.M.M.M.M.M.M.M.M.M.M.M.M.M.M.M.M.M.M.M.M.M.M.M.M.M.M.M.M.M."
};
