/* XPM */
static char *louis_front_grumpy[] = {
/* columns rows colors chars-per-pixel */
"17 32 144 2 ",
"   c #474440",
".  c #4C4846",
"X  c #524E49",
"o  c #59544F",
"O  c #555451",
"+  c #5C5650",
"@  c #5D5954",
"#  c #615B55",
"$  c #635E59",
"%  c #63605A",
"&  c #6B645E",
"*  c #6B6660",
"=  c #6E6962",
"-  c #726B63",
";  c #746F6A",
":  c #7E7360",
">  c #77716A",
",  c #7B746B",
"<  c #7E786F",
"1  c #757371",
"2  c #797773",
"3  c #7E7A73",
"4  c #7E7B78",
"5  c #847444",
"6  c #807253",
"7  c #80776D",
"8  c #8B7469",
"9  c #81796F",
"0  c #887B6F",
"q  c #847D75",
"w  c #897F75",
"e  c #807D79",
"r  c #8E8157",
"t  c #938558",
"y  c #948760",
"u  c #848177",
"i  c #8B8176",
"p  c #86817C",
"a  c #8B837A",
"s  c #8E887E",
"d  c #968B73",
"f  c #988F76",
"g  c #92857C",
"h  c #938A7D",
"j  c #A1977A",
"k  c #8A8A87",
"l  c #8D8D8B",
"z  c #918680",
"x  c #948C83",
"c  c #998F84",
"v  c #908F8B",
"b  c #9C9286",
"n  c #95928B",
"m  c #9B948A",
"M  c #949391",
"N  c #989795",
"B  c #9D9993",
"V  c #9A9A98",
"C  c #A09489",
"Z  c #A2998C",
"A  c #A49D92",
"S  c #A19F9A",
"D  c #A7A195",
"F  c #AAA196",
"G  c #ACA69D",
"H  c #B1A79B",
"J  c #B1A89B",
"K  c #A8A6A3",
"L  c #ACA8A1",
"P  c #AEACA8",
"I  c #B4AEA5",
"U  c #B8ADA2",
"Y  c #B5B1A6",
"T  c #BDB4A6",
"R  c #B3B1AD",
"E  c #BDB5AA",
"W  c #BEB8AE",
"Q  c #B2B2B1",
"!  c #B8B5B2",
"~  c #BBB9B4",
"^  c #BCBCBA",
"/  c #C5BDB2",
"(  c #C5C0B6",
")  c #CAC4B7",
"_  c #C4C2BE",
"`  c #CBC5B9",
"'  c #CEC8BC",
"]  c #D1CABD",
"[  c #C3C4C3",
"{  c #CCCCCB",
"}  c #D3CDC1",
"|  c #D4D0C5",
" . c #D3D0CE",
".. c #D5D5D5",
"X. c #D8D7D5",
"o. c #DEDBD0",
"O. c #DCDCDC",
"+. c #E0DBCF",
"@. c #E2DED4",
"#. c #E4E0D5",
"$. c #E8E3D7",
"%. c #E7E3D8",
"&. c #EAE6DB",
"*. c #E9E5D9",
"=. c #EAE6DC",
"-. c #ECE7DC",
";. c #E8E3D8",
":. c #ECE8DC",
">. c #EEE8DD",
",. c #EDE8DE",
"<. c #EEEADE",
"1. c #E4E4E4",
"2. c #E7E7E7",
"3. c #E3E3E3",
"4. c #EFEBE0",
"5. c #E8E8E8",
"6. c #EAEAE9",
"7. c #EDEDEC",
"8. c #F1EDE1",
"9. c #F1F1F1",
"0. c #F3F4F4",
"q. c #F4F4F5",
"w. c #F4F5F5",
"e. c #F5F5F5",
"r. c #F6F6F6",
"t. c #F3F2F2",
"y. c #F7F8F7",
"u. c #F8F9F9",
"i. c #F9FAFA",
"p. c #FAFAFA",
"a. c #FBFBFB",
"s. c #FCFBFB",
"d. c #FBFCFC",
"f. c #FCFCFC",
"g. c #FDFCFC",
"h. c #FDFDFC",
"j. c #FDFDFD",
"k. c #FEFDFD",
"l. c #FDFEFD",
"z. c #FDFDFE",
"x. c #FEFEFE",
"c. c #FFFFFE",
"v. c #FFFFFF",
"b. c #FEFEFE",
/* pixels */
"j.j.j.j.j.j.j.j.j.j.j.j.j.j.j.j.j.",
"j.j.j.7.A ..j.j.j.j.j.R I j.j.j.j.",
"j.j.j._ g B X.j.j.j._ m g 7.j.j.j.",
"j.j.j._ C H q 4 1 4 x U g 7.j.j.j.",
"j.j.j. .i A g - & - b b z r.j.j.j.",
"j.j.j.r.p c m q - i A i B j.j.j.j.",
"j.j.j.^ & d y Z m j r h ; 2.j.j.j.",
"j.j.j.M > f 5 : x 6 t h $ { j.j.j.",
"j.j.j...= x S m 8 G L i e r.j.j.j.",
"j.j.j.j.L W ] / m ' } G ..j.j.j.j.",
"j.j.j.j.P m W } } / J s O.j.j.j.j.",
"j.j.j.r.p A W ` ] / T b L j.j.j.j.",
"j.j.j.~ u } $.#.@.#.$.T - O.j.j.j.",
"j.j.j.R , } 8.&.>.&.>.I & O.j.j.j.",
"j.j.j.B , A @.>.&.>.} x = [ j.j.j.",
"j.j.j.% q Y | >.&.%.) J - l j.j.j.",
"j.j.j.2 q o.&.&.&.%.&.) = S j.j.j.",
"j.j...* h } 4.&.&.&.&.T 7 1 j.j.j.",
"j.j.r.> 0 F | &.&.#.` Z - l j.j.j.",
"j.j.O.O 7 A W ' X.( I m - 1 j.j.j.",
"j.j.k X < , m W W Y x , , . ! j.j.",
"j.2.- > > Z i m / i x C & - p j.j.",
"j.X., i + i F i A h F , # w q r.j.",
"j...- q = - i 4 - q < - - w - r.j.",
"j.2.$ s - q D q & s A , q q 2 j.j.",
"j.j.V < q , A i # m b - i - [ j.j.",
"j.j.y.* - , Z q o x m - % = j.j.j.",
"j.j.j.k - & x , o i b & # ! j.j.j.",
"j.j.j.^ @ n / i   B ( x & %.j.j.j.",
"j.j.j.r.B _ @.G v ~ #.I ~ j.j.j.j.",
"j.j.j.j.j.! L _ r.R G R j.j.j.j.j.",
"j.j.j.j.j.j.j.j.j.j.j.j.j.j.j.j.j."
};
