/* XPM */
static char *louis_front[] = {
/* columns rows colors chars-per-pixel */
"15 32 142 2 ",
"   c #43413D",
".  c #4D4A49",
"X  c #5C564E",
"o  c #585551",
"O  c #5C5953",
"+  c #625C55",
"@  c #635E59",
"#  c #666156",
"$  c #66625D",
"%  c #6C655D",
"&  c #7D7257",
"*  c #7C725E",
"=  c #696360",
"-  c #6D6963",
";  c #736C63",
":  c #726E68",
">  c #757067",
",  c #7B7567",
"<  c #777169",
"1  c #7C756B",
"2  c #7F786C",
"3  c #797774",
"4  c #7E7973",
"5  c #8D7E4E",
"6  c #827A6D",
"7  c #847D73",
"8  c #8C7D72",
"9  c #807F7D",
"0  c #8F8562",
"q  c #908561",
"w  c #8A8176",
"e  c #82807D",
"r  c #8D857B",
"t  c #8E887F",
"y  c #94877D",
"u  c #91897E",
"i  c #988A7E",
"p  c #9D9271",
"a  c #878582",
"s  c #898682",
"d  c #8B8985",
"f  c #8B8B89",
"g  c #948C82",
"h  c #9B8F83",
"j  c #979186",
"k  c #9B9185",
"l  c #93918D",
"z  c #9C958B",
"x  c #969490",
"c  c #9F9B90",
"v  c #9F9C99",
"b  c #A39980",
"n  c #A29A8D",
"m  c #A49D92",
"M  c #A39F99",
"N  c #A9A195",
"B  c #A4A09B",
"V  c #ABA69F",
"C  c #B1A69B",
"Z  c #B2AA9E",
"A  c #A4A4A2",
"S  c #ADAAA4",
"D  c #B3ADA3",
"F  c #B0AFAD",
"G  c #B6B0A5",
"H  c #B8B2A7",
"J  c #BBB5AB",
"K  c #BEBAAF",
"L  c #B4B4B2",
"P  c #B8B6B3",
"I  c #BEBEBD",
"U  c #C2BAAF",
"Y  c #C4BDB1",
"T  c #C9C2B3",
"R  c #CCC6BA",
"E  c #CDC9BD",
"W  c #D6CEBF",
"Q  c #CAC9C9",
"!  c #D4CFC2",
"~  c #D6D0C3",
"^  c #D8D5C9",
"/  c #D2D3D3",
"(  c #D9D8D7",
")  c #DDDCDC",
"_  c #E1DCD0",
"`  c #E2DED2",
"'  c #E2DFD3",
"]  c #E7E3D7",
"[  c #E0E0DF",
"{  c #E8E4D8",
"}  c #E8E4D9",
"|  c #E9E4D9",
" . c #E9E5D9",
".. c #E9E4DA",
"X. c #E9E5DA",
"o. c #EAE6DA",
"O. c #EAE6DB",
"+. c #EBE6DB",
"@. c #EBE7DC",
"#. c #ECE8DC",
"$. c #EDE8DC",
"%. c #ECE8DD",
"&. c #EFE9DC",
"*. c #EFEADD",
"=. c #EDE9DE",
"-. c #EEEADE",
";. c #EFEBDF",
":. c #EBE8DE",
">. c #E2E2E2",
",. c #E3E3E3",
"<. c #E6E4E4",
"1. c #E7E5E5",
"2. c #E7E7E6",
"3. c #E7E7E7",
"4. c #E4E3E2",
"5. c #EDE9E1",
"6. c #E9E9EA",
"7. c #EAEAEA",
"8. c #ECECEC",
"9. c #ECEDEC",
"0. c #EDEEED",
"q. c #F0ECE0",
"w. c #F4F4F5",
"e. c #F5F5F5",
"r. c #F6F6F6",
"t. c #F2F3F3",
"y. c #F7F8F8",
"u. c #F8F9F9",
"i. c #FAFAFA",
"p. c #FBFBFB",
"a. c #FCFBFB",
"s. c #FCFCFC",
"d. c #FCFDFD",
"f. c #FDFDFD",
"g. c #FEFDFD",
"h. c #FEFEFD",
"j. c #FCFDFE",
"k. c #FDFEFE",
"l. c #FEFEFE",
"z. c #FFFEFE",
"x. c #FFFFFF",
"c. c #FEFEFE",
/* pixels */
"l.l.l.l.l.l.l.l.l.l.l.l.l.l.l.",
"l.l.l.l.l.l.l.l.l.l.l.l.l.l.l.",
"l.l.l.B m e.l.l.l.l.S z e.l.l.",
"l.l.9.g m M 3.2.9.L z i 2.l.l.",
"l.l.9.g C g - O @ t Z i 2.l.l.",
"l.l.l.z h z 1 ; ; z n z e.l.l.",
"l.l.l.x 8 m t 1 t z w l l.l.l.",
"l.l.2.$ 6 5 p z p 5 6 = [ l.l.",
"l.l.( $ t 0 & i * q 8 $ / l.l.",
"l.l.l.v t D D 8 D K z x l.l.l.",
"l.l.l.( D W R z Y ! Z ( l.l.l.",
"l.l.l.Q 7 D U W T G 7 Y l.l.l.",
"l.l.l.s z E ! R ! ~ N s e.l.l.",
"l.l.2.- H q.o.*.*.*.R > / l.l.",
"l.l.9.: z ' *.o.o.o.N - ( l.l.",
"l.l.L $ n R *.o.*.E c ; A l.l.",
"l.l.A X K ] o.o.o.' Y # l l.l.",
"l.l.A ; Y *.o.o.o.*.T , x l.l.",
"l.l.f 6 m ^ o.o.o.' N 1 9 l.l.",
"l.l.A % m J ^ o.^ Y m ; f l.l.",
"l.9.O % 7 m Y R Y N w 1 . ( l.",
"l.P O ; t 7 m Y N 7 t 1 + A l.",
"l.d 6 % u n g U g m u % w s l.",
"l.d 7 % % u g < 7 g % + 7 d l.",
"l.e 6 1 1 z 7 X 1 z 7 ; 1 3 l.",
"l.I ; t ; n z + j n ; 8 - A l.",
"l.9.$ 6 1 t g + g u - 1 - 0.l.",
"l.l.F ; % u t o t z % O A l.l.",
"l.l.9.4 1 Z g   t G t ; ( l.l.",
"l.l.l.a V 5.J 4 Y *.J s e.l.l.",
"l.l.l.l.P M S 2.D m S l.l.l.l.",
"l.l.l.l.l.e.y.l.e.e.l.l.l.l.l."
};
