/* XPM */
static char *louis_back5[] = {
/* columns rows colors chars-per-pixel */
"40 80 168 2 ",
"   c #242524",
".  c #24292E",
"X  c #2F2F2F",
"o  c #312F2B",
"O  c #282D34",
"+  c #302F30",
"@  c #353433",
"#  c #393633",
"$  c #3B3935",
"%  c #3D3C3A",
"&  c #413F3C",
"*  c #44423E",
"=  c #4A453E",
"-  c #363940",
";  c #393C43",
":  c #464442",
">  c #494642",
",  c #474947",
"<  c #4C4A45",
"1  c #4D4C49",
"2  c #544D45",
"3  c #524E49",
"4  c #565146",
"5  c #595147",
"6  c #55514B",
"7  c #5B544C",
"8  c #5D584E",
"9  c #555553",
"0  c #5B5652",
"q  c #5E5953",
"w  c #5D5C5A",
"e  c #61594F",
"r  c #625C55",
"t  c #695F56",
"y  c #645F5A",
"u  c #666056",
"i  c #6B6157",
"p  c #66615D",
"a  c #6A635D",
"s  c #6F685E",
"d  c #70675F",
"f  c #71685F",
"g  c #666361",
"h  c #6B6561",
"j  c #6E6964",
"k  c #6D6C6B",
"l  c #716660",
"z  c #736B64",
"x  c #786E65",
"c  c #756E69",
"v  c #786F68",
"b  c #777067",
"n  c #7A7166",
"m  c #75716B",
"M  c #7C746B",
"N  c #7F786D",
"B  c #747372",
"V  c #7B7772",
"C  c #7C7974",
"Z  c #7D7D7C",
"A  c #81776C",
"S  c #82796E",
"D  c #887C6F",
"F  c #857C72",
"G  c #897E73",
"H  c #817E7A",
"J  c #878076",
"K  c #8C8275",
"L  c #84827E",
"P  c #8D847A",
"I  c #8E887E",
"U  c #908577",
"Y  c #91867A",
"T  c #938A7D",
"R  c #998C7D",
"E  c #7F8080",
"W  c #858585",
"Q  c #8A8581",
"!  c #8D8983",
"~  c #8B8B8B",
"^  c #958C81",
"/  c #998F82",
"(  c #928F8A",
")  c #9B9284",
"_  c #93918D",
"`  c #9D948A",
"'  c #959494",
"]  c #9C9994",
"[  c #9C9C9B",
"{  c #A19587",
"}  c #A1978B",
"|  c #A1998E",
" . c #A0988D",
".. c #A29A8F",
"X. c #A39B90",
"o. c #A09C96",
"O. c #A99D90",
"+. c #A89E90",
"@. c #A19E99",
"#. c #A29F9C",
"$. c #A4A19E",
"%. c #9DA0A3",
"&. c #A1A2A2",
"*. c #A8A6A3",
"=. c #ACAAA4",
"-. c #ABA8A4",
";. c #ACAAA8",
":. c #ADACA9",
">. c #AFADA9",
",. c #ADADAD",
"<. c #B2B1AF",
"1. c #B1B1AF",
"2. c #B6B6B6",
"3. c #C6C6C4",
"4. c #C5C5C3",
"5. c #C9C8C5",
"6. c #C8C8C7",
"7. c #CBCAC9",
"8. c #CDCCC9",
"9. c #CECECB",
"0. c #D0CFCD",
"q. c #D0D0CF",
"w. c #D3D0CE",
"e. c #D0D0CF",
"r. c #D2D2D0",
"t. c #D4D4D3",
"y. c #DAD9D8",
"u. c #DDDCDB",
"i. c #DEDDDB",
"p. c #DEDCDB",
"a. c #DFDEDD",
"s. c #DDDDDC",
"d. c #E2E1DF",
"f. c #E3E3E3",
"g. c #E4E4E3",
"h. c #E4E4E4",
"j. c #E5E5E5",
"k. c #E6E6E6",
"l. c #E5E5E5",
"z. c #E9E8E7",
"x. c #E9E8E6",
"c. c #EDEDEC",
"v. c #EEEDEE",
"b. c #ECECEB",
"n. c #F5F5F3",
"m. c #F6F6F5",
"M. c #F5F5F5",
"N. c #FBFAF7",
"B. c #F7F7F8",
"V. c #F8F7F8",
"C. c #F9F9F9",
"Z. c #F9FAFB",
"A. c #F9FAFA",
"S. c #FBFBFB",
"D. c #FCFCFB",
"F. c #FBFCFC",
"G. c #FCFCFC",
"H. c #FDFCFC",
"J. c #FCFCFD",
"K. c #FCFDFD",
"L. c #FDFDFD",
"P. c #FDFEFD",
"I. c #FEFEFC",
"U. c #FEFEFD",
"Y. c #FEFDFE",
"T. c #FF00FF",
"R. c #FFFFFF",
"E. c #FEFEFE",
/* pixels */
"T.T.T.T.T.T.T.T.T.T.T.T.T.T.T.T.T.T.T.T.T.T.T.T.T.T.T.T.T.T.T.T.T.T.T.T.T.T.T.T.",
"T.T.T.T.T.T.T.T.T.T.T.T.T.T.T.T.T.T.T.T.T.T.T.T.T.T.T.T.T.T.T.T.T.T.T.T.T.T.T.T.",
"T.T.T.T.T.T.T.T.T.T.T.T.T.T.T.T.T.T.T.T.T.T.T.T.T.T.T.T.T.T.T.T.T.T.T.T.T.T.T.T.",
"T.T.T.T.T.T.T.T.T.T.T.T.T.T.T.T.T.T.T.T.T.T.T.T.T.T.T.T.T.T.T.T.T.T.T.T.T.T.T.T.",
"T.T.T.T.T.T.T.T.m.T.T.T.T.T.T.T.T.T.T.T.T.T.T.z.u.T.T.T.T.T.T.T.T.T.T.T.T.T.T.T.",
"T.T.T.T.T.T.m.W g q.T.T.T.T.T.T.T.T.T.T.T.T.7.h y q.T.T.T.T.T.T.T.T.T.T.T.T.T.T.",
"T.T.T.T.T.T.:.j C j 7.T.T.T.T.T.T.T.T.T.T.5.z F I h u.T.T.T.T.T.T.T.T.T.T.T.T.T.",
"T.T.T.T.T.T.[ V  .I h q.T.T.T.T.T.T.T.T.3.p ^ ` Y p u.T.T.T.T.T.T.T.T.T.T.T.T.T.",
"T.T.T.T.T.T.@.b  .` I j r.k.k.k.k.k.d.u._ z ) ) Y p u.T.T.T.T.T.T.T.T.T.T.T.T.T.",
"T.T.T.T.T.T.] b X.` ` ! 3 3 3 < > > 3 2 p F T ) T z u.T.T.T.T.T.T.T.T.T.T.T.T.T.",
"T.T.T.T.T.T.@.S X.` ` I p p y r r q p p b F Y / ` p u.T.T.T.T.T.T.T.T.T.T.T.T.T.",
"T.T.T.T.T.T._ r ` `  .I z p p h p y z p z b I ^ F @.b.T.T.T.T.T.T.T.T.T.T.T.T.T.",
"T.T.T.T.T.T.0.b z ^  .T b z p h p p h p h p x F p b.T.T.T.T.T.T.T.T.T.T.T.T.T.T.",
"T.T.T.T.T.T.T.:.2 I ) F z v p p z p h z p b z b j b.T.T.T.T.T.T.T.T.T.T.T.T.T.T.",
"T.T.T.T.T.T.T.<.3 F F F b v p p F r z b j z K ^ h ] V.T.T.T.T.T.T.T.T.T.T.T.T.T.",
"T.T.T.T.T.T.u.! z ^ ^ ^ b z h p b p p z b A F ^ K q 0.T.T.T.T.T.T.T.T.T.T.T.T.T.",
"T.T.T.T.T.T.*.q I ) { T S z b p b b z h b b A T Y b Q T.T.T.T.T.T.T.T.T.T.T.T.T.",
"T.T.T.T.T.T.:.d / { { T T b b z b A z v z b b T Y A Q T.T.T.T.T.T.T.T.T.T.T.T.T.",
"T.T.T.T.T.T.=.b +. .{ K ) A b A S I d I z F b K K b ! T.T.T.T.T.T.T.T.T.T.T.T.T.",
"T.T.T.T.T.T.=.b +.{ ) K ) S N I F I d K d S K K S z C T.T.T.T.T.T.T.T.T.T.T.T.T.",
"T.T.T.T.T.T.=.d ) ^ K / ) T K n F b z I b S T Y b 7 $.T.T.T.T.T.T.T.T.T.T.T.T.T.",
"T.T.T.T.T.T.z.z z G K ^ ^ K T n S A p A n G G G p _ T.T.T.T.T.T.T.T.T.T.T.T.T.T.",
"T.T.T.T.T.T.T.y.b z b K ^ T / F b G p b z b z b p b.T.T.T.T.T.T.T.T.T.T.T.T.T.T.",
"T.T.T.T.T.T.T.T.=.p z K ) ) T A z Y h b b p h j h k.T.T.T.T.T.T.T.T.T.T.T.T.T.T.",
"T.T.T.T.T.T.T.T.T.B p K ) T T S z F p p p p h y > v.T.T.T.T.T.T.T.T.T.T.T.T.T.T.",
"T.T.T.T.T.T.T.T.T.b n ) ) G F S z z y p p h h h q B m.T.T.T.T.T.T.T.T.T.T.T.T.T.",
"T.T.T.T.T.T.T.T.$.J /  .T z h z p y y r 7 7 3 7 y * b V.T.T.T.T.T.T.T.T.T.T.T.T.",
"T.T.T.T.T.T.T.N.C T  .Y I z p y h y q 5 2 5 e r q q # k m.T.T.T.T.T.T.T.T.T.T.T.",
"T.T.T.T.T.T.T.' F ` / / T h j v p y 7 7 7 7 r p p r 6 * k.T.T.T.T.T.T.T.T.T.T.T.",
"T.T.T.T.T.T.T.L F ) T ) I p p p p y r r e 5 5 7 p p p < g T.T.T.T.T.T.T.T.T.T.T.",
"T.T.T.T.T.T.T.Q F ) ^ G z h b G b p r 7 7 7 7 7 7 7 r < q T.T.T.T.T.T.T.T.T.T.T.",
"T.T.T.T.T.T.T.L F ` b z z z K b p t z l y q 7 7 r q 7 7 3 L T.T.T.T.T.T.T.T.T.T.",
"T.T.T.T.T.T.T.L G ` p F Y F x r p S F z y y 7 r p p p h y 9 3.T.T.T.T.T.T.T.T.T.",
"T.T.T.T.T.T.T.H N F p G Y x z T T b p p p 7 7 5 r p p h z p > <.T.T.T.T.T.T.T.T.",
"T.T.T.T.T.T.T.H z F F I A u Y Y z p p z p y 7 5 r p h p b F r 9 b.T.T.T.T.T.T.T.",
"T.T.T.T.T.T.T.H b ^ I F d F I n p d b K p p p 7 7 p h l F K p 2 V T.T.T.T.T.T.T.",
"T.T.T.T.T.T.T.C v T K p G T S p x b Y z p g h r 5 y h F S D n 7 j N.T.T.T.T.T.T.",
"T.T.T.T.T.T.T.V p F F x K G z K T Y z p h h h q 5 y p b b b S S q ! T.T.T.T.T.T.",
"T.T.T.T.T.T.T.C 7 I I b F z S U K x h p h h h y 7 r p p h p p F r H T.T.T.T.T.T.",
"T.T.T.T.T.T.T.C q F G z G K T U A p h z h h h p 7 5 r y p h b F p V b.T.T.T.T.T.",
"T.T.T.T.T.T.T.Z 7 z n n ^ T Y b p z A G N h p p 7 7 7 p h p n Y F > ' T.T.T.T.T.",
"T.T.T.T.T.T.T.b p I p F R T F b b I Y G K z y y 7 r p p p z n I J < [ T.T.T.T.T.",
"T.T.T.T.T.T.T.7.z z y I ) Y p x ^ T D G b p h h q p h h z b d z z > [ T.T.T.T.T.",
"T.T.T.T.T.T.T.T.k p p I G z A I / K D K b z j h h h h h z z b b p * &.T.T.T.T.T.",
"T.T.T.T.T.T.T.T.3.j r v b b I A S G G G z z h h h y y p h F I Y F 6 g m.T.T.T.T.",
"T.T.T.T.T.T.T.T.T.k 6 p z z x S G G G G z p p y p y y p j A G K K h o 2.T.T.T.T.",
"T.T.T.T.T.T.T.T.T.g 2 A I G I T T F F F z p g y p h h g h b G G K b 7 h m.T.T.T.",
"T.T.T.T.T.T.T.T.W < b Y I I T K K z p p h p g p h h p p h F A n U G A r _ T.T.T.",
"T.T.T.T.T.T.T.T.k y T I b z I I G F I z q y y y h q q p j G G F S K Y z L T.T.T.",
"T.T.T.T.T.T.T.:.9 v G S F b b K F F F b p p y p r 7 p p h F G b A Y b z * W T.T.",
"T.T.T.T.T.T.T.W > b F p b I F F F F b h g g h g q 7 h g p z z b R K d j % Z T.T.",
"T.T.T.T.T.T.T.~ > b F h v b I G F b h h g g g h q 6 p g h h h K R Y z V 1 Z T.T.",
"T.T.T.T.T.T.T.~ > v v v p h v b z b h h g g g g q 6 p p j h j Y S b y j < Z T.T.",
"T.T.T.T.T.T.T.~ & j b h p h b v p b z h g p r p q 7 r 7 v j b b p z p h * L T.T.",
"T.T.T.T.T.T.T.~ % h b p h b z v F N S z p p p r 4 q 7 7 h p K z d I p j * Z T.T.",
"T.T.T.T.T.T.T.b.g w V V p v b r p p j p y h p 7 2 7 2 7 h p F z t v y h > ~ T.T.",
"T.T.T.T.T.T.T.T.k > p h b p z b b p p p h h q 4 2 6 7 u z b p d b y p 3 w T.T.T.",
"T.T.T.T.T.T.T.T.z.9 6 p F b p F S F C h h r 7 7 q 7 4 u h p p F b p p > w T.T.T.",
"T.T.T.T.T.T.T.T.T.w 1 h b G F F F T b p h q 6 q y 7 4 7 r p z N p p 1 9 b.T.T.T.",
"T.T.T.T.T.T.T.T.T.k.9 1 p b b F F b z p p q r r 7 4 7 r 7 p h p h p > k T.T.T.T.",
"T.T.T.T.T.T.T.T.T.b.6 $ q b z p z p p p p p q 6 4 5 5 7 4 7 h h p < k T.T.T.T.T.",
"T.T.T.T.T.T.T.T.m._ ! 3 < p p p V v p p q 6 3 6 6 2 4 5 7 q r q 6 @ g T.T.T.T.T.",
"T.T.T.T.T.T.T.T.W _ ] < 1 q q r h p p p q 6 2 7 q * 6 7 r q 2 < 1 < ~ T.T.T.T.T.",
"T.T.T.T.T.T.T.T.[ C C * $ 1 7 8 p e 7 7 8 7 6 r g q < < > > * > 1 g T.T.T.T.T.T.",
"T.T.T.T.T.T.T.T.T.W g g 1 @ 6 p p r 4 r 6 < q h h y , ; - , 6 6 & ~ T.T.T.T.T.T.",
"T.T.T.T.T.T.T.T.T.T.T.T.k.B % $ * * # @ @ % g v v z p O . .   @ &.T.T.T.T.T.T.T.",
"T.T.T.T.T.T.T.T.T.T.T.T.T.m.Z W ~ W W ~ 9 & v j b z w [ %.[ ' 1.T.T.T.T.T.T.T.T.",
"T.T.T.T.T.T.T.T.T.T.T.T.T.T.T.T.T.T.T.T.[ # ! I F p p T.T.T.T.T.T.T.T.T.T.T.T.T.",
"T.T.T.T.T.T.T.T.T.T.T.T.T.T.T.T.T.T.B.T.] @ z z ! z q m.T.T.T.T.T.T.T.T.T.T.T.T.",
"T.T.T.T.T.T.T.T.T.T.T.T.T.T.T.T.T.T.T.T.' # p r p 2 < m.T.T.T.T.T.T.T.T.T.T.T.T.",
"T.T.T.T.T.T.T.T.T.T.T.T.T.T.T.T.T.T.T.3.> 7 I I z = w T.T.T.T.T.T.T.T.T.T.T.T.T.",
"T.T.T.T.T.T.T.T.T.T.T.T.T.T.T.T.T.T.T.j = t S F C < u.T.T.T.T.T.T.T.T.T.T.T.T.T.",
"T.T.T.T.T.T.T.T.T.T.T.T.T.T.T.T.T.b.:.6 z n p r > B T.T.T.T.T.T.T.T.T.T.T.T.T.T.",
"T.T.T.T.T.T.T.T.b.r.u.r.7.q.r.r.3.b q p F  .Q q k m.T.T.T.T.T.T.T.T.T.T.T.T.T.T.",
"T.T.T.T.T.T.T.k.w @ % % @ % & > < v F z b ^ p w b.T.T.T.T.T.T.T.T.T.T.T.T.T.T.T.",
"T.T.T.T.T.T.T.'   > > > 9 q q v p z ` I b y g k.T.T.T.T.T.T.T.T.T.T.T.T.T.T.T.T.",
"T.T.T.T.T.T.T.b.g O > > w y y I z p b z 6 v b.T.T.T.T.T.T.T.T.T.T.T.T.T.T.T.T.T.",
"T.T.T.T.T.T.T.T.m.Z @ + * < < p 7 < w 1 ~ T.T.T.T.T.T.T.T.T.T.T.T.T.T.T.T.T.T.T.",
"T.T.T.T.T.T.T.T.T.T.~ k B V Z V B B k.T.T.T.T.T.T.T.T.T.T.T.T.T.T.T.T.T.T.T.T.T.",
"T.T.T.T.T.T.T.T.T.T.T.T.T.T.T.T.T.T.T.T.T.T.T.T.T.T.T.T.T.T.T.T.T.T.T.T.T.T.T.T."
};
