/* XPM */
static char *louis_back1[] = {
/* columns rows colors chars-per-pixel */
"37 80 159 2 ",
"   c #2C2C29",
".  c #312F2C",
"X  c #31302F",
"o  c #353533",
"O  c #3A3733",
"+  c #3A3936",
"@  c #3C3C3A",
"#  c #413E3B",
"$  c #44423D",
"%  c #454442",
"&  c #494642",
"*  c #4C4A45",
"=  c #4C4C4A",
"-  c #524C45",
";  c #584F45",
":  c #524E49",
">  c #565046",
",  c #585147",
"<  c #55514B",
"1  c #5B554C",
"2  c #5E584F",
"3  c #565553",
"4  c #5A5651",
"5  c #5D5954",
"6  c #5E5C5A",
"7  c #60574D",
"8  c #625C55",
"9  c #635E59",
"0  c #685F59",
"q  c #676057",
"w  c #66625D",
"e  c #6A645D",
"r  c #70665C",
"t  c #71685F",
"y  c #666361",
"u  c #6A6561",
"i  c #6E6963",
"p  c #6E6D6C",
"a  c #706761",
"s  c #736C64",
"d  c #796F66",
"f  c #736E69",
"g  c #786F69",
"h  c #767066",
"j  c #7A7166",
"k  c #75716A",
"l  c #7B746B",
"z  c #7F796F",
"x  c #757573",
"c  c #7A7772",
"v  c #7D7972",
"b  c #7A7979",
"n  c #80766C",
"m  c #82796E",
"M  c #807771",
"N  c #847C72",
"B  c #897E74",
"V  c #817F7A",
"C  c #887F78",
"Z  c #8B8176",
"A  c #84817D",
"S  c #8D8479",
"D  c #8F887D",
"F  c #918376",
"G  c #92867A",
"H  c #93897D",
"J  c #998C7E",
"K  c #898681",
"L  c #968D81",
"P  c #998F82",
"I  c #9C9284",
"U  c #90908E",
"Y  c #9B958A",
"T  c #939394",
"R  c #9B9792",
"E  c #979798",
"W  c #9C9C9B",
"Q  c #A19586",
"!  c #A29688",
"~  c #A2998C",
"^  c #A59C92",
"/  c #A1A19E",
"(  c #A5A5A4",
")  c #A9A7A5",
"_  c #AAA9A7",
"`  c #AEABA9",
"'  c #ADADAB",
"]  c #B0AFAB",
"[  c #B0AFAE",
"{  c #B2B1AD",
"}  c #B3B1AE",
"|  c #B0B0AE",
" . c #B6B5B2",
".. c #B6B6B3",
"X. c #B4B4B3",
"o. c #B8B5B4",
"O. c #B8B7B4",
"+. c #B8B6B4",
"@. c #B9B8B6",
"#. c #BCBAB7",
"$. c #BCB9B6",
"%. c #B9B8B7",
"&. c #BCBAB8",
"*. c #BEBCBA",
"=. c #BFBEBB",
"-. c #BBBBBA",
";. c #C1BEBB",
":. c #C2C1BE",
">. c #C3C2BE",
",. c #BFBFC0",
"<. c #C5C4C2",
"1. c #C4C4C4",
"2. c #CBCBC8",
"3. c #CCCBC8",
"4. c #CACACA",
"5. c #D0D0CF",
"6. c #D1D0D0",
"7. c #D7D7D5",
"8. c #D4D5D4",
"9. c #D8D8D7",
"0. c #DDDDDA",
"q. c #DFDFDE",
"w. c #DADADA",
"e. c #E0DFDD",
"r. c #E2E1E0",
"t. c #E3E2E0",
"y. c #E6E5E3",
"u. c #E7E7E6",
"i. c #E5E5E4",
"p. c #EBEBEB",
"a. c #E9E9E8",
"s. c #EDECEB",
"d. c #EEEEED",
"f. c #ECECEB",
"g. c #EFF0F0",
"h. c #F4F4F3",
"j. c #F9F9F7",
"k. c #F8F8F8",
"l. c #F9F9F9",
"z. c #FAFAF9",
"x. c #FAFAFA",
"c. c #FAFAFB",
"v. c #FBFBFB",
"b. c #FCFBFB",
"n. c #FCFBFC",
"m. c #FCFCFC",
"M. c #FDFCFC",
"N. c #FDFDFD",
"B. c #FEFEFD",
"V. c #FEFEFC",
"C. c #FDFDFE",
"Z. c #FDFEFE",
"A. c #FF00FF",
"S. c #FFFEFE",
"D. c #FEFFFE",
"F. c #FEFEFF",
"G. c #FFFFFF",
"H. c #FEFFFF",
"J. c #FEFEFD",
/* pixels */
"A.A.A.A.A.A.A.A.A.A.A.A.A.A.A.A.A.A.A.A.A.A.A.A.A.A.A.A.A.A.A.A.A.A.A.A.A.",
"A.A.A.A.A.A.A.A.A.A.A.A.A.A.A.A.A.A.A.A.A.A.A.A.A.A.A.A.A.A.A.A.A.A.A.A.A.",
"A.A.A.A.A.A.A.A.A.A.A.A.A.A.A.A.A.A.A.A.A.A.A.A.A.A.A.A.A.A.A.A.A.A.A.A.A.",
"A.A.A.A.A.A.A.A.A.A.A.A.A.A.A.A.A.A.A.A.A.A.A.A.A.A.A.A.A.A.A.A.A.A.A.A.A.",
"A.A.A.A.A.A.A.t._ #.A.A.A.A.A.A.A.A.A.A.A.A.A.0.' 2.A.A.A.A.A.A.A.A.A.A.A.",
"A.A.A.A.A.A.t.K e 8 ] A.A.A.A.A.A.A.A.A.A.A.e.c 9 j { A.A.A.A.A.A.A.A.A.A.",
"A.A.A.A.A.A.&.i ^ H 8 &.A.A.A.A.A.A.A.A.A.t.j j I m f A.A.A.A.A.A.A.A.A.A.",
"A.A.A.A.A.A.>.j ~ ~ H s 2.A.A.A.A.A.A.A.a.A N ~ ! m c A.A.A.A.A.A.A.A.A.A.",
"A.A.A.A.A.A.>.s ~ I ~ Z j &.o.o. . .{ #.C e I I Q m c A.A.A.A.A.A.A.A.A.A.",
"A.A.A.A.A.A.;.s ~ I I L s $ & & $ $ $ + 5 m G I Q m c A.A.A.A.A.A.A.A.A.A.",
"A.A.A.A.A.A.#.8 P I P S m e i s e 8 s e u n G I I j f A.A.A.A.A.A.A.A.A.A.",
"A.A.A.A.A.A.0.Y N H H j j e e i e s s e e s S H s R 8.A.A.A.A.A.A.A.A.A.A.",
"A.A.A.A.A.A.A.A.q h S j j e e e e i s u i e s N 5  .A.A.A.A.A.A.A.A.A.A.A.",
"A.A.A.A.A.A.A.t.q e m j s e e s s e s s e j m j 8 ( A.A.A.A.A.A.A.A.A.A.A.",
"A.A.A.A.A.A.A.A 2 N H N e s e j j q j e j j S H N 4 8.A.A.A.A.A.A.A.A.A.A.",
"A.A.A.A.A.A.<.5 j I P j q N s e s 8 s q N N S L S e p a.A.A.A.A.A.A.A.A.A.",
"A.A.A.A.A.A.) 8 I Y H m s j s e s s j e N m S P S z 5 t.A.A.A.A.A.A.A.A.A.",
"A.A.A.A.A.A.{ e I I G S j s s e s t j j m m S I S j q a.A.A.A.A.A.A.A.A.A.",
"A.A.A.A.A.A.] s ~ I J I j s N s N e S m j S m I S N 9 a.A.A.A.A.A.A.A.A.A.",
"A.A.A.A.A.A.' e Y H G P n h B S B r H j s H G H S j i a.A.A.A.A.A.A.A.A.A.",
"A.A.A.A.A.A.j.K q m S P H H s H N s S e j H J H j 4 <.A.A.A.A.A.A.A.A.A.A.",
"A.A.A.A.A.A.A.8.5 t N L H S s S j u m e S m m S 8 ( A.A.A.A.A.A.A.A.A.A.A.",
"A.A.A.A.A.A.A.A.c e S H B m s S s e m t h j s S 4 &.A.A.A.A.A.A.A.A.A.A.A.",
"A.A.A.A.A.A.A.A.' : S L B m e S m 8 N k e j s j 5  .A.A.A.A.A.A.A.A.A.A.A.",
"A.A.A.A.A.A.A.A.#.: N j N j e j N e s s 8 s m s <  .A.A.A.A.A.A.A.A.A.A.A.",
"A.A.A.A.A.A.A.A./ 4 N i s k i i i u q e e s D N : W A.A.A.A.A.A.A.A.A.A.A.",
"A.A.A.A.A.A.A.8.$ e i q 5 9 q 9 8 5 8 9 q u i i i % { A.A.A.A.A.A.A.A.A.A.",
"A.A.A.A.A.A.j.( : q 4 5 e 8 8 2 2 2 2 2 4 q 5 q i * K a.A.A.A.A.A.A.A.A.A.",
"A.A.A.A.A.A. .+ 9 8 8 u q 2 < 2 > 2 2 e u e 9 4 5 q o W A.A.A.A.A.A.A.A.A.",
"A.A.A.A.A.A. .: N s 9 e 8 5 5 8 4 2 5 e u s B e < i % ( A.A.A.A.A.A.A.A.A.",
"A.A.A.A.A.A.o.< C s s 8 2 8 q q 5 2 2 8 u u s n i q $ _ A.A.A.A.A.A.A.A.A.",
"A.A.A.A.A.A.#.& u d G j s e q q e 5 5 9 u s d N S u O ' A.A.A.A.A.A.A.A.A.",
"A.A.A.A.A.A.<.% e S G S s e e q q 8 8 u u s j j j s $ ( A.A.A.A.A.A.A.A.A.",
"A.A.A.A.A.0.k u B S j e e s e 9 8 2 5 u u u q e e s q : &.A.A.A.A.A.A.A.A.",
"A.A.A.A.A.] O f S j e e j N e e 8 , 8 i u u e j s q j < ( A.A.A.A.A.A.A.A.",
"A.A.A.A.A.#.* s f j j B B j e e 8 2 q u u u e S N s j 4 ' A.A.A.A.A.A.A.A.",
"A.A.A.A.A.#.: i e B H H j e u u u 8 8 e s N j n N S s : ' A.A.A.A.A.A.A.A.",
"A.A.A.A.A.&.- d B S B s q u u u u 8 2 e e s n n s j j < ' A.A.A.A.A.A.A.A.",
"A.A.A.A.A.&.8 G S N j q u u u u u 8 2 8 e s N j s j N 4 / A.A.A.A.A.A.A.A.",
"A.A.A.A.t.3 s G B s u s B N s u u 2 2 5 8 i i e s S S i @  .A.A.A.A.A.A.A.",
"A.A.A.A.j.b s L M s c S B S i q u 4 2 e u u s N s j S e y a.A.A.A.A.A.A.A.",
"A.A.A.A.A.<.8 N e i S S B N u q u 2 2 e u s j j u e j 5 c A.A.A.A.A.A.A.A.",
"A.A.A.A.A.<.= 8 j C N N B s i u q 2 2 e u f f q j j s : b A.A.A.A.A.A.A.A.",
"A.A.A.A.A.' = u B n j B S s i i 8 2 2 5 e u q i B G B e q 4.A.A.A.A.A.A.A.",
"A.A.A.A.2.$ q s N S S S N s q u 4 2 2 q u u y u S G B s & 3 j.A.A.A.A.A.A.",
"A.A.A.a.5 3 j S N B G N k f u u q q 8 u u u u j j m F S N 4 x A.A.A.A.A.A.",
"A.A.A.j.= 6 s j e d t s i y y y u u 5 q u q i B j n J J N 8 i A.A.A.A.A.A.",
"A.A.A. .= y f j N G S S j q y 9 u y < q u 9 f G H G m F G j q 5.A.A.A.A.A.",
"A.A.j.= 3 u y k S S L m s u y y u q 3 u y q f S B n N S j s $ 3 A.A.A.A.A.",
"A.A.A.3 9 f i i k j N s q u y y y q 2 q y y u i s N J B e e 2 y A.A.A.A.A.",
"A.A.A.3 4 c c y y i j f u u u y y q < q y u u u j H G S j N 8 y A.A.A.A.A.",
"A.A.A.3 5 f c u y q c S h u u q q q < q q q f u j S j s e s 8 y A.A.A.A.A.",
"A.A.A.3 6 k i y k f i j m k u q 5 4 4 q 5 9 s f N j e u e u 5 y A.A.A.A.A.",
"A.A.A.5 4 i u y f j q u j i 9 u q < 5 5 2 e a j S e u N q u 5 6 A.A.A.A.A.",
"A.A.A.6 = y u i q k k e 9 q u q 5 2 2 8 2 i s d m s e e q q * y A.A.A.A.A.",
"A.A.A.8.= 3 5 i u i k k q u u 9 < , 2 8 8 u s s 8 s N e q 4 * t.A.A.A.A.A.",
"A.A.A.t.@ = 5 i N S m j k 6 q 5 > 2 8 2 2 9 q e i N j u q = + a.A.A.A.A.A.",
"A.A.A.A.W @ q N S S S j u 9 8 2 2 2 2 2 2 2 9 e k N e u q = ' A.A.A.A.A.A.",
"A.A.A.A.0.= = f c s s y q q 9 4 7 4 , 2 8 2 5 q u e q u : + a.A.A.A.A.A.A.",
"A.A.A.A.A.[ X q i 9 i 9 5 9 6 9 2 ; 2 2 , , , 5 u q q 5 = W g.A.A.A.A.A.A.",
"A.A.A.A.A.<.@ < 4 4 q 8 2 2 : : : < < : > 2 8 9 q 5 8 $ @ A.A.A.A.A.A.A.A.",
"A.A.A.A.A.A. .$ 9 2 < 4 < < 2 * % 6 3 - 2 2 q q < * * % Y j.A.A.A.A.A.A.A.",
"A.A.A.A.A.A.&.  & : 2 & $ > - : 4 9 5 < < - < 8 - * = + a.A.A.A.A.A.A.A.A.",
"A.A.A.A.A.A.t.' % = 9 < * 2 - < s i 9 5 & - 2 e 8 < @ W a.A.A.A.A.A.A.A.A.",
"A.A.A.A.A.A.A.A.&.& O @ o . # 9 N N s i $ # $ $ X + ( A.A.A.A.A.A.A.A.A.A.",
"A.A.A.A.A.A.A.A.A.' U E E W p < N N j j & p W E E  .A.A.A.A.A.A.A.A.A.A.A.",
"A.A.A.A.A.A.A.A.A.A.A.A.A.A.' + s S S N * ' A.A.A.A.A.A.A.A.A.A.A.A.A.A.A.",
"A.A.A.A.A.A.A.A.A.A.A.A.j.A.0.k q N e e % ( A.j.A.A.A.A.A.A.A.A.A.A.A.A.A.",
"A.A.A.A.A.A.A.A.A.A.A.A.A.A.A.' * u s j 3 3 2.A.A.A.A.A.A.A.A.A.A.A.A.A.A.",
"A.A.A.A.A.A.A.A.A.A.A.A.A.A.A./ % s S H e + W A.A.A.A.A.A.A.A.A.A.A.A.A.A.",
"A.A.A.A.A.A.A.A.A.A.A.A.A.A.A.j.' i N S s 5 < 2.A.A.A.A.A.A.A.A.A.A.A.A.A.",
"A.A.A.A.A.A.A.A.A.A.A.A.A.A.A.A.j.< 4 s N N 4 3 &.j.A.A.A.A.A.A.A.A.A.A.A.",
"A.A.A.A.A.A.A.A.A.A.A.A.A.A.A.A.A.<.= c L m s q * 6  .' ' '  . .<.A.A.A.A.",
"A.A.A.A.A.A.A.A.A.A.A.A.A.A.A.A.A.A.&.3 c N j m s 4 +       X X % &.A.A.A.",
"A.A.A.A.A.A.A.A.A.A.A.A.A.A.A.A.A.A.A.,.* i N L Z 2 s 5 3 % % = o y A.A.A.",
"A.A.A.A.A.A.A.A.A.A.A.A.A.A.A.A.A.A.A.A.&.6 * 4 5 q k 9 4 * % @ @ &.A.A.A.",
"A.A.A.A.A.A.A.A.A.A.A.A.A.A.A.A.A.A.A.A.A.t.( ' 6 o @ o + o   % 2.A.A.A.A.",
"A.A.A.A.A.A.A.A.A.A.A.A.A.A.A.A.A.A.A.A.A.A.A.A.8.%.&.&.&.&.%.2.A.A.A.A.A.",
"A.A.A.A.A.A.A.A.A.A.A.A.A.A.A.A.A.A.A.A.A.A.A.A.A.A.A.A.A.A.A.A.A.A.A.A.A.",
"A.A.A.A.A.A.A.A.A.A.A.A.A.A.A.A.A.A.A.A.A.A.A.A.A.A.A.A.A.A.A.A.A.A.A.A.A."
};
